<svg width="783" height="878" viewBox="0 0 783 878" fill="none" xmlns="http://www.w3.org/2000/svg">
<mask id="mask0_1_258" style="mask-type:alpha" maskUnits="userSpaceOnUse" x="0" y="0" width="783" height="878">
<path d="M45 0.5H782.5V877.5H45C20.4233 877.5 0.5 857.577 0.5 833V45C0.5 20.4233 20.4233 0.5 45 0.5Z" fill="url(#paint0_linear_1_258)" stroke="black"/>
</mask>
<g mask="url(#mask0_1_258)">
<rect x="-184" y="665.312" width="500" height="500" rx="63" transform="rotate(-18.7007 -184 665.312)" fill="white" fill-opacity="0.3"/>
<rect x="-103.366" y="678.28" width="395" height="395" rx="38.5" transform="rotate(-18.7007 -103.366 678.28)" fill="white" fill-opacity="0.3" stroke="white"/>
<rect x="233.048" y="-369" width="500" height="500" rx="63" transform="rotate(24.5884 233.048 -369)" fill="white" fill-opacity="0.3"/>
<rect x="247.242" y="-333.337" width="446" height="446" rx="38.5" transform="rotate(24.5884 247.242 -333.337)" fill="white" fill-opacity="0.3" stroke="white"/>
<rect x="723.048" y="322" width="500" height="500" rx="63" transform="rotate(24.5884 723.048 322)" fill="white" fill-opacity="0.3"/>
<rect x="729.242" y="359.663" width="446" height="446" rx="38.5" transform="rotate(24.5884 729.242 359.663)" fill="white" fill-opacity="0.3" stroke="white"/>
<rect x="58.963" y="762.446" width="688.635" height="5.1295" rx="2.56475" fill="#1E1E1E"/>
<g filter="url(#filter0_d_1_258)">
<mask id="mask1_1_258" style="mask-type:alpha" maskUnits="userSpaceOnUse" x="228" y="296" width="463" height="466">
<path d="M529.673 761.294C502.035 761.294 494.821 720.578 492.541 708.526C480.53 664.909 469.18 649.214 459.316 648.963C449.453 649.214 438.104 664.194 426.094 707.749C423.814 719.784 416.591 760.443 388.962 760.443C362.4 760.443 326.751 736.698 310.791 716.532C277.568 661.886 265.842 621.878 234.573 507.709C211.122 384.758 259.979 319.378 310.791 302.789C355.739 288.115 428.048 303.335 459.316 311.792C490.586 303.323 562.897 288.302 607.848 302.997C658.661 319.609 707.52 385.08 684.068 508.205C652.798 622.535 641.072 662.599 607.848 717.321C591.887 737.516 562.722 761.294 529.673 761.294Z" fill="#FE9C8F"/>
</mask>
<g mask="url(#mask1_1_258)">
<path d="M529.673 761.294C502.035 761.294 494.821 720.578 492.541 708.526C480.53 664.909 469.18 649.214 459.316 648.963C449.453 649.214 438.104 664.194 426.094 707.749C423.814 719.784 416.591 760.443 388.962 760.443C362.4 760.443 326.751 736.698 310.791 716.532C277.568 661.886 265.842 621.878 234.573 507.709C211.122 384.758 259.979 319.378 310.791 302.789C355.739 288.115 428.048 303.335 459.316 311.792C490.586 303.323 562.897 288.302 607.848 302.997C658.661 319.609 707.52 385.08 684.068 508.205C652.798 622.535 641.072 662.599 607.848 717.321C591.887 737.516 562.722 761.294 529.673 761.294Z" fill="#8ADAFB"/>
<path d="M660.438 393.405C660.438 533.242 571.247 651.573 448.391 691.076C419.994 700.206 420.091 835.091 388.783 835.091C222.021 835.091 56.5419 565.564 56.5419 393.405C56.5419 221.247 191.729 81.6853 358.49 81.6853C525.252 81.6853 660.438 221.247 660.438 393.405Z" fill="#E0EDFF"/>
<ellipse cx="343.832" cy="350.409" rx="256.021" ry="253.089" fill="white"/>
</g>
</g>
<ellipse cx="373.15" cy="497.963" rx="17.5892" ry="17.5892" fill="#FE9C8F"/>
<mask id="path-14-inside-1_1_258" fill="white">
<path d="M396.536 497.849C397.651 497.849 398.564 496.943 398.475 495.831C398.028 490.22 395.727 484.894 391.905 480.711C387.626 476.028 381.752 473.116 375.435 472.545C369.118 471.974 362.816 473.787 357.768 477.627C352.72 481.466 349.29 487.055 348.153 493.295C347.017 499.535 348.255 505.974 351.625 511.347C354.995 516.721 360.252 520.639 366.365 522.333C372.477 524.026 379.001 523.372 384.656 520.5C389.708 517.933 393.74 513.761 396.137 508.668C396.611 507.659 396.077 506.489 395.033 506.096C393.989 505.703 392.833 506.235 392.343 507.237C390.312 511.389 386.98 514.789 382.827 516.899C378.071 519.315 372.584 519.864 367.443 518.44C362.303 517.016 357.881 513.72 355.047 509.201C352.213 504.682 351.171 499.267 352.127 494.019C353.083 488.771 355.968 484.071 360.213 480.841C364.459 477.612 369.759 476.088 375.071 476.568C380.384 477.048 385.325 479.497 388.923 483.435C392.065 486.874 393.985 491.231 394.421 495.832C394.526 496.942 395.42 497.849 396.536 497.849Z"/>
</mask>
<path d="M396.536 497.849C397.651 497.849 398.564 496.943 398.475 495.831C398.028 490.22 395.727 484.894 391.905 480.711C387.626 476.028 381.752 473.116 375.435 472.545C369.118 471.974 362.816 473.787 357.768 477.627C352.72 481.466 349.29 487.055 348.153 493.295C347.017 499.535 348.255 505.974 351.625 511.347C354.995 516.721 360.252 520.639 366.365 522.333C372.477 524.026 379.001 523.372 384.656 520.5C389.708 517.933 393.74 513.761 396.137 508.668C396.611 507.659 396.077 506.489 395.033 506.096C393.989 505.703 392.833 506.235 392.343 507.237C390.312 511.389 386.98 514.789 382.827 516.899C378.071 519.315 372.584 519.864 367.443 518.44C362.303 517.016 357.881 513.72 355.047 509.201C352.213 504.682 351.171 499.267 352.127 494.019C353.083 488.771 355.968 484.071 360.213 480.841C364.459 477.612 369.759 476.088 375.071 476.568C380.384 477.048 385.325 479.497 388.923 483.435C392.065 486.874 393.985 491.231 394.421 495.832C394.526 496.942 395.42 497.849 396.536 497.849Z" fill="#FE9C8F" stroke="#FE9C8F" stroke-width="2" mask="url(#path-14-inside-1_1_258)"/>
<path d="M183.576 403.1C182.471 403.1 181.576 403.995 181.576 405.1C181.576 406.204 182.471 407.1 183.576 407.1L183.576 403.1ZM281.293 405.1L282.708 403.686L282.122 403.1L281.293 403.1L281.293 405.1ZM183.576 407.1L281.293 407.1L281.293 403.1L183.576 403.1L183.576 407.1ZM279.879 406.514L355.122 481.788L357.951 478.96L282.708 403.686L279.879 406.514Z" fill="#FE9C8F"/>
<rect x="37.4999" y="383.042" width="122.125" height="8.77178" rx="4.38589" fill="#FE9C8F" stroke="#FE9C8F"/>
<rect x="37.4999" y="429.946" width="122.125" height="8.77178" rx="4.38589" fill="#FE9C8F" stroke="#FE9C8F"/>
<rect x="37.4999" y="406.494" width="77.1743" height="8.77178" rx="4.38589" fill="#FE9C8F" stroke="#FE9C8F"/>
<rect x="131.309" y="406.494" width="28.3154" height="8.77178" rx="4.38589" fill="#FE9C8F" stroke="#FE9C8F"/>
<g filter="url(#filter1_d_1_258)">
<path d="M646.761 533.142H636.989L637.966 551.708H645.784L646.761 533.142Z" fill="#FCCDC7"/>
<rect width="9.77179" height="13.6805" rx="2" transform="matrix(-1 0 0 1 646.761 527.279)" fill="#CB766B"/>
<path d="M632.102 526.301C632.884 545.845 648.714 537.05 648.714 537.05C648.714 537.05 650.669 531.187 651.646 529.233C655.555 521.415 645.131 526.953 641.874 528.256C651.151 522.393 637.965 520.438 635.034 521.415C632.689 522.197 632.102 524.673 632.102 526.301Z" fill="#FCCDC7"/>
<path d="M674.12 738.349C673.794 738.024 674.51 736.395 679.983 732.486H682.914L684.869 745.19H678.028L674.12 738.349Z" fill="#FCCDC7"/>
<path d="M624.284 753.984L623.306 743.235H615.489V754.961L624.284 753.984Z" fill="#FCCDC7"/>
<path d="M669.233 760.825C673.142 756.916 683.891 752.682 688.777 751.053L685.845 743.236C682.262 742.91 674.119 744.017 670.211 751.053C666.302 758.089 667.931 760.499 669.233 760.825Z" fill="#1E1E1E"/>
<path d="M624.283 760.825V753.007H618.42C604.349 754.571 602.134 758.87 602.785 760.825H624.283Z" fill="#1E1E1E"/>
<path d="M663.372 643.563L657.509 632.814L619.399 630.86C613.535 644.54 602.591 674.442 605.718 684.605C608.845 694.767 612.233 730.532 613.535 747.144H625.262C627.542 733.464 631.516 703.562 629.17 693.399C626.825 683.237 634.066 676.787 637.98 674.833C642.735 694.071 663.119 727.156 674.121 743.235L683.892 736.395C684.674 725.451 680.309 713.594 678.029 709.034C663.958 687.145 662.394 656.267 663.372 643.563Z" fill="#8ADAFB"/>
<path d="M642.851 529.232C640.506 529.232 640.571 527.929 640.897 527.278C640.897 526.301 641.874 526.301 642.851 525.324C643.422 524.753 643.829 522.392 639.92 523.369C636.128 524.317 631.451 524.346 629.171 523.369C630.148 521.089 628.328 520.859 631.125 519.461C633.08 518.483 640.897 511.643 648.715 517.506C656.532 523.369 655.555 528.255 652.623 533.141C649.692 538.027 646.76 538.027 645.783 538.027C645.001 538.027 644.806 536.724 644.806 536.073C644.48 535.095 644.481 535.42 646.76 533.141C647.737 532.164 649.04 529.884 647.737 528.255C645.783 527.278 645.197 529.232 642.851 529.232Z" fill="#14044E"/>
<path d="M648.714 547.8C644.146 549.443 642.556 548.869 637.965 547.8L634.056 548.777L632.102 551.708L628.193 567.343L624.284 611.316L623.307 624.019L636.011 628.905L637.965 611.316L648.714 547.8Z" fill="#FE9C8F"/>
<path d="M641.873 548.777C641.873 545.65 648.388 546.822 651.645 547.799C666.303 555.617 667.28 570.275 663.371 586.887C660.244 600.176 663.371 628.254 665.326 640.631C658.29 647.667 640.245 648.775 632.102 648.449C627.411 625.778 629.608 603.824 631.124 595.681C635.033 596.463 640.896 592.098 642.851 589.818C641.873 588.841 633.913 581.024 630.33 576.138C644.011 563.434 641.873 552.685 641.873 548.777Z" fill="white"/>
<path d="M599.855 564.411C607.672 556.594 628.519 550.08 637.965 547.799C635.685 548.417 631.124 552.409 631.124 563.434C631.124 577.216 623.307 576.138 627.216 591.772C629.336 600.252 623.307 618.156 622.33 625.974C611.581 608.71 592.037 572.229 599.855 564.411Z" fill="white"/>
<rect width="4.11894" height="130.927" transform="matrix(-0.91716 0.39852 0.39852 0.91716 559.404 494.054)" fill="#514DA1"/>
<path d="M568.303 502.154L562.096 504.851L555.889 507.548L559.989 533.967L561.134 536.603L563.425 541.874L568.006 552.417L586.331 594.59L622.183 677.1C622.623 678.113 623.801 678.578 624.814 678.138L645.974 668.943C646.987 668.503 647.451 667.325 647.011 666.312L611.159 583.801L592.834 541.629L588.253 531.086L585.963 525.814L584.817 523.179L568.303 502.154Z" fill="#A19FD1"/>
<rect width="30.1907" height="130.927" transform="matrix(-0.91716 0.39852 0.39852 0.91716 586.765 523.37)" fill="#514DA1"/>
<rect width="30.2351" height="2.3381" transform="matrix(-0.91713 0.398589 0.398589 0.91713 592.39 536.261)" fill="#F9CAA7"/>
<rect width="30.1964" height="2.3381" transform="matrix(-0.91713 0.398589 0.398589 0.91713 589.985 530.594)" fill="#F9CAA7"/>
<rect width="30.1948" height="2.3381" transform="matrix(-0.91713 0.398589 0.398589 0.91713 636.058 636.722)" fill="#F9CAA7"/>
<rect width="30.1602" height="2.3381" transform="matrix(-0.91713 0.398589 0.398589 0.91713 633.568 631.091)" fill="#F9CAA7"/>
<ellipse cx="22.4751" cy="22.4751" rx="22.4751" ry="22.4751" transform="matrix(-1 0 0 1 572.494 451.058)" fill="url(#paint1_linear_1_258)" fill-opacity="0.3"/>
<path d="M542.2 460.831C542.2 465.148 546.575 467.671 551.972 467.671C557.369 467.671 565.652 474.92 565.652 470.603C565.652 466.285 558.346 456.922 552.949 456.922C547.552 456.922 542.2 456.513 542.2 460.831Z" fill="white" fill-opacity="0.2"/>
<path d="M523.634 474.511C523.634 488.543 535.009 499.918 549.041 499.918C563.073 499.918 574.448 488.543 574.448 474.511C574.448 460.479 563.073 449.104 549.041 449.104C535.009 449.104 523.634 460.479 523.634 474.511ZM570.191 474.511C570.191 486.192 560.722 495.661 549.041 495.661C537.36 495.661 527.891 486.192 527.891 474.511C527.891 462.83 537.36 453.36 549.041 453.36C560.722 453.36 570.191 462.83 570.191 474.511Z" fill="#514DA1"/>
<path d="M651.646 577.115C647.058 586.518 645.393 592.26 631.125 596.658V600.567L634.057 601.544C642.763 596.002 650.461 588.041 650.669 584.932L651.646 577.115Z" fill="#D9D9D9"/>
<path d="M632.101 578.092L643.827 589.818C643.045 593.727 618.421 603.499 605.717 597.636C603.046 596.403 597.9 595.681 594.968 597.636C592.911 599.007 590.408 600.241 587.151 599.59C583.894 598.939 579.333 589.818 582.265 591.773C584.61 593.336 588.454 591.773 590.082 590.795C589.105 588.841 586.174 587.864 588.128 585.909C593.991 585.909 594.968 589.818 598.877 589.818C606.694 592.945 624.284 583.304 632.101 578.092Z" fill="#FCCDC7"/>
</g>
<g filter="url(#filter2_d_1_258)">
<mask id="mask2_1_258" style="mask-type:alpha" maskUnits="userSpaceOnUse" x="139" y="677" width="84" height="81">
<path d="M190.035 708.633C196.218 708.118 201.043 700.215 204.174 692.369C205.16 697.873 206.572 703.749 207.624 707.656C202.152 716.255 202.738 744.463 203.715 757.492C205.018 757.492 216.614 758.274 217.396 757.492C218.373 756.515 210.556 751.629 209.578 745.766C208.797 741.076 218.047 708.307 222.282 693.975L220.328 684.204C215.767 680.946 206.061 675.214 203.715 678.341C203.297 678.898 203.08 679.921 203.018 681.272H187.103C187.429 683.878 187.885 690.653 187.103 696.907C186.322 703.161 160.068 697.559 144.107 694.953L139.221 699.839V708.633C140.85 709.285 141.176 699.839 149.97 702.77C154.856 699.839 178.309 709.61 190.035 708.633Z" fill="#FCCDC7"/>
</mask>
<g mask="url(#mask2_1_258)">
<path d="M190.035 708.633C196.218 708.118 201.043 700.215 204.174 692.369C205.16 697.873 206.572 703.749 207.624 707.656C202.152 716.255 202.738 744.463 203.715 757.492C205.018 757.492 216.614 758.274 217.396 757.492C218.373 756.515 210.556 751.629 209.578 745.766C208.797 741.076 218.047 708.307 222.282 693.975L220.328 684.204C215.767 680.946 206.061 675.214 203.715 678.341C203.297 678.898 203.08 679.921 203.018 681.272H187.103C187.429 683.878 187.885 690.653 187.103 696.907C186.322 703.161 160.068 697.559 144.107 694.953L139.221 699.839V708.633C140.85 709.285 141.176 699.839 149.97 702.77C154.856 699.839 178.309 709.61 190.035 708.633Z" fill="#FCCDC7"/>
<path d="M228.202 667.189C227.614 661.316 222.672 656.843 216.768 656.843H197.805C193.59 656.843 189.684 659.054 187.516 662.669L179.274 676.404C177.496 679.368 177.618 683.098 179.585 685.94C183.105 691.024 188.727 694.251 194.892 694.725L230.043 697.429C232.872 697.646 235.022 694.931 234.162 692.228L231.924 685.194C230.061 679.338 228.813 673.304 228.202 667.189Z" fill="#764B45"/>
</g>
<path d="M289.505 411.111C289.637 410.768 289.704 410.405 289.704 410.038L289.705 401.045C289.705 400.306 290.112 399.628 290.764 399.28L317.883 384.816C318.609 384.429 319.462 384.357 320.243 384.617L321.524 385.044C321.808 385.139 322.076 385.275 322.319 385.449L328.107 389.583C328.553 389.901 328.886 390.353 329.059 390.872L329.079 390.931C329.475 392.121 328.937 393.421 327.815 393.982C326.699 394.54 325.341 394.179 324.649 393.141L324.24 392.526C324.02 392.197 323.737 391.914 323.407 391.694L322.079 390.809C321.376 390.34 320.508 390.19 319.688 390.395L317.386 390.97C317.173 391.023 316.968 391.099 316.772 391.197L294.718 402.223C294.041 402.562 293.613 403.255 293.613 404.012L293.613 410.043C293.613 410.406 293.546 410.767 293.417 411.107L240.819 549.705L236.969 548.24L289.505 411.111Z" fill="#514DA1"/>
<path d="M280.397 420.322L293.018 425.126L244.992 551.292L232.371 546.488L280.397 420.322Z" fill="#A19FD1"/>
<path d="M275.033 434.379L281.358 436.786L287.683 439.194L284.807 465.774L283.785 468.46L281.74 473.832L277.65 484.575L261.292 527.549L229.288 611.627C228.895 612.659 227.74 613.177 226.707 612.784L205.145 604.577C204.113 604.184 203.595 603.028 203.988 601.996L235.992 517.918L252.35 474.945L256.44 464.201L258.484 458.83L259.507 456.144L275.033 434.379Z" fill="#A19FD1"/>
<rect width="30.1908" height="130.927" transform="matrix(0.934582 0.355749 -0.35575 0.934581 257.569 456.425)" fill="#514DA1"/>
<rect width="30.2352" height="2.3381" transform="matrix(0.934555 0.355819 -0.355822 0.934554 252.546 469.562)" fill="#F9CAA7"/>
<rect width="30.1965" height="2.3381" transform="matrix(0.934555 0.355819 -0.355822 0.934554 254.688 463.79)" fill="#F9CAA7"/>
<rect width="30.1949" height="2.3381" transform="matrix(0.934555 0.355819 -0.355822 0.934554 213.565 571.932)" fill="#F9CAA7"/>
<rect width="30.1603" height="2.3381" transform="matrix(0.934555 0.355819 -0.355822 0.934554 215.789 566.192)" fill="#F9CAA7"/>
<path d="M225.269 663.281C224.682 657.408 219.739 652.935 213.836 652.935H194.873C190.658 652.935 186.752 655.146 184.583 658.761L176.342 672.496C174.564 675.46 174.685 679.19 176.653 682.032C180.172 687.116 185.795 690.343 191.96 690.817L227.111 693.521C229.94 693.738 232.09 691.023 231.23 688.32L228.992 681.286C227.128 675.43 225.881 669.396 225.269 663.281Z" fill="#FE9C8F"/>
<path d="M202.737 753.583C208.209 760.619 215.44 757.818 218.372 755.538L228.144 760.424C228.728 760.54 228.643 761.401 228.047 761.401H213.486C211.922 759.055 208.274 760.424 206.646 761.401H201.76C200.978 761.401 202.085 756.189 202.737 753.583Z" fill="#1E1E1E"/>
<path d="M145.758 695.131C137.603 698.728 138.562 706.423 140.06 709.821L132.945 718.111C132.689 718.65 131.875 718.358 132.02 717.78L135.562 703.656C138.217 702.71 137.777 698.838 137.225 697.021L138.413 692.282C138.603 691.524 143.389 693.865 145.758 695.131Z" fill="#1E1E1E"/>
<path d="M261.37 521.015L260.393 532.741C258.764 533.392 255.507 534.5 255.507 533.718V521.992C255.507 519.061 253.552 516.129 252.575 514.175C251.598 512.22 254.529 510.266 255.507 510.266C256.484 510.266 255.507 513.197 257.461 514.175C259.415 515.152 260.393 507.11 260.393 505.38C260.393 503.996 262.998 504.152 264.301 504.403C265.604 507.66 267.624 514.565 265.278 516.129C262.933 517.692 261.695 520.038 261.37 521.015Z" fill="#FCCDC7"/>
<path d="M208.599 543.49C208.599 549.427 210.145 551.307 214.462 551.307C218.78 551.307 217.394 549.427 217.394 543.49C217.394 537.554 211.531 533.718 211.531 533.718C207.213 533.718 208.599 537.554 208.599 543.49Z" fill="#FCCDC7"/>
<path d="M253.55 526.878L262.345 528.833V562.057C262.345 565.965 238.892 585.183 227.166 594.304C237.915 601.144 224.234 615.801 221.303 628.505C218.958 638.667 229.12 653.911 226.189 660.752C216.026 672.478 191.336 671.826 180.261 668.569C174.007 663.879 177.655 649.351 180.261 644.14C195.896 619.124 191.987 605.053 188.079 601.144L191.01 596.258C198.176 585.183 213.29 563.229 216.417 564.011C219.544 564.793 220.977 567.594 221.303 568.897H225.212C227.557 562.643 241.172 557.171 247.687 555.216C247.687 549.744 251.596 534.044 253.55 526.878Z" fill="white"/>
<path d="M216.418 566.942C223.454 557.561 216.744 550.004 212.509 547.399C213.812 541.21 213.877 528.832 203.715 528.832C193.552 528.832 191.663 540.558 191.989 546.421C187.754 546.096 179.676 547.203 181.24 554.239C182.803 561.275 181.891 568.245 181.24 570.851C177.331 572.48 171.272 577.105 178.308 582.577C187.103 589.417 186.125 593.326 187.103 593.326C188.08 593.326 174.399 600.166 188.08 606.029C199.024 610.72 206.321 601.469 208.601 596.258C221.89 598.603 222.607 589.417 221.304 584.531C216.744 582.577 209.382 576.323 216.418 566.942Z" fill="#14044E"/>
</g>
<g filter="url(#filter3_d_1_258)">
<rect x="73.5979" y="147" width="205.208" height="203.253" rx="18" fill="white"/>
</g>
<path d="M224.864 179.862C211.322 170.196 195.162 164.874 178.527 164.601L177.988 197.429C187.969 197.594 197.664 200.787 205.79 206.586L224.864 179.862Z" fill="#7577EF"/>
<path d="M189.059 327.891C181.657 328.974 174.141 329.04 166.721 328.087L170.904 295.521C175.356 296.093 179.865 296.054 184.307 295.404L189.059 327.891Z" fill="#BE29C6"/>
<path d="M166.773 328.094C150.343 325.994 134.932 318.972 122.566 307.952C110.2 296.931 101.458 282.427 97.4877 266.346L129.364 258.477C131.746 268.125 136.991 276.828 144.411 283.44C151.83 290.052 161.077 294.265 170.935 295.525L166.773 328.094Z" fill="#D1FFF7"/>
<path d="M97.576 266.7C93.5346 250.637 94.4476 233.726 100.195 218.191C105.942 202.656 116.255 189.224 129.779 179.658L148.739 206.464C140.625 212.203 134.437 220.263 130.988 229.584C127.54 238.905 126.992 249.051 129.417 258.689L97.576 266.7Z" fill="#A5B94E"/>
<path d="M129.694 179.719C143.955 169.604 161.073 164.308 178.554 164.601L178.004 197.43C167.515 197.254 157.244 200.432 148.688 206.5L129.694 179.719Z" fill="#FFCB78"/>
<path d="M189.059 327.891C205.296 325.516 220.449 318.329 232.561 307.256C244.673 296.184 253.188 281.735 257.008 265.776C260.827 249.816 259.774 233.078 253.987 217.723C248.199 202.367 237.941 189.098 224.538 179.63L205.594 206.447C213.636 212.128 219.791 220.089 223.263 229.303C226.736 238.516 227.367 248.559 225.076 258.135C222.784 267.71 217.675 276.379 210.408 283.023C203.141 289.666 194.049 293.979 184.307 295.404L189.059 327.891Z" fill="#F14D4D"/>
<g filter="url(#filter4_d_1_258)">
<rect x="531.451" y="146.179" width="205.208" height="130.942" rx="18" fill="white"/>
</g>
<path d="M556.858 191.414L599.882 234.165C600.975 235.252 602.714 235.333 603.904 234.353L616.579 223.915C617.657 223.027 619.204 223 620.312 223.851L657.408 252.319C658.951 253.503 661.195 252.929 661.979 251.149L685.403 197.995C685.689 197.347 686.194 196.821 686.831 196.51L711.251 184.572" stroke="#8ADAFB" stroke-width="6" stroke-linecap="round"/>
<path d="M653.598 469.016C653.598 466.807 655.389 465.016 657.598 465.016H743.407C745.616 465.016 747.407 466.807 747.407 469.016V509.875C747.407 512.084 745.616 513.875 743.407 513.875H700.502H681.139C681.02 513.875 680.902 513.897 680.79 513.938L671.491 517.394C671.293 517.467 671.124 517.601 671.007 517.777L663.37 529.233V514.875C663.37 514.323 662.922 513.875 662.37 513.875H657.598C655.389 513.875 653.598 512.084 653.598 509.875V469.016Z" fill="#FE9C8F"/>
<ellipse cx="678.029" cy="490.145" rx="5.86307" ry="5.86308" fill="white"/>
<ellipse cx="699.525" cy="490.145" rx="5.86307" ry="5.86308" fill="white"/>
<ellipse cx="721.027" cy="490.145" rx="5.86307" ry="5.86308" fill="white"/>
</g>
<defs>
<filter id="filter0_d_1_258" x="224.526" y="296.664" width="469.588" height="472.63" filterUnits="userSpaceOnUse" color-interpolation-filters="sRGB">
<feFlood flood-opacity="0" result="BackgroundImageFix"/>
<feColorMatrix in="SourceAlpha" type="matrix" values="0 0 0 0 0 0 0 0 0 0 0 0 0 0 0 0 0 0 127 0" result="hardAlpha"/>
<feOffset dy="4"/>
<feGaussianBlur stdDeviation="2"/>
<feComposite in2="hardAlpha" operator="out"/>
<feColorMatrix type="matrix" values="0 0 0 0 0 0 0 0 0 0 0 0 0 0 0 0 0 0 0.25 0"/>
<feBlend mode="normal" in2="BackgroundImageFix" result="effect1_dropShadow_1_258"/>
<feBlend mode="normal" in="SourceGraphic" in2="effect1_dropShadow_1_258" result="shape"/>
</filter>
<filter id="filter1_d_1_258" x="519.634" y="449.104" width="173.143" height="319.721" filterUnits="userSpaceOnUse" color-interpolation-filters="sRGB">
<feFlood flood-opacity="0" result="BackgroundImageFix"/>
<feColorMatrix in="SourceAlpha" type="matrix" values="0 0 0 0 0 0 0 0 0 0 0 0 0 0 0 0 0 0 127 0" result="hardAlpha"/>
<feOffset dy="4"/>
<feGaussianBlur stdDeviation="2"/>
<feComposite in2="hardAlpha" operator="out"/>
<feColorMatrix type="matrix" values="0 0 0 0 0 0 0 0 0 0 0 0 0 0 0 0 0 0 0.25 0"/>
<feBlend mode="normal" in2="BackgroundImageFix" result="effect1_dropShadow_1_258"/>
<feBlend mode="normal" in="SourceGraphic" in2="effect1_dropShadow_1_258" result="shape"/>
</filter>
<filter id="filter2_d_1_258" x="128.003" y="384.463" width="205.205" height="384.937" filterUnits="userSpaceOnUse" color-interpolation-filters="sRGB">
<feFlood flood-opacity="0" result="BackgroundImageFix"/>
<feColorMatrix in="SourceAlpha" type="matrix" values="0 0 0 0 0 0 0 0 0 0 0 0 0 0 0 0 0 0 127 0" result="hardAlpha"/>
<feOffset dy="4"/>
<feGaussianBlur stdDeviation="2"/>
<feComposite in2="hardAlpha" operator="out"/>
<feColorMatrix type="matrix" values="0 0 0 0 0 0 0 0 0 0 0 0 0 0 0 0 0 0 0.25 0"/>
<feBlend mode="normal" in2="BackgroundImageFix" result="effect1_dropShadow_1_258"/>
<feBlend mode="normal" in="SourceGraphic" in2="effect1_dropShadow_1_258" result="shape"/>
</filter>
<filter id="filter3_d_1_258" x="69.5979" y="147" width="213.208" height="211.253" filterUnits="userSpaceOnUse" color-interpolation-filters="sRGB">
<feFlood flood-opacity="0" result="BackgroundImageFix"/>
<feColorMatrix in="SourceAlpha" type="matrix" values="0 0 0 0 0 0 0 0 0 0 0 0 0 0 0 0 0 0 127 0" result="hardAlpha"/>
<feOffset dy="4"/>
<feGaussianBlur stdDeviation="2"/>
<feComposite in2="hardAlpha" operator="out"/>
<feColorMatrix type="matrix" values="0 0 0 0 0 0 0 0 0 0 0 0 0 0 0 0 0 0 0.25 0"/>
<feBlend mode="normal" in2="BackgroundImageFix" result="effect1_dropShadow_1_258"/>
<feBlend mode="normal" in="SourceGraphic" in2="effect1_dropShadow_1_258" result="shape"/>
</filter>
<filter id="filter4_d_1_258" x="527.451" y="146.179" width="213.208" height="138.942" filterUnits="userSpaceOnUse" color-interpolation-filters="sRGB">
<feFlood flood-opacity="0" result="BackgroundImageFix"/>
<feColorMatrix in="SourceAlpha" type="matrix" values="0 0 0 0 0 0 0 0 0 0 0 0 0 0 0 0 0 0 127 0" result="hardAlpha"/>
<feOffset dy="4"/>
<feGaussianBlur stdDeviation="2"/>
<feComposite in2="hardAlpha" operator="out"/>
<feColorMatrix type="matrix" values="0 0 0 0 0 0 0 0 0 0 0 0 0 0 0 0 0 0 0.25 0"/>
<feBlend mode="normal" in2="BackgroundImageFix" result="effect1_dropShadow_1_258"/>
<feBlend mode="normal" in="SourceGraphic" in2="effect1_dropShadow_1_258" result="shape"/>
</filter>
<linearGradient id="paint0_linear_1_258" x1="101.309" y1="61.3078" x2="696.542" y2="667.125" gradientUnits="userSpaceOnUse">
<stop stop-color="#F5BBD1"/>
<stop offset="1" stop-color="#FEC8C1"/>
</linearGradient>
<linearGradient id="paint1_linear_1_258" x1="11.7261" y1="6.84025" x2="22.4751" y2="44.9502" gradientUnits="userSpaceOnUse">
<stop stop-color="#E29A9A"/>
<stop offset="0.47779" stop-color="#5043C2"/>
<stop offset="1" stop-color="#619DE1"/>
</linearGradient>
</defs>
</svg>
