<svg width="40" height="40" viewBox="0 0 40 40" fill="none" xmlns="http://www.w3.org/2000/svg">
<path d="M16.6666 33.3334C14.8256 33.3334 13.3333 31.841 13.3333 30L13.3333 10C13.3333 8.15909 14.8256 6.66671 16.6666 6.66671L29.9999 6.66671C31.8409 6.66671 33.3333 8.15909 33.3333 10L33.3333 30C33.3333 31.841 31.8409 33.3334 29.9999 33.3334L16.6666 33.3334Z" fill="black" fill-opacity="0.15"/>
<path d="M25.0001 6.66663H30.0001C31.841 6.66663 33.3334 8.15901 33.3334 9.99996V30C33.3334 31.8409 31.841 33.3333 30.0001 33.3333H25.0001M13.3334 13.3333L6.66675 20M6.66675 20L13.3334 26.6666M6.66675 20L26.6667 20" stroke="#1E1E1E" stroke-width="4" stroke-linecap="round" stroke-linejoin="round"/>
</svg>
