<svg width="25" height="23" viewBox="0 0 25 23" fill="none" xmlns="http://www.w3.org/2000/svg">
<path d="M21.3861 8.08119L21.6766 7.97081C22.4838 7.66406 22.5489 6.54721 21.7827 6.14881L12.3425 1.2399C12.0534 1.08953 11.709 1.08953 11.4198 1.2399L1.97963 6.14881C1.21347 6.54721 1.27853 7.66406 2.08577 7.97081L11.526 11.5581C11.7548 11.645 12.0076 11.645 12.2364 11.5581L21.3861 8.08119ZM21.3861 8.08119V17.6337M21.3861 17.6337L21.7426 21.6733M21.3861 17.6337L22.2569 18.1089M21.3861 17.6337L20.5545 18.1089M19.7228 18.5842L23.118 21.6733M19.7228 18.5842L20.5545 18.1089M19.7228 18.5842V19.3564M20.0305 21.6733L23.3804 18.5842M20.0305 21.6733H20.5545M20.0305 21.6733L19.7228 20.901M23.118 21.6733L22.7525 21.6733M23.118 21.6733L23.3804 20.901M23.3804 18.5842V20.1287M23.3804 18.5842L22.2569 18.1089M21.7426 21.6733H20.5545M21.7426 21.6733H22.7525M19.7228 20.1287L23.3804 20.1287M19.7228 20.1287V19.3564M19.7228 20.1287V20.901M23.3804 20.1287V20.901M22.2569 18.1089L20.5545 21.6733M20.5545 18.1089L22.7525 21.6733M19.7228 19.3564V19.3564C20.5303 19.3564 20.7548 20.4652 20.0109 20.7793L19.7228 20.901M19.7228 20.901L23.3804 20.901M5.79322 15.3244L11.5265 17.4991C11.755 17.5858 12.0073 17.5858 12.2358 17.4991L17.9692 15.3244C18.4311 15.1492 18.6958 14.663 18.5923 14.1799L18.2962 12.7983C18.1704 12.211 17.5589 11.8663 16.9913 12.0628L12.2083 13.7185C11.9964 13.7918 11.766 13.7918 11.5541 13.7185L6.77106 12.0628C6.20349 11.8663 5.59199 12.211 5.46615 12.7983L5.17008 14.1799C5.06656 14.663 5.33131 15.1492 5.79322 15.3244Z" stroke="#1E1E1E" stroke-width="1.5"/>
</svg>
