<svg width="108" height="135" viewBox="0 0 108 135" fill="none" xmlns="http://www.w3.org/2000/svg">
<path d="M13.97 71.0893C8.16212 66.5965 5.90349 56.1132 5.50016 51.4332C4.03008 34.3752 5.50046 21.9641 13.97 12.8731C28.2877 -2.49447 48.7786 13.5134 54.5412 12.2327C60.9126 13.4111 73.7506 -5.05593 93.8306 12.8731C103.205 21.2436 103.968 31.9197 102.301 51.0786C101.898 55.7131 99.6388 66.0946 93.8306 70.5437C88.0225 74.9929 85.7638 84.2298 85.3604 87.9374L88.4443 104.134C88.4443 106.915 81.7296 134.215 70.8393 128.653C70.2564 128.43 70.2351 124.512 69.9638 120.095C69.4709 112.067 68.3269 102.639 64.2812 96.1009C61.973 92.3708 58.7116 90.5451 56.0526 89.7721C54.6397 89.3614 53.1564 89.3579 51.7542 89.8149C49.4867 90.554 46.7796 92.1569 44.599 95.0516C39.2741 102.121 38.1388 113.92 37.6666 123.293C37.5186 126.232 37.3976 128.484 36.9598 128.653C26.0699 134.27 18.8099 106.942 18.8099 104.134L22.4399 87.9374C22.0366 84.1934 19.778 75.5821 13.97 71.0893Z" stroke="#1E1E1E" stroke-width="10" stroke-linecap="round"/>
<path d="M32 56V60.9816C32 61.6214 32.3062 62.2227 32.8237 62.599L42.474 69.6175C42.8159 69.8661 43.2277 70 43.6504 70H64.3496C64.7723 70 65.1841 69.8661 65.526 69.6175L75.1763 62.599C75.6938 62.2227 76 61.6214 76 60.9816V56" stroke="#1E1E1E" stroke-width="5" stroke-linecap="round" stroke-linejoin="round"/>
<path d="M56 29C56 27.8954 55.1046 27 54 27C52.8954 27 52 27.8954 52 29H56ZM54 62L65.547 42H42.453L54 62ZM52 29V44H56V29H52Z" fill="#1E1E1E"/>
</svg>
