<svg width="24" height="24" viewBox="0 0 24 24" fill="none" xmlns="http://www.w3.org/2000/svg">
<g clip-path="url(#clip0_88_1706)">
<path d="M19.9999 0H2.99988V3H0.999878V5H2.99988V7H0.999878V9H2.99988V11H0.999878V13H2.99988V15H0.999878V17H2.99988V19H0.999878V21H2.99988V24H19.9999C20.7955 24 21.5586 23.6839 22.1212 23.1213C22.6838 22.5587 22.9999 21.7956 22.9999 21V3C22.9999 2.20435 22.6838 1.44129 22.1212 0.87868C21.5586 0.31607 20.7955 0 19.9999 0V0ZM20.9999 21C20.9999 21.2652 20.8945 21.5196 20.707 21.7071C20.5194 21.8946 20.2651 22 19.9999 22H4.99988V2H19.9999C20.2651 2 20.5194 2.10536 20.707 2.29289C20.8945 2.48043 20.9999 2.73478 20.9999 3V21ZM12.9999 12C13.5932 12 14.1732 11.8241 14.6666 11.4944C15.1599 11.1648 15.5445 10.6962 15.7715 10.1481C15.9986 9.59987 16.058 8.99667 15.9422 8.41473C15.8265 7.83279 15.5408 7.29824 15.1212 6.87868C14.7016 6.45912 14.1671 6.1734 13.5851 6.05764C13.0032 5.94189 12.4 6.0013 11.8518 6.22836C11.3036 6.45542 10.8351 6.83994 10.5055 7.33329C10.1758 7.82664 9.99988 8.40666 9.99988 9C9.99988 9.79565 10.3159 10.5587 10.8786 11.1213C11.4412 11.6839 12.2042 12 12.9999 12ZM17.9999 16V18H15.9999V16C15.9999 15.7348 15.8945 15.4804 15.707 15.2929C15.5194 15.1054 15.2651 15 14.9999 15H10.9999C10.7347 15 10.4803 15.1054 10.2928 15.2929C10.1052 15.4804 9.99988 15.7348 9.99988 16V18H7.99988V16C7.99988 15.2044 8.31595 14.4413 8.87856 13.8787C9.44117 13.3161 10.2042 13 10.9999 13H14.9999C15.7955 13 16.5586 13.3161 17.1212 13.8787C17.6838 14.4413 17.9999 15.2044 17.9999 16Z" fill="#1E1E1E"/>
</g>
<defs>
<clipPath id="clip0_88_1706">
<rect width="24" height="24" fill="white"/>
</clipPath>
</defs>
</svg>
