<svg width="69" height="199" viewBox="0 0 69 199" fill="none" xmlns="http://www.w3.org/2000/svg">
<g filter="url(#filter0_d_513_1825)">
<ellipse cx="33.9324" cy="91.406" rx="8.96369" ry="7.55102" fill="#A9A9A9"/>
<path d="M14.5545 65.4667L19.782 58.8426L46.9087 60.2584L51.5366 60.2586L51.1758 63.507C51.1052 64.1426 51.3089 64.7782 51.7359 65.2543C52.1308 65.6945 52.431 66.2112 52.6179 66.7723L53.2781 68.7533L54.2216 72.5288C54.5354 74.4134 54.6931 76.3206 54.6931 78.2311L54.6931 84.7525C54.6931 86.3529 54.5352 87.9493 54.2216 89.5186L53.85 90.8196C53.471 92.1466 52.8884 93.4068 52.1231 94.5551C51.636 95.2858 51.0781 95.9666 50.4573 96.5876L49.1586 97.8868C48.7611 98.2844 48.3163 98.6318 47.8343 98.9211L47.6326 99.0422C46.696 99.6043 45.6241 99.9013 44.5318 99.9013C43.765 99.9013 43.0052 99.7549 42.2933 99.4701L41.8216 99.2814C41.2833 99.066 40.7688 98.7952 40.2864 98.4735C39.8278 98.1676 39.4005 97.8172 39.0107 97.4273L38.498 96.9144C37.9732 96.3893 37.4862 95.8277 37.0408 95.2337L36.2943 94.238L35.7827 93.5556C35.1916 92.7673 34.3951 92.1567 33.4805 91.7907C32.846 91.5368 32.169 91.4064 31.4857 91.4064L31.3406 91.4064C30.5616 91.4064 29.7897 91.5551 29.0664 91.8445L28.6302 92.019C28.0799 92.2392 27.5539 92.516 27.0607 92.8449L26.2431 93.3902C25.4019 93.9512 24.4704 94.3634 23.4895 94.6087L23.06 94.7161C21.8399 95.0213 20.561 94.9999 19.3518 94.6543C18.3913 94.3798 17.4989 93.9076 16.7315 93.2679L16.2848 92.8955C15.4765 92.2217 14.7805 91.4235 14.2228 90.531L13.8778 89.9788C13.1013 88.7359 12.5247 87.3786 12.1694 85.9566L11.7622 84.3273L11.3156 82.3171C10.9853 80.8301 10.8186 79.3113 10.8186 77.788C10.8186 76.8001 10.8887 75.8135 11.0284 74.8356L11.2904 73.0008L11.7622 70.641C12.3865 68.7675 13.3313 67.0167 14.5545 65.4667Z" fill="url(#paint0_radial_513_1825)"/>
<path d="M32.0472 7.39941C30.6318 7.39941 30.1601 9.75911 30.1601 11.6469C30.6318 15.8943 29.6883 21.0856 29.6883 23.9173C29.6883 26.2138 29.3738 27.0635 29.2165 27.2209C27.8012 29.5805 22.1399 35.2438 21.6682 35.7158C21.2907 36.0933 20.8819 42.1656 20.7246 45.1545L28.7448 53.1775L47.1439 40.9071C45.7286 38.0754 42.3318 32.601 40.0673 33.3561C37.8028 34.1112 37.2367 18.254 34.8778 10.231C34.7205 9.28717 33.9343 7.39941 32.0472 7.39941Z" fill="url(#paint1_linear_513_1825)"/>
<path d="M22.1383 67.3376H13.1746C10.5326 57.5212 12.0738 44.0552 13.1746 38.5493C15.5334 27.6947 14.5899 35.7176 19.7794 17.312C23.931 2.58753 29.3814 8.55619 28.7431 13.5365C27.1705 25.8069 26.0068 49.4039 33.9326 45.6284C41.8584 41.8529 40.3801 25.1777 38.6503 17.312C36.2914 11.8061 33.2721 1.83243 40.0656 5.9855C46.8592 10.1386 52.0172 24.7057 53.747 31.4702C55.4448 47.6043 53.3594 56.9654 51.1489 61.5024C50.1002 63.655 47.7222 64.5059 45.3277 64.5059C42.5626 64.5059 39.8981 63.2493 37.2424 62.4794C35.3107 61.9194 33.1497 61.8299 31.5737 62.6182C29.7558 63.5274 25.9124 67.3376 22.1383 67.3376Z" fill="url(#paint2_diamond_513_1825)"/>
<path d="M13.7936 173.478C11.8517 159.599 15.06 149.461 18.3946 143.628C20.2875 140.317 23.5868 137.443 27.3778 137.862C27.7353 137.901 28.0836 137.973 28.4144 138.083C30.6782 138.838 33.4452 138.083 34.5457 137.611C36.1178 136.982 40.4883 135.818 45.3933 136.195C50.2983 136.573 52.7823 139.499 53.4111 140.915C59.0708 153.374 55.7693 167.501 53.4111 173.007C50.7385 177.569 44.167 185.843 39.262 182.445C37.791 181.426 36.368 180.75 35.0542 180.319C30.916 178.961 26.1666 181.03 21.8115 181.03C16.9064 181.03 14.4225 175.995 13.7936 173.478Z" fill="url(#paint3_radial_513_1825)"/>
<path d="M32.1875 143.746C30.947 143.126 27.9326 144.45 27.4881 156.44M48.6481 154.521C44.6718 153.952 36.8503 153.821 33.6024 157.433M31.9638 144.193C32.2107 144.317 32.5111 144.217 32.6346 143.97C32.7582 143.723 32.6582 143.423 32.4112 143.299C31.9505 143.069 31.3567 143.042 30.7503 143.344C30.1551 143.64 29.5755 144.236 29.0583 145.202C28.0514 147.083 27.2002 150.518 26.9853 156.509C25.0759 156.792 23.1616 157.31 21.4925 157.874C20.988 157.84 20.609 157.46 20.3332 156.774C20.0488 156.067 19.9508 155.192 19.9533 154.603C19.9545 154.327 19.7316 154.102 19.4554 154.101C19.1793 154.1 18.9545 154.323 18.9533 154.599C18.9504 155.268 19.0574 156.281 19.4054 157.147C19.5785 157.578 19.8315 158.014 20.189 158.341C19.2742 158.687 18.4678 159.034 17.8233 159.341C17.574 159.46 17.4682 159.758 17.587 160.007C17.7058 160.257 18.0042 160.362 18.2535 160.244C19.134 159.824 20.3437 159.321 21.7287 158.85C23.4983 158.247 25.5397 157.701 27.5355 157.442C29.4293 157.196 31.2398 157.214 32.7303 157.654C32.5545 157.912 32.3852 158.227 32.2255 158.595C31.8888 159.371 31.5718 160.436 31.3292 161.843C30.844 164.656 30.6494 168.871 31.218 174.941C31.2438 175.216 31.4875 175.418 31.7625 175.392C32.0374 175.366 32.2394 175.123 32.2137 174.848C31.6504 168.836 31.8488 164.713 32.3147 162.013C32.5476 160.662 32.8458 159.677 33.1428 158.993C33.4467 158.293 33.7278 157.958 33.8931 157.839C33.9227 157.818 33.9498 157.794 33.9741 157.767C35.5395 156.027 38.3182 155.177 41.2787 154.864C43.9972 154.576 46.7639 154.752 48.6324 155.024C48.621 155.756 48.6629 156.473 48.7941 157.084C48.9457 157.79 49.2485 158.505 49.886 158.824C50.1329 158.947 50.4333 158.847 50.5568 158.6C50.6804 158.353 50.5804 158.053 50.3334 157.929C50.1267 157.826 49.91 157.518 49.7718 156.874C49.6473 156.294 49.6122 155.558 49.6392 154.764C49.6481 154.738 49.6549 154.711 49.6596 154.683C49.6713 154.613 49.6678 154.544 49.6514 154.479C49.7175 153.189 49.9306 151.847 50.1269 150.93C50.1848 150.66 50.0128 150.394 49.7427 150.337C49.4727 150.279 49.2069 150.451 49.1491 150.721C48.9649 151.581 48.7665 152.798 48.678 154.02C46.7437 153.747 43.9412 153.577 41.1735 153.869C38.2844 154.175 35.319 154.996 33.4708 156.845C31.8534 156.259 29.9281 156.183 27.9907 156.382C28.2133 150.543 29.0499 147.337 29.94 145.674C30.3975 144.819 30.8477 144.412 31.1957 144.239C31.5326 144.071 31.7956 144.109 31.9638 144.193ZM52.9542 141.118L52.9559 141.121C58.5252 153.382 55.2915 167.324 52.9638 172.781C51.6413 175.033 49.3714 178.174 46.8488 180.331C45.5816 181.414 44.2821 182.221 43.0342 182.563C41.8054 182.9 40.6325 182.786 39.5468 182.034C38.0364 180.988 36.57 180.29 35.21 179.844C33.0208 179.125 30.6973 179.322 28.4379 179.671C27.8586 179.76 27.2854 179.859 26.7182 179.957C25.0344 180.248 23.402 180.53 21.8115 180.53C19.551 180.53 17.8327 179.375 16.5829 177.878C15.3361 176.383 14.5891 174.583 14.2851 173.383C12.3666 159.628 15.5502 149.611 18.8287 143.876C20.6849 140.629 23.8301 137.973 27.3229 138.359C27.6506 138.395 27.9637 138.46 28.2562 138.557C29.4876 138.968 30.83 138.962 31.9846 138.803C33.138 138.643 34.1453 138.326 34.7369 138.073C36.2532 137.468 40.5426 136.323 45.3549 136.694C50.0657 137.056 52.3953 139.859 52.9542 141.118Z" stroke="black" stroke-opacity="0.18" stroke-linecap="round" stroke-linejoin="round"/>
</g>
<defs>
<filter id="filter0_d_513_1825" x="0.818359" y="0" width="65.7178" height="198.243" filterUnits="userSpaceOnUse" color-interpolation-filters="sRGB">
<feFlood flood-opacity="0" result="BackgroundImageFix"/>
<feColorMatrix in="SourceAlpha" type="matrix" values="0 0 0 0 0 0 0 0 0 0 0 0 0 0 0 0 0 0 127 0" result="hardAlpha"/>
<feOffset dy="5"/>
<feGaussianBlur stdDeviation="5"/>
<feComposite in2="hardAlpha" operator="out"/>
<feColorMatrix type="matrix" values="0 0 0 0 0 0 0 0 0 0 0 0 0 0 0 0 0 0 0.35 0"/>
<feBlend mode="normal" in2="BackgroundImageFix" result="effect1_dropShadow_513_1825"/>
<feBlend mode="normal" in="SourceGraphic" in2="effect1_dropShadow_513_1825" result="shape"/>
</filter>
<radialGradient id="paint0_radial_513_1825" cx="0" cy="0" r="1" gradientUnits="userSpaceOnUse" gradientTransform="translate(35.0311 77.469) rotate(-144.999) scale(23.8298 23.5652)">
<stop offset="0.56179" stop-color="white"/>
<stop offset="1" stop-color="#CAC9C2"/>
</radialGradient>
<linearGradient id="paint1_linear_513_1825" x1="33.9343" y1="7.39941" x2="33.9343" y2="53.1775" gradientUnits="userSpaceOnUse">
<stop stop-color="#CC8559"/>
<stop offset="1" stop-color="#EBB98F"/>
</linearGradient>
<radialGradient id="paint2_diamond_513_1825" cx="0" cy="0" r="1" gradientUnits="userSpaceOnUse" gradientTransform="translate(33.0422 36.1688) rotate(90) scale(31.1688 21.3263)">
<stop stop-color="#F9E7C9"/>
<stop offset="1" stop-color="#E7BA8B"/>
</radialGradient>
<radialGradient id="paint3_radial_513_1825" cx="0" cy="0" r="1" gradientUnits="userSpaceOnUse" gradientTransform="translate(34.8706 159.682) rotate(90) scale(23.5608 21.6655)">
<stop offset="0.56179" stop-color="white"/>
<stop offset="1" stop-color="#CAC9C2"/>
</radialGradient>
</defs>
</svg>
