<svg width="75" height="226" viewBox="0 0 75 226" fill="none" xmlns="http://www.w3.org/2000/svg">
<g filter="url(#filter0_d_513_2202)">
<path d="M41.1759 11.3871C38.917 15.4546 33.6297 23.8499 29.8712 27.8697C29.5532 28.2098 29.305 28.6069 29.1578 29.0487L27.1429 35.0955C27.0631 35.3349 27.0139 35.5834 26.9963 35.8351L25.7424 53.8146C25.6602 54.9921 26.2762 56.1084 27.3162 56.6666L41.9802 64.5378C43.5615 65.3867 45.5294 64.6664 46.189 62.9972L52.5641 46.8664C52.8263 46.203 52.8416 45.4707 52.6257 44.7908C50.6777 38.6561 48.566 28.7169 45.8937 26.4892C45.0238 25.7641 45.5791 18.4662 45.8937 12.803C45.8937 7.61163 43.2727 7.61161 41.1759 11.3871Z" fill="url(#paint0_linear_513_2202)"/>
<g filter="url(#filter1_d_513_2202)">
<path d="M19.9467 38.291C18.1625 44.9841 18.3612 69.3027 19.8195 82.0669C19.898 82.7542 20.2206 83.3855 20.722 83.8621L28.5643 91.3149C29.0915 91.8159 29.7826 92.1085 30.5093 92.1369C42.4374 92.6037 63.9747 93.1892 62.878 92.092C61.7457 90.9594 62.4062 74.001 62.878 65.6635C64.2933 53.5504 65.1425 26.3038 57.2167 14.2221C47.3095 -0.879931 57.6885 34.9874 49.1966 50.5614C40.7047 66.1354 41.1765 58.5844 36.4587 51.0333C32.6845 44.9925 33.3135 22.2451 34.0998 10.4466C34.7122 1.25766 25.8399 7.81759 25.6079 12.8063C25.2934 19.5707 21.8337 31.2119 19.9467 38.291Z" fill="url(#paint1_diamond_513_2202)"/>
</g>
<path d="M20.8911 111.907C25.5202 111.576 32.9013 117.5 37.1972 121.617C38.2213 122.599 39.707 123.101 40.9663 122.448C46.5327 119.562 45.7085 111.997 46.8386 110.019L57.2176 105.3L48.2539 95.8608L21.8347 102.94C19.3185 106.086 15.6073 112.284 20.8911 111.907Z" fill="#A9A9A9"/>
<path d="M15.23 110.502C13.3429 90.1141 16.1735 84.0733 17.5888 82.6575L18.7199 81.0733C19.3868 80.1393 20.7405 79.9295 21.8346 80.2757C24.9863 81.2731 30.2201 81.2749 33.6291 80.7697C37.5605 79.1966 46.1783 76.9942 49.1976 80.7697C52.9718 85.4891 61.4637 85.0172 62.879 86.433C64.0113 87.5656 64.6089 96.3437 64.7661 100.591C65.5465 102.152 61.4865 123.405 53.9206 127.506C50.8086 129.193 47.8676 125.803 45.9538 122.825C41.1898 115.413 37.4094 112.615 35.9386 112.15C35.7 116.042 34.6557 118.303 34.1009 118.997C32.371 120.413 28.534 122.867 27.0243 121.356C25.5146 119.846 23.5646 120.413 22.7783 120.885C17.117 124.66 15.3872 115.536 15.23 110.502Z" fill="url(#paint2_radial_513_2202)"/>
<path d="M10.0089 189.781V170.904C10.3234 168.387 12.4615 162.598 18.4984 159.577C26.0446 155.802 39.2504 155.802 42.0802 156.274C44.9101 156.745 49.6264 156.745 55.7577 168.072C60.6627 177.133 60.6313 189.152 60.0024 194.029C56.2293 209.131 48.0543 211.333 44.4384 210.547C43.6524 210.389 41.0426 209.791 36.8922 208.659C31.7042 207.243 28.4028 208.187 26.0446 208.659C24.1581 209.036 21.4854 208.501 20.385 208.187C11.7068 205.166 9.85173 194.658 10.0089 189.781Z" fill="url(#paint3_radial_513_2202)"/>
<path d="M10.5087 189.797L10.5089 189.781V170.935C10.8221 168.52 12.8974 162.939 18.7221 160.024C22.4099 158.179 27.5223 157.242 32.1027 156.831C36.6843 156.419 40.6444 156.541 41.998 156.767C42.1842 156.798 42.3758 156.827 42.5731 156.856C43.9069 157.057 45.4985 157.296 47.411 158.523C49.6139 159.936 52.2754 162.689 55.318 168.31C60.1418 177.221 60.1294 189.088 59.5103 193.936C55.7731 208.856 47.7991 210.766 44.5447 210.058L44.5447 210.058L44.5365 210.056C43.7664 209.902 41.169 209.308 37.0239 208.176C32.1853 206.856 28.9256 207.543 26.6055 208.032C26.3769 208.08 26.1575 208.126 25.9465 208.168C25.0796 208.342 24.0009 208.309 22.98 208.186C21.9742 208.064 21.0638 207.86 20.5359 207.71C16.38 206.258 13.8363 203.013 12.3442 199.485C10.8481 195.949 10.432 192.176 10.5087 189.797Z" stroke="black" stroke-opacity="0.18" stroke-linecap="round" stroke-linejoin="round"/>
</g>
<defs>
<filter id="filter0_d_513_2202" x="0" y="0.836914" width="74.8613" height="224.848" filterUnits="userSpaceOnUse" color-interpolation-filters="sRGB">
<feFlood flood-opacity="0" result="BackgroundImageFix"/>
<feColorMatrix in="SourceAlpha" type="matrix" values="0 0 0 0 0 0 0 0 0 0 0 0 0 0 0 0 0 0 127 0" result="hardAlpha"/>
<feOffset dy="5"/>
<feGaussianBlur stdDeviation="5"/>
<feComposite in2="hardAlpha" operator="out"/>
<feColorMatrix type="matrix" values="0 0 0 0 0 0 0 0 0 0 0 0 0 0 0 0 0 0 0.35 0"/>
<feBlend mode="normal" in2="BackgroundImageFix" result="effect1_dropShadow_513_2202"/>
<feBlend mode="normal" in="SourceGraphic" in2="effect1_dropShadow_513_2202" result="shape"/>
</filter>
<filter id="filter1_d_513_2202" x="14.667" y="5.83691" width="53.1367" height="94.8805" filterUnits="userSpaceOnUse" color-interpolation-filters="sRGB">
<feFlood flood-opacity="0" result="BackgroundImageFix"/>
<feColorMatrix in="SourceAlpha" type="matrix" values="0 0 0 0 0 0 0 0 0 0 0 0 0 0 0 0 0 0 127 0" result="hardAlpha"/>
<feOffset dy="4"/>
<feGaussianBlur stdDeviation="2"/>
<feComposite in2="hardAlpha" operator="out"/>
<feColorMatrix type="matrix" values="0 0 0 0 0 0 0 0 0 0 0 0 0 0 0 0 0 0 0.25 0"/>
<feBlend mode="normal" in2="BackgroundImageFix" result="effect1_dropShadow_513_2202"/>
<feBlend mode="normal" in="SourceGraphic" in2="effect1_dropShadow_513_2202" result="shape"/>
</filter>
<linearGradient id="paint0_linear_513_2202" x1="39.2888" y1="8.71143" x2="39.2888" y2="66.132" gradientUnits="userSpaceOnUse">
<stop stop-color="#CC8559"/>
<stop offset="1" stop-color="#EBB98F"/>
</linearGradient>
<radialGradient id="paint1_diamond_513_2202" cx="0" cy="0" r="1" gradientUnits="userSpaceOnUse" gradientTransform="translate(41.2356 49.2772) rotate(90) scale(43.4403 22.5686)">
<stop stop-color="#F9E7C9"/>
<stop offset="1" stop-color="#E7BA8B"/>
</radialGradient>
<radialGradient id="paint2_radial_513_2202" cx="0" cy="0" r="1" gradientUnits="userSpaceOnUse" gradientTransform="translate(39.7314 103.437) rotate(90) scale(24.7516 25.1298)">
<stop offset="0.56179" stop-color="white"/>
<stop offset="1" stop-color="#CAC9C2"/>
</radialGradient>
<radialGradient id="paint3_radial_513_2202" cx="0" cy="0" r="1" gradientUnits="userSpaceOnUse" gradientTransform="translate(35.1479 183.372) rotate(90) scale(27.3126 25.1479)">
<stop offset="0.56179" stop-color="white"/>
<stop offset="1" stop-color="#CAC9C2"/>
</radialGradient>
</defs>
</svg>
