<svg width="75" height="216" viewBox="0 0 75 216" fill="none" xmlns="http://www.w3.org/2000/svg">
<g filter="url(#filter0_d_513_1831)">
<ellipse cx="36.2509" cy="101.808" rx="9.43546" ry="10.3827" fill="#A9A9A9"/>
<path d="M10.7748 89.5428C11.2465 83.8796 17.3801 71.4519 21.6261 63.5863L33.8922 61.2265C40.1825 60.5972 54.2728 62.2648 60.3115 73.9689C66.3502 85.6729 64.0856 98.5098 62.6703 103.229C60.9841 107.587 57.0091 115.499 47.1018 114.084C43.3276 113.14 37.1946 99.4536 32.4769 104.173C30.2123 109.459 26.8156 110.151 25.4003 109.836C23.5132 110.308 21.1543 107.523 21.1543 105.117C21.1543 102.285 20.0535 102.443 19.739 101.341C7.94465 100.397 10.303 92.3745 10.7748 89.5428Z" fill="url(#paint0_radial_513_1831)"/>
<path d="M41.9123 5.53516C40.4969 5.53516 40.0252 7.89485 40.0252 9.78261C40.4969 14.0301 39.0816 17.3336 38.6099 20.6372C38.1381 22.9969 37.8634 23.2975 37.1945 24.4127C35.7792 26.7724 29.6462 31.9637 29.1744 32.4357C28.797 32.8132 26.501 53.0437 26.3438 56.0326L34.3639 64.0556L52.763 51.7852C51.3477 48.9535 52.1969 30.7367 49.9324 31.4918C47.6679 32.2469 47.1018 16.3898 44.7429 8.36679C44.5856 7.42291 43.7994 5.53516 41.9123 5.53516Z" fill="url(#paint1_linear_513_1831)"/>
<path d="M28.7457 68.817C25.3119 67.8914 21.1541 67.8316 18.3235 69.7194C15.6816 59.9031 15.3357 43.6054 16.4365 38.0995C18.3236 28.1888 16.9083 31.9643 23.9845 16.3902C29.6462 1.76003 33.8921 7.42321 33.8921 12.6146C34.8357 24.885 27.7591 60.2805 36.7224 56.505C44.6482 52.7295 45.6861 37.6275 47.6166 30.0765C47.6166 24.4132 43.1389 4.21409 49.9324 8.36716C56.7259 12.5202 59.9965 27.0876 61.7263 33.852C66.4441 45.6505 58.4239 65.4719 60.7828 74.9107C58.8957 69.7194 51.3476 69.2474 48.517 70.6633C43.3275 73.023 39.0815 74.9107 33.892 72.0791C32.1077 71.1055 32.0046 70.1913 28.7457 68.817Z" fill="url(#paint2_diamond_513_1831)"/>
<path d="M12.1399 172.597C10.6307 154.097 23.4592 151.045 30.0621 151.831C33.9924 152.303 43.9282 153.625 52.229 155.135C62.605 157.023 61.6618 168.349 62.605 180.62C63.5483 192.89 49.8709 203.745 45.1545 199.969C42.453 197.806 36.3664 197.128 31.3959 197.032C28.0178 196.967 24.6263 196.642 21.3807 195.703C11.455 192.831 13.7957 192.893 12.1399 172.597Z" fill="url(#paint3_radial_513_1831)"/>
<path d="M34.3068 192.418C30.832 186.209 31.5688 179.218 35.7276 175.088M36.1934 174.651C39.9217 171.336 46.0799 170.164 54.1895 173.343M33.8705 192.662C34.0054 192.903 34.3101 192.989 34.551 192.854C34.792 192.72 34.878 192.415 34.7432 192.174C31.2332 185.902 32.1695 178.898 36.5256 175.024C40.1045 171.842 46.1248 170.654 54.2277 173.896C54.4668 176.613 55.3977 178.362 56.1201 179.085C56.3153 179.281 56.6319 179.281 56.8272 179.086C57.0225 178.89 57.0226 178.574 56.8274 178.378C56.2969 177.847 55.3827 176.249 55.2012 173.516C55.1159 172.23 55.1936 170.698 55.5492 168.919C55.6033 168.648 55.4276 168.385 55.1569 168.331C54.8861 168.277 54.6227 168.452 54.5686 168.723C54.2649 170.242 54.1526 171.602 54.1716 172.8C46.1631 169.719 39.9295 170.795 36.0378 174.123C34.0232 173.83 32.5027 173.557 31.069 172.886C29.6587 172.227 28.2989 171.165 26.6598 169.245C28.3469 166.41 29.397 163.48 29.9342 161.141C30.2124 159.93 30.3561 158.865 30.3754 158.043C30.3851 157.634 30.3643 157.27 30.307 156.972C30.2546 156.699 30.1537 156.379 29.9199 156.175C29.7121 155.993 29.3962 156.014 29.2143 156.221C29.0349 156.426 29.0528 156.736 29.2526 156.919C29.252 156.919 29.2517 156.919 29.2516 156.919C29.2499 156.92 29.2896 156.977 29.3249 157.16C29.364 157.364 29.3844 157.651 29.3757 158.02C29.3584 158.755 29.2274 159.751 28.9596 160.917C28.4243 163.247 27.3544 166.204 25.6202 169.032C23.8321 171.947 21.35 174.707 18.0389 176.515C17.8449 174.672 16.993 173.35 16.2424 172.692C16.0346 172.51 15.7187 172.531 15.5368 172.739C15.3549 172.947 15.3759 173.263 15.5836 173.445C16.2221 174.004 17.084 175.341 17.0797 177.315C17.0767 178.66 16.6713 180.32 15.4871 182.245C15.3425 182.481 15.4159 182.789 15.6511 182.933C15.8863 183.078 16.1943 183.005 16.3389 182.769C17.5228 180.844 18.0107 179.113 18.0728 177.628C21.572 175.841 24.2006 173.071 26.1067 170.134C27.7193 171.98 29.132 173.084 30.6453 173.792C32.0176 174.434 33.4472 174.737 35.1182 174.997C31.0012 179.339 30.3792 186.424 33.8705 192.662ZM12.6383 172.556C11.894 163.433 14.6844 158.228 18.3651 155.377C22.0767 152.502 26.7908 151.945 30.0025 152.328C33.9277 152.799 43.8525 154.119 52.1395 155.627C54.6384 156.081 56.4222 157.096 57.7256 158.525C59.0365 159.962 59.8921 161.853 60.47 164.108C61.0481 166.364 61.3405 168.953 61.5463 171.763C61.6418 173.067 61.7184 174.413 61.7968 175.791C61.8027 175.896 61.8087 176.002 61.8148 176.107C61.8995 177.595 61.9882 179.119 62.1065 180.658C62.5633 186.6 59.4755 192.245 55.6539 195.953C53.7461 197.804 51.6837 199.144 49.8377 199.792C47.9749 200.447 46.4481 200.364 45.467 199.579C44.0143 198.416 41.7127 197.689 39.2157 197.234C36.6995 196.775 33.9063 196.58 31.4055 196.532C28.0507 196.468 24.7072 196.145 21.5196 195.222C19.0207 194.499 17.3739 193.981 16.2379 193.305C15.1498 192.658 14.5356 191.868 14.1381 190.541C13.7267 189.167 13.5549 187.243 13.3857 184.337C13.3474 183.68 13.3094 182.976 13.2685 182.219C13.1297 179.65 12.9585 176.482 12.6383 172.556Z" stroke="black" stroke-opacity="0.18" stroke-linecap="round" stroke-linejoin="round"/>
</g>
<defs>
<filter id="filter0_d_513_1831" x="0.267578" y="0.535156" width="74.0186" height="215.196" filterUnits="userSpaceOnUse" color-interpolation-filters="sRGB">
<feFlood flood-opacity="0" result="BackgroundImageFix"/>
<feColorMatrix in="SourceAlpha" type="matrix" values="0 0 0 0 0 0 0 0 0 0 0 0 0 0 0 0 0 0 127 0" result="hardAlpha"/>
<feOffset dy="5"/>
<feGaussianBlur stdDeviation="5"/>
<feComposite in2="hardAlpha" operator="out"/>
<feColorMatrix type="matrix" values="0 0 0 0 0 0 0 0 0 0 0 0 0 0 0 0 0 0 0.35 0"/>
<feBlend mode="normal" in2="BackgroundImageFix" result="effect1_dropShadow_513_1831"/>
<feBlend mode="normal" in="SourceGraphic" in2="effect1_dropShadow_513_1831" result="shape"/>
</filter>
<radialGradient id="paint0_radial_513_1831" cx="0" cy="0" r="1" gradientUnits="userSpaceOnUse" gradientTransform="translate(37.2769 87.6816) rotate(90) scale(26.5693 27.0093)">
<stop offset="0.56179" stop-color="white"/>
<stop offset="1" stop-color="#CAC9C2"/>
</radialGradient>
<linearGradient id="paint1_linear_513_1831" x1="39.5534" y1="5.53516" x2="39.5534" y2="64.0556" gradientUnits="userSpaceOnUse">
<stop stop-color="#CC8559"/>
<stop offset="1" stop-color="#EBB98F"/>
</linearGradient>
<radialGradient id="paint2_diamond_513_1831" cx="0" cy="0" r="1" gradientUnits="userSpaceOnUse" gradientTransform="translate(39.5453 40.9817) rotate(90) scale(33.929 23.6967)">
<stop stop-color="#F9E7C9"/>
<stop offset="1" stop-color="#E7BA8B"/>
</radialGradient>
<radialGradient id="paint3_radial_513_1831" cx="0" cy="0" r="1" gradientUnits="userSpaceOnUse" gradientTransform="translate(37.3345 176.226) rotate(90) scale(24.5052 25.317)">
<stop offset="0.56179" stop-color="white"/>
<stop offset="1" stop-color="#CAC9C2"/>
</radialGradient>
</defs>
</svg>
