<svg width="64" height="241" viewBox="0 0 64 241" fill="none" xmlns="http://www.w3.org/2000/svg">
<g filter="url(#filter0_d_513_1847)">
<path d="M19.418 91.6191C21.6196 75.5732 26.0228 42.4431 26.0228 38.2901C26.0228 33.0987 26.0228 4.31045 29.797 5.72627C33.5712 7.14209 34.5147 12.3334 34.9865 12.8054C35.3639 13.1829 38.2889 32.7841 39.7042 42.5375V15.1651C39.5876 12.8323 40.1626 10.3267 42.1983 11.8797C44.4391 13.5893 45.1783 16.5807 45.8114 19.3272C47.7441 27.7117 50.6977 38.7895 51.4985 41.5936C52.1276 46.313 52.6308 64.813 49.6114 101.058C46.5921 137.303 28.2244 109.867 19.418 91.6191Z" fill="url(#paint0_diamond_513_1847)"/>
<path d="M27.9098 87.8455C26.1517 89.6042 23.739 90.4852 21.8117 90.8778C20.9388 91.0556 19.2943 92.6499 19.1002 93.5193C18.5074 96.175 17.3227 100.425 16.5872 102.948C14.0711 110.184 10.5485 125.223 16.5872 127.488C24.1356 130.32 25.5509 132.208 27.438 134.096C28.9477 135.606 33.4138 135.983 35.4581 135.983C40.8049 134.41 50.9323 129.942 52.442 124.657C53.9516 119.371 53.3855 111.128 52.442 107.667C51.5785 105.076 50.715 100.113 50.5747 96.3954C50.5539 95.8435 50.1069 95.3903 49.5639 95.2894C46.189 94.6617 39.5628 91.4326 38.2888 89.7333C37.3452 87.3736 31.2122 84.542 27.9098 87.8455Z" fill="url(#paint1_radial_513_1847)"/>
<path d="M19.4047 175.548C20.4911 174.302 21.8985 173.463 23.3622 172.84C26.2411 171.614 29.4369 171.243 32.5598 171.437C32.6327 171.442 32.7037 171.446 32.7731 171.452C34.4158 171.576 36.1259 171.776 37.53 172.638C43.2662 176.159 47.8882 190.456 49.8334 197.805C50.1478 199.221 50.6706 202.997 49.5386 206.773C48.1237 211.492 39.6343 220.931 33.503 223.763C28.598 226.028 24.2275 225.336 22.6553 224.707C13.2226 217.156 14.6375 217.156 11.8077 210.548C9.96085 206.236 10.918 198.49 12.0162 193.306C12.4482 191.266 13.2851 189.344 14.1782 187.46C14.6572 186.449 15.1482 185.358 15.61 184.301C16.8879 181.377 17.3063 177.953 19.4047 175.548Z" fill="url(#paint2_radial_513_1847)"/>
<path d="M22.3061 195.277C22.19 198.826 21.2096 202.972 18.4106 206.773M22.8525 195.833C24.5324 197.414 28.9602 198.721 36.7803 194.315M21.7077 187.717C21.6105 187.462 21.3262 187.332 21.0694 187.425C20.8126 187.519 20.6784 187.801 20.7681 188.059C20.9771 188.661 21.1533 189.256 21.2995 189.844C22.2043 193.747 22.373 200.549 18.008 206.476C17.8474 206.695 17.8897 207.001 18.1034 207.167C18.3171 207.334 18.6245 207.3 18.7967 207.091C20.2868 205.28 22.3752 201.395 22.8072 196.458C24.8562 198.086 29.423 198.965 36.8069 194.873C36.9387 196.914 37.5255 200.792 39.1675 205.065C39.2666 205.322 39.5559 205.451 39.8136 205.352C40.0714 205.253 40.2 204.963 40.101 204.706C38.2455 199.878 37.7806 195.584 37.7761 194.053L38.7173 183.693C38.7423 183.418 38.5396 183.175 38.2646 183.15C37.9896 183.125 37.7464 183.328 37.7214 183.603L36.8015 193.728C28.2236 198.657 23.9922 196.563 22.8814 195.125C22.9227 193.385 22.7493 191.533 22.2719 189.61C22.1023 188.88 21.9071 188.241 21.7077 187.717ZM19.7814 175.876C20.8005 174.708 22.1337 173.906 23.558 173.3C26.3488 172.112 29.4633 171.745 32.5287 171.936C32.5996 171.94 32.6683 171.945 32.7353 171.95C34.3828 172.075 35.9791 172.273 37.2685 173.064C38.61 173.888 39.9257 175.37 41.1799 177.295C42.429 179.213 43.5925 181.532 44.6438 183.983C46.7444 188.881 48.3779 194.262 49.3474 197.923C49.6525 199.304 50.1549 202.976 49.0597 206.629C48.7278 207.736 47.9654 209.161 46.8858 210.738C45.8113 212.307 44.4419 213.999 42.9229 215.636C39.8747 218.92 36.2721 221.933 33.2933 223.309C28.5908 225.481 24.4189 224.843 22.9083 224.269C18.227 220.519 16.2963 218.684 15.1715 216.996C14.6111 216.155 14.2431 215.338 13.8352 214.303C13.7187 214.007 13.5985 213.693 13.4695 213.355C13.149 212.516 12.7743 211.535 12.2673 210.352C11.3898 208.303 11.1622 205.382 11.307 202.278C11.4511 199.189 11.96 195.984 12.5053 193.41C12.9244 191.431 13.7392 189.553 14.63 187.674C15.1118 186.657 15.605 185.562 16.0682 184.502C16.5088 183.493 16.8559 182.407 17.193 181.353C17.352 180.856 17.5088 180.365 17.6722 179.893C18.193 178.388 18.797 177.005 19.7814 175.876Z" stroke="black" stroke-opacity="0.18" stroke-linecap="round" stroke-linejoin="round"/>
</g>
<defs>
<filter id="filter0_d_513_1847" x="0.766602" y="0.675781" width="62.6074" height="239.646" filterUnits="userSpaceOnUse" color-interpolation-filters="sRGB">
<feFlood flood-opacity="0" result="BackgroundImageFix"/>
<feColorMatrix in="SourceAlpha" type="matrix" values="0 0 0 0 0 0 0 0 0 0 0 0 0 0 0 0 0 0 127 0" result="hardAlpha"/>
<feOffset dy="5"/>
<feGaussianBlur stdDeviation="5"/>
<feComposite in2="hardAlpha" operator="out"/>
<feColorMatrix type="matrix" values="0 0 0 0 0 0 0 0 0 0 0 0 0 0 0 0 0 0 0.35 0"/>
<feBlend mode="normal" in2="BackgroundImageFix" result="effect1_dropShadow_513_1847"/>
<feBlend mode="normal" in="SourceGraphic" in2="effect1_dropShadow_513_1847" result="shape"/>
</filter>
<radialGradient id="paint0_diamond_513_1847" cx="0" cy="0" r="1" gradientUnits="userSpaceOnUse" gradientTransform="translate(35.6968 62.2598) rotate(90) scale(56.584 16.2789)">
<stop stop-color="#F9E7C9"/>
<stop offset="1" stop-color="#E7BA8B"/>
</radialGradient>
<radialGradient id="paint1_radial_513_1847" cx="0" cy="0" r="1" gradientUnits="userSpaceOnUse" gradientTransform="translate(33.3134 111.163) rotate(90) scale(24.8208 20.0605)">
<stop offset="0.56179" stop-color="white"/>
<stop offset="1" stop-color="#CAC9C2"/>
</radialGradient>
<radialGradient id="paint2_radial_513_1847" cx="0" cy="0" r="1" gradientUnits="userSpaceOnUse" gradientTransform="translate(30.4991 198.35) rotate(90) scale(26.9724 19.7325)">
<stop offset="0.56179" stop-color="white"/>
<stop offset="1" stop-color="#CAC9C2"/>
</radialGradient>
</defs>
</svg>
