<svg width="62" height="216" viewBox="0 0 62 216" fill="none" xmlns="http://www.w3.org/2000/svg">
<g filter="url(#filter0_d_513_1855)">
<path d="M51.1644 116.626C51.1644 112.096 49.2773 97.7489 48.3338 91.1417L44.0876 77.9274L40.3134 73.2081L27.1038 64.2412L18.6119 79.3433C17.9829 83.9053 16.4419 95.3892 15.3097 104.828C14.1774 114.267 18.6121 117.256 20.9709 117.57C31.0354 119.143 51.1644 121.157 51.1644 116.626Z" fill="url(#paint0_radial_513_1855)"/>
<path d="M21.44 11.3871C23.7045 20.8259 20.4965 61.57 18.6094 80.2903C22.8553 75.0989 30.0263 69.4357 34.1779 73.2112C38.3295 76.9867 42.8271 78.8744 44.5569 79.3463C43.6133 61.8846 37.9521 54.8055 37.9521 43.479C38.5811 35.2987 37.8577 17.0504 29.9319 9.49934C22.0061 1.94831 20.9682 7.61158 21.44 11.3871Z" fill="url(#paint1_diamond_513_1855)"/>
<path d="M10.4987 169.167C10.8761 181.626 21.9752 194.494 27.4777 199.371C32.3827 202.014 35.8099 200.472 36.9104 199.371C44.2568 193.022 46.7269 180.045 47.1978 172.346C47.3063 170.572 46.8501 168.802 45.7407 167.414C42.0933 162.851 34.6149 157.154 24.6478 159.728C12.9513 162.748 10.3415 167.279 10.4987 169.167Z" fill="#585858"/>
<path d="M10.997 169.125C10.9978 169.134 10.9983 169.143 10.9985 169.152C11.1832 175.249 13.9973 181.489 17.4852 186.839C20.9499 192.154 25.0448 196.538 27.7657 198.958C32.4679 201.468 35.631 199.944 36.5567 199.017C36.5653 199.009 36.5743 199 36.5835 198.993C40.1568 195.904 42.5741 191.173 44.156 186.213C45.7354 181.26 46.4652 176.134 46.6987 172.315C46.8009 170.644 46.3699 169.002 45.3501 167.726C41.7631 163.238 34.4681 157.708 24.7729 160.212C18.9691 161.711 15.4681 163.573 13.4483 165.256C11.4112 166.954 10.9379 168.415 10.997 169.125Z" stroke="black" stroke-opacity="0.18" stroke-linecap="round" stroke-linejoin="round"/>
<path d="M10.4992 169.167C10.8765 181.626 21.9757 194.494 27.4782 199.371C32.3832 202.014 35.8104 200.472 36.9109 199.371C44.2573 193.022 46.7274 180.045 47.1983 172.346C47.3068 170.572 46.89 168.764 45.7045 167.441C42.9442 164.359 38.0836 162.216 27.3083 162.417C24.9143 162.461 22.5243 162.81 20.2204 163.463C12.9764 165.514 10.3621 167.52 10.4992 169.167Z" fill="url(#paint2_radial_513_1855)"/>
<path d="M10.9975 169.125C10.9982 169.134 10.9987 169.143 10.999 169.152C11.1837 175.249 13.9978 181.489 17.4856 186.839C20.9504 192.154 25.0453 196.538 27.7662 198.958C32.4684 201.468 35.6315 199.944 36.5572 199.017C36.5658 199.009 36.5748 199 36.584 198.993C40.1573 195.904 42.5746 191.173 44.1565 186.213C45.7359 181.26 46.4657 176.134 46.6992 172.315C46.8023 170.631 46.4026 168.97 45.332 167.775C42.7167 164.855 38.0394 162.717 27.3177 162.917C24.9657 162.96 22.6184 163.303 20.3567 163.944C16.7518 164.965 14.3399 165.964 12.8569 166.89C11.3383 167.84 10.9543 168.607 10.9975 169.125Z" stroke="black" stroke-opacity="0.18" stroke-linecap="round" stroke-linejoin="round"/>
<path d="M18.5156 169.636C21.031 167.748 28.703 165.106 39.2676 169.636" stroke="black" stroke-opacity="0.18" stroke-linecap="round" stroke-linejoin="round"/>
<path d="M10.997 169.125C10.9978 169.134 10.9983 169.143 10.9985 169.152C11.1832 175.249 13.9973 181.489 17.4852 186.839C20.9499 192.154 25.0448 196.538 27.7657 198.958C32.4679 201.468 35.631 199.944 36.5567 199.017C36.5653 199.009 36.5743 199 36.5835 198.993C40.1568 195.904 42.5741 191.173 44.156 186.213C45.7354 181.26 46.4652 176.134 46.6987 172.315C46.8009 170.644 46.3699 169.002 45.3501 167.726C41.7631 163.238 34.4681 157.708 24.7729 160.212C18.9691 161.711 15.4681 163.573 13.4483 165.256C11.4112 166.954 10.9379 168.415 10.997 169.125Z" stroke="black" stroke-opacity="0.18" stroke-linecap="round" stroke-linejoin="round"/>
</g>
<defs>
<filter id="filter0_d_513_1855" x="0.492188" y="0.777344" width="60.6719" height="215.053" filterUnits="userSpaceOnUse" color-interpolation-filters="sRGB">
<feFlood flood-opacity="0" result="BackgroundImageFix"/>
<feColorMatrix in="SourceAlpha" type="matrix" values="0 0 0 0 0 0 0 0 0 0 0 0 0 0 0 0 0 0 127 0" result="hardAlpha"/>
<feOffset dy="5"/>
<feGaussianBlur stdDeviation="5"/>
<feComposite in2="hardAlpha" operator="out"/>
<feColorMatrix type="matrix" values="0 0 0 0 0 0 0 0 0 0 0 0 0 0 0 0 0 0 0.35 0"/>
<feBlend mode="normal" in2="BackgroundImageFix" result="effect1_dropShadow_513_1855"/>
<feBlend mode="normal" in="SourceGraphic" in2="effect1_dropShadow_513_1855" result="shape"/>
</filter>
<radialGradient id="paint0_radial_513_1855" cx="0" cy="0" r="1" gradientUnits="userSpaceOnUse" gradientTransform="translate(33.1462 91.8228) rotate(90) scale(27.5815 18.0182)">
<stop offset="0.56179" stop-color="white"/>
<stop offset="1" stop-color="#CAC9C2"/>
</radialGradient>
<radialGradient id="paint1_diamond_513_1855" cx="0" cy="0" r="1" gradientUnits="userSpaceOnUse" gradientTransform="translate(31.5831 43.0338) rotate(90) scale(37.2565 12.9738)">
<stop stop-color="#F9E7C9"/>
<stop offset="1" stop-color="#E7BA8B"/>
</radialGradient>
<radialGradient id="paint2_radial_513_1855" cx="0" cy="0" r="1" gradientUnits="userSpaceOnUse" gradientTransform="translate(28.8905 181.617) rotate(-90) scale(19.2133 18.3964)">
<stop offset="0.56179" stop-color="white"/>
<stop offset="1" stop-color="#CAC9C2"/>
</radialGradient>
</defs>
</svg>
