<svg width="66" height="214" viewBox="0 0 66 214" fill="none" xmlns="http://www.w3.org/2000/svg">
<g filter="url(#filter0_d_513_1863)">
<path d="M26.911 137.818C24.194 137.591 22.0566 137.202 20.3683 136.708C14.3374 134.943 13.5046 127.565 13.5823 121.282C13.7257 109.689 14.9503 101.436 16.0496 96.7669C16.5747 94.5369 17.7014 92.525 19.0757 90.6919L19.4863 90.1443C20.6553 88.585 22.051 87.2093 23.6269 86.0628L26.2848 84.1291C29.6445 81.6848 33.967 80.9855 37.9261 82.2456C40.5777 83.0896 42.8958 84.7535 44.4997 87.0274C47.0203 90.6009 49.9489 94.9097 50.4997 96.2871C51.4432 98.6468 57.1045 113.749 54.7456 132.154C53.6458 140.736 44.5694 137.56 35.9181 137.617C32.9224 137.637 29.8286 137.696 26.911 137.818Z" fill="url(#paint0_radial_513_1863)"/>
<g clip-path="url(#paint1_diamond_513_1863_clip_path)" data-figma-skip-parse="true"><g transform="matrix(0 0.046486 -0.0172197 0 33.7519 51.6891)"><rect x="0" y="0" width="1021.51" height="1058.07" fill="url(#paint1_diamond_513_1863)" opacity="1" shape-rendering="crispEdges"/><rect x="0" y="0" width="1021.51" height="1058.07" transform="scale(1 -1)" fill="url(#paint1_diamond_513_1863)" opacity="1" shape-rendering="crispEdges"/><rect x="0" y="0" width="1021.51" height="1058.07" transform="scale(-1 1)" fill="url(#paint1_diamond_513_1863)" opacity="1" shape-rendering="crispEdges"/><rect x="0" y="0" width="1021.51" height="1058.07" transform="scale(-1)" fill="url(#paint1_diamond_513_1863)" opacity="1" shape-rendering="crispEdges"/></g></g><path d="M27.8548 12.2822L26.9112 15.1138L26.694 15.7659C26.5254 16.2718 26.4395 16.8015 26.4395 17.3347C26.4395 17.7404 26.3897 18.1445 26.2914 18.538L25.9677 19.8332L25.6372 21.8171C25.5432 22.3813 25.4959 22.9523 25.4959 23.5243C25.4959 24.2082 25.4284 24.8904 25.2943 25.561L25.0241 26.9123L24.7812 27.8844C24.6292 28.4925 24.5524 29.1171 24.5524 29.744C24.5524 30.3708 24.4755 30.9954 24.3235 31.6035L24.0806 32.5756L23.8519 33.2618C23.6909 33.745 23.6088 34.2511 23.6088 34.7604V35.3516C23.6088 35.6985 23.5281 36.0407 23.3729 36.3511C23.2178 36.6615 23.1371 37.0037 23.1371 37.3506V38.7108C23.1371 39.6524 23.0441 40.5916 22.8595 41.5149L22.6653 42.4863L22.5665 42.7828C22.3194 43.5242 22.1935 44.3005 22.1935 45.082V45.5156C22.1935 46.0099 22.1139 46.5009 21.9576 46.9697C21.8014 47.4386 21.7217 47.9296 21.7217 48.4238V49.0934V50.5093V51.3975C21.7217 51.7444 21.641 52.0867 21.4858 52.397C21.3307 52.7074 21.25 53.0496 21.25 53.3966V54.2848V56.1725V56.6154C21.25 57.2616 21.1707 57.9053 21.0141 58.5322L20.8769 59.0811C20.8113 59.3434 20.7782 59.6128 20.7782 59.8833C20.7782 60.2388 20.7209 60.5919 20.6085 60.9292L20.5423 61.1279C20.3861 61.5968 20.3064 62.0878 20.3064 62.582V63.7236V64.8651C20.3064 65.3594 20.2268 65.8503 20.0705 66.3192C19.9143 66.7881 19.8346 67.2791 19.8346 67.7733V67.971V68.1687C19.8346 68.6629 19.755 69.1539 19.5988 69.6228C19.4425 70.0917 19.3629 70.5827 19.3629 71.0769V71.7465V74.1062V75.522V76.6636C19.3629 77.1578 19.2832 77.6488 19.127 78.1177C18.9707 78.5866 18.8911 79.0776 18.8911 79.5718V79.8102C18.8911 80.0973 18.8707 80.3841 18.8301 80.6683L18.4947 83.0173C18.4445 83.3684 18.3629 83.7142 18.2508 84.0507L18.2459 84.0653C18.0483 84.6584 17.9475 85.2795 17.9475 85.9047V86.7929C17.9475 87.1399 17.8668 87.4821 17.7117 87.7924C17.5565 88.1028 17.4758 88.445 17.4758 88.792V90.4707C17.4758 90.8819 17.3801 91.2875 17.1962 91.6554L17.188 91.6717C17.0661 91.9156 16.9843 92.1775 16.9458 92.4474L16.6656 94.4094C16.5952 94.9024 16.9778 95.3435 17.4758 95.3435H18.4193C19.0398 95.3435 19.6518 95.199 20.2067 94.9214L20.3064 94.8715L20.9516 94.5488C21.1492 94.45 21.3296 94.3199 21.4858 94.1636C21.6421 94.0073 21.8225 93.8773 22.0201 93.7784L22.1935 93.6917C22.506 93.5354 22.7912 93.3297 23.0382 93.0826L24.0806 92.0399L25.0241 91.096L26.4395 89.6802L27.383 88.7363L27.7992 88.32C28.146 87.9731 28.5688 87.7117 29.0342 87.5565L29.0525 87.5504C29.5058 87.3992 29.9178 87.1445 30.2556 86.8066C30.8329 86.2291 31.6159 85.9047 32.4324 85.9047H32.6119C32.8991 85.9047 33.1852 85.8695 33.4638 85.7998L33.6669 85.749C34.4971 85.5414 35.3657 85.5414 36.1958 85.749L36.5047 85.8262C36.7131 85.8783 36.9271 85.9047 37.1419 85.9047C37.5497 85.9047 37.9519 85.9997 38.3167 86.1821L38.4448 86.2462C38.6183 86.333 38.7836 86.4352 38.9388 86.5516L40.2912 87.5663C40.4918 87.7168 40.7055 87.8489 40.9297 87.961C41.3314 88.1619 41.6981 88.4263 42.0157 88.744L42.4798 89.2083C43.1073 89.836 43.6712 90.5241 44.1634 91.2627L44.3668 91.568L44.8386 92.5118L45.7822 93.9277C46.4034 94.8599 47.224 95.6425 48.1845 96.2191L49.0846 96.7593L50.2604 97.6415C50.5534 97.8613 50.9717 97.6522 50.9717 97.2859C50.9717 97.2496 50.9672 97.2134 50.9584 97.1782L50.7358 96.2873C50.5791 95.6605 50.4999 95.0167 50.4999 94.3706V92.5118V91.125C50.4999 90.4789 50.4207 89.8352 50.264 89.2083C50.1073 88.5814 50.0281 87.9376 50.0281 87.2915V86.3766V85.4618C50.0281 84.8156 49.9489 84.1719 49.7922 83.545C49.6356 82.9181 49.5564 82.2744 49.5564 81.6282V81.1853V79.7695V78.8256V77.9108C49.5564 77.2646 49.4771 76.6209 49.3205 75.994C49.1638 75.3671 49.0846 74.7234 49.0846 74.0772V73.6343V71.7465C49.0846 70.8062 48.9693 69.8694 48.7413 68.9571L48.6128 68.4429L48.3955 67.7909C48.227 67.285 48.141 66.7553 48.141 66.222C48.141 65.8164 48.0913 65.4123 47.993 65.0188L47.8409 64.4103C47.7269 63.9542 47.6693 63.4858 47.6693 63.0156C47.6693 62.5455 47.6116 62.0771 47.4976 61.621L47.1975 60.42L46.7257 59.0042L46.2539 57.1164L45.8998 55.6994C45.8217 55.3868 45.7822 55.0657 45.7822 54.7434V54.5331C45.7822 54.0594 45.6719 53.5923 45.4601 53.1686C45.3606 52.9694 45.2832 52.76 45.2292 52.544L45.0361 51.7712C44.9049 51.2465 44.8386 50.7077 44.8386 50.1669C44.8386 49.4559 44.724 48.7496 44.4993 48.0751L44.3668 47.6776L44.1951 47.1623C43.9955 46.5632 43.8502 45.9473 43.7609 45.3221L43.5597 43.9133C43.4699 43.2846 43.2405 42.6839 42.8883 42.1555C42.618 41.7498 42.4193 41.3007 42.3011 40.8277L42.008 39.6547L41.7425 38.5922C41.606 38.0461 41.3766 37.5275 41.0644 37.059C40.7522 36.5906 40.5229 36.0719 40.3864 35.5258L40.1209 34.4633L39.6491 31.6317L39.1773 29.744L38.9614 28.8799C38.7914 28.1995 38.5474 27.5397 38.2338 26.9123L37.2902 24.5526L36.8185 22.6649L36.5317 21.2307C36.4087 20.6152 36.3467 19.989 36.3467 19.3613C36.3467 18.7336 36.2847 18.1074 36.1617 17.4919L36.1108 17.2376C35.9539 16.4529 35.8749 15.6547 35.8749 14.8545V14.17V12.7541C35.8749 11.8138 35.7596 10.877 35.5317 9.96476L35.4032 9.45058L35.2597 8.87667C35.0485 8.03126 34.5297 7.29492 33.8047 6.81143C33.6127 6.68342 33.4339 6.53676 33.2708 6.37359L32.7552 5.85785C32.6342 5.73679 32.4945 5.63602 32.3414 5.55945C31.8929 5.33515 31.365 5.33515 30.9166 5.55945L30.6854 5.67506L30.5198 5.7579C30.0148 6.01047 29.6054 6.42001 29.353 6.92504C29.2978 7.03546 29.2505 7.14966 29.2115 7.26677L28.7983 8.5067L28.3266 10.3945L27.8548 12.2822Z" data-figma-gradient-fill="{&#34;type&#34;:&#34;GRADIENT_DIAMOND&#34;,&#34;stops&#34;:[{&#34;color&#34;:{&#34;r&#34;:0.97647058963775635,&#34;g&#34;:0.90588235855102539,&#34;b&#34;:0.78823530673980713,&#34;a&#34;:1.0},&#34;position&#34;:0.0},{&#34;color&#34;:{&#34;r&#34;:0.90588235855102539,&#34;g&#34;:0.7294117808341980,&#34;b&#34;:0.54509806632995605,&#34;a&#34;:1.0},&#34;position&#34;:1.0}],&#34;stopsVar&#34;:[{&#34;color&#34;:{&#34;r&#34;:0.97647058963775635,&#34;g&#34;:0.90588235855102539,&#34;b&#34;:0.78823530673980713,&#34;a&#34;:1.0},&#34;position&#34;:0.0},{&#34;color&#34;:{&#34;r&#34;:0.90588235855102539,&#34;g&#34;:0.7294117808341980,&#34;b&#34;:0.54509806632995605,&#34;a&#34;:1.0},&#34;position&#34;:1.0}],&#34;transform&#34;:{&#34;m00&#34;:2.1088079538351436e-15,&#34;m01&#34;:-34.439445495605469,&#34;m02&#34;:50.971672058105469,&#34;m10&#34;:92.971977233886719,&#34;m11&#34;:5.6928919213536811e-15,&#34;m12&#34;:5.2031250},&#34;opacity&#34;:1.0,&#34;blendMode&#34;:&#34;NORMAL&#34;,&#34;visible&#34;:true}"/>
<path d="M54.1503 165.822C53.6957 178.218 44.7989 192 38.1689 196.852C32.2588 199.481 28.1293 197.947 26.8033 196.852C18.1115 190.65 11.7039 177.349 10.1746 169.452C9.78035 167.416 10.4299 165.344 11.8899 163.872C16.3556 159.369 25.2746 153.91 37.1019 156.432C51.1952 159.437 54.3397 163.944 54.1503 165.822Z" fill="#585858"/>
<path d="M53.6528 165.772C53.6518 165.783 53.651 165.793 53.6506 165.804C53.4271 171.898 51.1241 178.365 48.0382 183.923C44.9638 189.461 41.1455 194.038 37.9167 196.417C32.1792 198.951 28.2763 197.42 27.1217 196.466C27.1127 196.459 27.1033 196.452 27.0937 196.445C22.8293 193.402 19.0981 188.594 16.2382 183.541C13.3794 178.49 11.4178 173.242 10.6654 169.357C10.3033 167.487 10.8988 165.581 12.2449 164.224C16.6315 159.8 25.3864 154.445 36.9976 156.921C44.0087 158.416 48.2484 160.275 50.6987 161.962C51.923 162.804 52.6877 163.595 53.1321 164.262C53.58 164.935 53.6849 165.454 53.6528 165.772Z" stroke="black" stroke-opacity="0.18" stroke-linecap="round" stroke-linejoin="round"/>
<path d="M54.1521 165.268C53.6974 177.508 44.8698 192.043 38.2396 196.834C32.3292 199.43 28.1995 197.915 26.8735 196.834C18.1915 190.717 11.736 176.908 10.1832 168.923C9.78354 166.868 10.3965 164.719 11.9815 163.351C15.4701 160.339 21.6566 158.303 35.2786 158.666C37.2454 158.718 39.2157 158.954 41.1381 159.373C50.8561 161.489 54.3253 163.573 54.1521 165.268Z" fill="url(#paint2_radial_513_1863)"/>
<path d="M53.6546 165.217C53.6536 165.228 53.6528 165.239 53.6524 165.25C53.4288 171.268 51.1417 177.886 48.0711 183.608C45.0108 189.31 41.2103 194.052 37.9897 196.397C32.25 198.9 28.3446 197.388 27.1895 196.446C27.1804 196.439 27.1711 196.432 27.1614 196.425C22.9069 193.427 19.1671 188.518 16.2921 183.336C13.4191 178.158 11.4385 172.759 10.674 168.828C10.3039 166.924 10.8763 164.965 12.3082 163.729C15.6483 160.846 21.6702 158.804 35.2653 159.166C37.2012 159.217 39.1403 159.45 41.0317 159.862C45.8779 160.917 49.1292 161.957 51.1364 162.928C52.1419 163.415 52.8044 163.87 53.1994 164.277C53.5917 164.682 53.6777 164.992 53.6546 165.217Z" stroke="black" stroke-opacity="0.18" stroke-linecap="round" stroke-linejoin="round"/>
<path d="M19.2549 166.172C21.7703 164.284 34.6302 161.641 45.1949 166.172" stroke="black" stroke-opacity="0.18" stroke-linecap="round" stroke-linejoin="round"/>
<path d="M53.6528 165.772C53.6518 165.783 53.651 165.793 53.6506 165.804C53.4271 171.898 51.1241 178.365 48.0382 183.923C44.9638 189.461 41.1455 194.038 37.9167 196.417C32.1792 198.951 28.2763 197.42 27.1217 196.466C27.1127 196.459 27.1033 196.452 27.0937 196.445C22.8293 193.402 19.0981 188.594 16.2382 183.541C13.3794 178.49 11.4178 173.242 10.6654 169.357C10.3033 167.487 10.8988 165.581 12.2449 164.224C16.6315 159.8 25.3864 154.445 36.9976 156.921C44.0087 158.416 48.2484 160.275 50.6987 161.962C51.923 162.804 52.6877 163.595 53.1321 164.262C53.58 164.935 53.6849 165.454 53.6528 165.772Z" stroke="black" stroke-opacity="0.18" stroke-linecap="round" stroke-linejoin="round"/>
</g>
<defs>
<filter id="filter0_d_513_1863" x="0.0615234" y="0.391113" width="65.2539" height="212.913" filterUnits="userSpaceOnUse" color-interpolation-filters="sRGB">
<feFlood flood-opacity="0" result="BackgroundImageFix"/>
<feColorMatrix in="SourceAlpha" type="matrix" values="0 0 0 0 0 0 0 0 0 0 0 0 0 0 0 0 0 0 127 0" result="hardAlpha"/>
<feOffset dy="5"/>
<feGaussianBlur stdDeviation="5"/>
<feComposite in2="hardAlpha" operator="out"/>
<feColorMatrix type="matrix" values="0 0 0 0 0 0 0 0 0 0 0 0 0 0 0 0 0 0 0.35 0"/>
<feBlend mode="normal" in2="BackgroundImageFix" result="effect1_dropShadow_513_1863"/>
<feBlend mode="normal" in="SourceGraphic" in2="effect1_dropShadow_513_1863" result="shape"/>
</filter>
<clipPath id="paint1_diamond_513_1863_clip_path"><path d="M27.8548 12.2822L26.9112 15.1138L26.694 15.7659C26.5254 16.2718 26.4395 16.8015 26.4395 17.3347C26.4395 17.7404 26.3897 18.1445 26.2914 18.538L25.9677 19.8332L25.6372 21.8171C25.5432 22.3813 25.4959 22.9523 25.4959 23.5243C25.4959 24.2082 25.4284 24.8904 25.2943 25.561L25.0241 26.9123L24.7812 27.8844C24.6292 28.4925 24.5524 29.1171 24.5524 29.744C24.5524 30.3708 24.4755 30.9954 24.3235 31.6035L24.0806 32.5756L23.8519 33.2618C23.6909 33.745 23.6088 34.2511 23.6088 34.7604V35.3516C23.6088 35.6985 23.5281 36.0407 23.3729 36.3511C23.2178 36.6615 23.1371 37.0037 23.1371 37.3506V38.7108C23.1371 39.6524 23.0441 40.5916 22.8595 41.5149L22.6653 42.4863L22.5665 42.7828C22.3194 43.5242 22.1935 44.3005 22.1935 45.082V45.5156C22.1935 46.0099 22.1139 46.5009 21.9576 46.9697C21.8014 47.4386 21.7217 47.9296 21.7217 48.4238V49.0934V50.5093V51.3975C21.7217 51.7444 21.641 52.0867 21.4858 52.397C21.3307 52.7074 21.25 53.0496 21.25 53.3966V54.2848V56.1725V56.6154C21.25 57.2616 21.1707 57.9053 21.0141 58.5322L20.8769 59.0811C20.8113 59.3434 20.7782 59.6128 20.7782 59.8833C20.7782 60.2388 20.7209 60.5919 20.6085 60.9292L20.5423 61.1279C20.3861 61.5968 20.3064 62.0878 20.3064 62.582V63.7236V64.8651C20.3064 65.3594 20.2268 65.8503 20.0705 66.3192C19.9143 66.7881 19.8346 67.2791 19.8346 67.7733V67.971V68.1687C19.8346 68.6629 19.755 69.1539 19.5988 69.6228C19.4425 70.0917 19.3629 70.5827 19.3629 71.0769V71.7465V74.1062V75.522V76.6636C19.3629 77.1578 19.2832 77.6488 19.127 78.1177C18.9707 78.5866 18.8911 79.0776 18.8911 79.5718V79.8102C18.8911 80.0973 18.8707 80.3841 18.8301 80.6683L18.4947 83.0173C18.4445 83.3684 18.3629 83.7142 18.2508 84.0507L18.2459 84.0653C18.0483 84.6584 17.9475 85.2795 17.9475 85.9047V86.7929C17.9475 87.1399 17.8668 87.4821 17.7117 87.7924C17.5565 88.1028 17.4758 88.445 17.4758 88.792V90.4707C17.4758 90.8819 17.3801 91.2875 17.1962 91.6554L17.188 91.6717C17.0661 91.9156 16.9843 92.1775 16.9458 92.4474L16.6656 94.4094C16.5952 94.9024 16.9778 95.3435 17.4758 95.3435H18.4193C19.0398 95.3435 19.6518 95.199 20.2067 94.9214L20.3064 94.8715L20.9516 94.5488C21.1492 94.45 21.3296 94.3199 21.4858 94.1636C21.6421 94.0073 21.8225 93.8773 22.0201 93.7784L22.1935 93.6917C22.506 93.5354 22.7912 93.3297 23.0382 93.0826L24.0806 92.0399L25.0241 91.096L26.4395 89.6802L27.383 88.7363L27.7992 88.32C28.146 87.9731 28.5688 87.7117 29.0342 87.5565L29.0525 87.5504C29.5058 87.3992 29.9178 87.1445 30.2556 86.8066C30.8329 86.2291 31.6159 85.9047 32.4324 85.9047H32.6119C32.8991 85.9047 33.1852 85.8695 33.4638 85.7998L33.6669 85.749C34.4971 85.5414 35.3657 85.5414 36.1958 85.749L36.5047 85.8262C36.7131 85.8783 36.9271 85.9047 37.1419 85.9047C37.5497 85.9047 37.9519 85.9997 38.3167 86.1821L38.4448 86.2462C38.6183 86.333 38.7836 86.4352 38.9388 86.5516L40.2912 87.5663C40.4918 87.7168 40.7055 87.8489 40.9297 87.961C41.3314 88.1619 41.6981 88.4263 42.0157 88.744L42.4798 89.2083C43.1073 89.836 43.6712 90.5241 44.1634 91.2627L44.3668 91.568L44.8386 92.5118L45.7822 93.9277C46.4034 94.8599 47.224 95.6425 48.1845 96.2191L49.0846 96.7593L50.2604 97.6415C50.5534 97.8613 50.9717 97.6522 50.9717 97.2859C50.9717 97.2496 50.9672 97.2134 50.9584 97.1782L50.7358 96.2873C50.5791 95.6605 50.4999 95.0167 50.4999 94.3706V92.5118V91.125C50.4999 90.4789 50.4207 89.8352 50.264 89.2083C50.1073 88.5814 50.0281 87.9376 50.0281 87.2915V86.3766V85.4618C50.0281 84.8156 49.9489 84.1719 49.7922 83.545C49.6356 82.9181 49.5564 82.2744 49.5564 81.6282V81.1853V79.7695V78.8256V77.9108C49.5564 77.2646 49.4771 76.6209 49.3205 75.994C49.1638 75.3671 49.0846 74.7234 49.0846 74.0772V73.6343V71.7465C49.0846 70.8062 48.9693 69.8694 48.7413 68.9571L48.6128 68.4429L48.3955 67.7909C48.227 67.285 48.141 66.7553 48.141 66.222C48.141 65.8164 48.0913 65.4123 47.993 65.0188L47.8409 64.4103C47.7269 63.9542 47.6693 63.4858 47.6693 63.0156C47.6693 62.5455 47.6116 62.0771 47.4976 61.621L47.1975 60.42L46.7257 59.0042L46.2539 57.1164L45.8998 55.6994C45.8217 55.3868 45.7822 55.0657 45.7822 54.7434V54.5331C45.7822 54.0594 45.6719 53.5923 45.4601 53.1686C45.3606 52.9694 45.2832 52.76 45.2292 52.544L45.0361 51.7712C44.9049 51.2465 44.8386 50.7077 44.8386 50.1669C44.8386 49.4559 44.724 48.7496 44.4993 48.0751L44.3668 47.6776L44.1951 47.1623C43.9955 46.5632 43.8502 45.9473 43.7609 45.3221L43.5597 43.9133C43.4699 43.2846 43.2405 42.6839 42.8883 42.1555C42.618 41.7498 42.4193 41.3007 42.3011 40.8277L42.008 39.6547L41.7425 38.5922C41.606 38.0461 41.3766 37.5275 41.0644 37.059C40.7522 36.5906 40.5229 36.0719 40.3864 35.5258L40.1209 34.4633L39.6491 31.6317L39.1773 29.744L38.9614 28.8799C38.7914 28.1995 38.5474 27.5397 38.2338 26.9123L37.2902 24.5526L36.8185 22.6649L36.5317 21.2307C36.4087 20.6152 36.3467 19.989 36.3467 19.3613C36.3467 18.7336 36.2847 18.1074 36.1617 17.4919L36.1108 17.2376C35.9539 16.4529 35.8749 15.6547 35.8749 14.8545V14.17V12.7541C35.8749 11.8138 35.7596 10.877 35.5317 9.96476L35.4032 9.45058L35.2597 8.87667C35.0485 8.03126 34.5297 7.29492 33.8047 6.81143C33.6127 6.68342 33.4339 6.53676 33.2708 6.37359L32.7552 5.85785C32.6342 5.73679 32.4945 5.63602 32.3414 5.55945C31.8929 5.33515 31.365 5.33515 30.9166 5.55945L30.6854 5.67506L30.5198 5.7579C30.0148 6.01047 29.6054 6.42001 29.353 6.92504C29.2978 7.03546 29.2505 7.14966 29.2115 7.26677L28.7983 8.5067L28.3266 10.3945L27.8548 12.2822Z"/></clipPath><radialGradient id="paint0_radial_513_1863" cx="0" cy="0" r="1" gradientUnits="userSpaceOnUse" gradientTransform="translate(34.4421 111.173) rotate(90) scale(30.9315 20.8738)">
<stop offset="0.56179" stop-color="white"/>
<stop offset="1" stop-color="#CAC9C2"/>
</radialGradient>
<linearGradient id="paint1_diamond_513_1863" x1="0" y1="0" x2="500" y2="500" gradientUnits="userSpaceOnUse">
<stop stop-color="#F9E7C9"/>
<stop offset="1" stop-color="#E7BA8B"/>
</linearGradient>
<radialGradient id="paint2_radial_513_1863" cx="0" cy="0" r="1" gradientUnits="userSpaceOnUse" gradientTransform="translate(31.9913 178.446) rotate(-90) scale(19.8214 22.1669)">
<stop offset="0.56179" stop-color="white"/>
<stop offset="1" stop-color="#CAC9C2"/>
</radialGradient>
</defs>
</svg>
