<svg width="63" height="215" viewBox="0 0 63 215" fill="none" xmlns="http://www.w3.org/2000/svg">
<g filter="url(#filter0_d_513_1879)">
<path d="M10.6369 116.045C10.6369 111.515 12.5239 97.1678 13.4673 90.5607L17.7132 77.3464L21.4871 72.627L34.6959 63.6602L43.1872 78.7622C43.8161 83.3243 45.357 94.8081 46.4892 104.247C47.6214 113.686 43.187 116.675 40.8283 116.989C30.7645 118.562 10.6369 120.576 10.6369 116.045Z" fill="url(#paint0_radial_513_1879)"/>
<path d="M40.3571 10.8051C38.0927 20.2438 41.3005 60.988 43.1875 79.7082C38.9418 74.5169 31.7714 68.8536 27.6201 72.6291C23.4687 76.4046 18.9715 78.2924 17.2418 78.7643C18.1852 61.3026 23.8461 54.2235 23.8461 42.897C23.2171 34.7167 23.9405 16.4683 31.8657 8.91731C39.791 1.36628 40.8288 7.02955 40.3571 10.8051Z" fill="url(#paint1_diamond_513_1879)"/>
<path d="M52.5979 168.166C52.2206 180.625 41.1214 193.494 35.619 198.37C30.714 201.013 27.2868 199.472 26.1863 198.37C18.8399 192.022 16.3698 179.044 15.8989 171.345C15.7904 169.572 16.2466 167.802 17.356 166.414C21.0034 161.85 28.4818 156.154 38.4488 158.727C50.1454 161.748 52.7551 166.278 52.5979 168.166Z" fill="#585858"/>
<path d="M52.0997 168.125C52.0989 168.134 52.0984 168.142 52.0982 168.151C51.9135 174.248 49.0994 180.488 45.6115 185.839C42.1468 191.154 38.0519 195.538 35.331 197.957C30.6288 200.468 27.4657 198.943 26.5399 198.017C26.5313 198.008 26.5224 198 26.5132 197.992C22.9399 194.904 20.5226 190.173 18.9407 185.212C17.3613 180.26 16.6315 175.133 16.398 171.315C16.2957 169.644 16.7268 168.002 17.7465 166.726C21.3336 162.238 28.6286 156.708 38.3238 159.212C44.1276 160.71 47.6286 162.572 49.6484 164.256C51.6855 165.954 52.1588 167.414 52.0997 168.125Z" stroke="black" stroke-opacity="0.18" stroke-linecap="round" stroke-linejoin="round"/>
<path d="M52.5984 168.166C52.2211 180.625 41.1219 193.494 35.6195 198.37C30.7145 201.013 27.2872 199.472 26.1867 198.37C18.8404 192.022 16.3703 179.044 15.8994 171.345C15.7909 169.572 16.2077 167.764 17.3932 166.44C20.1535 163.359 25.0141 161.215 35.7893 161.416C38.1834 161.461 40.5734 161.81 42.8772 162.462C50.1213 164.514 52.7356 166.52 52.5984 168.166Z" fill="url(#paint2_radial_513_1879)"/>
<path d="M52.1001 168.125C52.0994 168.134 52.0989 168.142 52.0986 168.151C51.914 174.248 49.0999 180.488 45.612 185.839C42.1472 191.154 38.0524 195.538 35.3314 197.957C30.6293 200.468 27.4661 198.943 26.5404 198.017C26.5318 198.008 26.5229 198 26.5137 197.992C22.9403 194.904 20.5231 190.173 18.9411 185.212C17.3618 180.26 16.632 175.133 16.3984 171.315C16.2954 169.631 16.695 167.969 17.7656 166.774C20.381 163.854 25.0583 161.716 35.78 161.916C38.1319 161.96 40.4792 162.303 42.741 162.943C46.3458 163.964 48.7578 164.963 50.2408 165.89C51.7594 166.839 52.1433 167.606 52.1001 168.125Z" stroke="black" stroke-opacity="0.18" stroke-linecap="round" stroke-linejoin="round"/>
<path d="M44.5811 168.635C42.0657 166.747 34.3937 164.105 23.829 168.635" stroke="black" stroke-opacity="0.18" stroke-linecap="round" stroke-linejoin="round"/>
<path d="M52.0997 168.125C52.0989 168.134 52.0984 168.142 52.0982 168.151C51.9135 174.248 49.0994 180.488 45.6115 185.839C42.1468 191.154 38.0519 195.538 35.331 197.957C30.6288 200.468 27.4657 198.943 26.5399 198.017C26.5313 198.008 26.5224 198 26.5132 197.992C22.9399 194.904 20.5226 190.173 18.9407 185.212C17.3613 180.26 16.6315 175.133 16.398 171.315C16.2957 169.644 16.7268 168.002 17.7465 166.726C21.3336 162.238 28.6286 156.708 38.3238 159.212C44.1276 160.71 47.6286 162.572 49.6484 164.256C51.6855 165.954 52.1588 167.414 52.0997 168.125Z" stroke="black" stroke-opacity="0.18" stroke-linecap="round" stroke-linejoin="round"/>
</g>
<defs>
<filter id="filter0_d_513_1879" x="0.636719" y="0.195312" width="61.9678" height="214.634" filterUnits="userSpaceOnUse" color-interpolation-filters="sRGB">
<feFlood flood-opacity="0" result="BackgroundImageFix"/>
<feColorMatrix in="SourceAlpha" type="matrix" values="0 0 0 0 0 0 0 0 0 0 0 0 0 0 0 0 0 0 127 0" result="hardAlpha"/>
<feOffset dy="5"/>
<feGaussianBlur stdDeviation="5"/>
<feComposite in2="hardAlpha" operator="out"/>
<feColorMatrix type="matrix" values="0 0 0 0 0 0 0 0 0 0 0 0 0 0 0 0 0 0 0.35 0"/>
<feBlend mode="normal" in2="BackgroundImageFix" result="effect1_dropShadow_513_1879"/>
<feBlend mode="normal" in="SourceGraphic" in2="effect1_dropShadow_513_1879" result="shape"/>
</filter>
<radialGradient id="paint0_radial_513_1879" cx="0" cy="0" r="1" gradientUnits="userSpaceOnUse" gradientTransform="translate(28.6539 91.2417) rotate(90) scale(27.5815 18.017)">
<stop offset="0.56179" stop-color="white"/>
<stop offset="1" stop-color="#CAC9C2"/>
</radialGradient>
<radialGradient id="paint1_diamond_513_1879" cx="0" cy="0" r="1" gradientUnits="userSpaceOnUse" gradientTransform="translate(30.2146 42.4518) rotate(90) scale(37.2565 12.9729)">
<stop stop-color="#F9E7C9"/>
<stop offset="1" stop-color="#E7BA8B"/>
</radialGradient>
<radialGradient id="paint2_radial_513_1879" cx="0" cy="0" r="1" gradientUnits="userSpaceOnUse" gradientTransform="translate(34.2071 180.616) rotate(-90) scale(19.2133 18.3964)">
<stop offset="0.56179" stop-color="white"/>
<stop offset="1" stop-color="#CAC9C2"/>
</radialGradient>
</defs>
</svg>
