<svg width="70" height="205" viewBox="0 0 70 205" fill="none" xmlns="http://www.w3.org/2000/svg">
<g filter="url(#filter0_d_513_2349)">
<path d="M57.2959 143.705C58.8056 135.399 57.6104 120.422 56.8241 113.973L39.3683 97.4547C32.9206 97.2974 17.5721 96.794 13.4204 111.141C9.92067 123.235 12.0978 146.463 13.9041 160.245C14.4779 164.623 15.6981 168.893 17.6097 172.873C20.5679 179.033 24.4228 186.215 26.6302 187.595C30.4045 189.955 32.2916 189.483 33.2351 187.595C33.99 186.085 33.5497 181.617 33.2351 179.572C31.348 172.965 27.9512 157.957 29.4609 150.784C31.348 141.817 34.1787 141.817 35.1223 142.289C36.0658 142.761 37.4812 145.121 39.3683 150.784C41.2554 156.447 40.3118 165.414 39.3683 170.605C38.6134 174.758 38.7392 177.684 38.8965 178.628C40.3118 180.359 43.8973 182.781 46.9167 178.628C50.691 173.437 55.4087 154.087 57.2959 143.705Z" fill="url(#paint0_diamond_513_2349)"/>
<path d="M58.9575 98.4856C59.2635 108.478 58.4387 113.983 57.5273 116.659C57.0767 117.981 55.5984 117.967 54.2339 117.666C52.7104 117.33 50.7959 117.413 49.058 117.672C46.3335 118.078 44.0855 119.795 41.73 121.223C38.1645 123.385 33.5339 124.569 28.9896 122.471C24.7663 118.527 19.5802 118.717 15.9777 119.785C14.2841 120.288 12.2907 119.673 11.7409 117.994C10.1185 113.04 10.1185 108.13 10.1185 100.289C10.1185 92.7385 15.7798 86.7606 18.6105 84.7155C21.1266 83.457 27.1969 81.8839 31.3485 85.6594C35.5002 89.4349 40.3123 88.1764 42.1995 87.0752C47.6691 83.6881 52.4048 85.9498 55.5383 89.0211C58.0199 91.4535 58.8511 95.0123 58.9575 98.4856Z" fill="url(#paint1_radial_513_2349)"/>
<path d="M59.8648 25.8679C61.6353 10.6954 45.5933 3.26119 36.5435 6.8737C35.6687 7.2229 34.7211 7.40128 33.7877 7.27552C26.863 6.34259 21.8789 8.08583 18.545 10.38C14.9521 12.8523 13.2778 17.1491 12.3868 21.4185C10.8171 28.9397 9.75642 39.2198 12.5866 45.7315C16.3608 54.4151 24.5382 54.0691 28.1551 52.8106C29.8849 52.3386 33.722 51.5835 35.2317 52.3386C36.7414 53.0937 40.5784 52.9679 42.3083 52.8106C51.1388 50.8475 56.462 45.2564 58.2004 40.1572C59.6968 35.7676 59.3272 30.4743 59.8648 25.8679Z" fill="url(#paint2_radial_513_2349)"/>
<path d="M27.9908 52.3383C28.0016 52.3346 28.0125 52.3312 28.0235 52.3282C28.9076 52.087 30.3251 51.7744 31.7201 51.6176C32.4176 51.5392 33.1211 51.4983 33.7557 51.528C34.3801 51.5572 34.9854 51.6564 35.4554 51.8914C35.7637 52.0457 36.2264 52.1697 36.8069 52.2588C37.3795 52.3467 38.0333 52.3957 38.7033 52.417C40.0267 52.459 41.3803 52.3915 42.2311 52.3155C50.8878 50.3807 56.052 44.9097 57.7271 39.9959C58.4534 37.8655 58.7321 35.4987 58.8933 33.0609C58.947 32.2474 58.9878 31.4213 59.0286 30.5948C59.1087 28.9712 59.1889 27.3457 59.3682 25.81C60.2287 18.4359 56.7711 12.9562 51.9831 9.74155C47.1683 6.50894 41.0683 5.60583 36.7288 7.33807C35.7961 7.71038 34.7605 7.9111 33.7209 7.77104C26.9199 6.85478 22.0606 8.56778 18.8285 10.7919C15.3995 13.1514 13.7602 17.2851 12.8763 21.5206C12.0955 25.2615 11.4432 29.6806 11.3366 33.966C11.2297 38.2606 11.6724 42.3737 13.0452 45.5322C14.8707 49.7323 17.7377 51.7163 20.5662 52.5183C23.419 53.3272 26.2615 52.94 27.9908 52.3383Z" stroke="black" stroke-opacity="0.18" stroke-linecap="round" stroke-linejoin="round"/>
</g>
<defs>
<filter id="filter0_d_513_2349" x="0.118164" y="0.972656" width="69.8818" height="203.22" filterUnits="userSpaceOnUse" color-interpolation-filters="sRGB">
<feFlood flood-opacity="0" result="BackgroundImageFix"/>
<feColorMatrix in="SourceAlpha" type="matrix" values="0 0 0 0 0 0 0 0 0 0 0 0 0 0 0 0 0 0 127 0" result="hardAlpha"/>
<feOffset dy="5"/>
<feGaussianBlur stdDeviation="5"/>
<feComposite in2="hardAlpha" operator="out"/>
<feColorMatrix type="matrix" values="0 0 0 0 0 0 0 0 0 0 0 0 0 0 0 0 0 0 0.35 0"/>
<feBlend mode="normal" in2="BackgroundImageFix" result="effect1_dropShadow_513_2349"/>
<feBlend mode="normal" in="SourceGraphic" in2="effect1_dropShadow_513_2349" result="shape"/>
</filter>
<radialGradient id="paint0_diamond_513_2349" cx="0" cy="0" r="1" gradientUnits="userSpaceOnUse" gradientTransform="translate(34.7889 143.301) rotate(90) scale(45.8918 23.2316)">
<stop stop-color="#F9E7C9"/>
<stop offset="1" stop-color="#E7BA8B"/>
</radialGradient>
<radialGradient id="paint1_radial_513_2349" cx="0" cy="0" r="1" gradientUnits="userSpaceOnUse" gradientTransform="translate(34.5705 103.43) rotate(90) scale(20.138 24.452)">
<stop offset="0.56179" stop-color="white"/>
<stop offset="1" stop-color="#CAC9C2"/>
</radialGradient>
<radialGradient id="paint2_radial_513_2349" cx="0" cy="0" r="1" gradientUnits="userSpaceOnUse" gradientTransform="translate(35.4107 29.7252) rotate(90) scale(23.7526 24.5893)">
<stop offset="0.56179" stop-color="white"/>
<stop offset="1" stop-color="#CAC9C2"/>
</radialGradient>
</defs>
</svg>
