<svg width="76" height="227" viewBox="0 0 76 227" fill="none" xmlns="http://www.w3.org/2000/svg">
<g filter="url(#filter0_d_513_1899)">
<path d="M33.8993 11.1313C36.1583 15.1987 41.446 23.594 45.2047 27.6138C45.5227 27.954 45.771 28.3511 45.9182 28.7929L47.9332 34.8396C48.013 35.079 48.0622 35.3275 48.0798 35.5793L49.3338 53.5587C49.4159 54.7363 48.7999 55.8525 47.7598 56.4108L33.0947 64.2821C31.5134 65.1309 29.5456 64.4106 28.886 62.7415L22.5105 46.6106C22.2483 45.9472 22.2329 45.2148 22.4488 44.5349C24.397 38.4002 26.5088 28.461 29.1813 26.2333C30.0511 25.5082 29.4958 18.2104 29.1813 12.5471C29.1813 7.35577 31.8024 7.35575 33.8993 11.1313Z" fill="url(#paint0_linear_513_1899)"/>
<path d="M55.1314 38.0371C56.9157 44.7302 56.7169 69.0488 55.2586 81.8129C55.1801 82.5003 54.8575 83.1316 54.356 83.6081L46.5131 91.061C45.986 91.562 45.2949 91.8546 44.5682 91.883C32.6394 92.3497 11.1006 92.9353 12.1974 91.8381C13.3297 90.7055 12.6692 73.7471 12.1974 65.4095C10.782 53.2964 9.93277 26.0498 17.859 13.9682C27.7669 -1.13384 17.3872 34.7335 25.8797 50.3075C34.3721 65.8815 33.9003 58.3305 38.6183 50.7794C42.3927 44.7386 41.7637 21.9912 40.9774 10.1927C40.3649 1.00375 49.2378 7.56368 49.4698 12.5524C49.7843 19.3168 53.2442 30.958 55.1314 38.0371Z" fill="url(#paint1_diamond_513_1899)"/>
<path d="M54.1859 111.654C49.5564 111.324 42.1748 117.247 37.8786 121.365C36.8546 122.346 35.3689 122.848 34.1097 122.196C28.5427 119.309 29.367 111.745 28.2368 109.767L17.8571 105.047L26.8214 95.6084L53.2423 102.687C55.7585 105.834 59.47 112.032 54.1859 111.654Z" fill="#A9A9A9"/>
<path d="M59.8481 110.247C61.7353 89.8592 58.9045 83.8184 57.4891 82.4026L56.3578 80.8183C55.6909 79.8844 54.3374 79.6745 53.2433 80.0208C50.0914 81.0182 44.8572 81.0201 41.4479 80.5148C37.5162 78.9417 28.8979 76.7393 25.8784 80.5148C22.104 85.2342 13.6115 84.7623 12.1961 86.1781C11.0638 87.3108 10.4662 96.0888 10.3089 100.336C9.52852 101.898 13.5888 123.15 21.1554 127.251C24.2675 128.938 27.2084 125.548 29.1223 122.57C33.8867 115.158 37.6673 112.36 39.1382 111.895C39.3768 115.787 40.4212 118.048 40.976 118.742C42.706 120.158 46.5433 122.612 48.0531 121.102C49.5628 119.591 51.513 120.158 52.2993 120.63C57.9609 124.405 59.6909 115.281 59.8481 110.247Z" fill="url(#paint2_radial_513_1899)"/>
<path d="M65.7977 190.107V171.23C65.4833 168.713 63.3452 162.923 57.3082 159.903C49.762 156.128 36.5562 156.128 33.7264 156.599C30.8966 157.071 26.1802 157.071 20.0489 168.398C15.1439 177.459 15.1754 189.478 15.8042 194.355C19.5773 209.457 27.7523 211.659 31.3682 210.872C32.1543 210.715 34.764 210.117 38.9144 208.985C44.1024 207.569 47.4039 208.513 49.762 208.985C51.6486 209.362 54.3212 208.827 55.4217 208.513C64.0998 205.492 65.9549 194.984 65.7977 190.107Z" fill="url(#paint3_radial_513_1899)"/>
<path d="M50.7053 177.365C52.5081 177.816 57.7562 179.991 60.6179 185.948M40.1827 183.903C41.4023 185.808 43.5474 192.996 42.6875 203.321M47.0783 165.002C46.8687 164.822 46.8446 164.507 47.0243 164.297C47.2041 164.087 47.5198 164.063 47.7294 164.243C48.3779 164.799 49.2408 166.1 49.9419 168.217C50.6263 170.283 51.1697 173.164 51.2036 176.984C53.2662 177.608 57.8774 179.768 60.6973 185.002C60.8208 182.636 60.3593 180.785 60.1246 179.846C60.0577 179.578 60.2206 179.306 60.4885 179.239C60.7564 179.172 61.0278 179.335 61.0948 179.603L61.0957 179.607C61.3921 180.793 62.0677 183.498 61.4938 186.887C61.1414 188.968 60.3194 191.301 58.6627 193.695C58.5056 193.922 58.1941 193.979 57.967 193.822C57.7399 193.665 57.6832 193.353 57.8403 193.126C59.3708 190.914 60.1406 188.772 60.4831 186.862C57.9255 180.859 52.8873 178.525 50.8705 177.928C48.0819 180.981 45.7161 181.832 43.0373 182.796C42.2722 183.072 41.4814 183.356 40.648 183.704C40.6897 183.772 40.7308 183.843 40.7714 183.916C40.9622 184.261 41.1625 184.7 41.3635 185.223C41.7659 186.272 42.1808 187.686 42.5292 189.419C43.2262 192.886 43.6613 197.652 43.1858 203.363C43.1628 203.638 42.9212 203.843 42.646 203.82C42.3708 203.797 42.1663 203.555 42.1892 203.28C42.6569 197.664 42.2274 192.992 41.5488 189.616C41.2093 187.927 40.8087 186.568 40.4299 185.582C40.2404 185.088 40.0588 184.694 39.8965 184.4C39.7905 184.209 39.701 184.076 39.6321 183.989C36.5047 183.809 34.9148 183.151 33.7783 182.239C33.2896 181.847 32.8937 181.413 32.516 180.999C32.4594 180.937 32.4032 180.876 32.3471 180.815C32.1306 180.58 31.911 180.347 31.6689 180.12C31.6012 180.841 31.3237 181.384 30.8203 181.775C30.476 182.042 30.061 182.208 29.6292 182.327C29.1976 182.447 28.7138 182.529 28.2187 182.609C28.1659 182.618 28.1127 182.626 28.0593 182.635C26.1272 182.946 23.803 183.321 21.8248 185.585C21.7718 186.421 21.6454 187.341 21.4854 188.302C21.44 188.574 21.1824 188.758 20.9101 188.713C20.6377 188.667 20.4536 188.41 20.499 188.137C20.6677 187.124 20.7932 186.187 20.836 185.362C20.8742 184.626 20.8451 184.002 20.7336 183.503C20.6222 183.005 20.4376 182.672 20.195 182.464C19.9854 182.284 19.9613 181.968 20.141 181.759C20.3208 181.549 20.6365 181.525 20.8461 181.705C21.3077 182.101 21.5698 182.661 21.7094 183.285C21.77 183.556 21.8092 183.846 21.8309 184.151C23.8722 182.295 26.145 181.93 27.8636 181.654C27.9295 181.643 27.9946 181.633 28.0588 181.622C28.5591 181.541 28.9911 181.466 29.3624 181.364C29.7335 181.261 30.0083 181.139 30.2072 180.985C30.5274 180.736 30.7663 180.31 30.6614 179.32C29.4826 178.541 27.6468 177.816 24.2316 177.389C23.9576 177.355 23.7633 177.105 23.7975 176.831C23.8318 176.557 24.0817 176.362 24.3557 176.397C28.0446 176.858 30.0659 177.673 31.4172 178.625C32.1264 179.124 32.6332 179.649 33.083 180.138C33.1428 180.203 33.2012 180.267 33.2587 180.329C33.6398 180.746 33.9802 181.119 34.4042 181.459C35.3317 182.203 36.7098 182.828 39.7646 182.994C40.8833 182.502 41.8878 182.14 42.8258 181.803C45.457 180.855 47.5652 180.095 50.2049 177.174C50.1876 173.352 49.6504 170.518 48.9926 168.532C48.3181 166.495 47.5303 165.39 47.0783 165.002ZM65.298 190.123L65.2977 190.107V171.261C64.9845 168.846 62.9093 163.264 57.0845 160.35C53.3967 158.505 48.2843 157.568 43.704 157.156C39.1224 156.745 35.1622 156.867 33.8086 157.093C33.6225 157.124 33.4308 157.153 33.2336 157.182C31.8998 157.383 30.3081 157.622 28.3957 158.849C26.1928 160.262 23.5312 163.015 20.4886 168.636C15.6649 177.547 15.6773 189.414 16.2964 194.262C20.0336 209.182 28.0076 211.092 31.2619 210.384L31.2619 210.384L31.2701 210.382C32.0402 210.228 34.6376 209.634 38.7828 208.502C43.6213 207.182 46.881 207.869 49.2011 208.358C49.4297 208.406 49.6492 208.452 49.8602 208.494C50.7271 208.668 51.8057 208.635 52.8267 208.512C53.8324 208.39 54.7428 208.186 55.2707 208.036C59.4267 206.584 61.9703 203.339 63.4624 199.811C64.9585 196.275 65.3746 192.502 65.298 190.123Z" stroke="black" stroke-opacity="0.18" stroke-linecap="round" stroke-linejoin="round"/>
</g>
<defs>
<filter id="filter0_d_513_1899" x="0.213867" y="0.583008" width="75.5928" height="225.427" filterUnits="userSpaceOnUse" color-interpolation-filters="sRGB">
<feFlood flood-opacity="0" result="BackgroundImageFix"/>
<feColorMatrix in="SourceAlpha" type="matrix" values="0 0 0 0 0 0 0 0 0 0 0 0 0 0 0 0 0 0 127 0" result="hardAlpha"/>
<feOffset dy="5"/>
<feGaussianBlur stdDeviation="5"/>
<feComposite in2="hardAlpha" operator="out"/>
<feColorMatrix type="matrix" values="0 0 0 0 0 0 0 0 0 0 0 0 0 0 0 0 0 0 0.35 0"/>
<feBlend mode="normal" in2="BackgroundImageFix" result="effect1_dropShadow_513_1899"/>
<feBlend mode="normal" in="SourceGraphic" in2="effect1_dropShadow_513_1899" result="shape"/>
</filter>
<linearGradient id="paint0_linear_513_1899" x1="35.7865" y1="8.45557" x2="35.7865" y2="65.8762" gradientUnits="userSpaceOnUse">
<stop stop-color="#CC8559"/>
<stop offset="1" stop-color="#EBB98F"/>
</linearGradient>
<radialGradient id="paint1_diamond_513_1899" cx="0" cy="0" r="1" gradientUnits="userSpaceOnUse" gradientTransform="translate(33.8412 49.0233) rotate(90) scale(43.4403 22.5699)">
<stop stop-color="#F9E7C9"/>
<stop offset="1" stop-color="#E7BA8B"/>
</radialGradient>
<radialGradient id="paint2_radial_513_1899" cx="0" cy="0" r="1" gradientUnits="userSpaceOnUse" gradientTransform="translate(35.3452 103.182) rotate(90) scale(24.7516 25.1314)">
<stop offset="0.56179" stop-color="white"/>
<stop offset="1" stop-color="#CAC9C2"/>
</radialGradient>
<radialGradient id="paint3_radial_513_1899" cx="0" cy="0" r="1" gradientUnits="userSpaceOnUse" gradientTransform="translate(40.6587 183.698) rotate(90) scale(27.3126 25.1479)">
<stop offset="0.56179" stop-color="white"/>
<stop offset="1" stop-color="#CAC9C2"/>
</radialGradient>
</defs>
</svg>
