<svg width="55" height="232" viewBox="0 0 55 232" fill="none" xmlns="http://www.w3.org/2000/svg">
<g filter="url(#filter0_d_513_2324)">
<path d="M35.1316 131.82C32.4583 128.989 26.9228 122.854 26.168 120.966C22.2365 105.549 12.864 85.1925 10.5994 127.101C8.33493 169.009 18.4623 201.195 23.3373 212.05C26.168 215.511 31.8292 220.356 31.8292 212.05V187.509C32.9615 164.479 35.1316 141.731 36.0752 133.236L35.1316 131.82Z" fill="url(#paint0_diamond_513_2324)"/>
<path d="M38.0458 122.261C38.0458 127.525 36.8643 131.661 36.2736 133.071C34.0583 134.481 31.3999 137.771 28.7416 140.59C26.6149 142.846 22.2434 141.217 20.3235 140.12C11.8167 135.233 9.98543 131.504 10.1331 130.251V101.112C10.1331 96.8826 11.0192 95.4727 13.2345 95.4727C18.4035 95.4727 29.0074 95.5667 33.6152 95.9426C38.223 96.3186 39.375 100.172 39.375 102.052L38.0458 122.261Z" fill="url(#paint1_radial_513_2324)"/>
<path d="M35.9015 10.1931C43.975 21.6315 45.055 27.027 44.8535 29.9672C44.7338 31.7127 43.9508 33.3741 42.8998 34.7728C32.1552 49.0708 13.2023 34.294 12.7517 31.139C12.3743 28.4962 15.1106 22.4868 16.5259 19.8125C21.0664 9.33071 22.7626 5.83295 26.9745 5.29771C30.5514 4.84317 33.8224 7.24734 35.9015 10.1931Z" fill="#585858"/>
<path d="M16.9678 20.0464C16.9739 20.0349 16.9795 20.0232 16.9847 20.0112C19.2621 14.7538 20.8017 11.3091 22.288 9.10467C23.0256 8.01063 23.7333 7.24902 24.4873 6.72908C25.2356 6.21314 26.0533 5.91879 27.0375 5.79372C30.3451 5.3734 33.4591 7.59978 35.493 10.4814C43.5499 21.8964 44.5439 27.1711 44.3546 29.933C44.2436 31.5539 43.5127 33.1248 42.5001 34.4724C39.8882 37.9481 36.7999 39.6346 33.6335 40.1881C30.453 40.7442 27.1557 40.163 24.141 39.0326C21.1278 37.9028 18.4261 36.2351 16.4537 34.658C15.4675 33.8694 14.6724 33.1105 14.1151 32.4617C13.8363 32.137 13.623 31.8469 13.4757 31.6003C13.3239 31.3464 13.2612 31.1703 13.2467 31.0684C13.1656 30.5003 13.249 29.7016 13.4703 28.7429C13.6892 27.7951 14.0322 26.7349 14.4346 25.6634C15.2394 23.5203 16.2678 21.369 16.9678 20.0464Z" stroke="black" stroke-opacity="0.18" stroke-linecap="round" stroke-linejoin="round"/>
<path d="M35.9015 10.1907C42.8914 20.094 44.6391 25.4675 44.8515 28.6396C45.0257 31.2398 43.5938 33.7415 41.5106 35.3072C30.6023 43.5057 13.1834 34.1597 12.7517 31.1367C12.3743 28.4938 15.1106 22.4844 16.5259 19.8101C21.0664 9.32832 22.7626 5.83056 26.9745 5.29531C30.5514 4.84077 33.8224 7.24494 35.9015 10.1907Z" fill="url(#paint2_radial_513_2324)"/>
<path d="M16.9678 20.044C16.9739 20.0325 16.9795 20.0208 16.9847 20.0089C19.2621 14.7514 20.8017 11.3067 22.288 9.10228C23.0256 8.00824 23.7333 7.24662 24.4873 6.72669C25.2356 6.21075 26.0533 5.9164 27.0375 5.79132C30.3451 5.37101 33.4591 7.59738 35.493 10.479C42.4671 20.3599 44.1496 25.6405 44.3527 28.673C44.5131 31.0683 43.1901 33.4195 41.2102 34.9075C35.9393 38.869 29.0489 38.6203 23.3429 36.9501C20.4992 36.1178 17.9831 34.9409 16.1597 33.7934C15.2471 33.219 14.5199 32.6594 14.0142 32.1632C13.7613 31.9151 13.5719 31.6906 13.4429 31.4957C13.311 31.2965 13.2592 31.1539 13.2467 31.066C13.1656 30.4979 13.249 29.6992 13.4703 28.7405C13.6892 27.7927 14.0322 26.7326 14.4346 25.661C15.2394 23.5179 16.2678 21.3666 16.9678 20.044Z" stroke="black" stroke-opacity="0.18" stroke-linecap="round" stroke-linejoin="round"/>
<path d="M16.9678 20.0464C16.9739 20.0349 16.9795 20.0232 16.9847 20.0112C19.2621 14.7538 20.8017 11.3091 22.288 9.10467C23.0256 8.01063 23.7333 7.24902 24.4873 6.72908C25.2356 6.21314 26.0533 5.91879 27.0375 5.79372C30.3451 5.3734 33.4591 7.59978 35.493 10.4814C43.5499 21.8964 44.5439 27.1711 44.3546 29.933C44.2436 31.5539 43.5127 33.1248 42.5001 34.4724C39.8882 37.9481 36.7999 39.6346 33.6335 40.1881C30.453 40.7442 27.1557 40.163 24.141 39.0326C21.1278 37.9028 18.4261 36.2351 16.4537 34.658C15.4675 33.8694 14.6724 33.1105 14.1151 32.4617C13.8363 32.137 13.623 31.8469 13.4757 31.6003C13.3239 31.3464 13.2612 31.1703 13.2467 31.0684C13.1656 30.5003 13.249 29.7016 13.4703 28.7429C13.6892 27.7951 14.0322 26.7349 14.4346 25.6634C15.2394 23.5203 16.2678 21.369 16.9678 20.0464Z" stroke="black" stroke-opacity="0.18" stroke-linecap="round" stroke-linejoin="round"/>
</g>
<defs>
<filter id="filter0_d_513_2324" x="0.125" y="0.239868" width="54.75" height="231.396" filterUnits="userSpaceOnUse" color-interpolation-filters="sRGB">
<feFlood flood-opacity="0" result="BackgroundImageFix"/>
<feColorMatrix in="SourceAlpha" type="matrix" values="0 0 0 0 0 0 0 0 0 0 0 0 0 0 0 0 0 0 127 0" result="hardAlpha"/>
<feOffset dy="5"/>
<feGaussianBlur stdDeviation="5"/>
<feComposite in2="hardAlpha" operator="out"/>
<feColorMatrix type="matrix" values="0 0 0 0 0 0 0 0 0 0 0 0 0 0 0 0 0 0 0.35 0"/>
<feBlend mode="normal" in2="BackgroundImageFix" result="effect1_dropShadow_513_2324"/>
<feBlend mode="normal" in="SourceGraphic" in2="effect1_dropShadow_513_2324" result="shape"/>
</filter>
<radialGradient id="paint0_diamond_513_2324" cx="0" cy="0" r="1" gradientUnits="userSpaceOnUse" gradientTransform="translate(23.1747 159.428) rotate(90) scale(57.208 12.9005)">
<stop stop-color="#F9E7C9"/>
<stop offset="1" stop-color="#E7BA8B"/>
</radialGradient>
<radialGradient id="paint1_radial_513_2324" cx="0" cy="0" r="1" gradientUnits="userSpaceOnUse" gradientTransform="translate(24.75 118.598) rotate(90) scale(23.125 14.625)">
<stop offset="0.56179" stop-color="white"/>
<stop offset="1" stop-color="#CAC9C2"/>
</radialGradient>
<radialGradient id="paint2_radial_513_2324" cx="0" cy="0" r="1" gradientUnits="userSpaceOnUse" gradientTransform="translate(28.7957 21.9075) rotate(-90) scale(16.688 16.0793)">
<stop offset="0.56179" stop-color="white"/>
<stop offset="1" stop-color="#CAC9C2"/>
</radialGradient>
</defs>
</svg>
