<svg width="76" height="216" viewBox="0 0 76 216" fill="none" xmlns="http://www.w3.org/2000/svg">
<g filter="url(#filter0_d_513_1905)">
<ellipse cx="9.43534" cy="10.3827" rx="9.43534" ry="10.3827" transform="matrix(-1 0 0 1 47.8887 91.8594)" fill="#A9A9A9"/>
<path d="M63.9283 89.974C63.4566 84.3107 57.3231 71.8831 53.0772 64.0175L40.8112 61.6577C34.521 61.0284 20.4309 62.6959 14.3923 74.4C8.35366 86.1041 10.6181 98.9409 12.0334 103.66C13.7197 108.018 17.6947 115.931 27.6018 114.515C31.3759 113.571 37.5089 99.8847 42.2265 104.604C44.491 109.89 47.8878 110.582 49.3031 110.267C51.1901 110.739 53.549 107.954 53.549 105.548C53.549 102.716 54.6497 102.874 54.9642 101.772C66.7584 100.829 64.4001 92.8056 63.9283 89.974Z" fill="url(#paint0_radial_513_1905)"/>
<path d="M32.792 5.9707C34.2073 5.9707 34.6791 8.3304 34.6791 10.2182C34.2073 14.4656 35.6226 17.7692 36.0944 21.0727C36.5662 23.4324 36.8408 23.7331 37.5097 24.8483C38.925 27.208 45.058 32.3993 45.5297 32.8712C45.9072 33.2488 48.2031 53.4792 48.3604 56.4682L40.3403 64.4911L21.9414 52.2207C23.3567 49.3891 22.5075 31.1722 24.772 31.9273C27.0365 32.6824 27.6026 16.8253 29.9614 8.80234C30.1187 7.85846 30.905 5.9707 32.792 5.9707Z" fill="url(#paint1_linear_513_1905)"/>
<path d="M45.9586 69.2501C49.3923 68.3245 53.55 68.2647 56.3806 70.1525C59.0225 60.3362 59.3684 44.0385 58.2676 38.5326C56.3805 28.6219 57.7958 32.3974 50.7197 16.8233C45.0581 2.19313 40.8122 7.85631 40.8122 13.0477C39.8687 25.3181 46.9452 60.7136 37.982 56.9381C30.0563 53.1626 29.0184 38.0606 27.0879 30.5096C27.0879 24.8464 31.5656 4.6472 24.7721 8.80026C17.9787 12.9533 14.7081 27.5207 12.9783 34.2851C8.26065 46.0836 16.2807 65.905 13.9219 75.3438C15.8089 70.1525 23.3569 69.6805 26.1875 71.0964C31.377 73.4561 35.6229 75.3438 40.8123 72.5122C42.5966 71.5386 42.6997 70.6244 45.9586 69.2501Z" fill="url(#paint2_diamond_513_1905)"/>
<path d="M65.0408 172.093C66.55 153.593 53.7215 150.541 47.1186 151.328C43.1882 151.8 33.2524 153.121 24.9516 154.631C14.5756 156.519 15.5189 167.846 14.5756 180.116C13.6323 192.386 27.3098 203.241 32.0262 199.465C34.7277 197.303 40.8143 196.624 45.7847 196.529C49.1628 196.464 52.5544 196.138 55.8 195.199C65.7256 192.327 63.385 192.39 65.0408 172.093Z" fill="url(#paint3_radial_513_1905)"/>
<path d="M42.8738 191.914C46.3486 185.705 45.6118 178.715 41.453 174.585M40.9873 174.147C37.259 170.832 31.1008 169.66 22.9912 172.84M43.3101 192.159C43.1753 192.4 42.8706 192.486 42.6296 192.351C42.3887 192.216 42.3026 191.911 42.4375 191.67C45.9475 185.398 45.0111 178.394 40.655 174.521C37.0761 171.339 31.0559 170.15 22.953 173.393C22.7139 176.11 21.7829 177.859 21.0606 178.582C20.8654 178.777 20.5488 178.777 20.3535 178.582C20.1581 178.387 20.158 178.07 20.3532 177.875C20.8838 177.344 21.798 175.745 21.9794 173.012C22.0648 171.726 21.9871 170.194 21.6315 168.415C21.5774 168.145 21.753 167.881 22.0238 167.827C22.2946 167.773 22.558 167.949 22.6121 168.219C22.9158 169.739 23.028 171.098 23.0091 172.296C31.0175 169.215 37.2511 170.291 41.1429 173.619C43.1575 173.327 44.678 173.053 46.1117 172.383C47.522 171.723 48.8818 170.661 50.5209 168.741C48.8337 165.906 47.7836 162.976 47.2465 160.637C46.9683 159.426 46.8246 158.361 46.8052 157.54C46.7956 157.131 46.8163 156.766 46.8737 156.468C46.926 156.196 47.0269 155.876 47.2608 155.671C47.4686 155.489 47.7845 155.51 47.9664 155.718C48.1458 155.923 48.1279 156.233 47.9281 156.416C47.9286 156.415 47.929 156.415 47.9291 156.415C47.9307 156.416 47.891 156.473 47.8557 156.657C47.8166 156.86 47.7963 157.147 47.805 157.516C47.8223 158.251 47.9532 159.247 48.2211 160.413C48.7563 162.744 49.8262 165.7 51.5604 168.528C53.3486 171.444 55.8306 174.203 59.1418 176.012C59.3358 174.168 60.1876 172.846 60.9383 172.189C61.146 172.007 61.4619 172.028 61.6438 172.236C61.8257 172.443 61.8048 172.759 61.597 172.941C60.9586 173.5 60.0967 174.838 60.101 176.811C60.104 178.156 60.5094 179.816 61.6936 181.742C61.8382 181.977 61.7648 182.285 61.5296 182.43C61.2944 182.574 60.9864 182.501 60.8417 182.266C59.6579 180.341 59.1699 178.61 59.1079 177.125C55.6087 175.337 52.9801 172.567 51.0739 169.631C49.4613 171.476 48.0487 172.581 46.5354 173.288C45.163 173.93 43.7334 174.233 42.0624 174.493C46.1795 178.835 46.8014 185.92 43.3101 192.159ZM64.5424 172.052C65.2866 162.93 62.4962 157.724 58.8155 154.873C55.104 151.998 50.3899 151.442 47.1782 151.824C43.253 152.295 33.3281 153.615 25.0411 155.123C22.5423 155.578 20.7585 156.592 19.4551 158.021C18.1442 159.458 17.2885 161.349 16.7107 163.604C16.1326 165.86 15.8402 168.449 15.6343 171.259C15.5388 172.563 15.4623 173.909 15.3839 175.288L15.3659 175.604C15.2812 177.091 15.1925 178.615 15.0741 180.154C14.6173 186.096 17.7052 191.741 21.5267 195.449C23.4346 197.3 25.497 198.64 27.3429 199.289C29.2058 199.943 30.7325 199.861 31.7137 199.075C33.1663 197.912 35.468 197.185 37.965 196.73C40.4812 196.272 43.2743 196.077 45.7751 196.029C49.13 195.964 52.4735 195.641 55.661 194.719C58.1599 193.996 59.8067 193.477 60.9428 192.802C62.0309 192.154 62.6451 191.364 63.0426 190.037C63.454 188.663 63.6257 186.739 63.795 183.833C63.8332 183.176 63.8713 182.472 63.9122 181.715C64.051 179.147 64.2221 175.978 64.5424 172.052Z" stroke="black" stroke-opacity="0.18" stroke-linecap="round" stroke-linejoin="round"/>
</g>
<defs>
<filter id="filter0_d_513_1905" x="0.417969" y="0.970703" width="74.7451" height="214.257" filterUnits="userSpaceOnUse" color-interpolation-filters="sRGB">
<feFlood flood-opacity="0" result="BackgroundImageFix"/>
<feColorMatrix in="SourceAlpha" type="matrix" values="0 0 0 0 0 0 0 0 0 0 0 0 0 0 0 0 0 0 127 0" result="hardAlpha"/>
<feOffset dy="5"/>
<feGaussianBlur stdDeviation="5"/>
<feComposite in2="hardAlpha" operator="out"/>
<feColorMatrix type="matrix" values="0 0 0 0 0 0 0 0 0 0 0 0 0 0 0 0 0 0 0.35 0"/>
<feBlend mode="normal" in2="BackgroundImageFix" result="effect1_dropShadow_513_1905"/>
<feBlend mode="normal" in="SourceGraphic" in2="effect1_dropShadow_513_1905" result="shape"/>
</filter>
<radialGradient id="paint0_radial_513_1905" cx="0" cy="0" r="1" gradientUnits="userSpaceOnUse" gradientTransform="translate(37.4265 88.1128) rotate(90) scale(26.5693 27.009)">
<stop offset="0.56179" stop-color="white"/>
<stop offset="1" stop-color="#CAC9C2"/>
</radialGradient>
<linearGradient id="paint1_linear_513_1905" x1="35.1509" y1="5.9707" x2="35.1509" y2="64.4911" gradientUnits="userSpaceOnUse">
<stop stop-color="#CC8559"/>
<stop offset="1" stop-color="#EBB98F"/>
</linearGradient>
<radialGradient id="paint2_diamond_513_1905" cx="0" cy="0" r="1" gradientUnits="userSpaceOnUse" gradientTransform="translate(35.1591 41.4148) rotate(90) scale(33.929 23.6964)">
<stop stop-color="#F9E7C9"/>
<stop offset="1" stop-color="#E7BA8B"/>
</radialGradient>
<radialGradient id="paint3_radial_513_1905" cx="0" cy="0" r="1" gradientUnits="userSpaceOnUse" gradientTransform="translate(39.8461 175.722) rotate(90) scale(24.5052 25.317)">
<stop offset="0.56179" stop-color="white"/>
<stop offset="1" stop-color="#CAC9C2"/>
</radialGradient>
</defs>
</svg>
