<svg width="51" height="222" viewBox="0 0 51 222" fill="none" xmlns="http://www.w3.org/2000/svg">
<g filter="url(#filter0_d_513_2320)">
<g clip-path="url(#paint0_diamond_513_2320_clip_path)" data-figma-skip-parse="true"><g transform="matrix(0 0.0457781 0.0132477 0 26.3509 161.046)"><rect x="0" y="0" width="1021.84" height="1075.48" fill="url(#paint0_diamond_513_2320)" opacity="1" shape-rendering="crispEdges"/><rect x="0" y="0" width="1021.84" height="1075.48" transform="scale(1 -1)" fill="url(#paint0_diamond_513_2320)" opacity="1" shape-rendering="crispEdges"/><rect x="0" y="0" width="1021.84" height="1075.48" transform="scale(-1 1)" fill="url(#paint0_diamond_513_2320)" opacity="1" shape-rendering="crispEdges"/><rect x="0" y="0" width="1021.84" height="1075.48" transform="scale(-1)" fill="url(#paint0_diamond_513_2320)" opacity="1" shape-rendering="crispEdges"/></g></g><path d="M38.4164 133.202C39.9262 128.294 39.6746 124.235 39.36 122.819L39.0558 122.211C38.0383 120.175 36.2886 118.6 34.1578 117.8C31.3466 116.746 28.4127 116.053 25.4268 115.739L24.0628 115.595C22.0499 115.383 19.9681 115.787 18.5311 117.213C15.1209 120.595 11.4701 127.155 13.8826 136.506C17.657 151.136 17.657 168.597 18.1288 178.98C18.5062 187.286 20.8023 195.655 21.9032 198.802L22.375 200.689L22.8468 201.633L23.7904 203.521L24.2622 204.465L25.2059 205.881L25.6777 206.353L26.1495 206.824H26.6213H27.5649H28.0367L28.9803 206.353L29.4521 205.409L29.9239 204.465C32.2829 155.383 35.1137 153.023 35.5855 149.72C36.0573 146.416 36.5292 139.337 38.4164 133.202Z" data-figma-gradient-fill="{&#34;type&#34;:&#34;GRADIENT_DIAMOND&#34;,&#34;stops&#34;:[{&#34;color&#34;:{&#34;r&#34;:0.97647058963775635,&#34;g&#34;:0.90588235855102539,&#34;b&#34;:0.78823530673980713,&#34;a&#34;:1.0},&#34;position&#34;:0.0},{&#34;color&#34;:{&#34;r&#34;:0.90588235855102539,&#34;g&#34;:0.7294117808341980,&#34;b&#34;:0.54509806632995605,&#34;a&#34;:1.0},&#34;position&#34;:1.0}],&#34;stopsVar&#34;:[{&#34;color&#34;:{&#34;r&#34;:0.97647058963775635,&#34;g&#34;:0.90588235855102539,&#34;b&#34;:0.78823530673980713,&#34;a&#34;:1.0},&#34;position&#34;:0.0},{&#34;color&#34;:{&#34;r&#34;:0.90588235855102539,&#34;g&#34;:0.7294117808341980,&#34;b&#34;:0.54509806632995605,&#34;a&#34;:1.0},&#34;position&#34;:1.0}],&#34;transform&#34;:{&#34;m00&#34;:-1.6223766257430225e-15,&#34;m01&#34;:26.495420455932617,&#34;m02&#34;:13.103212356567383,&#34;m10&#34;:91.556167602539062,&#34;m11&#34;:5.6061985227186771e-15,&#34;m12&#34;:115.2683105468750},&#34;opacity&#34;:1.0,&#34;blendMode&#34;:&#34;NORMAL&#34;,&#34;visible&#34;:true}"/>
<path d="M37.7567 96.0448C41.9403 105.24 40.5889 121.719 39.358 128.953C34.6398 128.953 29.9221 134.616 27.5631 136.976C25.6759 138.864 22.6878 138.077 21.4297 137.448C19.5425 133.295 15.2962 129.739 13.409 128.481C10.7669 119.797 10.7354 107.873 11.05 102.996C11.05 95.4453 13.7235 93.2429 16.2398 93.0856L34.9888 94.0004C35.3812 94.0196 35.7652 94.1202 36.1166 94.2959C36.3887 94.432 36.637 94.6111 36.8521 94.8263L36.9993 94.9735C37.3116 95.286 37.5737 95.6427 37.7567 96.0448Z" fill="url(#paint1_radial_513_2320)"/>
<path d="M39.9453 32.8444C39.9453 36.9975 32.7114 38.665 29.0945 38.9796C23.6662 40.1864 17.6755 37.4558 13.9627 35.0255C12.4148 34.0123 11.5078 32.2794 11.5314 30.4295C11.6628 20.1194 17.2014 11.0781 21.0902 6.52367C21.9524 5.5139 23.2357 5.00003 24.5635 5.00003C25.9492 5.00003 27.2824 5.57438 28.2061 6.6073C40.3826 20.2238 39.9453 27.8464 39.9453 32.8444Z" fill="url(#paint2_radial_513_2320)"/>
<path d="M29.0512 38.4815C29.0293 38.4834 29.0075 38.4868 28.986 38.4915C23.7648 39.6522 17.9241 37.0209 14.2366 34.6072C12.8341 33.6892 12.0099 32.1178 12.0313 30.4358C12.1607 20.2873 17.6222 11.3552 21.4705 6.84835C22.2251 5.96463 23.3613 5.50003 24.5635 5.50003C25.8123 5.50003 27.0081 6.01773 27.8334 6.9406C33.8893 13.7127 36.7819 18.9647 38.1676 23.1161C39.4609 26.9907 39.4528 29.9338 39.4462 32.3449C39.4458 32.514 39.4453 32.6804 39.4453 32.8444C39.4453 34.5889 37.92 35.9251 35.6782 36.8923C33.4821 37.8399 30.826 38.3271 29.0512 38.4815Z" stroke="black" stroke-opacity="0.18" stroke-linecap="round" stroke-linejoin="round"/>
</g>
<defs>
<filter id="filter0_d_513_2320" x="0.914062" y="0" width="49.6748" height="221.824" filterUnits="userSpaceOnUse" color-interpolation-filters="sRGB">
<feFlood flood-opacity="0" result="BackgroundImageFix"/>
<feColorMatrix in="SourceAlpha" type="matrix" values="0 0 0 0 0 0 0 0 0 0 0 0 0 0 0 0 0 0 127 0" result="hardAlpha"/>
<feOffset dy="5"/>
<feGaussianBlur stdDeviation="5"/>
<feComposite in2="hardAlpha" operator="out"/>
<feColorMatrix type="matrix" values="0 0 0 0 0 0 0 0 0 0 0 0 0 0 0 0 0 0 0.35 0"/>
<feBlend mode="normal" in2="BackgroundImageFix" result="effect1_dropShadow_513_2320"/>
<feBlend mode="normal" in="SourceGraphic" in2="effect1_dropShadow_513_2320" result="shape"/>
</filter>
<clipPath id="paint0_diamond_513_2320_clip_path"><path d="M38.4164 133.202C39.9262 128.294 39.6746 124.235 39.36 122.819L39.0558 122.211C38.0383 120.175 36.2886 118.6 34.1578 117.8C31.3466 116.746 28.4127 116.053 25.4268 115.739L24.0628 115.595C22.0499 115.383 19.9681 115.787 18.5311 117.213C15.1209 120.595 11.4701 127.155 13.8826 136.506C17.657 151.136 17.657 168.597 18.1288 178.98C18.5062 187.286 20.8023 195.655 21.9032 198.802L22.375 200.689L22.8468 201.633L23.7904 203.521L24.2622 204.465L25.2059 205.881L25.6777 206.353L26.1495 206.824H26.6213H27.5649H28.0367L28.9803 206.353L29.4521 205.409L29.9239 204.465C32.2829 155.383 35.1137 153.023 35.5855 149.72C36.0573 146.416 36.5292 139.337 38.4164 133.202Z"/></clipPath><linearGradient id="paint0_diamond_513_2320" x1="0" y1="0" x2="500" y2="500" gradientUnits="userSpaceOnUse">
<stop stop-color="#F9E7C9"/>
<stop offset="1" stop-color="#E7BA8B"/>
</linearGradient>
<radialGradient id="paint1_radial_513_2320" cx="0" cy="0" r="1" gradientUnits="userSpaceOnUse" gradientTransform="translate(25.7516 115.622) rotate(90) scale(22.5369 14.8373)">
<stop offset="0.56179" stop-color="white"/>
<stop offset="1" stop-color="#CAC9C2"/>
</radialGradient>
<radialGradient id="paint2_radial_513_2320" cx="0" cy="0" r="1" gradientUnits="userSpaceOnUse" gradientTransform="translate(25.7381 22.1373) rotate(-90) scale(17.1373 14.2091)">
<stop offset="0.56179" stop-color="white"/>
<stop offset="1" stop-color="#CAC9C2"/>
</radialGradient>
</defs>
</svg>
