<svg width="68" height="198" viewBox="0 0 68 198" fill="none" xmlns="http://www.w3.org/2000/svg">
<g filter="url(#filter0_d_513_1911)">
<ellipse cx="8.96324" cy="7.55102" rx="8.96324" ry="7.55102" transform="matrix(-1 0 0 1 43.6455 83.9238)" fill="#A9A9A9"/>
<path d="M54.06 65.5375L48.8328 58.9134L21.7074 60.3292L17.0797 60.3294L17.4406 63.5778C17.5112 64.2134 17.3074 64.849 16.8804 65.3251C16.4856 65.7653 16.1854 66.282 15.9985 66.8431L15.3384 68.8241L14.3949 72.5996C14.0811 74.4842 13.9234 76.3914 13.9234 78.3019L13.9234 84.8233C13.9234 86.4237 14.0813 88.0202 14.3949 89.5895L14.7664 90.8904C15.1455 92.2174 15.728 93.4776 16.4933 94.6259C16.9803 95.3566 17.5383 96.0374 18.159 96.6585L19.4577 97.9576C19.8551 98.3552 20.2999 98.7026 20.7819 98.9919L20.9836 99.113C21.9202 99.6752 22.9919 99.9721 24.0842 99.9721C24.851 99.9721 25.6107 99.8258 26.3227 99.5409L26.7943 99.3522C27.3326 99.1368 27.8471 98.8661 28.3294 98.5443C28.788 98.2384 29.2153 97.888 29.605 97.4981L30.1177 96.9852C30.6425 96.4601 31.1295 95.8985 31.5748 95.3045L32.3214 94.3088L32.8329 93.6264C33.424 92.8381 34.2204 92.2275 35.135 91.8615C35.7694 91.6076 36.4464 91.4772 37.1296 91.4772L37.2747 91.4772C38.0538 91.4772 38.8256 91.6259 39.5488 91.9153L39.985 92.0898C40.5353 92.3101 41.0613 92.5869 41.5545 92.9158L42.372 93.461C43.2132 94.022 44.1446 94.4342 45.1255 94.6795L45.555 94.787C46.775 95.0921 48.0538 95.0707 49.263 94.7251C50.2234 94.4506 51.1158 93.9784 51.8832 93.3387L52.3299 92.9663C53.1381 92.2925 53.8341 91.4943 54.3917 90.6018L54.7367 90.0496C55.5132 88.8067 56.0897 87.4494 56.4451 86.0275L56.8522 84.3981L57.2987 82.388C57.6291 80.9009 57.7957 79.3821 57.7957 77.8588C57.7957 76.8709 57.7256 75.8843 57.586 74.9064L57.324 73.0716L56.8522 70.7119C56.228 68.8383 55.2832 67.0875 54.06 65.5375Z" fill="url(#paint0_radial_513_1911)"/>
<path d="M36.5677 7.46924C37.9829 7.46924 38.4547 9.82893 38.4547 11.7167C37.9829 15.9641 38.9264 21.1555 38.9264 23.9871C38.9264 26.2837 39.2409 27.1334 39.3982 27.2907C40.8134 29.6504 46.4744 35.3136 46.9461 35.7856C47.3235 36.1631 47.7324 42.2354 47.8896 45.2244L39.8699 53.2473L21.4717 40.9769C22.8869 38.1453 26.2835 32.6708 28.5479 33.4259C30.8123 34.181 31.3784 18.3238 33.7372 10.3009C33.8944 9.35699 34.6807 7.46924 36.5677 7.46924Z" fill="url(#paint1_linear_513_1911)"/>
<path d="M46.4755 67.4079H55.4388C58.0806 57.5915 56.5395 44.1255 55.4388 38.6196C53.08 27.765 54.0235 35.788 48.8343 17.3823C44.6829 2.65785 39.2328 8.62651 39.8711 13.6068C41.4436 25.8772 42.6072 49.4742 34.6818 45.6987C26.7564 41.9232 28.2346 25.248 29.9643 17.3823C32.3231 11.8764 35.3423 1.90275 28.5491 6.05581C21.7559 10.2089 16.5981 24.776 14.8683 31.5405C13.1707 47.6747 15.256 57.0359 17.4664 61.5728C18.515 63.7253 20.8929 64.5762 23.2873 64.5762C26.0522 64.5762 28.7166 63.3196 31.3721 62.5497C33.3037 61.9897 35.4646 61.9002 37.0406 62.6885C38.8584 63.5977 42.7016 67.4079 46.4755 67.4079Z" fill="url(#paint2_diamond_513_1911)"/>
<path d="M56.5794 172.607C58.5213 158.728 55.313 148.59 51.9784 142.757C50.0856 139.445 46.7862 136.572 42.9952 136.991C42.6377 137.03 42.2895 137.102 41.9587 137.212C39.6948 137.967 36.9279 137.212 35.8274 136.74C34.2553 136.111 29.8848 134.947 24.9797 135.324C20.0747 135.702 17.5908 138.628 16.9619 140.044C11.3023 152.503 14.6037 166.629 16.9619 172.135C19.6345 176.698 26.206 184.972 31.111 181.574C32.5821 180.555 34.005 179.879 35.3189 179.448C39.457 178.09 44.2065 180.158 48.5616 180.158C53.4666 180.158 55.9506 175.124 56.5794 172.607Z" fill="url(#paint3_radial_513_1911)"/>
<path d="M38.1856 142.875C39.426 142.255 42.4405 143.579 42.8849 155.569M21.7249 153.65C25.7012 153.081 33.5227 152.95 36.7707 156.561M38.4093 143.322C38.1623 143.446 37.862 143.346 37.7384 143.099C37.6149 142.852 37.7149 142.552 37.9618 142.428C38.4225 142.198 39.0164 142.171 39.6227 142.472C40.218 142.769 40.7975 143.365 41.3147 144.331C42.3217 146.212 43.1729 149.647 43.3878 155.638C45.2971 155.921 47.2115 156.439 48.8805 157.003C49.3851 156.969 49.7641 156.589 50.0398 155.903C50.3242 155.196 50.4223 154.321 50.4198 153.732C50.4186 153.456 50.6415 153.231 50.9176 153.23C51.1938 153.229 51.4186 153.452 51.4198 153.728C51.4226 154.397 51.3157 155.41 50.9677 156.276C50.7945 156.707 50.5415 157.143 50.1841 157.47C51.0989 157.816 51.9053 158.163 52.5497 158.47C52.799 158.589 52.9048 158.887 52.786 159.136C52.6673 159.386 52.3689 159.491 52.1196 159.373C51.2391 158.953 50.0293 158.45 48.6443 157.979C46.8748 157.376 44.8333 156.83 42.8375 156.571C40.9437 156.325 39.1332 156.343 37.6427 156.783C37.8186 157.041 37.9879 157.356 38.1475 157.724C38.4843 158.499 38.8012 159.565 39.0438 160.972C39.5291 163.785 39.7237 168 39.155 174.07C39.1293 174.345 38.8855 174.547 38.6106 174.521C38.3356 174.495 38.1336 174.252 38.1594 173.977C38.7227 167.964 38.5242 163.842 38.0584 161.142C37.8254 159.791 37.5272 158.806 37.2302 158.122C36.9264 157.422 36.6453 157.086 36.4799 156.968C36.4504 156.947 36.4232 156.923 36.3989 156.896C34.8336 155.155 32.0548 154.306 29.0943 153.993C26.3759 153.705 23.6091 153.881 21.7407 154.153C21.7521 154.885 21.7101 155.601 21.579 156.213C21.4274 156.919 21.1245 157.634 20.4871 157.952C20.2401 158.076 19.9398 157.976 19.8162 157.729C19.6927 157.482 19.7927 157.182 20.0397 157.058C20.2463 156.955 20.463 156.647 20.6012 156.003C20.7257 155.423 20.7609 154.686 20.7339 153.893C20.725 153.867 20.7181 153.84 20.7135 153.812C20.7017 153.742 20.7053 153.673 20.7217 153.608C20.6555 152.318 20.4425 150.976 20.2461 150.059C20.1883 149.789 20.3603 149.523 20.6303 149.465C20.9003 149.408 21.1661 149.58 21.2239 149.85C21.4082 150.71 21.6066 151.927 21.6951 153.149C23.6294 152.876 26.4319 152.706 29.1995 152.998C32.0886 153.304 35.054 154.125 36.9022 155.974C38.5196 155.388 40.4449 155.312 42.3824 155.511C42.1597 149.672 41.3232 146.466 40.4331 144.803C39.9756 143.948 39.5254 143.541 39.1774 143.368C38.8404 143.2 38.5774 143.238 38.4093 143.322ZM17.4189 140.247L17.4172 140.25C11.8479 152.511 15.0815 166.453 17.4092 171.91C18.7318 174.162 21.0016 177.303 23.5242 179.46C24.7914 180.543 26.0909 181.35 27.3389 181.692C28.5677 182.029 29.7406 181.915 30.8263 181.163C32.3367 180.117 33.803 179.419 35.163 178.972C37.3522 178.254 39.6757 178.451 41.9352 178.8C42.5145 178.889 43.0876 178.988 43.6549 179.086C45.3387 179.377 46.9711 179.658 48.5616 179.658C50.8221 179.658 52.5403 178.504 53.7902 177.006C55.0369 175.512 55.784 173.712 56.088 172.512C58.0064 158.757 54.8228 148.74 51.5443 143.005C49.6882 139.758 46.5429 137.102 43.0501 137.488C42.7224 137.524 42.4094 137.589 42.1169 137.686C40.8855 138.097 39.5431 138.091 38.3885 137.931C37.2351 137.772 36.2278 137.455 35.6362 137.202C34.1198 136.596 29.8305 135.452 25.0181 135.823C20.3074 136.185 17.9777 138.988 17.4189 140.247Z" stroke="black" stroke-opacity="0.18" stroke-linecap="round" stroke-linejoin="round"/>
</g>
<defs>
<filter id="filter0_d_513_1911" x="3.83691" y="0.0703125" width="63.959" height="197.302" filterUnits="userSpaceOnUse" color-interpolation-filters="sRGB">
<feFlood flood-opacity="0" result="BackgroundImageFix"/>
<feColorMatrix in="SourceAlpha" type="matrix" values="0 0 0 0 0 0 0 0 0 0 0 0 0 0 0 0 0 0 127 0" result="hardAlpha"/>
<feOffset dy="5"/>
<feGaussianBlur stdDeviation="5"/>
<feComposite in2="hardAlpha" operator="out"/>
<feColorMatrix type="matrix" values="0 0 0 0 0 0 0 0 0 0 0 0 0 0 0 0 0 0 0.35 0"/>
<feBlend mode="normal" in2="BackgroundImageFix" result="effect1_dropShadow_513_1911"/>
<feBlend mode="normal" in="SourceGraphic" in2="effect1_dropShadow_513_1911" result="shape"/>
</filter>
<radialGradient id="paint0_radial_513_1911" cx="0" cy="0" r="1" gradientUnits="userSpaceOnUse" gradientTransform="translate(33.5845 77.5398) rotate(-35.0028) scale(23.829 23.5648)">
<stop offset="0.56179" stop-color="white"/>
<stop offset="1" stop-color="#CAC9C2"/>
</radialGradient>
<linearGradient id="paint1_linear_513_1911" x1="34.6807" y1="7.46924" x2="34.6807" y2="53.2473" gradientUnits="userSpaceOnUse">
<stop stop-color="#CC8559"/>
<stop offset="1" stop-color="#EBB98F"/>
</linearGradient>
<radialGradient id="paint2_diamond_513_1911" cx="0" cy="0" r="1" gradientUnits="userSpaceOnUse" gradientTransform="translate(35.5722 36.2391) rotate(90) scale(31.1688 21.3253)">
<stop stop-color="#F9E7C9"/>
<stop offset="1" stop-color="#E7BA8B"/>
</radialGradient>
<radialGradient id="paint3_radial_513_1911" cx="0" cy="0" r="1" gradientUnits="userSpaceOnUse" gradientTransform="translate(35.5025 158.811) rotate(90) scale(23.5608 21.6655)">
<stop offset="0.56179" stop-color="white"/>
<stop offset="1" stop-color="#CAC9C2"/>
</radialGradient>
</defs>
</svg>
