<svg width="71" height="205" viewBox="0 0 71 205" fill="none" xmlns="http://www.w3.org/2000/svg">
<g filter="url(#filter0_d_513_1984)">
<path d="M57.9619 143.705C59.4716 135.399 58.2764 120.422 57.4901 113.973L40.0343 97.4547C33.5866 97.2974 18.2381 96.794 14.0864 111.141C10.5867 123.235 12.7638 146.463 14.5701 160.245C15.1439 164.623 16.3641 168.893 18.2757 172.873C21.2339 179.033 25.0888 186.215 27.2962 187.595C31.0705 189.955 32.9576 189.483 33.9012 187.595C34.656 186.085 34.2157 181.617 33.9012 179.572C32.014 172.965 28.6172 157.957 30.1269 150.784C32.014 141.817 34.8447 141.817 35.7883 142.289C36.7318 142.761 38.1472 145.121 40.0343 150.784C41.9214 156.447 40.9778 165.414 40.0343 170.605C39.2794 174.758 39.4052 177.684 39.5625 178.628C40.9778 180.359 44.5634 182.781 47.5828 178.628C51.357 173.437 56.0748 154.087 57.9619 143.705Z" fill="url(#paint0_diamond_513_1984)"/>
<path d="M59.6235 98.4856C59.9295 108.478 59.1047 113.983 58.1933 116.659C57.7428 117.981 56.2644 117.967 54.9 117.666C53.3765 117.33 51.4619 117.413 49.724 117.672C46.9995 118.078 44.7515 119.795 42.3961 121.223C38.8305 123.385 34.1999 124.569 29.6556 122.471C25.4323 118.527 20.2462 118.717 16.6437 119.785C14.9502 120.288 12.9567 119.673 12.4069 117.994C10.7845 113.04 10.7845 108.13 10.7845 100.289C10.7845 92.7385 16.4458 86.7606 19.2765 84.7155C21.7927 83.457 27.8629 81.8839 32.0145 85.6594C36.1662 89.4349 40.9784 88.1764 42.8655 87.0752C48.3351 83.6881 53.0708 85.9498 56.2043 89.0211C58.6859 91.4535 59.5172 95.0123 59.6235 98.4856Z" fill="url(#paint1_radial_513_1984)"/>
<path d="M60.5308 25.8679C62.3014 10.6954 46.2593 3.26119 37.2095 6.8737C36.3347 7.2229 35.3871 7.40128 34.4537 7.27552C27.529 6.34259 22.545 8.08583 19.211 10.38C15.6181 12.8523 13.9439 17.1491 13.0528 21.4185C11.4831 28.9397 10.4224 39.2198 13.2526 45.7315C17.0268 54.4151 25.2042 54.0691 28.8211 52.8106C30.5509 52.3386 34.388 51.5835 35.8977 52.3386C37.4074 53.0937 41.2445 52.9679 42.9743 52.8106C51.8048 50.8475 57.128 45.2564 58.8664 40.1572C60.3628 35.7676 59.9933 30.4743 60.5308 25.8679Z" fill="url(#paint2_radial_513_1984)"/>
<path d="M34.8056 34.3222C33.514 35.307 31.8019 38.6297 32.1236 46.6754M31.0411 30.2619C30.0843 32.1598 25.8157 33.6475 18.635 32.1521M18.1496 31.5452C18.1614 33.1871 17.7617 34.7862 16.5551 35.8208M51.0593 18.0685C51.2198 17.8437 51.5321 17.7916 51.7568 17.9521C51.9815 18.1126 52.0336 18.4248 51.8732 18.6496C50.6627 20.3448 49.3588 22.566 48.4907 24.8097C47.6155 27.0715 47.2176 29.2689 47.7034 30.9636C47.9887 31.9588 48.5817 32.7946 49.6057 33.3923C50.6046 33.9753 52.043 34.3482 54.0592 34.3753C54.3607 33.2964 54.8937 32.3312 55.3053 31.7547C55.4658 31.53 55.778 31.4779 56.0028 31.6383C56.2275 31.7988 56.2796 32.1111 56.1191 32.3358C55.7543 32.8468 55.2649 33.7368 55.004 34.7113C54.7411 35.6926 54.7311 36.6738 55.1975 37.4513C55.3395 37.6881 55.2627 37.9953 55.0258 38.1373C54.789 38.2793 54.4819 38.2025 54.3399 37.9657C53.852 37.1522 53.7584 36.2369 53.8594 35.3717C51.8272 35.3233 50.2624 34.9335 49.1016 34.2559C48.0563 33.6457 47.3615 32.8151 46.9543 31.8441C45.2839 32.8168 43.3726 33.6983 41.4538 34.2458C39.3925 34.8339 37.2749 35.0502 35.4294 34.5306C35.2498 34.6026 34.9958 34.77 34.7055 35.1082C34.3552 35.5162 33.9733 36.1497 33.6309 37.0831C32.9456 38.9515 32.436 41.9748 32.6232 46.6554C32.6342 46.9313 32.4195 47.1639 32.1436 47.175C31.8676 47.186 31.635 46.9713 31.624 46.6953C31.4337 41.9371 31.9463 38.7717 32.6921 36.7388C33.0652 35.7215 33.501 34.9761 33.9468 34.4568C34.0611 34.3237 34.1776 34.2037 34.2953 34.0972C33.0294 33.4707 31.9842 32.4151 31.2762 30.8385C31.1687 30.9918 31.0442 31.1394 30.9041 31.2802C30.3011 31.8866 29.3964 32.385 28.2385 32.7298C26.0188 33.3906 22.7712 33.5166 18.5923 32.6538C18.4379 33.9934 17.9517 35.2819 16.8805 36.2003C16.6709 36.3801 16.3552 36.3559 16.1755 36.1462C15.9958 35.9366 16.02 35.6209 16.2296 35.4412C17.1666 34.6378 17.5732 33.4125 17.6399 32.038C17.6401 32.0277 17.6406 32.0174 17.6414 32.0071C17.6546 31.7119 17.6523 31.41 17.6362 31.1039C17.5456 29.3746 17.0217 27.6395 16.5673 26.5789C16.4585 26.3251 16.5761 26.0311 16.8299 25.9224C17.0838 25.8136 17.3777 25.9313 17.4864 26.1851C17.9756 27.3268 18.5367 29.1784 18.6349 31.0516C18.6451 31.2479 18.6504 31.4458 18.6498 31.6443C22.7936 32.5185 25.9141 32.3784 27.9532 31.7713C29.0066 31.4577 29.745 31.0276 30.1951 30.575C30.6287 30.1391 30.7806 29.7017 30.7411 29.3066C29.8603 25.969 30.1259 20.907 32.1125 13.51C32.1841 13.2433 32.4583 13.0851 32.725 13.1567C32.9917 13.2284 33.1499 13.5026 33.0782 13.7693C31.0986 21.1407 30.8933 26.0046 31.7168 29.0845C32.4128 31.6874 33.8353 32.9992 35.5722 33.5304C37.1925 34.0259 39.1537 33.8622 41.1794 33.2842C43.0769 32.7428 44.9871 31.8503 46.648 30.8642C46.2266 28.9239 46.7148 26.6283 47.558 24.4489C48.4633 22.1091 49.8128 19.8142 51.0593 18.0685ZM28.6568 52.3383C28.6676 52.3346 28.6785 52.3312 28.6895 52.3282C29.5736 52.087 30.9911 51.7744 32.3861 51.6176C33.0836 51.5392 33.7872 51.4983 34.4217 51.528C35.0462 51.5572 35.6514 51.6564 36.1214 51.8914C36.4297 52.0457 36.8924 52.1697 37.4729 52.2588C38.0455 52.3467 38.6993 52.3957 39.3693 52.417C40.6927 52.459 42.0463 52.3915 42.8971 52.3155C51.5539 50.3807 56.718 44.9097 58.3931 39.9959C59.1194 37.8655 59.3981 35.4987 59.5593 33.0609C59.6131 32.2474 59.6538 31.4213 59.6946 30.5948C59.7747 28.9712 59.855 27.3457 60.0342 25.81C60.8947 18.4359 57.4371 12.9562 52.6491 9.74155C47.8343 6.50894 41.7343 5.60583 37.3948 7.33807C36.4622 7.71038 35.4265 7.9111 34.3869 7.77104C27.5859 6.85478 22.7266 8.56778 19.4945 10.7919C16.0655 13.1514 14.4262 17.2851 13.5423 21.5206C12.7615 25.2615 12.1093 29.6806 12.0026 33.966C11.8957 38.2606 12.3384 42.3737 13.7112 45.5322C15.5367 49.7323 18.4037 51.7163 21.2322 52.5183C24.085 53.3272 26.9275 52.94 28.6568 52.3383Z" stroke="black" stroke-opacity="0.18" stroke-linecap="round" stroke-linejoin="round"/>
</g>
<defs>
<filter id="filter0_d_513_1984" x="0.78418" y="0.972656" width="69.8818" height="203.22" filterUnits="userSpaceOnUse" color-interpolation-filters="sRGB">
<feFlood flood-opacity="0" result="BackgroundImageFix"/>
<feColorMatrix in="SourceAlpha" type="matrix" values="0 0 0 0 0 0 0 0 0 0 0 0 0 0 0 0 0 0 127 0" result="hardAlpha"/>
<feOffset dy="5"/>
<feGaussianBlur stdDeviation="5"/>
<feComposite in2="hardAlpha" operator="out"/>
<feColorMatrix type="matrix" values="0 0 0 0 0 0 0 0 0 0 0 0 0 0 0 0 0 0 0.35 0"/>
<feBlend mode="normal" in2="BackgroundImageFix" result="effect1_dropShadow_513_1984"/>
<feBlend mode="normal" in="SourceGraphic" in2="effect1_dropShadow_513_1984" result="shape"/>
</filter>
<radialGradient id="paint0_diamond_513_1984" cx="0" cy="0" r="1" gradientUnits="userSpaceOnUse" gradientTransform="translate(35.4549 143.301) rotate(90) scale(45.8918 23.2316)">
<stop stop-color="#F9E7C9"/>
<stop offset="1" stop-color="#E7BA8B"/>
</radialGradient>
<radialGradient id="paint1_radial_513_1984" cx="0" cy="0" r="1" gradientUnits="userSpaceOnUse" gradientTransform="translate(35.2365 103.43) rotate(90) scale(20.138 24.452)">
<stop offset="0.56179" stop-color="white"/>
<stop offset="1" stop-color="#CAC9C2"/>
</radialGradient>
<radialGradient id="paint2_radial_513_1984" cx="0" cy="0" r="1" gradientUnits="userSpaceOnUse" gradientTransform="translate(36.0767 29.7252) rotate(90) scale(23.7526 24.5893)">
<stop offset="0.56179" stop-color="white"/>
<stop offset="1" stop-color="#CAC9C2"/>
</radialGradient>
</defs>
</svg>
