<svg width="80" height="259" viewBox="0 0 80 259" fill="none" xmlns="http://www.w3.org/2000/svg">
<g filter="url(#filter0_d_513_2291)">
<g clip-path="url(#paint0_diamond_513_2291_clip_path)" data-figma-skip-parse="true"><g transform="matrix(0 0.0421511 -0.0266552 0 40.0204 201.301)"><rect x="0" y="0" width="1023.72" height="1037.52" fill="url(#paint0_diamond_513_2291)" opacity="1" shape-rendering="crispEdges"/><rect x="0" y="0" width="1023.72" height="1037.52" transform="scale(1 -1)" fill="url(#paint0_diamond_513_2291)" opacity="1" shape-rendering="crispEdges"/><rect x="0" y="0" width="1023.72" height="1037.52" transform="scale(-1 1)" fill="url(#paint0_diamond_513_2291)" opacity="1" shape-rendering="crispEdges"/><rect x="0" y="0" width="1023.72" height="1037.52" transform="scale(-1)" fill="url(#paint0_diamond_513_2291)" opacity="1" shape-rendering="crispEdges"/></g></g><path d="M16.1959 198.321C18.083 181.331 15.0951 171.106 13.3652 168.117L22.3289 159.15L66.6756 159.622C57.2401 182.747 63.8449 186.994 62.9014 196.433C60.1597 223.86 53.6232 238.75 48.7482 242.683C45.4458 243.942 39.3128 244.571 41.1998 237.02C43.5587 227.581 43.5587 212.007 43.0869 207.76C42.6152 203.512 41.1998 200.209 37.4257 198.793C34.4063 197.66 33.6515 200.209 33.6515 201.624C34.7523 204.299 35.8216 211.063 31.2926 216.726C25.6313 223.806 27.9902 230.413 27.5184 234.66C27.141 238.058 24.845 238.278 23.7442 237.964C10.5346 228.525 13.837 219.558 16.1959 198.321Z" data-figma-gradient-fill="{&#34;type&#34;:&#34;GRADIENT_DIAMOND&#34;,&#34;stops&#34;:[{&#34;color&#34;:{&#34;r&#34;:0.97647058963775635,&#34;g&#34;:0.90588235855102539,&#34;b&#34;:0.78823530673980713,&#34;a&#34;:1.0},&#34;position&#34;:0.0},{&#34;color&#34;:{&#34;r&#34;:0.90588235855102539,&#34;g&#34;:0.7294117808341980,&#34;b&#34;:0.54509806632995605,&#34;a&#34;:1.0},&#34;position&#34;:1.0}],&#34;stopsVar&#34;:[{&#34;color&#34;:{&#34;r&#34;:0.97647058963775635,&#34;g&#34;:0.90588235855102539,&#34;b&#34;:0.78823530673980713,&#34;a&#34;:1.0},&#34;position&#34;:0.0},{&#34;color&#34;:{&#34;r&#34;:0.90588235855102539,&#34;g&#34;:0.7294117808341980,&#34;b&#34;:0.54509806632995605,&#34;a&#34;:1.0},&#34;position&#34;:1.0}],&#34;transform&#34;:{&#34;m00&#34;:3.2643178067434881e-15,&#34;m01&#34;:-53.310352325439453,&#34;m02&#34;:66.675582885742188,&#34;m10&#34;:84.302291870117188,&#34;m11&#34;:5.1620267271562572e-15,&#34;m12&#34;:159.149902343750},&#34;opacity&#34;:1.0,&#34;blendMode&#34;:&#34;NORMAL&#34;,&#34;visible&#34;:true}"/>
<ellipse cx="29.4048" cy="141.686" rx="7.54837" ry="8.4949" fill="#A9A9A9"/>
<ellipse cx="50.6348" cy="141.687" rx="9.90723" ry="8.4949" fill="#A9A9A9"/>
<path d="M60.0711 133.665C51.7679 137.44 45.9179 138.07 44.0308 137.912C38.0408 135.416 33.3712 136.771 30.3494 138.84C26.5752 135.521 18.555 133.665 13.3655 139.8C8.17602 145.935 10.5349 154.902 10.5349 160.093C10.5349 165.285 14.3091 170.948 17.6115 169.532C20.2534 168.399 25.0026 168.745 27.0469 169.06C31.2929 170.476 38.3695 175.667 40.7284 172.364C42.6155 169.721 47.1759 170.319 49.2203 170.948C56.0138 173.591 60.5428 172.993 61.9582 172.364C69.5065 162.547 70.1356 151.598 69.5065 147.351C69.821 141.216 68.3743 129.889 60.0711 133.665Z" fill="url(#paint1_radial_513_2291)"/>
<path d="M30.3483 52.0194C27.3289 54.6622 20.9128 57.5253 18.0822 58.6265C10.5338 63.8178 10.5338 73.7285 11.4774 77.976C14.1193 96.8536 24.2152 101.888 28.933 102.045H47.8609C52.1637 102.045 56.6137 101.268 59.9127 98.5057C68.2162 91.5531 63.5795 83.9966 64.7877 72.3127C65.92 61.3637 56.4531 55.7949 51.5781 54.379C45.7595 52.4913 33.3676 49.3765 30.3483 52.0194Z" fill="url(#paint2_radial_513_2291)"/>
<path d="M11.9725 77.9067C11.9707 77.8936 11.9683 77.8805 11.9655 77.8676C11.508 75.8084 11.2753 72.3438 12.083 68.7653C12.8858 65.209 14.7067 61.5755 18.3182 59.0711C19.7515 58.5112 22.0491 57.5238 24.3705 56.347C26.7125 55.1598 29.1184 53.7603 30.6776 52.3956C31.2909 51.8587 32.4727 51.5571 34.1359 51.5074C35.7678 51.4586 37.7464 51.6539 39.8331 51.9937C44.0036 52.6728 48.5306 53.916 51.4238 54.8546L51.4386 54.8592C53.8076 55.5472 57.312 57.2536 60.0758 60.1181C62.8272 62.9697 64.8387 66.9589 64.2904 72.2613C63.9844 75.2202 64.0491 77.9131 64.1847 80.3842C64.224 81.1002 64.269 81.7941 64.3127 82.4693C64.4208 84.1384 64.5215 85.6926 64.511 87.1799C64.4963 89.2557 64.2633 91.1479 63.5437 92.9363C62.8262 94.7195 61.6125 96.4303 59.5917 98.1223C56.4266 100.773 52.1204 101.545 47.8609 101.545H28.9414C24.5289 101.392 14.5893 96.6044 11.9725 77.9067Z" stroke="black" stroke-opacity="0.18" stroke-linecap="round" stroke-linejoin="round"/>
<g filter="url(#filter1_d_513_2291)">
<path d="M41.3357 37.6952C35.8525 38.4457 34.0931 38.357 33.3689 37.0335C33.3689 38.357 31.6306 40.3423 18.8193 37.6952C9.58501 35.7872 13.7494 24.4598 15.1979 22.4745C16.3568 20.8863 18.095 15.6362 18.8193 13.2098C18.8196 11.8862 20.9921 9.23916 27.5108 7.91562C41.6967 5.03535 51.4118 5.70972 55.033 7.91562C57.6887 10.1215 63 17.1804 63 27.7687C63 38.357 54.3087 39.2394 49.9631 38.357C47.066 37.0335 46.1707 37.0335 41.3357 37.6952Z" fill="url(#paint3_radial_513_2291)"/>
<path d="M33.3689 37.0335C32.8861 32.8423 32.7895 24.4598 36.266 24.4598M33.3689 37.0335C34.0931 38.357 35.8525 38.4457 41.3357 37.6952C46.1707 37.0335 47.066 37.0335 49.9631 38.357C54.3087 39.2394 63 38.357 63 27.7687C63 17.1804 57.6887 10.1215 55.033 7.91562C51.4118 5.70973 41.6967 5.03535 27.5108 7.91562C20.9921 9.23916 18.8196 11.8862 18.8193 13.2098C18.095 15.6362 16.3568 20.8863 15.1979 22.4745C13.7494 24.4598 9.58501 35.7872 18.8193 37.6952C31.6306 40.3423 33.3689 38.357 33.3689 37.0335Z" stroke="#CBCBCB"/>
</g>
</g>
<defs>
<filter id="filter0_d_513_2291" x="0" y="0.5" width="79.6904" height="257.952" filterUnits="userSpaceOnUse" color-interpolation-filters="sRGB">
<feFlood flood-opacity="0" result="BackgroundImageFix"/>
<feColorMatrix in="SourceAlpha" type="matrix" values="0 0 0 0 0 0 0 0 0 0 0 0 0 0 0 0 0 0 127 0" result="hardAlpha"/>
<feOffset dy="5"/>
<feGaussianBlur stdDeviation="5"/>
<feComposite in2="hardAlpha" operator="out"/>
<feColorMatrix type="matrix" values="0 0 0 0 0 0 0 0 0 0 0 0 0 0 0 0 0 0 0.35 0"/>
<feBlend mode="normal" in2="BackgroundImageFix" result="effect1_dropShadow_513_2291"/>
<feBlend mode="normal" in="SourceGraphic" in2="effect1_dropShadow_513_2291" result="shape"/>
</filter>
<clipPath id="paint0_diamond_513_2291_clip_path"><path d="M16.1959 198.321C18.083 181.331 15.0951 171.106 13.3652 168.117L22.3289 159.15L66.6756 159.622C57.2401 182.747 63.8449 186.994 62.9014 196.433C60.1597 223.86 53.6232 238.75 48.7482 242.683C45.4458 243.942 39.3128 244.571 41.1998 237.02C43.5587 227.581 43.5587 212.007 43.0869 207.76C42.6152 203.512 41.1998 200.209 37.4257 198.793C34.4063 197.66 33.6515 200.209 33.6515 201.624C34.7523 204.299 35.8216 211.063 31.2926 216.726C25.6313 223.806 27.9902 230.413 27.5184 234.66C27.141 238.058 24.845 238.278 23.7442 237.964C10.5346 228.525 13.837 219.558 16.1959 198.321Z"/></clipPath><filter id="filter1_d_513_2291" x="8.5" y="5.5" width="59" height="41.9999" filterUnits="userSpaceOnUse" color-interpolation-filters="sRGB">
<feFlood flood-opacity="0" result="BackgroundImageFix"/>
<feColorMatrix in="SourceAlpha" type="matrix" values="0 0 0 0 0 0 0 0 0 0 0 0 0 0 0 0 0 0 127 0" result="hardAlpha"/>
<feOffset dy="4"/>
<feGaussianBlur stdDeviation="2"/>
<feComposite in2="hardAlpha" operator="out"/>
<feColorMatrix type="matrix" values="0 0 0 0 0 0 0 0 0 0 0 0 0 0 0 0 0 0 0.25 0"/>
<feBlend mode="normal" in2="BackgroundImageFix" result="effect1_dropShadow_513_2291"/>
<feBlend mode="normal" in="SourceGraphic" in2="effect1_dropShadow_513_2291" result="shape"/>
</filter>
<linearGradient id="paint0_diamond_513_2291" x1="0" y1="0" x2="500" y2="500" gradientUnits="userSpaceOnUse">
<stop stop-color="#F9E7C9"/>
<stop offset="1" stop-color="#E7BA8B"/>
</linearGradient>
<radialGradient id="paint1_radial_513_2291" cx="0" cy="0" r="1" gradientUnits="userSpaceOnUse" gradientTransform="translate(39.8455 153.178) rotate(90) scale(20.2667 29.8455)">
<stop offset="0.56179" stop-color="white"/>
<stop offset="1" stop-color="#CAC9C2"/>
</radialGradient>
<radialGradient id="paint2_radial_513_2291" cx="0" cy="0" r="1" gradientUnits="userSpaceOnUse" gradientTransform="translate(38.0303 76.5224) rotate(90) scale(25.5224 26.9814)">
<stop offset="0.56179" stop-color="white"/>
<stop offset="1" stop-color="#CAC9C2"/>
</radialGradient>
<radialGradient id="paint3_radial_513_2291" cx="0" cy="0" r="1" gradientUnits="userSpaceOnUse" gradientTransform="translate(38 22.5) rotate(-90) scale(16.5 25)">
<stop offset="0.505" stop-color="white"/>
<stop offset="1" stop-color="#D9D9D9"/>
</radialGradient>
</defs>
</svg>
