<svg width="72" height="209" viewBox="0 0 72 209" fill="none" xmlns="http://www.w3.org/2000/svg">
<g filter="url(#filter0_d_513_2286)">
<path d="M11.7276 147.948C10.2179 139.642 11.413 124.666 12.1993 118.216L29.6549 101.698C36.1025 101.541 51.4508 101.038 55.6024 115.385C59.1021 127.479 56.925 150.707 55.1188 164.488C54.545 168.867 53.3248 173.136 51.4133 177.117C48.455 183.277 44.6002 190.459 42.3928 191.839C38.6186 194.198 36.7315 193.726 35.788 191.839C35.0331 190.329 35.4735 185.861 35.788 183.816C37.6751 177.209 41.0718 162.201 39.5622 155.027C37.6751 146.061 34.8444 146.061 33.9009 146.533C32.9573 147.005 31.542 149.364 29.6549 155.027C27.7678 160.691 28.7114 169.658 29.6549 174.849C30.4098 179.002 30.284 181.928 30.1267 182.872C28.7114 184.602 25.1259 187.025 22.1066 182.872C18.3324 177.681 13.6147 158.331 11.7276 147.948Z" fill="url(#paint0_diamond_513_2286)"/>
<path d="M10.065 102.721C9.75898 112.713 10.5837 118.218 11.4951 120.894C11.9457 122.217 13.424 122.203 14.7885 121.901C16.312 121.565 18.2264 121.648 19.9643 121.907C22.6888 122.313 24.9368 124.03 27.2922 125.458C30.8577 127.62 35.4882 128.804 40.0324 126.706C44.2557 122.763 49.4417 122.952 53.0442 124.021C54.7377 124.523 56.7312 123.908 57.2809 122.229C58.9034 117.275 58.9034 112.365 58.9034 104.525C58.9034 96.9738 53.2421 90.9959 50.4114 88.9509C47.8953 87.6924 41.8252 86.1192 37.6736 89.8947C33.522 93.6702 28.7099 92.4117 26.8228 91.3106C21.3532 87.9234 16.6176 90.1852 13.4841 93.2565C11.0025 95.6889 10.1713 99.2477 10.065 102.721Z" fill="url(#paint1_radial_513_2286)"/>
<path d="M12.5678 25.6736C10.7973 10.5011 26.8394 3.06685 35.8892 6.67937C36.7639 7.02856 37.7115 7.20694 38.645 7.08118C45.5696 6.14826 50.5537 7.89149 53.8876 10.1856C57.4805 12.658 59.1548 16.9547 60.0458 21.2241C61.6155 28.7453 62.6762 39.0254 59.846 45.5371C56.0718 54.2208 47.8944 53.8747 44.2775 52.6162C42.5477 52.1443 38.7106 51.3892 37.2009 52.1443C35.6913 52.8994 31.8542 52.7735 30.1243 52.6162C21.2939 50.6532 15.9706 45.0621 14.2322 39.9629C12.7358 35.5733 13.1054 30.28 12.5678 25.6736Z" fill="url(#paint2_radial_513_2286)"/>
<path d="M44.4418 52.144C44.4311 52.1402 44.4201 52.1369 44.4091 52.1339C43.525 51.8926 42.1075 51.5801 40.7125 51.4232C40.015 51.3448 39.3115 51.304 38.6769 51.3336C38.0525 51.3629 37.4473 51.462 36.9773 51.6971C36.6689 51.8513 36.2063 51.9754 35.6257 52.0645C35.0531 52.1524 34.3993 52.2014 33.7294 52.2227C32.4059 52.2646 31.0523 52.1972 30.2015 52.1212C21.5448 50.1863 16.3806 44.7154 14.7055 39.8016C13.9792 37.6712 13.7006 35.3043 13.5394 32.8665C13.4856 32.053 13.4448 31.227 13.404 30.4004C13.3239 28.7768 13.2437 27.1514 13.0645 25.6156C12.2039 18.2415 15.6616 12.7619 20.4496 9.54721C25.2643 6.3146 31.3643 5.41149 35.7038 7.14374C36.6365 7.51604 37.6721 7.71676 38.7117 7.5767C45.5127 6.66044 50.372 8.37345 53.6042 10.5975C57.0331 12.9571 58.6724 17.0908 59.5564 21.3263C60.3371 25.0672 60.9894 29.4863 61.096 33.7716C61.2029 38.0662 60.7602 42.1794 59.3875 45.3378C57.5619 49.538 54.695 51.5219 51.8664 52.324C49.0137 53.1328 46.1712 52.7457 44.4418 52.144Z" stroke="black" stroke-opacity="0.18" stroke-linecap="round" stroke-linejoin="round"/>
</g>
<defs>
<filter id="filter0_d_513_2286" x="0" y="0.77832" width="71.6113" height="207.658" filterUnits="userSpaceOnUse" color-interpolation-filters="sRGB">
<feFlood flood-opacity="0" result="BackgroundImageFix"/>
<feColorMatrix in="SourceAlpha" type="matrix" values="0 0 0 0 0 0 0 0 0 0 0 0 0 0 0 0 0 0 127 0" result="hardAlpha"/>
<feOffset dy="5"/>
<feGaussianBlur stdDeviation="5"/>
<feComposite in2="hardAlpha" operator="out"/>
<feColorMatrix type="matrix" values="0 0 0 0 0 0 0 0 0 0 0 0 0 0 0 0 0 0 0.35 0"/>
<feBlend mode="normal" in2="BackgroundImageFix" result="effect1_dropShadow_513_2286"/>
<feBlend mode="normal" in="SourceGraphic" in2="effect1_dropShadow_513_2286" result="shape"/>
</filter>
<radialGradient id="paint0_diamond_513_2286" cx="0" cy="0" r="1" gradientUnits="userSpaceOnUse" gradientTransform="translate(34.2342 147.545) rotate(90) scale(45.8918 23.2313)">
<stop stop-color="#F9E7C9"/>
<stop offset="1" stop-color="#E7BA8B"/>
</radialGradient>
<radialGradient id="paint1_radial_513_2286" cx="0" cy="0" r="1" gradientUnits="userSpaceOnUse" gradientTransform="translate(34.4517 107.666) rotate(90) scale(20.138 24.4517)">
<stop offset="0.56179" stop-color="white"/>
<stop offset="1" stop-color="#CAC9C2"/>
</radialGradient>
<radialGradient id="paint2_radial_513_2286" cx="0" cy="0" r="1" gradientUnits="userSpaceOnUse" gradientTransform="translate(37.022 29.5309) rotate(90) scale(23.7526 24.5893)">
<stop offset="0.56179" stop-color="white"/>
<stop offset="1" stop-color="#CAC9C2"/>
</radialGradient>
</defs>
</svg>
