<svg width="62" height="224" viewBox="0 0 62 224" fill="none" xmlns="http://www.w3.org/2000/svg">
<g filter="url(#filter0_d_661_335)">
<g clip-path="url(#paint0_diamond_661_335_clip_path)" data-figma-skip-parse="true"><g transform="matrix(0 0.0455271 0.0151545 0 32.7546 163.457)"><rect x="0" y="0" width="1021.96" height="1065.99" fill="url(#paint0_diamond_661_335)" opacity="1" shape-rendering="crispEdges"/><rect x="0" y="0" width="1021.96" height="1065.99" transform="scale(1 -1)" fill="url(#paint0_diamond_661_335)" opacity="1" shape-rendering="crispEdges"/><rect x="0" y="0" width="1021.96" height="1065.99" transform="scale(-1 1)" fill="url(#paint0_diamond_661_335)" opacity="1" shape-rendering="crispEdges"/><rect x="0" y="0" width="1021.96" height="1065.99" transform="scale(-1)" fill="url(#paint0_diamond_661_335)" opacity="1" shape-rendering="crispEdges"/></g></g><path d="M46.4939 153.808C47.6261 146.634 47.9092 135.717 47.9092 131.155C43.1914 126.907 31.8689 118.318 24.3205 117.94C16.7722 117.563 17.0867 127.851 18.1875 133.042C19.4455 136.818 21.773 145.69 21.0181 150.976C20.2633 156.262 20.3891 163.876 20.5463 167.022C21.6471 177.719 25.8302 200.53 33.756 206.193C41.6818 211.856 42.0906 207.609 41.3044 204.777C40.2036 199.743 38.6624 188.259 41.3044 182.596C43.9463 176.933 44.9213 169.224 45.0785 166.078C45.0785 164.977 45.3616 160.981 46.4939 153.808Z" data-figma-gradient-fill="{&#34;type&#34;:&#34;GRADIENT_DIAMOND&#34;,&#34;stops&#34;:[{&#34;color&#34;:{&#34;r&#34;:0.97647058963775635,&#34;g&#34;:0.90588235855102539,&#34;b&#34;:0.78823530673980713,&#34;a&#34;:1.0},&#34;position&#34;:0.0},{&#34;color&#34;:{&#34;r&#34;:0.90588235855102539,&#34;g&#34;:0.7294117808341980,&#34;b&#34;:0.54509806632995605,&#34;a&#34;:1.0},&#34;position&#34;:1.0}],&#34;stopsVar&#34;:[{&#34;color&#34;:{&#34;r&#34;:0.97647058963775635,&#34;g&#34;:0.90588235855102539,&#34;b&#34;:0.78823530673980713,&#34;a&#34;:1.0},&#34;position&#34;:0.0},{&#34;color&#34;:{&#34;r&#34;:0.90588235855102539,&#34;g&#34;:0.7294117808341980,&#34;b&#34;:0.54509806632995605,&#34;a&#34;:1.0},&#34;position&#34;:1.0}],&#34;transform&#34;:{&#34;m00&#34;:-1.8558957742462710e-15,&#34;m01&#34;:30.309076309204102,&#34;m02&#34;:17.600103378295898,&#34;m10&#34;:91.054206848144531,&#34;m11&#34;:5.5754622381616603e-15,&#34;m12&#34;:117.930175781250},&#34;opacity&#34;:1.0,&#34;blendMode&#34;:&#34;NORMAL&#34;,&#34;visible&#34;:true}"/>
<path d="M51.6835 106.609C52.4384 122.088 49.4819 129.419 47.9093 131.149C46.0466 130.942 44.1933 131.01 42.6917 131.165C40.8516 131.355 39.2799 132.424 37.8437 133.59C35.4355 135.544 32.0441 137.178 29.5102 134.925C26.1134 131.905 20.5465 132.408 18.1876 133.037C12.0546 122.183 12.5264 110.384 11.5828 104.721C10.828 100.19 13.7844 98.4283 15.357 98.1137C16.4578 98.4283 19.6973 98.3025 23.8489 95.2821C29.0384 91.5066 31.8691 92.4504 36.115 94.3382C40.0897 96.1053 42.7198 101.417 46.494 101.889C49.8646 102.311 51.5263 105.35 51.6835 106.609Z" fill="url(#paint1_radial_661_335)"/>
<path d="M48.8533 68.371C52.2501 44.5853 40.9905 36.1219 35.1719 35.3353C30.926 34.7613 27.7454 35.6499 26.2082 36.2792C12.9986 43.4527 11.5833 58.1457 12.5268 64.5955C17.2123 83.8128 20.5017 83.9441 32.1006 84.4073L32.3413 84.417C41.7767 84.7945 47.2808 73.877 48.8533 68.371Z" fill="url(#paint2_radial_661_335)"/>
<path d="M40.3345 52.2895C40.3541 52.0141 40.5934 51.8067 40.8688 51.8264C41.1442 51.8461 41.3516 52.0853 41.3319 52.3607C41.2178 53.9585 41.1622 56.184 41.2852 58.4134C41.4087 60.6529 41.7103 62.8522 42.2899 64.4224C42.7188 65.584 43.25 66.266 43.8394 66.4871C44.098 66.5841 44.229 66.8723 44.132 67.1308C44.035 67.3894 43.7468 67.5204 43.4882 67.4234C42.726 67.1374 42.1609 66.4774 41.7358 65.6513C40.4409 67.4575 38.1292 69.4084 34.8678 70.0871C35.9033 71.2236 37.0872 73.3378 37.0872 76.394C37.0872 76.6701 36.8634 76.894 36.5872 76.894C36.3111 76.894 36.0872 76.6701 36.0872 76.394C36.0872 72.9834 34.4758 70.951 33.6177 70.2775C30.5399 70.5798 26.7875 69.7525 22.4181 66.9181C22.4678 67.933 22.4609 68.8986 22.371 69.7439C22.2516 70.8666 21.9749 71.8972 21.3723 72.5C21.1771 72.6953 20.8605 72.6954 20.6652 72.5002C20.4699 72.3049 20.4699 71.9884 20.6651 71.7931C21.006 71.452 21.2602 70.7325 21.3766 69.6381C21.4898 68.5742 21.4628 67.2674 21.3461 65.8762C21.1129 63.0966 20.5286 60.055 20.0607 58.105C19.9963 57.8365 20.1618 57.5666 20.4303 57.5022C20.6988 57.4378 20.9687 57.6032 21.0332 57.8717C21.5014 59.8234 22.0853 62.8511 22.331 65.6581C26.9247 68.805 30.7272 69.6044 33.6996 69.2631C37.5399 68.8222 40.1024 66.4629 41.2716 64.543C40.693 62.8547 40.4063 60.6372 40.2867 58.4684C40.1611 56.1914 40.2178 53.9234 40.3345 52.2895ZM48.3632 68.2664C51.7201 44.6772 40.5516 36.5671 35.1049 35.8308C30.9841 35.2737 27.9038 36.1299 26.4227 36.7317C13.5172 43.7569 12.0962 58.1392 13.0182 64.5001C14.1854 69.2847 15.2604 72.8583 16.3915 75.5389C17.524 78.2228 18.6996 79.9796 20.0499 81.1574C22.7478 83.5107 26.2622 83.6738 32.1205 83.9077L32.1006 84.4073L32.1206 83.9077L32.3613 83.9174C36.86 84.0974 40.4588 81.5906 43.1586 78.2841C45.8474 74.991 47.5864 70.9696 48.3632 68.2664Z" stroke="black" stroke-opacity="0.18" stroke-linecap="round" stroke-linejoin="round"/>
<g filter="url(#filter1_d_661_335)">
<path d="M47.7912 27.4064C47.1703 29.6481 37.1848 31.3294 32.2697 31.8898C21.7145 33.2349 13.9028 29.8349 11.3164 27.9668V18.4397C12.0922 13.3958 17.369 3.98072 32.2697 6.67075C50.8955 10.0333 48.5673 24.6043 47.7912 27.4064Z" fill="url(#paint3_radial_661_335)"/>
<path d="M47.7912 27.4064C47.1703 29.6481 37.1848 31.3294 32.2697 31.8898C21.7145 33.2349 13.9028 29.8349 11.3164 27.9668V18.4397C12.0922 13.3958 17.369 3.98072 32.2697 6.67075C50.8955 10.0333 48.5673 24.6043 47.7912 27.4064Z" stroke="#CBCBCB"/>
</g>
</g>
<defs>
<filter id="filter0_d_661_335" x="0.816406" y="0.696899" width="60.9883" height="223.287" filterUnits="userSpaceOnUse" color-interpolation-filters="sRGB">
<feFlood flood-opacity="0" result="BackgroundImageFix"/>
<feColorMatrix in="SourceAlpha" type="matrix" values="0 0 0 0 0 0 0 0 0 0 0 0 0 0 0 0 0 0 127 0" result="hardAlpha"/>
<feOffset dy="5"/>
<feGaussianBlur stdDeviation="5"/>
<feComposite in2="hardAlpha" operator="out"/>
<feColorMatrix type="matrix" values="0 0 0 0 0 0 0 0 0 0 0 0 0 0 0 0 0 0 0.35 0"/>
<feBlend mode="normal" in2="BackgroundImageFix" result="effect1_dropShadow_661_335"/>
<feBlend mode="normal" in="SourceGraphic" in2="effect1_dropShadow_661_335" result="shape"/>
</filter>
<clipPath id="paint0_diamond_661_335_clip_path"><path d="M46.4939 153.808C47.6261 146.634 47.9092 135.717 47.9092 131.155C43.1914 126.907 31.8689 118.318 24.3205 117.94C16.7722 117.563 17.0867 127.851 18.1875 133.042C19.4455 136.818 21.773 145.69 21.0181 150.976C20.2633 156.262 20.3891 163.876 20.5463 167.022C21.6471 177.719 25.8302 200.53 33.756 206.193C41.6818 211.856 42.0906 207.609 41.3044 204.777C40.2036 199.743 38.6624 188.259 41.3044 182.596C43.9463 176.933 44.9213 169.224 45.0785 166.078C45.0785 164.977 45.3616 160.981 46.4939 153.808Z"/></clipPath><filter id="filter1_d_661_335" x="6.81641" y="5.6969" width="46" height="34.9999" filterUnits="userSpaceOnUse" color-interpolation-filters="sRGB">
<feFlood flood-opacity="0" result="BackgroundImageFix"/>
<feColorMatrix in="SourceAlpha" type="matrix" values="0 0 0 0 0 0 0 0 0 0 0 0 0 0 0 0 0 0 127 0" result="hardAlpha"/>
<feOffset dy="4"/>
<feGaussianBlur stdDeviation="2"/>
<feComposite in2="hardAlpha" operator="out"/>
<feColorMatrix type="matrix" values="0 0 0 0 0 0 0 0 0 0 0 0 0 0 0 0 0 0 0.25 0"/>
<feBlend mode="normal" in2="BackgroundImageFix" result="effect1_dropShadow_661_335"/>
<feBlend mode="normal" in="SourceGraphic" in2="effect1_dropShadow_661_335" result="shape"/>
</filter>
<linearGradient id="paint0_diamond_661_335" x1="0" y1="0" x2="500" y2="500" gradientUnits="userSpaceOnUse">
<stop stop-color="#F9E7C9"/>
<stop offset="1" stop-color="#E7BA8B"/>
</linearGradient>
<radialGradient id="paint1_radial_661_335" cx="0" cy="0" r="1" gradientUnits="userSpaceOnUse" gradientTransform="translate(31.6332 114.351) rotate(90) scale(21.6645 20.1715)">
<stop offset="0.56179" stop-color="white"/>
<stop offset="1" stop-color="#CAC9C2"/>
</radialGradient>
<radialGradient id="paint2_radial_661_335" cx="0" cy="0" r="1" gradientUnits="userSpaceOnUse" gradientTransform="translate(30.8863 59.7885) rotate(90) scale(24.6381 18.5932)">
<stop offset="0.56179" stop-color="white"/>
<stop offset="1" stop-color="#CAC9C2"/>
</radialGradient>
<radialGradient id="paint3_radial_661_335" cx="0" cy="0" r="1" gradientUnits="userSpaceOnUse" gradientTransform="translate(29.8164 19.1968) rotate(90) scale(13 18.5)">
<stop offset="0.505" stop-color="white"/>
<stop offset="1" stop-color="#D9D9D9"/>
</radialGradient>
</defs>
</svg>
