<svg width="59" height="220" viewBox="0 0 59 220" fill="none" xmlns="http://www.w3.org/2000/svg">
<g filter="url(#filter0_d_513_1970)">
<path d="M42.866 128.84C43.6208 127.33 44.4384 124.121 44.7529 122.705L30.129 110.907L13.6182 123.649L15.0334 164.236C15.5052 172.259 18.5243 190.57 26.8269 199.631C35.1295 208.693 36.2616 204.036 35.7899 200.575C35.4754 192.71 35.3182 175.562 37.2051 169.899C39.5638 162.82 39.5638 147.246 39.5638 145.358C39.5638 143.471 41.9225 130.728 42.866 128.84Z" fill="url(#paint0_diamond_513_1970)"/>
<path d="M48.0543 97.2186C50.696 102.504 46.9536 116.411 44.7521 122.703C42.3934 121.759 40.9782 122.231 38.1478 125.535C34.3739 131.198 31.0717 132.142 28.2413 130.726C25.8826 129.31 22.5804 126.479 20.6935 124.591C18.8065 122.231 14.0891 123.647 13.6174 123.647C13.1457 123.647 11.2587 115.152 10.3152 105.713C10.787 98.6344 11.2587 97.6905 12.6739 95.8028C15.5044 93.4431 22.1087 90.1395 24.4674 87.7798C26.3543 85.4201 30.6 85.4201 31.5434 86.364C33.9021 87.3079 39.563 90.6114 42.8652 92.4992C43.8086 93.4431 45.4125 91.9329 48.0543 97.2186Z" fill="url(#paint1_radial_513_1970)"/>
<path d="M44.8651 17.5282C43.3554 10.7323 36.3732 6.51629 33.0707 5.25779C21.2764 2.8981 13.728 17.5282 11.841 21.7757C10.3313 25.1736 10.5829 29.7986 10.8974 31.6864C14.6716 38.6081 24.3901 51.319 33.0707 46.7884C43.9215 41.1251 46.7522 26.0231 44.8651 17.5282Z" fill="url(#paint2_radial_513_1970)"/>
<path d="M36.2493 30.9513C34.5997 33.895 30.1587 38.0431 22.8095 35.6646M36.8399 20.6813C36.923 20.4179 37.2039 20.2718 37.4672 20.355C37.7305 20.4381 37.8766 20.7189 37.7935 20.9823C37.1289 23.0878 36.3853 27.0461 37.0802 30.1617C37.3541 31.3897 37.8436 32.4503 38.6138 33.2206C38.8091 33.4159 38.8091 33.7324 38.6138 33.9277C38.4185 34.123 38.1019 34.1229 37.9067 33.9277C37.2503 33.2712 36.7816 32.4657 36.4559 31.5844C35.6047 32.9563 34.2147 34.4901 32.2725 35.5519C29.9205 36.8377 26.7897 37.4133 22.8956 36.216C23.0132 37.1541 22.9756 38.0795 22.6943 38.9235C22.607 39.1855 22.3239 39.3271 22.0619 39.2398C21.7999 39.1525 21.6583 38.8694 21.7456 38.6074C22.02 37.7839 22.0164 36.8044 21.8062 35.7427C21.7354 35.6381 21.7048 35.508 21.7269 35.3785C21.0806 32.654 19.2337 29.7235 18.0526 28.2197C17.882 28.0025 17.9198 27.6882 18.1369 27.5177C18.3541 27.3471 18.6684 27.3849 18.839 27.602C20.0512 29.1454 21.9822 32.1829 22.6877 35.0969C26.5723 36.4298 29.589 35.8792 31.7928 34.6744C33.9877 33.4746 35.4095 31.6067 36.0685 30.213C35.3795 26.8767 36.165 22.8194 36.8399 20.6813ZM44.377 17.6366C43.6529 14.3773 41.6096 11.7111 39.3103 9.69219C37.0298 7.68986 34.5331 6.35634 32.9317 5.73994C27.3031 4.63244 22.6464 7.54849 19.1079 11.3783C15.5647 15.2133 13.2323 19.8755 12.2979 21.9787C11.578 23.5989 11.2695 25.5361 11.1845 27.3211C11.1023 29.0499 11.2311 30.6008 11.3772 31.5216C13.2543 34.9459 16.5737 39.7548 20.4728 43.1552C24.4241 46.6012 28.7906 48.4583 32.8394 46.3451C38.1141 43.5922 41.4679 38.5291 43.2698 33.0636C45.0725 27.5953 45.2991 21.7877 44.377 17.6366Z" stroke="black" stroke-opacity="0.18" stroke-linecap="round" stroke-linejoin="round"/>
</g>
<defs>
<filter id="filter0_d_513_1970" x="0.31543" y="0.00195312" width="58.6475" height="219.895" filterUnits="userSpaceOnUse" color-interpolation-filters="sRGB">
<feFlood flood-opacity="0" result="BackgroundImageFix"/>
<feColorMatrix in="SourceAlpha" type="matrix" values="0 0 0 0 0 0 0 0 0 0 0 0 0 0 0 0 0 0 127 0" result="hardAlpha"/>
<feOffset dy="5"/>
<feGaussianBlur stdDeviation="5"/>
<feComposite in2="hardAlpha" operator="out"/>
<feColorMatrix type="matrix" values="0 0 0 0 0 0 0 0 0 0 0 0 0 0 0 0 0 0 0.35 0"/>
<feBlend mode="normal" in2="BackgroundImageFix" result="effect1_dropShadow_513_1970"/>
<feBlend mode="normal" in="SourceGraphic" in2="effect1_dropShadow_513_1970" result="shape"/>
</filter>
<radialGradient id="paint0_diamond_513_1970" cx="0" cy="0" r="1" gradientUnits="userSpaceOnUse" gradientTransform="translate(29.1856 157.902) rotate(90) scale(46.995 15.5674)">
<stop stop-color="#F9E7C9"/>
<stop offset="1" stop-color="#E7BA8B"/>
</radialGradient>
<radialGradient id="paint1_radial_513_1970" cx="0" cy="0" r="1" gradientUnits="userSpaceOnUse" gradientTransform="translate(29.6391 108.543) rotate(90) scale(22.7682 19.3238)">
<stop offset="0.56179" stop-color="white"/>
<stop offset="1" stop-color="#CAC9C2"/>
</radialGradient>
<radialGradient id="paint2_radial_513_1970" cx="0" cy="0" r="1" gradientUnits="userSpaceOnUse" gradientTransform="translate(28.033 26.3719) rotate(90) scale(21.37 17.3742)">
<stop offset="0.56179" stop-color="white"/>
<stop offset="1" stop-color="#CAC9C2"/>
</radialGradient>
</defs>
</svg>
