<svg width="52" height="176" viewBox="0 0 52 176" fill="none" xmlns="http://www.w3.org/2000/svg">
<g filter="url(#filter0_d_513_1951)">
<g clip-path="url(#paint0_diamond_513_1951_clip_path)" data-figma-skip-parse="true"><g transform="matrix(0 0.0457781 -0.0132468 0 24.9177 115.159)"><rect x="0" y="0" width="1021.84" height="1075.49" fill="url(#paint0_diamond_513_1951)" opacity="1" shape-rendering="crispEdges"/><rect x="0" y="0" width="1021.84" height="1075.49" transform="scale(1 -1)" fill="url(#paint0_diamond_513_1951)" opacity="1" shape-rendering="crispEdges"/><rect x="0" y="0" width="1021.84" height="1075.49" transform="scale(-1 1)" fill="url(#paint0_diamond_513_1951)" opacity="1" shape-rendering="crispEdges"/><rect x="0" y="0" width="1021.84" height="1075.49" transform="scale(-1)" fill="url(#paint0_diamond_513_1951)" opacity="1" shape-rendering="crispEdges"/></g></g><path d="M12.853 87.315C11.3434 82.4069 11.595 78.3482 11.9095 76.9324L12.2138 76.3235C13.2312 74.2881 14.9807 72.7127 17.1113 71.9134C19.9224 70.8589 22.8561 70.1661 25.8419 69.8517L27.2057 69.7081C29.2185 69.4962 31.3002 69.9002 32.737 71.3256C36.147 74.7083 39.7976 81.2677 37.3853 90.6186C33.6111 105.249 33.6111 122.71 33.1393 133.093C32.7619 141.399 30.466 149.768 29.3652 152.915L28.8934 154.802L28.4216 155.746L27.4781 157.634L27.0063 158.578L26.0627 159.994L25.591 160.466L25.1192 160.938H24.6474H23.7039H23.2321L22.2886 160.466L21.8168 159.522L21.345 158.578C18.9861 109.496 16.1555 107.136 15.6837 103.833C15.212 100.529 14.7401 93.4502 12.853 87.315Z" data-figma-gradient-fill="{&#34;type&#34;:&#34;GRADIENT_DIAMOND&#34;,&#34;stops&#34;:[{&#34;color&#34;:{&#34;r&#34;:0.97647058963775635,&#34;g&#34;:0.90588235855102539,&#34;b&#34;:0.78823530673980713,&#34;a&#34;:1.0},&#34;position&#34;:0.0},{&#34;color&#34;:{&#34;r&#34;:0.90588235855102539,&#34;g&#34;:0.7294117808341980,&#34;b&#34;:0.54509806632995605,&#34;a&#34;:1.0},&#34;position&#34;:1.0}],&#34;stopsVar&#34;:[{&#34;color&#34;:{&#34;r&#34;:0.97647058963775635,&#34;g&#34;:0.90588235855102539,&#34;b&#34;:0.78823530673980713,&#34;a&#34;:1.0},&#34;position&#34;:0.0},{&#34;color&#34;:{&#34;r&#34;:0.90588235855102539,&#34;g&#34;:0.7294117808341980,&#34;b&#34;:0.54509806632995605,&#34;a&#34;:1.0},&#34;position&#34;:1.0}],&#34;transform&#34;:{&#34;m00&#34;:1.6222706407454973e-15,&#34;m01&#34;:-26.493688583374023,&#34;m02&#34;:38.164588928222656,&#34;m10&#34;:91.556167602539062,&#34;m11&#34;:5.6061985227186771e-15,&#34;m12&#34;:69.381347656250},&#34;opacity&#34;:1.0,&#34;blendMode&#34;:&#34;NORMAL&#34;,&#34;visible&#34;:true}"/>
<path d="M13.5117 50.1623C9.32839 59.3578 10.6796 75.8368 11.9105 83.0705C16.6284 83.0705 21.3457 88.7337 23.7046 91.0934C25.5917 92.9812 28.5796 92.1946 29.8376 91.5654C31.7247 87.4123 35.9707 83.857 37.8578 82.5985C40.4997 73.9149 40.5312 61.9905 40.2166 57.1138C40.2166 49.5628 37.5433 47.3604 35.0271 47.2031L16.2794 48.118C15.8871 48.1371 15.503 48.2378 15.1517 48.4135C14.8796 48.5496 14.6313 48.7286 14.4162 48.9438L14.269 49.0911C13.9567 49.4035 13.6946 49.7602 13.5117 50.1623Z" fill="url(#paint1_radial_513_1951)"/>
<path d="M13.3262 32.9153C13.3262 37.0684 20.56 38.7359 24.177 39.0506C29.6053 40.2573 35.5959 37.5267 39.3087 35.0965C40.8567 34.0832 41.7637 32.3503 41.7401 30.5004C41.6086 20.1903 36.0701 11.149 32.1813 6.5946C31.319 5.58482 30.0358 5.07095 28.708 5.07095C27.3223 5.07095 25.9891 5.6453 25.0654 6.67823C12.8889 20.2947 13.3262 27.9174 13.3262 32.9153Z" fill="url(#paint2_radial_513_1951)"/>
<path d="M24.2203 38.5524C24.2422 38.5543 24.264 38.5577 24.2855 38.5625C29.5067 39.7231 35.3474 37.0918 39.0349 34.6781C40.4374 33.7601 41.2616 32.1887 41.2401 30.5068C41.1107 20.3583 35.6492 11.4261 31.801 6.91927C31.0464 6.03555 29.9101 5.57095 28.708 5.57095C27.4592 5.57095 26.2634 6.08866 25.4381 7.01152C19.3822 13.7836 16.4896 19.0356 15.1039 23.187C13.8106 27.0617 13.8186 30.0047 13.8253 32.4158C13.8257 32.5849 13.8262 32.7514 13.8262 32.9153C13.8262 34.6599 15.3515 35.996 17.5933 36.9633C19.7894 37.9108 22.4455 38.398 24.2203 38.5524Z" stroke="black" stroke-opacity="0.18" stroke-linecap="round" stroke-linejoin="round"/>
</g>
<defs>
<filter id="filter0_d_513_1951" x="0.679688" y="0.0709229" width="51.0605" height="175.867" filterUnits="userSpaceOnUse" color-interpolation-filters="sRGB">
<feFlood flood-opacity="0" result="BackgroundImageFix"/>
<feColorMatrix in="SourceAlpha" type="matrix" values="0 0 0 0 0 0 0 0 0 0 0 0 0 0 0 0 0 0 127 0" result="hardAlpha"/>
<feOffset dy="5"/>
<feGaussianBlur stdDeviation="5"/>
<feComposite in2="hardAlpha" operator="out"/>
<feColorMatrix type="matrix" values="0 0 0 0 0 0 0 0 0 0 0 0 0 0 0 0 0 0 0.35 0"/>
<feBlend mode="normal" in2="BackgroundImageFix" result="effect1_dropShadow_513_1951"/>
<feBlend mode="normal" in="SourceGraphic" in2="effect1_dropShadow_513_1951" result="shape"/>
</filter>
<clipPath id="paint0_diamond_513_1951_clip_path"><path d="M12.853 87.315C11.3434 82.4069 11.595 78.3482 11.9095 76.9324L12.2138 76.3235C13.2312 74.2881 14.9807 72.7127 17.1113 71.9134C19.9224 70.8589 22.8561 70.1661 25.8419 69.8517L27.2057 69.7081C29.2185 69.4962 31.3002 69.9002 32.737 71.3256C36.147 74.7083 39.7976 81.2677 37.3853 90.6186C33.6111 105.249 33.6111 122.71 33.1393 133.093C32.7619 141.399 30.466 149.768 29.3652 152.915L28.8934 154.802L28.4216 155.746L27.4781 157.634L27.0063 158.578L26.0627 159.994L25.591 160.466L25.1192 160.938H24.6474H23.7039H23.2321L22.2886 160.466L21.8168 159.522L21.345 158.578C18.9861 109.496 16.1555 107.136 15.6837 103.833C15.212 100.529 14.7401 93.4502 12.853 87.315Z"/></clipPath><linearGradient id="paint0_diamond_513_1951" x1="0" y1="0" x2="500" y2="500" gradientUnits="userSpaceOnUse">
<stop stop-color="#F9E7C9"/>
<stop offset="1" stop-color="#E7BA8B"/>
</linearGradient>
<radialGradient id="paint1_radial_513_1951" cx="0" cy="0" r="1" gradientUnits="userSpaceOnUse" gradientTransform="translate(25.516 69.74) rotate(90) scale(22.5369 14.8363)">
<stop offset="0.56179" stop-color="white"/>
<stop offset="1" stop-color="#CAC9C2"/>
</radialGradient>
<radialGradient id="paint2_radial_513_1951" cx="0" cy="0" r="1" gradientUnits="userSpaceOnUse" gradientTransform="translate(27.5334 22.2082) rotate(-90) scale(17.1373 14.2091)">
<stop offset="0.56179" stop-color="white"/>
<stop offset="1" stop-color="#CAC9C2"/>
</radialGradient>
</defs>
</svg>
