<svg width="54" height="225" viewBox="0 0 54 225" fill="none" xmlns="http://www.w3.org/2000/svg">
<g filter="url(#filter0_d_513_1944)">
<path d="M16.6603 124.478C19.3337 121.647 24.8692 115.511 25.624 113.624C29.5555 98.2069 38.928 77.8503 41.1925 119.758C43.4571 161.667 33.3297 193.853 28.4547 204.708C25.624 208.169 19.9628 213.014 19.9628 204.708V180.167C18.8305 157.136 16.6603 134.389 15.7168 125.894L16.6603 124.478Z" fill="url(#paint0_diamond_513_1944)"/>
<path d="M13.7452 114.931C13.7452 120.195 14.9267 124.331 15.5174 125.741C17.7327 127.151 20.3911 130.44 23.0494 133.26C25.1761 135.516 29.5476 133.887 31.4675 132.79C39.9743 127.903 41.8056 124.174 41.6579 122.921V93.7823C41.6579 89.5525 40.7718 88.1426 38.5565 88.1426C33.3875 88.1426 22.7836 88.2366 18.1758 88.6126C13.568 88.9885 12.416 92.8423 12.416 94.7223L13.7452 114.931Z" fill="url(#paint1_radial_513_1944)"/>
<path d="M19.9315 10.0779C11.858 21.5163 10.778 26.9117 10.9795 29.852C11.0992 31.5975 11.8822 33.2589 12.9332 34.6575C23.6778 48.9556 42.6308 34.1788 43.0813 31.0238C43.4587 28.3809 40.7224 22.3716 39.3071 19.6973C34.7666 9.21548 33.0705 5.71772 28.8585 5.18247C25.2816 4.72794 22.0107 7.1321 19.9315 10.0779Z" fill="#585858"/>
<path d="M38.8652 19.9311C38.8591 19.9197 38.8535 19.9079 38.8483 19.896C36.5709 14.6385 35.0313 11.1938 33.545 8.98944C32.8074 7.89539 32.0997 7.13378 31.3457 6.61385C30.5974 6.0979 29.7797 5.80355 28.7955 5.67848C25.4879 5.25817 22.3739 7.48454 20.34 10.3662C12.2831 21.7811 11.2891 27.0559 11.4784 29.8178C11.5894 31.4387 12.3203 33.0096 13.3329 34.3572C15.9448 37.8328 19.0331 39.5193 22.1995 40.0729C25.38 40.629 28.6773 40.0478 31.692 38.9174C34.7052 37.7876 37.4069 36.1198 39.3793 34.5427C40.3656 33.7542 41.1607 32.9953 41.7179 32.3464C41.9967 32.0218 42.21 31.7317 42.3573 31.4851C42.5091 31.2311 42.5718 31.0551 42.5863 30.9531C42.6675 30.385 42.584 29.5863 42.3627 28.6277C42.1438 27.6798 41.8008 26.6197 41.3984 25.5481C40.5936 23.4051 39.5652 21.2538 38.8652 19.9311Z" stroke="black" stroke-opacity="0.18" stroke-linecap="round" stroke-linejoin="round"/>
<path d="M19.9315 10.0777C12.9416 19.9809 11.1939 25.3544 10.9815 28.5266C10.8073 31.1267 12.2392 33.6285 14.3224 35.1942C25.2307 43.3926 42.6496 34.0467 43.0813 31.0236C43.4587 28.3808 40.7224 22.3714 39.3071 19.6971C34.7666 9.21528 33.0705 5.71753 28.8585 5.18228C25.2816 4.72774 22.0107 7.13191 19.9315 10.0777Z" fill="url(#paint2_radial_513_1944)"/>
<path d="M38.8652 19.9309C38.8591 19.9195 38.8535 19.9077 38.8483 19.8958C36.5709 14.6384 35.0313 11.1936 33.545 8.98924C32.8074 7.8952 32.0997 7.13359 31.3457 6.61366C30.5974 6.09771 29.7797 5.80336 28.7955 5.67829C25.4879 5.25797 22.3739 7.48435 20.34 10.366C13.3659 20.2468 11.6834 25.5275 11.4804 28.56C11.3199 30.9553 12.6429 33.3064 14.6228 34.7945C19.8937 38.756 26.7841 38.5073 32.4901 36.8371C35.3338 36.0047 37.8499 34.8278 39.6733 33.6803C40.5859 33.106 41.3131 32.5464 41.8188 32.0502C42.0717 31.802 42.2611 31.5776 42.3901 31.3827C42.522 31.1835 42.5738 31.0409 42.5863 30.9529C42.6675 30.3848 42.584 29.5861 42.3627 28.6275C42.1438 27.6796 41.8008 26.6195 41.3984 25.5479C40.5936 23.4049 39.5652 21.2536 38.8652 19.9309Z" stroke="black" stroke-opacity="0.18" stroke-linecap="round" stroke-linejoin="round"/>
<path d="M38.8652 19.9311C38.8591 19.9197 38.8535 19.9079 38.8483 19.896C36.5709 14.6385 35.0313 11.1938 33.545 8.98944C32.8074 7.89539 32.0997 7.13378 31.3457 6.61385C30.5974 6.0979 29.7797 5.80355 28.7955 5.67848C25.4879 5.25817 22.3739 7.48454 20.34 10.3662C12.2831 21.7811 11.2891 27.0559 11.4784 29.8178C11.5894 31.4387 12.3203 33.0096 13.3329 34.3572C15.9448 37.8328 19.0331 39.5193 22.1995 40.0729C25.38 40.629 28.6773 40.0478 31.692 38.9174C34.7052 37.7876 37.4069 36.1198 39.3793 34.5427C40.3656 33.7542 41.1607 32.9953 41.7179 32.3464C41.9967 32.0218 42.21 31.7317 42.3573 31.4851C42.5091 31.2311 42.5718 31.0551 42.5863 30.9531C42.6675 30.385 42.584 29.5863 42.3627 28.6277C42.1438 27.6798 41.8008 26.6197 41.3984 25.5481C40.5936 23.4051 39.5652 21.2538 38.8652 19.9311Z" stroke="black" stroke-opacity="0.18" stroke-linecap="round" stroke-linejoin="round"/>
</g>
<defs>
<filter id="filter0_d_513_1944" x="0.958008" y="0.126831" width="52.1582" height="224.167" filterUnits="userSpaceOnUse" color-interpolation-filters="sRGB">
<feFlood flood-opacity="0" result="BackgroundImageFix"/>
<feColorMatrix in="SourceAlpha" type="matrix" values="0 0 0 0 0 0 0 0 0 0 0 0 0 0 0 0 0 0 127 0" result="hardAlpha"/>
<feOffset dy="5"/>
<feGaussianBlur stdDeviation="5"/>
<feComposite in2="hardAlpha" operator="out"/>
<feColorMatrix type="matrix" values="0 0 0 0 0 0 0 0 0 0 0 0 0 0 0 0 0 0 0.35 0"/>
<feBlend mode="normal" in2="BackgroundImageFix" result="effect1_dropShadow_513_1944"/>
<feBlend mode="normal" in="SourceGraphic" in2="effect1_dropShadow_513_1944" result="shape"/>
</filter>
<radialGradient id="paint0_diamond_513_1944" cx="0" cy="0" r="1" gradientUnits="userSpaceOnUse" gradientTransform="translate(28.6173 152.086) rotate(90) scale(57.208 12.9005)">
<stop stop-color="#F9E7C9"/>
<stop offset="1" stop-color="#E7BA8B"/>
</radialGradient>
<radialGradient id="paint1_radial_513_1944" cx="0" cy="0" r="1" gradientUnits="userSpaceOnUse" gradientTransform="translate(27.041 111.268) rotate(90) scale(23.125 14.625)">
<stop offset="0.56179" stop-color="white"/>
<stop offset="1" stop-color="#CAC9C2"/>
</radialGradient>
<radialGradient id="paint2_radial_513_1944" cx="0" cy="0" r="1" gradientUnits="userSpaceOnUse" gradientTransform="translate(27.0373 21.7945) rotate(-90) scale(16.688 16.0793)">
<stop offset="0.56179" stop-color="white"/>
<stop offset="1" stop-color="#CAC9C2"/>
</radialGradient>
</defs>
</svg>
