<svg width="60" height="222" viewBox="0 0 60 222" fill="none" xmlns="http://www.w3.org/2000/svg">
<g filter="url(#filter0_d_513_1936)">
<path d="M16.1234 130.623C15.3686 129.113 14.5508 125.904 14.2363 124.488L28.8613 112.689L45.3734 125.432L43.958 166.019C43.4863 174.042 40.4669 192.353 32.1637 201.414C23.8605 210.475 22.7282 205.819 23.2 202.358C23.5145 194.492 23.6718 177.345 21.7847 171.682C19.4258 164.603 19.4258 149.029 19.4258 147.141C19.4258 145.253 17.067 132.511 16.1234 130.623Z" fill="url(#paint0_diamond_513_1936)"/>
<path d="M10.935 99.0053C8.29312 104.291 12.0358 118.197 14.2375 124.49C16.5963 123.546 18.0116 124.018 20.8423 127.322C24.6165 132.985 27.9189 133.929 30.7495 132.513C33.1084 131.097 36.4108 128.266 38.2979 126.378C40.185 124.018 44.9027 125.434 45.3745 125.434C45.8463 125.434 47.7333 116.939 48.6769 107.5C48.2051 100.421 47.7333 99.4773 46.318 97.5895C43.4874 95.2298 36.8826 91.9262 34.5237 89.5665C32.6366 87.2068 28.3906 87.2068 27.4471 88.1507C25.0882 89.0946 19.427 92.3982 16.1245 94.2859C15.181 95.2298 13.577 93.7196 10.935 99.0053Z" fill="url(#paint1_radial_513_1936)"/>
<path d="M15.1818 18.3046C16.6915 11.5086 23.6737 7.29266 26.9761 6.03416C38.7705 3.67446 46.3188 18.3046 48.2059 22.552C49.7156 25.95 49.464 30.575 49.1495 32.4627C45.3753 39.3845 35.6568 52.0954 26.9761 47.5648C16.1253 41.9015 13.2947 26.7995 15.1818 18.3046Z" fill="url(#paint2_radial_513_1936)"/>
<path d="M23.7976 31.7276C25.4472 34.6714 29.8882 38.8195 37.2374 36.4409M23.207 21.4576C23.1239 21.1943 22.843 21.0482 22.5797 21.1313C22.3163 21.2145 22.1702 21.4953 22.2534 21.7586C22.9179 23.8641 23.6616 27.8224 22.9666 30.9381C22.6928 32.1661 22.2033 33.2266 21.4331 33.997C21.2378 34.1922 21.2378 34.5088 21.4331 34.7041C21.6284 34.8993 21.9449 34.8993 22.1402 34.704C22.7966 34.0476 23.2652 33.2421 23.591 32.3608C24.4422 33.7326 25.8322 35.2665 27.7743 36.3282C30.1263 37.614 33.2572 38.1897 37.1513 36.9924C37.0337 37.9304 37.0713 38.8558 37.3526 39.6999C37.4398 39.9619 37.723 40.1035 37.985 40.0162C38.247 39.9289 38.3886 39.6457 38.3013 39.3838C38.0269 38.5602 38.0305 37.5808 38.2407 36.5191C38.3115 36.4145 38.342 36.2843 38.32 36.1549C38.9663 33.4304 40.8132 30.4999 41.9943 28.9961C42.1649 28.7789 42.1271 28.4646 41.9099 28.294C41.6928 28.1234 41.3785 28.1612 41.2079 28.3784C39.9957 29.9217 38.0647 32.9592 37.3592 35.8733C33.4746 37.2062 30.4579 36.6556 28.254 35.4508C26.0592 34.2509 24.6374 32.3831 23.9784 30.9894C24.6674 27.6531 23.8819 23.5958 23.207 21.4576ZM15.6699 18.413C16.3939 15.1537 18.4373 12.4874 20.7366 10.4686C23.0171 8.46623 25.5137 7.13271 27.1152 6.51631C32.7437 5.4088 37.4005 8.32486 40.939 12.1547C44.4822 15.9897 46.8146 20.6519 47.749 22.755C48.4689 24.3753 48.7774 26.3125 48.8623 28.0975C48.9446 29.8262 48.8158 31.3772 48.6697 32.298C46.7926 35.7223 43.4731 40.5312 39.5741 43.9316C35.6227 47.3775 31.2563 49.2347 27.2075 47.1215C21.9328 44.3685 18.5789 39.3055 16.7771 33.84C14.9744 28.3716 14.7478 22.5641 15.6699 18.413Z" stroke="black" stroke-opacity="0.18" stroke-linecap="round" stroke-linejoin="round"/>
</g>
<defs>
<filter id="filter0_d_513_1936" x="0.0263672" y="0.77832" width="59.3613" height="220.901" filterUnits="userSpaceOnUse" color-interpolation-filters="sRGB">
<feFlood flood-opacity="0" result="BackgroundImageFix"/>
<feColorMatrix in="SourceAlpha" type="matrix" values="0 0 0 0 0 0 0 0 0 0 0 0 0 0 0 0 0 0 127 0" result="hardAlpha"/>
<feOffset dy="5"/>
<feGaussianBlur stdDeviation="5"/>
<feComposite in2="hardAlpha" operator="out"/>
<feColorMatrix type="matrix" values="0 0 0 0 0 0 0 0 0 0 0 0 0 0 0 0 0 0 0.35 0"/>
<feBlend mode="normal" in2="BackgroundImageFix" result="effect1_dropShadow_513_1936"/>
<feBlend mode="normal" in="SourceGraphic" in2="effect1_dropShadow_513_1936" result="shape"/>
</filter>
<radialGradient id="paint0_diamond_513_1936" cx="0" cy="0" r="1" gradientUnits="userSpaceOnUse" gradientTransform="translate(29.8048 159.684) rotate(90) scale(46.995 15.5685)">
<stop stop-color="#F9E7C9"/>
<stop offset="1" stop-color="#E7BA8B"/>
</radialGradient>
<radialGradient id="paint1_radial_513_1936" cx="0" cy="0" r="1" gradientUnits="userSpaceOnUse" gradientTransform="translate(29.3516 110.329) rotate(90) scale(22.7682 19.3253)">
<stop offset="0.56179" stop-color="white"/>
<stop offset="1" stop-color="#CAC9C2"/>
</radialGradient>
<radialGradient id="paint2_radial_513_1936" cx="0" cy="0" r="1" gradientUnits="userSpaceOnUse" gradientTransform="translate(32.0139 27.1483) rotate(90) scale(21.37 17.3742)">
<stop offset="0.56179" stop-color="white"/>
<stop offset="1" stop-color="#CAC9C2"/>
</radialGradient>
</defs>
</svg>
