<svg width="72" height="209" viewBox="0 0 72 209" fill="none" xmlns="http://www.w3.org/2000/svg">
<g filter="url(#filter0_d_513_1921)">
<path d="M11.8438 147.948C10.3341 139.642 11.5293 124.666 12.3155 118.216L29.7711 101.698C36.2187 101.541 51.5671 101.038 55.7187 115.385C59.2184 127.479 57.0412 150.707 55.235 164.488C54.6612 168.867 53.441 173.136 51.5295 177.117C48.5712 183.277 44.7164 190.459 42.509 191.839C38.7348 194.198 36.8477 193.726 35.9042 191.839C35.1493 190.329 35.5897 185.861 35.9042 183.816C37.7913 177.209 41.188 162.201 39.6784 155.027C37.7913 146.061 34.9606 146.061 34.0171 146.533C33.0735 147.005 31.6582 149.364 29.7711 155.027C27.884 160.691 28.8276 169.658 29.7711 174.849C30.526 179.002 30.4002 181.928 30.2429 182.872C28.8276 184.602 25.2421 187.025 22.2228 182.872C18.4486 177.681 13.7309 158.331 11.8438 147.948Z" fill="url(#paint0_diamond_513_1921)"/>
<path d="M10.1812 102.721C9.87519 112.713 10.6999 118.218 11.6114 120.894C12.0619 122.217 13.5402 122.203 14.9047 121.901C16.4282 121.565 18.3426 121.648 20.0805 121.907C22.805 122.313 25.053 124.03 27.4085 125.458C30.9739 127.62 35.6044 128.804 40.1486 126.706C44.3719 122.763 49.5579 122.952 53.1604 124.021C54.8539 124.523 56.8474 123.908 57.3971 122.229C59.0196 117.275 59.0196 112.365 59.0196 104.525C59.0196 96.9738 53.3583 90.9959 50.5277 88.9509C48.0115 87.6924 41.9414 86.1192 37.7898 89.8947C33.6382 93.6702 28.8261 92.4117 26.939 91.3106C21.4694 87.9234 16.7338 90.1852 13.6003 93.2565C11.1187 95.6889 10.2875 99.2477 10.1812 102.721Z" fill="url(#paint1_radial_513_1921)"/>
<path d="M12.684 25.6736C10.9135 10.5011 26.9556 3.06685 36.0054 6.67937C36.8802 7.02856 37.8277 7.20694 38.7612 7.08118C45.6858 6.14826 50.6699 7.89149 54.0038 10.1856C57.5968 12.658 59.271 16.9547 60.162 21.2241C61.7317 28.7453 62.7924 39.0254 59.9622 45.5371C56.1881 54.2208 48.0107 53.8747 44.3937 52.6162C42.6639 52.1443 38.8268 51.3892 37.3171 52.1443C35.8075 52.8994 31.9704 52.7735 30.2406 52.6162C21.4101 50.6532 16.0868 45.0621 14.3485 39.9629C12.852 35.5733 13.2216 30.28 12.684 25.6736Z" fill="url(#paint2_radial_513_1921)"/>
<path d="M38.4092 34.1279C39.7008 35.1127 41.413 38.4354 41.0913 46.481M42.1737 30.0675C43.1306 31.9655 47.3992 33.4532 54.5799 31.9577M55.0652 31.3509C55.0534 32.9928 55.4531 34.5918 56.6598 35.6264M22.1555 17.8741C21.995 17.6494 21.6828 17.5973 21.458 17.7578C21.2333 17.9182 21.1812 18.2305 21.3417 18.4552C22.5521 20.1505 23.8561 22.3717 24.7242 24.6154C25.5993 26.8772 25.9972 29.0745 25.5114 30.7693C25.2261 31.7645 24.6331 32.6002 23.6091 33.1979C22.6102 33.781 21.1719 34.1539 19.1557 34.181C18.8541 33.1021 18.3212 32.1369 17.9095 31.5604C17.7491 31.3356 17.4368 31.2835 17.2121 31.444C16.9873 31.6045 16.9353 31.9167 17.0957 32.1415C17.4606 32.6524 17.9499 33.5425 18.2109 34.5169C18.4737 35.4982 18.4838 36.4794 18.0174 37.257C17.8754 37.4938 17.9522 37.8009 18.189 37.943C18.4258 38.085 18.7329 38.0082 18.875 37.7714C19.3629 36.9579 19.4565 36.0425 19.3554 35.1774C21.3876 35.1289 22.9525 34.7391 24.1132 34.0616C25.1586 33.4514 25.8533 32.6207 26.2606 31.6498C27.9309 32.6225 29.8422 33.504 31.761 34.0515C33.8223 34.6396 35.94 34.8558 37.7854 34.3363C37.965 34.4083 38.219 34.5757 38.5093 34.9138C38.8596 35.3219 39.2416 35.9553 39.584 36.8888C40.2693 38.7572 40.7788 41.7805 40.5917 46.461C40.5806 46.737 40.7954 46.9696 41.0713 46.9806C41.3472 46.9917 41.5798 46.7769 41.5909 46.501C41.7811 41.7428 41.2685 38.5774 40.5228 36.5444C40.1497 35.5272 39.7139 34.7818 39.2681 34.2625C39.1538 34.1293 39.0373 34.0094 38.9196 33.9029C40.1855 33.2764 41.2306 32.2208 41.9387 30.6441C42.0462 30.7975 42.1707 30.9451 42.3107 31.0859C42.9138 31.6923 43.8184 32.1907 44.9763 32.5354C47.1961 33.1963 50.4436 33.3223 54.6226 32.4595C54.7769 33.7991 55.2632 35.0876 56.3343 36.006C56.5439 36.1857 56.8596 36.1615 57.0393 35.9519C57.2191 35.7423 57.1949 35.4266 56.9852 35.2469C56.0482 34.4434 55.6416 33.2181 55.5749 31.8437C55.5747 31.8334 55.5743 31.8231 55.5735 31.8127C55.5602 31.5176 55.5626 31.2156 55.5786 30.9096C55.6692 29.1803 56.1932 27.4452 56.6476 26.3846C56.7563 26.1307 56.6387 25.8368 56.3849 25.7281C56.1311 25.6193 55.8371 25.7369 55.7284 25.9907C55.2392 27.1325 54.6781 28.9841 54.58 30.8573C54.5697 31.0535 54.5645 31.2514 54.5651 31.45C50.4213 32.3242 47.3007 32.1841 45.2616 31.577C44.2082 31.2634 43.4698 30.8333 43.0197 30.3807C42.5861 29.9448 42.4342 29.5074 42.4738 29.1123C43.3546 25.7746 43.089 20.7126 41.1024 13.3156C41.0308 13.0489 40.7565 12.8908 40.4898 12.9624C40.2231 13.034 40.065 13.3083 40.1366 13.575C42.1163 20.9464 42.3216 25.8103 41.4981 28.8901C40.8021 31.4931 39.3796 32.8049 37.6426 33.336C36.0224 33.8315 34.0612 33.6678 32.0354 33.0898C30.1379 32.5484 28.2278 31.656 26.5669 30.6698C26.9882 28.7295 26.5 26.4339 25.6568 24.2545C24.7515 21.9148 23.402 19.6199 22.1555 17.8741ZM44.558 52.144C44.5473 52.1402 44.5364 52.1369 44.5253 52.1339C43.6412 51.8926 42.2238 51.5801 40.8287 51.4232C40.1312 51.3448 39.4277 51.304 38.7931 51.3336C38.1687 51.3629 37.5635 51.462 37.0935 51.6971C36.7851 51.8513 36.3225 51.9754 35.742 52.0645C35.1693 52.1524 34.5155 52.2014 33.8456 52.2227C32.5221 52.2646 31.1686 52.1972 30.3177 52.1212C21.661 50.1863 16.4968 44.7154 14.8217 39.8016C14.0955 37.6712 13.8168 35.3043 13.6556 32.8665C13.6018 32.053 13.561 31.227 13.5202 30.4004C13.4401 28.7768 13.3599 27.1514 13.1807 25.6156C12.3201 18.2415 15.7778 12.7619 20.5658 9.54721C25.3805 6.3146 31.4805 5.41149 35.82 7.14374C36.7527 7.51604 37.7883 7.71676 38.8279 7.5767C45.6289 6.66044 50.4882 8.37345 53.7204 10.5975C57.1493 12.9571 58.7886 17.0908 59.6726 21.3263C60.4533 25.0672 61.1056 29.4863 61.2122 33.7716C61.3191 38.0662 60.8764 42.1794 59.5037 45.3378C57.6782 49.538 54.8112 51.5219 51.9826 52.324C49.1299 53.1328 46.2874 52.7457 44.558 52.144Z" stroke="black" stroke-opacity="0.18" stroke-linecap="round" stroke-linejoin="round"/>
</g>
<defs>
<filter id="filter0_d_513_1921" x="0.116211" y="0.77832" width="71.6113" height="207.658" filterUnits="userSpaceOnUse" color-interpolation-filters="sRGB">
<feFlood flood-opacity="0" result="BackgroundImageFix"/>
<feColorMatrix in="SourceAlpha" type="matrix" values="0 0 0 0 0 0 0 0 0 0 0 0 0 0 0 0 0 0 127 0" result="hardAlpha"/>
<feOffset dy="5"/>
<feGaussianBlur stdDeviation="5"/>
<feComposite in2="hardAlpha" operator="out"/>
<feColorMatrix type="matrix" values="0 0 0 0 0 0 0 0 0 0 0 0 0 0 0 0 0 0 0.35 0"/>
<feBlend mode="normal" in2="BackgroundImageFix" result="effect1_dropShadow_513_1921"/>
<feBlend mode="normal" in="SourceGraphic" in2="effect1_dropShadow_513_1921" result="shape"/>
</filter>
<radialGradient id="paint0_diamond_513_1921" cx="0" cy="0" r="1" gradientUnits="userSpaceOnUse" gradientTransform="translate(34.3504 147.545) rotate(90) scale(45.8918 23.2313)">
<stop stop-color="#F9E7C9"/>
<stop offset="1" stop-color="#E7BA8B"/>
</radialGradient>
<radialGradient id="paint1_radial_513_1921" cx="0" cy="0" r="1" gradientUnits="userSpaceOnUse" gradientTransform="translate(34.5679 107.666) rotate(90) scale(20.138 24.4517)">
<stop offset="0.56179" stop-color="white"/>
<stop offset="1" stop-color="#CAC9C2"/>
</radialGradient>
<radialGradient id="paint2_radial_513_1921" cx="0" cy="0" r="1" gradientUnits="userSpaceOnUse" gradientTransform="translate(37.1382 29.5309) rotate(90) scale(23.7526 24.5893)">
<stop offset="0.56179" stop-color="white"/>
<stop offset="1" stop-color="#CAC9C2"/>
</radialGradient>
</defs>
</svg>
