<svg width="67" height="197" viewBox="0 0 67 197" fill="none" xmlns="http://www.w3.org/2000/svg">
<g filter="url(#filter0_d_513_1917)">
<path d="M15.738 127.522C16.4928 124.879 16.6815 115.409 16.6815 111.004C24.8589 111.633 42.6289 113.647 48.2902 116.667C52.4019 118.861 53.1126 130.481 52.7719 140.535C52.5435 147.273 51.1286 153.93 48.4005 160.095C45.186 167.36 40.5783 175.664 35.5524 179.435C28.004 185.098 29.262 177.705 30.8346 173.3C31.4481 171.582 34.2314 169.43 36.4959 155.838C38.7604 142.246 35.2378 138.534 33.1935 138.376C23.2863 140.264 25.1733 162.917 25.6451 169.524C26.0225 174.81 23.9153 174.558 22.8146 173.772C7.24607 164.805 14.7944 130.825 15.738 127.522Z" fill="url(#paint0_diamond_513_1917)"/>
<path d="M26.5872 94.9592C30.1876 90.9574 38.8761 95.0995 42.0104 97.6027C41.5496 97.2026 40.9736 96.7781 40.2687 96.3751C41.9985 95.9032 45.6469 94.6761 46.4017 93.5435C47.3453 92.1277 51.5912 92.5996 52.5348 93.5435C53.4783 94.4873 56.7807 96.3752 56.3089 103.926C55.8372 111.477 55.8372 119.972 51.1194 122.804C48.2888 120.916 40.7404 118.179 33.1921 122.332C25.6437 126.485 18.4098 122.804 15.7365 120.444C13.8494 118.714 10.6413 112.421 12.9058 101.095C13.3776 98.4203 15.4534 93.2605 19.9824 94.0155C21.2177 94.802 23.9781 96.3751 25.1377 96.3751C25.6162 95.9684 26.1014 95.4992 26.5872 94.9592Z" fill="url(#paint1_radial_513_1917)"/>
<path d="M11.0195 18.0339C9.13239 46.7278 22.1848 50.755 28.9469 49.1818C33.0985 48.0492 38.2251 49.3392 40.2694 50.1257C44.6726 51.0696 54.0452 49.1818 56.3097 34.0798C58.5742 18.9777 54.1081 11.1121 51.592 9.06702C49.2331 7.33658 43.3831 4.25324 38.8541 5.76345C33.1928 7.6512 30.3622 5.76344 26.1162 5.29151C17.1525 3.87569 11.6485 13.4718 11.0195 18.0339Z" fill="url(#paint2_radial_513_1917)"/>
<path d="M33.1928 43.9905C34.5548 39.5399 35.1933 33.023 32.0027 29.4723M47.2459 30.443C41.3209 31.0272 34.1364 31.7355 34.1364 15.6742M17.1771 31.0246C17.0536 31.2716 17.1538 31.5719 17.4008 31.6954C17.6478 31.8189 17.9481 31.7187 18.0715 31.4717C18.159 31.2967 18.2099 31.0827 18.2416 30.8715C18.2744 30.6524 18.2913 30.4016 18.2941 30.1335C18.2983 29.7176 18.2687 29.2431 18.2033 28.7531C24.3817 26.7681 28.2047 27.2279 30.4941 28.8066C30.5771 28.8819 30.6702 28.9474 30.7661 29.0048C32.7153 30.5044 33.5886 32.9635 33.7734 35.7206C33.9584 38.4822 33.4446 41.4589 32.7147 43.8442C32.6339 44.1082 32.7824 44.3878 33.0465 44.4686C33.3106 44.5494 33.5901 44.4009 33.6709 44.1368C34.4255 41.6709 34.9665 38.569 34.7711 35.6538C34.6237 33.4538 34.0522 31.3117 32.7912 29.6431C33.4336 29.7601 34.1398 29.8414 34.8194 29.8791C35.5788 29.9212 36.3248 29.91 36.9217 29.8259C37.2185 29.7841 37.4998 29.7215 37.734 29.6271C37.7981 29.6013 37.8667 29.5699 37.935 29.5314C38.2488 29.769 38.5758 29.9762 38.9145 30.156C40.4644 30.9787 42.1965 31.188 43.8932 31.173C45.042 31.1627 46.219 31.0468 47.3245 30.938C47.7728 30.8938 48.2094 30.8508 48.6276 30.8165C48.6276 30.8233 48.6276 30.8301 48.6276 30.8369C48.6308 31.7778 48.7246 32.6275 48.8553 33.1962C48.9156 33.4589 48.9994 33.7363 49.1286 33.9192C49.1774 33.9883 49.3591 34.2258 49.6807 34.1972C49.9959 34.1693 50.1372 33.9111 50.1771 33.8314C50.3005 33.5844 50.2004 33.2841 49.9534 33.1606C49.9259 33.1468 49.8977 33.1359 49.8692 33.1276C49.8563 33.0817 49.8432 33.03 49.8299 32.9723C49.72 32.494 49.6307 31.7213 49.6276 30.8335C49.6246 29.9478 49.7077 28.9734 49.9285 28.0877C50.1511 27.1953 50.5022 26.4384 51.002 25.9384C51.1973 25.7431 51.1972 25.4265 51.0019 25.2313C50.8066 25.036 50.49 25.0361 50.2948 25.2314C49.6152 25.9113 49.2028 26.8651 48.9583 27.8457C48.7983 28.4871 48.7053 29.1596 48.6606 29.8106C48.1669 29.8494 47.6689 29.8986 47.1675 29.9481C46.0861 30.0549 44.9889 30.1632 43.8843 30.173C42.2639 30.1874 40.7231 29.9838 39.3834 29.2727C36.7523 27.8761 34.6364 24.3609 34.6364 15.6742C34.6364 15.398 34.4125 15.1742 34.1364 15.1742C33.8602 15.1742 33.6364 15.398 33.6364 15.6742C33.6364 22.6195 34.9707 26.5959 37.0882 28.7808C36.9989 28.801 36.8969 28.8195 36.7822 28.8357C36.2733 28.9073 35.5981 28.9207 34.8748 28.8806C34.1546 28.8407 33.4063 28.7489 32.7563 28.6183C32.1116 28.4888 31.6091 28.3298 31.3216 28.1708C31.2474 28.1149 31.1719 28.0601 31.0951 28.0064C28.4472 26.1593 24.2752 25.7753 18.0232 27.7608C17.885 27.1652 17.6893 26.5739 17.426 26.0677C17.0873 25.4163 16.585 24.8096 15.8585 24.6279C15.5906 24.5609 15.3191 24.7237 15.2521 24.9916C15.1852 25.2595 15.348 25.531 15.6159 25.598C15.9269 25.6758 16.2483 25.9704 16.5388 26.5291C16.8038 27.0386 17.0009 27.6897 17.1274 28.3595C17.1193 28.4299 17.1261 28.5031 17.15 28.5747C17.1573 28.5966 17.1659 28.6176 17.1758 28.6377C17.2609 29.1721 17.2986 29.6908 17.2941 30.1232C17.2917 30.3586 17.2768 30.5615 17.2526 30.7233C17.2272 30.893 17.1958 30.9871 17.1771 31.0246ZM26.0382 5.78539C26.0458 5.78658 26.0534 5.7876 26.061 5.78845C27.0933 5.90319 28.0436 6.10436 28.992 6.31763C29.1132 6.3449 29.2346 6.37241 29.3563 6.39998C30.1794 6.58651 31.0125 6.77531 31.8795 6.90672C33.894 7.21206 36.0978 7.2096 39.0123 6.23777C41.1255 5.53311 43.5951 5.8897 45.8744 6.67285C48.1376 7.45053 50.1403 8.62395 51.286 9.46271C53.6146 11.3662 58.0625 19.0186 55.8152 34.0056C54.6979 41.4571 51.8422 45.5669 48.8033 47.7114C45.771 49.8513 42.4938 50.0801 40.4114 49.6447C39.3478 49.2395 37.5358 48.7197 35.4656 48.4386C33.3772 48.155 30.9873 48.1089 28.8246 48.6969C25.5954 49.445 20.8447 48.8624 17.115 44.6275C13.3703 40.3758 10.5812 32.3597 11.5172 18.0848C11.8219 15.9138 13.3036 12.4777 15.8099 9.75995C18.3118 7.04704 21.7724 5.11159 26.0382 5.78539Z" stroke="black" stroke-opacity="0.18" stroke-linecap="round" stroke-linejoin="round"/>
</g>
<defs>
<filter id="filter0_d_513_1917" x="0.834961" y="0.150391" width="66.0957" height="196.336" filterUnits="userSpaceOnUse" color-interpolation-filters="sRGB">
<feFlood flood-opacity="0" result="BackgroundImageFix"/>
<feColorMatrix in="SourceAlpha" type="matrix" values="0 0 0 0 0 0 0 0 0 0 0 0 0 0 0 0 0 0 127 0" result="hardAlpha"/>
<feOffset dy="5"/>
<feGaussianBlur stdDeviation="5"/>
<feComposite in2="hardAlpha" operator="out"/>
<feColorMatrix type="matrix" values="0 0 0 0 0 0 0 0 0 0 0 0 0 0 0 0 0 0 0.35 0"/>
<feBlend mode="normal" in2="BackgroundImageFix" result="effect1_dropShadow_513_1917"/>
<feBlend mode="normal" in="SourceGraphic" in2="effect1_dropShadow_513_1917" result="shape"/>
</filter>
<radialGradient id="paint0_diamond_513_1917" cx="0" cy="0" r="1" gradientUnits="userSpaceOnUse" gradientTransform="translate(32.9649 146.245) rotate(90) scale(35.2413 19.8818)">
<stop stop-color="#F9E7C9"/>
<stop offset="1" stop-color="#E7BA8B"/>
</radialGradient>
<radialGradient id="paint1_radial_513_1917" cx="0" cy="0" r="1" gradientUnits="userSpaceOnUse" gradientTransform="translate(34.2409 108.431) rotate(90) scale(15.7816 22.1139)">
<stop offset="0.56179" stop-color="white"/>
<stop offset="1" stop-color="#CAC9C2"/>
</radialGradient>
<radialGradient id="paint2_radial_513_1917" cx="0" cy="0" r="1" gradientUnits="userSpaceOnUse" gradientTransform="translate(33.8831 27.739) rotate(90) scale(22.5886 23.0481)">
<stop offset="0.56179" stop-color="white"/>
<stop offset="1" stop-color="#CAC9C2"/>
</radialGradient>
</defs>
</svg>
