<svg width="963" height="602" viewBox="0 0 963 602" fill="none" xmlns="http://www.w3.org/2000/svg">
<rect x="38.9275" y="590.679" width="844.333" height="5.32143" rx="2.66071" fill="#FEC8C1"/>
<path d="M52.2324 371.738C57.1991 417.857 46.6153 432.934 40.7026 434.708L132.941 590.803H822.953C848.968 589.62 910.224 562.954 947.119 465.749C984.014 368.545 947.119 274.474 924.06 239.589L884.149 173.071L747.566 74.6243C714.454 70.781 639.363 70.1898 603.887 98.5707C568.411 126.952 524.066 135.821 506.328 136.708C412.67 148.06 387.482 136.116 386.595 128.725C368.266 127.247 320.432 122.695 275.732 116.309C219.857 108.327 168.417 118.97 171.965 164.202C174.803 200.387 173.147 224.216 171.965 231.607C155.113 270.63 135.601 278.612 91.2562 290.142C55.78 299.366 50.4586 348.382 52.2324 371.738Z" fill="url(#paint0_linear_101_1464)"/>
<g filter="url(#filter0_d_101_1464)">
<path d="M149.106 336.897C-68.3224 395.186 -5.31277 590.679 132.244 590.679H843.988C949.063 578.483 959.949 498.313 952.258 459.753C948.412 446.899 933.089 415.094 902.56 390.703C872.031 366.311 880.374 326.734 888.361 309.995C918.889 241.841 913.505 180.264 908.772 162.03C899.306 130.943 866.884 73.7897 798.727 61.5938C713.531 46.349 650.521 91.1867 607.036 127.954C572.247 157.367 517.402 168.905 494.328 170.998C473.029 173.389 419.249 166.514 374.521 119.883C329.793 73.2515 274.829 98.0617 252.939 116.296C233.415 130.644 197.384 174.585 209.453 235.564C221.523 296.543 174.25 328.528 149.106 336.897Z" fill="url(#paint1_linear_101_1464)"/>
</g>
<g filter="url(#filter1_d_101_1464)">
<mask id="mask0_101_1464" style="mask-type:alpha" maskUnits="userSpaceOnUse" x="439" y="168" width="420" height="423">
<path d="M713.135 590.218C688.05 590.218 681.502 553.264 679.433 542.325C668.532 502.738 658.23 488.492 649.278 488.265C640.326 488.492 630.025 502.088 619.124 541.62C617.055 552.543 610.5 589.446 585.423 589.446C561.315 589.446 528.959 567.895 514.473 549.591C484.32 499.994 473.677 463.682 445.297 360.06C424.012 248.467 468.356 189.128 514.473 174.071C555.27 160.753 620.898 174.566 649.278 182.242C677.659 174.556 743.29 160.922 784.088 174.26C830.207 189.337 874.552 248.76 853.266 360.51C824.885 464.278 814.242 500.641 784.088 550.307C769.602 568.637 743.13 590.218 713.135 590.218Z" fill="#FE9C8F"/>
</mask>
<g mask="url(#mask0_101_1464)">
<path d="M713.135 590.218C688.05 590.218 681.502 553.264 679.433 542.325C668.532 502.738 658.23 488.492 649.278 488.265C640.326 488.492 630.025 502.088 619.124 541.62C617.055 552.543 610.5 589.446 585.423 589.446C561.315 589.446 528.959 567.895 514.473 549.591C484.32 499.994 473.677 463.682 445.297 360.06C424.012 248.467 468.356 189.128 514.473 174.071C555.27 160.753 620.898 174.566 649.278 182.242C677.659 174.556 743.29 160.922 784.088 174.26C830.207 189.337 874.552 248.76 853.266 360.51C824.885 464.278 814.242 500.641 784.088 550.307C769.602 568.637 743.13 590.218 713.135 590.218Z" fill="#8ADAFB"/>
<path d="M831.82 256.316C831.82 383.234 750.869 490.634 639.362 526.487C613.588 534.774 613.677 657.197 585.261 657.197C433.905 657.197 283.713 412.57 283.713 256.316C283.713 100.062 406.411 -26.6065 557.767 -26.6065C709.122 -26.6065 831.82 100.062 831.82 256.316Z" fill="#E0EDFF"/>
<ellipse cx="544.462" cy="217.292" rx="232.369" ry="229.708" fill="white"/>
</g>
</g>
<ellipse cx="571.072" cy="351.214" rx="15.9643" ry="15.9643" fill="#FE9C8F"/>
<mask id="path-9-inside-1_101_1464" fill="white">
<path d="M592.297 351.111C593.31 351.111 594.138 350.288 594.058 349.279C593.652 344.187 591.564 339.353 588.094 335.556C584.211 331.306 578.879 328.663 573.146 328.145C567.413 327.627 561.693 329.272 557.111 332.757C552.529 336.242 549.417 341.314 548.385 346.978C547.353 352.641 548.477 358.485 551.535 363.362C554.594 368.239 559.366 371.796 564.914 373.333C570.461 374.87 576.383 374.277 581.515 371.669C586.101 369.34 589.76 365.553 591.935 360.931C592.366 360.015 591.881 358.953 590.934 358.596C589.986 358.239 588.937 358.723 588.492 359.632C586.649 363.4 583.624 366.486 579.855 368.401C575.538 370.594 570.558 371.093 565.892 369.8C561.227 368.507 557.214 365.516 554.641 361.414C552.069 357.313 551.124 352.398 551.992 347.635C552.859 342.872 555.477 338.606 559.331 335.675C563.184 332.744 567.994 331.36 572.816 331.796C577.638 332.231 582.122 334.455 585.388 338.029C588.24 341.15 589.982 345.104 590.378 349.28C590.473 350.288 591.285 351.111 592.297 351.111Z"/>
</mask>
<path d="M592.297 351.111C593.31 351.111 594.138 350.288 594.058 349.279C593.652 344.187 591.564 339.353 588.094 335.556C584.211 331.306 578.879 328.663 573.146 328.145C567.413 327.627 561.693 329.272 557.111 332.757C552.529 336.242 549.417 341.314 548.385 346.978C547.353 352.641 548.477 358.485 551.535 363.362C554.594 368.239 559.366 371.796 564.914 373.333C570.461 374.87 576.383 374.277 581.515 371.669C586.101 369.34 589.76 365.553 591.935 360.931C592.366 360.015 591.881 358.953 590.934 358.596C589.986 358.239 588.937 358.723 588.492 359.632C586.649 363.4 583.624 366.486 579.855 368.401C575.538 370.594 570.558 371.093 565.892 369.8C561.227 368.507 557.214 365.516 554.641 361.414C552.069 357.313 551.124 352.398 551.992 347.635C552.859 342.872 555.477 338.606 559.331 335.675C563.184 332.744 567.994 331.36 572.816 331.796C577.638 332.231 582.122 334.455 585.388 338.029C588.24 341.15 589.982 345.104 590.378 349.28C590.473 350.288 591.285 351.111 592.297 351.111Z" fill="#FE9C8F" stroke="#FE9C8F" stroke-width="2" mask="url(#path-9-inside-1_101_1464)"/>
<path d="M399.011 264.93C397.907 264.93 397.011 265.826 397.011 266.93C397.011 268.035 397.907 268.93 399.011 268.93L399.011 264.93ZM487.701 266.93L489.116 265.516L488.53 264.93L487.701 264.93L487.701 266.93ZM399.011 268.93L487.701 268.93L487.701 264.93L399.011 264.93L399.011 268.93ZM486.287 268.344L554.579 336.664L557.408 333.836L489.116 265.516L486.287 268.344Z" fill="#FE9C8F"/>
<rect x="266.477" y="246.956" width="110.75" height="7.86904" rx="3.93452" fill="#FE9C8F" stroke="#FE9C8F"/>
<rect x="266.477" y="289.527" width="110.75" height="7.86904" rx="3.93452" fill="#FE9C8F" stroke="#FE9C8F"/>
<rect x="266.477" y="268.241" width="69.9524" height="7.86904" rx="3.93452" fill="#FE9C8F" stroke="#FE9C8F"/>
<rect x="351.619" y="268.241" width="25.6071" height="7.86904" rx="3.93452" fill="#FE9C8F" stroke="#FE9C8F"/>
<g filter="url(#filter2_d_101_1464)">
<path d="M819.406 383.143H810.537L811.424 399.994H818.519L819.406 383.143Z" fill="#FCCDC7"/>
<rect width="8.86904" height="12.4167" rx="2" transform="matrix(-1 0 0 1 819.406 377.822)" fill="#CB766B"/>
<path d="M806.102 376.935C806.811 394.673 821.179 386.691 821.179 386.691C821.179 386.691 822.953 381.369 823.84 379.595C827.388 372.5 817.927 377.526 814.971 378.709C823.391 373.387 811.423 371.613 808.762 372.5C806.634 373.21 806.102 375.457 806.102 376.935Z" fill="#FCCDC7"/>
<path d="M844.237 569.393C843.942 569.098 844.592 567.619 849.559 564.072H852.22L853.993 575.602H847.785L844.237 569.393Z" fill="#FCCDC7"/>
<path d="M799.005 583.584L798.118 573.828H791.023V584.471L799.005 583.584Z" fill="#FCCDC7"/>
<path d="M839.802 589.792C843.35 586.245 853.106 582.401 857.541 580.923L854.88 573.828C851.628 573.532 844.237 574.537 840.689 580.923C837.142 587.309 838.62 589.497 839.802 589.792Z" fill="#1E1E1E"/>
<path d="M799.005 589.792V582.697H793.683C780.912 584.116 778.902 588.018 779.493 589.792H799.005Z" fill="#1E1E1E"/>
<path d="M834.482 483.363L829.161 473.607L794.571 471.834C789.25 484.25 779.317 511.39 782.155 520.613C784.993 529.837 788.068 562.298 789.25 577.375H799.893C801.962 564.959 805.569 537.819 803.441 528.596C801.312 519.372 807.884 513.518 811.436 511.744C815.752 529.205 834.253 559.233 844.238 573.828L853.107 567.619C853.817 557.686 849.855 546.925 847.786 542.786C835.014 522.919 833.595 494.893 834.482 483.363Z" fill="#8ADAFB"/>
<path d="M815.858 379.595C813.729 379.595 813.788 378.412 814.084 377.821C814.084 376.934 814.971 376.934 815.858 376.047C816.376 375.529 816.745 373.387 813.197 374.274C809.755 375.134 805.511 375.16 803.441 374.274C804.328 372.204 802.676 371.995 805.215 370.726C806.989 369.839 814.084 363.631 821.179 368.952C828.274 374.274 827.388 378.708 824.727 383.143C822.066 387.577 819.405 387.577 818.518 387.577C817.809 387.577 817.632 386.395 817.632 385.803C817.336 384.916 817.337 385.211 819.405 383.143C820.292 382.256 821.475 380.186 820.292 378.708C818.518 377.821 817.986 379.595 815.858 379.595Z" fill="#14044E"/>
<path d="M821.178 396.447C817.032 397.938 815.589 397.418 811.423 396.447L807.875 397.334L806.101 399.994L802.553 414.185L799.006 454.096L798.119 465.625L809.649 470.06L811.423 454.096L821.178 396.447Z" fill="#FE9C8F"/>
<path d="M814.97 397.334C814.97 394.495 820.883 395.56 823.839 396.447C837.143 403.542 838.03 416.845 834.482 431.923C831.644 443.985 834.482 469.468 836.256 480.703C829.87 487.088 813.492 488.093 806.101 487.798C801.844 467.222 803.838 447.296 805.214 439.905C808.762 440.615 814.083 436.653 815.857 434.584C814.97 433.697 807.745 426.601 804.493 422.167C816.91 410.637 814.97 400.881 814.97 397.334Z" fill="white"/>
<path d="M776.833 411.524C783.928 404.429 802.849 398.516 811.423 396.447C809.353 397.007 805.214 400.63 805.214 410.637C805.214 423.146 798.119 422.167 801.667 436.357C803.591 444.053 798.119 460.304 797.232 467.399C787.476 451.73 769.738 418.619 776.833 411.524Z" fill="white"/>
<rect width="3.73842" height="118.832" transform="matrix(-0.91716 0.39852 0.39852 0.91716 740.119 347.666)" fill="#514DA1"/>
<path d="M748.196 355.018L742.563 357.466L736.929 359.913L740.651 383.892L741.69 386.284L743.769 391.069L747.927 400.638L764.559 438.914L797.025 513.633C797.465 514.646 798.643 515.11 799.656 514.67L818.523 506.473C819.536 506.032 820 504.854 819.56 503.841L787.093 429.123L770.462 390.846L766.304 381.277L764.225 376.492L763.185 374.1L748.196 355.018Z" fill="#A19FD1"/>
<rect width="27.4016" height="118.832" transform="matrix(-0.91716 0.39852 0.39852 0.91716 764.953 374.274)" fill="#514DA1"/>
<rect width="27.4419" height="2.1221" transform="matrix(-0.91713 0.398589 0.398589 0.91713 770.058 385.974)" fill="#F9CAA7"/>
<rect width="27.4067" height="2.1221" transform="matrix(-0.91713 0.398589 0.398589 0.91713 767.875 380.83)" fill="#F9CAA7"/>
<rect width="27.4053" height="2.1221" transform="matrix(-0.91713 0.398589 0.398589 0.91713 809.692 477.155)" fill="#F9CAA7"/>
<rect width="27.3739" height="2.1221" transform="matrix(-0.91713 0.398589 0.398589 0.91713 807.432 472.043)" fill="#F9CAA7"/>
<ellipse cx="20.3988" cy="20.3988" rx="20.3988" ry="20.3988" transform="matrix(-1 0 0 1 752 308.643)" fill="url(#paint2_linear_101_1464)" fill-opacity="0.3"/>
<path d="M724.505 317.512C724.505 321.431 728.476 323.721 733.374 323.721C738.272 323.721 745.791 330.3 745.791 326.382C745.791 322.463 739.159 313.965 734.261 313.965C729.363 313.965 724.505 313.594 724.505 317.512Z" fill="white" fill-opacity="0.2"/>
<path d="M707.654 329.929C707.654 342.664 717.979 352.988 730.714 352.988C743.449 352.988 753.773 342.664 753.773 329.929C753.773 317.193 743.449 306.869 730.714 306.869C717.979 306.869 707.654 317.193 707.654 329.929ZM749.91 329.929C749.91 340.531 741.316 349.125 730.714 349.125C720.112 349.125 711.517 340.531 711.517 329.929C711.517 319.327 720.112 310.732 730.714 310.732C741.316 310.732 749.91 319.327 749.91 329.929Z" fill="#514DA1"/>
<path d="M823.84 423.054C819.676 431.589 818.164 436.8 805.215 440.792V444.339L807.876 445.226C815.777 440.196 822.764 432.971 822.953 430.149L823.84 423.054Z" fill="#D9D9D9"/>
<path d="M806.101 423.941L816.743 434.584C816.034 438.131 793.684 447 782.154 441.679C779.73 440.56 775.059 439.905 772.398 441.679C770.531 442.923 768.259 444.044 765.303 443.453C762.347 442.861 758.208 434.584 760.868 436.357C762.997 437.776 766.486 436.357 767.964 435.47C767.077 433.697 764.416 432.81 766.19 431.036C771.511 431.036 772.398 434.584 775.946 434.584C783.041 437.422 799.005 428.671 806.101 423.941Z" fill="#FCCDC7"/>
</g>
<g filter="url(#filter3_d_101_1464)">
<mask id="mask1_101_1464" style="mask-type:alpha" maskUnits="userSpaceOnUse" x="358" y="514" width="77" height="74">
<path d="M404.874 542.422C410.486 541.955 414.865 534.782 417.706 527.661C418.601 532.656 419.883 537.989 420.838 541.536C415.871 549.34 416.403 574.942 417.29 586.768C418.473 586.768 428.998 587.477 429.707 586.768C430.594 585.881 423.499 581.446 422.612 576.125C421.902 571.868 430.298 542.127 434.142 529.119L432.368 520.25C428.229 517.293 419.419 512.09 417.29 514.928C416.911 515.435 416.713 516.363 416.657 517.589H402.213C402.509 519.954 402.922 526.103 402.213 531.78C401.503 537.456 377.675 532.371 363.189 530.006L358.754 534.44V542.422C360.233 543.014 360.528 534.44 368.51 537.101C372.945 534.44 394.231 543.309 404.874 542.422Z" fill="#FCCDC7"/>
</mask>
<g mask="url(#mask1_101_1464)">
<path d="M404.874 542.422C410.486 541.955 414.865 534.782 417.706 527.661C418.601 532.656 419.883 537.989 420.838 541.536C415.871 549.34 416.403 574.942 417.29 586.768C418.473 586.768 428.998 587.477 429.707 586.768C430.594 585.881 423.499 581.446 422.612 576.125C421.902 571.868 430.298 542.127 434.142 529.119L432.368 520.25C428.229 517.293 419.419 512.09 417.29 514.928C416.911 515.435 416.713 516.363 416.657 517.589H402.213C402.509 519.954 402.922 526.103 402.213 531.78C401.503 537.456 377.675 532.371 363.189 530.006L358.754 534.44V542.422C360.233 543.014 360.528 534.44 368.51 537.101C372.945 534.44 394.231 543.309 404.874 542.422Z" fill="#FCCDC7"/>
<path d="M439.515 504.807C438.981 499.476 434.495 495.416 429.138 495.416H412.554C408.339 495.416 404.433 497.628 402.264 501.242L395.107 513.17C393.493 515.86 393.604 519.246 395.389 521.826C398.584 526.44 403.687 529.369 409.282 529.799L440.639 532.211C443.468 532.429 445.618 529.714 444.758 527.01L442.893 521.148C441.202 515.834 440.07 510.357 439.515 504.807Z" fill="#764B45"/>
</g>
<path d="M495.136 272.434C495.268 272.091 495.335 271.728 495.335 271.361L495.336 263.36C495.336 262.622 495.743 261.944 496.395 261.596L520.806 248.577C521.532 248.189 522.385 248.117 523.166 248.378L524.176 248.714C524.46 248.809 524.728 248.945 524.971 249.119L530.19 252.847C530.595 253.136 530.897 253.545 531.055 254.017L531.072 254.071C531.432 255.15 530.944 256.33 529.926 256.839C528.912 257.346 527.68 257.019 527.052 256.076L526.706 255.557C526.489 255.232 526.211 254.954 525.887 254.738L524.822 254.028C524.118 253.559 523.25 253.408 522.43 253.613L520.489 254.098C520.277 254.152 520.071 254.228 519.875 254.326L499.988 264.269C499.311 264.607 498.883 265.3 498.883 266.057L498.883 271.366C498.883 271.729 498.817 272.09 498.687 272.43L450.966 398.176L447.472 396.846L495.136 272.434Z" fill="#514DA1"/>
<path d="M486.888 280.746L498.343 285.106L454.754 399.617L443.299 395.257L486.888 280.746Z" fill="#A19FD1"/>
<path d="M482.02 293.504L487.76 295.69L493.501 297.875L490.89 322L489.962 324.437L488.107 329.313L484.395 339.064L469.548 378.067L440.566 454.205C440.173 455.237 439.018 455.756 437.985 455.363L418.761 448.045C417.728 447.652 417.21 446.497 417.603 445.464L446.585 369.326L461.432 330.323L465.144 320.572L467 315.696L467.927 313.259L482.02 293.504Z" fill="#A19FD1"/>
<rect width="27.4017" height="118.832" transform="matrix(0.934582 0.355749 -0.355751 0.934581 466.169 313.514)" fill="#514DA1"/>
<rect width="27.442" height="2.1221" transform="matrix(0.934555 0.355819 -0.355822 0.934554 461.61 325.437)" fill="#F9CAA7"/>
<rect width="27.4068" height="2.1221" transform="matrix(0.934555 0.355819 -0.355822 0.934554 463.554 320.199)" fill="#F9CAA7"/>
<rect width="27.4055" height="2.1221" transform="matrix(0.934555 0.355819 -0.355822 0.934554 426.23 418.351)" fill="#F9CAA7"/>
<rect width="27.374" height="2.1221" transform="matrix(0.934555 0.355819 -0.355822 0.934554 428.249 413.14)" fill="#F9CAA7"/>
<path d="M436.853 501.26C436.32 495.929 431.834 491.869 426.476 491.869H409.893C405.678 491.869 401.771 494.081 399.603 497.695L392.446 509.623C390.832 512.313 390.942 515.699 392.728 518.279C395.922 522.893 401.026 525.821 406.621 526.252L437.978 528.664C440.807 528.882 442.957 526.167 442.097 523.463L440.231 517.601C438.54 512.286 437.408 506.81 436.853 501.26Z" fill="#FE9C8F"/>
<path d="M416.402 583.22C421.369 589.606 427.932 587.063 430.593 584.994L439.462 589.429C439.992 589.535 439.915 590.315 439.374 590.315H426.158C424.739 588.187 421.428 589.429 419.95 590.315H415.515C414.806 590.315 415.811 585.585 416.402 583.22Z" fill="#1E1E1E"/>
<path d="M364.688 530.167C357.286 533.432 358.156 540.416 359.516 543.501L353.058 551.025C352.826 551.513 352.087 551.249 352.219 550.724L355.433 537.905C357.843 537.046 357.443 533.533 356.943 531.883L358.021 527.582C358.194 526.893 362.537 529.019 364.688 530.167Z" fill="#1E1E1E"/>
<path d="M469.619 372.137L468.732 382.78C467.253 383.371 464.297 384.376 464.297 383.667V373.024C464.297 370.363 462.523 367.702 461.636 365.928C460.749 364.155 463.41 362.381 464.297 362.381C465.184 362.381 464.297 365.042 466.071 365.928C467.845 366.815 468.732 359.517 468.732 357.946C468.732 356.69 471.097 356.832 472.279 357.059C473.462 360.016 475.295 366.283 473.166 367.702C471.038 369.121 469.914 371.25 469.619 372.137Z" fill="#FCCDC7"/>
<path d="M421.723 392.536C421.723 397.924 423.126 399.631 427.044 399.631C430.963 399.631 429.705 397.924 429.705 392.535C429.705 387.147 424.384 383.666 424.384 383.666C420.465 383.666 421.723 387.147 421.723 392.536Z" fill="#FCCDC7"/>
<path d="M462.521 377.458L470.503 379.232V409.387C470.503 412.935 449.217 430.377 438.574 438.655C448.33 444.863 435.914 458.167 433.253 469.696C431.124 478.92 440.348 492.756 437.688 498.964C428.464 509.607 406.054 509.016 396.003 506.06C390.327 501.802 393.638 488.617 396.003 483.887C410.193 461.182 406.646 448.411 403.098 444.863L405.759 440.429C412.263 430.377 425.98 410.451 428.818 411.161C431.657 411.87 432.957 414.413 433.253 415.595H436.801C438.929 409.919 451.287 404.952 457.2 403.179C457.2 398.212 460.747 383.962 462.521 377.458Z" fill="white"/>
<path d="M428.82 413.821C435.205 405.307 429.115 398.448 425.272 396.083C426.454 390.466 426.514 379.232 417.29 379.232C408.066 379.232 406.351 389.875 406.647 395.196C402.804 394.901 395.472 395.906 396.891 402.291C398.31 408.677 397.482 415.004 396.891 417.369C393.343 418.847 387.844 423.045 394.23 428.012C402.212 434.22 401.325 437.768 402.212 437.768C403.099 437.768 390.683 443.976 403.099 449.297C413.033 453.555 419.655 445.159 421.724 440.428C433.786 442.557 434.437 434.22 433.254 429.785C429.115 428.012 422.434 422.335 428.82 413.821Z" fill="#14044E"/>
</g>
<g filter="url(#filter4_d_101_1464)">
<rect x="127.619" y="358.309" width="186.25" height="184.476" rx="18" fill="white"/>
</g>
<path d="M264.911 388.135C252.62 379.362 237.954 374.532 222.855 374.284L222.365 404.08C231.424 404.229 240.224 407.127 247.599 412.391L264.911 388.135Z" fill="#7577EF"/>
<path d="M232.414 522.489C225.696 523.472 218.874 523.532 212.14 522.667L215.936 493.11C219.977 493.629 224.07 493.593 228.101 493.003L232.414 522.489Z" fill="#BE29C6"/>
<path d="M212.187 522.673C197.274 520.767 183.287 514.394 172.064 504.392C160.84 494.389 152.905 481.225 149.302 466.63L178.234 459.487C180.396 468.245 185.156 476.143 191.891 482.145C198.625 488.146 207.017 491.97 215.964 493.113L212.187 522.673Z" fill="#D1FFF7"/>
<path d="M149.382 466.951C145.714 452.372 146.543 437.023 151.759 422.924C156.976 408.824 166.336 396.632 178.61 387.951L195.818 412.28C188.454 417.489 182.838 424.804 179.708 433.264C176.578 441.724 176.081 450.932 178.282 459.68L149.382 466.951Z" fill="#A5B94E"/>
<path d="M178.533 388.005C191.477 378.825 207.013 374.018 222.88 374.284L222.38 404.08C212.86 403.921 203.538 406.805 195.772 412.313L178.533 388.005Z" fill="#FFCB78"/>
<path d="M232.414 522.489C247.151 520.334 260.904 513.81 271.897 503.761C282.89 493.711 290.619 480.598 294.085 466.112C297.552 451.627 296.596 436.435 291.343 422.498C286.09 408.561 276.78 396.519 264.615 387.925L247.422 412.265C254.721 417.421 260.307 424.646 263.458 433.008C266.61 441.371 267.183 450.486 265.103 459.177C263.024 467.868 258.387 475.736 251.791 481.766C245.195 487.796 236.943 491.71 228.101 493.003L232.414 522.489Z" fill="#F14D4D"/>
<g filter="url(#filter5_d_101_1464)">
<rect x="714.75" y="31.9292" width="186.25" height="118.845" rx="18" fill="white"/>
</g>
<path d="M737.809 72.985L776.68 111.61C777.774 112.697 779.512 112.778 780.702 111.798L791.842 102.624C792.92 101.736 794.468 101.709 795.576 102.559L828.79 128.049C830.332 129.233 832.577 128.659 833.361 126.879L854.438 79.0513C854.723 78.4032 855.229 77.877 855.865 77.5659L877.939 66.7754" stroke="#8ADAFB" stroke-width="6" stroke-linecap="round"/>
<path d="M825.611 325.311C825.611 323.102 827.402 321.311 829.611 321.311H906.754C908.963 321.311 910.754 323.102 910.754 325.311V361.657C910.754 363.866 908.963 365.657 906.754 365.657H868.183H850.624C850.506 365.657 850.388 365.678 850.276 365.719L841.879 368.84C841.682 368.913 841.513 369.047 841.396 369.222L834.48 379.596V366.657C834.48 366.104 834.033 365.657 833.48 365.657H829.611C827.402 365.657 825.611 363.866 825.611 361.657V325.311Z" fill="#FE9C8F"/>
<ellipse cx="847.786" cy="344.119" rx="5.32143" ry="5.32143" fill="white"/>
<ellipse cx="867.296" cy="344.119" rx="5.32143" ry="5.32143" fill="white"/>
<ellipse cx="886.811" cy="344.119" rx="5.32143" ry="5.32143" fill="white"/>
<defs>
<filter id="filter0_d_101_1464" x="0" y="55.536" width="961.214" height="546.143" filterUnits="userSpaceOnUse" color-interpolation-filters="sRGB">
<feFlood flood-opacity="0" result="BackgroundImageFix"/>
<feColorMatrix in="SourceAlpha" type="matrix" values="0 0 0 0 0 0 0 0 0 0 0 0 0 0 0 0 0 0 127 0" result="hardAlpha"/>
<feOffset dy="4"/>
<feGaussianBlur stdDeviation="3.5"/>
<feComposite in2="hardAlpha" operator="out"/>
<feColorMatrix type="matrix" values="0 0 0 0 0 0 0 0 0 0 0 0 0 0 0 0 0 0 0.25 0"/>
<feBlend mode="normal" in2="BackgroundImageFix" result="effect1_dropShadow_101_1464"/>
<feBlend mode="normal" in="SourceGraphic" in2="effect1_dropShadow_101_1464" result="shape"/>
</filter>
<filter id="filter1_d_101_1464" x="435.809" y="168.512" width="426.946" height="429.706" filterUnits="userSpaceOnUse" color-interpolation-filters="sRGB">
<feFlood flood-opacity="0" result="BackgroundImageFix"/>
<feColorMatrix in="SourceAlpha" type="matrix" values="0 0 0 0 0 0 0 0 0 0 0 0 0 0 0 0 0 0 127 0" result="hardAlpha"/>
<feOffset dy="4"/>
<feGaussianBlur stdDeviation="2"/>
<feComposite in2="hardAlpha" operator="out"/>
<feColorMatrix type="matrix" values="0 0 0 0 0 0 0 0 0 0 0 0 0 0 0 0 0 0 0.25 0"/>
<feBlend mode="normal" in2="BackgroundImageFix" result="effect1_dropShadow_101_1464"/>
<feBlend mode="normal" in="SourceGraphic" in2="effect1_dropShadow_101_1464" result="shape"/>
</filter>
<filter id="filter2_d_101_1464" x="703.654" y="306.869" width="157.886" height="290.923" filterUnits="userSpaceOnUse" color-interpolation-filters="sRGB">
<feFlood flood-opacity="0" result="BackgroundImageFix"/>
<feColorMatrix in="SourceAlpha" type="matrix" values="0 0 0 0 0 0 0 0 0 0 0 0 0 0 0 0 0 0 127 0" result="hardAlpha"/>
<feOffset dy="4"/>
<feGaussianBlur stdDeviation="2"/>
<feComposite in2="hardAlpha" operator="out"/>
<feColorMatrix type="matrix" values="0 0 0 0 0 0 0 0 0 0 0 0 0 0 0 0 0 0 0.25 0"/>
<feBlend mode="normal" in2="BackgroundImageFix" result="effect1_dropShadow_101_1464"/>
<feBlend mode="normal" in="SourceGraphic" in2="effect1_dropShadow_101_1464" result="shape"/>
</filter>
<filter id="filter3_d_101_1464" x="348.203" y="248.224" width="186.987" height="350.092" filterUnits="userSpaceOnUse" color-interpolation-filters="sRGB">
<feFlood flood-opacity="0" result="BackgroundImageFix"/>
<feColorMatrix in="SourceAlpha" type="matrix" values="0 0 0 0 0 0 0 0 0 0 0 0 0 0 0 0 0 0 127 0" result="hardAlpha"/>
<feOffset dy="4"/>
<feGaussianBlur stdDeviation="2"/>
<feComposite in2="hardAlpha" operator="out"/>
<feColorMatrix type="matrix" values="0 0 0 0 0 0 0 0 0 0 0 0 0 0 0 0 0 0 0.25 0"/>
<feBlend mode="normal" in2="BackgroundImageFix" result="effect1_dropShadow_101_1464"/>
<feBlend mode="normal" in="SourceGraphic" in2="effect1_dropShadow_101_1464" result="shape"/>
</filter>
<filter id="filter4_d_101_1464" x="123.619" y="358.309" width="194.25" height="192.476" filterUnits="userSpaceOnUse" color-interpolation-filters="sRGB">
<feFlood flood-opacity="0" result="BackgroundImageFix"/>
<feColorMatrix in="SourceAlpha" type="matrix" values="0 0 0 0 0 0 0 0 0 0 0 0 0 0 0 0 0 0 127 0" result="hardAlpha"/>
<feOffset dy="4"/>
<feGaussianBlur stdDeviation="2"/>
<feComposite in2="hardAlpha" operator="out"/>
<feColorMatrix type="matrix" values="0 0 0 0 0 0 0 0 0 0 0 0 0 0 0 0 0 0 0.25 0"/>
<feBlend mode="normal" in2="BackgroundImageFix" result="effect1_dropShadow_101_1464"/>
<feBlend mode="normal" in="SourceGraphic" in2="effect1_dropShadow_101_1464" result="shape"/>
</filter>
<filter id="filter5_d_101_1464" x="710.75" y="31.9292" width="194.25" height="126.845" filterUnits="userSpaceOnUse" color-interpolation-filters="sRGB">
<feFlood flood-opacity="0" result="BackgroundImageFix"/>
<feColorMatrix in="SourceAlpha" type="matrix" values="0 0 0 0 0 0 0 0 0 0 0 0 0 0 0 0 0 0 127 0" result="hardAlpha"/>
<feOffset dy="4"/>
<feGaussianBlur stdDeviation="2"/>
<feComposite in2="hardAlpha" operator="out"/>
<feColorMatrix type="matrix" values="0 0 0 0 0 0 0 0 0 0 0 0 0 0 0 0 0 0 0.25 0"/>
<feBlend mode="normal" in2="BackgroundImageFix" result="effect1_dropShadow_101_1464"/>
<feBlend mode="normal" in="SourceGraphic" in2="effect1_dropShadow_101_1464" result="shape"/>
</filter>
<linearGradient id="paint0_linear_101_1464" x1="501.737" y1="72.7254" x2="501.737" y2="590.803" gradientUnits="userSpaceOnUse">
<stop stop-color="#FAD9C1"/>
<stop offset="1" stop-color="#FFDDC4"/>
</linearGradient>
<linearGradient id="paint1_linear_101_1464" x1="270.411" y1="141.905" x2="1247.78" y2="745" gradientUnits="userSpaceOnUse">
<stop stop-color="#F9CAA7"/>
<stop offset="1" stop-color="#FF9C52"/>
</linearGradient>
<linearGradient id="paint2_linear_101_1464" x1="10.6429" y1="6.20833" x2="20.3988" y2="40.7976" gradientUnits="userSpaceOnUse">
<stop stop-color="#E29A9A"/>
<stop offset="0.47779" stop-color="#5043C2"/>
<stop offset="1" stop-color="#619DE1"/>
</linearGradient>
</defs>
</svg>
