<svg width="1645" height="580" viewBox="0 0 1645 580" fill="none" xmlns="http://www.w3.org/2000/svg">
<rect x="432" y="119" width="1213" height="303" rx="11" fill="white"/>
<rect x="449" y="135" width="1180" height="271" rx="7" stroke="black" stroke-width="8"/>
<path d="M685.88 260.984C684.6 261.923 682.595 263.075 679.864 264.44C677.133 265.805 673.891 267 670.136 268.024C666.467 268.963 662.371 269.389 657.848 269.304C650.595 269.219 644.067 267.939 638.264 265.464C632.461 262.904 627.555 259.491 623.544 255.224C619.533 250.872 616.419 245.923 614.2 240.376C612.067 234.744 611 228.771 611 222.456C611 215.373 612.109 208.888 614.328 203C616.547 197.112 619.704 192.035 623.8 187.768C627.896 183.416 632.76 180.045 638.392 177.656C644.024 175.267 650.168 174.072 656.824 174.072C662.712 174.072 667.96 174.883 672.568 176.504C677.261 178.04 681.187 179.789 684.344 181.752L678.456 195.832C676.067 194.125 673.08 192.461 669.496 190.84C665.912 189.219 661.859 188.408 657.336 188.408C653.24 188.408 649.315 189.261 645.56 190.968C641.805 192.589 638.52 194.936 635.704 198.008C632.888 200.995 630.627 204.493 628.92 208.504C627.299 212.515 626.488 216.867 626.488 221.56C626.488 226.424 627.213 230.904 628.664 235C630.2 239.011 632.333 242.509 635.064 245.496C637.88 248.483 641.208 250.829 645.048 252.536C648.973 254.157 653.325 254.968 658.104 254.968C662.968 254.968 667.192 254.243 670.776 252.792C674.445 251.256 677.389 249.549 679.608 247.672L685.88 260.984Z" fill="#1E1E1E"/>
<path d="M707.04 175.096H722.016V253.944H767.968V268.28H707.04V175.096Z" fill="#1E1E1E"/>
<path d="M788.945 175.096H850.769V189.432H803.921V214.264H845.649V228.728H803.921V253.944H852.561V268.28H788.945V175.096Z" fill="#1E1E1E"/>
<path d="M864.747 268.28L905.963 171.256H906.859L948.075 268.28H930.923L901.867 194.68L912.619 187.384L879.467 268.28H864.747ZM890.603 233.72H922.475L927.595 246.392H886.123L890.603 233.72Z" fill="#1E1E1E"/>
<path d="M1047.17 271.608L975.623 202.232L979.975 204.024L980.359 268.28H965.255V171.896H965.895L1036.42 241.272L1032.97 240.248L1032.71 175.096H1047.56V271.608H1047.17Z" fill="#1E1E1E"/>
<path d="M1192.34 268.28C1191.4 268.28 1189.99 268.28 1188.11 268.28C1186.23 268.28 1184.27 268.28 1182.22 268.28C1180.26 268.28 1178.55 268.28 1177.1 268.28C1175.74 268.28 1175.05 268.28 1175.05 268.28L1131.79 210.808C1131.02 209.613 1130.04 208.077 1128.85 206.2C1127.74 204.237 1126.76 202.104 1125.9 199.8C1125.14 197.411 1124.75 194.979 1124.75 192.504C1124.75 188.92 1125.6 185.507 1127.31 182.264C1129.1 179.021 1131.75 176.333 1135.25 174.2C1138.83 172.067 1143.14 171 1148.17 171C1153.64 171 1158.5 172.109 1162.77 174.328C1167.03 176.461 1170.45 179.064 1173.01 182.136L1165.58 192.12C1162.94 189.475 1160.38 187.384 1157.9 185.848C1155.43 184.312 1153 183.544 1150.61 183.544C1147.19 183.544 1144.59 184.568 1142.8 186.616C1141.01 188.664 1140.11 191.053 1140.11 193.784C1140.11 195.149 1140.41 196.6 1141.01 198.136C1141.69 199.672 1142.37 201.037 1143.05 202.232C1143.74 203.341 1144.16 204.067 1144.34 204.408L1192.34 268.28ZM1143.44 224.376C1141.14 224.376 1138.92 224.845 1136.78 225.784C1134.74 226.637 1132.9 227.832 1131.28 229.368C1129.66 230.904 1128.38 232.653 1127.44 234.616C1126.59 236.579 1126.16 238.669 1126.16 240.888C1126.16 243.96 1126.93 246.648 1128.46 248.952C1130 251.256 1132.09 253.091 1134.73 254.456C1137.47 255.736 1140.45 256.376 1143.7 256.376C1146.77 256.376 1149.41 255.907 1151.63 254.968C1153.85 254.029 1155.73 252.792 1157.26 251.256C1158.8 249.72 1159.99 248.013 1160.85 246.136L1170.32 254.328C1168.1 258.595 1164.56 262.221 1159.7 265.208C1154.92 268.195 1148.9 269.688 1141.65 269.688C1135.84 269.688 1130.6 268.493 1125.9 266.104C1121.21 263.629 1117.5 260.301 1114.77 256.12C1112.04 251.853 1110.67 247.032 1110.67 241.656C1110.67 237.56 1111.57 233.805 1113.36 230.392C1115.24 226.893 1117.71 223.864 1120.78 221.304C1123.94 218.744 1127.44 216.696 1131.28 215.16C1135.2 213.624 1139.17 212.813 1143.18 212.728L1143.44 224.376ZM1173.78 212.728H1187.47L1172.11 251.768L1161.36 245.24L1173.78 212.728Z" fill="#1E1E1E"/>
<path d="M1302.9 194.04C1299.57 192.333 1296.03 190.883 1292.27 189.688C1288.52 188.408 1284.93 187.768 1281.52 187.768C1276.91 187.768 1273.24 188.792 1270.51 190.84C1267.87 192.888 1266.54 195.704 1266.54 199.288C1266.54 201.848 1267.48 204.109 1269.36 206.072C1271.24 207.949 1273.63 209.613 1276.53 211.064C1279.43 212.429 1282.5 213.752 1285.74 215.032C1288.56 216.056 1291.33 217.293 1294.06 218.744C1296.88 220.109 1299.4 221.816 1301.62 223.864C1303.83 225.912 1305.58 228.472 1306.86 231.544C1308.23 234.531 1308.91 238.243 1308.91 242.68C1308.91 247.544 1307.67 252.024 1305.2 256.12C1302.73 260.131 1299.18 263.331 1294.58 265.72C1289.97 268.109 1284.34 269.304 1277.68 269.304C1273.84 269.304 1270.04 268.877 1266.29 268.024C1262.62 267.171 1259.12 266.019 1255.79 264.568C1252.46 263.032 1249.39 261.325 1246.58 259.448L1253.23 247.8C1255.28 249.336 1257.63 250.744 1260.27 252.024C1262.92 253.304 1265.65 254.328 1268.46 255.096C1271.28 255.779 1273.93 256.12 1276.4 256.12C1279.05 256.12 1281.65 255.693 1284.21 254.84C1286.85 253.987 1289.03 252.579 1290.74 250.616C1292.53 248.653 1293.42 246.051 1293.42 242.808C1293.42 240.163 1292.66 237.901 1291.12 236.024C1289.58 234.147 1287.58 232.525 1285.1 231.16C1282.71 229.709 1280.07 228.429 1277.17 227.32C1274.27 226.211 1271.28 224.973 1268.21 223.608C1265.22 222.243 1262.45 220.579 1259.89 218.616C1257.33 216.568 1255.24 214.093 1253.62 211.192C1251.99 208.291 1251.18 204.707 1251.18 200.44C1251.18 195.32 1252.38 190.883 1254.77 187.128C1257.16 183.373 1260.44 180.387 1264.62 178.168C1268.89 175.949 1273.8 174.755 1279.34 174.584C1285.91 174.584 1291.5 175.395 1296.11 177.016C1300.81 178.552 1304.94 180.429 1308.53 182.648L1302.9 194.04Z" fill="#1E1E1E"/>
<path d="M1329.78 175.096H1391.6V189.432H1344.76V214.264H1386.48V228.728H1344.76V253.944H1393.4V268.28H1329.78V175.096Z" fill="#1E1E1E"/>
<path d="M1405.58 268.28L1446.8 171.256H1447.69L1488.91 268.28H1471.76L1442.7 194.68L1453.45 187.384L1420.3 268.28H1405.58ZM1431.44 233.72H1463.31L1468.43 246.392H1426.96L1431.44 233.72Z" fill="#1E1E1E"/>
<path d="M1506.09 175.096H1521.07V253.944H1567.02V268.28H1506.09V175.096Z" fill="#1E1E1E"/>
<path d="M631.56 369.28V299.392H651.432C658.408 299.392 664.328 300.448 669.192 302.56C674.056 304.608 677.992 307.392 681 310.912C684.008 314.368 686.184 318.24 687.528 322.528C688.936 326.752 689.64 331.008 689.64 335.296C689.64 340.544 688.712 345.248 686.856 349.408C685 353.568 682.472 357.152 679.272 360.16C676.072 363.104 672.36 365.376 668.136 366.976C663.976 368.512 659.528 369.28 654.792 369.28H631.56ZM642.792 358.528H652.776C656.488 358.528 659.88 358.016 662.952 356.992C666.024 355.904 668.68 354.368 670.92 352.384C673.224 350.336 674.984 347.808 676.2 344.8C677.48 341.792 678.12 338.368 678.12 334.528C678.12 330.176 677.384 326.464 675.912 323.392C674.504 320.256 672.616 317.728 670.248 315.808C667.944 313.824 665.416 312.384 662.664 311.488C659.912 310.592 657.192 310.144 654.504 310.144H642.792V358.528Z" fill="#1E1E1E"/>
<path d="M705.551 299.392H751.919V310.144H716.783V328.768H748.079V339.616H716.783V358.528H753.263V369.28H705.551V299.392Z" fill="#1E1E1E"/>
<path d="M831.139 371.776L777.475 319.744L780.739 321.088L781.027 369.28H769.699V296.992H770.179L823.075 349.024L820.483 348.256L820.291 299.392H831.427V371.776H831.139Z" fill="#1E1E1E"/>
<path d="M846.667 299.392H893.419V310.144H875.371V369.28H864.235V310.144H846.667V299.392Z" fill="#1E1E1E"/>
<path d="M895.76 369.28L926.672 296.512H927.344L958.256 369.28H945.392L923.6 314.08L931.664 308.608L906.8 369.28H895.76ZM915.152 343.36H939.056L942.896 352.864H911.792L915.152 343.36Z" fill="#1E1E1E"/>
<path d="M971.141 299.392H982.373V358.528H1016.84V369.28H971.141V299.392Z" fill="#1E1E1E"/>
<path d="M1084.06 299.392C1089.37 299.392 1093.91 300.288 1097.69 302.08C1101.46 303.872 1104.34 306.432 1106.33 309.76C1108.38 313.088 1109.4 317.12 1109.4 321.856C1109.4 324.608 1108.95 327.36 1108.06 330.112C1107.22 332.864 1105.88 335.36 1104.02 337.6C1102.23 339.84 1099.8 341.664 1096.73 343.072C1093.72 344.416 1090.01 345.088 1085.59 345.088H1075.51V369.28H1064.28V299.392H1084.06ZM1085.59 334.24C1088.02 334.24 1090.07 333.824 1091.74 332.992C1093.4 332.16 1094.68 331.104 1095.58 329.824C1096.54 328.544 1097.21 327.232 1097.59 325.888C1098.04 324.48 1098.26 323.232 1098.26 322.144C1098.26 320.992 1098.07 319.744 1097.69 318.4C1097.3 316.992 1096.66 315.68 1095.77 314.464C1094.87 313.184 1093.62 312.16 1092.02 311.392C1090.42 310.56 1088.38 310.144 1085.88 310.144H1075.51V334.24H1085.59Z" fill="#1E1E1E"/>
<path d="M1143.61 299.392C1147.45 299.392 1150.97 299.904 1154.17 300.928C1157.37 301.888 1160.09 303.328 1162.33 305.248C1164.57 307.168 1166.3 309.536 1167.51 312.352C1168.79 315.104 1169.43 318.272 1169.43 321.856C1169.43 324.608 1169.02 327.36 1168.18 330.112C1167.35 332.864 1165.98 335.36 1164.06 337.6C1162.2 339.84 1159.74 341.632 1156.66 342.976C1153.59 344.32 1149.78 344.992 1145.24 344.992H1135.16V369.28H1123.93V299.392H1143.61ZM1145.14 334.24C1147.64 334.24 1149.72 333.856 1151.38 333.088C1153.05 332.256 1154.33 331.232 1155.22 330.016C1156.18 328.8 1156.86 327.52 1157.24 326.176C1157.69 324.768 1157.91 323.456 1157.91 322.24C1157.91 321.088 1157.72 319.84 1157.34 318.496C1156.95 317.088 1156.31 315.776 1155.42 314.56C1154.52 313.28 1153.24 312.224 1151.58 311.392C1149.98 310.56 1147.96 310.144 1145.53 310.144H1135.16V334.24H1145.14ZM1157.24 340.864L1175.1 369.28H1162.14L1143.9 341.152L1157.24 340.864Z" fill="#1E1E1E"/>
<path d="M1183.01 334.432C1183.01 329.568 1183.93 324.992 1185.79 320.704C1187.65 316.416 1190.2 312.608 1193.47 309.28C1196.73 305.952 1200.51 303.36 1204.8 301.504C1209.15 299.584 1213.79 298.624 1218.72 298.624C1223.58 298.624 1228.16 299.584 1232.45 301.504C1236.8 303.36 1240.61 305.952 1243.87 309.28C1247.2 312.608 1249.79 316.416 1251.65 320.704C1253.57 324.992 1254.53 329.568 1254.53 334.432C1254.53 339.36 1253.57 343.968 1251.65 348.256C1249.79 352.544 1247.2 356.352 1243.87 359.68C1240.61 362.944 1236.8 365.504 1232.45 367.36C1228.16 369.152 1223.58 370.048 1218.72 370.048C1213.73 370.048 1209.08 369.152 1204.8 367.36C1200.51 365.504 1196.73 362.976 1193.47 359.776C1190.2 356.512 1187.65 352.736 1185.79 348.448C1183.93 344.096 1183.01 339.424 1183.01 334.432ZM1194.53 334.432C1194.53 337.888 1195.13 341.12 1196.35 344.128C1197.63 347.136 1199.39 349.792 1201.63 352.096C1203.87 354.336 1206.46 356.096 1209.41 357.376C1212.35 358.656 1215.55 359.296 1219.01 359.296C1222.33 359.296 1225.44 358.656 1228.32 357.376C1231.26 356.096 1233.82 354.336 1236 352.096C1238.17 349.792 1239.87 347.136 1241.09 344.128C1242.37 341.12 1243.01 337.888 1243.01 334.432C1243.01 330.912 1242.37 327.648 1241.09 324.64C1239.81 321.632 1238.08 318.976 1235.9 316.672C1233.73 314.368 1231.17 312.576 1228.22 311.296C1225.28 310.016 1222.11 309.376 1218.72 309.376C1215.33 309.376 1212.16 310.016 1209.21 311.296C1206.27 312.576 1203.68 314.368 1201.44 316.672C1199.26 318.976 1197.56 321.664 1196.35 324.736C1195.13 327.744 1194.53 330.976 1194.53 334.432Z" fill="#1E1E1E"/>
<path d="M1325.99 362.848C1325.1 363.744 1323.75 364.608 1321.96 365.44C1320.23 366.272 1318.28 367.04 1316.11 367.744C1313.93 368.448 1311.69 368.992 1309.39 369.376C1307.08 369.824 1304.91 370.048 1302.86 370.048C1297.23 370.048 1292.14 369.184 1287.59 367.456C1283.11 365.728 1279.24 363.36 1275.98 360.352C1272.78 357.28 1270.31 353.664 1268.59 349.504C1266.92 345.344 1266.09 340.832 1266.09 335.968C1266.09 329.888 1267.05 324.544 1268.97 319.936C1270.89 315.264 1273.51 311.36 1276.84 308.224C1280.17 305.024 1283.98 302.624 1288.27 301.024C1292.62 299.424 1297.19 298.624 1301.99 298.624C1306.22 298.624 1310.12 299.104 1313.71 300.064C1317.35 301.024 1320.46 302.24 1323.02 303.712L1319.37 314.08C1318.15 313.376 1316.59 312.704 1314.67 312.064C1312.75 311.36 1310.79 310.816 1308.81 310.432C1306.89 310.048 1305.1 309.856 1303.43 309.856C1299.4 309.856 1295.79 310.432 1292.59 311.584C1289.45 312.672 1286.76 314.304 1284.52 316.48C1282.28 318.656 1280.55 321.312 1279.34 324.448C1278.19 327.52 1277.61 331.04 1277.61 335.008C1277.61 338.592 1278.22 341.856 1279.43 344.8C1280.71 347.744 1282.47 350.272 1284.71 352.384C1287.02 354.496 1289.71 356.128 1292.78 357.28C1295.91 358.368 1299.37 358.912 1303.15 358.912C1305.32 358.912 1307.43 358.72 1309.48 358.336C1311.53 357.952 1313.26 357.344 1314.67 356.512V344.896H1301.61V334.144H1325.99V362.848Z" fill="#1E1E1E"/>
<path d="M1363.61 299.392C1367.45 299.392 1370.97 299.904 1374.17 300.928C1377.37 301.888 1380.09 303.328 1382.33 305.248C1384.57 307.168 1386.3 309.536 1387.52 312.352C1388.8 315.104 1389.44 318.272 1389.44 321.856C1389.44 324.608 1389.02 327.36 1388.19 330.112C1387.36 332.864 1385.98 335.36 1384.06 337.6C1382.2 339.84 1379.74 341.632 1376.67 342.976C1373.6 344.32 1369.79 344.992 1365.24 344.992H1355.16V369.28H1343.93V299.392H1363.61ZM1365.15 334.24C1367.64 334.24 1369.72 333.856 1371.39 333.088C1373.05 332.256 1374.33 331.232 1375.23 330.016C1376.19 328.8 1376.86 327.52 1377.24 326.176C1377.69 324.768 1377.92 323.456 1377.92 322.24C1377.92 321.088 1377.72 319.84 1377.34 318.496C1376.96 317.088 1376.32 315.776 1375.42 314.56C1374.52 313.28 1373.24 312.224 1371.58 311.392C1369.98 310.56 1367.96 310.144 1365.53 310.144H1355.16V334.24H1365.15ZM1377.24 340.864L1395.1 369.28H1382.14L1363.9 341.152L1377.24 340.864Z" fill="#1E1E1E"/>
<path d="M1401.91 369.28L1432.82 296.512H1433.49L1464.41 369.28H1451.54L1429.75 314.08L1437.81 308.608L1412.95 369.28H1401.91ZM1421.3 343.36H1445.21L1449.05 352.864H1417.94L1421.3 343.36Z" fill="#1E1E1E"/>
<path d="M1477.29 369.28V296.896H1477.39L1515.02 350.176L1510.22 349.12L1547.66 296.896H1547.85V369.28H1536.71V322.144L1537.48 327.904L1512.23 363.616H1512.04L1486.22 327.904L1488.14 322.624V369.28H1477.29Z" fill="#1E1E1E"/>
<circle cx="290" cy="290" r="290" fill="white"/>
<circle cx="290" cy="290" r="275" fill="#1E1E1E"/>
<circle cx="290" cy="290" r="265" fill="white"/>
<path d="M77.5798 448.438C103.635 483.371 137.903 511.339 177.349 529.864C216.795 548.39 260.201 556.901 303.722 554.644C347.243 552.388 389.536 539.433 426.854 516.927C464.173 494.421 495.365 463.059 517.667 425.619C539.97 388.179 552.695 345.816 554.715 302.284C556.735 258.751 547.988 215.392 529.248 176.047C510.509 136.703 482.355 102.587 447.281 76.7218C412.208 50.8567 371.296 34.0408 328.171 27.7635L290 290L77.5798 448.438Z" fill="url(#paint0_linear_375_1620)"/>
<g filter="url(#filter0_i_375_1620)">
<circle cx="290" cy="290" r="250" fill="url(#paint1_linear_375_1620)"/>
</g>
<path d="M291.225 509L288.379 516.476L291.225 517.56L294.071 516.476L291.225 509ZM105.176 157.217L113.118 158.179L113.118 158.179L105.176 157.217ZM113.062 146.781L115.877 154.27L115.877 154.27L113.062 146.781ZM288.725 69L293.633 62.6819C291.013 60.6476 287.41 60.4402 284.575 62.1606L288.725 69ZM474.774 157.217L466.832 158.179L466.832 158.179L474.774 157.217ZM466.888 146.781L464.073 154.27L464.073 154.27L466.888 146.781ZM294.071 501.523C224.267 474.948 87.6991 367.997 113.118 158.179L97.2339 156.255C70.7096 375.2 213.588 488.003 288.379 516.476L294.071 501.523ZM115.877 154.27C146.96 142.585 187.045 125.492 221.311 110.131C255.346 94.8742 284.354 81.0098 292.875 75.8394L284.575 62.1606C277.093 66.7003 249.131 80.1258 214.766 95.5313C180.631 110.834 140.885 127.776 110.247 139.293L115.877 154.27ZM113.118 158.179C113.367 156.121 114.65 154.731 115.877 154.27L110.247 139.293C103.015 142.011 98.1449 148.734 97.2339 156.255L113.118 158.179ZM294.071 516.476C368.962 487.965 509.23 375.111 482.716 156.255L466.832 158.179C492.262 368.086 358.083 474.986 288.379 501.523L294.071 516.476ZM469.703 139.293C439.002 127.752 397.716 110.789 362.539 95.4948C344.953 87.8488 328.95 80.6445 316.596 74.7637C310.414 71.821 305.2 69.2352 301.181 67.1078C296.989 64.8889 294.577 63.4155 293.633 62.6819L283.818 75.3181C285.999 77.012 289.57 79.0649 293.696 81.249C297.995 83.5246 303.434 86.2186 309.719 89.2104C322.299 95.1987 338.483 102.483 356.159 110.168C391.507 125.536 433.052 142.609 464.073 154.27L469.703 139.293ZM482.716 156.255C481.805 148.734 476.935 142.011 469.703 139.293L464.073 154.27C465.3 154.731 466.583 156.121 466.832 158.179L482.716 156.255Z" fill="white"/>
<mask id="mask0_375_1620" style="mask-type:alpha" maskUnits="userSpaceOnUse" x="103" y="374" width="374" height="189">
<rect x="103" y="374" width="374" height="189" fill="#D9D9D9"/>
</mask>
<g mask="url(#mask0_375_1620)">
<path d="M340.559 478.947C320.5 478.947 315.264 449.069 313.61 440.226C304.893 408.219 296.655 359.684 289.497 359.5C282.339 359.684 274.102 407.694 265.385 439.656C263.731 448.487 258.489 478.322 238.437 478.322C219.159 478.322 193.287 460.898 181.704 446.1C157.592 406.001 149.082 376.643 126.389 292.866C109.368 202.643 144.827 154.668 181.704 142.495C214.325 131.727 266.804 142.895 289.497 149.101C312.191 142.886 364.671 131.864 397.294 142.647C434.172 154.837 469.632 202.88 452.611 293.229C429.917 377.125 421.407 406.524 397.294 446.679C385.711 461.498 364.544 478.947 340.559 478.947Z" fill="white" stroke="white" stroke-width="21"/>
</g>
<path d="M338.425 469.854C319.204 469.854 314.188 439.722 312.602 430.803C304.25 398.524 296.356 386.908 289.497 386.723C282.638 386.908 274.745 397.994 266.393 430.228C264.808 439.135 259.785 469.225 240.571 469.225C222.099 469.225 197.308 451.652 186.209 436.728C163.104 396.287 154.95 366.678 133.205 282.186C116.896 191.195 150.873 142.81 186.209 130.533C217.467 119.673 267.752 130.937 289.497 137.195C311.243 130.928 361.53 119.811 392.789 130.687C428.126 142.98 462.104 191.433 445.795 282.553C424.049 367.164 415.894 396.814 392.789 437.312C381.69 452.257 361.408 469.854 338.425 469.854Z" fill="#8ADAFB" stroke="#1E1E1E" stroke-width="21"/>
<g filter="url(#filter1_d_375_1620)">
<mask id="mask1_375_1620" style="mask-type:alpha" maskUnits="userSpaceOnUse" x="129" y="126" width="321" height="344">
<path d="M338.425 469.854C319.204 469.854 314.188 439.722 312.602 430.803C304.25 398.524 296.356 386.908 289.497 386.723C282.638 386.908 274.745 397.994 266.393 430.228C264.808 439.135 259.785 469.225 240.571 469.225C222.099 469.225 197.308 451.652 186.209 436.727C163.104 396.287 154.95 366.678 133.205 282.186C116.896 191.195 150.873 142.81 186.209 130.533C217.467 119.673 267.752 130.937 289.497 137.195C311.243 130.928 361.53 119.811 392.789 130.687C428.126 142.98 462.104 191.433 445.795 282.553C424.049 367.164 415.894 396.814 392.789 437.312C381.69 452.257 361.408 469.854 338.425 469.854Z" fill="#FE9C8F"/>
</mask>
<g mask="url(#mask1_375_1620)">
<path d="M338.425 469.854C319.204 469.854 314.188 439.722 312.602 430.803C304.25 398.524 296.356 386.908 289.497 386.723C282.638 386.908 274.745 397.994 266.393 430.228C264.808 439.135 259.785 469.225 240.571 469.225C222.099 469.225 197.308 451.652 186.209 436.728C163.104 396.287 154.95 366.678 133.205 282.186C116.896 191.195 150.873 142.81 186.209 130.533C217.467 119.673 267.752 130.937 289.497 137.195C311.243 130.928 361.53 119.811 392.789 130.687C428.126 142.98 462.104 191.433 445.795 282.553C424.049 367.164 415.894 396.814 392.789 437.312C381.69 452.257 361.408 469.854 338.425 469.854Z" fill="#8ADAFB"/>
<path d="M429.36 197.596C429.36 301.084 367.334 388.656 281.897 417.89C262.149 424.648 262.217 524.47 240.444 524.47C124.474 524.47 9.39551 325.004 9.39551 197.596C9.39551 70.1886 103.408 -33.0957 219.378 -33.0957C335.348 -33.0957 429.36 70.1886 429.36 197.596Z" fill="#E0EDFF"/>
<ellipse cx="209.187" cy="165.772" rx="178.043" ry="187.301" fill="white"/>
</g>
</g>
<path d="M72.7698 282C72.3078 297.164 62.5927 300.685 56 303.686C62.5927 306.687 72.3078 310.836 72.7698 326C73.2305 310.836 83.4073 306.687 90 303.686C83.4073 300.685 73.2305 297.164 72.7698 282Z" fill="white" stroke="white"/>
<path d="M505.77 282C505.308 297.164 495.593 300.685 489 303.686C495.593 306.687 505.308 310.836 505.77 326C506.23 310.836 516.407 306.687 523 303.686C516.407 300.685 506.23 297.164 505.77 282Z" fill="white" stroke="white"/>
<path d="M289.77 452C289.308 467.164 279.593 470.685 273 473.686C279.593 476.687 289.308 480.836 289.77 496C290.23 480.836 300.407 476.687 307 473.686C300.407 470.685 290.23 467.164 289.77 452Z" fill="white" stroke="white"/>
<circle cx="197.5" cy="251.5" r="12.5" fill="#1E1E1E"/>
<circle cx="382.5" cy="251.5" r="12.5" fill="#1E1E1E"/>
<path d="M278 271L278.33 271.295C285.102 277.351 295.381 277.223 302 271V271" stroke="black" stroke-width="13" stroke-linecap="round"/>
<defs>
<filter id="filter0_i_375_1620" x="40" y="40" width="500" height="504" filterUnits="userSpaceOnUse" color-interpolation-filters="sRGB">
<feFlood flood-opacity="0" result="BackgroundImageFix"/>
<feBlend mode="normal" in="SourceGraphic" in2="BackgroundImageFix" result="shape"/>
<feColorMatrix in="SourceAlpha" type="matrix" values="0 0 0 0 0 0 0 0 0 0 0 0 0 0 0 0 0 0 127 0" result="hardAlpha"/>
<feMorphology radius="20" operator="erode" in="SourceAlpha" result="effect1_innerShadow_375_1620"/>
<feOffset dy="4"/>
<feGaussianBlur stdDeviation="40"/>
<feComposite in2="hardAlpha" operator="arithmetic" k2="-1" k3="1"/>
<feColorMatrix type="matrix" values="0 0 0 0 0 0 0 0 0 0 0 0 0 0 0 0 0 0 0.15 0"/>
<feBlend mode="normal" in2="shape" result="effect1_innerShadow_375_1620"/>
</filter>
<filter id="filter1_d_375_1620" x="125" y="126" width="329" height="351.854" filterUnits="userSpaceOnUse" color-interpolation-filters="sRGB">
<feFlood flood-opacity="0" result="BackgroundImageFix"/>
<feColorMatrix in="SourceAlpha" type="matrix" values="0 0 0 0 0 0 0 0 0 0 0 0 0 0 0 0 0 0 127 0" result="hardAlpha"/>
<feOffset dy="4"/>
<feGaussianBlur stdDeviation="2"/>
<feComposite in2="hardAlpha" operator="out"/>
<feColorMatrix type="matrix" values="0 0 0 0 0 0 0 0 0 0 0 0 0 0 0 0 0 0 0.25 0"/>
<feBlend mode="normal" in2="BackgroundImageFix" result="effect1_dropShadow_375_1620"/>
<feBlend mode="normal" in="SourceGraphic" in2="effect1_dropShadow_375_1620" result="shape"/>
</filter>
<linearGradient id="paint0_linear_375_1620" x1="198.5" y1="226.5" x2="443" y2="375" gradientUnits="userSpaceOnUse">
<stop stop-color="white"/>
<stop offset="1" stop-color="#999999"/>
</linearGradient>
<linearGradient id="paint1_linear_375_1620" x1="160" y1="149.5" x2="448" y2="446.5" gradientUnits="userSpaceOnUse">
<stop stop-color="#F5BBD1"/>
<stop offset="1" stop-color="#FE9C8F"/>
</linearGradient>
</defs>
</svg>
