<svg width="75" height="261" viewBox="0 0 75 261" fill="none" xmlns="http://www.w3.org/2000/svg">
<g filter="url(#filter0_d_513_2196)">
<ellipse cx="35.9833" cy="101.808" rx="9.43546" ry="10.3827" fill="#A9A9A9"/>
<path d="M10.5072 89.5428C10.979 83.8796 17.1125 71.4519 21.3585 63.5863L33.6246 61.2265C39.9149 60.5972 54.0052 62.2648 60.0439 73.9689C66.0826 85.6729 63.8181 98.5098 62.4028 103.229C60.7165 107.587 56.7415 115.499 46.8342 114.084C43.0601 113.14 36.927 99.4536 32.2093 104.173C29.9448 109.459 26.548 110.151 25.1327 109.836C23.2456 110.308 20.8867 107.523 20.8867 105.117C20.8867 102.285 19.786 102.443 19.4715 101.341C7.67707 100.397 10.0354 92.3745 10.5072 89.5428Z" fill="url(#paint0_radial_513_2196)"/>
<path d="M41.6447 5.53516C40.2294 5.53516 39.7576 7.89485 39.7576 9.78261C40.2294 14.0301 38.814 17.3336 38.3423 20.6372C37.8705 22.9969 37.5958 23.2975 36.927 24.4127C35.5116 26.7724 29.3786 31.9637 28.9068 32.4357C28.5294 32.8132 26.2334 53.0437 26.0762 56.0326L34.0963 64.0556L52.4955 51.7852C51.0801 48.9535 51.9293 30.7367 49.6648 31.4918C47.4003 32.2469 46.8342 16.3898 44.4753 8.36679C44.3181 7.42291 43.5318 5.53516 41.6447 5.53516Z" fill="url(#paint1_linear_513_2196)"/>
<g clip-path="url(#paint2_diamond_513_2196_clip_path)" data-figma-skip-parse="true"><g transform="matrix(0 0.033929 -0.0236967 0 39.2777 40.9817)"><rect x="0" y="0" width="1029.47" height="1042.2" fill="url(#paint2_diamond_513_2196)" opacity="1" shape-rendering="crispEdges"/><rect x="0" y="0" width="1029.47" height="1042.2" transform="scale(1 -1)" fill="url(#paint2_diamond_513_2196)" opacity="1" shape-rendering="crispEdges"/><rect x="0" y="0" width="1029.47" height="1042.2" transform="scale(-1 1)" fill="url(#paint2_diamond_513_2196)" opacity="1" shape-rendering="crispEdges"/><rect x="0" y="0" width="1029.47" height="1042.2" transform="scale(-1)" fill="url(#paint2_diamond_513_2196)" opacity="1" shape-rendering="crispEdges"/></g></g><path d="M28.4781 68.817C25.0444 67.8914 20.8865 67.8316 18.0559 69.7194C15.414 59.9031 15.0681 43.6054 16.1689 38.0995C18.056 28.1888 16.6407 31.9643 23.7169 16.3902C29.3786 1.76003 33.6245 7.42321 33.6245 12.6146C34.5681 24.885 27.4915 60.2805 36.4548 56.505C44.3806 52.7295 45.4185 37.6275 47.349 30.0765C47.349 24.4132 42.8713 4.21409 49.6648 8.36716C56.4583 12.5202 59.7289 27.0876 61.4588 33.852C66.1765 45.6505 58.1564 65.4719 60.5152 74.9107C58.6281 69.7194 51.08 69.2474 48.2494 70.6633C43.0599 73.023 38.8139 74.9107 33.6244 72.0791C31.8401 71.1055 31.7371 70.1913 28.4781 68.817Z" data-figma-gradient-fill="{&#34;type&#34;:&#34;GRADIENT_DIAMOND&#34;,&#34;stops&#34;:[{&#34;color&#34;:{&#34;r&#34;:0.97647058963775635,&#34;g&#34;:0.90588235855102539,&#34;b&#34;:0.78823530673980713,&#34;a&#34;:1.0},&#34;position&#34;:0.0},{&#34;color&#34;:{&#34;r&#34;:0.90588235855102539,&#34;g&#34;:0.7294117808341980,&#34;b&#34;:0.54509806632995605,&#34;a&#34;:1.0},&#34;position&#34;:1.0}],&#34;stopsVar&#34;:[{&#34;color&#34;:{&#34;r&#34;:0.97647058963775635,&#34;g&#34;:0.90588235855102539,&#34;b&#34;:0.78823530673980713,&#34;a&#34;:1.0},&#34;position&#34;:0.0},{&#34;color&#34;:{&#34;r&#34;:0.90588235855102539,&#34;g&#34;:0.7294117808341980,&#34;b&#34;:0.54509806632995605,&#34;a&#34;:1.0},&#34;position&#34;:1.0}],&#34;transform&#34;:{&#34;m00&#34;:2.9020072986102232e-15,&#34;m01&#34;:-47.393375396728516,&#34;m02&#34;:62.974430084228516,&#34;m10&#34;:67.857978820800781,&#34;m11&#34;:4.1551031820970252e-15,&#34;m12&#34;:7.0527343750},&#34;opacity&#34;:1.0,&#34;blendMode&#34;:&#34;NORMAL&#34;,&#34;visible&#34;:true}"/>
<path d="M11.8723 172.597C10.3631 154.097 23.1916 151.045 29.7945 151.831C33.7248 152.303 43.6607 153.625 51.9615 155.135C62.3375 157.023 61.3942 168.349 62.3375 180.62C63.2807 192.89 49.6033 203.745 44.8869 199.969C42.1854 197.806 36.0988 197.128 31.1284 197.032C27.7502 196.967 24.3587 196.642 21.1131 195.703C11.1874 192.831 13.5281 192.893 11.8723 172.597Z" fill="url(#paint3_radial_513_2196)"/>
<path d="M12.3707 172.556C11.6265 163.433 14.4169 158.228 18.0975 155.377C21.8091 152.502 26.5232 151.945 29.7349 152.328C33.6601 152.799 43.585 154.119 51.872 155.627C54.3708 156.081 56.1546 157.096 57.458 158.525C58.7689 159.962 59.6245 161.853 60.2024 164.108C60.7805 166.364 61.0729 168.953 61.2787 171.763C61.3742 173.067 61.4508 174.413 61.5292 175.791C61.5352 175.896 61.5412 176.002 61.5472 176.107C61.6319 177.595 61.7206 179.119 61.8389 180.658C62.2957 186.6 59.2079 192.245 55.3864 195.953C53.4785 197.804 51.4161 199.144 49.5702 199.792C47.7073 200.447 46.1805 200.364 45.1994 199.579C43.7468 198.416 41.4451 197.689 38.9481 197.234C36.4319 196.775 33.6388 196.58 31.138 196.532C27.7831 196.468 24.4396 196.145 21.2521 195.222C18.7532 194.499 17.1064 193.981 15.9703 193.305C14.8822 192.658 14.268 191.868 13.8705 190.541C13.4591 189.167 13.2873 187.243 13.1181 184.337C13.0799 183.68 13.0418 182.976 13.0009 182.219C12.8621 179.65 12.6909 176.482 12.3707 172.556Z" stroke="black" stroke-opacity="0.18" stroke-linecap="round" stroke-linejoin="round"/>
<g filter="url(#filter1_d_513_2196)">
<path d="M58.7714 217.297C58.2418 211.073 41.3601 209.702 30.5146 210.05C28.7656 210.106 27.2972 211.34 26.8646 213.035C11.6364 206.643 13.8119 222.27 14.537 223.69C15.1172 224.827 16.7125 228.426 17.4376 230.083C20.3383 244.29 26.1395 245 42.818 245C59.4965 245 59.4965 225.821 58.7714 217.297Z" fill="url(#paint4_radial_513_2196)"/>
<path d="M26.8646 225.111V213.035M26.8646 213.035V213.035C27.2972 211.34 28.7656 210.106 30.5146 210.05C41.3601 209.702 58.2418 211.073 58.7714 217.297C59.4965 225.821 59.4965 245 42.818 245C26.1395 245 20.3383 244.29 17.4376 230.083C16.7125 228.426 15.1172 224.827 14.537 223.69C13.8119 222.27 11.6364 206.643 26.8646 213.035Z" stroke="#CBCBCB"/>
</g>
</g>
<defs>
<filter id="filter0_d_513_2196" x="0" y="0.535156" width="74.0186" height="259.965" filterUnits="userSpaceOnUse" color-interpolation-filters="sRGB">
<feFlood flood-opacity="0" result="BackgroundImageFix"/>
<feColorMatrix in="SourceAlpha" type="matrix" values="0 0 0 0 0 0 0 0 0 0 0 0 0 0 0 0 0 0 127 0" result="hardAlpha"/>
<feOffset dy="5"/>
<feGaussianBlur stdDeviation="5"/>
<feComposite in2="hardAlpha" operator="out"/>
<feColorMatrix type="matrix" values="0 0 0 0 0 0 0 0 0 0 0 0 0 0 0 0 0 0 0.35 0"/>
<feBlend mode="normal" in2="BackgroundImageFix" result="effect1_dropShadow_513_2196"/>
<feBlend mode="normal" in="SourceGraphic" in2="effect1_dropShadow_513_2196" result="shape"/>
</filter>
<clipPath id="paint2_diamond_513_2196_clip_path"><path d="M28.4781 68.817C25.0444 67.8914 20.8865 67.8316 18.0559 69.7194C15.414 59.9031 15.0681 43.6054 16.1689 38.0995C18.056 28.1888 16.6407 31.9643 23.7169 16.3902C29.3786 1.76003 33.6245 7.42321 33.6245 12.6146C34.5681 24.885 27.4915 60.2805 36.4548 56.505C44.3806 52.7295 45.4185 37.6275 47.349 30.0765C47.349 24.4132 42.8713 4.21409 49.6648 8.36716C56.4583 12.5202 59.7289 27.0876 61.4588 33.852C66.1765 45.6505 58.1564 65.4719 60.5152 74.9107C58.6281 69.7194 51.08 69.2474 48.2494 70.6633C43.0599 73.023 38.8139 74.9107 33.6244 72.0791C31.8401 71.1055 31.7371 70.1913 28.4781 68.817Z"/></clipPath><filter id="filter1_d_513_2196" x="9.5" y="209.5" width="54" height="44" filterUnits="userSpaceOnUse" color-interpolation-filters="sRGB">
<feFlood flood-opacity="0" result="BackgroundImageFix"/>
<feColorMatrix in="SourceAlpha" type="matrix" values="0 0 0 0 0 0 0 0 0 0 0 0 0 0 0 0 0 0 127 0" result="hardAlpha"/>
<feOffset dy="4"/>
<feGaussianBlur stdDeviation="2"/>
<feComposite in2="hardAlpha" operator="out"/>
<feColorMatrix type="matrix" values="0 0 0 0 0 0 0 0 0 0 0 0 0 0 0 0 0 0 0.25 0"/>
<feBlend mode="normal" in2="BackgroundImageFix" result="effect1_dropShadow_513_2196"/>
<feBlend mode="normal" in="SourceGraphic" in2="effect1_dropShadow_513_2196" result="shape"/>
</filter>
<radialGradient id="paint0_radial_513_2196" cx="0" cy="0" r="1" gradientUnits="userSpaceOnUse" gradientTransform="translate(37.0093 87.6816) rotate(90) scale(26.5693 27.0093)">
<stop offset="0.56179" stop-color="white"/>
<stop offset="1" stop-color="#CAC9C2"/>
</radialGradient>
<linearGradient id="paint1_linear_513_2196" x1="39.2858" y1="5.53516" x2="39.2858" y2="64.0556" gradientUnits="userSpaceOnUse">
<stop stop-color="#CC8559"/>
<stop offset="1" stop-color="#EBB98F"/>
</linearGradient>
<linearGradient id="paint2_diamond_513_2196" x1="0" y1="0" x2="500" y2="500" gradientUnits="userSpaceOnUse">
<stop stop-color="#F9E7C9"/>
<stop offset="1" stop-color="#E7BA8B"/>
</linearGradient>
<radialGradient id="paint3_radial_513_2196" cx="0" cy="0" r="1" gradientUnits="userSpaceOnUse" gradientTransform="translate(37.067 176.226) rotate(90) scale(24.5052 25.317)">
<stop offset="0.56179" stop-color="white"/>
<stop offset="1" stop-color="#CAC9C2"/>
</radialGradient>
<radialGradient id="paint4_radial_513_2196" cx="0" cy="0" r="1" gradientUnits="userSpaceOnUse" gradientTransform="translate(36.5 227.5) rotate(90) scale(17.5 22.5)">
<stop offset="0.505" stop-color="white"/>
<stop offset="1" stop-color="#D9D9D9"/>
</radialGradient>
</defs>
</svg>
