<svg width="75" height="216" viewBox="0 0 75 216" fill="none" xmlns="http://www.w3.org/2000/svg">
<g filter="url(#filter0_d_513_2196)">
<ellipse cx="35.9833" cy="101.808" rx="9.43546" ry="10.3827" fill="#A9A9A9"/>
<path d="M10.5072 89.5428C10.979 83.8796 17.1125 71.4519 21.3585 63.5863L33.6246 61.2265C39.9149 60.5972 54.0052 62.2648 60.0439 73.9689C66.0826 85.6729 63.8181 98.5098 62.4028 103.229C60.7165 107.587 56.7415 115.499 46.8342 114.084C43.0601 113.14 36.927 99.4536 32.2093 104.173C29.9448 109.459 26.548 110.151 25.1327 109.836C23.2456 110.308 20.8867 107.523 20.8867 105.117C20.8867 102.285 19.786 102.443 19.4715 101.341C7.67707 100.397 10.0354 92.3745 10.5072 89.5428Z" fill="url(#paint0_radial_513_2196)"/>
<path d="M41.6447 5.53516C40.2294 5.53516 39.7576 7.89485 39.7576 9.78261C40.2294 14.0301 38.814 17.3336 38.3423 20.6372C37.8705 22.9969 37.5958 23.2975 36.927 24.4127C35.5116 26.7724 29.3786 31.9637 28.9068 32.4357C28.5294 32.8132 26.2334 53.0437 26.0762 56.0326L34.0963 64.0556L52.4955 51.7852C51.0801 48.9535 51.9293 30.7367 49.6648 31.4918C47.4003 32.2469 46.8342 16.3898 44.4753 8.36679C44.3181 7.42291 43.5318 5.53516 41.6447 5.53516Z" fill="url(#paint1_linear_513_2196)"/>
<path d="M28.4781 68.817C25.0444 67.8914 20.8865 67.8316 18.0559 69.7194C15.414 59.9031 15.0681 43.6054 16.1689 38.0995C18.056 28.1888 16.6407 31.9643 23.7169 16.3902C29.3786 1.76003 33.6245 7.42321 33.6245 12.6146C34.5681 24.885 27.4915 60.2805 36.4548 56.505C44.3806 52.7295 45.4185 37.6275 47.349 30.0765C47.349 24.4132 42.8713 4.21409 49.6648 8.36716C56.4583 12.5202 59.7289 27.0876 61.4588 33.852C66.1765 45.6505 58.1564 65.4719 60.5152 74.9107C58.6281 69.7194 51.08 69.2474 48.2494 70.6633C43.0599 73.023 38.8139 74.9107 33.6244 72.0791C31.8401 71.1055 31.7371 70.1913 28.4781 68.817Z" fill="url(#paint2_diamond_513_2196)"/>
<path d="M11.8723 172.597C10.3631 154.097 23.1916 151.045 29.7945 151.831C33.7248 152.303 43.6607 153.625 51.9615 155.135C62.3375 157.023 61.3942 168.349 62.3375 180.62C63.2807 192.89 49.6033 203.745 44.8869 199.969C42.1854 197.806 36.0988 197.128 31.1284 197.032C27.7502 196.967 24.3587 196.642 21.1131 195.703C11.1874 192.831 13.5281 192.893 11.8723 172.597Z" fill="url(#paint3_radial_513_2196)"/>
<path d="M12.3707 172.556C11.6265 163.433 14.4169 158.228 18.0975 155.377C21.8091 152.502 26.5232 151.945 29.7349 152.328C33.6601 152.799 43.585 154.119 51.872 155.627C54.3708 156.081 56.1546 157.096 57.458 158.525C58.7689 159.962 59.6245 161.853 60.2024 164.108C60.7805 166.364 61.0729 168.953 61.2787 171.763C61.3742 173.067 61.4508 174.413 61.5292 175.791C61.5352 175.896 61.5412 176.002 61.5472 176.107C61.6319 177.595 61.7206 179.119 61.8389 180.658C62.2957 186.6 59.2079 192.245 55.3864 195.953C53.4785 197.804 51.4161 199.144 49.5702 199.792C47.7073 200.447 46.1805 200.364 45.1994 199.579C43.7468 198.416 41.4451 197.689 38.9481 197.234C36.4319 196.775 33.6388 196.58 31.138 196.532C27.7831 196.468 24.4396 196.145 21.2521 195.222C18.7532 194.499 17.1064 193.981 15.9703 193.305C14.8822 192.658 14.268 191.868 13.8705 190.541C13.4591 189.167 13.2873 187.243 13.1181 184.337C13.0799 183.68 13.0418 182.976 13.0009 182.219C12.8621 179.65 12.6909 176.482 12.3707 172.556Z" stroke="black" stroke-opacity="0.18" stroke-linecap="round" stroke-linejoin="round"/>
</g>
<defs>
<filter id="filter0_d_513_2196" x="0" y="0.535156" width="74.0186" height="215.196" filterUnits="userSpaceOnUse" color-interpolation-filters="sRGB">
<feFlood flood-opacity="0" result="BackgroundImageFix"/>
<feColorMatrix in="SourceAlpha" type="matrix" values="0 0 0 0 0 0 0 0 0 0 0 0 0 0 0 0 0 0 127 0" result="hardAlpha"/>
<feOffset dy="5"/>
<feGaussianBlur stdDeviation="5"/>
<feComposite in2="hardAlpha" operator="out"/>
<feColorMatrix type="matrix" values="0 0 0 0 0 0 0 0 0 0 0 0 0 0 0 0 0 0 0.35 0"/>
<feBlend mode="normal" in2="BackgroundImageFix" result="effect1_dropShadow_513_2196"/>
<feBlend mode="normal" in="SourceGraphic" in2="effect1_dropShadow_513_2196" result="shape"/>
</filter>
<radialGradient id="paint0_radial_513_2196" cx="0" cy="0" r="1" gradientUnits="userSpaceOnUse" gradientTransform="translate(37.0093 87.6816) rotate(90) scale(26.5693 27.0093)">
<stop offset="0.56179" stop-color="white"/>
<stop offset="1" stop-color="#CAC9C2"/>
</radialGradient>
<linearGradient id="paint1_linear_513_2196" x1="39.2858" y1="5.53516" x2="39.2858" y2="64.0556" gradientUnits="userSpaceOnUse">
<stop stop-color="#CC8559"/>
<stop offset="1" stop-color="#EBB98F"/>
</linearGradient>
<radialGradient id="paint2_diamond_513_2196" cx="0" cy="0" r="1" gradientUnits="userSpaceOnUse" gradientTransform="translate(39.2777 40.9817) rotate(90) scale(33.929 23.6967)">
<stop stop-color="#F9E7C9"/>
<stop offset="1" stop-color="#E7BA8B"/>
</radialGradient>
<radialGradient id="paint3_radial_513_2196" cx="0" cy="0" r="1" gradientUnits="userSpaceOnUse" gradientTransform="translate(37.067 176.226) rotate(90) scale(24.5052 25.317)">
<stop offset="0.56179" stop-color="white"/>
<stop offset="1" stop-color="#CAC9C2"/>
</radialGradient>
</defs>
</svg>
