<svg width="63" height="242" viewBox="0 0 63 242" fill="none" xmlns="http://www.w3.org/2000/svg">
<g filter="url(#filter0_d_513_2216)">
<path d="M17.2572 95.6274L21.975 87.1325L35.6565 81.4692C36.1282 81.6266 38.6758 85.056 45.0919 97.5152C51.508 109.974 52.7976 126.303 52.6403 132.911C52.6403 133.225 50.9419 135.082 44.1484 139.99C37.3548 144.898 32.5113 142.979 30.9387 141.405C29.0516 139.203 24.0508 134.421 19.1443 132.911C13.0113 131.023 12.0677 122.056 13.483 119.696C14.6153 117.809 16.4709 102.864 17.2572 95.6274Z" fill="url(#paint0_radial_513_2216)"/>
<g clip-path="url(#paint1_diamond_513_2216_clip_path)" data-figma-skip-parse="true"><g transform="matrix(0 0.0467131 -0.0141532 0 31.412 51.7131)"><rect x="0" y="0" width="1021.41" height="1070.66" fill="url(#paint1_diamond_513_2216)" opacity="1" shape-rendering="crispEdges"/><rect x="0" y="0" width="1021.41" height="1070.66" transform="scale(1 -1)" fill="url(#paint1_diamond_513_2216)" opacity="1" shape-rendering="crispEdges"/><rect x="0" y="0" width="1021.41" height="1070.66" transform="scale(-1 1)" fill="url(#paint1_diamond_513_2216)" opacity="1" shape-rendering="crispEdges"/><rect x="0" y="0" width="1021.41" height="1070.66" transform="scale(-1)" fill="url(#paint1_diamond_513_2216)" opacity="1" shape-rendering="crispEdges"/></g></g><path d="M19.6177 52.2047C18.4854 63.9088 17.7306 86.027 17.2588 95.6231C19.1459 95.3085 23.2031 93.7354 26.2225 89.9599C29.2418 86.1844 33.4563 88.3867 35.1862 89.9599C38.0168 91.8476 45.5652 102.702 45.5652 96.567C45.5652 90.4318 41.3192 58.3399 39.9039 41.8221C38.7716 28.6078 29.9967 12.4045 25.7507 5.95468C24.0209 4.69618 20.8443 3.68937 21.9765 9.73019C23.3918 17.2812 21.033 37.5746 19.6177 52.2047Z" data-figma-gradient-fill="{&#34;type&#34;:&#34;GRADIENT_DIAMOND&#34;,&#34;stops&#34;:[{&#34;color&#34;:{&#34;r&#34;:0.97647058963775635,&#34;g&#34;:0.90588235855102539,&#34;b&#34;:0.78823530673980713,&#34;a&#34;:1.0},&#34;position&#34;:0.0},{&#34;color&#34;:{&#34;r&#34;:0.90588235855102539,&#34;g&#34;:0.7294117808341980,&#34;b&#34;:0.54509806632995605,&#34;a&#34;:1.0},&#34;position&#34;:1.0}],&#34;stopsVar&#34;:[{&#34;color&#34;:{&#34;r&#34;:0.97647058963775635,&#34;g&#34;:0.90588235855102539,&#34;b&#34;:0.78823530673980713,&#34;a&#34;:1.0},&#34;position&#34;:0.0},{&#34;color&#34;:{&#34;r&#34;:0.90588235855102539,&#34;g&#34;:0.7294117808341980,&#34;b&#34;:0.54509806632995605,&#34;a&#34;:1.0},&#34;position&#34;:1.0}],&#34;transform&#34;:{&#34;m00&#34;:1.7332659440328193e-15,&#34;m01&#34;:-28.306379318237305,&#34;m02&#34;:45.565170288085938,&#34;m10&#34;:93.426185607910156,&#34;m11&#34;:5.7207042481767761e-15,&#34;m12&#34;:5.0},&#34;opacity&#34;:1.0,&#34;blendMode&#34;:&#34;NORMAL&#34;,&#34;visible&#34;:true}"/>
<path d="M12.4631 192.111C6.80345 200.039 17.0222 216.18 22.8391 223.259C24.3903 225.147 28.9704 230.338 38.8747 223.259C49.0621 213.82 49.408 201.707 48.3075 196.83C40.384 179.84 30.2281 178.739 26.1406 180.312C23.9396 180.942 18.1227 184.182 12.4631 192.111Z" fill="url(#paint2_radial_513_2216)"/>
<path d="M26.3201 180.779C26.3063 180.784 26.2922 180.789 26.278 180.793C24.2129 181.384 18.4824 184.539 12.87 192.401C11.5477 194.254 11.1303 196.616 11.3766 199.281C11.6229 201.947 12.5304 204.875 13.8058 207.804C16.3565 213.661 20.3368 219.426 23.2254 222.941C23.99 223.872 25.4354 225.529 27.8466 226.137C30.2326 226.737 33.6961 226.338 38.5582 222.871C48.5273 213.616 48.8869 201.767 47.8314 196.992C39.9754 180.187 30.0667 179.337 26.3201 180.779Z" stroke="black" stroke-opacity="0.18" stroke-linecap="round" stroke-linejoin="round"/>
</g>
<defs>
<filter id="filter0_d_513_2216" x="0.80957" y="0" width="61.8428" height="241.868" filterUnits="userSpaceOnUse" color-interpolation-filters="sRGB">
<feFlood flood-opacity="0" result="BackgroundImageFix"/>
<feColorMatrix in="SourceAlpha" type="matrix" values="0 0 0 0 0 0 0 0 0 0 0 0 0 0 0 0 0 0 127 0" result="hardAlpha"/>
<feOffset dy="5"/>
<feGaussianBlur stdDeviation="5"/>
<feComposite in2="hardAlpha" operator="out"/>
<feColorMatrix type="matrix" values="0 0 0 0 0 0 0 0 0 0 0 0 0 0 0 0 0 0 0.35 0"/>
<feBlend mode="normal" in2="BackgroundImageFix" result="effect1_dropShadow_513_2216"/>
<feBlend mode="normal" in="SourceGraphic" in2="effect1_dropShadow_513_2216" result="shape"/>
</filter>
<clipPath id="paint1_diamond_513_2216_clip_path"><path d="M19.6177 52.2047C18.4854 63.9088 17.7306 86.027 17.2588 95.6231C19.1459 95.3085 23.2031 93.7354 26.2225 89.9599C29.2418 86.1844 33.4563 88.3867 35.1862 89.9599C38.0168 91.8476 45.5652 102.702 45.5652 96.567C45.5652 90.4318 41.3192 58.3399 39.9039 41.8221C38.7716 28.6078 29.9967 12.4045 25.7507 5.95468C24.0209 4.69618 20.8443 3.68937 21.9765 9.73019C23.3918 17.2812 21.033 37.5746 19.6177 52.2047Z"/></clipPath><radialGradient id="paint0_radial_513_2216" cx="0" cy="0" r="1" gradientUnits="userSpaceOnUse" gradientTransform="translate(32.7799 112.3) rotate(90) scale(30.8312 19.8727)">
<stop offset="0.56179" stop-color="white"/>
<stop offset="1" stop-color="#CAC9C2"/>
</radialGradient>
<linearGradient id="paint1_diamond_513_2216" x1="0" y1="0" x2="500" y2="500" gradientUnits="userSpaceOnUse">
<stop stop-color="#F9E7C9"/>
<stop offset="1" stop-color="#E7BA8B"/>
</linearGradient>
<radialGradient id="paint2_radial_513_2216" cx="0" cy="0" r="1" gradientUnits="userSpaceOnUse" gradientTransform="translate(29.7724 203.332) rotate(-90) scale(23.5365 18.9628)">
<stop offset="0.56179" stop-color="white"/>
<stop offset="1" stop-color="#CAC9C2"/>
</radialGradient>
</defs>
</svg>
