<svg width="62" height="223" viewBox="0 0 62 223" fill="none" xmlns="http://www.w3.org/2000/svg">
<g filter="url(#filter0_d_513_2220)">
<path d="M51.1644 116.626C51.1644 112.096 49.2773 97.7489 48.3338 91.1417L44.0876 77.9274L40.3134 73.2081L27.1038 64.2412L18.6119 79.3433C17.9829 83.9053 16.4419 95.3892 15.3097 104.828C14.1774 114.267 18.6121 117.256 20.9709 117.57C31.0354 119.143 51.1644 121.157 51.1644 116.626Z" fill="url(#paint0_radial_513_2220)"/>
<path d="M21.44 11.3871C23.7045 20.8259 20.4965 61.57 18.6094 80.2903C22.8553 75.0989 30.0263 69.4357 34.1779 73.2112C38.3295 76.9867 42.8271 78.8744 44.5569 79.3463C43.6133 61.8846 37.9521 54.8055 37.9521 43.479C38.5811 35.2987 37.8577 17.0504 29.9319 9.49934C22.0061 1.94831 20.9682 7.61158 21.44 11.3871Z" fill="url(#paint1_diamond_513_2220)"/>
<path d="M10.4987 197.799C10.8761 185.339 21.9752 172.471 27.4777 167.595C32.3827 164.952 35.8099 166.493 36.9104 167.595C44.2568 173.943 46.7269 186.921 47.1978 194.619C47.3063 196.393 46.8501 198.163 45.7407 199.551C42.0933 204.115 34.6149 209.811 24.6478 207.237C12.9513 204.217 10.3415 199.686 10.4987 197.799Z" fill="#585858"/>
<path d="M10.997 197.84C10.9978 197.831 10.9983 197.823 10.9985 197.814C11.1832 191.717 13.9973 185.477 17.4852 180.126C20.9499 174.811 25.0448 170.427 27.7657 168.007C32.4679 165.497 35.631 167.022 36.5567 167.948C36.5653 167.957 36.5743 167.965 36.5835 167.973C40.1568 171.061 42.5741 175.792 44.156 180.753C45.7354 185.705 46.4652 190.832 46.6987 194.65C46.8009 196.321 46.3699 197.963 45.3501 199.239C41.7631 203.727 34.4681 209.257 24.7729 206.753C18.9691 205.255 15.4681 203.393 13.4483 201.709C11.4112 200.011 10.9379 198.55 10.997 197.84Z" stroke="black" stroke-opacity="0.18" stroke-linecap="round" stroke-linejoin="round"/>
<path d="M10.4992 197.799C10.8765 185.339 21.9757 172.471 27.4782 167.595C32.3832 164.952 35.8104 166.493 36.9109 167.595C44.2573 173.943 46.7274 186.921 47.1983 194.619C47.3068 196.393 46.89 198.201 45.7045 199.524C42.9442 202.606 38.0836 204.75 27.3083 204.549C24.9143 204.504 22.5243 204.155 20.2204 203.503C12.9764 201.451 10.3621 199.445 10.4992 197.799Z" fill="url(#paint2_radial_513_2220)"/>
<path d="M10.9975 197.84C10.9982 197.831 10.9987 197.823 10.999 197.814C11.1837 191.717 13.9978 185.477 17.4856 180.126C20.9504 174.811 25.0453 170.427 27.7662 168.007C32.4684 165.497 35.6315 167.022 36.5572 167.948C36.5658 167.957 36.5748 167.965 36.584 167.973C40.1573 171.061 42.5746 175.792 44.1565 180.753C45.7359 185.705 46.4657 190.832 46.6992 194.65C46.8023 196.334 46.4026 197.996 45.332 199.191C42.7167 202.111 38.0394 204.249 27.3177 204.049C24.9657 204.005 22.6184 203.662 20.3567 203.022C16.7518 202.001 14.3399 201.002 12.8569 200.075C11.3383 199.126 10.9543 198.359 10.9975 197.84Z" stroke="black" stroke-opacity="0.18" stroke-linecap="round" stroke-linejoin="round"/>
<path d="M18.5156 197.329C21.031 199.217 28.703 201.86 39.2676 197.329" stroke="black" stroke-opacity="0.18" stroke-linecap="round" stroke-linejoin="round"/>
<path d="M10.997 197.84C10.9978 197.831 10.9983 197.823 10.9985 197.814C11.1832 191.717 13.9973 185.477 17.4852 180.126C20.9499 174.811 25.0448 170.427 27.7657 168.007C32.4679 165.497 35.631 167.022 36.5567 167.948C36.5653 167.957 36.5743 167.965 36.5835 167.973C40.1568 171.061 42.5741 175.792 44.156 180.753C45.7354 185.705 46.4652 190.832 46.6987 194.65C46.8009 196.321 46.3699 197.963 45.3501 199.239C41.7631 203.727 34.4681 209.257 24.7729 206.753C18.9691 205.255 15.4681 203.393 13.4483 201.709C11.4112 200.011 10.9379 198.55 10.997 197.84Z" stroke="black" stroke-opacity="0.18" stroke-linecap="round" stroke-linejoin="round"/>
</g>
<defs>
<filter id="filter0_d_513_2220" x="0.492188" y="0.777344" width="60.6719" height="222.102" filterUnits="userSpaceOnUse" color-interpolation-filters="sRGB">
<feFlood flood-opacity="0" result="BackgroundImageFix"/>
<feColorMatrix in="SourceAlpha" type="matrix" values="0 0 0 0 0 0 0 0 0 0 0 0 0 0 0 0 0 0 127 0" result="hardAlpha"/>
<feOffset dy="5"/>
<feGaussianBlur stdDeviation="5"/>
<feComposite in2="hardAlpha" operator="out"/>
<feColorMatrix type="matrix" values="0 0 0 0 0 0 0 0 0 0 0 0 0 0 0 0 0 0 0.35 0"/>
<feBlend mode="normal" in2="BackgroundImageFix" result="effect1_dropShadow_513_2220"/>
<feBlend mode="normal" in="SourceGraphic" in2="effect1_dropShadow_513_2220" result="shape"/>
</filter>
<radialGradient id="paint0_radial_513_2220" cx="0" cy="0" r="1" gradientUnits="userSpaceOnUse" gradientTransform="translate(33.1462 91.8228) rotate(90) scale(27.5815 18.0182)">
<stop offset="0.56179" stop-color="white"/>
<stop offset="1" stop-color="#CAC9C2"/>
</radialGradient>
<radialGradient id="paint1_diamond_513_2220" cx="0" cy="0" r="1" gradientUnits="userSpaceOnUse" gradientTransform="translate(31.5831 43.0338) rotate(90) scale(37.2565 12.9738)">
<stop stop-color="#F9E7C9"/>
<stop offset="1" stop-color="#E7BA8B"/>
</radialGradient>
<radialGradient id="paint2_radial_513_2220" cx="0" cy="0" r="1" gradientUnits="userSpaceOnUse" gradientTransform="translate(28.8905 185.349) rotate(90) scale(19.2133 18.3964)">
<stop offset="0.56179" stop-color="white"/>
<stop offset="1" stop-color="#CAC9C2"/>
</radialGradient>
</defs>
</svg>
