<svg width="64" height="216" viewBox="0 0 64 216" fill="none" xmlns="http://www.w3.org/2000/svg">
<g filter="url(#filter0_d_513_2220)">
<path d="M53.1644 116.626C53.1644 112.096 51.2773 97.7489 50.3338 91.1417L46.0876 77.9274L42.3134 73.2081L29.1038 64.2412L20.6119 79.3433C19.9829 83.9053 18.4419 95.3892 17.3097 104.828C16.1774 114.267 20.6121 117.256 22.9709 117.57C33.0354 119.143 53.1644 121.157 53.1644 116.626Z" fill="url(#paint0_radial_513_2220)"/>
<path d="M23.44 11.3871C25.7045 20.8259 22.4965 61.57 20.6094 80.2903C24.8553 75.0989 32.0263 69.4357 36.1779 73.2112C40.3295 76.9867 44.8271 78.8744 46.5569 79.3463C45.6133 61.8846 39.9521 54.8055 39.9521 43.479C40.5811 35.2987 39.8577 17.0504 31.9319 9.49934C24.0061 1.94831 22.9682 7.61158 23.44 11.3871Z" fill="url(#paint1_diamond_513_2220)"/>
<path d="M10.0066 169.302C10.3839 181.761 21.4831 194.629 26.9855 199.506C31.8905 202.149 35.3177 200.607 36.4182 199.506C43.7646 193.157 46.2347 180.18 46.7056 172.481C46.8141 170.708 46.3579 168.938 45.2485 167.55C41.6011 162.986 34.1227 157.289 24.1557 159.863C12.4591 162.884 9.84935 167.414 10.0066 169.302Z" fill="#585858"/>
<path d="M10.5048 169.26C10.5056 169.269 10.5061 169.278 10.5063 169.287C10.691 175.384 13.5051 181.624 16.993 186.974C20.4577 192.289 24.5526 196.674 27.2735 199.093C31.9757 201.604 35.1388 200.079 36.0646 199.153C36.0732 199.144 36.0821 199.136 36.0913 199.128C39.6646 196.04 42.0819 191.308 43.6638 186.348C45.2432 181.396 45.973 176.269 46.2065 172.451C46.3087 170.78 45.8777 169.138 44.858 167.862C41.2709 163.374 33.9759 157.844 24.2807 160.347C18.4769 161.846 14.9759 163.708 12.9561 165.391C10.919 167.089 10.4457 168.55 10.5048 169.26Z" stroke="black" stroke-opacity="0.18" stroke-linecap="round" stroke-linejoin="round"/>
<path d="M10.0071 169.302C10.3844 181.761 21.4836 194.629 26.986 199.506C31.891 202.149 35.3182 200.607 36.4187 199.506C43.7651 193.157 46.2352 180.18 46.7061 172.481C46.8146 170.708 46.3978 168.9 45.2123 167.576C42.452 164.494 37.5914 162.351 26.8162 162.552C24.4221 162.596 22.0321 162.945 19.7282 163.598C12.4842 165.649 9.86991 167.655 10.0071 169.302Z" fill="url(#paint2_radial_513_2220)"/>
<path d="M10.5053 169.26C10.5061 169.269 10.5066 169.278 10.5068 169.287C10.6915 175.384 13.5056 181.624 16.9935 186.974C20.4582 192.289 24.5531 196.674 27.274 199.093C31.9762 201.604 35.1393 200.079 36.0651 199.153C36.0737 199.144 36.0826 199.136 36.0918 199.128C39.6651 196.04 42.0824 191.308 43.6643 186.348C45.2437 181.396 45.9735 176.269 46.207 172.451C46.3101 170.766 45.9104 169.105 44.8399 167.91C42.2245 164.99 37.5472 162.852 26.8255 163.052C24.4735 163.096 22.1262 163.438 19.8645 164.079C16.2596 165.1 13.8477 166.099 12.3647 167.026C10.8461 167.975 10.4622 168.742 10.5053 169.26Z" stroke="black" stroke-opacity="0.18" stroke-linecap="round" stroke-linejoin="round"/>
<path d="M18.0234 169.771C20.5388 167.884 28.2108 165.241 38.7755 169.771" stroke="black" stroke-opacity="0.18" stroke-linecap="round" stroke-linejoin="round"/>
<path d="M10.5048 169.26C10.5056 169.269 10.5061 169.278 10.5063 169.287C10.691 175.384 13.5051 181.624 16.993 186.974C20.4577 192.289 24.5526 196.674 27.2735 199.093C31.9757 201.604 35.1388 200.079 36.0646 199.153C36.0732 199.144 36.0821 199.136 36.0913 199.128C39.6646 196.04 42.0819 191.308 43.6638 186.348C45.2432 181.396 45.973 176.269 46.2065 172.451C46.3087 170.78 45.8777 169.138 44.858 167.862C41.2709 163.374 33.9759 157.844 24.2807 160.347C18.4769 161.846 14.9759 163.708 12.9561 165.391C10.919 167.089 10.4457 168.55 10.5048 169.26Z" stroke="black" stroke-opacity="0.18" stroke-linecap="round" stroke-linejoin="round"/>
</g>
<defs>
<filter id="filter0_d_513_2220" x="0" y="0.777344" width="63.1641" height="215.188" filterUnits="userSpaceOnUse" color-interpolation-filters="sRGB">
<feFlood flood-opacity="0" result="BackgroundImageFix"/>
<feColorMatrix in="SourceAlpha" type="matrix" values="0 0 0 0 0 0 0 0 0 0 0 0 0 0 0 0 0 0 127 0" result="hardAlpha"/>
<feOffset dy="5"/>
<feGaussianBlur stdDeviation="5"/>
<feComposite in2="hardAlpha" operator="out"/>
<feColorMatrix type="matrix" values="0 0 0 0 0 0 0 0 0 0 0 0 0 0 0 0 0 0 0.35 0"/>
<feBlend mode="normal" in2="BackgroundImageFix" result="effect1_dropShadow_513_2220"/>
<feBlend mode="normal" in="SourceGraphic" in2="effect1_dropShadow_513_2220" result="shape"/>
</filter>
<radialGradient id="paint0_radial_513_2220" cx="0" cy="0" r="1" gradientUnits="userSpaceOnUse" gradientTransform="translate(35.1462 91.8228) rotate(90) scale(27.5815 18.0182)">
<stop offset="0.56179" stop-color="white"/>
<stop offset="1" stop-color="#CAC9C2"/>
</radialGradient>
<radialGradient id="paint1_diamond_513_2220" cx="0" cy="0" r="1" gradientUnits="userSpaceOnUse" gradientTransform="translate(33.5831 43.0338) rotate(90) scale(37.2565 12.9738)">
<stop stop-color="#F9E7C9"/>
<stop offset="1" stop-color="#E7BA8B"/>
</radialGradient>
<radialGradient id="paint2_radial_513_2220" cx="0" cy="0" r="1" gradientUnits="userSpaceOnUse" gradientTransform="translate(28.3983 181.752) rotate(-90) scale(19.2133 18.3964)">
<stop offset="0.56179" stop-color="white"/>
<stop offset="1" stop-color="#CAC9C2"/>
</radialGradient>
</defs>
</svg>
