<svg width="63" height="222" viewBox="0 0 63 222" fill="none" xmlns="http://www.w3.org/2000/svg">
<g filter="url(#filter0_d_513_2244)">
<path d="M10.6369 116.045C10.6369 111.515 12.5239 97.1678 13.4673 90.5607L17.7132 77.3464L21.4871 72.627L34.6959 63.6602L43.1872 78.7622C43.8161 83.3243 45.357 94.8081 46.4892 104.247C47.6214 113.686 43.187 116.675 40.8283 116.989C30.7645 118.562 10.6369 120.576 10.6369 116.045Z" fill="url(#paint0_radial_513_2244)"/>
<path d="M40.3571 10.8051C38.0927 20.2438 41.3005 60.988 43.1875 79.7082C38.9418 74.5169 31.7714 68.8536 27.6201 72.6291C23.4687 76.4046 18.9715 78.2924 17.2418 78.7643C18.1852 61.3026 23.8461 54.2235 23.8461 42.897C23.2171 34.7167 23.9405 16.4683 31.8657 8.91731C39.791 1.36628 40.8288 7.02955 40.3571 10.8051Z" fill="url(#paint1_diamond_513_2244)"/>
<path d="M52.5979 196.799C52.2206 184.34 41.1214 171.472 35.619 166.595C30.714 163.952 27.2868 165.494 26.1863 166.595C18.8399 172.944 16.3698 185.921 15.8989 193.62C15.7904 195.393 16.2466 197.163 17.356 198.552C21.0034 203.115 28.4818 208.812 38.4488 206.238C50.1454 203.217 52.7551 198.687 52.5979 196.799Z" fill="#585858"/>
<path d="M52.0997 196.841C52.0989 196.832 52.0984 196.823 52.0982 196.814C51.9135 190.717 49.0994 184.477 45.6115 179.127C42.1468 173.812 38.0519 169.427 35.331 167.008C30.6288 164.497 27.4657 166.022 26.5399 166.948C26.5313 166.957 26.5224 166.965 26.5132 166.973C22.9399 170.061 20.5226 174.793 18.9407 179.753C17.3613 184.705 16.6315 189.832 16.398 193.65C16.2957 195.321 16.7268 196.963 17.7465 198.239C21.3336 202.728 28.6286 208.257 38.3238 205.754C44.1276 204.255 47.6286 202.393 49.6484 200.71C51.6855 199.012 52.1588 197.551 52.0997 196.841Z" stroke="black" stroke-opacity="0.18" stroke-linecap="round" stroke-linejoin="round"/>
<path d="M52.5984 196.799C52.2211 184.34 41.1219 171.472 35.6195 166.595C30.7145 163.952 27.2872 165.494 26.1867 166.595C18.8404 172.944 16.3703 185.921 15.8994 193.62C15.7909 195.393 16.2077 197.201 17.3932 198.525C20.1535 201.607 25.0141 203.75 35.7893 203.549C38.1834 203.505 40.5734 203.156 42.8772 202.503C50.1213 200.452 52.7356 198.446 52.5984 196.799Z" fill="url(#paint2_radial_513_2244)"/>
<path d="M52.1001 196.841C52.0994 196.832 52.0989 196.823 52.0986 196.814C51.914 190.717 49.0999 184.477 45.612 179.127C42.1472 173.812 38.0524 169.427 35.3314 167.008C30.6293 164.497 27.4661 166.022 26.5404 166.948C26.5318 166.957 26.5229 166.965 26.5137 166.973C22.9403 170.061 20.5231 174.793 18.9411 179.753C17.3618 184.705 16.632 189.832 16.3984 193.65C16.2954 195.335 16.695 196.996 17.7656 198.191C20.381 201.111 25.0583 203.249 35.78 203.049C38.1319 203.005 40.4792 202.663 42.741 202.022C46.3458 201.001 48.7578 200.002 50.2408 199.075C51.7594 198.126 52.1433 197.359 52.1001 196.841Z" stroke="black" stroke-opacity="0.18" stroke-linecap="round" stroke-linejoin="round"/>
<path d="M44.5811 196.33C42.0657 198.218 34.3937 200.861 23.829 196.33" stroke="black" stroke-opacity="0.18" stroke-linecap="round" stroke-linejoin="round"/>
<path d="M52.0997 196.841C52.0989 196.832 52.0984 196.823 52.0982 196.814C51.9135 190.717 49.0994 184.477 45.6115 179.127C42.1468 173.812 38.0519 169.427 35.331 167.008C30.6288 164.497 27.4657 166.022 26.5399 166.948C26.5313 166.957 26.5224 166.965 26.5132 166.973C22.9399 170.061 20.5226 174.793 18.9407 179.753C17.3613 184.705 16.6315 189.832 16.398 193.65C16.2957 195.321 16.7268 196.963 17.7465 198.239C21.3336 202.728 28.6286 208.257 38.3238 205.754C44.1276 204.255 47.6286 202.393 49.6484 200.71C51.6855 199.012 52.1588 197.551 52.0997 196.841Z" stroke="black" stroke-opacity="0.18" stroke-linecap="round" stroke-linejoin="round"/>
</g>
<defs>
<filter id="filter0_d_513_2244" x="0.636719" y="0.195312" width="61.9678" height="221.684" filterUnits="userSpaceOnUse" color-interpolation-filters="sRGB">
<feFlood flood-opacity="0" result="BackgroundImageFix"/>
<feColorMatrix in="SourceAlpha" type="matrix" values="0 0 0 0 0 0 0 0 0 0 0 0 0 0 0 0 0 0 127 0" result="hardAlpha"/>
<feOffset dy="5"/>
<feGaussianBlur stdDeviation="5"/>
<feComposite in2="hardAlpha" operator="out"/>
<feColorMatrix type="matrix" values="0 0 0 0 0 0 0 0 0 0 0 0 0 0 0 0 0 0 0.35 0"/>
<feBlend mode="normal" in2="BackgroundImageFix" result="effect1_dropShadow_513_2244"/>
<feBlend mode="normal" in="SourceGraphic" in2="effect1_dropShadow_513_2244" result="shape"/>
</filter>
<radialGradient id="paint0_radial_513_2244" cx="0" cy="0" r="1" gradientUnits="userSpaceOnUse" gradientTransform="translate(28.6539 91.2417) rotate(90) scale(27.5815 18.017)">
<stop offset="0.56179" stop-color="white"/>
<stop offset="1" stop-color="#CAC9C2"/>
</radialGradient>
<radialGradient id="paint1_diamond_513_2244" cx="0" cy="0" r="1" gradientUnits="userSpaceOnUse" gradientTransform="translate(30.2146 42.4518) rotate(90) scale(37.2565 12.9729)">
<stop stop-color="#F9E7C9"/>
<stop offset="1" stop-color="#E7BA8B"/>
</radialGradient>
<radialGradient id="paint2_radial_513_2244" cx="0" cy="0" r="1" gradientUnits="userSpaceOnUse" gradientTransform="translate(34.2071 184.349) rotate(90) scale(19.2133 18.3964)">
<stop offset="0.56179" stop-color="white"/>
<stop offset="1" stop-color="#CAC9C2"/>
</radialGradient>
</defs>
</svg>
