<svg width="65" height="245" viewBox="0 0 65 245" fill="none" xmlns="http://www.w3.org/2000/svg">
<g filter="url(#filter0_d_513_2252)">
<path d="M46.2187 96.1074L41.5013 87.6125L27.8209 81.9492C27.3492 82.1065 24.8018 85.536 18.3862 97.9951C11.9706 110.454 10.6812 126.783 10.8385 133.391C10.8385 133.705 12.5367 135.561 19.3297 140.47C26.1227 145.378 30.9658 143.459 32.5383 141.885C34.4253 139.683 39.4257 134.901 44.3318 133.391C50.4643 131.503 51.4078 122.536 49.9926 120.176C48.8604 118.289 47.0049 103.344 46.2187 96.1074Z" fill="url(#paint0_radial_513_2252)"/>
<path d="M43.8581 52.6871C44.9903 64.3912 45.7451 86.5095 46.2168 96.1056C44.3299 95.7909 40.2729 94.2178 37.2538 90.4423C34.2347 86.6668 30.0205 88.8692 28.2908 90.4423C25.4604 92.33 17.9127 103.185 17.9127 97.0494C17.9127 90.9142 22.1583 58.8224 23.5735 42.3045C24.7057 29.0902 33.4799 12.8869 37.7256 6.4371C39.4553 5.1786 42.6316 4.1718 41.4994 10.2126C40.0842 17.7636 42.4429 38.057 43.8581 52.6871Z" fill="url(#paint1_diamond_513_2252)"/>
<path d="M52.7732 194.415C58.4329 202.344 48.2141 218.484 42.3972 225.563C40.8461 227.451 36.266 232.642 26.3616 225.563C16.1742 216.124 15.8284 204.011 16.9288 199.134C24.8523 182.145 35.0083 181.043 39.0958 182.616C41.2967 183.246 47.1136 186.486 52.7732 194.415Z" fill="url(#paint2_radial_513_2252)"/>
<path d="M48.5285 198.19C47.2708 196.145 43.3405 192.999 37.2092 192.999M32.0212 192.999C25.8899 193.943 22.3055 195.736 21.1736 201.022M48.1026 198.452C48.2473 198.688 48.5552 198.761 48.7904 198.616C49.0257 198.472 49.0991 198.164 48.9544 197.929C47.602 195.729 43.507 192.499 37.2092 192.499C36.9331 192.499 36.7092 192.723 36.7092 192.999C36.7092 193.275 36.9331 193.499 37.2092 193.499C43.174 193.499 46.9396 196.561 48.1026 198.452ZM32.0973 193.493C32.3702 193.451 32.5574 193.196 32.5154 192.923C32.4734 192.65 32.2181 192.463 31.9451 192.505C28.8601 192.98 26.3402 193.678 24.4414 194.969C22.5171 196.278 21.2738 198.166 20.6847 200.917C20.6268 201.187 20.7989 201.453 21.0689 201.511C21.3389 201.569 21.6047 201.397 21.6625 201.127C22.2053 198.592 23.3202 196.941 25.0038 195.796C26.7131 194.633 29.051 193.962 32.0973 193.493ZM38.9162 183.083C38.93 183.088 38.9441 183.093 38.9583 183.097C41.0235 183.688 46.7539 186.843 52.3663 194.705C53.6887 196.558 54.106 198.92 53.8598 201.585C53.6134 204.252 52.706 207.179 51.4305 210.108C48.8798 215.965 44.8995 221.73 42.0109 225.246C41.2463 226.176 39.8009 227.833 37.3898 228.441C35.0037 229.041 31.5402 228.642 26.6781 225.175C16.709 215.92 16.3494 204.071 17.4049 199.297C25.2609 182.491 35.1696 181.641 38.9162 183.083Z" stroke="black" stroke-opacity="0.18" stroke-linecap="round" stroke-linejoin="round"/>
</g>
<defs>
<filter id="filter0_d_513_2252" x="0.826172" y="0.482422" width="63.6006" height="243.69" filterUnits="userSpaceOnUse" color-interpolation-filters="sRGB">
<feFlood flood-opacity="0" result="BackgroundImageFix"/>
<feColorMatrix in="SourceAlpha" type="matrix" values="0 0 0 0 0 0 0 0 0 0 0 0 0 0 0 0 0 0 127 0" result="hardAlpha"/>
<feOffset dy="5"/>
<feGaussianBlur stdDeviation="5"/>
<feComposite in2="hardAlpha" operator="out"/>
<feColorMatrix type="matrix" values="0 0 0 0 0 0 0 0 0 0 0 0 0 0 0 0 0 0 0.35 0"/>
<feBlend mode="normal" in2="BackgroundImageFix" result="effect1_dropShadow_513_2252"/>
<feBlend mode="normal" in="SourceGraphic" in2="effect1_dropShadow_513_2252" result="shape"/>
</filter>
<radialGradient id="paint0_radial_513_2252" cx="0" cy="0" r="1" gradientUnits="userSpaceOnUse" gradientTransform="translate(30.6973 112.78) rotate(90) scale(30.8312 19.8711)">
<stop offset="0.56179" stop-color="white"/>
<stop offset="1" stop-color="#CAC9C2"/>
</radialGradient>
<radialGradient id="paint1_diamond_513_2252" cx="0" cy="0" r="1" gradientUnits="userSpaceOnUse" gradientTransform="translate(32.0647 52.1955) rotate(90) scale(46.7131 14.1521)">
<stop stop-color="#F9E7C9"/>
<stop offset="1" stop-color="#E7BA8B"/>
</radialGradient>
<radialGradient id="paint2_radial_513_2252" cx="0" cy="0" r="1" gradientUnits="userSpaceOnUse" gradientTransform="translate(35.464 205.636) rotate(-90) scale(23.5365 18.9628)">
<stop offset="0.56179" stop-color="white"/>
<stop offset="1" stop-color="#CAC9C2"/>
</radialGradient>
</defs>
</svg>
