<svg width="76" height="227" viewBox="0 0 76 227" fill="none" xmlns="http://www.w3.org/2000/svg">
<g filter="url(#filter0_d_513_2264)">
<path d="M34.0926 11.1313C36.3517 15.1987 41.6393 23.594 45.398 27.6138C45.7161 27.954 45.9643 28.3511 46.1116 28.7929L48.1266 34.8396C48.2063 35.079 48.2556 35.3275 48.2731 35.5793L49.5272 53.5587C49.6093 54.7363 48.9933 55.8525 47.9532 56.4108L33.2881 64.2821C31.7068 65.1309 29.739 64.4106 29.0793 62.7415L22.7038 46.6106C22.4416 45.9472 22.4263 45.2148 22.6422 44.5349C24.5903 38.4002 26.7021 28.461 29.3746 26.2333C30.2445 25.5082 29.6892 18.2104 29.3746 12.5471C29.3746 7.35577 31.9957 7.35575 34.0926 11.1313Z" fill="url(#paint0_linear_513_2264)"/>
<path d="M55.3247 38.0371C57.109 44.7302 56.9103 69.0488 55.452 81.8129C55.3734 82.5003 55.0508 83.1316 54.5493 83.6081L46.7065 91.061C46.1793 91.562 45.4882 91.8546 44.7615 91.883C32.8327 92.3497 11.294 92.9353 12.3908 91.8381C13.5231 90.7055 12.8626 73.7471 12.3908 65.4095C10.9754 53.2964 10.1261 26.0498 18.0524 13.9682C27.9602 -1.13384 17.5806 34.7335 26.073 50.3075C34.5655 65.8815 34.0937 58.3305 38.8117 50.7794C42.5861 44.7386 41.9571 21.9912 41.1707 10.1927C40.5583 1.00375 49.4312 7.56368 49.6632 12.5524C49.9777 19.3168 53.4376 30.958 55.3247 38.0371Z" fill="url(#paint1_diamond_513_2264)"/>
<path d="M54.3792 111.654C49.7498 111.324 42.3682 117.247 38.072 121.365C37.0479 122.346 35.5623 122.848 34.303 122.196C28.7361 119.309 29.5603 111.745 28.4301 109.767L18.0505 105.047L27.0147 95.6084L53.4356 102.687C55.9519 105.834 59.6634 112.032 54.3792 111.654Z" fill="#A9A9A9"/>
<path d="M60.0415 110.247C61.9287 89.8592 59.0979 83.8184 57.6825 82.4026L56.5512 80.8183C55.8843 79.8844 54.5307 79.6745 53.4366 80.0208C50.2848 81.0182 45.0505 81.0201 41.6412 80.5148C37.7095 78.9417 29.0913 76.7393 26.0717 80.5148C22.2973 85.2342 13.8049 84.7623 12.3895 86.1781C11.2572 87.3108 10.6595 96.0888 10.5023 100.336C9.72188 101.898 13.7822 123.15 21.3488 127.251C24.4609 128.938 27.4018 125.548 29.3157 122.57C34.08 115.158 37.8607 112.36 39.3316 111.895C39.5702 115.787 40.6145 118.048 41.1694 118.742C42.8993 120.158 46.7367 122.612 48.2464 121.102C49.7562 119.591 51.7063 120.158 52.4927 120.63C58.1543 124.405 59.8842 115.281 60.0415 110.247Z" fill="url(#paint2_radial_513_2264)"/>
<path d="M65.9911 190.107V171.23C65.6766 168.713 63.5385 162.923 57.5016 159.903C49.9554 156.128 36.7496 156.128 33.9198 156.599C31.0899 157.071 26.3736 157.071 20.2423 168.398C15.3373 177.459 15.3687 189.478 15.9976 194.355C19.7707 209.457 27.9457 211.659 31.5616 210.872C32.3476 210.715 34.9574 210.117 39.1078 208.985C44.2958 207.569 47.5972 208.513 49.9554 208.985C51.8419 209.362 54.5146 208.827 55.615 208.513C64.2932 205.492 66.1483 194.984 65.9911 190.107Z" fill="url(#paint3_radial_513_2264)"/>
<path d="M65.4913 190.123L65.4911 190.107V171.261C65.1779 168.846 63.1026 163.264 57.2779 160.35C53.5901 158.505 48.4777 157.568 43.8973 157.156C39.3157 156.745 35.3556 156.867 34.002 157.093C33.8158 157.124 33.6242 157.153 33.4269 157.182C32.0931 157.383 30.5015 157.622 28.589 158.849C26.3861 160.262 23.7246 163.015 20.682 168.636C15.8582 177.547 15.8706 189.414 16.4897 194.262C20.2269 209.182 28.2009 211.092 31.4553 210.384L31.4553 210.384L31.4635 210.382C32.2336 210.228 34.831 209.634 38.9761 208.502C43.8147 207.182 47.0744 207.869 49.3945 208.358C49.6231 208.406 49.8425 208.452 50.0535 208.494C50.9204 208.668 51.9991 208.635 53.02 208.512C54.0258 208.39 54.9362 208.186 55.4641 208.036C59.62 206.584 62.1637 203.339 63.6558 199.811C65.1519 196.275 65.568 192.502 65.4913 190.123Z" stroke="black" stroke-opacity="0.18" stroke-linecap="round" stroke-linejoin="round"/>
</g>
<defs>
<filter id="filter0_d_513_2264" x="0.407227" y="0.583008" width="75.5928" height="225.427" filterUnits="userSpaceOnUse" color-interpolation-filters="sRGB">
<feFlood flood-opacity="0" result="BackgroundImageFix"/>
<feColorMatrix in="SourceAlpha" type="matrix" values="0 0 0 0 0 0 0 0 0 0 0 0 0 0 0 0 0 0 127 0" result="hardAlpha"/>
<feOffset dy="5"/>
<feGaussianBlur stdDeviation="5"/>
<feComposite in2="hardAlpha" operator="out"/>
<feColorMatrix type="matrix" values="0 0 0 0 0 0 0 0 0 0 0 0 0 0 0 0 0 0 0.35 0"/>
<feBlend mode="normal" in2="BackgroundImageFix" result="effect1_dropShadow_513_2264"/>
<feBlend mode="normal" in="SourceGraphic" in2="effect1_dropShadow_513_2264" result="shape"/>
</filter>
<linearGradient id="paint0_linear_513_2264" x1="35.9799" y1="8.45557" x2="35.9799" y2="65.8762" gradientUnits="userSpaceOnUse">
<stop stop-color="#CC8559"/>
<stop offset="1" stop-color="#EBB98F"/>
</linearGradient>
<radialGradient id="paint1_diamond_513_2264" cx="0" cy="0" r="1" gradientUnits="userSpaceOnUse" gradientTransform="translate(34.0345 49.0233) rotate(90) scale(43.4403 22.5699)">
<stop stop-color="#F9E7C9"/>
<stop offset="1" stop-color="#E7BA8B"/>
</radialGradient>
<radialGradient id="paint2_radial_513_2264" cx="0" cy="0" r="1" gradientUnits="userSpaceOnUse" gradientTransform="translate(35.5386 103.182) rotate(90) scale(24.7516 25.1314)">
<stop offset="0.56179" stop-color="white"/>
<stop offset="1" stop-color="#CAC9C2"/>
</radialGradient>
<radialGradient id="paint3_radial_513_2264" cx="0" cy="0" r="1" gradientUnits="userSpaceOnUse" gradientTransform="translate(40.8521 183.698) rotate(90) scale(27.3126 25.1479)">
<stop offset="0.56179" stop-color="white"/>
<stop offset="1" stop-color="#CAC9C2"/>
</radialGradient>
</defs>
</svg>
