<svg width="75" height="263" viewBox="0 0 75 263" fill="none" xmlns="http://www.w3.org/2000/svg">
<g filter="url(#filter0_d_513_2270)">
<ellipse cx="9.43534" cy="10.3827" rx="9.43534" ry="10.3827" transform="matrix(-1 0 0 1 47.7256 91.8594)" fill="#A9A9A9"/>
<path d="M63.7653 89.974C63.2935 84.3107 57.16 71.8831 52.9141 64.0175L40.6482 61.6577C34.3579 61.0284 20.2678 62.6959 14.2292 74.4C8.19057 86.1041 10.4551 98.9409 11.8704 103.66C13.5566 108.018 17.5316 115.931 27.4387 114.515C31.2128 113.571 37.3458 99.8847 42.0635 104.604C44.3279 109.89 47.7247 110.582 49.14 110.267C51.027 110.739 53.3859 107.954 53.3859 105.548C53.3859 102.716 54.4866 102.874 54.8011 101.772C66.5954 100.829 64.2371 92.8056 63.7653 89.974Z" fill="url(#paint0_radial_513_2270)"/>
<path d="M32.6289 5.9707C34.0442 5.9707 34.516 8.3304 34.516 10.2182C34.0442 14.4656 35.4595 17.7692 35.9313 21.0727C36.4031 23.4324 36.6777 23.7331 37.3466 24.8483C38.7619 27.208 44.8949 32.3993 45.3667 32.8712C45.7441 33.2488 48.04 53.4792 48.1973 56.4682L40.1772 64.4911L21.7783 52.2207C23.1936 49.3891 22.3444 31.1722 24.6089 31.9273C26.8734 32.6824 27.4395 16.8253 29.7983 8.80234C29.9556 7.85846 30.7419 5.9707 32.6289 5.9707Z" fill="url(#paint1_linear_513_2270)"/>
<g clip-path="url(#paint2_diamond_513_2270_clip_path)" data-figma-skip-parse="true"><g transform="matrix(0 0.033929 0.0236964 0 34.996 41.4148)"><rect x="0" y="0" width="1029.47" height="1042.2" fill="url(#paint2_diamond_513_2270)" opacity="1" shape-rendering="crispEdges"/><rect x="0" y="0" width="1029.47" height="1042.2" transform="scale(1 -1)" fill="url(#paint2_diamond_513_2270)" opacity="1" shape-rendering="crispEdges"/><rect x="0" y="0" width="1029.47" height="1042.2" transform="scale(-1 1)" fill="url(#paint2_diamond_513_2270)" opacity="1" shape-rendering="crispEdges"/><rect x="0" y="0" width="1029.47" height="1042.2" transform="scale(-1)" fill="url(#paint2_diamond_513_2270)" opacity="1" shape-rendering="crispEdges"/></g></g><path d="M45.7955 69.2501C49.2292 68.3245 53.387 68.2647 56.2176 70.1525C58.8595 60.3362 59.2053 44.0385 58.1045 38.5326C56.2174 28.6219 57.6327 32.3974 50.5566 16.8233C44.895 2.19313 40.6491 7.85631 40.6491 13.0477C39.7056 25.3181 46.7821 60.7136 37.8189 56.9381C29.8932 53.1626 28.8553 38.0606 26.9248 30.5096C26.9248 24.8464 31.4025 4.6472 24.609 8.80026C17.8156 12.9533 14.545 27.5207 12.8152 34.2851C8.09756 46.0836 16.1176 65.905 13.7588 75.3438C15.6458 70.1525 23.1939 69.6805 26.0245 71.0964C31.2139 73.4561 35.4598 75.3438 40.6492 72.5122C42.4335 71.5386 42.5366 70.6244 45.7955 69.2501Z" data-figma-gradient-fill="{&#34;type&#34;:&#34;GRADIENT_DIAMOND&#34;,&#34;stops&#34;:[{&#34;color&#34;:{&#34;r&#34;:0.97647058963775635,&#34;g&#34;:0.90588235855102539,&#34;b&#34;:0.78823530673980713,&#34;a&#34;:1.0},&#34;position&#34;:0.0},{&#34;color&#34;:{&#34;r&#34;:0.90588235855102539,&#34;g&#34;:0.7294117808341980,&#34;b&#34;:0.54509806632995605,&#34;a&#34;:1.0},&#34;position&#34;:1.0}],&#34;stopsVar&#34;:[{&#34;color&#34;:{&#34;r&#34;:0.97647058963775635,&#34;g&#34;:0.90588235855102539,&#34;b&#34;:0.78823530673980713,&#34;a&#34;:1.0},&#34;position&#34;:0.0},{&#34;color&#34;:{&#34;r&#34;:0.90588235855102539,&#34;g&#34;:0.7294117808341980,&#34;b&#34;:0.54509806632995605,&#34;a&#34;:1.0},&#34;position&#34;:1.0}],&#34;transform&#34;:{&#34;m00&#34;:-2.9019719349846753e-15,&#34;m01&#34;:47.392795562744141,&#34;m02&#34;:11.299587249755859,&#34;m10&#34;:67.857978820800781,&#34;m11&#34;:4.1551031820970252e-15,&#34;m12&#34;:7.485839843750},&#34;opacity&#34;:1.0,&#34;blendMode&#34;:&#34;NORMAL&#34;,&#34;visible&#34;:true}"/>
<path d="M64.8777 172.093C66.3869 153.593 53.5584 150.541 46.9555 151.328C43.0252 151.8 33.0893 153.121 24.7885 154.631C14.4125 156.519 15.3558 167.846 14.4125 180.116C13.4693 192.386 27.1467 203.241 31.8631 199.465C34.5646 197.303 40.6512 196.624 45.6216 196.529C48.9998 196.464 52.3913 196.138 55.6369 195.199C65.5626 192.327 63.2219 192.39 64.8777 172.093Z" fill="url(#paint3_radial_513_2270)"/>
<path d="M64.3793 172.052C65.1235 162.93 62.3331 157.724 58.6525 154.873C54.9409 151.998 50.2268 151.442 47.0151 151.824C43.0899 152.295 33.165 153.615 24.878 155.123C22.3792 155.578 20.5954 156.592 19.292 158.021C17.9811 159.458 17.1255 161.349 16.5476 163.604C15.9695 165.86 15.6771 168.449 15.4713 171.259C15.3757 172.563 15.2992 173.909 15.2208 175.288L15.2028 175.604C15.1181 177.091 15.0294 178.615 14.9111 180.154C14.4543 186.096 17.5421 191.741 21.3636 195.449C23.2715 197.3 25.3339 198.64 27.1798 199.289C29.0427 199.943 30.5695 199.861 31.5506 199.075C33.0032 197.912 35.3049 197.185 37.8019 196.73C40.3181 196.272 43.1112 196.077 45.612 196.029C48.9669 195.964 52.3104 195.641 55.4979 194.719C57.9968 193.996 59.6436 193.477 60.7797 192.802C61.8678 192.154 62.482 191.364 62.8795 190.037C63.2909 188.663 63.4627 186.739 63.6319 183.833C63.6701 183.176 63.7082 182.472 63.7491 181.715C63.8879 179.147 64.0591 175.978 64.3793 172.052Z" stroke="black" stroke-opacity="0.18" stroke-linecap="round" stroke-linejoin="round"/>
<g filter="url(#filter1_d_513_2270)">
<path d="M17.2286 219.297C17.7582 213.073 34.6399 211.702 45.4854 212.05C47.2344 212.106 48.7028 213.34 49.1354 215.035C64.3636 208.643 62.1881 224.27 61.463 225.69C60.8828 226.827 59.2875 230.426 58.5624 232.083C55.6617 246.29 49.8605 247 33.182 247C16.5035 247 16.5035 227.821 17.2286 219.297Z" fill="url(#paint4_radial_513_2270)"/>
<path d="M49.1354 227.111V215.035M49.1354 215.035V215.035C48.7028 213.34 47.2344 212.106 45.4854 212.05C34.6399 211.702 17.7582 213.073 17.2286 219.297C16.5035 227.821 16.5035 247 33.182 247C49.8605 247 55.6617 246.29 58.5624 232.083C59.2875 230.426 60.8828 226.827 61.463 225.69C62.1881 224.27 64.3636 208.643 49.1354 215.035Z" stroke="#CBCBCB"/>
</g>
</g>
<defs>
<filter id="filter0_d_513_2270" x="0.254883" y="0.970703" width="74.7451" height="261.529" filterUnits="userSpaceOnUse" color-interpolation-filters="sRGB">
<feFlood flood-opacity="0" result="BackgroundImageFix"/>
<feColorMatrix in="SourceAlpha" type="matrix" values="0 0 0 0 0 0 0 0 0 0 0 0 0 0 0 0 0 0 127 0" result="hardAlpha"/>
<feOffset dy="5"/>
<feGaussianBlur stdDeviation="5"/>
<feComposite in2="hardAlpha" operator="out"/>
<feColorMatrix type="matrix" values="0 0 0 0 0 0 0 0 0 0 0 0 0 0 0 0 0 0 0.35 0"/>
<feBlend mode="normal" in2="BackgroundImageFix" result="effect1_dropShadow_513_2270"/>
<feBlend mode="normal" in="SourceGraphic" in2="effect1_dropShadow_513_2270" result="shape"/>
</filter>
<clipPath id="paint2_diamond_513_2270_clip_path"><path d="M45.7955 69.2501C49.2292 68.3245 53.387 68.2647 56.2176 70.1525C58.8595 60.3362 59.2053 44.0385 58.1045 38.5326C56.2174 28.6219 57.6327 32.3974 50.5566 16.8233C44.895 2.19313 40.6491 7.85631 40.6491 13.0477C39.7056 25.3181 46.7821 60.7136 37.8189 56.9381C29.8932 53.1626 28.8553 38.0606 26.9248 30.5096C26.9248 24.8464 31.4025 4.6472 24.609 8.80026C17.8156 12.9533 14.545 27.5207 12.8152 34.2851C8.09756 46.0836 16.1176 65.905 13.7588 75.3438C15.6458 70.1525 23.1939 69.6805 26.0245 71.0964C31.2139 73.4561 35.4598 75.3438 40.6492 72.5122C42.4335 71.5386 42.5366 70.6244 45.7955 69.2501Z"/></clipPath><filter id="filter1_d_513_2270" x="12.5" y="211.5" width="54" height="44" filterUnits="userSpaceOnUse" color-interpolation-filters="sRGB">
<feFlood flood-opacity="0" result="BackgroundImageFix"/>
<feColorMatrix in="SourceAlpha" type="matrix" values="0 0 0 0 0 0 0 0 0 0 0 0 0 0 0 0 0 0 127 0" result="hardAlpha"/>
<feOffset dy="4"/>
<feGaussianBlur stdDeviation="2"/>
<feComposite in2="hardAlpha" operator="out"/>
<feColorMatrix type="matrix" values="0 0 0 0 0 0 0 0 0 0 0 0 0 0 0 0 0 0 0.25 0"/>
<feBlend mode="normal" in2="BackgroundImageFix" result="effect1_dropShadow_513_2270"/>
<feBlend mode="normal" in="SourceGraphic" in2="effect1_dropShadow_513_2270" result="shape"/>
</filter>
<radialGradient id="paint0_radial_513_2270" cx="0" cy="0" r="1" gradientUnits="userSpaceOnUse" gradientTransform="translate(37.2635 88.1128) rotate(90) scale(26.5693 27.009)">
<stop offset="0.56179" stop-color="white"/>
<stop offset="1" stop-color="#CAC9C2"/>
</radialGradient>
<linearGradient id="paint1_linear_513_2270" x1="34.9878" y1="5.9707" x2="34.9878" y2="64.4911" gradientUnits="userSpaceOnUse">
<stop stop-color="#CC8559"/>
<stop offset="1" stop-color="#EBB98F"/>
</linearGradient>
<linearGradient id="paint2_diamond_513_2270" x1="0" y1="0" x2="500" y2="500" gradientUnits="userSpaceOnUse">
<stop stop-color="#F9E7C9"/>
<stop offset="1" stop-color="#E7BA8B"/>
</linearGradient>
<radialGradient id="paint3_radial_513_2270" cx="0" cy="0" r="1" gradientUnits="userSpaceOnUse" gradientTransform="translate(39.683 175.722) rotate(90) scale(24.5052 25.317)">
<stop offset="0.56179" stop-color="white"/>
<stop offset="1" stop-color="#CAC9C2"/>
</radialGradient>
<radialGradient id="paint4_radial_513_2270" cx="0" cy="0" r="1" gradientUnits="userSpaceOnUse" gradientTransform="translate(39.5 229.5) rotate(90) scale(17.5 22.5)">
<stop offset="0.505" stop-color="white"/>
<stop offset="1" stop-color="#D9D9D9"/>
</radialGradient>
</defs>
</svg>
