<svg width="72" height="255" viewBox="0 0 72 255" fill="none" xmlns="http://www.w3.org/2000/svg">
<g filter="url(#filter0_d_513_2349)">
<g clip-path="url(#paint0_diamond_513_2349_clip_path)" data-figma-skip-parse="true"><g transform="matrix(0 0.0458918 0.0232316 0 36.7889 193.328)"><rect x="0" y="0" width="1021.79" height="1043.04" fill="url(#paint0_diamond_513_2349)" opacity="1" shape-rendering="crispEdges"/><rect x="0" y="0" width="1021.79" height="1043.04" transform="scale(1 -1)" fill="url(#paint0_diamond_513_2349)" opacity="1" shape-rendering="crispEdges"/><rect x="0" y="0" width="1021.79" height="1043.04" transform="scale(-1 1)" fill="url(#paint0_diamond_513_2349)" opacity="1" shape-rendering="crispEdges"/><rect x="0" y="0" width="1021.79" height="1043.04" transform="scale(-1)" fill="url(#paint0_diamond_513_2349)" opacity="1" shape-rendering="crispEdges"/></g></g><path d="M59.2959 193.732C60.8056 185.426 59.6104 170.45 58.8241 164L41.3683 147.482C34.9206 147.325 19.5721 146.821 15.4204 161.168C11.9207 173.262 14.0978 196.491 15.9041 210.272C16.4779 214.65 17.6981 218.92 19.6097 222.9C22.5679 229.061 26.4228 236.242 28.6302 237.622C32.4045 239.982 34.2916 239.51 35.2351 237.622C35.99 236.112 35.5497 231.645 35.2351 229.599C33.348 222.992 29.9512 207.985 31.4609 200.811C33.348 191.844 36.1787 191.844 37.1223 192.316C38.0658 192.788 39.4812 195.148 41.3683 200.811C43.2554 206.474 42.3118 215.441 41.3683 220.633C40.6134 224.786 40.7392 227.712 40.8965 228.656C42.3118 230.386 45.8973 232.809 48.9167 228.656C52.691 223.464 57.4087 204.115 59.2959 193.732Z" data-figma-gradient-fill="{&#34;type&#34;:&#34;GRADIENT_DIAMOND&#34;,&#34;stops&#34;:[{&#34;color&#34;:{&#34;r&#34;:0.97647058963775635,&#34;g&#34;:0.90588235855102539,&#34;b&#34;:0.78823530673980713,&#34;a&#34;:1.0},&#34;position&#34;:0.0},{&#34;color&#34;:{&#34;r&#34;:0.90588235855102539,&#34;g&#34;:0.7294117808341980,&#34;b&#34;:0.54509806632995605,&#34;a&#34;:1.0},&#34;position&#34;:1.0}],&#34;stopsVar&#34;:[{&#34;color&#34;:{&#34;r&#34;:0.97647058963775635,&#34;g&#34;:0.90588235855102539,&#34;b&#34;:0.78823530673980713,&#34;a&#34;:1.0},&#34;position&#34;:0.0},{&#34;color&#34;:{&#34;r&#34;:0.90588235855102539,&#34;g&#34;:0.7294117808341980,&#34;b&#34;:0.54509806632995605,&#34;a&#34;:1.0},&#34;position&#34;:1.0}],&#34;transform&#34;:{&#34;m00&#34;:-2.8450502621380023e-15,&#34;m01&#34;:46.463195800781250,&#34;m02&#34;:13.557312011718750,&#34;m10&#34;:91.78356933593750,&#34;m11&#34;:5.6201228973385906e-15,&#34;m12&#34;:147.43652343750},&#34;opacity&#34;:1.0,&#34;blendMode&#34;:&#34;NORMAL&#34;,&#34;visible&#34;:true}"/>
<path d="M60.9575 148.513C61.2635 158.505 60.4387 164.01 59.5273 166.686C59.0767 168.009 57.5984 167.995 56.2339 167.693C54.7104 167.357 52.7959 167.44 51.058 167.699C48.3335 168.105 46.0855 169.822 43.73 171.25C40.1645 173.412 35.5339 174.596 30.9896 172.498C26.7663 168.555 21.5802 168.744 17.9777 169.813C16.2841 170.315 14.2907 169.7 13.7409 168.022C12.1185 163.067 12.1185 158.157 12.1185 150.317C12.1185 142.766 17.7798 136.788 20.6105 134.743C23.1266 133.484 29.1969 131.911 33.3485 135.687C37.5002 139.462 42.3123 138.204 44.1995 137.103C49.6691 133.715 54.4048 135.977 57.5383 139.048C60.0199 141.481 60.8511 145.04 60.9575 148.513Z" fill="url(#paint1_radial_513_2349)"/>
<path d="M61.8648 75.8953C63.6353 60.7228 47.5933 53.2885 38.5435 56.901C37.6687 57.2502 36.7211 57.4286 35.7877 57.3029C28.863 56.3699 23.8789 58.1132 20.545 60.4073C16.9521 62.8797 15.2778 67.1764 14.3868 71.4458C12.8171 78.967 11.7564 89.2471 14.5866 95.7588C18.3608 104.442 26.5382 104.096 30.1551 102.838C31.8849 102.366 35.722 101.611 37.2317 102.366C38.7414 103.121 42.5784 102.995 44.3083 102.838C53.1388 100.875 58.462 95.2838 60.2004 90.1846C61.6968 85.7949 61.3272 80.5017 61.8648 75.8953Z" fill="url(#paint2_radial_513_2349)"/>
<path d="M29.9908 102.366C30.0016 102.362 30.0125 102.359 30.0235 102.356C30.9076 102.114 32.3251 101.802 33.7201 101.645C34.4176 101.567 35.1211 101.526 35.7557 101.555C36.3801 101.585 36.9854 101.684 37.4554 101.919C37.7637 102.073 38.2264 102.197 38.8069 102.286C39.3795 102.374 40.0333 102.423 40.7033 102.444C42.0267 102.486 43.3803 102.419 44.2311 102.343C52.8878 100.408 58.052 94.9371 59.7271 90.0232C60.4534 87.8929 60.7321 85.526 60.8933 83.0882C60.947 82.2747 60.9878 81.4487 61.0286 80.6221C61.1087 78.9985 61.1889 77.3731 61.3682 75.8373C62.2287 68.4632 58.7711 62.9835 53.9831 59.7689C49.1683 56.5363 43.0683 55.6332 38.7288 57.3654C37.7961 57.7377 36.7605 57.9384 35.7209 57.7984C28.9199 56.8821 24.0606 58.5951 20.8285 60.8192C17.3995 63.1787 15.7602 67.3125 14.8763 71.548C14.0955 75.2889 13.4432 79.7079 13.3366 83.9933C13.2297 88.2879 13.6724 92.4011 15.0452 95.5595C16.8707 99.7597 19.7377 101.744 22.5662 102.546C25.419 103.355 28.2615 102.967 29.9908 102.366Z" stroke="black" stroke-opacity="0.18" stroke-linecap="round" stroke-linejoin="round"/>
<g filter="url(#filter1_d_513_2349)">
<path d="M31.3635 33.7038C36.5177 34.4494 38.1715 34.3612 38.8522 33.0464C38.8522 34.3612 40.4862 36.3335 52.5289 33.7038C61.2091 31.8084 57.2946 20.5556 55.933 18.5834C54.8437 17.0056 54.5863 16.8336 53.9055 14.4231C53.9053 13.1083 50.4864 9.21782 44.3589 7.903C31.0241 5.04171 21.892 5.71164 18.488 7.903C15.9917 10.0944 10.999 13.3241 10.999 23.8427C10.999 34.3612 19.1688 35.2378 23.2537 34.3612C25.977 33.0464 26.8186 33.0464 31.3635 33.7038Z" fill="url(#paint3_radial_513_2349)"/>
<path d="M38.8522 33.0464C39.3061 28.8828 39.3969 20.5556 36.129 20.5556M38.8522 33.0464C38.1715 34.3612 36.5177 34.4494 31.3635 33.7038C26.8186 33.0464 25.977 33.0464 23.2537 34.3612C19.1688 35.2378 10.999 34.3612 10.999 23.8427C10.999 13.3241 15.9917 10.0944 18.488 7.903C21.892 5.71164 31.0241 5.04171 44.3589 7.903C50.4864 9.21782 53.9053 13.1083 53.9055 14.4231C54.5863 16.8336 54.8437 17.0056 55.933 18.5834C57.2946 20.5556 61.2091 31.8084 52.5289 33.7038C40.4862 36.3335 38.8522 34.3612 38.8522 33.0464Z" stroke="#CBCBCB"/>
</g>
</g>
<defs>
<filter id="filter0_d_513_2349" x="0.499023" y="0.5" width="71.501" height="253.72" filterUnits="userSpaceOnUse" color-interpolation-filters="sRGB">
<feFlood flood-opacity="0" result="BackgroundImageFix"/>
<feColorMatrix in="SourceAlpha" type="matrix" values="0 0 0 0 0 0 0 0 0 0 0 0 0 0 0 0 0 0 127 0" result="hardAlpha"/>
<feOffset dy="5"/>
<feGaussianBlur stdDeviation="5"/>
<feComposite in2="hardAlpha" operator="out"/>
<feColorMatrix type="matrix" values="0 0 0 0 0 0 0 0 0 0 0 0 0 0 0 0 0 0 0.35 0"/>
<feBlend mode="normal" in2="BackgroundImageFix" result="effect1_dropShadow_513_2349"/>
<feBlend mode="normal" in="SourceGraphic" in2="effect1_dropShadow_513_2349" result="shape"/>
</filter>
<clipPath id="paint0_diamond_513_2349_clip_path"><path d="M59.2959 193.732C60.8056 185.426 59.6104 170.45 58.8241 164L41.3683 147.482C34.9206 147.325 19.5721 146.821 15.4204 161.168C11.9207 173.262 14.0978 196.491 15.9041 210.272C16.4779 214.65 17.6981 218.92 19.6097 222.9C22.5679 229.061 26.4228 236.242 28.6302 237.622C32.4045 239.982 34.2916 239.51 35.2351 237.622C35.99 236.112 35.5497 231.645 35.2351 229.599C33.348 222.992 29.9512 207.985 31.4609 200.811C33.348 191.844 36.1787 191.844 37.1223 192.316C38.0658 192.788 39.4812 195.148 41.3683 200.811C43.2554 206.474 42.3118 215.441 41.3683 220.633C40.6134 224.786 40.7392 227.712 40.8965 228.656C42.3118 230.386 45.8973 232.809 48.9167 228.656C52.691 223.464 57.4087 204.115 59.2959 193.732Z"/></clipPath><filter id="filter1_d_513_2349" x="6.49902" y="5.5" width="56" height="37.9999" filterUnits="userSpaceOnUse" color-interpolation-filters="sRGB">
<feFlood flood-opacity="0" result="BackgroundImageFix"/>
<feColorMatrix in="SourceAlpha" type="matrix" values="0 0 0 0 0 0 0 0 0 0 0 0 0 0 0 0 0 0 127 0" result="hardAlpha"/>
<feOffset dy="4"/>
<feGaussianBlur stdDeviation="2"/>
<feComposite in2="hardAlpha" operator="out"/>
<feColorMatrix type="matrix" values="0 0 0 0 0 0 0 0 0 0 0 0 0 0 0 0 0 0 0.25 0"/>
<feBlend mode="normal" in2="BackgroundImageFix" result="effect1_dropShadow_513_2349"/>
<feBlend mode="normal" in="SourceGraphic" in2="effect1_dropShadow_513_2349" result="shape"/>
</filter>
<linearGradient id="paint0_diamond_513_2349" x1="0" y1="0" x2="500" y2="500" gradientUnits="userSpaceOnUse">
<stop stop-color="#F9E7C9"/>
<stop offset="1" stop-color="#E7BA8B"/>
</linearGradient>
<radialGradient id="paint1_radial_513_2349" cx="0" cy="0" r="1" gradientUnits="userSpaceOnUse" gradientTransform="translate(36.5705 153.458) rotate(90) scale(20.138 24.452)">
<stop offset="0.56179" stop-color="white"/>
<stop offset="1" stop-color="#CAC9C2"/>
</radialGradient>
<radialGradient id="paint2_radial_513_2349" cx="0" cy="0" r="1" gradientUnits="userSpaceOnUse" gradientTransform="translate(37.4107 79.7526) rotate(90) scale(23.7526 24.5893)">
<stop offset="0.56179" stop-color="white"/>
<stop offset="1" stop-color="#CAC9C2"/>
</radialGradient>
<radialGradient id="paint3_radial_513_2349" cx="0" cy="0" r="1" gradientUnits="userSpaceOnUse" gradientTransform="translate(34.499 20.5) rotate(-90) scale(14.5 23.5)">
<stop offset="0.505" stop-color="white"/>
<stop offset="1" stop-color="#D9D9D9"/>
</radialGradient>
</defs>
</svg>
