<svg width="80" height="212" viewBox="0 0 80 212" fill="none" xmlns="http://www.w3.org/2000/svg">
<g filter="url(#filter0_d_513_2343)">
<path d="M63.8042 151.667C61.9172 134.677 64.905 124.452 66.6348 121.463L57.6714 112.496L13.3264 112.968C22.7615 136.093 16.1569 140.34 17.1004 149.779C19.842 177.206 26.3783 192.096 31.2531 196.029C34.5554 197.288 40.6882 197.917 38.8012 190.366C36.4424 180.927 36.4424 165.353 36.9142 161.106C37.3859 156.858 38.8012 153.555 42.5752 152.139C45.5945 151.006 46.3493 153.555 46.3493 154.971C45.2485 157.645 44.1792 164.409 48.708 170.073C54.3691 177.152 52.0103 183.759 52.4821 188.006C52.8595 191.404 55.1554 191.625 56.2561 191.31C69.4653 181.871 66.163 172.904 63.8042 151.667Z" fill="url(#paint0_diamond_513_2343)"/>
<ellipse cx="7.54809" cy="8.4949" rx="7.54809" ry="8.4949" transform="matrix(-1 0 0 1 58.1436 86.5352)" fill="#A9A9A9"/>
<ellipse cx="9.90687" cy="8.4949" rx="9.90687" ry="8.4949" transform="matrix(-1 0 0 1 39.2725 86.5352)" fill="#A9A9A9"/>
<path d="M19.9308 87.0093C28.2337 90.7848 34.0835 91.4141 35.9705 91.2568C41.9602 88.7601 46.6297 90.1159 49.6514 92.1851C53.4254 88.8658 61.4453 87.0093 66.6346 93.1445C71.8239 99.2796 69.4651 108.247 69.4651 113.438C69.4651 118.629 65.6911 124.292 62.3888 122.877C59.747 121.744 54.998 122.09 52.9537 122.405C48.7079 123.821 41.6315 129.012 39.2728 125.708C37.3857 123.065 32.8254 123.663 30.7812 124.292C23.9879 126.935 19.459 126.338 18.0438 125.708C10.4957 115.892 9.86666 104.943 10.4957 100.696C10.1812 94.5603 11.6279 83.2338 19.9308 87.0093Z" fill="url(#paint1_radial_513_2343)"/>
<path d="M50.5209 6.68146C53.5402 9.32432 59.9563 12.1874 62.787 13.2886C70.3353 18.4799 70.3353 28.3907 69.3918 32.6381C66.7498 51.5157 56.6539 56.5497 51.9362 56.707H33.0083C28.7054 56.707 24.2555 55.9302 20.9564 53.1678C12.6529 46.2152 17.2897 38.6587 16.0814 26.9748C14.9492 16.0259 24.4161 10.457 29.2911 9.04116C35.1096 7.1534 47.5015 4.0386 50.5209 6.68146Z" fill="url(#paint2_radial_513_2343)"/>
<path d="M68.8966 32.5688C68.8984 32.5557 68.9008 32.5426 68.9037 32.5297C69.3611 30.4705 69.5939 27.0059 68.7861 23.4274C67.9833 19.8711 66.1624 16.2376 62.5509 13.7332C61.1176 13.1733 58.8201 12.1859 56.4986 11.0091C54.1566 9.82195 51.7507 8.42246 50.1915 7.05769C49.5782 6.52085 48.3964 6.21924 46.7332 6.16952C45.1013 6.12073 43.1227 6.31606 41.036 6.65583C36.8655 7.33489 32.3385 8.5781 29.4454 9.51675L29.4305 9.52132C27.0616 10.2093 23.5572 11.9157 20.7934 14.7802C18.042 17.6318 16.0304 21.621 16.5788 26.9234C16.8848 29.8823 16.8201 32.5752 16.6844 35.0463C16.6451 35.7623 16.6002 36.4562 16.5565 37.1314C16.4484 38.8005 16.3477 40.3547 16.3582 41.842C16.3728 43.9178 16.6059 45.81 17.3254 47.5984C18.0429 49.3816 19.2566 51.0924 21.2774 52.7844C24.4426 55.4347 28.7487 56.207 33.0083 56.207H51.9277C56.3402 56.0543 66.2798 51.2665 68.8966 32.5688Z" stroke="black" stroke-opacity="0.18" stroke-linecap="round" stroke-linejoin="round"/>
</g>
<defs>
<filter id="filter0_d_513_2343" x="0.311523" y="0.662109" width="79.6885" height="211.136" filterUnits="userSpaceOnUse" color-interpolation-filters="sRGB">
<feFlood flood-opacity="0" result="BackgroundImageFix"/>
<feColorMatrix in="SourceAlpha" type="matrix" values="0 0 0 0 0 0 0 0 0 0 0 0 0 0 0 0 0 0 127 0" result="hardAlpha"/>
<feOffset dy="5"/>
<feGaussianBlur stdDeviation="5"/>
<feComposite in2="hardAlpha" operator="out"/>
<feColorMatrix type="matrix" values="0 0 0 0 0 0 0 0 0 0 0 0 0 0 0 0 0 0 0.35 0"/>
<feBlend mode="normal" in2="BackgroundImageFix" result="effect1_dropShadow_513_2343"/>
<feBlend mode="normal" in="SourceGraphic" in2="effect1_dropShadow_513_2343" result="shape"/>
</filter>
<radialGradient id="paint0_diamond_513_2343" cx="0" cy="0" r="1" gradientUnits="userSpaceOnUse" gradientTransform="translate(39.9806 154.647) rotate(90) scale(42.1511 26.6542)">
<stop stop-color="#F9E7C9"/>
<stop offset="1" stop-color="#E7BA8B"/>
</radialGradient>
<radialGradient id="paint1_radial_513_2343" cx="0" cy="0" r="1" gradientUnits="userSpaceOnUse" gradientTransform="translate(40.1556 106.522) rotate(90) scale(20.2667 29.8444)">
<stop offset="0.56179" stop-color="white"/>
<stop offset="1" stop-color="#CAC9C2"/>
</radialGradient>
<radialGradient id="paint2_radial_513_2343" cx="0" cy="0" r="1" gradientUnits="userSpaceOnUse" gradientTransform="translate(42.8389 31.1846) rotate(90) scale(25.5224 26.9814)">
<stop offset="0.56179" stop-color="white"/>
<stop offset="1" stop-color="#CAC9C2"/>
</radialGradient>
</defs>
</svg>
