<svg width="85" height="267" viewBox="0 0 85 267" fill="none" xmlns="http://www.w3.org/2000/svg">
<g filter="url(#filter0_d_513_2343)">
<g clip-path="url(#paint0_diamond_513_2343_clip_path)" data-figma-skip-parse="true"><g transform="matrix(0 0.0421511 0.0266542 0 39.9806 208.985)"><rect x="0" y="0" width="1023.72" height="1037.52" fill="url(#paint0_diamond_513_2343)" opacity="1" shape-rendering="crispEdges"/><rect x="0" y="0" width="1023.72" height="1037.52" transform="scale(1 -1)" fill="url(#paint0_diamond_513_2343)" opacity="1" shape-rendering="crispEdges"/><rect x="0" y="0" width="1023.72" height="1037.52" transform="scale(-1 1)" fill="url(#paint0_diamond_513_2343)" opacity="1" shape-rendering="crispEdges"/><rect x="0" y="0" width="1023.72" height="1037.52" transform="scale(-1)" fill="url(#paint0_diamond_513_2343)" opacity="1" shape-rendering="crispEdges"/></g></g><path d="M63.8042 206.005C61.9172 189.015 64.905 178.79 66.6348 175.801L57.6714 166.834L13.3264 167.306C22.7615 190.431 16.1569 194.678 17.1004 204.117C19.842 231.544 26.3783 246.434 31.2531 250.367C34.5554 251.626 40.6882 252.255 38.8012 244.704C36.4424 235.265 36.4424 219.691 36.9142 215.444C37.3859 211.196 38.8012 207.893 42.5752 206.477C45.5945 205.344 46.3493 207.893 46.3493 209.308C45.2485 211.983 44.1792 218.747 48.708 224.411C54.3691 231.49 52.0103 238.097 52.4821 242.344C52.8595 245.742 55.1554 245.962 56.2561 245.648C69.4653 236.209 66.163 227.242 63.8042 206.005Z" data-figma-gradient-fill="{&#34;type&#34;:&#34;GRADIENT_DIAMOND&#34;,&#34;stops&#34;:[{&#34;color&#34;:{&#34;r&#34;:0.97647058963775635,&#34;g&#34;:0.90588235855102539,&#34;b&#34;:0.78823530673980713,&#34;a&#34;:1.0},&#34;position&#34;:0.0},{&#34;color&#34;:{&#34;r&#34;:0.90588235855102539,&#34;g&#34;:0.7294117808341980,&#34;b&#34;:0.54509806632995605,&#34;a&#34;:1.0},&#34;position&#34;:1.0}],&#34;stopsVar&#34;:[{&#34;color&#34;:{&#34;r&#34;:0.97647058963775635,&#34;g&#34;:0.90588235855102539,&#34;b&#34;:0.78823530673980713,&#34;a&#34;:1.0},&#34;position&#34;:0.0},{&#34;color&#34;:{&#34;r&#34;:0.90588235855102539,&#34;g&#34;:0.7294117808341980,&#34;b&#34;:0.54509806632995605,&#34;a&#34;:1.0},&#34;position&#34;:1.0}],&#34;transform&#34;:{&#34;m00&#34;:-3.2641983750979252e-15,&#34;m01&#34;:53.308403015136719,&#34;m02&#34;:13.326362609863281,&#34;m10&#34;:84.302291870117188,&#34;m11&#34;:5.1620267271562572e-15,&#34;m12&#34;:166.8339843750},&#34;opacity&#34;:1.0,&#34;blendMode&#34;:&#34;NORMAL&#34;,&#34;visible&#34;:true}"/>
<ellipse cx="7.54809" cy="8.4949" rx="7.54809" ry="8.4949" transform="matrix(-1 0 0 1 58.1436 140.873)" fill="#A9A9A9"/>
<ellipse cx="9.90687" cy="8.4949" rx="9.90687" ry="8.4949" transform="matrix(-1 0 0 1 39.2725 140.873)" fill="#A9A9A9"/>
<path d="M19.9308 141.347C28.2337 145.123 34.0835 145.752 35.9705 145.595C41.9602 143.098 46.6297 144.454 49.6514 146.523C53.4254 143.204 61.4453 141.347 66.6346 147.482C71.8239 153.618 69.4651 162.584 69.4651 167.776C69.4651 172.967 65.6911 178.63 62.3888 177.215C59.747 176.082 54.998 176.428 52.9537 176.743C48.7079 178.158 41.6315 183.35 39.2728 180.046C37.3857 177.403 32.8254 178.001 30.7812 178.63C23.9879 181.273 19.459 180.675 18.0438 180.046C10.4957 170.23 9.86666 159.281 10.4957 155.033C10.1812 148.898 11.6279 137.572 19.9308 141.347Z" fill="url(#paint1_radial_513_2343)"/>
<path d="M50.5209 61.0194C53.5402 63.6622 59.9563 66.5253 62.787 67.6265C70.3353 72.8178 70.3353 82.7285 69.3918 86.976C66.7498 105.854 56.6539 110.888 51.9362 111.045H33.0083C28.7054 111.045 24.2555 110.268 20.9564 107.506C12.6529 100.553 17.2897 92.9966 16.0814 81.3127C14.9492 70.3637 24.4161 64.7949 29.2911 63.379C35.1096 61.4913 47.5015 58.3765 50.5209 61.0194Z" fill="url(#paint2_radial_513_2343)"/>
<path d="M68.8966 86.9067C68.8984 86.8936 68.9008 86.8805 68.9037 86.8676C69.3611 84.8084 69.5939 81.3438 68.7861 77.7653C67.9833 74.209 66.1624 70.5755 62.5509 68.0711C61.1176 67.5112 58.8201 66.5238 56.4986 65.347C54.1566 64.1598 51.7507 62.7603 50.1915 61.3956C49.5782 60.8587 48.3964 60.5571 46.7332 60.5074C45.1013 60.4586 43.1227 60.6539 41.036 60.9937C36.8655 61.6728 32.3385 62.916 29.4454 63.8546L29.4305 63.8592C27.0616 64.5472 23.5572 66.2536 20.7934 69.1181C18.042 71.9697 16.0304 75.9589 16.5788 81.2613C16.8848 84.2202 16.8201 86.9131 16.6844 89.3842C16.6451 90.1002 16.6002 90.7941 16.5565 91.4693C16.4484 93.1384 16.3477 94.6926 16.3582 96.1799C16.3728 98.2557 16.6059 100.148 17.3254 101.936C18.0429 103.72 19.2566 105.43 21.2774 107.122C24.4426 109.773 28.7487 110.545 33.0083 110.545H51.9277C56.3402 110.392 66.2798 105.604 68.8966 86.9067Z" stroke="black" stroke-opacity="0.18" stroke-linecap="round" stroke-linejoin="round"/>
<g filter="url(#filter1_d_513_2343)">
<path d="M45.6643 37.6952C51.1475 38.4457 52.9069 38.357 53.6311 37.0335C53.6311 38.357 55.3694 40.3423 68.1807 37.6952C77.415 35.7872 73.2506 24.4598 71.8021 22.4745C70.6432 20.8863 68.905 15.6362 68.1807 13.2098C68.1804 11.8862 66.0079 9.23916 59.4892 7.91562C45.3033 5.03535 35.5882 5.70972 31.967 7.91562C29.3113 10.1215 24 17.1804 24 27.7687C24 38.357 32.6913 39.2394 37.0369 38.357C39.934 37.0335 40.8293 37.0335 45.6643 37.6952Z" fill="url(#paint3_radial_513_2343)"/>
<path d="M53.6311 37.0335C54.1139 32.8423 54.2105 24.4598 50.734 24.4598M53.6311 37.0335C52.9069 38.357 51.1475 38.4457 45.6643 37.6952C40.8293 37.0335 39.934 37.0335 37.0369 38.357C32.6913 39.2394 24 38.357 24 27.7687C24 17.1804 29.3113 10.1215 31.967 7.91562C35.5882 5.70973 45.3033 5.03535 59.4892 7.91562C66.0079 9.23916 68.1804 11.8862 68.1807 13.2098C68.905 15.6362 70.6432 20.8863 71.8021 22.4745C73.2506 24.4598 77.415 35.7872 68.1807 37.6952C55.3694 40.3423 53.6311 38.357 53.6311 37.0335Z" stroke="#CBCBCB"/>
</g>
</g>
<defs>
<filter id="filter0_d_513_2343" x="0.311523" y="0.5" width="84.1885" height="265.636" filterUnits="userSpaceOnUse" color-interpolation-filters="sRGB">
<feFlood flood-opacity="0" result="BackgroundImageFix"/>
<feColorMatrix in="SourceAlpha" type="matrix" values="0 0 0 0 0 0 0 0 0 0 0 0 0 0 0 0 0 0 127 0" result="hardAlpha"/>
<feOffset dy="5"/>
<feGaussianBlur stdDeviation="5"/>
<feComposite in2="hardAlpha" operator="out"/>
<feColorMatrix type="matrix" values="0 0 0 0 0 0 0 0 0 0 0 0 0 0 0 0 0 0 0.35 0"/>
<feBlend mode="normal" in2="BackgroundImageFix" result="effect1_dropShadow_513_2343"/>
<feBlend mode="normal" in="SourceGraphic" in2="effect1_dropShadow_513_2343" result="shape"/>
</filter>
<clipPath id="paint0_diamond_513_2343_clip_path"><path d="M63.8042 206.005C61.9172 189.015 64.905 178.79 66.6348 175.801L57.6714 166.834L13.3264 167.306C22.7615 190.431 16.1569 194.678 17.1004 204.117C19.842 231.544 26.3783 246.434 31.2531 250.367C34.5554 251.626 40.6882 252.255 38.8012 244.704C36.4424 235.265 36.4424 219.691 36.9142 215.444C37.3859 211.196 38.8012 207.893 42.5752 206.477C45.5945 205.344 46.3493 207.893 46.3493 209.308C45.2485 211.983 44.1792 218.747 48.708 224.411C54.3691 231.49 52.0103 238.097 52.4821 242.344C52.8595 245.742 55.1554 245.962 56.2561 245.648C69.4653 236.209 66.163 227.242 63.8042 206.005Z"/></clipPath><filter id="filter1_d_513_2343" x="19.5" y="5.5" width="59" height="41.9999" filterUnits="userSpaceOnUse" color-interpolation-filters="sRGB">
<feFlood flood-opacity="0" result="BackgroundImageFix"/>
<feColorMatrix in="SourceAlpha" type="matrix" values="0 0 0 0 0 0 0 0 0 0 0 0 0 0 0 0 0 0 127 0" result="hardAlpha"/>
<feOffset dy="4"/>
<feGaussianBlur stdDeviation="2"/>
<feComposite in2="hardAlpha" operator="out"/>
<feColorMatrix type="matrix" values="0 0 0 0 0 0 0 0 0 0 0 0 0 0 0 0 0 0 0.25 0"/>
<feBlend mode="normal" in2="BackgroundImageFix" result="effect1_dropShadow_513_2343"/>
<feBlend mode="normal" in="SourceGraphic" in2="effect1_dropShadow_513_2343" result="shape"/>
</filter>
<linearGradient id="paint0_diamond_513_2343" x1="0" y1="0" x2="500" y2="500" gradientUnits="userSpaceOnUse">
<stop stop-color="#F9E7C9"/>
<stop offset="1" stop-color="#E7BA8B"/>
</linearGradient>
<radialGradient id="paint1_radial_513_2343" cx="0" cy="0" r="1" gradientUnits="userSpaceOnUse" gradientTransform="translate(40.1556 160.86) rotate(90) scale(20.2667 29.8444)">
<stop offset="0.56179" stop-color="white"/>
<stop offset="1" stop-color="#CAC9C2"/>
</radialGradient>
<radialGradient id="paint2_radial_513_2343" cx="0" cy="0" r="1" gradientUnits="userSpaceOnUse" gradientTransform="translate(42.8389 85.5224) rotate(90) scale(25.5224 26.9814)">
<stop offset="0.56179" stop-color="white"/>
<stop offset="1" stop-color="#CAC9C2"/>
</radialGradient>
<radialGradient id="paint3_radial_513_2343" cx="0" cy="0" r="1" gradientUnits="userSpaceOnUse" gradientTransform="translate(49 22.5) rotate(-90) scale(16.5 25)">
<stop offset="0.505" stop-color="white"/>
<stop offset="1" stop-color="#D9D9D9"/>
</radialGradient>
</defs>
</svg>
