<svg width="60" height="229" viewBox="0 0 60 229" fill="none" xmlns="http://www.w3.org/2000/svg">
<g filter="url(#filter0_d_513_2331)">
<g clip-path="url(#paint0_diamond_513_2331_clip_path)" data-figma-skip-parse="true"><g transform="matrix(0 0.0485406 0.0145692 0 26.7501 164.532)"><rect x="0" y="0" width="1020.6" height="1068.64" fill="url(#paint0_diamond_513_2331)" opacity="1" shape-rendering="crispEdges"/><rect x="0" y="0" width="1020.6" height="1068.64" transform="scale(1 -1)" fill="url(#paint0_diamond_513_2331)" opacity="1" shape-rendering="crispEdges"/><rect x="0" y="0" width="1020.6" height="1068.64" transform="scale(-1 1)" fill="url(#paint0_diamond_513_2331)" opacity="1" shape-rendering="crispEdges"/><rect x="0" y="0" width="1020.6" height="1068.64" transform="scale(-1)" fill="url(#paint0_diamond_513_2331)" opacity="1" shape-rendering="crispEdges"/></g></g><path d="M40.9623 127.318L34.8285 124.486L20.674 115.991L12.1809 120.238C13.5964 121.654 16.8992 151.386 16.4274 174.039C16.0499 192.162 19.1012 202.67 20.674 205.659C26.3359 217.741 33.4133 213.682 31.526 203.3C32.9415 168.376 34.3567 183.478 38.6032 160.825C42.0003 142.703 41.4341 132.037 40.9623 127.318Z" data-figma-gradient-fill="{&#34;type&#34;:&#34;GRADIENT_DIAMOND&#34;,&#34;stops&#34;:[{&#34;color&#34;:{&#34;r&#34;:0.97647058963775635,&#34;g&#34;:0.90588235855102539,&#34;b&#34;:0.78823530673980713,&#34;a&#34;:1.0},&#34;position&#34;:0.0},{&#34;color&#34;:{&#34;r&#34;:0.90588235855102539,&#34;g&#34;:0.7294117808341980,&#34;b&#34;:0.54509806632995605,&#34;a&#34;:1.0},&#34;position&#34;:1.0}],&#34;stopsVar&#34;:[{&#34;color&#34;:{&#34;r&#34;:0.97647058963775635,&#34;g&#34;:0.90588235855102539,&#34;b&#34;:0.78823530673980713,&#34;a&#34;:1.0},&#34;position&#34;:0.0},{&#34;color&#34;:{&#34;r&#34;:0.90588235855102539,&#34;g&#34;:0.7294117808341980,&#34;b&#34;:0.54509806632995605,&#34;a&#34;:1.0},&#34;position&#34;:1.0}],&#34;transform&#34;:{&#34;m00&#34;:-1.7842153993266390e-15,&#34;m01&#34;:29.138446807861328,&#34;m02&#34;:12.180889129638672,&#34;m10&#34;:97.081169128417969,&#34;m11&#34;:5.9445072935003073e-15,&#34;m12&#34;:115.9909667968750},&#34;opacity&#34;:1.0,&#34;blendMode&#34;:&#34;NORMAL&#34;,&#34;visible&#34;:true}"/>
<path d="M32.4692 138.64C43.4155 132.6 46.1521 118.819 46.1521 112.684C46.5728 109.318 45.4932 103.702 44.9198 100.183C44.8011 99.4544 44.2993 98.8469 43.6163 98.5672C35.8372 95.3827 32.2489 90.08 28.4626 87.5098C26.8855 86.4392 24.8446 86.3753 23.1395 87.2275C17.1575 90.2171 12.2108 98.1939 10.2934 102.304C9.5385 108.344 10.6079 116.145 11.237 119.291C18.0313 137.413 28.2227 139.742 32.4692 138.64Z" fill="url(#paint1_radial_513_2331)"/>
<path d="M29.015 5.54745C36.9408 1.77194 45.5271 18.4471 48.8295 27.2566C50.1166 34.5525 46.3319 42.6289 33.218 42.6133C30.4368 42.6099 27.7172 41.742 25.4004 40.2033C20.5572 36.9867 17.7518 33.6329 16.2654 31.0016C14.9562 28.6842 15.15 25.9185 16.0372 23.409C18.2217 17.2302 22.5978 8.60436 29.015 5.54745Z" fill="url(#paint2_radial_513_2331)"/>
<path d="M29.2301 5.99885C31.0189 5.14673 32.862 5.42598 34.7351 6.53784C36.6232 7.65858 38.4957 9.60359 40.2541 11.9801C43.7549 16.7115 46.6997 23.0098 48.345 27.3887C48.9565 30.9157 48.3384 34.5799 46.039 37.3579C43.7358 40.1405 39.6731 42.1209 33.2186 42.1133C30.5411 42.1101 27.9167 41.2742 25.677 39.7868C20.8931 36.6095 18.1448 33.312 16.7007 30.7557C15.4901 28.6126 15.6472 26.012 16.5086 23.5757C17.5917 20.5123 19.2157 16.8499 21.3571 13.5815C23.5028 10.3064 26.1392 7.47119 29.2301 5.99885Z" stroke="black" stroke-opacity="0.18" stroke-linecap="round" stroke-linejoin="round"/>
</g>
<defs>
<filter id="filter0_d_513_2331" x="0.0341797" y="0" width="59.0322" height="228.072" filterUnits="userSpaceOnUse" color-interpolation-filters="sRGB">
<feFlood flood-opacity="0" result="BackgroundImageFix"/>
<feColorMatrix in="SourceAlpha" type="matrix" values="0 0 0 0 0 0 0 0 0 0 0 0 0 0 0 0 0 0 127 0" result="hardAlpha"/>
<feOffset dy="5"/>
<feGaussianBlur stdDeviation="5"/>
<feComposite in2="hardAlpha" operator="out"/>
<feColorMatrix type="matrix" values="0 0 0 0 0 0 0 0 0 0 0 0 0 0 0 0 0 0 0.35 0"/>
<feBlend mode="normal" in2="BackgroundImageFix" result="effect1_dropShadow_513_2331"/>
<feBlend mode="normal" in="SourceGraphic" in2="effect1_dropShadow_513_2331" result="shape"/>
</filter>
<clipPath id="paint0_diamond_513_2331_clip_path"><path d="M40.9623 127.318L34.8285 124.486L20.674 115.991L12.1809 120.238C13.5964 121.654 16.8992 151.386 16.4274 174.039C16.0499 192.162 19.1012 202.67 20.674 205.659C26.3359 217.741 33.4133 213.682 31.526 203.3C32.9415 168.376 34.3567 183.478 38.6032 160.825C42.0003 142.703 41.4341 132.037 40.9623 127.318Z"/></clipPath><linearGradient id="paint0_diamond_513_2331" x1="0" y1="0" x2="500" y2="500" gradientUnits="userSpaceOnUse">
<stop stop-color="#F9E7C9"/>
<stop offset="1" stop-color="#E7BA8B"/>
</linearGradient>
<radialGradient id="paint1_radial_513_2331" cx="0" cy="0" r="1" gradientUnits="userSpaceOnUse" gradientTransform="translate(28.1404 112.562) rotate(90) scale(26.3068 18.1067)">
<stop offset="0.56179" stop-color="white"/>
<stop offset="1" stop-color="#CAC9C2"/>
</radialGradient>
<radialGradient id="paint2_radial_513_2331" cx="0" cy="0" r="1" gradientUnits="userSpaceOnUse" gradientTransform="translate(31.9641 23.8066) rotate(-90) scale(18.8067 17.1023)">
<stop offset="0.56179" stop-color="white"/>
<stop offset="1" stop-color="#CAC9C2"/>
</radialGradient>
</defs>
</svg>
