<svg width="60" height="229" viewBox="0 0 60 229" fill="none" xmlns="http://www.w3.org/2000/svg">
<g filter="url(#filter0_d_513_2331)">
<path d="M40.9623 127.626L34.8285 124.795L20.674 116.3L12.1809 120.547C13.5964 121.963 16.8992 151.695 16.4274 174.348C16.0499 192.471 19.1012 202.979 20.674 205.968C26.3359 218.05 33.4133 213.991 31.526 203.609C32.9415 168.685 34.3567 183.787 38.6032 161.134C42.0003 143.012 41.4341 132.346 40.9623 127.626Z" fill="url(#paint0_diamond_513_2331)"/>
<path d="M32.4692 138.949C43.4155 132.908 46.1521 119.128 46.1521 112.993C46.5728 109.626 45.4932 104.011 44.9198 100.492C44.8011 99.7633 44.2993 99.1557 43.6163 98.8761C35.8372 95.6915 32.2489 90.3888 28.4626 87.8186C26.8855 86.7481 24.8446 86.6841 23.1395 87.5363C17.1575 90.5259 12.2108 98.5027 10.2934 102.612C9.5385 108.653 10.6079 116.453 11.237 119.6C18.0313 137.722 28.2227 140.05 32.4692 138.949Z" fill="url(#paint1_radial_513_2331)"/>
<path d="M29.015 5.85629C36.9408 2.08078 45.5271 18.756 48.8295 27.5655C50.1166 34.8613 46.3319 42.9377 33.218 42.9221C30.4368 42.9188 27.7172 42.0508 25.4004 40.5121C20.5572 37.2955 17.7518 33.9417 16.2654 31.3105C14.9562 28.993 15.15 26.2273 16.0372 23.7178C18.2217 17.539 22.5978 8.9132 29.015 5.85629Z" fill="url(#paint2_radial_513_2331)"/>
<path d="M29.2301 6.30769C31.0189 5.45557 32.862 5.73482 34.7351 6.84668C36.6232 7.96742 38.4957 9.91243 40.2541 12.2889C43.7549 17.0203 46.6997 23.3187 48.345 27.6975C48.9565 31.2246 48.3384 34.8888 46.039 37.6668C43.7358 40.4493 39.6731 42.4298 33.2186 42.4221C30.5411 42.4189 27.9167 41.583 25.677 40.0956C20.8931 36.9184 18.1448 33.6208 16.7007 31.0645C15.4901 28.9214 15.6472 26.3209 16.5086 23.8845C17.5917 20.8211 19.2157 17.1587 21.3571 13.8904C23.5028 10.6153 26.1392 7.78003 29.2301 6.30769Z" stroke="black" stroke-opacity="0.18" stroke-linecap="round" stroke-linejoin="round"/>
</g>
<defs>
<filter id="filter0_d_513_2331" x="0.0341797" y="0.308838" width="59.0322" height="228.072" filterUnits="userSpaceOnUse" color-interpolation-filters="sRGB">
<feFlood flood-opacity="0" result="BackgroundImageFix"/>
<feColorMatrix in="SourceAlpha" type="matrix" values="0 0 0 0 0 0 0 0 0 0 0 0 0 0 0 0 0 0 127 0" result="hardAlpha"/>
<feOffset dy="5"/>
<feGaussianBlur stdDeviation="5"/>
<feComposite in2="hardAlpha" operator="out"/>
<feColorMatrix type="matrix" values="0 0 0 0 0 0 0 0 0 0 0 0 0 0 0 0 0 0 0.35 0"/>
<feBlend mode="normal" in2="BackgroundImageFix" result="effect1_dropShadow_513_2331"/>
<feBlend mode="normal" in="SourceGraphic" in2="effect1_dropShadow_513_2331" result="shape"/>
</filter>
<radialGradient id="paint0_diamond_513_2331" cx="0" cy="0" r="1" gradientUnits="userSpaceOnUse" gradientTransform="translate(26.7501 164.84) rotate(90) scale(48.5406 14.5692)">
<stop stop-color="#F9E7C9"/>
<stop offset="1" stop-color="#E7BA8B"/>
</radialGradient>
<radialGradient id="paint1_radial_513_2331" cx="0" cy="0" r="1" gradientUnits="userSpaceOnUse" gradientTransform="translate(28.1404 112.871) rotate(90) scale(26.3068 18.1067)">
<stop offset="0.56179" stop-color="white"/>
<stop offset="1" stop-color="#CAC9C2"/>
</radialGradient>
<radialGradient id="paint2_radial_513_2331" cx="0" cy="0" r="1" gradientUnits="userSpaceOnUse" gradientTransform="translate(31.9641 24.1155) rotate(-90) scale(18.8067 17.1023)">
<stop offset="0.56179" stop-color="white"/>
<stop offset="1" stop-color="#CAC9C2"/>
</radialGradient>
</defs>
</svg>
