<svg width="55" height="232" viewBox="0 0 55 232" fill="none" xmlns="http://www.w3.org/2000/svg">
<g filter="url(#filter0_d_513_2324)">
<g clip-path="url(#paint0_diamond_513_2324_clip_path)" data-figma-skip-parse="true"><g transform="matrix(0 0.057208 0.0129005 0 23.1747 159.208)"><rect x="0" y="0" width="1017.48" height="1077.52" fill="url(#paint0_diamond_513_2324)" opacity="1" shape-rendering="crispEdges"/><rect x="0" y="0" width="1017.48" height="1077.52" transform="scale(1 -1)" fill="url(#paint0_diamond_513_2324)" opacity="1" shape-rendering="crispEdges"/><rect x="0" y="0" width="1017.48" height="1077.52" transform="scale(-1 1)" fill="url(#paint0_diamond_513_2324)" opacity="1" shape-rendering="crispEdges"/><rect x="0" y="0" width="1017.48" height="1077.52" transform="scale(-1)" fill="url(#paint0_diamond_513_2324)" opacity="1" shape-rendering="crispEdges"/></g></g><path d="M35.1316 131.601C32.4583 128.769 26.9228 122.634 26.168 120.746C22.2365 105.329 12.864 84.9728 10.5994 126.881C8.33493 168.789 18.4623 200.976 23.3373 211.83C26.168 215.291 31.8292 220.136 31.8292 211.83V187.289C32.9615 164.259 35.1316 141.511 36.0752 133.017L35.1316 131.601Z" data-figma-gradient-fill="{&#34;type&#34;:&#34;GRADIENT_DIAMOND&#34;,&#34;stops&#34;:[{&#34;color&#34;:{&#34;r&#34;:0.97647058963775635,&#34;g&#34;:0.90588235855102539,&#34;b&#34;:0.78823530673980713,&#34;a&#34;:1.0},&#34;position&#34;:0.0},{&#34;color&#34;:{&#34;r&#34;:0.90588235855102539,&#34;g&#34;:0.7294117808341980,&#34;b&#34;:0.54509806632995605,&#34;a&#34;:1.0},&#34;position&#34;:1.0}],&#34;stopsVar&#34;:[{&#34;color&#34;:{&#34;r&#34;:0.97647058963775635,&#34;g&#34;:0.90588235855102539,&#34;b&#34;:0.78823530673980713,&#34;a&#34;:1.0},&#34;position&#34;:0.0},{&#34;color&#34;:{&#34;r&#34;:0.90588235855102539,&#34;g&#34;:0.7294117808341980,&#34;b&#34;:0.54509806632995605,&#34;a&#34;:1.0},&#34;position&#34;:1.0}],&#34;transform&#34;:{&#34;m00&#34;:-1.5798611833841322e-15,&#34;m01&#34;:25.801090240478516,&#34;m02&#34;:10.274105072021484,&#34;m10&#34;:114.41602325439453,&#34;m11&#34;:7.0059611256378766e-15,&#34;m12&#34;:102.000488281250},&#34;opacity&#34;:1.0,&#34;blendMode&#34;:&#34;NORMAL&#34;,&#34;visible&#34;:true}"/>
<path d="M38.0458 122.042C38.0458 127.305 36.8643 131.441 36.2736 132.851C34.0583 134.261 31.3999 137.551 28.7416 140.371C26.6149 142.627 22.2434 140.997 20.3235 139.901C11.8167 135.013 9.98543 131.284 10.1331 130.031V100.893C10.1331 96.6629 11.0192 95.2529 13.2345 95.2529C18.4035 95.2529 29.0074 95.3469 33.6152 95.7229C38.223 96.0989 39.375 99.9527 39.375 101.833L38.0458 122.042Z" fill="url(#paint1_radial_513_2324)"/>
<path d="M35.9015 9.97338C43.975 21.4118 45.055 26.8072 44.8535 29.7475C44.7338 31.493 43.9508 33.1544 42.8998 34.5531C32.1552 48.8511 13.2023 34.0743 12.7517 30.9193C12.3743 28.2765 15.1106 22.2671 16.5259 19.5928C21.0664 9.11098 22.7626 5.61323 26.9745 5.07798C30.5514 4.62344 33.8224 7.02761 35.9015 9.97338Z" fill="#585858"/>
<path d="M16.9678 19.8266C16.9739 19.8152 16.9795 19.8034 16.9847 19.7915C19.2621 14.5341 20.8017 11.0893 22.288 8.88494C23.0256 7.7909 23.7333 7.02929 24.4873 6.50936C25.2356 5.99341 26.0533 5.69906 27.0375 5.57399C30.3451 5.15368 33.4591 7.38005 35.493 10.2617C43.5499 21.6766 44.5439 26.9514 44.3546 29.7133C44.2436 31.3342 43.5127 32.9051 42.5001 34.2527C39.8882 37.7283 36.7999 39.4148 33.6335 39.9684C30.453 40.5245 27.1557 39.9433 24.141 38.8129C21.1278 37.6831 18.4261 36.0153 16.4537 34.4382C15.4675 33.6497 14.6724 32.8908 14.1151 32.242C13.8363 31.9173 13.623 31.6272 13.4757 31.3806C13.3239 31.1266 13.2612 30.9506 13.2467 30.8486C13.1656 30.2805 13.249 29.4818 13.4703 28.5232C13.6892 27.5753 14.0322 26.5152 14.4346 25.4436C15.2394 23.3006 16.2678 21.1493 16.9678 19.8266Z" stroke="black" stroke-opacity="0.18" stroke-linecap="round" stroke-linejoin="round"/>
<path d="M35.9015 9.97098C42.8914 19.8742 44.6391 25.2477 44.8515 28.4199C45.0257 31.0201 43.5938 33.5218 41.5106 35.0875C30.6023 43.286 13.1834 33.94 12.7517 30.9169C12.3743 28.2741 15.1106 22.2647 16.5259 19.5904C21.0664 9.10859 22.7626 5.61084 26.9745 5.07559C30.5514 4.62105 33.8224 7.02522 35.9015 9.97098Z" fill="url(#paint2_radial_513_2324)"/>
<path d="M16.9678 19.8243C16.9739 19.8128 16.9795 19.8011 16.9847 19.7891C19.2621 14.5317 20.8017 11.087 22.288 8.88255C23.0256 7.78851 23.7333 7.0269 24.4873 6.50697C25.2356 5.99102 26.0533 5.69667 27.0375 5.5716C30.3451 5.15128 33.4591 7.37766 35.493 10.2593C42.4671 20.1401 44.1496 25.4208 44.3527 28.4533C44.5131 30.8486 43.1901 33.1997 41.2102 34.6878C35.9393 38.6493 29.0489 38.4006 23.3429 36.7304C20.4992 35.898 17.9831 34.7212 16.1597 33.5737C15.2471 32.9993 14.5199 32.4397 14.0142 31.9435C13.7613 31.6953 13.5719 31.4709 13.4429 31.276C13.311 31.0768 13.2592 30.9342 13.2467 30.8462C13.1656 30.2781 13.249 29.4795 13.4703 28.5208C13.6892 27.573 14.0322 26.5128 14.4346 25.4412C15.2394 23.2982 16.2678 21.1469 16.9678 19.8243Z" stroke="black" stroke-opacity="0.18" stroke-linecap="round" stroke-linejoin="round"/>
<path d="M16.9678 19.8266C16.9739 19.8152 16.9795 19.8034 16.9847 19.7915C19.2621 14.5341 20.8017 11.0893 22.288 8.88494C23.0256 7.7909 23.7333 7.02929 24.4873 6.50936C25.2356 5.99341 26.0533 5.69906 27.0375 5.57399C30.3451 5.15368 33.4591 7.38005 35.493 10.2617C43.5499 21.6766 44.5439 26.9514 44.3546 29.7133C44.2436 31.3342 43.5127 32.9051 42.5001 34.2527C39.8882 37.7283 36.7999 39.4148 33.6335 39.9684C30.453 40.5245 27.1557 39.9433 24.141 38.8129C21.1278 37.6831 18.4261 36.0153 16.4537 34.4382C15.4675 33.6497 14.6724 32.8908 14.1151 32.242C13.8363 31.9173 13.623 31.6272 13.4757 31.3806C13.3239 31.1266 13.2612 30.9506 13.2467 30.8486C13.1656 30.2805 13.249 29.4818 13.4703 28.5232C13.6892 27.5753 14.0322 26.5152 14.4346 25.4436C15.2394 23.3006 16.2678 21.1493 16.9678 19.8266Z" stroke="black" stroke-opacity="0.18" stroke-linecap="round" stroke-linejoin="round"/>
</g>
<defs>
<filter id="filter0_d_513_2324" x="0.125" y="0.0201416" width="54.75" height="231.396" filterUnits="userSpaceOnUse" color-interpolation-filters="sRGB">
<feFlood flood-opacity="0" result="BackgroundImageFix"/>
<feColorMatrix in="SourceAlpha" type="matrix" values="0 0 0 0 0 0 0 0 0 0 0 0 0 0 0 0 0 0 127 0" result="hardAlpha"/>
<feOffset dy="5"/>
<feGaussianBlur stdDeviation="5"/>
<feComposite in2="hardAlpha" operator="out"/>
<feColorMatrix type="matrix" values="0 0 0 0 0 0 0 0 0 0 0 0 0 0 0 0 0 0 0.35 0"/>
<feBlend mode="normal" in2="BackgroundImageFix" result="effect1_dropShadow_513_2324"/>
<feBlend mode="normal" in="SourceGraphic" in2="effect1_dropShadow_513_2324" result="shape"/>
</filter>
<clipPath id="paint0_diamond_513_2324_clip_path"><path d="M35.1316 131.601C32.4583 128.769 26.9228 122.634 26.168 120.746C22.2365 105.329 12.864 84.9728 10.5994 126.881C8.33493 168.789 18.4623 200.976 23.3373 211.83C26.168 215.291 31.8292 220.136 31.8292 211.83V187.289C32.9615 164.259 35.1316 141.511 36.0752 133.017L35.1316 131.601Z"/></clipPath><linearGradient id="paint0_diamond_513_2324" x1="0" y1="0" x2="500" y2="500" gradientUnits="userSpaceOnUse">
<stop stop-color="#F9E7C9"/>
<stop offset="1" stop-color="#E7BA8B"/>
</linearGradient>
<radialGradient id="paint1_radial_513_2324" cx="0" cy="0" r="1" gradientUnits="userSpaceOnUse" gradientTransform="translate(24.75 118.378) rotate(90) scale(23.125 14.625)">
<stop offset="0.56179" stop-color="white"/>
<stop offset="1" stop-color="#CAC9C2"/>
</radialGradient>
<radialGradient id="paint2_radial_513_2324" cx="0" cy="0" r="1" gradientUnits="userSpaceOnUse" gradientTransform="translate(28.7957 21.6878) rotate(-90) scale(16.688 16.0793)">
<stop offset="0.56179" stop-color="white"/>
<stop offset="1" stop-color="#CAC9C2"/>
</radialGradient>
</defs>
</svg>
