<svg width="52" height="218" viewBox="0 0 52 218" fill="none" xmlns="http://www.w3.org/2000/svg">
<g filter="url(#filter0_d_513_2316)">
<g clip-path="url(#paint0_diamond_513_2316_clip_path)" data-figma-skip-parse="true"><g transform="matrix(0 0.0457781 -0.0132468 0 24.9177 157.09)"><rect x="0" y="0" width="1021.84" height="1075.49" fill="url(#paint0_diamond_513_2316)" opacity="1" shape-rendering="crispEdges"/><rect x="0" y="0" width="1021.84" height="1075.49" transform="scale(1 -1)" fill="url(#paint0_diamond_513_2316)" opacity="1" shape-rendering="crispEdges"/><rect x="0" y="0" width="1021.84" height="1075.49" transform="scale(-1 1)" fill="url(#paint0_diamond_513_2316)" opacity="1" shape-rendering="crispEdges"/><rect x="0" y="0" width="1021.84" height="1075.49" transform="scale(-1)" fill="url(#paint0_diamond_513_2316)" opacity="1" shape-rendering="crispEdges"/></g></g><path d="M12.853 129.245C11.3434 124.337 11.595 120.279 11.9095 118.863L12.2138 118.254C13.2312 116.218 14.9807 114.643 17.1113 113.844C19.9224 112.789 22.8561 112.097 25.8419 111.782L27.2057 111.639C29.2185 111.427 31.3002 111.831 32.737 113.256C36.147 116.639 39.7976 123.198 37.3853 132.549C33.6111 147.179 33.6111 164.641 33.1393 175.024C32.7619 183.33 30.466 191.699 29.3652 194.845L28.8934 196.733L28.4216 197.677L27.4781 199.564L27.0063 200.508L26.0627 201.924L25.591 202.396L25.1192 202.868H24.6474H23.7039H23.2321L22.2886 202.396L21.8168 201.452L21.345 200.508C18.9861 151.427 16.1555 149.067 15.6837 145.763C15.212 142.46 14.7401 135.381 12.853 129.245Z" data-figma-gradient-fill="{&#34;type&#34;:&#34;GRADIENT_DIAMOND&#34;,&#34;stops&#34;:[{&#34;color&#34;:{&#34;r&#34;:0.97647058963775635,&#34;g&#34;:0.90588235855102539,&#34;b&#34;:0.78823530673980713,&#34;a&#34;:1.0},&#34;position&#34;:0.0},{&#34;color&#34;:{&#34;r&#34;:0.90588235855102539,&#34;g&#34;:0.7294117808341980,&#34;b&#34;:0.54509806632995605,&#34;a&#34;:1.0},&#34;position&#34;:1.0}],&#34;stopsVar&#34;:[{&#34;color&#34;:{&#34;r&#34;:0.97647058963775635,&#34;g&#34;:0.90588235855102539,&#34;b&#34;:0.78823530673980713,&#34;a&#34;:1.0},&#34;position&#34;:0.0},{&#34;color&#34;:{&#34;r&#34;:0.90588235855102539,&#34;g&#34;:0.7294117808341980,&#34;b&#34;:0.54509806632995605,&#34;a&#34;:1.0},&#34;position&#34;:1.0}],&#34;transform&#34;:{&#34;m00&#34;:1.6222706407454973e-15,&#34;m01&#34;:-26.493688583374023,&#34;m02&#34;:38.164588928222656,&#34;m10&#34;:91.556167602539062,&#34;m11&#34;:5.6061985227186771e-15,&#34;m12&#34;:111.3117675781250},&#34;opacity&#34;:1.0,&#34;blendMode&#34;:&#34;NORMAL&#34;,&#34;visible&#34;:true}"/>
<path d="M13.5117 92.0928C9.32839 101.288 10.6796 117.767 11.9105 125.001C16.6284 125.001 21.3457 130.664 23.7046 133.024C25.5917 134.912 28.5796 134.125 29.8376 133.496C31.7247 129.343 35.9707 125.788 37.8578 124.529C40.4997 115.845 40.5312 103.921 40.2166 99.0444C40.2166 91.4934 37.5433 89.291 35.0271 89.1337L16.2794 90.0485C15.8871 90.0677 15.503 90.1683 15.1517 90.344C14.8796 90.4801 14.6313 90.6592 14.4162 90.8744L14.269 91.0216C13.9567 91.3341 13.6946 91.6908 13.5117 92.0928Z" fill="url(#paint1_radial_513_2316)"/>
<path d="M13.3262 32.8444C13.3262 36.9975 20.56 38.665 24.177 38.9796C29.6053 40.1864 35.5959 37.4558 39.3087 35.0255C40.8567 34.0123 41.7637 32.2794 41.7401 30.4295C41.6086 20.1194 36.0701 11.0781 32.1813 6.52367C31.319 5.5139 30.0358 5.00003 28.708 5.00003C27.3223 5.00003 25.9891 5.57438 25.0654 6.6073C12.8889 20.2238 13.3262 27.8464 13.3262 32.8444Z" fill="url(#paint2_radial_513_2316)"/>
<path d="M24.2203 38.4815C24.2422 38.4834 24.264 38.4868 24.2855 38.4915C29.5067 39.6522 35.3474 37.0209 39.0349 34.6072C40.4374 33.6892 41.2616 32.1178 41.2401 30.4358C41.1107 20.2873 35.6492 11.3552 31.801 6.84835C31.0464 5.96463 29.9101 5.50003 28.708 5.50003C27.4592 5.50003 26.2634 6.01773 25.4381 6.9406C19.3822 13.7127 16.4896 18.9647 15.1039 23.1161C13.8106 26.9907 13.8186 29.9338 13.8253 32.3449C13.8257 32.514 13.8262 32.6804 13.8262 32.8444C13.8262 34.5889 15.3515 35.9251 17.5933 36.8923C19.7894 37.8399 22.4455 38.3271 24.2203 38.4815Z" stroke="black" stroke-opacity="0.18" stroke-linecap="round" stroke-linejoin="round"/>
</g>
<defs>
<filter id="filter0_d_513_2316" x="0.679688" y="0" width="51.0605" height="217.868" filterUnits="userSpaceOnUse" color-interpolation-filters="sRGB">
<feFlood flood-opacity="0" result="BackgroundImageFix"/>
<feColorMatrix in="SourceAlpha" type="matrix" values="0 0 0 0 0 0 0 0 0 0 0 0 0 0 0 0 0 0 127 0" result="hardAlpha"/>
<feOffset dy="5"/>
<feGaussianBlur stdDeviation="5"/>
<feComposite in2="hardAlpha" operator="out"/>
<feColorMatrix type="matrix" values="0 0 0 0 0 0 0 0 0 0 0 0 0 0 0 0 0 0 0.35 0"/>
<feBlend mode="normal" in2="BackgroundImageFix" result="effect1_dropShadow_513_2316"/>
<feBlend mode="normal" in="SourceGraphic" in2="effect1_dropShadow_513_2316" result="shape"/>
</filter>
<clipPath id="paint0_diamond_513_2316_clip_path"><path d="M12.853 129.245C11.3434 124.337 11.595 120.279 11.9095 118.863L12.2138 118.254C13.2312 116.218 14.9807 114.643 17.1113 113.844C19.9224 112.789 22.8561 112.097 25.8419 111.782L27.2057 111.639C29.2185 111.427 31.3002 111.831 32.737 113.256C36.147 116.639 39.7976 123.198 37.3853 132.549C33.6111 147.179 33.6111 164.641 33.1393 175.024C32.7619 183.33 30.466 191.699 29.3652 194.845L28.8934 196.733L28.4216 197.677L27.4781 199.564L27.0063 200.508L26.0627 201.924L25.591 202.396L25.1192 202.868H24.6474H23.7039H23.2321L22.2886 202.396L21.8168 201.452L21.345 200.508C18.9861 151.427 16.1555 149.067 15.6837 145.763C15.212 142.46 14.7401 135.381 12.853 129.245Z"/></clipPath><linearGradient id="paint0_diamond_513_2316" x1="0" y1="0" x2="500" y2="500" gradientUnits="userSpaceOnUse">
<stop stop-color="#F9E7C9"/>
<stop offset="1" stop-color="#E7BA8B"/>
</linearGradient>
<radialGradient id="paint1_radial_513_2316" cx="0" cy="0" r="1" gradientUnits="userSpaceOnUse" gradientTransform="translate(25.516 111.671) rotate(90) scale(22.5369 14.8363)">
<stop offset="0.56179" stop-color="white"/>
<stop offset="1" stop-color="#CAC9C2"/>
</radialGradient>
<radialGradient id="paint2_radial_513_2316" cx="0" cy="0" r="1" gradientUnits="userSpaceOnUse" gradientTransform="translate(27.5334 22.1373) rotate(-90) scale(17.1373 14.2091)">
<stop offset="0.56179" stop-color="white"/>
<stop offset="1" stop-color="#CAC9C2"/>
</radialGradient>
</defs>
</svg>
