<svg width="54" height="225" viewBox="0 0 54 225" fill="none" xmlns="http://www.w3.org/2000/svg">
<g filter="url(#filter0_d_513_2309)">
<g clip-path="url(#paint0_diamond_513_2309_clip_path)" data-figma-skip-parse="true"><g transform="matrix(0 0.057208 -0.0129005 0 28.6173 151.979)"><rect x="0" y="0" width="1017.48" height="1077.52" fill="url(#paint0_diamond_513_2309)" opacity="1" shape-rendering="crispEdges"/><rect x="0" y="0" width="1017.48" height="1077.52" transform="scale(1 -1)" fill="url(#paint0_diamond_513_2309)" opacity="1" shape-rendering="crispEdges"/><rect x="0" y="0" width="1017.48" height="1077.52" transform="scale(-1 1)" fill="url(#paint0_diamond_513_2309)" opacity="1" shape-rendering="crispEdges"/><rect x="0" y="0" width="1017.48" height="1077.52" transform="scale(-1)" fill="url(#paint0_diamond_513_2309)" opacity="1" shape-rendering="crispEdges"/></g></g><path d="M16.6603 124.372C19.3337 121.54 24.8692 115.405 25.624 113.517C29.5555 98.1003 38.928 77.7437 41.1925 119.652C43.4571 161.56 33.3297 193.747 28.4547 204.601C25.624 208.062 19.9628 212.907 19.9628 204.601V180.06C18.8305 157.03 16.6603 134.282 15.7168 125.787L16.6603 124.372Z" data-figma-gradient-fill="{&#34;type&#34;:&#34;GRADIENT_DIAMOND&#34;,&#34;stops&#34;:[{&#34;color&#34;:{&#34;r&#34;:0.97647058963775635,&#34;g&#34;:0.90588235855102539,&#34;b&#34;:0.78823530673980713,&#34;a&#34;:1.0},&#34;position&#34;:0.0},{&#34;color&#34;:{&#34;r&#34;:0.90588235855102539,&#34;g&#34;:0.7294117808341980,&#34;b&#34;:0.54509806632995605,&#34;a&#34;:1.0},&#34;position&#34;:1.0}],&#34;stopsVar&#34;:[{&#34;color&#34;:{&#34;r&#34;:0.97647058963775635,&#34;g&#34;:0.90588235855102539,&#34;b&#34;:0.78823530673980713,&#34;a&#34;:1.0},&#34;position&#34;:0.0},{&#34;color&#34;:{&#34;r&#34;:0.90588235855102539,&#34;g&#34;:0.7294117808341980,&#34;b&#34;:0.54509806632995605,&#34;a&#34;:1.0},&#34;position&#34;:1.0}],&#34;transform&#34;:{&#34;m00&#34;:1.5798611833841322e-15,&#34;m01&#34;:-25.801090240478516,&#34;m02&#34;:41.517887115478516,&#34;m10&#34;:114.41602325439453,&#34;m11&#34;:7.0059611256378766e-15,&#34;m12&#34;:94.77136230468750},&#34;opacity&#34;:1.0,&#34;blendMode&#34;:&#34;NORMAL&#34;,&#34;visible&#34;:true}"/>
<path d="M13.7452 114.825C13.7452 120.088 14.9267 124.224 15.5174 125.634C17.7327 127.044 20.3911 130.334 23.0494 133.154C25.1761 135.41 29.5476 133.78 31.4675 132.684C39.9743 127.796 41.8056 124.068 41.6579 122.814V93.6757C41.6579 89.4459 40.7718 88.036 38.5565 88.036C33.3875 88.036 22.7836 88.13 18.1758 88.506C13.568 88.882 12.416 92.7358 12.416 94.6157L13.7452 114.825Z" fill="url(#paint1_radial_513_2309)"/>
<path d="M19.9315 9.9713C11.858 21.4097 10.778 26.8052 10.9795 29.7454C11.0992 31.4909 11.8822 33.1523 12.9332 34.551C23.6778 48.849 42.6308 34.0722 43.0813 30.9172C43.4587 28.2744 40.7224 22.265 39.3071 19.5907C34.7666 9.10891 33.0705 5.61115 28.8585 5.0759C25.2816 4.62137 22.0107 7.02554 19.9315 9.9713Z" fill="#585858"/>
<path d="M38.8652 19.8246C38.8591 19.8131 38.8535 19.8014 38.8483 19.7894C36.5709 14.532 35.0313 11.0873 33.545 8.88287C32.8074 7.78883 32.0997 7.02721 31.3457 6.50728C30.5974 5.99134 29.7797 5.69699 28.7955 5.57191C25.4879 5.1516 22.3739 7.37798 20.34 10.2596C12.2831 21.6746 11.2891 26.9493 11.4784 29.7112C11.5894 31.3321 12.3203 32.903 13.3329 34.2506C15.9448 37.7263 19.0331 39.4128 22.1995 39.9663C25.38 40.5224 28.6773 39.9412 31.692 38.8108C34.7052 37.681 37.4069 36.0133 39.3793 34.4362C40.3656 33.6476 41.1607 32.8887 41.7179 32.2399C41.9967 31.9152 42.21 31.6251 42.3573 31.3785C42.5091 31.1246 42.5718 30.9485 42.5863 30.8465C42.6675 30.2785 42.584 29.4798 42.3627 28.5211C42.1438 27.5733 41.8008 26.5131 41.3984 25.4416C40.5936 23.2985 39.5652 21.1472 38.8652 19.8246Z" stroke="black" stroke-opacity="0.18" stroke-linecap="round" stroke-linejoin="round"/>
<path d="M19.9315 9.9711C12.9416 19.8744 11.1939 25.2479 10.9815 28.42C10.8073 31.0202 12.2392 33.5219 14.3224 35.0876C25.2307 43.2861 42.6496 33.9401 43.0813 30.917C43.4587 28.2742 40.7224 22.2648 39.3071 19.5905C34.7666 9.10872 33.0705 5.61096 28.8585 5.07571C25.2816 4.62117 22.0107 7.02534 19.9315 9.9711Z" fill="url(#paint2_radial_513_2309)"/>
<path d="M38.8652 19.8244C38.8591 19.8129 38.8535 19.8012 38.8483 19.7892C36.5709 14.5318 35.0313 11.0871 33.545 8.88268C32.8074 7.78863 32.0997 7.02702 31.3457 6.50709C30.5974 5.99114 29.7797 5.69679 28.7955 5.57172C25.4879 5.15141 22.3739 7.37778 20.34 10.2594C13.3659 20.1403 11.6834 25.4209 11.4804 28.4534C11.3199 30.8487 12.6429 33.1999 14.6228 34.6879C19.8937 38.6494 26.7841 38.4007 32.4901 36.7305C35.3338 35.8981 37.8499 34.7213 39.6733 33.5738C40.5859 32.9994 41.3131 32.4398 41.8188 31.9436C42.0717 31.6955 42.2611 31.471 42.3901 31.2761C42.522 31.0769 42.5738 30.9343 42.5863 30.8464C42.6675 30.2783 42.584 29.4796 42.3627 28.5209C42.1438 27.5731 41.8008 26.513 41.3984 25.4414C40.5936 23.2983 39.5652 21.147 38.8652 19.8244Z" stroke="black" stroke-opacity="0.18" stroke-linecap="round" stroke-linejoin="round"/>
<path d="M38.8652 19.8246C38.8591 19.8131 38.8535 19.8014 38.8483 19.7894C36.5709 14.532 35.0313 11.0873 33.545 8.88287C32.8074 7.78883 32.0997 7.02721 31.3457 6.50728C30.5974 5.99134 29.7797 5.69699 28.7955 5.57191C25.4879 5.1516 22.3739 7.37798 20.34 10.2596C12.2831 21.6746 11.2891 26.9493 11.4784 29.7112C11.5894 31.3321 12.3203 32.903 13.3329 34.2506C15.9448 37.7263 19.0331 39.4128 22.1995 39.9663C25.38 40.5224 28.6773 39.9412 31.692 38.8108C34.7052 37.681 37.4069 36.0133 39.3793 34.4362C40.3656 33.6476 41.1607 32.8887 41.7179 32.2399C41.9967 31.9152 42.21 31.6251 42.3573 31.3785C42.5091 31.1246 42.5718 30.9485 42.5863 30.8465C42.6675 30.2785 42.584 29.4798 42.3627 28.5211C42.1438 27.5733 41.8008 26.5131 41.3984 25.4416C40.5936 23.2985 39.5652 21.1472 38.8652 19.8246Z" stroke="black" stroke-opacity="0.18" stroke-linecap="round" stroke-linejoin="round"/>
</g>
<defs>
<filter id="filter0_d_513_2309" x="0.958008" y="0.0202637" width="52.1582" height="224.167" filterUnits="userSpaceOnUse" color-interpolation-filters="sRGB">
<feFlood flood-opacity="0" result="BackgroundImageFix"/>
<feColorMatrix in="SourceAlpha" type="matrix" values="0 0 0 0 0 0 0 0 0 0 0 0 0 0 0 0 0 0 127 0" result="hardAlpha"/>
<feOffset dy="5"/>
<feGaussianBlur stdDeviation="5"/>
<feComposite in2="hardAlpha" operator="out"/>
<feColorMatrix type="matrix" values="0 0 0 0 0 0 0 0 0 0 0 0 0 0 0 0 0 0 0.35 0"/>
<feBlend mode="normal" in2="BackgroundImageFix" result="effect1_dropShadow_513_2309"/>
<feBlend mode="normal" in="SourceGraphic" in2="effect1_dropShadow_513_2309" result="shape"/>
</filter>
<clipPath id="paint0_diamond_513_2309_clip_path"><path d="M16.6603 124.372C19.3337 121.54 24.8692 115.405 25.624 113.517C29.5555 98.1003 38.928 77.7437 41.1925 119.652C43.4571 161.56 33.3297 193.747 28.4547 204.601C25.624 208.062 19.9628 212.907 19.9628 204.601V180.06C18.8305 157.03 16.6603 134.282 15.7168 125.787L16.6603 124.372Z"/></clipPath><linearGradient id="paint0_diamond_513_2309" x1="0" y1="0" x2="500" y2="500" gradientUnits="userSpaceOnUse">
<stop stop-color="#F9E7C9"/>
<stop offset="1" stop-color="#E7BA8B"/>
</linearGradient>
<radialGradient id="paint1_radial_513_2309" cx="0" cy="0" r="1" gradientUnits="userSpaceOnUse" gradientTransform="translate(27.041 111.161) rotate(90) scale(23.125 14.625)">
<stop offset="0.56179" stop-color="white"/>
<stop offset="1" stop-color="#CAC9C2"/>
</radialGradient>
<radialGradient id="paint2_radial_513_2309" cx="0" cy="0" r="1" gradientUnits="userSpaceOnUse" gradientTransform="translate(27.0373 21.6879) rotate(-90) scale(16.688 16.0793)">
<stop offset="0.56179" stop-color="white"/>
<stop offset="1" stop-color="#CAC9C2"/>
</radialGradient>
</defs>
</svg>
