<svg width="57" height="229" viewBox="0 0 57 229" fill="none" xmlns="http://www.w3.org/2000/svg">
<g filter="url(#filter0_d_513_2305)">
<path d="M15.6598 128.175L21.7928 125.344L35.9458 116.849L44.4379 121.096C43.0226 122.512 39.7202 152.244 40.1919 174.897C40.5693 193.02 37.5184 203.528 35.9458 206.517C30.2845 218.599 23.2079 214.54 25.095 204.157C23.6797 169.234 22.2646 184.336 18.0186 161.683C14.6218 143.56 15.188 132.895 15.6598 128.175Z" fill="url(#paint0_diamond_513_2305)"/>
<path d="M24.1524 139.503C13.2072 133.462 10.4709 119.681 10.4709 113.546C10.0503 110.18 11.1298 104.565 11.7031 101.045C11.8218 100.317 12.3235 99.7094 13.0066 99.4298C20.7844 96.2453 24.3723 90.943 28.158 88.3727C29.7352 87.3018 31.7763 87.2379 33.4815 88.0903C39.4626 91.0801 44.4085 99.0565 46.3256 103.166C47.0805 109.207 46.0112 117.007 45.3822 120.153C38.5886 138.276 28.3983 140.604 24.1524 139.503Z" fill="url(#paint1_radial_513_2305)"/>
<path d="M30.7574 42.2856C22.8316 46.0611 14.2454 29.3859 10.943 20.5764C9.65586 13.2805 13.4406 5.20413 26.5544 5.21975C29.3356 5.22306 32.0552 6.09106 34.372 7.62974C39.2153 10.8463 42.0206 14.2001 43.5071 16.8314C44.8162 19.1488 44.6225 21.9146 43.7353 24.424C41.5507 30.6028 37.1747 39.2286 30.7574 42.2856Z" fill="url(#paint2_radial_513_2305)"/>
<path d="M30.5424 41.8342C28.7536 42.6863 26.9105 42.407 25.0373 41.2952C23.1492 40.1744 21.2767 38.2294 19.5184 35.853C16.0176 31.1215 13.0728 24.8232 11.4275 20.4443C10.8159 16.9173 11.4341 13.2531 13.7335 10.4751C16.0367 7.69255 20.0994 5.71206 26.5538 5.71975C29.2314 5.72294 31.8558 6.55883 34.0954 8.04625C38.8794 11.2235 41.6276 14.521 43.0717 17.0773C44.2824 19.2204 44.1253 21.821 43.2639 24.2573C42.1808 27.3207 40.5567 30.9831 38.4154 34.2515C36.2696 37.5266 33.6332 40.3618 30.5424 41.8342Z" stroke="black" stroke-opacity="0.18" stroke-linecap="round" stroke-linejoin="round"/>
</g>
<defs>
<filter id="filter0_d_513_2305" x="0.375977" y="0.219727" width="56.209" height="228.71" filterUnits="userSpaceOnUse" color-interpolation-filters="sRGB">
<feFlood flood-opacity="0" result="BackgroundImageFix"/>
<feColorMatrix in="SourceAlpha" type="matrix" values="0 0 0 0 0 0 0 0 0 0 0 0 0 0 0 0 0 0 127 0" result="hardAlpha"/>
<feOffset dy="5"/>
<feGaussianBlur stdDeviation="5"/>
<feComposite in2="hardAlpha" operator="out"/>
<feColorMatrix type="matrix" values="0 0 0 0 0 0 0 0 0 0 0 0 0 0 0 0 0 0 0.35 0"/>
<feBlend mode="normal" in2="BackgroundImageFix" result="effect1_dropShadow_513_2305"/>
<feBlend mode="normal" in="SourceGraphic" in2="effect1_dropShadow_513_2305" result="shape"/>
</filter>
<radialGradient id="paint0_diamond_513_2305" cx="0" cy="0" r="1" gradientUnits="userSpaceOnUse" gradientTransform="translate(29.8703 165.389) rotate(90) scale(48.5406 14.5676)">
<stop stop-color="#F9E7C9"/>
<stop offset="1" stop-color="#E7BA8B"/>
</radialGradient>
<radialGradient id="paint1_radial_513_2305" cx="0" cy="0" r="1" gradientUnits="userSpaceOnUse" gradientTransform="translate(28.4806 113.424) rotate(90) scale(26.3068 18.1047)">
<stop offset="0.56179" stop-color="white"/>
<stop offset="1" stop-color="#CAC9C2"/>
</radialGradient>
<radialGradient id="paint2_radial_513_2305" cx="0" cy="0" r="1" gradientUnits="userSpaceOnUse" gradientTransform="translate(27.8083 24.0264) rotate(90) scale(18.8067 17.1023)">
<stop offset="0.56179" stop-color="white"/>
<stop offset="1" stop-color="#CAC9C2"/>
</radialGradient>
</defs>
</svg>
