<svg width="57" height="222" viewBox="0 0 57 222" fill="none" xmlns="http://www.w3.org/2000/svg">
<g filter="url(#filter0_d_513_2305)">
<g clip-path="url(#paint0_diamond_513_2305_clip_path)" data-figma-skip-parse="true"><g transform="matrix(0 0.0485406 -0.0145676 0 29.8703 158.145)"><rect x="0" y="0" width="1020.6" height="1068.65" fill="url(#paint0_diamond_513_2305)" opacity="1" shape-rendering="crispEdges"/><rect x="0" y="0" width="1020.6" height="1068.65" transform="scale(1 -1)" fill="url(#paint0_diamond_513_2305)" opacity="1" shape-rendering="crispEdges"/><rect x="0" y="0" width="1020.6" height="1068.65" transform="scale(-1 1)" fill="url(#paint0_diamond_513_2305)" opacity="1" shape-rendering="crispEdges"/><rect x="0" y="0" width="1020.6" height="1068.65" transform="scale(-1)" fill="url(#paint0_diamond_513_2305)" opacity="1" shape-rendering="crispEdges"/></g></g><path d="M15.6598 120.931L21.7928 118.099L35.9458 109.604L44.4379 113.852C43.0226 115.268 39.7202 145 40.1919 167.653C40.5693 185.775 37.5184 196.284 35.9458 199.273C30.2845 211.354 23.2079 207.296 25.095 196.913C23.6797 161.989 22.2646 177.092 18.0186 154.438C14.6218 136.316 15.188 125.65 15.6598 120.931Z" data-figma-gradient-fill="{&#34;type&#34;:&#34;GRADIENT_DIAMOND&#34;,&#34;stops&#34;:[{&#34;color&#34;:{&#34;r&#34;:0.97647058963775635,&#34;g&#34;:0.90588235855102539,&#34;b&#34;:0.78823530673980713,&#34;a&#34;:1.0},&#34;position&#34;:0.0},{&#34;color&#34;:{&#34;r&#34;:0.90588235855102539,&#34;g&#34;:0.7294117808341980,&#34;b&#34;:0.54509806632995605,&#34;a&#34;:1.0},&#34;position&#34;:1.0}],&#34;stopsVar&#34;:[{&#34;color&#34;:{&#34;r&#34;:0.97647058963775635,&#34;g&#34;:0.90588235855102539,&#34;b&#34;:0.78823530673980713,&#34;a&#34;:1.0},&#34;position&#34;:0.0},{&#34;color&#34;:{&#34;r&#34;:0.90588235855102539,&#34;g&#34;:0.7294117808341980,&#34;b&#34;:0.54509806632995605,&#34;a&#34;:1.0},&#34;position&#34;:1.0}],&#34;transform&#34;:{&#34;m00&#34;:1.7840171936169815e-15,&#34;m01&#34;:-29.135211944580078,&#34;m02&#34;:44.437946319580078,&#34;m10&#34;:97.081169128417969,&#34;m11&#34;:5.9445072935003073e-15,&#34;m12&#34;:109.6042480468750},&#34;opacity&#34;:1.0,&#34;blendMode&#34;:&#34;NORMAL&#34;,&#34;visible&#34;:true}"/>
<path d="M24.1524 132.259C13.2072 126.218 10.4709 112.437 10.4709 106.302C10.0503 102.936 11.1298 97.3204 11.7031 93.8011C11.8218 93.0726 12.3235 92.465 13.0066 92.1854C20.7844 89.0009 24.3723 83.6986 28.158 81.1283C29.7352 80.0574 31.7763 79.9935 33.4815 80.8459C39.4626 83.8357 44.4085 91.8121 46.3256 95.9217C47.0805 101.963 46.0112 109.763 45.3822 112.909C38.5886 131.031 28.3983 133.36 24.1524 132.259Z" fill="url(#paint1_radial_513_2305)"/>
<path d="M30.7574 5.54745C22.8316 1.77194 14.2454 18.4471 10.943 27.2566C9.65586 34.5525 13.4406 42.6289 26.5544 42.6133C29.3356 42.6099 32.0552 41.742 34.372 40.2033C39.2153 36.9867 42.0206 33.6329 43.5071 31.0016C44.8162 28.6842 44.6225 25.9185 43.7353 23.409C41.5507 17.2302 37.1747 8.60436 30.7574 5.54745Z" fill="url(#paint2_radial_513_2305)"/>
<path d="M30.5424 5.99885C28.7536 5.14673 26.9105 5.42598 25.0373 6.53784C23.1492 7.65858 21.2767 9.60359 19.5184 11.9801C16.0176 16.7115 13.0728 23.0098 11.4275 27.3887C10.8159 30.9157 11.4341 34.5799 13.7335 37.3579C16.0367 40.1405 20.0994 42.1209 26.5538 42.1133C29.2314 42.1101 31.8558 41.2742 34.0954 39.7868C38.8794 36.6095 41.6276 33.312 43.0717 30.7557C44.2824 28.6126 44.1253 26.012 43.2639 23.5757C42.1808 20.5123 40.5567 16.8499 38.4154 13.5815C36.2696 10.3064 33.6332 7.47119 30.5424 5.99885Z" stroke="black" stroke-opacity="0.18" stroke-linecap="round" stroke-linejoin="round"/>
</g>
<defs>
<filter id="filter0_d_513_2305" x="0.375977" y="0" width="56.209" height="221.685" filterUnits="userSpaceOnUse" color-interpolation-filters="sRGB">
<feFlood flood-opacity="0" result="BackgroundImageFix"/>
<feColorMatrix in="SourceAlpha" type="matrix" values="0 0 0 0 0 0 0 0 0 0 0 0 0 0 0 0 0 0 127 0" result="hardAlpha"/>
<feOffset dy="5"/>
<feGaussianBlur stdDeviation="5"/>
<feComposite in2="hardAlpha" operator="out"/>
<feColorMatrix type="matrix" values="0 0 0 0 0 0 0 0 0 0 0 0 0 0 0 0 0 0 0.35 0"/>
<feBlend mode="normal" in2="BackgroundImageFix" result="effect1_dropShadow_513_2305"/>
<feBlend mode="normal" in="SourceGraphic" in2="effect1_dropShadow_513_2305" result="shape"/>
</filter>
<clipPath id="paint0_diamond_513_2305_clip_path"><path d="M15.6598 120.931L21.7928 118.099L35.9458 109.604L44.4379 113.852C43.0226 115.268 39.7202 145 40.1919 167.653C40.5693 185.775 37.5184 196.284 35.9458 199.273C30.2845 211.354 23.2079 207.296 25.095 196.913C23.6797 161.989 22.2646 177.092 18.0186 154.438C14.6218 136.316 15.188 125.65 15.6598 120.931Z"/></clipPath><linearGradient id="paint0_diamond_513_2305" x1="0" y1="0" x2="500" y2="500" gradientUnits="userSpaceOnUse">
<stop stop-color="#F9E7C9"/>
<stop offset="1" stop-color="#E7BA8B"/>
</linearGradient>
<radialGradient id="paint1_radial_513_2305" cx="0" cy="0" r="1" gradientUnits="userSpaceOnUse" gradientTransform="translate(28.4806 106.18) rotate(90) scale(26.3068 18.1047)">
<stop offset="0.56179" stop-color="white"/>
<stop offset="1" stop-color="#CAC9C2"/>
</radialGradient>
<radialGradient id="paint2_radial_513_2305" cx="0" cy="0" r="1" gradientUnits="userSpaceOnUse" gradientTransform="translate(27.8083 23.8066) rotate(-90) scale(18.8067 17.1023)">
<stop offset="0.56179" stop-color="white"/>
<stop offset="1" stop-color="#CAC9C2"/>
</radialGradient>
</defs>
</svg>
