<svg width="57" height="222" viewBox="0 0 57 222" fill="none" xmlns="http://www.w3.org/2000/svg">
<g filter="url(#filter0_d_513_2305)">
<path d="M15.6598 121.175L21.7928 118.344L35.9458 109.849L44.4379 114.096C43.0226 115.512 39.7202 145.244 40.1919 167.897C40.5693 186.02 37.5184 196.528 35.9458 199.517C30.2845 211.599 23.2079 207.54 25.095 197.157C23.6797 162.234 22.2646 177.336 18.0186 154.683C14.6218 136.56 15.188 125.895 15.6598 121.175Z" fill="url(#paint0_diamond_513_2305)"/>
<path d="M24.1524 132.503C13.2072 126.462 10.4709 112.681 10.4709 106.546C10.0503 103.18 11.1298 97.5648 11.7031 94.0454C11.8218 93.317 12.3235 92.7094 13.0066 92.4298C20.7844 89.2453 24.3723 83.943 28.158 81.3727C29.7352 80.3018 31.7763 80.2379 33.4815 81.0903C39.4626 84.0801 44.4085 92.0565 46.3256 96.1661C47.0805 102.207 46.0112 110.007 45.3822 113.153C38.5886 131.276 28.3983 133.604 24.1524 132.503Z" fill="url(#paint1_radial_513_2305)"/>
<path d="M30.7574 5.79183C22.8316 2.01632 14.2454 18.6915 10.943 27.501C9.65586 34.7969 13.4406 42.8733 26.5544 42.8576C29.3356 42.8543 32.0552 41.9863 34.372 40.4477C39.2153 37.2311 42.0206 33.8772 43.5071 31.246C44.8162 28.9286 44.6225 26.1628 43.7353 23.6534C41.5507 17.4746 37.1747 8.84874 30.7574 5.79183Z" fill="url(#paint2_radial_513_2305)"/>
<path d="M30.5424 6.24323C28.7536 5.39112 26.9105 5.67036 25.0373 6.78222C23.1492 7.90297 21.2767 9.84798 19.5184 12.2244C16.0176 16.9559 13.0728 23.2542 11.4275 27.6331C10.8159 31.1601 11.4341 34.8243 13.7335 37.6023C16.0367 40.3848 20.0994 42.3653 26.5538 42.3576C29.2314 42.3545 31.8558 41.5186 34.0954 40.0311C38.8794 36.8539 41.6276 33.5564 43.0717 31.0001C44.2824 28.857 44.1253 26.2564 43.2639 23.8201C42.1808 20.7567 40.5567 17.0943 38.4154 13.8259C36.2696 10.5508 33.6332 7.71557 30.5424 6.24323Z" stroke="black" stroke-opacity="0.18" stroke-linecap="round" stroke-linejoin="round"/>
</g>
<defs>
<filter id="filter0_d_513_2305" x="0.375977" y="0.244385" width="56.209" height="221.685" filterUnits="userSpaceOnUse" color-interpolation-filters="sRGB">
<feFlood flood-opacity="0" result="BackgroundImageFix"/>
<feColorMatrix in="SourceAlpha" type="matrix" values="0 0 0 0 0 0 0 0 0 0 0 0 0 0 0 0 0 0 127 0" result="hardAlpha"/>
<feOffset dy="5"/>
<feGaussianBlur stdDeviation="5"/>
<feComposite in2="hardAlpha" operator="out"/>
<feColorMatrix type="matrix" values="0 0 0 0 0 0 0 0 0 0 0 0 0 0 0 0 0 0 0.35 0"/>
<feBlend mode="normal" in2="BackgroundImageFix" result="effect1_dropShadow_513_2305"/>
<feBlend mode="normal" in="SourceGraphic" in2="effect1_dropShadow_513_2305" result="shape"/>
</filter>
<radialGradient id="paint0_diamond_513_2305" cx="0" cy="0" r="1" gradientUnits="userSpaceOnUse" gradientTransform="translate(29.8703 158.389) rotate(90) scale(48.5406 14.5676)">
<stop stop-color="#F9E7C9"/>
<stop offset="1" stop-color="#E7BA8B"/>
</radialGradient>
<radialGradient id="paint1_radial_513_2305" cx="0" cy="0" r="1" gradientUnits="userSpaceOnUse" gradientTransform="translate(28.4806 106.424) rotate(90) scale(26.3068 18.1047)">
<stop offset="0.56179" stop-color="white"/>
<stop offset="1" stop-color="#CAC9C2"/>
</radialGradient>
<radialGradient id="paint2_radial_513_2305" cx="0" cy="0" r="1" gradientUnits="userSpaceOnUse" gradientTransform="translate(27.8083 24.051) rotate(-90) scale(18.8067 17.1023)">
<stop offset="0.56179" stop-color="white"/>
<stop offset="1" stop-color="#CAC9C2"/>
</radialGradient>
</defs>
</svg>
