<svg width="80" height="213" viewBox="0 0 80 213" fill="none" xmlns="http://www.w3.org/2000/svg">
<g filter="url(#filter0_d_513_2291)">
<path d="M16.1959 152.657C18.083 135.667 15.0951 125.442 13.3652 122.453L22.3289 113.486L66.6756 113.958C57.2401 137.083 63.8449 141.33 62.9014 150.769C60.1597 178.196 53.6232 193.086 48.7482 197.019C45.4458 198.278 39.3128 198.907 41.1998 191.356C43.5587 181.917 43.5587 166.343 43.0869 162.096C42.6152 157.848 41.1998 154.545 37.4257 153.129C34.4063 151.996 33.6515 154.545 33.6515 155.96C34.7523 158.635 35.8216 165.399 31.2926 171.062C25.6313 178.141 27.9902 184.749 27.5184 188.996C27.141 192.394 24.845 192.614 23.7442 192.3C10.5346 182.861 13.837 173.894 16.1959 152.657Z" fill="url(#paint0_diamond_513_2291)"/>
<ellipse cx="29.4048" cy="96.0218" rx="7.54837" ry="8.4949" fill="#A9A9A9"/>
<ellipse cx="50.6348" cy="96.0232" rx="9.90723" ry="8.4949" fill="#A9A9A9"/>
<path d="M60.0711 88.0007C51.7679 91.7762 45.9179 92.4055 44.0308 92.2482C38.0408 89.7515 33.3712 91.1072 30.3494 93.1764C26.5752 89.8572 18.555 88.0007 13.3655 94.1358C8.17602 100.271 10.5349 109.238 10.5349 114.429C10.5349 119.621 14.3091 125.284 17.6115 123.868C20.2534 122.735 25.0026 123.081 27.0469 123.396C31.2929 124.812 38.3695 130.003 40.7284 126.7C42.6155 124.057 47.1759 124.655 49.2203 125.284C56.0138 127.927 60.5428 127.329 61.9582 126.7C69.5065 116.883 70.1356 105.934 69.5065 101.687C69.821 95.5517 68.3743 84.2251 60.0711 88.0007Z" fill="url(#paint1_radial_513_2291)"/>
<path d="M30.3483 6.35529C27.3289 8.99815 20.9128 11.8612 18.0822 12.9624C10.5338 18.1538 10.5338 28.0645 11.4774 32.3119C14.1193 51.1895 24.2152 56.2235 28.933 56.3808H47.8609C52.1637 56.3808 56.6137 55.604 59.9127 52.8416C68.2162 45.889 63.5795 38.3325 64.7877 26.6487C65.92 15.6997 56.4531 10.1308 51.5781 8.71499C45.7595 6.82723 33.3676 3.71243 30.3483 6.35529Z" fill="url(#paint2_radial_513_2291)"/>
<path d="M11.9725 32.2426C11.9707 32.2295 11.9683 32.2164 11.9655 32.2035C11.508 30.1443 11.2753 26.6798 12.083 23.1012C12.8858 19.5449 14.7067 15.9115 18.3182 13.4071C19.7515 12.8472 22.0491 11.8597 24.3705 10.683C26.7125 9.49578 29.1184 8.09629 30.6776 6.73152C31.2909 6.19468 32.4727 5.89307 34.1359 5.84335C35.7678 5.79456 37.7464 5.98989 39.8331 6.32966C44.0036 7.00872 48.5306 8.25193 51.4238 9.19058L51.4386 9.19515C53.8076 9.88315 57.312 11.5896 60.0758 14.4541C62.8272 17.3057 64.8387 21.2948 64.2904 26.5972C63.9844 29.5562 64.0491 32.2491 64.1847 34.7201C64.224 35.4361 64.269 36.1301 64.3127 36.8052C64.4208 38.4744 64.5215 40.0285 64.511 41.5158C64.4963 43.5917 64.2633 45.4839 63.5437 47.2722C62.8262 49.0555 61.6125 50.7662 59.5917 52.4583C56.4266 55.1085 52.1204 55.8808 47.8609 55.8808H28.9414C24.5289 55.7282 14.5893 50.9403 11.9725 32.2426Z" stroke="black" stroke-opacity="0.18" stroke-linecap="round" stroke-linejoin="round"/>
</g>
<defs>
<filter id="filter0_d_513_2291" x="0" y="0.335938" width="79.6904" height="212.452" filterUnits="userSpaceOnUse" color-interpolation-filters="sRGB">
<feFlood flood-opacity="0" result="BackgroundImageFix"/>
<feColorMatrix in="SourceAlpha" type="matrix" values="0 0 0 0 0 0 0 0 0 0 0 0 0 0 0 0 0 0 127 0" result="hardAlpha"/>
<feOffset dy="5"/>
<feGaussianBlur stdDeviation="5"/>
<feComposite in2="hardAlpha" operator="out"/>
<feColorMatrix type="matrix" values="0 0 0 0 0 0 0 0 0 0 0 0 0 0 0 0 0 0 0.35 0"/>
<feBlend mode="normal" in2="BackgroundImageFix" result="effect1_dropShadow_513_2291"/>
<feBlend mode="normal" in="SourceGraphic" in2="effect1_dropShadow_513_2291" result="shape"/>
</filter>
<radialGradient id="paint0_diamond_513_2291" cx="0" cy="0" r="1" gradientUnits="userSpaceOnUse" gradientTransform="translate(40.0204 155.637) rotate(90) scale(42.1511 26.6552)">
<stop stop-color="#F9E7C9"/>
<stop offset="1" stop-color="#E7BA8B"/>
</radialGradient>
<radialGradient id="paint1_radial_513_2291" cx="0" cy="0" r="1" gradientUnits="userSpaceOnUse" gradientTransform="translate(39.8455 107.514) rotate(90) scale(20.2667 29.8455)">
<stop offset="0.56179" stop-color="white"/>
<stop offset="1" stop-color="#CAC9C2"/>
</radialGradient>
<radialGradient id="paint2_radial_513_2291" cx="0" cy="0" r="1" gradientUnits="userSpaceOnUse" gradientTransform="translate(38.0303 30.8584) rotate(90) scale(25.5224 26.9814)">
<stop offset="0.56179" stop-color="white"/>
<stop offset="1" stop-color="#CAC9C2"/>
</radialGradient>
</defs>
</svg>
