<svg width="72" height="252" viewBox="0 0 72 252" fill="none" xmlns="http://www.w3.org/2000/svg">
<g filter="url(#filter0_d_513_2286)">
<g clip-path="url(#paint0_diamond_513_2286_clip_path)" data-figma-skip-parse="true"><g transform="matrix(0 0.0458918 -0.0232313 0 34.2342 190.766)"><rect x="0" y="0" width="1021.79" height="1043.05" fill="url(#paint0_diamond_513_2286)" opacity="1" shape-rendering="crispEdges"/><rect x="0" y="0" width="1021.79" height="1043.05" transform="scale(1 -1)" fill="url(#paint0_diamond_513_2286)" opacity="1" shape-rendering="crispEdges"/><rect x="0" y="0" width="1021.79" height="1043.05" transform="scale(-1 1)" fill="url(#paint0_diamond_513_2286)" opacity="1" shape-rendering="crispEdges"/><rect x="0" y="0" width="1021.79" height="1043.05" transform="scale(-1)" fill="url(#paint0_diamond_513_2286)" opacity="1" shape-rendering="crispEdges"/></g></g><path d="M11.7276 191.17C10.2179 182.864 11.413 167.888 12.1993 161.438L29.6549 144.92C36.1025 144.763 51.4508 144.259 55.6024 158.606C59.1021 170.7 56.925 193.929 55.1188 207.71C54.545 212.088 53.3248 216.358 51.4133 220.338C48.455 226.499 44.6002 233.68 42.3928 235.06C38.6186 237.42 36.7315 236.948 35.788 235.06C35.0331 233.55 35.4735 229.083 35.788 227.037C37.6751 220.43 41.0718 205.423 39.5622 198.249C37.6751 189.282 34.8444 189.282 33.9009 189.754C32.9573 190.226 31.542 192.586 29.6549 198.249C27.7678 203.912 28.7114 212.879 29.6549 218.071C30.4098 222.224 30.284 225.15 30.1267 226.094C28.7114 227.824 25.1259 230.247 22.1066 226.094C18.3324 220.902 13.6147 201.553 11.7276 191.17Z" data-figma-gradient-fill="{&#34;type&#34;:&#34;GRADIENT_DIAMOND&#34;,&#34;stops&#34;:[{&#34;color&#34;:{&#34;r&#34;:0.97647058963775635,&#34;g&#34;:0.90588235855102539,&#34;b&#34;:0.78823530673980713,&#34;a&#34;:1.0},&#34;position&#34;:0.0},{&#34;color&#34;:{&#34;r&#34;:0.90588235855102539,&#34;g&#34;:0.7294117808341980,&#34;b&#34;:0.54509806632995605,&#34;a&#34;:1.0},&#34;position&#34;:1.0}],&#34;stopsVar&#34;:[{&#34;color&#34;:{&#34;r&#34;:0.97647058963775635,&#34;g&#34;:0.90588235855102539,&#34;b&#34;:0.78823530673980713,&#34;a&#34;:1.0},&#34;position&#34;:0.0},{&#34;color&#34;:{&#34;r&#34;:0.90588235855102539,&#34;g&#34;:0.7294117808341980,&#34;b&#34;:0.54509806632995605,&#34;a&#34;:1.0},&#34;position&#34;:1.0}],&#34;transform&#34;:{&#34;m00&#34;:2.8450132044465599e-15,&#34;m01&#34;:-46.462589263916016,&#34;m02&#34;:57.465518951416016,&#34;m10&#34;:91.78356933593750,&#34;m11&#34;:5.6201228973385906e-15,&#34;m12&#34;:144.874511718750},&#34;opacity&#34;:1.0,&#34;blendMode&#34;:&#34;NORMAL&#34;,&#34;visible&#34;:true}"/>
<path d="M10.065 145.943C9.75898 155.935 10.5837 161.44 11.4951 164.116C11.9457 165.438 13.424 165.424 14.7885 165.123C16.312 164.787 18.2264 164.87 19.9643 165.129C22.6888 165.535 24.9368 167.252 27.2922 168.68C30.8577 170.842 35.4882 172.026 40.0324 169.928C44.2557 165.985 49.4417 166.174 53.0442 167.242C54.7377 167.745 56.7312 167.13 57.2809 165.451C58.9034 160.497 58.9034 155.587 58.9034 147.747C58.9034 140.195 53.2421 134.218 50.4114 132.173C47.8953 130.914 41.8252 129.341 37.6736 133.116C33.522 136.892 28.7099 135.633 26.8228 134.532C21.3532 131.145 16.6176 133.407 13.4841 136.478C11.0025 138.911 10.1713 142.469 10.065 145.943Z" fill="url(#paint1_radial_513_2286)"/>
<path d="M12.5678 68.8953C10.7973 53.7228 26.8394 46.2885 35.8892 49.901C36.7639 50.2502 37.7115 50.4286 38.645 50.3029C45.5696 49.3699 50.5537 51.1132 53.8876 53.4073C57.4805 55.8797 59.1548 60.1764 60.0458 64.4458C61.6155 71.967 62.6762 82.2471 59.846 88.7588C56.0718 97.4425 47.8944 97.0964 44.2775 95.8379C42.5477 95.366 38.7106 94.6109 37.2009 95.366C35.6913 96.1211 31.8542 95.9952 30.1243 95.8379C21.2939 93.8749 15.9706 88.2838 14.2322 83.1846C12.7358 78.7949 13.1054 73.5017 12.5678 68.8953Z" fill="url(#paint2_radial_513_2286)"/>
<path d="M44.4418 95.3657C44.4311 95.3619 44.4201 95.3585 44.4091 95.3555C43.525 95.1143 42.1075 94.8018 40.7125 94.6449C40.015 94.5665 39.3115 94.5256 38.6769 94.5553C38.0525 94.5845 37.4473 94.6837 36.9773 94.9188C36.6689 95.073 36.2063 95.1971 35.6257 95.2862C35.0531 95.374 34.3993 95.4231 33.7294 95.4443C32.4059 95.4863 31.0523 95.4188 30.2015 95.3428C21.5448 93.408 16.3806 87.9371 14.7055 83.0232C13.9792 80.8929 13.7006 78.526 13.5394 76.0882C13.4856 75.2747 13.4448 74.4487 13.404 73.6221C13.3239 71.9985 13.2437 70.3731 13.0645 68.8373C12.2039 61.4632 15.6616 55.9835 20.4496 52.7689C25.2643 49.5363 31.3643 48.6332 35.7038 50.3654C36.6365 50.7377 37.6721 50.9384 38.7117 50.7984C45.5127 49.8821 50.372 51.5951 53.6042 53.8192C57.0331 56.1787 58.6724 60.3125 59.5564 64.548C60.3371 68.2889 60.9894 72.7079 61.096 76.9933C61.2029 81.2879 60.7602 85.4011 59.3875 88.5595C57.5619 92.7597 54.695 94.7436 51.8664 95.5456C49.0137 96.3545 46.1712 95.9674 44.4418 95.3657Z" stroke="black" stroke-opacity="0.18" stroke-linecap="round" stroke-linejoin="round"/>
<g filter="url(#filter1_d_513_2286)">
<path d="M39.6356 33.7038C34.4813 34.4494 32.8275 34.3612 32.1468 33.0464C32.1468 34.3612 30.5128 36.3335 18.4701 33.7038C9.78991 31.8084 13.7044 20.5556 15.0661 18.5834C16.1554 17.0056 16.4127 16.8336 17.0935 14.4231C17.0937 13.1083 20.5126 9.21782 26.6402 7.903C39.9749 5.04171 49.1071 5.71164 52.511 7.903C55.0073 10.0944 60 13.3241 60 23.8427C60 34.3612 51.8302 35.2378 47.7453 34.3612C45.022 33.0464 44.1804 33.0464 39.6356 33.7038Z" fill="url(#paint3_radial_513_2286)"/>
<path d="M32.1468 33.0464C31.6929 28.8828 31.6021 20.5556 34.8701 20.5556M32.1468 33.0464C32.8275 34.3612 34.4813 34.4494 39.6356 33.7038C44.1804 33.0464 45.022 33.0464 47.7453 34.3612C51.8302 35.2378 60 34.3612 60 23.8427C60 13.3241 55.0073 10.0944 52.511 7.903C49.1071 5.71164 39.9749 5.04171 26.6402 7.903C20.5126 9.21782 17.0937 13.1083 17.0935 14.4231C16.4127 16.8336 16.1554 17.0056 15.0661 18.5834C13.7044 20.5556 9.78991 31.8084 18.4701 33.7038C30.5128 36.3335 32.1468 34.3612 32.1468 33.0464Z" stroke="#CBCBCB"/>
</g>
</g>
<defs>
<filter id="filter0_d_513_2286" x="0" y="0.5" width="71.6113" height="251.158" filterUnits="userSpaceOnUse" color-interpolation-filters="sRGB">
<feFlood flood-opacity="0" result="BackgroundImageFix"/>
<feColorMatrix in="SourceAlpha" type="matrix" values="0 0 0 0 0 0 0 0 0 0 0 0 0 0 0 0 0 0 127 0" result="hardAlpha"/>
<feOffset dy="5"/>
<feGaussianBlur stdDeviation="5"/>
<feComposite in2="hardAlpha" operator="out"/>
<feColorMatrix type="matrix" values="0 0 0 0 0 0 0 0 0 0 0 0 0 0 0 0 0 0 0.35 0"/>
<feBlend mode="normal" in2="BackgroundImageFix" result="effect1_dropShadow_513_2286"/>
<feBlend mode="normal" in="SourceGraphic" in2="effect1_dropShadow_513_2286" result="shape"/>
</filter>
<clipPath id="paint0_diamond_513_2286_clip_path"><path d="M11.7276 191.17C10.2179 182.864 11.413 167.888 12.1993 161.438L29.6549 144.92C36.1025 144.763 51.4508 144.259 55.6024 158.606C59.1021 170.7 56.925 193.929 55.1188 207.71C54.545 212.088 53.3248 216.358 51.4133 220.338C48.455 226.499 44.6002 233.68 42.3928 235.06C38.6186 237.42 36.7315 236.948 35.788 235.06C35.0331 233.55 35.4735 229.083 35.788 227.037C37.6751 220.43 41.0718 205.423 39.5622 198.249C37.6751 189.282 34.8444 189.282 33.9009 189.754C32.9573 190.226 31.542 192.586 29.6549 198.249C27.7678 203.912 28.7114 212.879 29.6549 218.071C30.4098 222.224 30.284 225.15 30.1267 226.094C28.7114 227.824 25.1259 230.247 22.1066 226.094C18.3324 220.902 13.6147 201.553 11.7276 191.17Z"/></clipPath><filter id="filter1_d_513_2286" x="8.5" y="5.5" width="56" height="37.9999" filterUnits="userSpaceOnUse" color-interpolation-filters="sRGB">
<feFlood flood-opacity="0" result="BackgroundImageFix"/>
<feColorMatrix in="SourceAlpha" type="matrix" values="0 0 0 0 0 0 0 0 0 0 0 0 0 0 0 0 0 0 127 0" result="hardAlpha"/>
<feOffset dy="4"/>
<feGaussianBlur stdDeviation="2"/>
<feComposite in2="hardAlpha" operator="out"/>
<feColorMatrix type="matrix" values="0 0 0 0 0 0 0 0 0 0 0 0 0 0 0 0 0 0 0.25 0"/>
<feBlend mode="normal" in2="BackgroundImageFix" result="effect1_dropShadow_513_2286"/>
<feBlend mode="normal" in="SourceGraphic" in2="effect1_dropShadow_513_2286" result="shape"/>
</filter>
<linearGradient id="paint0_diamond_513_2286" x1="0" y1="0" x2="500" y2="500" gradientUnits="userSpaceOnUse">
<stop stop-color="#F9E7C9"/>
<stop offset="1" stop-color="#E7BA8B"/>
</linearGradient>
<radialGradient id="paint1_radial_513_2286" cx="0" cy="0" r="1" gradientUnits="userSpaceOnUse" gradientTransform="translate(34.4517 150.887) rotate(90) scale(20.138 24.4517)">
<stop offset="0.56179" stop-color="white"/>
<stop offset="1" stop-color="#CAC9C2"/>
</radialGradient>
<radialGradient id="paint2_radial_513_2286" cx="0" cy="0" r="1" gradientUnits="userSpaceOnUse" gradientTransform="translate(37.022 72.7526) rotate(90) scale(23.7526 24.5893)">
<stop offset="0.56179" stop-color="white"/>
<stop offset="1" stop-color="#CAC9C2"/>
</radialGradient>
<radialGradient id="paint3_radial_513_2286" cx="0" cy="0" r="1" gradientUnits="userSpaceOnUse" gradientTransform="translate(36.5 20.5) rotate(-90) scale(14.5 23.5)">
<stop offset="0.505" stop-color="white"/>
<stop offset="1" stop-color="#D9D9D9"/>
</radialGradient>
</defs>
</svg>
