<svg width="69" height="218" viewBox="0 0 69 218" fill="none" xmlns="http://www.w3.org/2000/svg">
<g filter="url(#filter0_d_513_1825)">
<ellipse cx="33.9324" cy="91.406" rx="8.96369" ry="7.55102" fill="#A9A9A9"/>
<path d="M14.5545 65.4667L19.782 58.8426L46.9087 60.2584L51.5366 60.2586L51.1758 63.507C51.1052 64.1426 51.3089 64.7782 51.7359 65.2543C52.1308 65.6945 52.431 66.2112 52.6179 66.7723L53.2781 68.7533L54.2216 72.5288C54.5354 74.4134 54.6931 76.3206 54.6931 78.2311L54.6931 84.7525C54.6931 86.3529 54.5352 87.9493 54.2216 89.5186L53.85 90.8196C53.471 92.1466 52.8884 93.4068 52.1231 94.5551C51.636 95.2858 51.0781 95.9666 50.4573 96.5876L49.1586 97.8868C48.7611 98.2844 48.3163 98.6318 47.8343 98.9211L47.6326 99.0422C46.696 99.6043 45.6241 99.9013 44.5318 99.9013C43.765 99.9013 43.0052 99.7549 42.2933 99.4701L41.8216 99.2814C41.2833 99.066 40.7688 98.7952 40.2864 98.4735C39.8278 98.1676 39.4005 97.8172 39.0107 97.4273L38.498 96.9144C37.9732 96.3893 37.4862 95.8277 37.0408 95.2337L36.2943 94.238L35.7827 93.5556C35.1916 92.7673 34.3951 92.1567 33.4805 91.7907C32.846 91.5368 32.169 91.4064 31.4857 91.4064L31.3406 91.4064C30.5616 91.4064 29.7897 91.5551 29.0664 91.8445L28.6302 92.019C28.0799 92.2392 27.5539 92.516 27.0607 92.8449L26.2431 93.3902C25.4019 93.9512 24.4704 94.3634 23.4895 94.6087L23.06 94.7161C21.8399 95.0213 20.561 94.9999 19.3518 94.6543C18.3913 94.3798 17.4989 93.9076 16.7315 93.2679L16.2848 92.8955C15.4765 92.2217 14.7805 91.4235 14.2228 90.531L13.8778 89.9788C13.1013 88.7359 12.5247 87.3786 12.1694 85.9566L11.7622 84.3273L11.3156 82.3171C10.9853 80.8301 10.8186 79.3113 10.8186 77.788C10.8186 76.8001 10.8887 75.8135 11.0284 74.8356L11.2904 73.0008L11.7622 70.641C12.3865 68.7675 13.3313 67.0167 14.5545 65.4667Z" fill="url(#paint0_radial_513_1825)"/>
<path d="M32.0472 7.39941C30.6318 7.39941 30.1601 9.75911 30.1601 11.6469C30.6318 15.8943 29.6883 21.0856 29.6883 23.9173C29.6883 26.2138 29.3738 27.0635 29.2165 27.2209C27.8012 29.5805 22.1399 35.2438 21.6682 35.7158C21.2907 36.0933 20.8819 42.1656 20.7246 45.1545L28.7448 53.1775L47.1439 40.9071C45.7286 38.0754 42.3318 32.601 40.0673 33.3561C37.8028 34.1112 37.2367 18.254 34.8778 10.231C34.7205 9.28717 33.9343 7.39941 32.0472 7.39941Z" fill="url(#paint1_linear_513_1825)"/>
<g clip-path="url(#paint2_diamond_513_1825_clip_path)" data-figma-skip-parse="true"><g transform="matrix(0 0.0311688 -0.0213263 0 33.0422 36.1688)"><rect x="0" y="0" width="1032.08" height="1046.89" fill="url(#paint2_diamond_513_1825)" opacity="1" shape-rendering="crispEdges"/><rect x="0" y="0" width="1032.08" height="1046.89" transform="scale(1 -1)" fill="url(#paint2_diamond_513_1825)" opacity="1" shape-rendering="crispEdges"/><rect x="0" y="0" width="1032.08" height="1046.89" transform="scale(-1 1)" fill="url(#paint2_diamond_513_1825)" opacity="1" shape-rendering="crispEdges"/><rect x="0" y="0" width="1032.08" height="1046.89" transform="scale(-1)" fill="url(#paint2_diamond_513_1825)" opacity="1" shape-rendering="crispEdges"/></g></g><path d="M22.1383 67.3376H13.1746C10.5326 57.5212 12.0738 44.0552 13.1746 38.5493C15.5334 27.6947 14.5899 35.7176 19.7794 17.312C23.931 2.58753 29.3814 8.55619 28.7431 13.5365C27.1705 25.8069 26.0068 49.4039 33.9326 45.6284C41.8584 41.8529 40.3801 25.1777 38.6503 17.312C36.2914 11.8061 33.2721 1.83243 40.0656 5.9855C46.8592 10.1386 52.0172 24.7057 53.747 31.4702C55.4448 47.6043 53.3594 56.9654 51.1489 61.5024C50.1002 63.655 47.7222 64.5059 45.3277 64.5059C42.5626 64.5059 39.8981 63.2493 37.2424 62.4794C35.3107 61.9194 33.1497 61.8299 31.5737 62.6182C29.7558 63.5274 25.9124 67.3376 22.1383 67.3376Z" data-figma-gradient-fill="{&#34;type&#34;:&#34;GRADIENT_DIAMOND&#34;,&#34;stops&#34;:[{&#34;color&#34;:{&#34;r&#34;:0.97647058963775635,&#34;g&#34;:0.90588235855102539,&#34;b&#34;:0.78823530673980713,&#34;a&#34;:1.0},&#34;position&#34;:0.0},{&#34;color&#34;:{&#34;r&#34;:0.90588235855102539,&#34;g&#34;:0.7294117808341980,&#34;b&#34;:0.54509806632995605,&#34;a&#34;:1.0},&#34;position&#34;:1.0}],&#34;stopsVar&#34;:[{&#34;color&#34;:{&#34;r&#34;:0.97647058963775635,&#34;g&#34;:0.90588235855102539,&#34;b&#34;:0.78823530673980713,&#34;a&#34;:1.0},&#34;position&#34;:0.0},{&#34;color&#34;:{&#34;r&#34;:0.90588235855102539,&#34;g&#34;:0.7294117808341980,&#34;b&#34;:0.54509806632995605,&#34;a&#34;:1.0},&#34;position&#34;:1.0}],&#34;transform&#34;:{&#34;m00&#34;:2.6117225430808333e-15,&#34;m01&#34;:-42.652664184570312,&#34;m02&#34;:54.368484497070312,&#34;m10&#34;:62.337554931640625,&#34;m11&#34;:3.8170743557044626e-15,&#34;m12&#34;:5.0},&#34;opacity&#34;:1.0,&#34;blendMode&#34;:&#34;NORMAL&#34;,&#34;visible&#34;:true}"/>
<path d="M13.7936 154.478C11.8517 140.599 15.06 130.461 18.3946 124.628C20.2875 121.317 23.5868 118.443 27.3778 118.862C27.7353 118.901 28.0836 118.973 28.4144 119.083C30.6782 119.838 33.4452 119.083 34.5457 118.611C36.1178 117.982 40.4883 116.818 45.3933 117.195C50.2983 117.573 52.7823 120.499 53.4111 121.915C59.0708 134.374 55.7693 148.501 53.4111 154.007C50.7385 158.569 44.167 166.843 39.262 163.445C37.791 162.426 36.368 161.75 35.0542 161.319C30.916 159.961 26.1666 162.03 21.8115 162.03C16.9064 162.03 14.4225 156.995 13.7936 154.478Z" fill="url(#paint3_radial_513_1825)"/>
<path d="M52.9542 122.118L52.9559 122.121C58.5252 134.382 55.2915 148.324 52.9638 153.781C51.6413 156.033 49.3714 159.174 46.8488 161.331C45.5816 162.414 44.2821 163.221 43.0342 163.563C41.8054 163.9 40.6325 163.786 39.5468 163.034C38.0364 161.988 36.57 161.29 35.21 160.844C33.0208 160.125 30.6973 160.322 28.4379 160.671C27.8586 160.76 27.2854 160.859 26.7182 160.957C25.0344 161.248 23.402 161.53 21.8115 161.53C19.551 161.53 17.8327 160.375 16.5829 158.878C15.3361 157.383 14.5891 155.583 14.2851 154.383C12.3666 140.628 15.5502 130.611 18.8287 124.876C20.6849 121.629 23.8301 118.973 27.3229 119.359C27.6506 119.395 27.9637 119.46 28.2562 119.557C29.4876 119.968 30.83 119.962 31.9846 119.803C33.138 119.643 34.1453 119.326 34.7369 119.073C36.2532 118.468 40.5426 117.323 45.3549 117.694C50.0657 118.056 52.3953 120.859 52.9542 122.118Z" stroke="black" stroke-opacity="0.18" stroke-linecap="round" stroke-linejoin="round"/>
<g filter="url(#filter1_d_513_1825)">
<path d="M52.7075 182.752C51.5774 180.665 46.8764 176.212 37.1133 175.099C33.4553 174.682 31.2694 175.619 30.0492 177.186C11.7035 171.064 11.747 182.056 14.062 188.318C15.4179 193.884 21.9266 204.32 37.1133 201.537C52.3001 198.754 53.8373 187.854 52.7075 182.752Z" fill="url(#paint4_radial_513_1825)"/>
<path d="M29.6554 186.927C28.6662 184.171 28.0127 179.802 30.0492 177.186M30.0492 177.186C31.2694 175.619 33.4553 174.682 37.1133 175.099C46.8764 176.212 51.5774 180.665 52.7075 182.752C53.8373 187.854 52.3001 198.754 37.1133 201.537C21.9266 204.32 15.4179 193.884 14.062 188.318C11.747 182.056 11.7035 171.064 30.0492 177.186Z" stroke="#CBCBCB"/>
</g>
</g>
<defs>
<filter id="filter0_d_513_1825" x="0.818359" y="0" width="65.7178" height="217.5" filterUnits="userSpaceOnUse" color-interpolation-filters="sRGB">
<feFlood flood-opacity="0" result="BackgroundImageFix"/>
<feColorMatrix in="SourceAlpha" type="matrix" values="0 0 0 0 0 0 0 0 0 0 0 0 0 0 0 0 0 0 127 0" result="hardAlpha"/>
<feOffset dy="5"/>
<feGaussianBlur stdDeviation="5"/>
<feComposite in2="hardAlpha" operator="out"/>
<feColorMatrix type="matrix" values="0 0 0 0 0 0 0 0 0 0 0 0 0 0 0 0 0 0 0.35 0"/>
<feBlend mode="normal" in2="BackgroundImageFix" result="effect1_dropShadow_513_1825"/>
<feBlend mode="normal" in="SourceGraphic" in2="effect1_dropShadow_513_1825" result="shape"/>
</filter>
<clipPath id="paint2_diamond_513_1825_clip_path"><path d="M22.1383 67.3376H13.1746C10.5326 57.5212 12.0738 44.0552 13.1746 38.5493C15.5334 27.6947 14.5899 35.7176 19.7794 17.312C23.931 2.58753 29.3814 8.55619 28.7431 13.5365C27.1705 25.8069 26.0068 49.4039 33.9326 45.6284C41.8584 41.8529 40.3801 25.1777 38.6503 17.312C36.2914 11.8061 33.2721 1.83243 40.0656 5.9855C46.8592 10.1386 52.0172 24.7057 53.747 31.4702C55.4448 47.6043 53.3594 56.9654 51.1489 61.5024C50.1002 63.655 47.7222 64.5059 45.3277 64.5059C42.5626 64.5059 39.8981 63.2493 37.2424 62.4794C35.3107 61.9194 33.1497 61.8299 31.5737 62.6182C29.7558 63.5274 25.9124 67.3376 22.1383 67.3376Z"/></clipPath><filter id="filter1_d_513_1825" x="8.5" y="174.5" width="49" height="35.9998" filterUnits="userSpaceOnUse" color-interpolation-filters="sRGB">
<feFlood flood-opacity="0" result="BackgroundImageFix"/>
<feColorMatrix in="SourceAlpha" type="matrix" values="0 0 0 0 0 0 0 0 0 0 0 0 0 0 0 0 0 0 127 0" result="hardAlpha"/>
<feOffset dy="4"/>
<feGaussianBlur stdDeviation="2"/>
<feComposite in2="hardAlpha" operator="out"/>
<feColorMatrix type="matrix" values="0 0 0 0 0 0 0 0 0 0 0 0 0 0 0 0 0 0 0.25 0"/>
<feBlend mode="normal" in2="BackgroundImageFix" result="effect1_dropShadow_513_1825"/>
<feBlend mode="normal" in="SourceGraphic" in2="effect1_dropShadow_513_1825" result="shape"/>
</filter>
<radialGradient id="paint0_radial_513_1825" cx="0" cy="0" r="1" gradientUnits="userSpaceOnUse" gradientTransform="translate(35.0311 77.469) rotate(-144.999) scale(23.8298 23.5652)">
<stop offset="0.56179" stop-color="white"/>
<stop offset="1" stop-color="#CAC9C2"/>
</radialGradient>
<linearGradient id="paint1_linear_513_1825" x1="33.9343" y1="7.39941" x2="33.9343" y2="53.1775" gradientUnits="userSpaceOnUse">
<stop stop-color="#CC8559"/>
<stop offset="1" stop-color="#EBB98F"/>
</linearGradient>
<linearGradient id="paint2_diamond_513_1825" x1="0" y1="0" x2="500" y2="500" gradientUnits="userSpaceOnUse">
<stop stop-color="#F9E7C9"/>
<stop offset="1" stop-color="#E7BA8B"/>
</linearGradient>
<radialGradient id="paint3_radial_513_1825" cx="0" cy="0" r="1" gradientUnits="userSpaceOnUse" gradientTransform="translate(34.8706 140.682) rotate(90) scale(23.5608 21.6655)">
<stop offset="0.56179" stop-color="white"/>
<stop offset="1" stop-color="#CAC9C2"/>
</radialGradient>
<radialGradient id="paint4_radial_513_1825" cx="0" cy="0" r="1" gradientUnits="userSpaceOnUse" gradientTransform="translate(33 188.5) rotate(90) scale(13.5 20)">
<stop offset="0.505" stop-color="white"/>
<stop offset="1" stop-color="#D9D9D9"/>
</radialGradient>
</defs>
</svg>
