<svg width="75" height="238" viewBox="0 0 75 238" fill="none" xmlns="http://www.w3.org/2000/svg">
<g filter="url(#filter0_d_513_1831)">
<ellipse cx="36.2509" cy="101.808" rx="9.43546" ry="10.3827" fill="#A9A9A9"/>
<path d="M10.7748 89.5428C11.2465 83.8796 17.3801 71.4519 21.6261 63.5863L33.8922 61.2265C40.1825 60.5972 54.2728 62.2648 60.3115 73.9689C66.3502 85.6729 64.0856 98.5098 62.6703 103.229C60.9841 107.587 57.0091 115.499 47.1018 114.084C43.3276 113.14 37.1946 99.4536 32.4769 104.173C30.2123 109.459 26.8156 110.151 25.4003 109.836C23.5132 110.308 21.1543 107.523 21.1543 105.117C21.1543 102.285 20.0535 102.443 19.739 101.341C7.94465 100.397 10.303 92.3745 10.7748 89.5428Z" fill="url(#paint0_radial_513_1831)"/>
<path d="M41.9123 5.53516C40.4969 5.53516 40.0252 7.89485 40.0252 9.78261C40.4969 14.0301 39.0816 17.3336 38.6099 20.6372C38.1381 22.9969 37.8634 23.2975 37.1945 24.4127C35.7792 26.7724 29.6462 31.9637 29.1744 32.4357C28.797 32.8132 26.501 53.0437 26.3438 56.0326L34.3639 64.0556L52.763 51.7852C51.3477 48.9535 52.1969 30.7367 49.9324 31.4918C47.6679 32.2469 47.1018 16.3898 44.7429 8.36679C44.5856 7.42291 43.7994 5.53516 41.9123 5.53516Z" fill="url(#paint1_linear_513_1831)"/>
<g clip-path="url(#paint2_diamond_513_1831_clip_path)" data-figma-skip-parse="true"><g transform="matrix(0 0.033929 -0.0236967 0 39.5453 40.9817)"><rect x="0" y="0" width="1029.47" height="1042.2" fill="url(#paint2_diamond_513_1831)" opacity="1" shape-rendering="crispEdges"/><rect x="0" y="0" width="1029.47" height="1042.2" transform="scale(1 -1)" fill="url(#paint2_diamond_513_1831)" opacity="1" shape-rendering="crispEdges"/><rect x="0" y="0" width="1029.47" height="1042.2" transform="scale(-1 1)" fill="url(#paint2_diamond_513_1831)" opacity="1" shape-rendering="crispEdges"/><rect x="0" y="0" width="1029.47" height="1042.2" transform="scale(-1)" fill="url(#paint2_diamond_513_1831)" opacity="1" shape-rendering="crispEdges"/></g></g><path d="M28.7457 68.817C25.3119 67.8914 21.1541 67.8316 18.3235 69.7194C15.6816 59.9031 15.3357 43.6054 16.4365 38.0995C18.3236 28.1888 16.9083 31.9643 23.9845 16.3902C29.6462 1.76003 33.8921 7.42321 33.8921 12.6146C34.8357 24.885 27.7591 60.2805 36.7224 56.505C44.6482 52.7295 45.6861 37.6275 47.6166 30.0765C47.6166 24.4132 43.1389 4.21409 49.9324 8.36716C56.7259 12.5202 59.9965 27.0876 61.7263 33.852C66.4441 45.6505 58.4239 65.4719 60.7828 74.9107C58.8957 69.7194 51.3476 69.2474 48.517 70.6633C43.3275 73.023 39.0815 74.9107 33.892 72.0791C32.1077 71.1055 32.0046 70.1913 28.7457 68.817Z" data-figma-gradient-fill="{&#34;type&#34;:&#34;GRADIENT_DIAMOND&#34;,&#34;stops&#34;:[{&#34;color&#34;:{&#34;r&#34;:0.97647058963775635,&#34;g&#34;:0.90588235855102539,&#34;b&#34;:0.78823530673980713,&#34;a&#34;:1.0},&#34;position&#34;:0.0},{&#34;color&#34;:{&#34;r&#34;:0.90588235855102539,&#34;g&#34;:0.7294117808341980,&#34;b&#34;:0.54509806632995605,&#34;a&#34;:1.0},&#34;position&#34;:1.0}],&#34;stopsVar&#34;:[{&#34;color&#34;:{&#34;r&#34;:0.97647058963775635,&#34;g&#34;:0.90588235855102539,&#34;b&#34;:0.78823530673980713,&#34;a&#34;:1.0},&#34;position&#34;:0.0},{&#34;color&#34;:{&#34;r&#34;:0.90588235855102539,&#34;g&#34;:0.7294117808341980,&#34;b&#34;:0.54509806632995605,&#34;a&#34;:1.0},&#34;position&#34;:1.0}],&#34;transform&#34;:{&#34;m00&#34;:2.9020072986102232e-15,&#34;m01&#34;:-47.393375396728516,&#34;m02&#34;:63.242008209228516,&#34;m10&#34;:67.857978820800781,&#34;m11&#34;:4.1551031820970252e-15,&#34;m12&#34;:7.0527343750},&#34;opacity&#34;:1.0,&#34;blendMode&#34;:&#34;NORMAL&#34;,&#34;visible&#34;:true}"/>
<path d="M12.1399 153.597C10.6307 135.097 23.4592 132.045 30.0621 132.831C33.9924 133.303 43.9282 134.625 52.229 136.135C62.605 138.023 61.6618 149.349 62.605 161.62C63.5483 173.89 49.8709 184.745 45.1545 180.969C42.453 178.806 36.3664 178.128 31.3959 178.032C28.0178 177.967 24.6263 177.642 21.3807 176.703C11.455 173.831 13.7957 173.893 12.1399 153.597Z" fill="url(#paint3_radial_513_1831)"/>
<path d="M12.6383 153.556C11.894 144.433 14.6844 139.228 18.3651 136.377C22.0767 133.502 26.7908 132.945 30.0025 133.328C33.9277 133.799 43.8525 135.119 52.1395 136.627C54.6384 137.081 56.4222 138.096 57.7256 139.525C59.0365 140.962 59.8921 142.853 60.47 145.108C61.0481 147.364 61.3405 149.953 61.5463 152.763C61.6418 154.067 61.7184 155.413 61.7968 156.791C61.8027 156.896 61.8087 157.002 61.8148 157.107C61.8995 158.595 61.9882 160.119 62.1065 161.658C62.5633 167.6 59.4755 173.245 55.6539 176.953C53.7461 178.804 51.6837 180.144 49.8377 180.792C47.9749 181.447 46.4481 181.364 45.467 180.579C44.0143 179.416 41.7127 178.689 39.2157 178.234C36.6995 177.775 33.9063 177.58 31.4055 177.532C28.0507 177.468 24.7072 177.145 21.5196 176.222C19.0207 175.499 17.3739 174.981 16.2379 174.305C15.1498 173.658 14.5356 172.868 14.1381 171.541C13.7267 170.167 13.5549 168.243 13.3857 165.337C13.3474 164.68 13.3094 163.976 13.2685 163.219C13.1297 160.65 12.9585 157.482 12.6383 153.556Z" stroke="black" stroke-opacity="0.18" stroke-linecap="round" stroke-linejoin="round"/>
<g filter="url(#filter1_d_513_1831)">
<path d="M56.7714 194.297C56.2418 188.073 39.3601 186.702 28.5146 187.05C26.7656 187.106 25.2972 188.34 24.8646 190.035C9.63642 183.643 11.8119 199.27 12.537 200.69C13.1172 201.827 14.7125 205.426 15.4376 207.083C18.3383 221.29 24.1395 222 40.818 222C57.4965 222 57.4965 202.821 56.7714 194.297Z" fill="url(#paint4_radial_513_1831)"/>
<path d="M24.8646 202.111V190.035M24.8646 190.035V190.035C25.2972 188.34 26.7656 187.106 28.5146 187.05C39.3601 186.702 56.2418 188.073 56.7714 194.297C57.4965 202.821 57.4965 222 40.818 222C24.1395 222 18.3383 221.29 15.4376 207.083C14.7125 205.426 13.1172 201.827 12.537 200.69C11.8119 199.27 9.63642 183.643 24.8646 190.035Z" stroke="#CBCBCB"/>
</g>
</g>
<defs>
<filter id="filter0_d_513_1831" x="0.267578" y="0.535156" width="74.0186" height="236.965" filterUnits="userSpaceOnUse" color-interpolation-filters="sRGB">
<feFlood flood-opacity="0" result="BackgroundImageFix"/>
<feColorMatrix in="SourceAlpha" type="matrix" values="0 0 0 0 0 0 0 0 0 0 0 0 0 0 0 0 0 0 127 0" result="hardAlpha"/>
<feOffset dy="5"/>
<feGaussianBlur stdDeviation="5"/>
<feComposite in2="hardAlpha" operator="out"/>
<feColorMatrix type="matrix" values="0 0 0 0 0 0 0 0 0 0 0 0 0 0 0 0 0 0 0.35 0"/>
<feBlend mode="normal" in2="BackgroundImageFix" result="effect1_dropShadow_513_1831"/>
<feBlend mode="normal" in="SourceGraphic" in2="effect1_dropShadow_513_1831" result="shape"/>
</filter>
<clipPath id="paint2_diamond_513_1831_clip_path"><path d="M28.7457 68.817C25.3119 67.8914 21.1541 67.8316 18.3235 69.7194C15.6816 59.9031 15.3357 43.6054 16.4365 38.0995C18.3236 28.1888 16.9083 31.9643 23.9845 16.3902C29.6462 1.76003 33.8921 7.42321 33.8921 12.6146C34.8357 24.885 27.7591 60.2805 36.7224 56.505C44.6482 52.7295 45.6861 37.6275 47.6166 30.0765C47.6166 24.4132 43.1389 4.21409 49.9324 8.36716C56.7259 12.5202 59.9965 27.0876 61.7263 33.852C66.4441 45.6505 58.4239 65.4719 60.7828 74.9107C58.8957 69.7194 51.3476 69.2474 48.517 70.6633C43.3275 73.023 39.0815 74.9107 33.892 72.0791C32.1077 71.1055 32.0046 70.1913 28.7457 68.817Z"/></clipPath><filter id="filter1_d_513_1831" x="7.5" y="186.5" width="54" height="44" filterUnits="userSpaceOnUse" color-interpolation-filters="sRGB">
<feFlood flood-opacity="0" result="BackgroundImageFix"/>
<feColorMatrix in="SourceAlpha" type="matrix" values="0 0 0 0 0 0 0 0 0 0 0 0 0 0 0 0 0 0 127 0" result="hardAlpha"/>
<feOffset dy="4"/>
<feGaussianBlur stdDeviation="2"/>
<feComposite in2="hardAlpha" operator="out"/>
<feColorMatrix type="matrix" values="0 0 0 0 0 0 0 0 0 0 0 0 0 0 0 0 0 0 0.25 0"/>
<feBlend mode="normal" in2="BackgroundImageFix" result="effect1_dropShadow_513_1831"/>
<feBlend mode="normal" in="SourceGraphic" in2="effect1_dropShadow_513_1831" result="shape"/>
</filter>
<radialGradient id="paint0_radial_513_1831" cx="0" cy="0" r="1" gradientUnits="userSpaceOnUse" gradientTransform="translate(37.2769 87.6816) rotate(90) scale(26.5693 27.0093)">
<stop offset="0.56179" stop-color="white"/>
<stop offset="1" stop-color="#CAC9C2"/>
</radialGradient>
<linearGradient id="paint1_linear_513_1831" x1="39.5534" y1="5.53516" x2="39.5534" y2="64.0556" gradientUnits="userSpaceOnUse">
<stop stop-color="#CC8559"/>
<stop offset="1" stop-color="#EBB98F"/>
</linearGradient>
<linearGradient id="paint2_diamond_513_1831" x1="0" y1="0" x2="500" y2="500" gradientUnits="userSpaceOnUse">
<stop stop-color="#F9E7C9"/>
<stop offset="1" stop-color="#E7BA8B"/>
</linearGradient>
<radialGradient id="paint3_radial_513_1831" cx="0" cy="0" r="1" gradientUnits="userSpaceOnUse" gradientTransform="translate(37.3345 157.226) rotate(90) scale(24.5052 25.317)">
<stop offset="0.56179" stop-color="white"/>
<stop offset="1" stop-color="#CAC9C2"/>
</radialGradient>
<radialGradient id="paint4_radial_513_1831" cx="0" cy="0" r="1" gradientUnits="userSpaceOnUse" gradientTransform="translate(34.5 204.5) rotate(90) scale(17.5 22.5)">
<stop offset="0.505" stop-color="white"/>
<stop offset="1" stop-color="#D9D9D9"/>
</radialGradient>
</defs>
</svg>
