<svg width="76" height="226" viewBox="0 0 76 226" fill="none" xmlns="http://www.w3.org/2000/svg">
<g filter="url(#filter0_d_513_1837)">
<path d="M41.9298 11.3871C39.6709 15.4546 34.3836 23.8499 30.6251 27.8697C30.3071 28.2098 30.0589 28.6069 29.9117 29.0487L27.8968 35.0955C27.817 35.3349 27.7678 35.5834 27.7502 35.8351L26.4963 53.8146C26.4141 54.9921 27.0301 56.1084 28.0702 56.6666L42.7341 64.5378C44.3154 65.3867 46.2833 64.6664 46.9429 62.9972L53.318 46.8664C53.5802 46.203 53.5955 45.4707 53.3796 44.7908C51.4316 38.6561 49.3199 28.7169 46.6476 26.4892C45.7777 25.7641 46.333 18.4662 46.6476 12.803C46.6476 7.61163 44.0266 7.61161 41.9298 11.3871Z" fill="url(#paint0_linear_513_1837)"/>
<g filter="url(#filter1_d_513_1837)">
<path d="M20.7006 38.291C18.9164 44.9841 19.1151 69.3027 20.5734 82.0669C20.6519 82.7542 20.9745 83.3855 21.4759 83.8621L29.3182 91.3149C29.8454 91.8159 30.5365 92.1085 31.2632 92.1369C43.1913 92.6037 64.7287 93.1892 63.6319 92.092C62.4997 90.9594 63.1601 74.001 63.6319 65.6635C65.0472 53.5504 65.8964 26.3038 57.9706 14.2221C48.0634 -0.879931 58.4424 34.9874 49.9505 50.5614C41.4586 66.1354 41.9304 58.5844 37.2126 51.0333C33.4384 44.9925 34.0674 22.2451 34.8537 10.4466C35.4661 1.25766 26.5938 7.81759 26.3618 12.8063C26.0473 19.5707 22.5876 31.2119 20.7006 38.291Z" fill="url(#paint1_diamond_513_1837)"/>
</g>
<path d="M21.645 111.907C26.2741 111.576 33.6552 117.5 37.9512 121.617C38.9752 122.599 40.4609 123.101 41.7202 122.448C47.2866 119.562 46.4624 111.997 47.5925 110.019L57.9715 105.3L49.0079 95.8608L22.5886 102.94C20.0725 106.086 16.3612 112.284 21.645 111.907Z" fill="#A9A9A9"/>
<path d="M15.9839 110.502C14.0968 90.1141 16.9274 84.0733 18.3427 82.6575L19.4738 81.0733C20.1407 80.1393 21.4944 79.9295 22.5885 80.2757C25.7402 81.2731 30.974 81.2749 34.383 80.7697C38.3145 79.1966 46.9322 76.9942 49.9515 80.7697C53.7257 85.4891 62.2176 85.0172 63.6329 86.433C64.7652 87.5656 65.3628 96.3437 65.52 100.591C66.3004 102.152 62.2404 123.405 54.6745 127.506C51.5625 129.193 48.6215 125.803 46.7077 122.825C41.9437 115.413 38.1633 112.615 36.6925 112.15C36.4539 116.042 35.4096 118.303 34.8548 118.997C33.1249 120.413 29.2879 122.867 27.7782 121.356C26.2685 119.846 24.3185 120.413 23.5322 120.885C17.871 124.66 16.1411 115.536 15.9839 110.502Z" fill="url(#paint2_radial_513_1837)"/>
<path d="M10.7628 189.781V170.904C11.0773 168.387 13.2154 162.598 19.2523 159.577C26.7985 155.802 40.0043 155.802 42.8342 156.274C45.664 156.745 50.3803 156.745 56.5116 168.072C61.4166 177.133 61.3852 189.152 60.7563 194.029C56.9833 209.131 48.8082 211.333 45.1923 210.547C44.4063 210.389 41.7966 209.791 37.6462 208.659C32.4581 207.243 29.1567 208.187 26.7985 208.659C24.912 209.036 22.2393 208.501 21.1389 208.187C12.4607 205.166 10.6056 194.658 10.7628 189.781Z" fill="url(#paint3_radial_513_1837)"/>
<path d="M25.8552 177.039C24.0525 177.49 18.8043 179.665 15.9427 185.622M36.3779 183.577C35.1583 185.482 33.0131 192.67 33.8731 202.995M29.4822 164.676C29.6918 164.496 29.716 164.181 29.5362 163.971C29.3564 163.761 29.0408 163.737 28.8312 163.917C28.1826 164.473 27.3198 165.774 26.6186 167.891C25.9343 169.957 25.3909 172.838 25.3569 176.659C23.2943 177.282 18.6832 179.442 15.8633 184.676C15.7397 182.31 16.2012 180.459 16.436 179.52C16.5029 179.252 16.34 178.98 16.0721 178.913C15.8041 178.847 15.5327 179.009 15.4658 179.277L15.4649 179.281C15.1684 180.467 14.4928 183.172 15.0667 186.561C15.4192 188.643 16.2412 190.975 17.8979 193.369C18.055 193.596 18.3664 193.653 18.5935 193.496C18.8206 193.339 18.8773 193.027 18.7202 192.8C17.1897 190.588 16.42 188.446 16.0775 186.536C18.635 180.533 23.6733 178.199 25.69 177.602C28.4787 180.655 30.8444 181.506 33.5232 182.47C34.2884 182.746 35.0791 183.03 35.9125 183.378C35.8708 183.446 35.8297 183.517 35.7892 183.59C35.5984 183.935 35.398 184.374 35.197 184.897C34.7946 185.946 34.3797 187.36 34.0314 189.093C33.3344 192.56 32.8992 197.326 33.3748 203.037C33.3977 203.312 33.6394 203.517 33.9146 203.494C34.1897 203.471 34.3942 203.229 34.3713 202.954C33.9036 197.338 34.3331 192.666 35.0118 189.29C35.3512 187.601 35.7519 186.243 36.1306 185.256C36.3201 184.762 36.5018 184.368 36.6641 184.074C36.77 183.883 36.8596 183.75 36.9285 183.663C40.0559 183.483 41.6457 182.825 42.7822 181.913C43.271 181.521 43.6668 181.087 44.0446 180.673C44.1012 180.611 44.1574 180.55 44.2134 180.489C44.4299 180.254 44.6495 180.022 44.8916 179.794C44.9594 180.515 45.2368 181.058 45.7402 181.449C46.0846 181.716 46.4996 181.882 46.9313 182.001C47.3629 182.121 47.8468 182.203 48.3419 182.283C48.3947 182.292 48.4478 182.301 48.5012 182.309C50.4334 182.621 52.7575 182.995 54.7358 185.259C54.7888 186.095 54.9151 187.015 55.0751 187.976C55.1205 188.248 55.3781 188.432 55.6505 188.387C55.9229 188.341 56.1069 188.084 56.0616 187.811C55.8929 186.799 55.7673 185.861 55.7245 185.036C55.6864 184.3 55.7155 183.676 55.827 183.177C55.9384 182.679 56.1229 182.346 56.3655 182.138C56.5751 181.958 56.5993 181.642 56.4195 181.433C56.2397 181.223 55.9241 181.199 55.7145 181.379C55.2529 181.775 54.9908 182.335 54.8511 182.959C54.7905 183.23 54.7513 183.52 54.7296 183.825C52.6884 181.969 50.4156 181.604 48.697 181.328C48.6311 181.317 48.566 181.307 48.5017 181.296C48.0015 181.215 47.5695 181.14 47.1982 181.038C46.8271 180.935 46.5522 180.813 46.3534 180.659C46.0331 180.41 45.7942 179.984 45.8992 178.994C47.078 178.215 48.9137 177.49 52.3289 177.063C52.603 177.029 52.7973 176.779 52.763 176.505C52.7287 176.231 52.4788 176.037 52.2048 176.071C48.5159 176.532 46.4947 177.347 45.1434 178.299C44.4342 178.798 43.9273 179.323 43.4776 179.812C43.4178 179.877 43.3593 179.941 43.3018 180.004C42.9207 180.42 42.5804 180.793 42.1564 181.133C41.2289 181.877 39.8508 182.502 36.796 182.669C35.6773 182.176 34.6728 181.814 33.7348 181.477C31.1036 180.529 28.9953 179.77 26.3557 176.848C26.373 173.026 26.9101 170.192 27.5679 168.206C28.2424 166.169 29.0303 165.064 29.4822 164.676ZM11.2626 189.797L11.2628 189.781V170.935C11.576 168.52 13.6513 162.939 19.476 160.024C23.1638 158.179 28.2762 157.242 32.8566 156.831C37.4382 156.419 41.3983 156.541 42.7519 156.767C42.9381 156.798 43.1297 156.827 43.327 156.856C44.6608 157.057 46.2524 157.296 48.1649 158.523C50.3678 159.936 53.0293 162.689 56.0719 168.31C60.8957 177.221 60.8833 189.088 60.2642 193.936C56.527 208.856 48.553 210.766 45.2986 210.058L45.2986 210.058L45.2905 210.056C44.5203 209.902 41.9229 209.308 37.7778 208.176C32.9392 206.856 29.6795 207.543 27.3594 208.032C27.1308 208.08 26.9114 208.126 26.7004 208.168C25.8335 208.342 24.7548 208.309 23.7339 208.186C22.7281 208.064 21.8177 207.86 21.2898 207.71C17.1339 206.258 14.5903 203.013 13.0981 199.485C11.602 195.949 11.1859 192.176 11.2626 189.797Z" stroke="black" stroke-opacity="0.18" stroke-linecap="round" stroke-linejoin="round"/>
</g>
<defs>
<filter id="filter0_d_513_1837" x="0.753906" y="0.836914" width="74.8613" height="224.848" filterUnits="userSpaceOnUse" color-interpolation-filters="sRGB">
<feFlood flood-opacity="0" result="BackgroundImageFix"/>
<feColorMatrix in="SourceAlpha" type="matrix" values="0 0 0 0 0 0 0 0 0 0 0 0 0 0 0 0 0 0 127 0" result="hardAlpha"/>
<feOffset dy="5"/>
<feGaussianBlur stdDeviation="5"/>
<feComposite in2="hardAlpha" operator="out"/>
<feColorMatrix type="matrix" values="0 0 0 0 0 0 0 0 0 0 0 0 0 0 0 0 0 0 0.35 0"/>
<feBlend mode="normal" in2="BackgroundImageFix" result="effect1_dropShadow_513_1837"/>
<feBlend mode="normal" in="SourceGraphic" in2="effect1_dropShadow_513_1837" result="shape"/>
</filter>
<filter id="filter1_d_513_1837" x="15.4209" y="5.83691" width="53.1367" height="94.8805" filterUnits="userSpaceOnUse" color-interpolation-filters="sRGB">
<feFlood flood-opacity="0" result="BackgroundImageFix"/>
<feColorMatrix in="SourceAlpha" type="matrix" values="0 0 0 0 0 0 0 0 0 0 0 0 0 0 0 0 0 0 127 0" result="hardAlpha"/>
<feOffset dy="4"/>
<feGaussianBlur stdDeviation="2"/>
<feComposite in2="hardAlpha" operator="out"/>
<feColorMatrix type="matrix" values="0 0 0 0 0 0 0 0 0 0 0 0 0 0 0 0 0 0 0.25 0"/>
<feBlend mode="normal" in2="BackgroundImageFix" result="effect1_dropShadow_513_1837"/>
<feBlend mode="normal" in="SourceGraphic" in2="effect1_dropShadow_513_1837" result="shape"/>
</filter>
<linearGradient id="paint0_linear_513_1837" x1="40.0427" y1="8.71143" x2="40.0427" y2="66.132" gradientUnits="userSpaceOnUse">
<stop stop-color="#CC8559"/>
<stop offset="1" stop-color="#EBB98F"/>
</linearGradient>
<radialGradient id="paint1_diamond_513_1837" cx="0" cy="0" r="1" gradientUnits="userSpaceOnUse" gradientTransform="translate(41.9895 49.2772) rotate(90) scale(43.4403 22.5686)">
<stop stop-color="#F9E7C9"/>
<stop offset="1" stop-color="#E7BA8B"/>
</radialGradient>
<radialGradient id="paint2_radial_513_1837" cx="0" cy="0" r="1" gradientUnits="userSpaceOnUse" gradientTransform="translate(40.4853 103.437) rotate(90) scale(24.7516 25.1298)">
<stop offset="0.56179" stop-color="white"/>
<stop offset="1" stop-color="#CAC9C2"/>
</radialGradient>
<radialGradient id="paint3_radial_513_1837" cx="0" cy="0" r="1" gradientUnits="userSpaceOnUse" gradientTransform="translate(35.9018 183.372) rotate(90) scale(27.3126 25.1479)">
<stop offset="0.56179" stop-color="white"/>
<stop offset="1" stop-color="#CAC9C2"/>
</radialGradient>
</defs>
</svg>
