<svg width="63" height="248" viewBox="0 0 63 248" fill="none" xmlns="http://www.w3.org/2000/svg">
<g filter="url(#filter0_d_513_1843)">
<g clip-path="url(#paint0_diamond_513_1843_clip_path)" data-figma-skip-parse="true"><g transform="matrix(0 0.0493176 -0.0147053 0 34.9964 54.4094)"><rect x="0" y="0" width="1020.28" height="1068" fill="url(#paint0_diamond_513_1843)" opacity="1" shape-rendering="crispEdges"/><rect x="0" y="0" width="1020.28" height="1068" transform="scale(1 -1)" fill="url(#paint0_diamond_513_1843)" opacity="1" shape-rendering="crispEdges"/><rect x="0" y="0" width="1020.28" height="1068" transform="scale(-1 1)" fill="url(#paint0_diamond_513_1843)" opacity="1" shape-rendering="crispEdges"/><rect x="0" y="0" width="1020.28" height="1068" transform="scale(-1)" fill="url(#paint0_diamond_513_1843)" opacity="1" shape-rendering="crispEdges"/></g></g><path d="M23.1535 78.2423C20.5116 86.926 20.1657 91.6139 20.3229 92.8724L49.5728 103.727V77.7704C50.0446 71.0059 49.4785 54.551 43.4398 42.8469C37.4011 31.1428 34.9479 17.5195 34.4761 12.1709C32.1172 5.0918 31.1737 5.0918 27.8713 5.0918C25.2293 5.0918 25.5124 26.1717 25.9842 36.7117C26.1414 46.937 25.7955 69.5587 23.1535 78.2423Z" data-figma-gradient-fill="{&#34;type&#34;:&#34;GRADIENT_DIAMOND&#34;,&#34;stops&#34;:[{&#34;color&#34;:{&#34;r&#34;:0.97647058963775635,&#34;g&#34;:0.90588235855102539,&#34;b&#34;:0.78823530673980713,&#34;a&#34;:1.0},&#34;position&#34;:0.0},{&#34;color&#34;:{&#34;r&#34;:0.90588235855102539,&#34;g&#34;:0.7294117808341980,&#34;b&#34;:0.54509806632995605,&#34;a&#34;:1.0},&#34;position&#34;:1.0}],&#34;stopsVar&#34;:[{&#34;color&#34;:{&#34;r&#34;:0.97647058963775635,&#34;g&#34;:0.90588235855102539,&#34;b&#34;:0.78823530673980713,&#34;a&#34;:1.0},&#34;position&#34;:0.0},{&#34;color&#34;:{&#34;r&#34;:0.90588235855102539,&#34;g&#34;:0.7294117808341980,&#34;b&#34;:0.54509806632995605,&#34;a&#34;:1.0},&#34;position&#34;:1.0}],&#34;transform&#34;:{&#34;m00&#34;:1.8008852194868405e-15,&#34;m01&#34;:-29.410686492919922,&#34;m02&#34;:49.701702117919922,&#34;m10&#34;:98.635238647460938,&#34;m11&#34;:6.0396667864431181e-15,&#34;m12&#34;:5.0917968750},&#34;opacity&#34;:1.0,&#34;blendMode&#34;:&#34;NORMAL&#34;,&#34;visible&#34;:true}"/>
<path d="M15.6038 101.366C18.4136 96.7662 18.9328 93.6367 18.9749 91.8017C18.9927 91.0245 19.7684 90.5368 20.514 90.7569C21.9143 91.1702 24.021 91.2714 26.4546 89.5672C31.1724 86.2636 37.7772 86.7356 39.6643 89.0953C41.5514 91.455 48.628 96.1744 49.5715 96.1744C50.5151 96.1744 53.3457 113.636 52.4022 120.715C51.4586 127.794 32.5877 136.761 30.2288 133.458C28.8662 131.549 23.9776 128.378 19.8263 125.933C17.1305 124.345 14.9264 121.95 14.2414 118.897C13.0589 113.627 12.5321 106.394 15.6038 101.366Z" fill="url(#paint1_radial_513_1843)"/>
<path d="M18.3847 194.694C5.93344 183.367 12.0962 160.714 16.4981 150.803C20.7429 143.252 23.5727 142.78 32.5338 142.78C41.4949 142.78 45.7396 158.826 48.5694 170.153C51.3992 181.479 33.9487 208.852 18.3847 194.694Z" fill="url(#paint2_radial_513_1843)"/>
<path d="M18.7211 194.324C12.6596 188.81 11.0901 180.503 11.6204 172.25C12.1494 164.018 14.7635 155.947 16.9455 151.028C19.047 147.294 20.7472 145.409 22.9526 144.416C25.1955 143.406 28.03 143.28 32.5338 143.28C34.6085 143.28 36.4344 144.204 38.0705 145.82C39.7133 147.443 41.1424 149.743 42.3978 152.431C44.9092 157.807 46.6676 164.603 48.0843 170.274C48.7563 172.963 48.2331 176.685 46.7676 180.581C45.3075 184.462 42.9377 188.447 40.0063 191.642C37.071 194.841 33.6074 197.21 29.9675 197.934C26.3561 198.653 22.5053 197.766 18.7211 194.324Z" stroke="black" stroke-opacity="0.18" stroke-linecap="round" stroke-linejoin="round"/>
<g filter="url(#filter1_d_513_1843)">
<path d="M17.1121 225.529C4.53018 210.022 14.2525 204.761 20.6865 204.069C21.2589 203.994 27.5967 204.038 30.6941 204.069C42.1322 203.181 43.5619 211.083 42.8471 215.145C39.5112 225.068 29.694 241.036 17.1121 225.529Z" fill="url(#paint3_radial_513_1843)"/>
<path d="M17.1121 225.529C4.53018 210.022 14.2525 204.761 20.6865 204.069C21.2589 203.994 27.5967 204.038 30.6941 204.069C42.1322 203.181 43.5619 211.083 42.8471 215.145C39.5112 225.068 29.694 241.036 17.1121 225.529Z" stroke="#CBCBCB"/>
</g>
</g>
<defs>
<filter id="filter0_d_513_1843" x="0.498047" y="0.0917969" width="62.0938" height="247.408" filterUnits="userSpaceOnUse" color-interpolation-filters="sRGB">
<feFlood flood-opacity="0" result="BackgroundImageFix"/>
<feColorMatrix in="SourceAlpha" type="matrix" values="0 0 0 0 0 0 0 0 0 0 0 0 0 0 0 0 0 0 127 0" result="hardAlpha"/>
<feOffset dy="5"/>
<feGaussianBlur stdDeviation="5"/>
<feComposite in2="hardAlpha" operator="out"/>
<feColorMatrix type="matrix" values="0 0 0 0 0 0 0 0 0 0 0 0 0 0 0 0 0 0 0.35 0"/>
<feBlend mode="normal" in2="BackgroundImageFix" result="effect1_dropShadow_513_1843"/>
<feBlend mode="normal" in="SourceGraphic" in2="effect1_dropShadow_513_1843" result="shape"/>
</filter>
<clipPath id="paint0_diamond_513_1843_clip_path"><path d="M23.1535 78.2423C20.5116 86.926 20.1657 91.6139 20.3229 92.8724L49.5728 103.727V77.7704C50.0446 71.0059 49.4785 54.551 43.4398 42.8469C37.4011 31.1428 34.9479 17.5195 34.4761 12.1709C32.1172 5.0918 31.1737 5.0918 27.8713 5.0918C25.2293 5.0918 25.5124 26.1717 25.9842 36.7117C26.1414 46.937 25.7955 69.5587 23.1535 78.2423Z"/></clipPath><filter id="filter1_d_513_1843" x="6.49805" y="203.5" width="41.002" height="37" filterUnits="userSpaceOnUse" color-interpolation-filters="sRGB">
<feFlood flood-opacity="0" result="BackgroundImageFix"/>
<feColorMatrix in="SourceAlpha" type="matrix" values="0 0 0 0 0 0 0 0 0 0 0 0 0 0 0 0 0 0 127 0" result="hardAlpha"/>
<feOffset dy="4"/>
<feGaussianBlur stdDeviation="2"/>
<feComposite in2="hardAlpha" operator="out"/>
<feColorMatrix type="matrix" values="0 0 0 0 0 0 0 0 0 0 0 0 0 0 0 0 0 0 0.25 0"/>
<feBlend mode="normal" in2="BackgroundImageFix" result="effect1_dropShadow_513_1843"/>
<feBlend mode="normal" in="SourceGraphic" in2="effect1_dropShadow_513_1843" result="shape"/>
</filter>
<linearGradient id="paint0_diamond_513_1843" x1="0" y1="0" x2="500" y2="500" gradientUnits="userSpaceOnUse">
<stop stop-color="#F9E7C9"/>
<stop offset="1" stop-color="#E7BA8B"/>
</linearGradient>
<radialGradient id="paint1_radial_513_1843" cx="0" cy="0" r="1" gradientUnits="userSpaceOnUse" gradientTransform="translate(32.9518 110.686) rotate(90) scale(23.4782 19.6403)">
<stop offset="0.56179" stop-color="white"/>
<stop offset="1" stop-color="#CAC9C2"/>
</radialGradient>
<radialGradient id="paint2_radial_513_1843" cx="0" cy="0" r="1" gradientUnits="userSpaceOnUse" gradientTransform="translate(29.949 170.723) rotate(90) scale(27.9429 18.9246)">
<stop offset="0.56179" stop-color="white"/>
<stop offset="1" stop-color="#CAC9C2"/>
</radialGradient>
<radialGradient id="paint3_radial_513_1843" cx="0" cy="0" r="1" gradientUnits="userSpaceOnUse" gradientTransform="translate(27 218) rotate(90) scale(14 16)">
<stop offset="0.505" stop-color="white"/>
<stop offset="1" stop-color="#D9D9D9"/>
</radialGradient>
</defs>
</svg>
