<svg width="62" height="233" viewBox="0 0 62 233" fill="none" xmlns="http://www.w3.org/2000/svg">
<g filter="url(#filter0_d_513_1843)">
<path d="M22.1535 78.2423C19.5116 86.926 19.1657 91.6139 19.3229 92.8724L48.5728 103.727V77.7704C49.0446 71.0059 48.4785 54.551 42.4398 42.8469C36.4011 31.1428 33.9479 17.5195 33.4761 12.1709C31.1172 5.0918 30.1737 5.0918 26.8713 5.0918C24.2293 5.0918 24.5124 26.1717 24.9842 36.7117C25.1414 46.937 24.7955 69.5587 22.1535 78.2423Z" fill="url(#paint0_diamond_513_1843)"/>
<path d="M14.6038 101.366C17.4136 96.7662 17.9328 93.6367 17.9749 91.8017C17.9927 91.0245 18.7684 90.5368 19.514 90.7569C20.9143 91.1702 23.021 91.2714 25.4546 89.5672C30.1724 86.2636 36.7772 86.7356 38.6643 89.0953C40.5514 91.455 47.628 96.1744 48.5715 96.1744C49.5151 96.1744 52.3457 113.636 51.4022 120.715C50.4586 127.794 31.5877 136.761 29.2288 133.458C27.8662 131.549 22.9776 128.378 18.8263 125.933C16.1305 124.345 13.9264 121.95 13.2414 118.897C12.0589 113.627 11.5321 106.394 14.6038 101.366Z" fill="url(#paint1_radial_513_1843)"/>
<path d="M17.3847 213.694C4.93344 202.367 11.0962 179.714 15.4981 169.803C19.7429 162.252 22.5727 161.78 31.5338 161.78C40.4949 161.78 44.7396 177.826 47.5694 189.153C50.3992 200.479 32.9487 227.852 17.3847 213.694Z" fill="url(#paint2_radial_513_1843)"/>
<path d="M33.1877 186.568C31.5429 188.527 25.7424 190.102 22.6784 188.11M34.8606 176.466C34.891 176.191 34.6932 175.944 34.4188 175.913C34.1443 175.883 33.8971 176.081 33.8667 176.355C33.8008 176.948 33.6816 177.611 33.5507 178.34C33.1873 180.361 32.7336 182.885 33.0795 185.801C32.9359 186.183 32.4962 186.651 31.7322 187.109C30.9378 187.586 29.8857 187.996 28.7443 188.252C26.5141 188.752 24.1338 188.626 22.6879 187.503C22.6895 182.855 21.038 179.995 19.5803 178.849C19.3632 178.678 19.0488 178.716 18.8782 178.933C18.7075 179.15 18.7451 179.464 18.9622 179.635C20.1331 180.556 21.7435 183.156 21.6864 187.731C21.6489 190.737 20.8896 194.586 18.8131 199.335C18.7025 199.588 18.8179 199.883 19.0709 199.994C19.3239 200.104 19.6187 199.989 19.7293 199.736C21.6447 195.355 22.4809 191.682 22.6533 188.68C24.4356 189.7 26.8784 189.695 28.963 189.228C30.1901 188.953 31.3457 188.507 32.2468 187.967C32.6362 187.733 32.9981 187.469 33.2988 187.179C33.8776 190.074 35.2828 193.345 38.2178 197.016C38.3902 197.232 38.7049 197.267 38.9206 197.094C39.1362 196.922 39.1713 196.607 38.9989 196.392C35.7304 192.303 34.4601 188.783 34.0852 185.787C33.7351 182.989 34.1524 180.668 34.515 178.651C34.6534 177.882 34.7839 177.156 34.8606 176.466ZM17.7211 213.324C11.6596 207.81 10.0901 199.503 10.6204 191.25C11.1494 183.018 13.7635 174.947 15.9455 170.028C18.047 166.294 19.7472 164.409 21.9526 163.416C24.1955 162.406 27.03 162.28 31.5338 162.28C33.6085 162.28 35.4344 163.204 37.0705 164.82C38.7133 166.443 40.1424 168.743 41.3978 171.431C43.9092 176.807 45.6676 183.603 47.0843 189.274C47.7563 191.963 47.2331 195.685 45.7676 199.581C44.3075 203.462 41.9377 207.447 39.0063 210.642C36.071 213.841 32.6074 216.21 28.9675 216.934C25.3561 217.653 21.5053 216.766 17.7211 213.324Z" stroke="black" stroke-opacity="0.18" stroke-linecap="round" stroke-linejoin="round"/>
</g>
<defs>
<filter id="filter0_d_513_1843" x="0.0244141" y="0.0917969" width="61.5674" height="232.574" filterUnits="userSpaceOnUse" color-interpolation-filters="sRGB">
<feFlood flood-opacity="0" result="BackgroundImageFix"/>
<feColorMatrix in="SourceAlpha" type="matrix" values="0 0 0 0 0 0 0 0 0 0 0 0 0 0 0 0 0 0 127 0" result="hardAlpha"/>
<feOffset dy="5"/>
<feGaussianBlur stdDeviation="5"/>
<feComposite in2="hardAlpha" operator="out"/>
<feColorMatrix type="matrix" values="0 0 0 0 0 0 0 0 0 0 0 0 0 0 0 0 0 0 0.35 0"/>
<feBlend mode="normal" in2="BackgroundImageFix" result="effect1_dropShadow_513_1843"/>
<feBlend mode="normal" in="SourceGraphic" in2="effect1_dropShadow_513_1843" result="shape"/>
</filter>
<radialGradient id="paint0_diamond_513_1843" cx="0" cy="0" r="1" gradientUnits="userSpaceOnUse" gradientTransform="translate(33.9964 54.4094) rotate(90) scale(49.3176 14.7053)">
<stop stop-color="#F9E7C9"/>
<stop offset="1" stop-color="#E7BA8B"/>
</radialGradient>
<radialGradient id="paint1_radial_513_1843" cx="0" cy="0" r="1" gradientUnits="userSpaceOnUse" gradientTransform="translate(31.9518 110.686) rotate(90) scale(23.4782 19.6403)">
<stop offset="0.56179" stop-color="white"/>
<stop offset="1" stop-color="#CAC9C2"/>
</radialGradient>
<radialGradient id="paint2_radial_513_1843" cx="0" cy="0" r="1" gradientUnits="userSpaceOnUse" gradientTransform="translate(28.949 189.723) rotate(90) scale(27.9429 18.9246)">
<stop offset="0.56179" stop-color="white"/>
<stop offset="1" stop-color="#CAC9C2"/>
</radialGradient>
</defs>
</svg>
