<svg width="64" height="265" viewBox="0 0 64 265" fill="none" xmlns="http://www.w3.org/2000/svg">
<g filter="url(#filter0_d_513_1847)">
<g clip-path="url(#paint0_diamond_513_1847_clip_path)" data-figma-skip-parse="true"><g transform="matrix(0 0.056584 -0.0162789 0 35.6968 62.2598)"><rect x="0" y="0" width="1017.67" height="1061.43" fill="url(#paint0_diamond_513_1847)" opacity="1" shape-rendering="crispEdges"/><rect x="0" y="0" width="1017.67" height="1061.43" transform="scale(1 -1)" fill="url(#paint0_diamond_513_1847)" opacity="1" shape-rendering="crispEdges"/><rect x="0" y="0" width="1017.67" height="1061.43" transform="scale(-1 1)" fill="url(#paint0_diamond_513_1847)" opacity="1" shape-rendering="crispEdges"/><rect x="0" y="0" width="1017.67" height="1061.43" transform="scale(-1)" fill="url(#paint0_diamond_513_1847)" opacity="1" shape-rendering="crispEdges"/></g></g><path d="M19.418 91.6191C21.6196 75.5732 26.0228 42.4431 26.0228 38.2901C26.0228 33.0987 26.0228 4.31045 29.797 5.72627C33.5712 7.14209 34.5147 12.3334 34.9865 12.8054C35.3639 13.1829 38.2889 32.7841 39.7042 42.5375V15.1651C39.5876 12.8323 40.1626 10.3267 42.1983 11.8797C44.4391 13.5893 45.1783 16.5807 45.8114 19.3272C47.7441 27.7117 50.6977 38.7895 51.4985 41.5936C52.1276 46.313 52.6308 64.813 49.6114 101.058C46.5921 137.303 28.2244 109.867 19.418 91.6191Z" data-figma-gradient-fill="{&#34;type&#34;:&#34;GRADIENT_DIAMOND&#34;,&#34;stops&#34;:[{&#34;color&#34;:{&#34;r&#34;:0.97647058963775635,&#34;g&#34;:0.90588235855102539,&#34;b&#34;:0.78823530673980713,&#34;a&#34;:1.0},&#34;position&#34;:0.0},{&#34;color&#34;:{&#34;r&#34;:0.90588235855102539,&#34;g&#34;:0.7294117808341980,&#34;b&#34;:0.54509806632995605,&#34;a&#34;:1.0},&#34;position&#34;:1.0}],&#34;stopsVar&#34;:[{&#34;color&#34;:{&#34;r&#34;:0.97647058963775635,&#34;g&#34;:0.90588235855102539,&#34;b&#34;:0.78823530673980713,&#34;a&#34;:1.0},&#34;position&#34;:0.0},{&#34;color&#34;:{&#34;r&#34;:0.90588235855102539,&#34;g&#34;:0.7294117808341980,&#34;b&#34;:0.54509806632995605,&#34;a&#34;:1.0},&#34;position&#34;:1.0}],&#34;transform&#34;:{&#34;m00&#34;:1.9935869090530883e-15,&#34;m01&#34;:-32.557743072509766,&#34;m02&#34;:51.975711822509766,&#34;m10&#34;:113.16796112060547,&#34;m11&#34;:6.9295392720377519e-15,&#34;m12&#34;:5.675781250},&#34;opacity&#34;:1.0,&#34;blendMode&#34;:&#34;NORMAL&#34;,&#34;visible&#34;:true}"/>
<path d="M27.9098 87.8455C26.1517 89.6042 23.739 90.4852 21.8117 90.8778C20.9388 91.0556 19.2943 92.6499 19.1002 93.5193C18.5074 96.175 17.3227 100.425 16.5872 102.948C14.0711 110.184 10.5485 125.223 16.5872 127.488C24.1356 130.32 25.5509 132.208 27.438 134.096C28.9477 135.606 33.4138 135.983 35.4581 135.983C40.8049 134.41 50.9323 129.942 52.442 124.657C53.9516 119.371 53.3855 111.128 52.442 107.667C51.5785 105.076 50.715 100.113 50.5747 96.3954C50.5539 95.8435 50.1069 95.3903 49.5639 95.2894C46.189 94.6617 39.5628 91.4326 38.2888 89.7333C37.3452 87.3736 31.2122 84.542 27.9098 87.8455Z" fill="url(#paint1_radial_513_1847)"/>
<path d="M19.4047 156.548C20.4911 155.302 21.8985 154.463 23.3622 153.84C26.2411 152.614 29.4369 152.243 32.5598 152.437C32.6327 152.442 32.7037 152.446 32.7731 152.452C34.4158 152.576 36.1259 152.776 37.53 153.638C43.2662 157.159 47.8882 171.456 49.8334 178.805C50.1478 180.221 50.6706 183.997 49.5386 187.773C48.1237 192.492 39.6343 201.931 33.503 204.763C28.598 207.028 24.2275 206.336 22.6553 205.707C13.2226 198.156 14.6375 198.156 11.8077 191.548C9.96085 187.236 10.918 179.49 12.0162 174.306C12.4482 172.266 13.2851 170.344 14.1782 168.46C14.6572 167.449 15.1482 166.358 15.61 165.301C16.8879 162.377 17.3063 158.953 19.4047 156.548Z" fill="url(#paint2_radial_513_1847)"/>
<path d="M19.7814 156.876C20.8005 155.708 22.1337 154.906 23.558 154.3C26.3488 153.112 29.4633 152.745 32.5287 152.936C32.5996 152.94 32.6683 152.945 32.7353 152.95C34.3828 153.075 35.9791 153.273 37.2685 154.064C38.61 154.888 39.9257 156.37 41.1799 158.295C42.429 160.213 43.5925 162.532 44.6438 164.983C46.7444 169.881 48.3779 175.262 49.3474 178.923C49.6525 180.304 50.1549 183.976 49.0597 187.629C48.7278 188.736 47.9654 190.161 46.8858 191.738C45.8113 193.307 44.4419 194.999 42.9229 196.636C39.8747 199.92 36.2721 202.933 33.2933 204.309C28.5908 206.481 24.419 205.843 22.9083 205.269C18.227 201.519 16.2963 199.684 15.1715 197.996C14.6111 197.155 14.2431 196.338 13.8352 195.303C13.7187 195.007 13.5985 194.693 13.4695 194.355C13.149 193.516 12.7743 192.535 12.2673 191.352C11.3898 189.303 11.1622 186.382 11.307 183.278C11.4511 180.189 11.96 176.984 12.5053 174.41C12.9244 172.431 13.7392 170.553 14.63 168.674C15.1118 167.657 15.605 166.562 16.0682 165.502C16.5088 164.493 16.8559 163.407 17.193 162.353C17.352 161.856 17.5088 161.365 17.6722 160.893C18.193 159.388 18.797 158.005 19.7814 156.876Z" stroke="black" stroke-opacity="0.18" stroke-linecap="round" stroke-linejoin="round"/>
<g filter="url(#filter1_d_513_1847)">
<path d="M13.6583 231.516C11.5405 227.354 11.8935 220.863 12.3347 218.138C13.6582 215.908 24.9089 209.219 30.865 211.449C36.8212 213.678 39.4683 212.192 41.4537 218.138C43.042 222.895 40.7919 233.003 39.4683 237.462C38.1447 240.187 34.3063 246.232 29.5414 248.611C23.5853 251.584 16.3054 236.719 13.6583 231.516Z" fill="url(#paint3_radial_513_1847)"/>
<path d="M13.6583 231.516C11.5405 227.354 11.8935 220.863 12.3347 218.138C13.6582 215.908 24.9089 209.219 30.865 211.449C36.8212 213.678 39.4683 212.192 41.4537 218.138C43.042 222.895 40.7919 233.003 39.4683 237.462C38.1447 240.187 34.3063 246.232 29.5414 248.611C23.5853 251.584 16.3054 236.719 13.6583 231.516Z" stroke="#CBCBCB"/>
</g>
</g>
<defs>
<filter id="filter0_d_513_1847" x="0.766602" y="0.675781" width="62.6074" height="263.825" filterUnits="userSpaceOnUse" color-interpolation-filters="sRGB">
<feFlood flood-opacity="0" result="BackgroundImageFix"/>
<feColorMatrix in="SourceAlpha" type="matrix" values="0 0 0 0 0 0 0 0 0 0 0 0 0 0 0 0 0 0 127 0" result="hardAlpha"/>
<feOffset dy="5"/>
<feGaussianBlur stdDeviation="5"/>
<feComposite in2="hardAlpha" operator="out"/>
<feColorMatrix type="matrix" values="0 0 0 0 0 0 0 0 0 0 0 0 0 0 0 0 0 0 0.35 0"/>
<feBlend mode="normal" in2="BackgroundImageFix" result="effect1_dropShadow_513_1847"/>
<feBlend mode="normal" in="SourceGraphic" in2="effect1_dropShadow_513_1847" result="shape"/>
</filter>
<clipPath id="paint0_diamond_513_1847_clip_path"><path d="M19.418 91.6191C21.6196 75.5732 26.0228 42.4431 26.0228 38.2901C26.0228 33.0987 26.0228 4.31045 29.797 5.72627C33.5712 7.14209 34.5147 12.3334 34.9865 12.8054C35.3639 13.1829 38.2889 32.7841 39.7042 42.5375V15.1651C39.5876 12.8323 40.1626 10.3267 42.1983 11.8797C44.4391 13.5893 45.1783 16.5807 45.8114 19.3272C47.7441 27.7117 50.6977 38.7895 51.4985 41.5936C52.1276 46.313 52.6308 64.813 49.6114 101.058C46.5921 137.303 28.2244 109.867 19.418 91.6191Z"/></clipPath><filter id="filter1_d_513_1847" x="7.5" y="210.5" width="39" height="47.0006" filterUnits="userSpaceOnUse" color-interpolation-filters="sRGB">
<feFlood flood-opacity="0" result="BackgroundImageFix"/>
<feColorMatrix in="SourceAlpha" type="matrix" values="0 0 0 0 0 0 0 0 0 0 0 0 0 0 0 0 0 0 127 0" result="hardAlpha"/>
<feOffset dy="4"/>
<feGaussianBlur stdDeviation="2"/>
<feComposite in2="hardAlpha" operator="out"/>
<feColorMatrix type="matrix" values="0 0 0 0 0 0 0 0 0 0 0 0 0 0 0 0 0 0 0.25 0"/>
<feBlend mode="normal" in2="BackgroundImageFix" result="effect1_dropShadow_513_1847"/>
<feBlend mode="normal" in="SourceGraphic" in2="effect1_dropShadow_513_1847" result="shape"/>
</filter>
<linearGradient id="paint0_diamond_513_1847" x1="0" y1="0" x2="500" y2="500" gradientUnits="userSpaceOnUse">
<stop stop-color="#F9E7C9"/>
<stop offset="1" stop-color="#E7BA8B"/>
</linearGradient>
<radialGradient id="paint1_radial_513_1847" cx="0" cy="0" r="1" gradientUnits="userSpaceOnUse" gradientTransform="translate(33.3134 111.163) rotate(90) scale(24.8208 20.0605)">
<stop offset="0.56179" stop-color="white"/>
<stop offset="1" stop-color="#CAC9C2"/>
</radialGradient>
<radialGradient id="paint2_radial_513_1847" cx="0" cy="0" r="1" gradientUnits="userSpaceOnUse" gradientTransform="translate(30.4991 179.35) rotate(90) scale(26.9724 19.7325)">
<stop offset="0.56179" stop-color="white"/>
<stop offset="1" stop-color="#CAC9C2"/>
</radialGradient>
<radialGradient id="paint3_radial_513_1847" cx="0" cy="0" r="1" gradientUnits="userSpaceOnUse" gradientTransform="translate(27 230) rotate(90) scale(19 15)">
<stop offset="0.505" stop-color="white"/>
<stop offset="1" stop-color="#D9D9D9"/>
</radialGradient>
</defs>
</svg>
