<svg width="63" height="245" viewBox="0 0 63 245" fill="none" xmlns="http://www.w3.org/2000/svg">
<g filter="url(#filter0_d_513_1851)">
<path d="M17.2572 95.6274L21.975 87.1325L35.6565 81.4692C36.1282 81.6266 38.6758 85.056 45.0919 97.5152C51.508 109.974 52.7976 126.303 52.6403 132.911C52.6403 133.225 50.9419 135.082 44.1484 139.99C37.3548 144.898 32.5113 142.979 30.9387 141.405C29.0516 139.203 24.0508 134.421 19.1443 132.911C13.0113 131.023 12.0677 122.056 13.483 119.696C14.6153 117.809 16.4709 102.864 17.2572 95.6274Z" fill="url(#paint0_radial_513_1851)"/>
<path d="M19.6177 52.2047C18.4854 63.9088 17.7306 86.027 17.2588 95.6231C19.1459 95.3085 23.2031 93.7354 26.2225 89.9599C29.2418 86.1844 33.4563 88.3867 35.1862 89.9599C38.0168 91.8476 45.5652 102.702 45.5652 96.567C45.5652 90.4318 41.3192 58.3399 39.9039 41.8221C38.7716 28.6078 29.9967 12.4045 25.7507 5.95468C24.0209 4.69618 20.8443 3.68937 21.9765 9.73019C23.3918 17.2812 21.033 37.5746 19.6177 52.2047Z" fill="url(#paint1_diamond_513_1851)"/>
<path d="M12.4631 194.413C6.80345 202.342 17.0222 218.482 22.8391 225.561C24.3903 227.449 28.9704 232.64 38.8747 225.561C49.0621 216.122 49.408 204.009 48.3075 199.132C40.384 182.143 30.2281 181.041 26.1406 182.615C23.9396 183.244 18.1227 186.484 12.4631 194.413Z" fill="url(#paint2_radial_513_1851)"/>
<path d="M26.3201 183.081C26.3063 183.086 26.2922 183.091 26.278 183.095C24.2129 183.686 18.4824 186.841 12.87 194.704C11.5477 196.556 11.1303 198.918 11.3766 201.583C11.6229 204.25 12.5304 207.177 13.8058 210.106C16.3565 215.963 20.3368 221.728 23.2254 225.244C23.99 226.174 25.4354 227.832 27.8466 228.439C30.2326 229.04 33.6961 228.64 38.5582 225.173C48.5273 215.918 48.8869 204.069 47.8314 199.295C39.9754 182.489 30.0667 181.639 26.3201 183.081Z" stroke="black" stroke-opacity="0.18" stroke-linecap="round" stroke-linejoin="round"/>
</g>
<defs>
<filter id="filter0_d_513_1851" x="0.80957" y="0" width="61.8428" height="244.17" filterUnits="userSpaceOnUse" color-interpolation-filters="sRGB">
<feFlood flood-opacity="0" result="BackgroundImageFix"/>
<feColorMatrix in="SourceAlpha" type="matrix" values="0 0 0 0 0 0 0 0 0 0 0 0 0 0 0 0 0 0 127 0" result="hardAlpha"/>
<feOffset dy="5"/>
<feGaussianBlur stdDeviation="5"/>
<feComposite in2="hardAlpha" operator="out"/>
<feColorMatrix type="matrix" values="0 0 0 0 0 0 0 0 0 0 0 0 0 0 0 0 0 0 0.35 0"/>
<feBlend mode="normal" in2="BackgroundImageFix" result="effect1_dropShadow_513_1851"/>
<feBlend mode="normal" in="SourceGraphic" in2="effect1_dropShadow_513_1851" result="shape"/>
</filter>
<radialGradient id="paint0_radial_513_1851" cx="0" cy="0" r="1" gradientUnits="userSpaceOnUse" gradientTransform="translate(32.7799 112.3) rotate(90) scale(30.8312 19.8727)">
<stop offset="0.56179" stop-color="white"/>
<stop offset="1" stop-color="#CAC9C2"/>
</radialGradient>
<radialGradient id="paint1_diamond_513_1851" cx="0" cy="0" r="1" gradientUnits="userSpaceOnUse" gradientTransform="translate(31.412 51.7131) rotate(90) scale(46.7131 14.1532)">
<stop stop-color="#F9E7C9"/>
<stop offset="1" stop-color="#E7BA8B"/>
</radialGradient>
<radialGradient id="paint2_radial_513_1851" cx="0" cy="0" r="1" gradientUnits="userSpaceOnUse" gradientTransform="translate(29.7724 205.634) rotate(-90) scale(23.5365 18.9628)">
<stop offset="0.56179" stop-color="white"/>
<stop offset="1" stop-color="#CAC9C2"/>
</radialGradient>
</defs>
</svg>
