<svg width="63" height="242" viewBox="0 0 63 242" fill="none" xmlns="http://www.w3.org/2000/svg">
<g filter="url(#filter0_d_513_1851)">
<path d="M17.2572 95.6274L21.975 87.1325L35.6565 81.4692C36.1282 81.6266 38.6758 85.056 45.0919 97.5152C51.508 109.974 52.7976 126.303 52.6403 132.911C52.6403 133.225 50.9419 135.082 44.1484 139.99C37.3548 144.898 32.5113 142.979 30.9387 141.405C29.0516 139.203 24.0508 134.421 19.1443 132.911C13.0113 131.023 12.0677 122.056 13.483 119.696C14.6153 117.809 16.4709 102.864 17.2572 95.6274Z" fill="url(#paint0_radial_513_1851)"/>
<path d="M19.6177 52.2047C18.4854 63.9088 17.7306 86.027 17.2588 95.6231C19.1459 95.3085 23.2031 93.7354 26.2225 89.9599C29.2418 86.1844 33.4563 88.3867 35.1862 89.9599C38.0168 91.8476 45.5652 102.702 45.5652 96.567C45.5652 90.4318 41.3192 58.3399 39.9039 41.8221C38.7716 28.6078 29.9967 12.4045 25.7507 5.95468C24.0209 4.69618 20.8443 3.68937 21.9765 9.73019C23.3918 17.2812 21.033 37.5746 19.6177 52.2047Z" fill="url(#paint1_diamond_513_1851)"/>
<path d="M12.4631 214.552C6.80345 206.624 17.0222 190.483 22.8391 183.404C24.3903 181.517 28.9704 176.325 38.8747 183.404C49.0621 192.843 49.408 204.956 48.3075 209.833C40.384 226.823 30.2281 227.924 26.1406 226.351C23.9396 225.722 18.1227 222.481 12.4631 214.552Z" fill="url(#paint2_radial_513_1851)"/>
<path d="M16.7078 210.777C17.9655 212.822 21.8958 215.968 28.0271 215.968M33.2151 215.968C39.3464 215.024 42.9308 213.231 44.0628 207.945M17.1337 210.515C16.9891 210.28 16.6811 210.206 16.4459 210.351C16.2107 210.496 16.1373 210.804 16.2819 211.039C17.6343 213.238 21.7294 216.468 28.0271 216.468C28.3032 216.468 28.5271 216.244 28.5271 215.968C28.5271 215.692 28.3032 215.468 28.0271 215.468C22.0623 215.468 18.2967 212.406 17.1337 210.515ZM33.139 215.474C32.8661 215.516 32.6789 215.771 32.7209 216.044C32.7629 216.317 33.0183 216.504 33.2912 216.462C36.3762 215.987 38.8961 215.29 40.7949 213.998C42.7192 212.689 43.9625 210.801 44.5517 208.05C44.6095 207.78 44.4375 207.514 44.1675 207.456C43.8974 207.398 43.6317 207.57 43.5738 207.84C43.0311 210.375 41.9162 212.026 40.2325 213.171C38.5232 214.334 36.1853 215.005 33.139 215.474ZM26.3201 225.884C26.3063 225.879 26.2922 225.874 26.278 225.87C24.2129 225.28 18.4824 222.124 12.87 214.262C11.5477 212.409 11.1303 210.047 11.3766 207.382C11.6229 204.716 12.5304 201.788 13.8058 198.859C16.3565 193.003 20.3368 187.237 23.2254 183.722C23.99 182.791 25.4354 181.134 27.8466 180.527C30.2326 179.926 33.6961 180.325 38.5582 183.793C48.5273 193.047 48.8869 204.896 47.8314 209.671C39.9754 226.476 30.0667 227.326 26.3201 225.884Z" stroke="black" stroke-opacity="0.18" stroke-linecap="round" stroke-linejoin="round"/>
</g>
<defs>
<filter id="filter0_d_513_1851" x="0.80957" y="0" width="61.8428" height="241.868" filterUnits="userSpaceOnUse" color-interpolation-filters="sRGB">
<feFlood flood-opacity="0" result="BackgroundImageFix"/>
<feColorMatrix in="SourceAlpha" type="matrix" values="0 0 0 0 0 0 0 0 0 0 0 0 0 0 0 0 0 0 127 0" result="hardAlpha"/>
<feOffset dy="5"/>
<feGaussianBlur stdDeviation="5"/>
<feComposite in2="hardAlpha" operator="out"/>
<feColorMatrix type="matrix" values="0 0 0 0 0 0 0 0 0 0 0 0 0 0 0 0 0 0 0.35 0"/>
<feBlend mode="normal" in2="BackgroundImageFix" result="effect1_dropShadow_513_1851"/>
<feBlend mode="normal" in="SourceGraphic" in2="effect1_dropShadow_513_1851" result="shape"/>
</filter>
<radialGradient id="paint0_radial_513_1851" cx="0" cy="0" r="1" gradientUnits="userSpaceOnUse" gradientTransform="translate(32.7799 112.3) rotate(90) scale(30.8312 19.8727)">
<stop offset="0.56179" stop-color="white"/>
<stop offset="1" stop-color="#CAC9C2"/>
</radialGradient>
<radialGradient id="paint1_diamond_513_1851" cx="0" cy="0" r="1" gradientUnits="userSpaceOnUse" gradientTransform="translate(31.412 51.7131) rotate(90) scale(46.7131 14.1532)">
<stop stop-color="#F9E7C9"/>
<stop offset="1" stop-color="#E7BA8B"/>
</radialGradient>
<radialGradient id="paint2_radial_513_1851" cx="0" cy="0" r="1" gradientUnits="userSpaceOnUse" gradientTransform="translate(29.7724 203.332) rotate(90) scale(23.5365 18.9628)">
<stop offset="0.56179" stop-color="white"/>
<stop offset="1" stop-color="#CAC9C2"/>
</radialGradient>
</defs>
</svg>
