<svg width="62" height="197" viewBox="0 0 62 197" fill="none" xmlns="http://www.w3.org/2000/svg">
<g filter="url(#filter0_d_513_1855)">
<path d="M51.1644 116.626C51.1644 112.096 49.2773 97.7489 48.3338 91.1417L44.0876 77.9274L40.3134 73.2081L27.1038 64.2412L18.6119 79.3433C17.9829 83.9053 16.4419 95.3892 15.3097 104.828C14.1774 114.267 18.6121 117.256 20.9709 117.57C31.0354 119.143 51.1644 121.157 51.1644 116.626Z" fill="url(#paint0_radial_513_1855)"/>
<g clip-path="url(#paint1_diamond_513_1855_clip_path)" data-figma-skip-parse="true"><g transform="matrix(0 0.0372565 -0.0129738 0 31.5831 43.0338)"><rect x="0" y="0" width="1026.84" height="1077.08" fill="url(#paint1_diamond_513_1855)" opacity="1" shape-rendering="crispEdges"/><rect x="0" y="0" width="1026.84" height="1077.08" transform="scale(1 -1)" fill="url(#paint1_diamond_513_1855)" opacity="1" shape-rendering="crispEdges"/><rect x="0" y="0" width="1026.84" height="1077.08" transform="scale(-1 1)" fill="url(#paint1_diamond_513_1855)" opacity="1" shape-rendering="crispEdges"/><rect x="0" y="0" width="1026.84" height="1077.08" transform="scale(-1)" fill="url(#paint1_diamond_513_1855)" opacity="1" shape-rendering="crispEdges"/></g></g><path d="M21.44 11.3871C23.7045 20.8259 20.4965 61.57 18.6094 80.2903C22.8553 75.0989 30.0263 69.4357 34.1779 73.2112C38.3295 76.9867 42.8271 78.8744 44.5569 79.3463C43.6133 61.8846 37.9521 54.8055 37.9521 43.479C38.5811 35.2987 37.8577 17.0504 29.9319 9.49934C22.0061 1.94831 20.9682 7.61158 21.44 11.3871Z" data-figma-gradient-fill="{&#34;type&#34;:&#34;GRADIENT_DIAMOND&#34;,&#34;stops&#34;:[{&#34;color&#34;:{&#34;r&#34;:0.97647058963775635,&#34;g&#34;:0.90588235855102539,&#34;b&#34;:0.78823530673980713,&#34;a&#34;:1.0},&#34;position&#34;:0.0},{&#34;color&#34;:{&#34;r&#34;:0.90588235855102539,&#34;g&#34;:0.7294117808341980,&#34;b&#34;:0.54509806632995605,&#34;a&#34;:1.0},&#34;position&#34;:1.0}],&#34;stopsVar&#34;:[{&#34;color&#34;:{&#34;r&#34;:0.97647058963775635,&#34;g&#34;:0.90588235855102539,&#34;b&#34;:0.78823530673980713,&#34;a&#34;:1.0},&#34;position&#34;:0.0},{&#34;color&#34;:{&#34;r&#34;:0.90588235855102539,&#34;g&#34;:0.7294117808341980,&#34;b&#34;:0.54509806632995605,&#34;a&#34;:1.0},&#34;position&#34;:1.0}],&#34;transform&#34;:{&#34;m00&#34;:1.5888272388890558e-15,&#34;m01&#34;:-25.947517395019531,&#34;m02&#34;:44.556892395019531,&#34;m10&#34;:74.512908935546875,&#34;m11&#34;:4.5626001451092284e-15,&#34;m12&#34;:5.777343750},&#34;opacity&#34;:1.0,&#34;blendMode&#34;:&#34;NORMAL&#34;,&#34;visible&#34;:true}"/>
<path d="M10.4987 150.167C10.8761 162.626 21.9752 175.494 27.4777 180.371C32.3827 183.014 35.8099 181.472 36.9104 180.371C44.2568 174.022 46.7269 161.045 47.1978 153.346C47.3063 151.572 46.8501 149.802 45.7407 148.414C42.0933 143.851 34.6149 138.154 24.6478 140.728C12.9513 143.748 10.3415 148.279 10.4987 150.167Z" fill="#585858"/>
<path d="M10.997 150.125C10.9978 150.134 10.9983 150.143 10.9985 150.152C11.1832 156.249 13.9973 162.489 17.4852 167.839C20.9499 173.154 25.0448 177.538 27.7657 179.958C32.4679 182.468 35.631 180.944 36.5567 180.017C36.5653 180.009 36.5743 180 36.5835 179.993C40.1568 176.904 42.5741 172.173 44.156 167.213C45.7354 162.26 46.4652 157.134 46.6987 153.315C46.8009 151.644 46.3699 150.002 45.3501 148.726C41.7631 144.238 34.4681 138.708 24.7729 141.212C18.9691 142.711 15.4681 144.573 13.4483 146.256C11.4112 147.954 10.9379 149.415 10.997 150.125Z" stroke="black" stroke-opacity="0.18" stroke-linecap="round" stroke-linejoin="round"/>
<path d="M10.4992 150.167C10.8765 162.626 21.9757 175.494 27.4782 180.371C32.3832 183.014 35.8104 181.472 36.9109 180.371C44.2573 174.022 46.7274 161.045 47.1983 153.346C47.3068 151.572 46.89 149.764 45.7045 148.441C42.9442 145.359 38.0836 143.216 27.3083 143.417C24.9143 143.461 22.5243 143.81 20.2204 144.463C12.9764 146.514 10.3621 148.52 10.4992 150.167Z" fill="url(#paint2_radial_513_1855)"/>
<path d="M10.9975 150.125C10.9982 150.134 10.9987 150.143 10.999 150.152C11.1837 156.249 13.9978 162.489 17.4856 167.839C20.9504 173.154 25.0453 177.538 27.7662 179.958C32.4684 182.468 35.6315 180.944 36.5572 180.017C36.5658 180.009 36.5748 180 36.584 179.993C40.1573 176.904 42.5746 172.173 44.1565 167.213C45.7359 162.26 46.4657 157.134 46.6992 153.315C46.8023 151.631 46.4026 149.97 45.332 148.775C42.7167 145.855 38.0394 143.717 27.3177 143.917C24.9657 143.96 22.6184 144.303 20.3567 144.944C16.7518 145.965 14.3399 146.964 12.8569 147.89C11.3383 148.84 10.9543 149.607 10.9975 150.125Z" stroke="black" stroke-opacity="0.18" stroke-linecap="round" stroke-linejoin="round"/>
<path d="M18.5156 150.636C21.031 148.748 28.703 146.106 39.2676 150.636" stroke="black" stroke-opacity="0.18" stroke-linecap="round" stroke-linejoin="round"/>
<path d="M10.997 150.125C10.9978 150.134 10.9983 150.143 10.9985 150.152C11.1832 156.249 13.9973 162.489 17.4852 167.839C20.9499 173.154 25.0448 177.538 27.7657 179.958C32.4679 182.468 35.631 180.944 36.5567 180.017C36.5653 180.009 36.5743 180 36.5835 179.993C40.1568 176.904 42.5741 172.173 44.156 167.213C45.7354 162.26 46.4652 157.134 46.6987 153.315C46.8009 151.644 46.3699 150.002 45.3501 148.726C41.7631 144.238 34.4681 138.708 24.7729 141.212C18.9691 142.711 15.4681 144.573 13.4483 146.256C11.4112 147.954 10.9379 149.415 10.997 150.125Z" stroke="black" stroke-opacity="0.18" stroke-linecap="round" stroke-linejoin="round"/>
</g>
<defs>
<filter id="filter0_d_513_1855" x="0.492188" y="0.777344" width="60.6719" height="196.053" filterUnits="userSpaceOnUse" color-interpolation-filters="sRGB">
<feFlood flood-opacity="0" result="BackgroundImageFix"/>
<feColorMatrix in="SourceAlpha" type="matrix" values="0 0 0 0 0 0 0 0 0 0 0 0 0 0 0 0 0 0 127 0" result="hardAlpha"/>
<feOffset dy="5"/>
<feGaussianBlur stdDeviation="5"/>
<feComposite in2="hardAlpha" operator="out"/>
<feColorMatrix type="matrix" values="0 0 0 0 0 0 0 0 0 0 0 0 0 0 0 0 0 0 0.35 0"/>
<feBlend mode="normal" in2="BackgroundImageFix" result="effect1_dropShadow_513_1855"/>
<feBlend mode="normal" in="SourceGraphic" in2="effect1_dropShadow_513_1855" result="shape"/>
</filter>
<clipPath id="paint1_diamond_513_1855_clip_path"><path d="M21.44 11.3871C23.7045 20.8259 20.4965 61.57 18.6094 80.2903C22.8553 75.0989 30.0263 69.4357 34.1779 73.2112C38.3295 76.9867 42.8271 78.8744 44.5569 79.3463C43.6133 61.8846 37.9521 54.8055 37.9521 43.479C38.5811 35.2987 37.8577 17.0504 29.9319 9.49934C22.0061 1.94831 20.9682 7.61158 21.44 11.3871Z"/></clipPath><radialGradient id="paint0_radial_513_1855" cx="0" cy="0" r="1" gradientUnits="userSpaceOnUse" gradientTransform="translate(33.1462 91.8228) rotate(90) scale(27.5815 18.0182)">
<stop offset="0.56179" stop-color="white"/>
<stop offset="1" stop-color="#CAC9C2"/>
</radialGradient>
<linearGradient id="paint1_diamond_513_1855" x1="0" y1="0" x2="500" y2="500" gradientUnits="userSpaceOnUse">
<stop stop-color="#F9E7C9"/>
<stop offset="1" stop-color="#E7BA8B"/>
</linearGradient>
<radialGradient id="paint2_radial_513_1855" cx="0" cy="0" r="1" gradientUnits="userSpaceOnUse" gradientTransform="translate(28.8905 162.617) rotate(-90) scale(19.2133 18.3964)">
<stop offset="0.56179" stop-color="white"/>
<stop offset="1" stop-color="#CAC9C2"/>
</radialGradient>
</defs>
</svg>
