<svg width="68" height="240" viewBox="0 0 68 240" fill="none" xmlns="http://www.w3.org/2000/svg">
<g filter="url(#filter0_d_513_1871)">
<path d="M38.7038 137.818C41.4209 137.591 43.5584 137.202 45.2468 136.708C51.2784 134.944 52.1117 127.564 52.0339 121.281C51.8904 109.689 50.6658 101.436 49.5664 96.7671C49.0412 94.537 47.9143 92.5249 46.5399 90.6919L46.1295 90.1446C44.9602 88.5851 43.5643 87.2093 41.9881 86.0626L39.3301 84.1291C35.97 81.6848 31.6472 80.9854 27.6878 82.2456C25.0358 83.0896 22.7173 84.7536 21.113 87.0278C18.5922 90.6012 15.6635 94.9098 15.1127 96.2871C14.169 98.6468 8.50714 113.749 10.8663 132.154C11.9662 140.736 21.0429 137.56 29.6943 137.617C32.6908 137.637 35.7854 137.696 38.7038 137.818Z" fill="url(#paint0_radial_513_1871)"/>
<path d="M37.7593 12.2822L38.7029 15.1138L38.9202 15.7659C39.0888 16.2718 39.1747 16.8015 39.1747 17.3347C39.1747 17.7404 39.2245 18.1445 39.3228 18.538L39.6466 19.8332L39.9771 21.8171C40.0711 22.3813 40.1184 22.9523 40.1184 23.5243C40.1184 24.2082 40.1859 24.8904 40.32 25.561L40.5902 26.9123L40.8331 27.8844C40.9852 28.4925 41.062 29.1171 41.062 29.744C41.062 30.3708 41.1389 30.9954 41.2909 31.6035L41.5338 32.5756L41.7625 33.2618C41.9236 33.745 42.0057 34.2511 42.0057 34.7604V35.3515C42.0057 35.6985 42.0864 36.0407 42.2416 36.3511C42.3967 36.6615 42.4775 37.0037 42.4775 37.3507V38.7108C42.4775 39.6524 42.5705 40.5916 42.7551 41.5149L42.9493 42.4863L43.0481 42.7828C43.2952 43.5242 43.4211 44.3005 43.4211 45.082V45.5156C43.4211 46.0099 43.5008 46.5009 43.657 46.9697C43.8133 47.4386 43.893 47.9296 43.893 48.4238V49.0934V50.5093V51.3975C43.893 51.7444 43.9737 52.0867 44.1289 52.397C44.284 52.7074 44.3648 53.0496 44.3648 53.3966V54.2848V56.1725V56.6154C44.3648 57.2616 44.444 57.9053 44.6007 58.5322L44.7379 59.0811C44.8034 59.3434 44.8366 59.6128 44.8366 59.8833C44.8366 60.2388 44.8939 60.5919 45.0063 60.9292L45.0725 61.1279C45.2288 61.5968 45.3084 62.0878 45.3084 62.582V63.7236V64.8651C45.3084 65.3594 45.3881 65.8503 45.5443 66.3192C45.7006 66.7881 45.7802 67.2791 45.7802 67.7733V67.971V68.1687C45.7802 68.6629 45.8599 69.1539 46.0162 69.6228C46.1724 70.0917 46.2521 70.5827 46.2521 71.0769V71.7465V74.1062V75.522V76.6636C46.2521 77.1578 46.3317 77.6488 46.488 78.1177C46.6442 78.5866 46.7239 79.0776 46.7239 79.5718V79.8102C46.7239 80.0973 46.7443 80.3841 46.7849 80.6683L47.1203 83.0173C47.1705 83.3684 47.2521 83.7142 47.3642 84.0507L47.3691 84.0653C47.5668 84.6584 47.6675 85.2795 47.6675 85.9047V86.7929C47.6675 87.1399 47.7483 87.4821 47.9035 87.7924C48.0586 88.1028 48.1394 88.445 48.1394 88.792V90.4707C48.1394 90.8819 48.2351 91.2875 48.419 91.6554L48.4271 91.6717C48.549 91.9156 48.6308 92.1775 48.6694 92.4474L48.9496 94.4093C49.02 94.9024 48.6374 95.3435 48.1394 95.3435H47.1957C46.5752 95.3435 45.9631 95.199 45.4081 94.9214L45.3084 94.8715L44.6632 94.5488C44.4655 94.45 44.2851 94.3199 44.1289 94.1636C43.9726 94.0073 43.7922 93.8773 43.5945 93.7784L43.4211 93.6917C43.1086 93.5354 42.8234 93.3297 42.5763 93.0826L41.5338 92.0399L40.5902 91.096L39.1747 89.6802L38.2311 88.7363L37.8149 88.32C37.468 87.9731 37.0451 87.7117 36.5797 87.5565L36.5614 87.5504C36.108 87.3992 35.696 87.1445 35.3581 86.8065C34.7808 86.2291 33.9978 85.9047 33.1812 85.9047H33.0016C32.7144 85.9047 32.4283 85.8695 32.1497 85.7998L31.9465 85.749C31.1162 85.5414 30.2476 85.5414 29.4173 85.749L29.1084 85.8262C28.9 85.8783 28.686 85.9047 28.4712 85.9047C28.0633 85.9047 27.6611 85.9997 27.2963 86.1821L27.1681 86.2462C26.9946 86.333 26.8293 86.4352 26.6741 86.5516L25.3215 87.5663C25.1209 87.7168 24.9072 87.8489 24.683 87.961C24.2812 88.1619 23.9145 88.4263 23.5969 88.744L23.1328 89.2083C22.5052 89.836 21.9412 90.5241 21.4489 91.2627L21.2455 91.568L20.7736 92.5118L19.83 93.9277C19.2087 94.8599 18.3881 95.6425 17.4274 96.219L16.5272 96.7593L15.3512 97.6415C15.0582 97.8614 14.6399 97.6523 14.6399 97.2859C14.6399 97.2496 14.6444 97.2134 14.6532 97.1781L14.8759 96.2873C15.0325 95.6605 15.1118 95.0167 15.1118 94.3706V92.5118V91.1251C15.1118 90.4789 15.191 89.8352 15.3477 89.2083C15.5044 88.5814 15.5836 87.9376 15.5836 87.2915V86.3766V85.4618C15.5836 84.8156 15.6628 84.1719 15.8195 83.545C15.9762 82.9181 16.0554 82.2744 16.0554 81.6282V81.1853V79.7695V78.8256V77.9108C16.0554 77.2646 16.1346 76.6209 16.2913 75.994C16.448 75.3671 16.5272 74.7234 16.5272 74.0772V73.6343V71.7465C16.5272 70.8062 16.6425 69.8694 16.8705 68.9571L16.9991 68.4429L17.2163 67.7909C17.3849 67.285 17.4709 66.7553 17.4709 66.222C17.4709 65.8164 17.5206 65.4123 17.619 65.0188L17.771 64.4103C17.8851 63.9542 17.9427 63.4858 17.9427 63.0156C17.9427 62.5455 18.0003 62.0771 18.1144 61.621L18.4145 60.42L18.8863 59.0042L19.3582 57.1164L19.7123 55.6994C19.7905 55.3868 19.83 55.0657 19.83 54.7434V54.5331C19.83 54.0594 19.9403 53.5923 20.1521 53.1686C20.2516 52.9694 20.329 52.76 20.383 52.544L20.5762 51.7712C20.7073 51.2465 20.7736 50.7077 20.7736 50.1669C20.7736 49.4559 20.8882 48.7496 21.113 48.0751L21.2455 47.6776L21.4172 47.1623C21.6168 46.5632 21.7622 45.9473 21.8515 45.3221L22.0527 43.9133C22.1425 43.2846 22.3719 42.6839 22.7242 42.1555C22.9945 41.7498 23.1932 41.3007 23.3114 40.8277L23.6046 39.6547L23.8701 38.5923C24.0066 38.0461 24.236 37.5275 24.5482 37.059C24.8604 36.5906 25.0898 36.0719 25.2263 35.5258L25.4919 34.4633L25.9637 31.6317L26.4355 29.744L26.6515 28.8799C26.8215 28.1995 27.0655 27.5397 27.3792 26.9123L28.3228 24.5526L28.7946 22.6649L29.0814 21.2307C29.2045 20.6152 29.2664 19.989 29.2664 19.3613C29.2664 18.7336 29.3284 18.1074 29.4515 17.4919L29.5024 17.2376C29.6593 16.4529 29.7383 15.6547 29.7383 14.8545V14.17V12.7541C29.7383 11.8138 29.8536 10.877 30.0816 9.96477L30.2101 9.45058L30.3535 8.87678C30.5648 8.03129 31.0837 7.29492 31.8087 6.81142C32.0007 6.68341 32.1795 6.53676 32.3427 6.37359L32.8583 5.85787C32.9793 5.73679 33.1191 5.63602 33.2722 5.55944C33.7207 5.33514 34.2486 5.33514 34.6971 5.55944L34.9283 5.67506L35.094 5.75793C35.599 6.01048 36.0084 6.42 36.2609 6.92503C36.3161 7.03546 36.3634 7.14966 36.4024 7.26679L36.8156 8.5067L37.2874 10.3945L37.7593 12.2822Z" fill="url(#paint1_diamond_513_1871)"/>
<path d="M13.1329 214.143C13.5875 201.747 22.4843 187.965 29.1143 183.113C35.0244 180.484 39.1539 182.018 40.4799 183.113C49.1717 189.315 55.5793 202.616 57.1087 210.514C57.5029 212.549 56.8533 214.622 55.3933 216.094C50.9276 220.597 42.0086 226.055 30.1813 223.533C16.088 220.529 12.9435 216.021 13.1329 214.143Z" fill="#585858"/>
<path d="M22.7937 213.673C25.8245 215.552 35.0686 218.181 47.7981 213.673M23.0571 213.248C22.8223 213.103 22.5141 213.175 22.3687 213.41C22.2232 213.645 22.2956 213.953 22.5303 214.098C25.7087 216.068 35.1144 218.695 47.965 214.145C48.2253 214.053 48.3616 213.767 48.2694 213.507C48.1772 213.246 47.8915 213.11 47.6312 213.202C35.0227 217.667 25.9403 215.035 23.0571 213.248ZM13.6304 214.193C13.6314 214.183 13.6322 214.172 13.6326 214.161C13.8561 208.067 16.1591 201.6 19.245 196.042C22.3194 190.504 26.1378 185.927 29.3665 183.549C35.104 181.014 39.0069 182.545 40.1615 183.499C40.1705 183.506 40.1799 183.514 40.1895 183.52C44.4539 186.563 48.1851 191.371 51.045 196.424C53.9038 201.475 55.8654 206.724 56.6178 210.609C56.9799 212.478 56.3844 214.384 55.0383 215.742C50.6517 220.165 41.8968 225.52 30.2856 223.044C23.2745 221.55 19.0348 219.69 16.5846 218.004C15.3602 217.161 14.5956 216.371 14.1511 215.703C13.7032 215.03 13.5983 214.511 13.6304 214.193Z" stroke="black" stroke-opacity="0.18" stroke-linecap="round" stroke-linejoin="round"/>
<path d="M13.1311 214.697C13.5858 202.458 22.4134 187.922 29.0437 183.132C34.954 180.536 39.0837 182.05 40.4097 183.132C49.0917 189.249 55.5472 203.057 57.1 211.042C57.4997 213.098 56.8867 215.246 55.3017 216.615C51.8131 219.626 45.6266 221.662 32.0046 221.299C30.0378 221.247 28.0675 221.011 26.1452 220.592C16.4271 218.476 12.9579 216.393 13.1311 214.697Z" fill="url(#paint2_radial_513_1871)"/>
<path d="M22.7923 214.234C25.8233 216.088 35.0677 218.684 47.7977 214.234M23.0533 213.807C22.8177 213.663 22.5099 213.737 22.3658 213.973C22.2217 214.208 22.2958 214.516 22.5314 214.66C25.709 216.604 35.1132 219.198 47.9627 214.706C48.2234 214.614 48.3608 214.329 48.2697 214.069C48.1785 213.808 47.8933 213.67 47.6327 213.762C35.0222 218.171 25.9375 215.572 23.0533 213.807ZM13.6286 214.748C13.6296 214.737 13.6304 214.727 13.6308 214.716C13.8544 208.697 16.1415 202.079 19.2121 196.358C22.2724 190.655 26.0729 185.913 29.2935 183.568C35.0332 181.065 38.9386 182.577 40.0937 183.519C40.1028 183.527 40.1121 183.534 40.1218 183.541C44.3763 186.538 48.1161 191.447 50.9911 196.629C53.8641 201.807 55.8447 207.206 56.6092 211.138C56.9793 213.041 56.4069 215 54.975 216.236C51.6349 219.119 45.613 221.162 32.0179 220.799C30.082 220.748 28.1429 220.516 26.2515 220.104C21.4053 219.048 18.154 218.008 16.1468 217.037C15.1413 216.55 14.4788 216.095 14.0838 215.688C13.6915 215.283 13.6055 214.974 13.6286 214.748Z" stroke="black" stroke-opacity="0.18" stroke-linecap="round" stroke-linejoin="round"/>
<path d="M48.0273 213.793C45.5119 215.681 32.652 218.324 22.0873 213.793" stroke="black" stroke-opacity="0.18" stroke-linecap="round" stroke-linejoin="round"/>
<path d="M22.7937 213.673C25.8245 215.552 35.0686 218.181 47.7981 213.673M23.0571 213.248C22.8223 213.103 22.5141 213.175 22.3687 213.41C22.2232 213.645 22.2956 213.953 22.5303 214.098C25.7087 216.068 35.1144 218.695 47.965 214.145C48.2253 214.053 48.3616 213.767 48.2694 213.507C48.1772 213.246 47.8915 213.11 47.6312 213.202C35.0227 217.667 25.9403 215.035 23.0571 213.248ZM13.6304 214.193C13.6314 214.183 13.6322 214.172 13.6326 214.161C13.8561 208.067 16.1591 201.6 19.245 196.042C22.3194 190.504 26.1378 185.927 29.3665 183.549C35.104 181.014 39.0069 182.545 40.1615 183.499C40.1705 183.506 40.1799 183.514 40.1895 183.52C44.4539 186.563 48.1851 191.371 51.045 196.424C53.9038 201.475 55.8654 206.724 56.6178 210.609C56.9799 212.478 56.3844 214.384 55.0383 215.742C50.6517 220.165 41.8968 225.52 30.2856 223.044C23.2745 221.55 19.0348 219.69 16.5846 218.004C15.3602 217.161 14.5956 216.371 14.1511 215.703C13.7032 215.03 13.5983 214.511 13.6304 214.193Z" stroke="black" stroke-opacity="0.18" stroke-linecap="round" stroke-linejoin="round"/>
</g>
<defs>
<filter id="filter0_d_513_1871" x="0.295898" y="0.391113" width="66.9258" height="238.781" filterUnits="userSpaceOnUse" color-interpolation-filters="sRGB">
<feFlood flood-opacity="0" result="BackgroundImageFix"/>
<feColorMatrix in="SourceAlpha" type="matrix" values="0 0 0 0 0 0 0 0 0 0 0 0 0 0 0 0 0 0 127 0" result="hardAlpha"/>
<feOffset dy="5"/>
<feGaussianBlur stdDeviation="5"/>
<feComposite in2="hardAlpha" operator="out"/>
<feColorMatrix type="matrix" values="0 0 0 0 0 0 0 0 0 0 0 0 0 0 0 0 0 0 0.35 0"/>
<feBlend mode="normal" in2="BackgroundImageFix" result="effect1_dropShadow_513_1871"/>
<feBlend mode="normal" in="SourceGraphic" in2="effect1_dropShadow_513_1871" result="shape"/>
</filter>
<radialGradient id="paint0_radial_513_1871" cx="0" cy="0" r="1" gradientUnits="userSpaceOnUse" gradientTransform="translate(31.1719 111.173) rotate(90) scale(30.9315 20.876)">
<stop offset="0.56179" stop-color="white"/>
<stop offset="1" stop-color="#CAC9C2"/>
</radialGradient>
<radialGradient id="paint1_diamond_513_1871" cx="0" cy="0" r="1" gradientUnits="userSpaceOnUse" gradientTransform="translate(31.8615 51.6891) rotate(90) scale(46.486 17.2215)">
<stop stop-color="#F9E7C9"/>
<stop offset="1" stop-color="#E7BA8B"/>
</radialGradient>
<radialGradient id="paint2_radial_513_1871" cx="0" cy="0" r="1" gradientUnits="userSpaceOnUse" gradientTransform="translate(35.2919 201.52) rotate(90) scale(19.8214 22.1669)">
<stop offset="0.56179" stop-color="white"/>
<stop offset="1" stop-color="#CAC9C2"/>
</radialGradient>
</defs>
</svg>
