<svg width="66" height="214" viewBox="0 0 66 214" fill="none" xmlns="http://www.w3.org/2000/svg">
<g filter="url(#filter0_d_661_307)">
<path d="M38.4054 137.818C41.1224 137.591 43.2598 137.202 44.9481 136.708C50.979 134.943 51.8119 127.565 51.7341 121.282C51.5907 109.689 50.3661 101.436 49.2668 96.7669C48.7417 94.5369 47.615 92.525 46.2407 90.6919L45.8301 90.1443C44.6611 88.585 43.2654 87.2093 41.6895 86.0628L39.0316 84.1291C35.6719 81.6848 31.3494 80.9855 27.3903 82.2456C24.7387 83.0896 22.4206 84.7535 20.8167 87.0274C18.2961 90.6009 15.3675 94.9097 14.8167 96.2871C13.8732 98.6468 8.21191 113.749 10.5708 132.154C11.6706 140.736 20.747 137.56 29.3983 137.617C32.394 137.637 35.4878 137.696 38.4054 137.818Z" fill="url(#paint0_radial_661_307)"/>
<g clip-path="url(#paint1_diamond_661_307_clip_path)" data-figma-skip-parse="true"><g transform="matrix(0 0.046486 0.0172197 0 31.5645 51.6891)"><rect x="0" y="0" width="1021.51" height="1058.07" fill="url(#paint1_diamond_661_307)" opacity="1" shape-rendering="crispEdges"/><rect x="0" y="0" width="1021.51" height="1058.07" transform="scale(1 -1)" fill="url(#paint1_diamond_661_307)" opacity="1" shape-rendering="crispEdges"/><rect x="0" y="0" width="1021.51" height="1058.07" transform="scale(-1 1)" fill="url(#paint1_diamond_661_307)" opacity="1" shape-rendering="crispEdges"/><rect x="0" y="0" width="1021.51" height="1058.07" transform="scale(-1)" fill="url(#paint1_diamond_661_307)" opacity="1" shape-rendering="crispEdges"/></g></g><path d="M37.4616 12.2822L38.4052 15.1138L38.6224 15.7659C38.791 16.2718 38.8769 16.8015 38.8769 17.3347C38.8769 17.7404 38.9267 18.1445 39.025 18.538L39.3487 19.8332L39.6792 21.8171C39.7732 22.3813 39.8205 22.9523 39.8205 23.5243C39.8205 24.2082 39.888 24.8904 40.0221 25.561L40.2923 26.9123L40.5352 27.8844C40.6872 28.4925 40.764 29.1171 40.764 29.744C40.764 30.3708 40.8409 30.9954 40.9929 31.6035L41.2358 32.5756L41.4645 33.2618C41.6255 33.745 41.7076 34.2511 41.7076 34.7604V35.3516C41.7076 35.6985 41.7883 36.0407 41.9435 36.3511C42.0986 36.6615 42.1794 37.0037 42.1794 37.3506V38.7108C42.1794 39.6524 42.2723 40.5916 42.4569 41.5149L42.6511 42.4863L42.7499 42.7828C42.997 43.5242 43.1229 44.3005 43.1229 45.082V45.5156C43.1229 46.0099 43.2026 46.5009 43.3588 46.9697C43.515 47.4386 43.5947 47.9296 43.5947 48.4238V49.0934V50.5093V51.3975C43.5947 51.7444 43.6754 52.0867 43.8306 52.397C43.9857 52.7074 44.0664 53.0496 44.0664 53.3966V54.2848V56.1725V56.6154C44.0664 57.2616 44.1457 57.9053 44.3023 58.5322L44.4395 59.0811C44.5051 59.3434 44.5382 59.6128 44.5382 59.8833C44.5382 60.2388 44.5955 60.5919 44.7079 60.9292L44.7741 61.1279C44.9303 61.5968 45.01 62.0878 45.01 62.582V63.7236V64.8651C45.01 65.3594 45.0896 65.8503 45.2459 66.3192C45.4021 66.7881 45.4818 67.2791 45.4818 67.7733V67.971V68.1687C45.4818 68.6629 45.5614 69.1539 45.7177 69.6228C45.8739 70.0917 45.9535 70.5827 45.9535 71.0769V71.7465V74.1062V75.522V76.6636C45.9535 77.1578 46.0332 77.6488 46.1894 78.1177C46.3457 78.5866 46.4253 79.0776 46.4253 79.5718V79.8102C46.4253 80.0973 46.4457 80.3841 46.4863 80.6683L46.8217 83.0173C46.8719 83.3684 46.9535 83.7142 47.0656 84.0507L47.0705 84.0653C47.2681 84.6584 47.3689 85.2795 47.3689 85.9047V86.7929C47.3689 87.1399 47.4496 87.4821 47.6047 87.7924C47.7599 88.1028 47.8406 88.445 47.8406 88.792V90.4707C47.8406 90.8819 47.9364 91.2875 48.1202 91.6554L48.1284 91.6717C48.2503 91.9156 48.3321 92.1775 48.3706 92.4474L48.6508 94.4094C48.7212 94.9024 48.3386 95.3435 47.8406 95.3435H46.8971C46.2766 95.3435 45.6646 95.199 45.1097 94.9214L45.01 94.8715L44.3649 94.5488C44.1672 94.45 43.9868 94.3199 43.8306 94.1636C43.6743 94.0073 43.4939 93.8773 43.2963 93.7784L43.1229 93.6917C42.8104 93.5354 42.5252 93.3297 42.2782 93.0826L41.2358 92.0399L40.2923 91.096L38.8769 89.6802L37.9334 88.7363L37.5172 88.32C37.1704 87.9731 36.7476 87.7117 36.2822 87.5565L36.2639 87.5504C35.8106 87.3992 35.3986 87.1445 35.0608 86.8066C34.4835 86.2291 33.7005 85.9047 32.884 85.9047H32.7045C32.4173 85.9047 32.1312 85.8695 31.8526 85.7998L31.6495 85.749C30.8193 85.5414 29.9508 85.5414 29.1206 85.749L28.8117 85.8262C28.6033 85.8783 28.3893 85.9047 28.1745 85.9047C27.7667 85.9047 27.3645 85.9997 26.9998 86.1821L26.8716 86.2462C26.6981 86.333 26.5328 86.4352 26.3776 86.5516L25.0252 87.5663C24.8246 87.7168 24.6109 87.8489 24.3867 87.961C23.985 88.1619 23.6183 88.4263 23.3008 88.744L22.8367 89.2083C22.2092 89.836 21.6452 90.5241 21.153 91.2627L20.9496 91.568L20.4778 92.5118L19.5342 93.9277C18.913 94.8599 18.0924 95.6425 17.1319 96.2191L16.2318 96.7593L15.056 97.6415C14.763 97.8613 14.3447 97.6522 14.3447 97.2859C14.3447 97.2496 14.3492 97.2134 14.358 97.1782L14.5806 96.2873C14.7373 95.6605 14.8165 95.0167 14.8165 94.3706V92.5118V91.125C14.8165 90.4789 14.8957 89.8352 15.0524 89.2083C15.2091 88.5814 15.2883 87.9376 15.2883 87.2915V86.3766V85.4618C15.2883 84.8156 15.3675 84.1719 15.5242 83.545C15.6808 82.9181 15.7601 82.2744 15.7601 81.6282V81.1853V79.7695V78.8256V77.9108C15.7601 77.2646 15.8393 76.6209 15.9959 75.994C16.1526 75.3671 16.2318 74.7234 16.2318 74.0772V73.6343V71.7465C16.2318 70.8062 16.3471 69.8694 16.5751 68.9571L16.7036 68.4429L16.9209 67.7909C17.0894 67.285 17.1754 66.7553 17.1754 66.222C17.1754 65.8164 17.2251 65.4123 17.3235 65.0188L17.4755 64.4103C17.5895 63.9542 17.6471 63.4858 17.6471 63.0156C17.6471 62.5455 17.7048 62.0771 17.8188 61.621L18.1189 60.42L18.5907 59.0042L19.0625 57.1164L19.4166 55.6994C19.4947 55.3868 19.5342 55.0657 19.5342 54.7434V54.5331C19.5342 54.0594 19.6445 53.5923 19.8563 53.1686C19.9558 52.9694 20.0332 52.76 20.0872 52.544L20.2803 51.7712C20.4115 51.2465 20.4778 50.7077 20.4778 50.1669C20.4778 49.4559 20.5924 48.7496 20.8171 48.0751L20.9496 47.6776L21.1213 47.1623C21.3209 46.5632 21.4662 45.9473 21.5555 45.3221L21.7567 43.9133C21.8465 43.2846 22.0759 42.6839 22.4281 42.1555C22.6985 41.7498 22.8971 41.3007 23.0153 40.8277L23.3084 39.6547L23.5739 38.5922C23.7104 38.0461 23.9398 37.5275 24.252 37.059C24.5642 36.5906 24.7935 36.0719 24.93 35.5258L25.1955 34.4633L25.6673 31.6317L26.1391 29.744L26.355 28.8799C26.525 28.1995 26.769 27.5397 27.0826 26.9123L28.0262 24.5526L28.4979 22.6649L28.7847 21.2307C28.9077 20.6152 28.9697 19.989 28.9697 19.3613C28.9697 18.7336 29.0317 18.1074 29.1548 17.4919L29.2056 17.2376C29.3625 16.4529 29.4415 15.6547 29.4415 14.8545V14.17V12.7541C29.4415 11.8138 29.5568 10.877 29.7847 9.96476L29.9132 9.45058L30.0567 8.87667C30.268 8.03126 30.7867 7.29492 31.5117 6.81143C31.7037 6.68342 31.8825 6.53676 32.0456 6.37359L32.5612 5.85785C32.6822 5.73679 32.8219 5.63602 32.975 5.55945C33.4235 5.33515 33.9514 5.33515 34.3998 5.55945L34.631 5.67506L34.7966 5.7579C35.3016 6.01047 35.711 6.42001 35.9634 6.92504C36.0186 7.03546 36.0659 7.14966 36.1049 7.26677L36.5181 8.5067L36.9898 10.3945L37.4616 12.2822Z" data-figma-gradient-fill="{&#34;type&#34;:&#34;GRADIENT_DIAMOND&#34;,&#34;stops&#34;:[{&#34;color&#34;:{&#34;r&#34;:0.97647058963775635,&#34;g&#34;:0.90588235855102539,&#34;b&#34;:0.78823530673980713,&#34;a&#34;:1.0},&#34;position&#34;:0.0},{&#34;color&#34;:{&#34;r&#34;:0.90588235855102539,&#34;g&#34;:0.7294117808341980,&#34;b&#34;:0.54509806632995605,&#34;a&#34;:1.0},&#34;position&#34;:1.0}],&#34;stopsVar&#34;:[{&#34;color&#34;:{&#34;r&#34;:0.97647058963775635,&#34;g&#34;:0.90588235855102539,&#34;b&#34;:0.78823530673980713,&#34;a&#34;:1.0},&#34;position&#34;:0.0},{&#34;color&#34;:{&#34;r&#34;:0.90588235855102539,&#34;g&#34;:0.7294117808341980,&#34;b&#34;:0.54509806632995605,&#34;a&#34;:1.0},&#34;position&#34;:1.0}],&#34;transform&#34;:{&#34;m00&#34;:-2.1088079538351436e-15,&#34;m01&#34;:34.439445495605469,&#34;m02&#34;:14.344734191894531,&#34;m10&#34;:92.971977233886719,&#34;m11&#34;:5.6928919213536811e-15,&#34;m12&#34;:5.2031250},&#34;opacity&#34;:1.0,&#34;blendMode&#34;:&#34;NORMAL&#34;,&#34;visible&#34;:true}"/>
<path d="M11.1661 165.822C11.6207 178.218 20.5176 192 27.1475 196.852C33.0576 199.481 37.1871 197.947 38.5131 196.852C47.2049 190.65 53.6125 177.349 55.1419 169.452C55.5361 167.416 54.8865 165.344 53.4265 163.872C48.9608 159.369 40.0418 153.91 28.2145 156.432C14.1212 159.437 10.9767 163.944 11.1661 165.822Z" fill="#585858"/>
<path d="M20.8269 166.292C23.8577 164.414 33.1018 161.784 45.8313 166.292M21.0903 166.717C20.8555 166.862 20.5473 166.79 20.4019 166.555C20.2564 166.321 20.3288 166.012 20.5635 165.867C23.7419 163.897 33.1476 161.27 45.9982 165.821C46.2585 165.913 46.3948 166.198 46.3026 166.459C46.2104 166.719 45.9247 166.855 45.6644 166.763C33.0559 162.299 23.9735 164.93 21.0903 166.717ZM11.6636 165.772C11.6647 165.783 11.6654 165.793 11.6658 165.804C11.8893 171.898 14.1923 178.365 17.2782 183.923C20.3526 189.461 24.171 194.038 27.3997 196.417C33.1372 198.951 37.0401 197.42 38.1947 196.466C38.2038 196.459 38.2131 196.452 38.2227 196.445C42.4871 193.402 46.2183 188.594 49.0782 183.541C51.937 178.49 53.8986 173.242 54.651 169.357C55.0131 167.487 54.4176 165.581 53.0715 164.224C48.6849 159.8 39.93 154.445 28.3188 156.921C21.3077 158.416 17.068 160.275 14.6178 161.962C13.3934 162.804 12.6288 163.595 12.1843 164.262C11.7364 164.935 11.6315 165.454 11.6636 165.772Z" stroke="black" stroke-opacity="0.18" stroke-linecap="round" stroke-linejoin="round"/>
<path d="M11.1643 165.268C11.619 177.508 20.4466 192.043 27.0769 196.834C32.9872 199.43 37.1169 197.915 38.4429 196.834C47.1249 190.717 53.5804 176.908 55.1332 168.923C55.5329 166.868 54.9199 164.719 53.3349 163.351C49.8463 160.339 43.6598 158.303 30.0378 158.666C28.071 158.718 26.1007 158.954 24.1784 159.373C14.4604 161.489 10.9911 163.573 11.1643 165.268Z" fill="url(#paint2_radial_661_307)"/>
<path d="M20.8255 165.732C23.8565 163.877 33.1009 161.281 45.8309 165.732M21.0865 166.158C20.8509 166.302 20.5431 166.228 20.399 165.993C20.2549 165.757 20.329 165.449 20.5646 165.305C23.7422 163.361 33.1464 160.767 45.9959 165.26C46.2566 165.351 46.394 165.636 46.3029 165.897C46.2117 166.157 45.9265 166.295 45.6659 166.204C33.0554 161.795 23.9707 164.394 21.0865 166.158ZM11.6618 165.217C11.6629 165.228 11.6636 165.239 11.664 165.25C11.8876 171.268 14.1747 177.886 17.2453 183.608C20.3056 189.31 24.1061 194.052 27.3267 196.397C33.0664 198.9 36.9718 197.388 38.1269 196.446C38.136 196.439 38.1453 196.432 38.155 196.425C42.4095 193.427 46.1493 188.518 49.0243 183.336C51.8973 178.158 53.8779 172.759 54.6424 168.828C55.0125 166.924 54.4401 164.965 53.0082 163.729C49.6681 160.846 43.6462 158.804 30.0511 159.166C28.1152 159.217 26.1761 159.45 24.2848 159.862C19.4386 160.917 16.1872 161.957 14.18 162.928C13.1746 163.415 12.512 163.87 12.117 164.277C11.7247 164.682 11.6387 164.992 11.6618 165.217Z" stroke="black" stroke-opacity="0.18" stroke-linecap="round" stroke-linejoin="round"/>
<path d="M46.0615 166.172C43.5461 164.284 30.6862 161.641 20.1215 166.172" stroke="black" stroke-opacity="0.18" stroke-linecap="round" stroke-linejoin="round"/>
<path d="M20.8269 166.292C23.8577 164.414 33.1018 161.784 45.8313 166.292M21.0903 166.717C20.8555 166.862 20.5473 166.79 20.4019 166.555C20.2564 166.321 20.3288 166.012 20.5635 165.867C23.7419 163.897 33.1476 161.27 45.9982 165.821C46.2585 165.913 46.3948 166.198 46.3026 166.459C46.2104 166.719 45.9247 166.855 45.6644 166.763C33.0559 162.299 23.9735 164.93 21.0903 166.717ZM11.6636 165.772C11.6647 165.783 11.6654 165.793 11.6658 165.804C11.8893 171.898 14.1923 178.365 17.2782 183.923C20.3526 189.461 24.171 194.038 27.3997 196.417C33.1372 198.951 37.0401 197.42 38.1947 196.466C38.2038 196.459 38.2131 196.452 38.2227 196.445C42.4871 193.402 46.2183 188.594 49.0782 183.541C51.937 178.49 53.8986 173.242 54.651 169.357C55.0131 167.487 54.4176 165.581 53.0715 164.224C48.6849 159.8 39.93 154.445 28.3188 156.921C21.3077 158.416 17.068 160.275 14.6178 161.962C13.3934 162.804 12.6288 163.595 12.1843 164.262C11.7364 164.935 11.6315 165.454 11.6636 165.772Z" stroke="black" stroke-opacity="0.18" stroke-linecap="round" stroke-linejoin="round"/>
</g>
<defs>
<filter id="filter0_d_661_307" x="0.000976562" y="0.391113" width="65.2539" height="212.913" filterUnits="userSpaceOnUse" color-interpolation-filters="sRGB">
<feFlood flood-opacity="0" result="BackgroundImageFix"/>
<feColorMatrix in="SourceAlpha" type="matrix" values="0 0 0 0 0 0 0 0 0 0 0 0 0 0 0 0 0 0 127 0" result="hardAlpha"/>
<feOffset dy="5"/>
<feGaussianBlur stdDeviation="5"/>
<feComposite in2="hardAlpha" operator="out"/>
<feColorMatrix type="matrix" values="0 0 0 0 0 0 0 0 0 0 0 0 0 0 0 0 0 0 0.35 0"/>
<feBlend mode="normal" in2="BackgroundImageFix" result="effect1_dropShadow_661_307"/>
<feBlend mode="normal" in="SourceGraphic" in2="effect1_dropShadow_661_307" result="shape"/>
</filter>
<clipPath id="paint1_diamond_661_307_clip_path"><path d="M37.4616 12.2822L38.4052 15.1138L38.6224 15.7659C38.791 16.2718 38.8769 16.8015 38.8769 17.3347C38.8769 17.7404 38.9267 18.1445 39.025 18.538L39.3487 19.8332L39.6792 21.8171C39.7732 22.3813 39.8205 22.9523 39.8205 23.5243C39.8205 24.2082 39.888 24.8904 40.0221 25.561L40.2923 26.9123L40.5352 27.8844C40.6872 28.4925 40.764 29.1171 40.764 29.744C40.764 30.3708 40.8409 30.9954 40.9929 31.6035L41.2358 32.5756L41.4645 33.2618C41.6255 33.745 41.7076 34.2511 41.7076 34.7604V35.3516C41.7076 35.6985 41.7883 36.0407 41.9435 36.3511C42.0986 36.6615 42.1794 37.0037 42.1794 37.3506V38.7108C42.1794 39.6524 42.2723 40.5916 42.4569 41.5149L42.6511 42.4863L42.7499 42.7828C42.997 43.5242 43.1229 44.3005 43.1229 45.082V45.5156C43.1229 46.0099 43.2026 46.5009 43.3588 46.9697C43.515 47.4386 43.5947 47.9296 43.5947 48.4238V49.0934V50.5093V51.3975C43.5947 51.7444 43.6754 52.0867 43.8306 52.397C43.9857 52.7074 44.0664 53.0496 44.0664 53.3966V54.2848V56.1725V56.6154C44.0664 57.2616 44.1457 57.9053 44.3023 58.5322L44.4395 59.0811C44.5051 59.3434 44.5382 59.6128 44.5382 59.8833C44.5382 60.2388 44.5955 60.5919 44.7079 60.9292L44.7741 61.1279C44.9303 61.5968 45.01 62.0878 45.01 62.582V63.7236V64.8651C45.01 65.3594 45.0896 65.8503 45.2459 66.3192C45.4021 66.7881 45.4818 67.2791 45.4818 67.7733V67.971V68.1687C45.4818 68.6629 45.5614 69.1539 45.7177 69.6228C45.8739 70.0917 45.9535 70.5827 45.9535 71.0769V71.7465V74.1062V75.522V76.6636C45.9535 77.1578 46.0332 77.6488 46.1894 78.1177C46.3457 78.5866 46.4253 79.0776 46.4253 79.5718V79.8102C46.4253 80.0973 46.4457 80.3841 46.4863 80.6683L46.8217 83.0173C46.8719 83.3684 46.9535 83.7142 47.0656 84.0507L47.0705 84.0653C47.2681 84.6584 47.3689 85.2795 47.3689 85.9047V86.7929C47.3689 87.1399 47.4496 87.4821 47.6047 87.7924C47.7599 88.1028 47.8406 88.445 47.8406 88.792V90.4707C47.8406 90.8819 47.9364 91.2875 48.1202 91.6554L48.1284 91.6717C48.2503 91.9156 48.3321 92.1775 48.3706 92.4474L48.6508 94.4094C48.7212 94.9024 48.3386 95.3435 47.8406 95.3435H46.8971C46.2766 95.3435 45.6646 95.199 45.1097 94.9214L45.01 94.8715L44.3649 94.5488C44.1672 94.45 43.9868 94.3199 43.8306 94.1636C43.6743 94.0073 43.4939 93.8773 43.2963 93.7784L43.1229 93.6917C42.8104 93.5354 42.5252 93.3297 42.2782 93.0826L41.2358 92.0399L40.2923 91.096L38.8769 89.6802L37.9334 88.7363L37.5172 88.32C37.1704 87.9731 36.7476 87.7117 36.2822 87.5565L36.2639 87.5504C35.8106 87.3992 35.3986 87.1445 35.0608 86.8066C34.4835 86.2291 33.7005 85.9047 32.884 85.9047H32.7045C32.4173 85.9047 32.1312 85.8695 31.8526 85.7998L31.6495 85.749C30.8193 85.5414 29.9508 85.5414 29.1206 85.749L28.8117 85.8262C28.6033 85.8783 28.3893 85.9047 28.1745 85.9047C27.7667 85.9047 27.3645 85.9997 26.9998 86.1821L26.8716 86.2462C26.6981 86.333 26.5328 86.4352 26.3776 86.5516L25.0252 87.5663C24.8246 87.7168 24.6109 87.8489 24.3867 87.961C23.985 88.1619 23.6183 88.4263 23.3008 88.744L22.8367 89.2083C22.2092 89.836 21.6452 90.5241 21.153 91.2627L20.9496 91.568L20.4778 92.5118L19.5342 93.9277C18.913 94.8599 18.0924 95.6425 17.1319 96.2191L16.2318 96.7593L15.056 97.6415C14.763 97.8613 14.3447 97.6522 14.3447 97.2859C14.3447 97.2496 14.3492 97.2134 14.358 97.1782L14.5806 96.2873C14.7373 95.6605 14.8165 95.0167 14.8165 94.3706V92.5118V91.125C14.8165 90.4789 14.8957 89.8352 15.0524 89.2083C15.2091 88.5814 15.2883 87.9376 15.2883 87.2915V86.3766V85.4618C15.2883 84.8156 15.3675 84.1719 15.5242 83.545C15.6808 82.9181 15.7601 82.2744 15.7601 81.6282V81.1853V79.7695V78.8256V77.9108C15.7601 77.2646 15.8393 76.6209 15.9959 75.994C16.1526 75.3671 16.2318 74.7234 16.2318 74.0772V73.6343V71.7465C16.2318 70.8062 16.3471 69.8694 16.5751 68.9571L16.7036 68.4429L16.9209 67.7909C17.0894 67.285 17.1754 66.7553 17.1754 66.222C17.1754 65.8164 17.2251 65.4123 17.3235 65.0188L17.4755 64.4103C17.5895 63.9542 17.6471 63.4858 17.6471 63.0156C17.6471 62.5455 17.7048 62.0771 17.8188 61.621L18.1189 60.42L18.5907 59.0042L19.0625 57.1164L19.4166 55.6994C19.4947 55.3868 19.5342 55.0657 19.5342 54.7434V54.5331C19.5342 54.0594 19.6445 53.5923 19.8563 53.1686C19.9558 52.9694 20.0332 52.76 20.0872 52.544L20.2803 51.7712C20.4115 51.2465 20.4778 50.7077 20.4778 50.1669C20.4778 49.4559 20.5924 48.7496 20.8171 48.0751L20.9496 47.6776L21.1213 47.1623C21.3209 46.5632 21.4662 45.9473 21.5555 45.3221L21.7567 43.9133C21.8465 43.2846 22.0759 42.6839 22.4281 42.1555C22.6985 41.7498 22.8971 41.3007 23.0153 40.8277L23.3084 39.6547L23.5739 38.5922C23.7104 38.0461 23.9398 37.5275 24.252 37.059C24.5642 36.5906 24.7935 36.0719 24.93 35.5258L25.1955 34.4633L25.6673 31.6317L26.1391 29.744L26.355 28.8799C26.525 28.1995 26.769 27.5397 27.0826 26.9123L28.0262 24.5526L28.4979 22.6649L28.7847 21.2307C28.9077 20.6152 28.9697 19.989 28.9697 19.3613C28.9697 18.7336 29.0317 18.1074 29.1548 17.4919L29.2056 17.2376C29.3625 16.4529 29.4415 15.6547 29.4415 14.8545V14.17V12.7541C29.4415 11.8138 29.5568 10.877 29.7847 9.96476L29.9132 9.45058L30.0567 8.87667C30.268 8.03126 30.7867 7.29492 31.5117 6.81143C31.7037 6.68342 31.8825 6.53676 32.0456 6.37359L32.5612 5.85785C32.6822 5.73679 32.8219 5.63602 32.975 5.55945C33.4235 5.33515 33.9514 5.33515 34.3998 5.55945L34.631 5.67506L34.7966 5.7579C35.3016 6.01047 35.711 6.42001 35.9634 6.92504C36.0186 7.03546 36.0659 7.14966 36.1049 7.26677L36.5181 8.5067L36.9898 10.3945L37.4616 12.2822Z"/></clipPath><radialGradient id="paint0_radial_661_307" cx="0" cy="0" r="1" gradientUnits="userSpaceOnUse" gradientTransform="translate(30.8743 111.173) rotate(90) scale(30.9315 20.8738)">
<stop offset="0.56179" stop-color="white"/>
<stop offset="1" stop-color="#CAC9C2"/>
</radialGradient>
<linearGradient id="paint1_diamond_661_307" x1="0" y1="0" x2="500" y2="500" gradientUnits="userSpaceOnUse">
<stop stop-color="#F9E7C9"/>
<stop offset="1" stop-color="#E7BA8B"/>
</linearGradient>
<radialGradient id="paint2_radial_661_307" cx="0" cy="0" r="1" gradientUnits="userSpaceOnUse" gradientTransform="translate(33.3251 178.446) rotate(-90) scale(19.8214 22.1669)">
<stop offset="0.56179" stop-color="white"/>
<stop offset="1" stop-color="#CAC9C2"/>
</radialGradient>
</defs>
</svg>
