<svg width="61" height="197" viewBox="0 0 61 197" fill="none" xmlns="http://www.w3.org/2000/svg">
<g filter="url(#filter0_d_661_299)">
<path d="M10.152 116.626C10.152 112.096 12.0391 97.7489 12.9826 91.1417L17.2288 77.9274L21.003 73.2081L34.2126 64.2412L42.7045 79.3433C43.3335 83.9053 44.8745 95.3892 46.0067 104.828C47.139 114.267 42.7043 117.256 40.3455 117.57C30.281 119.143 10.152 121.157 10.152 116.626Z" fill="url(#paint0_radial_661_299)"/>
<g clip-path="url(#paint1_diamond_661_299_clip_path)" data-figma-skip-parse="true"><g transform="matrix(0 0.0372565 0.0129738 0 29.7333 43.0338)"><rect x="0" y="0" width="1026.84" height="1077.08" fill="url(#paint1_diamond_661_299)" opacity="1" shape-rendering="crispEdges"/><rect x="0" y="0" width="1026.84" height="1077.08" transform="scale(1 -1)" fill="url(#paint1_diamond_661_299)" opacity="1" shape-rendering="crispEdges"/><rect x="0" y="0" width="1026.84" height="1077.08" transform="scale(-1 1)" fill="url(#paint1_diamond_661_299)" opacity="1" shape-rendering="crispEdges"/><rect x="0" y="0" width="1026.84" height="1077.08" transform="scale(-1)" fill="url(#paint1_diamond_661_299)" opacity="1" shape-rendering="crispEdges"/></g></g><path d="M39.8764 11.3871C37.6119 20.8259 40.8199 61.57 42.707 80.2903C38.4611 75.0989 31.2901 69.4357 27.1385 73.2112C22.9869 76.9867 18.4893 78.8744 16.7595 79.3463C17.7031 61.8846 23.3643 54.8055 23.3643 43.479C22.7353 35.2987 23.4587 17.0504 31.3845 9.49934C39.3103 1.94831 40.3482 7.61158 39.8764 11.3871Z" data-figma-gradient-fill="{&#34;type&#34;:&#34;GRADIENT_DIAMOND&#34;,&#34;stops&#34;:[{&#34;color&#34;:{&#34;r&#34;:0.97647058963775635,&#34;g&#34;:0.90588235855102539,&#34;b&#34;:0.78823530673980713,&#34;a&#34;:1.0},&#34;position&#34;:0.0},{&#34;color&#34;:{&#34;r&#34;:0.90588235855102539,&#34;g&#34;:0.7294117808341980,&#34;b&#34;:0.54509806632995605,&#34;a&#34;:1.0},&#34;position&#34;:1.0}],&#34;stopsVar&#34;:[{&#34;color&#34;:{&#34;r&#34;:0.97647058963775635,&#34;g&#34;:0.90588235855102539,&#34;b&#34;:0.78823530673980713,&#34;a&#34;:1.0},&#34;position&#34;:0.0},{&#34;color&#34;:{&#34;r&#34;:0.90588235855102539,&#34;g&#34;:0.7294117808341980,&#34;b&#34;:0.54509806632995605,&#34;a&#34;:1.0},&#34;position&#34;:1.0}],&#34;transform&#34;:{&#34;m00&#34;:-1.5888272388890558e-15,&#34;m01&#34;:25.947517395019531,&#34;m02&#34;:16.759513854980469,&#34;m10&#34;:74.512908935546875,&#34;m11&#34;:4.5626001451092284e-15,&#34;m12&#34;:5.777343750},&#34;opacity&#34;:1.0,&#34;blendMode&#34;:&#34;NORMAL&#34;,&#34;visible&#34;:true}"/>
<path d="M50.8177 150.167C50.4403 162.626 39.3412 175.494 33.8387 180.371C28.9337 183.014 25.5065 181.472 24.406 180.371C17.0597 174.022 14.5895 161.045 14.1186 153.346C14.0101 151.572 14.4664 149.802 15.5757 148.414C19.2231 143.851 26.7015 138.154 36.6686 140.728C48.3651 143.748 50.9749 148.279 50.8177 150.167Z" fill="#585858"/>
<path d="M42.7998 150.639C40.2844 148.751 32.6125 146.108 22.0478 150.639M42.4997 151.039C42.7206 151.204 43.034 151.16 43.1997 150.939C43.3655 150.718 43.3208 150.405 43.1 150.239C40.4254 148.232 32.5606 145.586 21.8507 150.179C21.597 150.288 21.4795 150.582 21.5883 150.836C21.6971 151.09 21.9911 151.207 22.2449 151.098C32.6644 146.63 40.1435 149.27 42.4997 151.039ZM50.3194 150.125C50.3187 150.134 50.3182 150.143 50.3179 150.152C50.1332 156.249 47.3191 162.489 43.8313 167.839C40.3665 173.154 36.2716 177.538 33.5507 179.958C28.8485 182.468 25.6854 180.944 24.7597 180.017C24.7511 180.009 24.7421 180 24.7329 179.993C21.1596 176.904 18.7423 172.173 17.1604 167.213C15.581 162.26 14.8512 157.134 14.6177 153.315C14.5155 151.644 14.9466 150.002 15.9663 148.726C19.5533 144.238 26.8484 138.708 36.5435 141.212C42.3474 142.711 45.8483 144.573 47.8681 146.256C49.9052 147.954 50.3785 149.415 50.3194 150.125Z" stroke="black" stroke-opacity="0.18" stroke-linecap="round" stroke-linejoin="round"/>
<path d="M50.8172 150.167C50.4399 162.626 39.3407 175.494 33.8382 180.371C28.9332 183.014 25.506 181.472 24.4055 180.371C17.0591 174.022 14.589 161.045 14.1181 153.346C14.0096 151.572 14.4264 149.764 15.6119 148.441C18.3722 145.359 23.2328 143.216 34.0081 143.417C36.4021 143.461 38.7921 143.81 41.096 144.463C48.34 146.514 50.9543 148.52 50.8172 150.167Z" fill="url(#paint2_radial_661_299)"/>
<path d="M42.7993 150.639C40.2839 148.751 32.612 146.108 22.0473 150.639M42.4992 151.039C42.7201 151.204 43.0335 151.16 43.1992 150.939C43.365 150.718 43.3203 150.405 43.0995 150.239C40.4249 148.232 32.5601 145.586 21.8503 150.179C21.5965 150.288 21.479 150.582 21.5878 150.836C21.6966 151.09 21.9906 151.207 22.2444 151.098C32.6639 146.63 40.143 149.27 42.4992 151.039ZM50.3189 150.125C50.3182 150.134 50.3177 150.143 50.3174 150.152C50.1328 156.249 47.3186 162.489 43.8308 167.839C40.366 173.154 36.2711 177.538 33.5502 179.958C28.848 182.468 25.6849 180.944 24.7592 180.017C24.7506 180.009 24.7416 180 24.7324 179.993C21.1591 176.904 18.7418 172.173 17.1599 167.213C15.5805 162.26 14.8507 157.134 14.6172 153.315C14.5141 151.631 14.9138 149.97 15.9844 148.775C18.5997 145.855 23.277 143.717 33.9987 143.917C36.3507 143.96 38.698 144.303 40.9597 144.944C44.5646 145.965 46.9766 146.964 48.4595 147.89C49.9782 148.84 50.3621 149.607 50.3189 150.125Z" stroke="black" stroke-opacity="0.18" stroke-linecap="round" stroke-linejoin="round"/>
<path d="M42.8008 150.636C40.2854 148.748 32.6134 146.106 22.0488 150.636" stroke="black" stroke-opacity="0.18" stroke-linecap="round" stroke-linejoin="round"/>
<path d="M42.7998 150.639C40.2844 148.751 32.6125 146.108 22.0478 150.639M42.4997 151.039C42.7206 151.204 43.034 151.16 43.1997 150.939C43.3655 150.718 43.3208 150.405 43.1 150.239C40.4254 148.232 32.5606 145.586 21.8507 150.179C21.597 150.288 21.4795 150.582 21.5883 150.836C21.6971 151.09 21.9911 151.207 22.2449 151.098C32.6644 146.63 40.1435 149.27 42.4997 151.039ZM50.3194 150.125C50.3187 150.134 50.3182 150.143 50.3179 150.152C50.1332 156.249 47.3191 162.489 43.8313 167.839C40.3665 173.154 36.2716 177.538 33.5507 179.958C28.8485 182.468 25.6854 180.944 24.7597 180.017C24.7511 180.009 24.7421 180 24.7329 179.993C21.1596 176.904 18.7423 172.173 17.1604 167.213C15.581 162.26 14.8512 157.134 14.6177 153.315C14.5155 151.644 14.9466 150.002 15.9663 148.726C19.5533 144.238 26.8484 138.708 36.5435 141.212C42.3474 142.711 45.8483 144.573 47.8681 146.256C49.9052 147.954 50.3785 149.415 50.3194 150.125Z" stroke="black" stroke-opacity="0.18" stroke-linecap="round" stroke-linejoin="round"/>
</g>
<defs>
<filter id="filter0_d_661_299" x="0.152344" y="0.777344" width="60.6719" height="196.053" filterUnits="userSpaceOnUse" color-interpolation-filters="sRGB">
<feFlood flood-opacity="0" result="BackgroundImageFix"/>
<feColorMatrix in="SourceAlpha" type="matrix" values="0 0 0 0 0 0 0 0 0 0 0 0 0 0 0 0 0 0 127 0" result="hardAlpha"/>
<feOffset dy="5"/>
<feGaussianBlur stdDeviation="5"/>
<feComposite in2="hardAlpha" operator="out"/>
<feColorMatrix type="matrix" values="0 0 0 0 0 0 0 0 0 0 0 0 0 0 0 0 0 0 0.35 0"/>
<feBlend mode="normal" in2="BackgroundImageFix" result="effect1_dropShadow_661_299"/>
<feBlend mode="normal" in="SourceGraphic" in2="effect1_dropShadow_661_299" result="shape"/>
</filter>
<clipPath id="paint1_diamond_661_299_clip_path"><path d="M39.8764 11.3871C37.6119 20.8259 40.8199 61.57 42.707 80.2903C38.4611 75.0989 31.2901 69.4357 27.1385 73.2112C22.9869 76.9867 18.4893 78.8744 16.7595 79.3463C17.7031 61.8846 23.3643 54.8055 23.3643 43.479C22.7353 35.2987 23.4587 17.0504 31.3845 9.49934C39.3103 1.94831 40.3482 7.61158 39.8764 11.3871Z"/></clipPath><radialGradient id="paint0_radial_661_299" cx="0" cy="0" r="1" gradientUnits="userSpaceOnUse" gradientTransform="translate(28.1702 91.8228) rotate(90) scale(27.5815 18.0182)">
<stop offset="0.56179" stop-color="white"/>
<stop offset="1" stop-color="#CAC9C2"/>
</radialGradient>
<linearGradient id="paint1_diamond_661_299" x1="0" y1="0" x2="500" y2="500" gradientUnits="userSpaceOnUse">
<stop stop-color="#F9E7C9"/>
<stop offset="1" stop-color="#E7BA8B"/>
</linearGradient>
<radialGradient id="paint2_radial_661_299" cx="0" cy="0" r="1" gradientUnits="userSpaceOnUse" gradientTransform="translate(32.4259 162.617) rotate(-90) scale(19.2133 18.3964)">
<stop offset="0.56179" stop-color="white"/>
<stop offset="1" stop-color="#CAC9C2"/>
</radialGradient>
</defs>
</svg>
