<svg width="65" height="242" viewBox="0 0 65 242" fill="none" xmlns="http://www.w3.org/2000/svg">
<g filter="url(#filter0_d_513_1887)">
<path d="M46.2187 96.1074L41.5013 87.6125L27.8209 81.9492C27.3492 82.1065 24.8018 85.536 18.3862 97.9951C11.9706 110.454 10.6812 126.783 10.8385 133.391C10.8385 133.705 12.5367 135.561 19.3297 140.47C26.1227 145.378 30.9658 143.459 32.5383 141.885C34.4253 139.683 39.4257 134.901 44.3318 133.391C50.4643 131.503 51.4078 122.536 49.9926 120.176C48.8604 118.289 47.0049 103.344 46.2187 96.1074Z" fill="url(#paint0_radial_513_1887)"/>
<path d="M43.8581 52.6871C44.9903 64.3912 45.7451 86.5095 46.2168 96.1056C44.3299 95.7909 40.2729 94.2178 37.2538 90.4423C34.2347 86.6668 30.0205 88.8692 28.2908 90.4423C25.4604 92.33 17.9127 103.185 17.9127 97.0494C17.9127 90.9142 22.1583 58.8224 23.5735 42.3045C24.7057 29.0902 33.4799 12.8869 37.7256 6.4371C39.4553 5.1786 42.6316 4.1718 41.4994 10.2126C40.0842 17.7636 42.4429 38.057 43.8581 52.6871Z" fill="url(#paint1_diamond_513_1887)"/>
<path d="M52.7732 214.55C58.4329 206.622 48.2141 190.481 42.3972 183.402C40.8461 181.515 36.266 176.323 26.3616 183.402C16.1742 192.841 15.8284 204.954 16.9288 209.831C24.8523 226.821 35.0083 227.922 39.0958 226.349C41.2967 225.72 47.1136 222.479 52.7732 214.55Z" fill="url(#paint2_radial_513_1887)"/>
<path d="M48.5285 210.775C47.2708 212.82 43.3405 215.966 37.2092 215.966M32.0212 215.966C25.8899 215.022 22.3055 213.229 21.1736 207.943M48.1026 210.513C48.2473 210.278 48.5552 210.204 48.7904 210.349C49.0257 210.494 49.0991 210.802 48.9544 211.037C47.602 213.236 43.507 216.466 37.2092 216.466C36.9331 216.466 36.7092 216.242 36.7092 215.966C36.7092 215.69 36.9331 215.466 37.2092 215.466C43.174 215.466 46.9396 212.404 48.1026 210.513ZM32.0973 215.472C32.3702 215.514 32.5574 215.769 32.5154 216.042C32.4734 216.315 32.2181 216.502 31.9451 216.46C28.8601 215.985 26.3402 215.288 24.4414 213.996C22.5171 212.687 21.2738 210.799 20.6847 208.048C20.6268 207.778 20.7989 207.512 21.0689 207.454C21.3389 207.396 21.6047 207.569 21.6625 207.839C22.2053 210.373 23.3202 212.024 25.0038 213.169C26.7131 214.332 29.051 215.003 32.0973 215.472ZM38.9162 225.882C38.93 225.877 38.9441 225.872 38.9583 225.868C41.0235 225.278 46.7539 222.122 52.3663 214.26C53.6887 212.407 54.106 210.045 53.8598 207.38C53.6134 204.714 52.706 201.786 51.4305 198.857C48.8798 193.001 44.8995 187.235 42.0109 183.72C41.2463 182.789 39.8009 181.132 37.3898 180.525C35.0037 179.924 31.5402 180.323 26.6781 183.791C16.709 193.045 16.3494 204.894 17.4049 209.669C25.2609 226.474 35.1696 227.324 38.9162 225.882Z" stroke="black" stroke-opacity="0.18" stroke-linecap="round" stroke-linejoin="round"/>
</g>
<defs>
<filter id="filter0_d_513_1887" x="0.826172" y="0.482422" width="63.6006" height="241.384" filterUnits="userSpaceOnUse" color-interpolation-filters="sRGB">
<feFlood flood-opacity="0" result="BackgroundImageFix"/>
<feColorMatrix in="SourceAlpha" type="matrix" values="0 0 0 0 0 0 0 0 0 0 0 0 0 0 0 0 0 0 127 0" result="hardAlpha"/>
<feOffset dy="5"/>
<feGaussianBlur stdDeviation="5"/>
<feComposite in2="hardAlpha" operator="out"/>
<feColorMatrix type="matrix" values="0 0 0 0 0 0 0 0 0 0 0 0 0 0 0 0 0 0 0.35 0"/>
<feBlend mode="normal" in2="BackgroundImageFix" result="effect1_dropShadow_513_1887"/>
<feBlend mode="normal" in="SourceGraphic" in2="effect1_dropShadow_513_1887" result="shape"/>
</filter>
<radialGradient id="paint0_radial_513_1887" cx="0" cy="0" r="1" gradientUnits="userSpaceOnUse" gradientTransform="translate(30.6973 112.78) rotate(90) scale(30.8312 19.8711)">
<stop offset="0.56179" stop-color="white"/>
<stop offset="1" stop-color="#CAC9C2"/>
</radialGradient>
<radialGradient id="paint1_diamond_513_1887" cx="0" cy="0" r="1" gradientUnits="userSpaceOnUse" gradientTransform="translate(32.0647 52.1955) rotate(90) scale(46.7131 14.1521)">
<stop stop-color="#F9E7C9"/>
<stop offset="1" stop-color="#E7BA8B"/>
</radialGradient>
<radialGradient id="paint2_radial_513_1887" cx="0" cy="0" r="1" gradientUnits="userSpaceOnUse" gradientTransform="translate(35.464 203.33) rotate(90) scale(23.5365 18.9628)">
<stop offset="0.56179" stop-color="white"/>
<stop offset="1" stop-color="#CAC9C2"/>
</radialGradient>
</defs>
</svg>
