<svg width="63" height="226" viewBox="0 0 63 226" fill="none" xmlns="http://www.w3.org/2000/svg">
<g filter="url(#filter0_d_661_295)">
<path d="M46.0582 95.6274L41.3405 87.1325L27.659 81.4692C27.1872 81.6266 24.6396 85.056 18.2235 97.5152C11.8074 109.974 10.5179 126.303 10.6751 132.911C10.6751 133.225 12.3735 135.082 19.167 139.99C25.9606 144.898 30.8041 142.979 32.3767 141.405C34.2638 139.203 39.2647 134.421 44.1711 132.911C50.3042 131.023 51.2477 122.056 49.8324 119.696C48.7001 117.809 46.8445 102.864 46.0582 95.6274Z" fill="url(#paint0_radial_661_295)"/>
<g clip-path="url(#paint1_diamond_661_295_clip_path)" data-figma-skip-parse="true"><g transform="matrix(0 0.0467131 0.0141532 0 31.9035 51.7131)"><rect x="0" y="0" width="1021.41" height="1070.66" fill="url(#paint1_diamond_661_295)" opacity="1" shape-rendering="crispEdges"/><rect x="0" y="0" width="1021.41" height="1070.66" transform="scale(1 -1)" fill="url(#paint1_diamond_661_295)" opacity="1" shape-rendering="crispEdges"/><rect x="0" y="0" width="1021.41" height="1070.66" transform="scale(-1 1)" fill="url(#paint1_diamond_661_295)" opacity="1" shape-rendering="crispEdges"/><rect x="0" y="0" width="1021.41" height="1070.66" transform="scale(-1)" fill="url(#paint1_diamond_661_295)" opacity="1" shape-rendering="crispEdges"/></g></g><path d="M43.6978 52.2047C44.83 63.9088 45.5849 86.027 46.0566 95.6231C44.1695 95.3085 40.1123 93.7354 37.093 89.9599C34.0736 86.1844 29.8591 88.3867 28.1293 89.9599C25.2986 91.8476 17.7503 102.702 17.7503 96.567C17.7503 90.4318 21.9962 58.3399 23.4115 41.8221C24.5438 28.6078 33.3188 12.4045 37.5647 5.95468C39.2946 4.69618 42.4712 3.68937 41.3389 9.73019C39.9236 17.2812 42.2825 37.5746 43.6978 52.2047Z" data-figma-gradient-fill="{&#34;type&#34;:&#34;GRADIENT_DIAMOND&#34;,&#34;stops&#34;:[{&#34;color&#34;:{&#34;r&#34;:0.97647058963775635,&#34;g&#34;:0.90588235855102539,&#34;b&#34;:0.78823530673980713,&#34;a&#34;:1.0},&#34;position&#34;:0.0},{&#34;color&#34;:{&#34;r&#34;:0.90588235855102539,&#34;g&#34;:0.7294117808341980,&#34;b&#34;:0.54509806632995605,&#34;a&#34;:1.0},&#34;position&#34;:1.0}],&#34;stopsVar&#34;:[{&#34;color&#34;:{&#34;r&#34;:0.97647058963775635,&#34;g&#34;:0.90588235855102539,&#34;b&#34;:0.78823530673980713,&#34;a&#34;:1.0},&#34;position&#34;:0.0},{&#34;color&#34;:{&#34;r&#34;:0.90588235855102539,&#34;g&#34;:0.7294117808341980,&#34;b&#34;:0.54509806632995605,&#34;a&#34;:1.0},&#34;position&#34;:1.0}],&#34;transform&#34;:{&#34;m00&#34;:-1.7332659440328193e-15,&#34;m01&#34;:28.306379318237305,&#34;m02&#34;:17.750261306762695,&#34;m10&#34;:93.426185607910156,&#34;m11&#34;:5.7207042481767761e-15,&#34;m12&#34;:5.0},&#34;opacity&#34;:1.0,&#34;blendMode&#34;:&#34;NORMAL&#34;,&#34;visible&#34;:true}"/>
<path d="M50.8523 175.413C56.512 183.342 46.2932 199.482 40.4763 206.561C38.9252 208.449 34.3451 213.64 24.4407 206.561C14.2533 197.122 13.9075 185.009 15.0079 180.132C22.9314 163.143 33.0874 162.041 37.1749 163.615C39.3758 164.244 45.1927 167.484 50.8523 175.413Z" fill="url(#paint2_radial_661_295)"/>
<path d="M46.6076 179.189C45.3499 177.143 41.4196 173.997 35.2883 173.997M30.1003 173.997C23.969 174.941 20.3846 176.734 19.2527 182.02M46.1817 179.45C46.3264 179.686 46.6343 179.759 46.8695 179.614C47.1048 179.47 47.1782 179.162 47.0335 178.927C45.6811 176.728 41.5861 173.497 35.2883 173.497C35.0122 173.497 34.7883 173.721 34.7883 173.997C34.7883 174.273 35.0122 174.497 35.2883 174.497C41.2531 174.497 45.0187 177.559 46.1817 179.45ZM30.1764 174.491C30.4493 174.449 30.6365 174.194 30.5945 173.921C30.5525 173.648 30.2972 173.461 30.0242 173.503C26.9392 173.978 24.4193 174.676 22.5205 175.967C20.5962 177.276 19.3529 179.164 18.7638 181.915C18.7059 182.185 18.878 182.451 19.148 182.509C19.418 182.567 19.6838 182.395 19.7416 182.125C20.2844 179.59 21.3993 177.939 23.0829 176.794C24.7922 175.631 27.1301 174.96 30.1764 174.491ZM36.9953 164.081C37.0091 164.086 37.0232 164.091 37.0374 164.095C39.1026 164.686 44.833 167.841 50.4454 175.704C51.7678 177.556 52.1851 179.918 51.9389 182.583C51.6925 185.25 50.7851 188.177 49.5096 191.106C46.9589 196.963 42.9786 202.728 40.09 206.244C39.3254 207.174 37.88 208.832 35.4689 209.439C33.0828 210.04 29.6193 209.64 24.7572 206.173C14.7881 196.918 14.4285 185.069 15.4841 180.295C23.34 163.489 33.2487 162.639 36.9953 164.081Z" stroke="black" stroke-opacity="0.18" stroke-linecap="round" stroke-linejoin="round"/>
</g>
<defs>
<filter id="filter0_d_661_295" x="0.663086" y="0" width="61.8428" height="225.17" filterUnits="userSpaceOnUse" color-interpolation-filters="sRGB">
<feFlood flood-opacity="0" result="BackgroundImageFix"/>
<feColorMatrix in="SourceAlpha" type="matrix" values="0 0 0 0 0 0 0 0 0 0 0 0 0 0 0 0 0 0 127 0" result="hardAlpha"/>
<feOffset dy="5"/>
<feGaussianBlur stdDeviation="5"/>
<feComposite in2="hardAlpha" operator="out"/>
<feColorMatrix type="matrix" values="0 0 0 0 0 0 0 0 0 0 0 0 0 0 0 0 0 0 0.35 0"/>
<feBlend mode="normal" in2="BackgroundImageFix" result="effect1_dropShadow_661_295"/>
<feBlend mode="normal" in="SourceGraphic" in2="effect1_dropShadow_661_295" result="shape"/>
</filter>
<clipPath id="paint1_diamond_661_295_clip_path"><path d="M43.6978 52.2047C44.83 63.9088 45.5849 86.027 46.0566 95.6231C44.1695 95.3085 40.1123 93.7354 37.093 89.9599C34.0736 86.1844 29.8591 88.3867 28.1293 89.9599C25.2986 91.8476 17.7503 102.702 17.7503 96.567C17.7503 90.4318 21.9962 58.3399 23.4115 41.8221C24.5438 28.6078 33.3188 12.4045 37.5647 5.95468C39.2946 4.69618 42.4712 3.68937 41.3389 9.73019C39.9236 17.2812 42.2825 37.5746 43.6978 52.2047Z"/></clipPath><radialGradient id="paint0_radial_661_295" cx="0" cy="0" r="1" gradientUnits="userSpaceOnUse" gradientTransform="translate(30.5355 112.3) rotate(90) scale(30.8312 19.8727)">
<stop offset="0.56179" stop-color="white"/>
<stop offset="1" stop-color="#CAC9C2"/>
</radialGradient>
<linearGradient id="paint1_diamond_661_295" x1="0" y1="0" x2="500" y2="500" gradientUnits="userSpaceOnUse">
<stop stop-color="#F9E7C9"/>
<stop offset="1" stop-color="#E7BA8B"/>
</linearGradient>
<radialGradient id="paint2_radial_661_295" cx="0" cy="0" r="1" gradientUnits="userSpaceOnUse" gradientTransform="translate(33.5431 186.634) rotate(-90) scale(23.5365 18.9628)">
<stop offset="0.56179" stop-color="white"/>
<stop offset="1" stop-color="#CAC9C2"/>
</radialGradient>
</defs>
</svg>
