<svg width="65" height="241" viewBox="0 0 65 241" fill="none" xmlns="http://www.w3.org/2000/svg">
<g filter="url(#filter0_d_513_1891)">
<path d="M44.6924 91.2031C42.4908 75.1572 38.0878 42.0271 38.0878 37.874C38.0878 32.6827 38.0878 3.89444 34.3137 5.31026C30.5397 6.72607 29.5962 11.9174 29.1244 12.3893C28.747 12.7669 25.8221 32.3681 24.4068 42.1215V14.749C24.5234 12.4163 23.9485 9.91062 21.9128 11.4637C19.6721 13.1733 18.9329 16.1646 18.2999 18.9111C16.3673 27.2956 13.4138 38.3735 12.6129 41.1776C11.9839 45.897 11.4807 64.397 14.4999 100.642C17.5192 136.887 35.8863 109.451 44.6924 91.2031Z" fill="url(#paint0_diamond_513_1891)"/>
<path d="M36.2011 87.4315C37.9591 89.1902 40.3717 90.0711 42.2989 90.4637C43.1718 90.6415 44.8162 92.2358 45.0103 93.1052C45.6031 95.7609 46.7878 100.011 47.5233 102.534C50.0393 109.77 53.5618 124.809 47.5233 127.074C39.9751 129.906 38.5599 131.794 36.6728 133.681C35.1632 135.192 30.6973 135.569 28.653 135.569C23.3064 133.996 13.1793 129.528 11.6697 124.243C10.1601 118.957 10.7262 110.714 11.6697 107.253C12.5332 104.662 13.3966 99.6986 13.5369 95.9813C13.5578 95.4294 14.0047 94.9763 14.5477 94.8753C17.9225 94.2476 24.5484 91.0186 25.8224 89.3192C26.7659 86.9595 32.8988 84.1279 36.2011 87.4315Z" fill="url(#paint1_radial_513_1891)"/>
<path d="M46.0182 175.554C44.9317 174.308 43.5243 173.469 42.0607 172.846C39.1817 171.62 35.9859 171.249 32.8631 171.443C32.7901 171.447 32.7191 171.452 32.6498 171.458C31.0071 171.582 29.2969 171.782 27.8929 172.644C22.1567 176.164 17.5347 190.462 15.5895 197.811C15.2751 199.227 14.7523 203.003 15.8842 206.779C17.2991 211.498 25.7886 220.937 31.9199 223.769C36.8249 226.034 41.1954 225.342 42.7675 224.712C52.2002 217.161 50.7853 217.161 53.6152 210.554C55.462 206.242 54.5048 198.496 53.4067 193.312C52.9746 191.272 52.1377 189.349 51.2447 187.465C50.7656 186.455 50.2747 185.364 49.8129 184.307C48.535 181.383 48.1166 177.959 46.0182 175.554Z" fill="url(#paint2_radial_513_1891)"/>
<path d="M43.1168 195.283C43.2328 198.832 44.2132 202.978 47.0122 206.779M42.5703 195.839C40.8905 197.42 36.4627 198.727 28.6425 194.321M43.7151 187.723C43.8124 187.468 44.0967 187.338 44.3535 187.431C44.6103 187.525 44.7444 187.807 44.6547 188.065C44.4457 188.667 44.2696 189.262 44.1233 189.85C43.2186 193.753 43.0498 200.554 47.4149 206.482C47.5755 206.7 47.5332 207.007 47.3195 207.173C47.1057 207.34 46.7983 207.306 46.6262 207.096C45.136 205.286 43.0477 201.401 42.6157 196.464C40.5667 198.092 35.9998 198.97 28.616 194.879C28.4841 196.92 27.8973 200.798 26.2553 205.07C26.1562 205.328 25.867 205.457 25.6092 205.358C25.3514 205.259 25.2228 204.969 25.3219 204.712C27.1774 199.884 27.6423 195.59 27.6467 194.059L26.7056 183.699C26.6806 183.424 26.8833 183.181 27.1583 183.156C27.4333 183.131 27.6765 183.333 27.7015 183.608L28.6213 193.733C37.1992 198.663 41.4307 196.568 42.5415 195.13C42.5001 193.391 42.6735 191.539 43.1509 189.616C43.3206 188.886 43.5157 188.247 43.7151 187.723ZM45.6414 175.882C44.6223 174.714 43.2891 173.912 41.8648 173.306C39.074 172.118 35.9596 171.751 32.8941 171.942C32.8233 171.946 32.7546 171.951 32.6875 171.956C31.04 172.081 29.4438 172.279 28.1544 173.07C26.8129 173.894 25.4972 175.375 24.243 177.301C22.9938 179.219 21.8304 181.537 20.7791 183.989C18.6785 188.887 17.045 194.268 16.0755 197.929C15.7704 199.31 15.2679 202.982 16.3632 206.635C16.695 207.742 17.4574 209.167 18.537 210.744C19.6116 212.313 20.981 214.005 22.4999 215.641C25.5482 218.926 29.1508 221.939 32.1295 223.315C36.832 225.486 41.0039 224.849 42.5146 224.274C47.1958 220.525 49.1266 218.69 50.2513 217.002C50.8118 216.161 51.1797 215.344 51.5877 214.309C51.7042 214.013 51.8243 213.699 51.9533 213.361C52.2738 212.522 52.6486 211.541 53.1555 210.357C54.033 208.309 54.2606 205.388 54.1158 202.283C53.9717 199.195 53.4629 195.99 52.9175 193.415C52.4984 191.437 51.6837 189.559 50.7929 187.68C50.311 186.663 49.8179 185.567 49.3547 184.507C48.914 183.499 48.567 182.413 48.2298 181.359C48.0709 180.862 47.9141 180.371 47.7507 179.899C47.2298 178.393 46.6259 177.011 45.6414 175.882Z" stroke="black" stroke-opacity="0.18" stroke-linecap="round" stroke-linejoin="round"/>
</g>
<defs>
<filter id="filter0_d_513_1891" x="0.738281" y="0.259766" width="63.918" height="240.068" filterUnits="userSpaceOnUse" color-interpolation-filters="sRGB">
<feFlood flood-opacity="0" result="BackgroundImageFix"/>
<feColorMatrix in="SourceAlpha" type="matrix" values="0 0 0 0 0 0 0 0 0 0 0 0 0 0 0 0 0 0 127 0" result="hardAlpha"/>
<feOffset dy="5"/>
<feGaussianBlur stdDeviation="5"/>
<feComposite in2="hardAlpha" operator="out"/>
<feColorMatrix type="matrix" values="0 0 0 0 0 0 0 0 0 0 0 0 0 0 0 0 0 0 0.35 0"/>
<feBlend mode="normal" in2="BackgroundImageFix" result="effect1_dropShadow_513_1891"/>
<feBlend mode="normal" in="SourceGraphic" in2="effect1_dropShadow_513_1891" result="shape"/>
</filter>
<radialGradient id="paint0_diamond_513_1891" cx="0" cy="0" r="1" gradientUnits="userSpaceOnUse" gradientTransform="translate(28.4141 61.8437) rotate(90) scale(56.584 16.2783)">
<stop stop-color="#F9E7C9"/>
<stop offset="1" stop-color="#E7BA8B"/>
</radialGradient>
<radialGradient id="paint1_radial_513_1891" cx="0" cy="0" r="1" gradientUnits="userSpaceOnUse" gradientTransform="translate(30.7976 110.748) rotate(90) scale(24.8208 20.0598)">
<stop offset="0.56179" stop-color="white"/>
<stop offset="1" stop-color="#CAC9C2"/>
</radialGradient>
<radialGradient id="paint2_radial_513_1891" cx="0" cy="0" r="1" gradientUnits="userSpaceOnUse" gradientTransform="translate(34.9237 198.356) rotate(90) scale(26.9724 19.7325)">
<stop offset="0.56179" stop-color="white"/>
<stop offset="1" stop-color="#CAC9C2"/>
</radialGradient>
</defs>
</svg>
