<svg width="64" height="265" viewBox="0 0 64 265" fill="none" xmlns="http://www.w3.org/2000/svg">
<g filter="url(#filter0_d_661_290)">
<g clip-path="url(#paint0_diamond_661_290_clip_path)" data-figma-skip-parse="true"><g transform="matrix(0 0.056584 0.0162789 0 28.6186 62.2598)"><rect x="0" y="0" width="1017.67" height="1061.43" fill="url(#paint0_diamond_661_290)" opacity="1" shape-rendering="crispEdges"/><rect x="0" y="0" width="1017.67" height="1061.43" transform="scale(1 -1)" fill="url(#paint0_diamond_661_290)" opacity="1" shape-rendering="crispEdges"/><rect x="0" y="0" width="1017.67" height="1061.43" transform="scale(-1 1)" fill="url(#paint0_diamond_661_290)" opacity="1" shape-rendering="crispEdges"/><rect x="0" y="0" width="1017.67" height="1061.43" transform="scale(-1)" fill="url(#paint0_diamond_661_290)" opacity="1" shape-rendering="crispEdges"/></g></g><path d="M44.8975 91.6191C42.6959 75.5732 38.2926 42.4431 38.2926 38.2901C38.2926 33.0987 38.2926 4.31045 34.5185 5.72627C30.7443 7.14209 29.8007 12.3334 29.3289 12.8054C28.9515 13.1829 26.0265 32.7841 24.6112 42.5375V15.1651C24.7278 12.8323 24.1528 10.3267 22.1172 11.8797C19.8763 13.5893 19.1371 16.5807 18.504 19.3272C16.5714 27.7117 13.6178 38.7895 12.8169 41.5936C12.1879 46.313 11.6846 64.813 14.704 101.058C17.7233 137.303 36.091 109.867 44.8975 91.6191Z" data-figma-gradient-fill="{&#34;type&#34;:&#34;GRADIENT_DIAMOND&#34;,&#34;stops&#34;:[{&#34;color&#34;:{&#34;r&#34;:0.97647058963775635,&#34;g&#34;:0.90588235855102539,&#34;b&#34;:0.78823530673980713,&#34;a&#34;:1.0},&#34;position&#34;:0.0},{&#34;color&#34;:{&#34;r&#34;:0.90588235855102539,&#34;g&#34;:0.7294117808341980,&#34;b&#34;:0.54509806632995605,&#34;a&#34;:1.0},&#34;position&#34;:1.0}],&#34;stopsVar&#34;:[{&#34;color&#34;:{&#34;r&#34;:0.97647058963775635,&#34;g&#34;:0.90588235855102539,&#34;b&#34;:0.78823530673980713,&#34;a&#34;:1.0},&#34;position&#34;:0.0},{&#34;color&#34;:{&#34;r&#34;:0.90588235855102539,&#34;g&#34;:0.7294117808341980,&#34;b&#34;:0.54509806632995605,&#34;a&#34;:1.0},&#34;position&#34;:1.0}],&#34;transform&#34;:{&#34;m00&#34;:-1.9935869090530883e-15,&#34;m01&#34;:32.557743072509766,&#34;m02&#34;:12.339717864990234,&#34;m10&#34;:113.16796112060547,&#34;m11&#34;:6.9295392720377519e-15,&#34;m12&#34;:5.675781250},&#34;opacity&#34;:1.0,&#34;blendMode&#34;:&#34;NORMAL&#34;,&#34;visible&#34;:true}"/>
<path d="M36.4057 87.8455C38.1638 89.6042 40.5764 90.4852 42.5037 90.8778C43.3766 91.0556 45.0211 92.6499 45.2152 93.5193C45.808 96.175 46.9927 100.425 47.7282 102.948C50.2443 110.184 53.7669 125.223 47.7282 127.488C40.1799 130.32 38.7645 132.208 36.8774 134.096C35.3678 135.606 30.9016 135.983 28.8573 135.983C23.5105 134.41 13.3831 129.942 11.8735 124.657C10.3638 119.371 10.9299 111.128 11.8735 107.667C12.7369 105.076 13.6004 100.113 13.7407 96.3954C13.7616 95.8435 14.2085 95.3903 14.7515 95.2894C18.1264 94.6617 24.7526 91.4326 26.0267 89.7333C26.9702 87.3736 33.1033 84.542 36.4057 87.8455Z" fill="url(#paint1_radial_661_290)"/>
<path d="M44.9108 156.548C43.8243 155.302 42.4169 154.463 40.9532 153.84C38.0743 152.614 34.8785 152.243 31.7557 152.437C31.6827 152.442 31.6117 152.446 31.5423 152.452C29.8997 152.576 28.1895 152.776 26.7854 153.638C21.0493 157.159 16.4272 171.456 14.4821 178.805C14.1676 180.221 13.6449 183.997 14.7768 187.773C16.1917 192.492 24.6812 201.931 30.8124 204.763C35.7175 207.028 40.088 206.336 41.6601 205.707C51.0928 198.156 49.6779 198.156 52.5077 191.548C54.3546 187.236 53.3974 179.49 52.2992 174.306C51.8672 172.266 51.0303 170.344 50.1372 168.46C49.6582 167.449 49.1672 166.358 48.7055 165.301C47.4276 162.377 47.0091 158.953 44.9108 156.548Z" fill="url(#paint2_radial_661_290)"/>
<path d="M42.0093 176.277C42.1254 179.826 43.1058 183.972 45.9048 187.773M41.4629 176.833C39.7831 178.414 35.3553 179.721 27.5351 175.315M42.6077 168.717C42.705 168.462 42.9893 168.332 43.2461 168.425C43.5029 168.519 43.637 168.801 43.5473 169.059C43.3383 169.661 43.1621 170.256 43.0159 170.844C42.1112 174.747 41.9424 181.549 46.3074 187.476C46.4681 187.695 46.4258 188.001 46.212 188.167C45.9983 188.334 45.6909 188.3 45.5188 188.091C44.0286 186.28 41.9403 182.395 41.5082 177.458C39.4592 179.086 34.8924 179.965 27.5085 175.873C27.3767 177.914 26.7899 181.792 25.1479 186.065C25.0488 186.322 24.7595 186.451 24.5018 186.352C24.244 186.253 24.1154 185.963 24.2145 185.706C26.07 180.878 26.5348 176.584 26.5393 175.053L25.5981 164.693C25.5731 164.418 25.7758 164.175 26.0508 164.15C26.3259 164.125 26.569 164.328 26.594 164.603L27.5139 174.728C36.0918 179.657 40.3233 177.563 41.434 176.125C41.3927 174.385 41.5661 172.533 42.0435 170.61C42.2131 169.88 42.4083 169.241 42.6077 168.717ZM44.534 156.876C43.5149 155.708 42.1817 154.906 40.7574 154.3C37.9666 153.112 34.8522 152.745 31.7867 152.936C31.7159 152.94 31.6471 152.945 31.5801 152.95C29.9326 153.075 28.3364 153.273 27.047 154.064C25.7054 154.888 24.3898 156.37 23.1356 158.295C21.8864 160.213 20.723 162.532 19.6716 164.983C17.571 169.881 15.9375 175.262 14.968 178.923C14.663 180.304 14.1605 183.976 15.2557 187.629C15.5876 188.736 16.35 190.161 17.4296 191.738C18.5042 193.307 19.8735 194.999 21.3925 196.636C24.4407 199.92 28.0433 202.933 31.0221 204.309C35.7246 206.481 39.8965 205.843 41.4072 205.269C46.0884 201.519 48.0192 199.684 49.1439 197.996C49.7043 197.155 50.0723 196.338 50.4803 195.303C50.5967 195.007 50.7169 194.693 50.8459 194.355C51.1664 193.516 51.5412 192.535 52.0481 191.352C52.9256 189.303 53.1532 186.382 53.0084 183.278C52.8643 180.189 52.3555 176.984 51.8101 174.41C51.391 172.431 50.5763 170.553 49.6854 168.674C49.2036 167.657 48.7104 166.562 48.2473 165.502C47.8066 164.493 47.4596 163.407 47.1224 162.353C46.9634 161.856 46.8066 161.365 46.6433 160.893C46.1224 159.388 45.5185 158.005 44.534 156.876Z" stroke="black" stroke-opacity="0.18" stroke-linecap="round" stroke-linejoin="round"/>
<g filter="url(#filter1_d_661_290)">
<path d="M50.6572 231.516C52.7749 227.354 52.4219 220.863 51.9807 218.138C50.6572 215.908 39.4066 209.219 33.4504 211.449C27.4943 213.678 24.8471 212.192 22.8617 218.138C21.2734 222.895 23.5235 233.003 24.8471 237.462C26.1707 240.187 30.0091 246.232 34.774 248.611C40.7302 251.584 48.01 236.719 50.6572 231.516Z" fill="url(#paint3_radial_661_290)"/>
<path d="M50.6572 231.516C52.7749 227.354 52.4219 220.863 51.9807 218.138C50.6572 215.908 39.4066 209.219 33.4504 211.449C27.4943 213.678 24.8471 212.192 22.8617 218.138C21.2734 222.895 23.5235 233.003 24.8471 237.462C26.1707 240.187 30.0091 246.232 34.774 248.611C40.7302 251.584 48.01 236.719 50.6572 231.516Z" stroke="#CBCBCB"/>
</g>
</g>
<defs>
<filter id="filter0_d_661_290" x="0.941406" y="0.675781" width="62.6074" height="263.825" filterUnits="userSpaceOnUse" color-interpolation-filters="sRGB">
<feFlood flood-opacity="0" result="BackgroundImageFix"/>
<feColorMatrix in="SourceAlpha" type="matrix" values="0 0 0 0 0 0 0 0 0 0 0 0 0 0 0 0 0 0 127 0" result="hardAlpha"/>
<feOffset dy="5"/>
<feGaussianBlur stdDeviation="5"/>
<feComposite in2="hardAlpha" operator="out"/>
<feColorMatrix type="matrix" values="0 0 0 0 0 0 0 0 0 0 0 0 0 0 0 0 0 0 0.35 0"/>
<feBlend mode="normal" in2="BackgroundImageFix" result="effect1_dropShadow_661_290"/>
<feBlend mode="normal" in="SourceGraphic" in2="effect1_dropShadow_661_290" result="shape"/>
</filter>
<clipPath id="paint0_diamond_661_290_clip_path"><path d="M44.8975 91.6191C42.6959 75.5732 38.2926 42.4431 38.2926 38.2901C38.2926 33.0987 38.2926 4.31045 34.5185 5.72627C30.7443 7.14209 29.8007 12.3334 29.3289 12.8054C28.9515 13.1829 26.0265 32.7841 24.6112 42.5375V15.1651C24.7278 12.8323 24.1528 10.3267 22.1172 11.8797C19.8763 13.5893 19.1371 16.5807 18.504 19.3272C16.5714 27.7117 13.6178 38.7895 12.8169 41.5936C12.1879 46.313 11.6846 64.813 14.704 101.058C17.7233 137.303 36.091 109.867 44.8975 91.6191Z"/></clipPath><filter id="filter1_d_661_290" x="17.8154" y="210.5" width="39" height="47.0006" filterUnits="userSpaceOnUse" color-interpolation-filters="sRGB">
<feFlood flood-opacity="0" result="BackgroundImageFix"/>
<feColorMatrix in="SourceAlpha" type="matrix" values="0 0 0 0 0 0 0 0 0 0 0 0 0 0 0 0 0 0 127 0" result="hardAlpha"/>
<feOffset dy="4"/>
<feGaussianBlur stdDeviation="2"/>
<feComposite in2="hardAlpha" operator="out"/>
<feColorMatrix type="matrix" values="0 0 0 0 0 0 0 0 0 0 0 0 0 0 0 0 0 0 0.25 0"/>
<feBlend mode="normal" in2="BackgroundImageFix" result="effect1_dropShadow_661_290"/>
<feBlend mode="normal" in="SourceGraphic" in2="effect1_dropShadow_661_290" result="shape"/>
</filter>
<linearGradient id="paint0_diamond_661_290" x1="0" y1="0" x2="500" y2="500" gradientUnits="userSpaceOnUse">
<stop stop-color="#F9E7C9"/>
<stop offset="1" stop-color="#E7BA8B"/>
</linearGradient>
<radialGradient id="paint1_radial_661_290" cx="0" cy="0" r="1" gradientUnits="userSpaceOnUse" gradientTransform="translate(31.002 111.163) rotate(90) scale(24.8208 20.0605)">
<stop offset="0.56179" stop-color="white"/>
<stop offset="1" stop-color="#CAC9C2"/>
</radialGradient>
<radialGradient id="paint2_radial_661_290" cx="0" cy="0" r="1" gradientUnits="userSpaceOnUse" gradientTransform="translate(33.8163 179.35) rotate(90) scale(26.9724 19.7325)">
<stop offset="0.56179" stop-color="white"/>
<stop offset="1" stop-color="#CAC9C2"/>
</radialGradient>
<radialGradient id="paint3_radial_661_290" cx="0" cy="0" r="1" gradientUnits="userSpaceOnUse" gradientTransform="translate(37.3154 230) rotate(90) scale(19 15)">
<stop offset="0.505" stop-color="white"/>
<stop offset="1" stop-color="#D9D9D9"/>
</radialGradient>
</defs>
</svg>
