<svg width="64" height="233" viewBox="0 0 64 233" fill="none" xmlns="http://www.w3.org/2000/svg">
<g filter="url(#filter0_d_513_1895)">
<path d="M40.1268 78.2423C42.7687 86.926 43.1146 91.6139 42.9574 92.8724L13.708 103.727V77.7704C13.2362 71.0059 13.8023 54.551 19.8409 42.8469C25.8795 31.1428 28.3327 17.5195 28.8044 12.1709C31.1633 5.0918 32.1068 5.0918 35.4091 5.0918C38.051 5.0918 37.768 26.1717 37.2962 36.7117C37.1389 46.937 37.4849 69.5587 40.1268 78.2423Z" fill="url(#paint0_diamond_513_1895)"/>
<path d="M47.6765 101.366C44.8667 96.7662 44.3476 93.6368 44.3055 91.8017C44.2877 91.0245 43.512 90.5368 42.7664 90.7569C41.3661 91.1703 39.2594 91.2713 36.8259 89.5672C32.1082 86.2636 25.5035 86.7356 23.6165 89.0953C21.7294 91.455 14.6529 96.1744 13.7094 96.1744C12.7659 96.1744 9.9353 113.636 10.8788 120.715C11.8224 127.794 30.6929 136.761 33.0518 133.458C34.4144 131.549 39.3028 128.378 43.4541 125.933C46.1499 124.345 48.3539 121.95 49.0388 118.897C50.2214 113.627 50.7482 106.394 47.6765 101.366Z" fill="url(#paint1_radial_513_1895)"/>
<path d="M46.4767 213.694C58.9279 202.367 52.7651 179.714 48.3632 169.803C44.1185 162.252 41.2886 161.78 32.3275 161.78C23.3664 161.78 19.1217 177.826 16.2919 189.153C13.4621 200.479 30.9127 227.852 46.4767 213.694Z" fill="url(#paint2_radial_513_1895)"/>
<path d="M30.6737 186.568C32.3185 188.527 38.1189 190.102 41.1829 188.11M29.0008 176.466C28.9703 176.191 29.1681 175.944 29.4425 175.913C29.717 175.883 29.9642 176.081 29.9947 176.355C30.0605 176.948 30.1797 177.611 30.3107 178.34C30.674 180.361 31.1278 182.885 30.7818 185.801C30.9254 186.183 31.3652 186.651 32.1291 187.109C32.9235 187.586 33.9756 187.996 35.1171 188.252C37.3472 188.752 39.7276 188.626 41.1735 187.503C41.1718 182.855 42.8234 179.995 44.2811 178.849C44.4982 178.678 44.8125 178.716 44.9832 178.933C45.1538 179.15 45.1162 179.464 44.8991 179.635C43.7282 180.556 42.1179 183.156 42.1749 187.731C42.2124 190.737 42.9717 194.586 45.0482 199.335C45.1589 199.588 45.0434 199.883 44.7904 199.994C44.5374 200.104 44.2426 199.989 44.132 199.736C42.2166 195.355 41.3804 191.682 41.208 188.68C39.4257 189.7 36.9829 189.695 34.8983 189.228C33.6712 188.953 32.5156 188.507 31.6145 187.967C31.2252 187.733 30.8632 187.469 30.5625 187.179C29.9838 190.074 28.5785 193.345 25.6435 197.016C25.4711 197.232 25.1565 197.267 24.9408 197.094C24.7251 196.922 24.69 196.607 24.8625 196.392C28.131 192.303 29.4012 188.783 29.7762 185.787C30.1263 182.989 29.7089 180.668 29.3463 178.651C29.2079 177.882 29.0775 177.156 29.0008 176.466ZM46.1402 213.324C52.2017 207.81 53.7713 199.503 53.2409 191.25C52.7119 183.018 50.0978 174.947 47.9158 170.028C45.8143 166.294 44.1141 164.409 41.9087 163.416C39.6658 162.406 36.8313 162.28 32.3275 162.28C30.2528 162.28 28.4269 163.204 26.7908 164.82C25.148 166.443 23.7189 168.743 22.4635 171.431C19.9522 176.807 18.1937 183.603 16.777 189.274C16.105 191.963 16.6282 195.685 18.0937 199.581C19.5538 203.462 21.9236 207.447 24.855 210.642C27.7904 213.841 31.2539 216.21 34.8939 216.934C38.5053 217.653 42.356 216.766 46.1402 213.324Z" stroke="black" stroke-opacity="0.18" stroke-linecap="round" stroke-linejoin="round"/>
</g>
<defs>
<filter id="filter0_d_513_1895" x="0.688477" y="0.0917969" width="63.1484" height="232.574" filterUnits="userSpaceOnUse" color-interpolation-filters="sRGB">
<feFlood flood-opacity="0" result="BackgroundImageFix"/>
<feColorMatrix in="SourceAlpha" type="matrix" values="0 0 0 0 0 0 0 0 0 0 0 0 0 0 0 0 0 0 127 0" result="hardAlpha"/>
<feOffset dy="5"/>
<feGaussianBlur stdDeviation="5"/>
<feComposite in2="hardAlpha" operator="out"/>
<feColorMatrix type="matrix" values="0 0 0 0 0 0 0 0 0 0 0 0 0 0 0 0 0 0 0.35 0"/>
<feBlend mode="normal" in2="BackgroundImageFix" result="effect1_dropShadow_513_1895"/>
<feBlend mode="normal" in="SourceGraphic" in2="effect1_dropShadow_513_1895" result="shape"/>
</filter>
<radialGradient id="paint0_diamond_513_1895" cx="0" cy="0" r="1" gradientUnits="userSpaceOnUse" gradientTransform="translate(28.2842 54.4094) rotate(90) scale(49.3176 14.7051)">
<stop stop-color="#F9E7C9"/>
<stop offset="1" stop-color="#E7BA8B"/>
</radialGradient>
<radialGradient id="paint1_radial_513_1895" cx="0" cy="0" r="1" gradientUnits="userSpaceOnUse" gradientTransform="translate(30.3288 110.686) rotate(90) scale(23.4782 19.6399)">
<stop offset="0.56179" stop-color="white"/>
<stop offset="1" stop-color="#CAC9C2"/>
</radialGradient>
<radialGradient id="paint2_radial_513_1895" cx="0" cy="0" r="1" gradientUnits="userSpaceOnUse" gradientTransform="translate(34.9123 189.723) rotate(90) scale(27.9429 18.9246)">
<stop offset="0.56179" stop-color="white"/>
<stop offset="1" stop-color="#CAC9C2"/>
</radialGradient>
</defs>
</svg>
