<svg width="77" height="249" viewBox="0 0 77 249" fill="none" xmlns="http://www.w3.org/2000/svg">
<g filter="url(#filter0_d_661_278)">
<path d="M34.3866 11.3871C36.6455 15.4546 41.9328 23.8499 45.6913 27.8697C46.0093 28.2098 46.2575 28.6069 46.4047 29.0487L48.4196 35.0955C48.4994 35.3349 48.5486 35.5834 48.5662 35.8351L49.8201 53.8146C49.9023 54.9921 49.2863 56.1084 48.2463 56.6666L33.5823 64.5378C32.001 65.3867 30.0331 64.6664 29.3735 62.9972L22.9984 46.8664C22.7362 46.203 22.7209 45.4707 22.9368 44.7908C24.8848 38.6561 26.9965 28.7169 29.6688 26.4892C30.5387 25.7641 29.9834 18.4662 29.6688 12.803C29.6688 7.61163 32.2898 7.61161 34.3866 11.3871Z" fill="url(#paint0_linear_661_278)"/>
<g filter="url(#filter1_d_661_278)">
<g clip-path="url(#paint1_diamond_661_278_clip_path)" data-figma-skip-parse="true"><g transform="matrix(0 0.0434403 0.0225686 0 34.3269 49.2772)"><rect x="0" y="0" width="1023.02" height="1044.31" fill="url(#paint1_diamond_661_278)" opacity="1" shape-rendering="crispEdges"/><rect x="0" y="0" width="1023.02" height="1044.31" transform="scale(1 -1)" fill="url(#paint1_diamond_661_278)" opacity="1" shape-rendering="crispEdges"/><rect x="0" y="0" width="1023.02" height="1044.31" transform="scale(-1 1)" fill="url(#paint1_diamond_661_278)" opacity="1" shape-rendering="crispEdges"/><rect x="0" y="0" width="1023.02" height="1044.31" transform="scale(-1)" fill="url(#paint1_diamond_661_278)" opacity="1" shape-rendering="crispEdges"/></g></g><path d="M55.6158 38.291C57.4 44.9841 57.2013 69.3027 55.743 82.0669C55.6645 82.7542 55.3419 83.3855 54.8405 83.8621L46.9982 91.3149C46.471 91.8159 45.7799 92.1085 45.0532 92.1369C33.1251 92.6037 11.5878 93.1892 12.6845 92.092C13.8168 90.9594 13.1563 74.001 12.6845 65.6635C11.2692 53.5504 10.42 26.3038 18.3458 14.2221C28.253 -0.879931 17.874 34.9874 26.3659 50.5614C34.8578 66.1354 34.386 58.5844 39.1038 51.0333C42.878 44.9925 42.249 22.2451 41.4627 10.4466C40.8503 1.25766 49.7226 7.81759 49.9546 12.8063C50.2691 19.5707 53.7288 31.2119 55.6158 38.291Z" data-figma-gradient-fill="{&#34;type&#34;:&#34;GRADIENT_DIAMOND&#34;,&#34;stops&#34;:[{&#34;color&#34;:{&#34;r&#34;:0.97647058963775635,&#34;g&#34;:0.90588235855102539,&#34;b&#34;:0.78823530673980713,&#34;a&#34;:1.0},&#34;position&#34;:0.0},{&#34;color&#34;:{&#34;r&#34;:0.90588235855102539,&#34;g&#34;:0.7294117808341980,&#34;b&#34;:0.54509806632995605,&#34;a&#34;:1.0},&#34;position&#34;:1.0}],&#34;stopsVar&#34;:[{&#34;color&#34;:{&#34;r&#34;:0.97647058963775635,&#34;g&#34;:0.90588235855102539,&#34;b&#34;:0.78823530673980713,&#34;a&#34;:1.0},&#34;position&#34;:0.0},{&#34;color&#34;:{&#34;r&#34;:0.90588235855102539,&#34;g&#34;:0.7294117808341980,&#34;b&#34;:0.54509806632995605,&#34;a&#34;:1.0},&#34;position&#34;:1.0}],&#34;transform&#34;:{&#34;m00&#34;:-2.7638519897483105e-15,&#34;m01&#34;:45.137126922607422,&#34;m02&#34;:11.758380889892578,&#34;m10&#34;:86.880523681640625,&#34;m11&#34;:5.3198979984149346e-15,&#34;m12&#34;:5.83691406250},&#34;opacity&#34;:1.0,&#34;blendMode&#34;:&#34;NORMAL&#34;,&#34;visible&#34;:true}"/>
</g>
<path d="M54.6714 111.907C50.0423 111.576 42.6612 117.5 38.3653 121.617C37.3412 122.599 35.8555 123.101 34.5962 122.448C29.0298 119.562 29.854 111.997 28.7239 110.019L18.3449 105.3L27.3086 95.8608L53.7278 102.94C56.244 106.086 59.9552 112.284 54.6714 111.907Z" fill="#A9A9A9"/>
<path d="M60.3325 110.502C62.2196 90.1141 59.389 84.0733 57.9737 82.6575L56.8426 81.0733C56.1757 80.1393 54.822 79.9295 53.7279 80.2757C50.5762 81.2731 45.3424 81.2749 41.9334 80.7697C38.002 79.1966 29.3842 76.9942 26.3649 80.7697C22.5907 85.4891 14.0988 85.0172 12.6835 86.433C11.5512 87.5656 10.9536 96.3437 10.7964 100.591C10.016 102.152 14.076 123.405 21.6419 127.506C24.7539 129.193 27.6949 125.803 29.6087 122.825C34.3727 115.413 38.1531 112.615 39.6239 112.15C39.8625 116.042 40.9068 118.303 41.4616 118.997C43.1915 120.413 47.0285 122.867 48.5382 121.356C50.0479 119.846 51.9979 120.413 52.7842 120.885C58.4455 124.66 60.1753 115.536 60.3325 110.502Z" fill="url(#paint2_radial_661_278)"/>
<path d="M65.5536 170.781V151.904C65.2391 149.387 63.101 143.598 57.0641 140.577C49.5179 136.802 36.3121 136.802 33.4823 137.274C30.6524 137.745 25.9361 137.745 19.8048 149.072C14.8998 158.133 14.9312 170.152 15.5601 175.029C19.3332 190.131 27.5082 192.333 31.1241 191.547C31.9101 191.389 34.5199 190.791 38.6703 189.659C43.8583 188.243 47.1597 189.187 49.5179 189.659C51.4044 190.036 54.0771 189.501 55.1775 189.187C63.8557 186.166 65.7108 175.658 65.5536 170.781Z" fill="url(#paint3_radial_661_278)"/>
<path d="M50.4612 158.039C52.2639 158.49 57.5121 160.665 60.3737 166.622M39.9385 164.577C41.1581 166.482 43.3033 173.67 42.4433 183.995M46.8342 145.676C46.6246 145.496 46.6004 145.181 46.7802 144.971C46.96 144.761 47.2756 144.737 47.4852 144.917C48.1338 145.473 48.9967 146.774 49.6978 148.891C50.3821 150.957 50.9255 153.838 50.9595 157.659C53.0221 158.282 57.6332 160.442 60.4531 165.676C60.5767 163.31 60.1152 161.459 59.8805 160.52C59.8135 160.252 59.9764 159.98 60.2443 159.913C60.5123 159.847 60.7837 160.009 60.8506 160.277L60.8515 160.281C61.148 161.467 61.8236 164.172 61.2497 167.561C60.8973 169.643 60.0753 171.975 58.4185 174.369C58.2614 174.596 57.95 174.653 57.7229 174.496C57.4958 174.339 57.4391 174.027 57.5962 173.8C59.1267 171.588 59.8964 169.446 60.2389 167.536C57.6814 161.533 52.6431 159.199 50.6264 158.602C47.8377 161.655 45.472 162.506 42.7932 163.47C42.028 163.746 41.2373 164.03 40.4039 164.378C40.4456 164.446 40.4867 164.517 40.5272 164.59C40.718 164.935 40.9184 165.374 41.1194 165.897C41.5218 166.946 41.9367 168.36 42.285 170.093C42.982 173.56 43.4172 178.326 42.9416 184.037C42.9187 184.312 42.677 184.517 42.4019 184.494C42.1267 184.471 41.9222 184.229 41.9451 183.954C42.4128 178.338 41.9833 173.666 41.3047 170.29C40.9652 168.601 40.5646 167.243 40.1858 166.256C39.9963 165.762 39.8146 165.368 39.6523 165.074C39.5464 164.883 39.4568 164.75 39.3879 164.663C36.2605 164.483 34.6707 163.825 33.5342 162.913C33.0454 162.521 32.6496 162.087 32.2718 161.673C32.2152 161.611 32.159 161.55 32.103 161.489C31.8865 161.254 31.6669 161.022 31.4248 160.794C31.357 161.515 31.0796 162.058 30.5762 162.449C30.2318 162.716 29.8168 162.882 29.3851 163.001C28.9535 163.121 28.4696 163.203 27.9745 163.283C27.9217 163.292 27.8686 163.301 27.8152 163.309C25.883 163.621 23.5589 163.995 21.5807 166.259C21.5276 167.095 21.4013 168.015 21.2413 168.976C21.1959 169.248 20.9383 169.432 20.6659 169.387C20.3935 169.341 20.2095 169.084 20.2549 168.811C20.4235 167.799 20.5491 166.861 20.5919 166.036C20.63 165.3 20.601 164.676 20.4894 164.177C20.378 163.679 20.1935 163.346 19.9509 163.138C19.7413 162.958 19.7171 162.642 19.8969 162.433C20.0767 162.223 20.3923 162.199 20.6019 162.379C21.0635 162.775 21.3257 163.335 21.4653 163.959C21.5259 164.23 21.5651 164.52 21.5868 164.825C23.628 162.969 25.9008 162.604 27.6194 162.328C27.6854 162.317 27.7505 162.307 27.8147 162.296C28.3149 162.215 28.7469 162.14 29.1182 162.038C29.4893 161.935 29.7642 161.813 29.963 161.659C30.2833 161.41 30.5222 160.984 30.4172 159.994C29.2384 159.215 27.4027 158.49 23.9875 158.063C23.7135 158.029 23.5191 157.779 23.5534 157.505C23.5877 157.231 23.8376 157.037 24.1116 157.071C27.8005 157.532 29.8217 158.347 31.173 159.299C31.8822 159.798 32.3891 160.323 32.8388 160.812C32.8986 160.877 32.9571 160.941 33.0146 161.004C33.3957 161.42 33.736 161.793 34.16 162.133C35.0875 162.877 36.4656 163.502 39.5204 163.669C40.6391 163.176 41.6436 162.814 42.5816 162.477C45.2128 161.529 47.3211 160.77 49.9607 157.848C49.9434 154.026 49.4063 151.192 48.7485 149.206C48.074 147.169 47.2861 146.064 46.8342 145.676ZM65.0538 170.797L65.0536 170.781V151.935C64.7404 149.52 62.6651 143.939 56.8404 141.024C53.1526 139.179 48.0402 138.242 43.4598 137.831C38.8782 137.419 34.9181 137.541 33.5645 137.767C33.3783 137.798 33.1867 137.827 32.9894 137.856C31.6556 138.057 30.064 138.296 28.1515 139.523C25.9486 140.936 23.2871 143.689 20.2445 149.31C15.4207 158.221 15.4331 170.088 16.0523 174.936C19.7894 189.856 27.7634 191.766 31.0178 191.058L31.0178 191.058L31.026 191.056C31.7961 190.902 34.3935 190.308 38.5386 189.176C43.3772 187.856 46.6369 188.543 48.957 189.032C49.1856 189.08 49.405 189.126 49.616 189.168C50.4829 189.342 51.5616 189.309 52.5825 189.186C53.5883 189.064 54.4987 188.86 55.0266 188.71C59.1825 187.258 61.7262 184.013 63.2183 180.485C64.7144 176.949 65.1305 173.176 65.0538 170.797Z" stroke="black" stroke-opacity="0.18" stroke-linecap="round" stroke-linejoin="round"/>
<g filter="url(#filter2_d_661_278)">
<path d="M46.6364 200.344C50.7324 197.617 53.0362 199.662 53.6762 201.026C53.6762 199.662 55.2122 197.617 61.3563 200.344C69.0365 203.753 65.8363 213.981 64.5563 216.026C63.5323 217.663 61.9963 223.072 61.3563 225.572C61.3561 226.935 59.4363 229.663 53.6762 231.026C41.1409 233.994 32.5563 233.299 29.3564 231.026C27.0097 228.754 22.3164 221.481 22.3164 210.572C22.3164 199.662 29.9964 198.753 33.8364 199.662C36.3964 201.026 42.5404 203.072 46.6364 200.344Z" fill="url(#paint4_radial_661_278)"/>
<path d="M53.6762 201.026C54.1028 205.344 54.1882 213.981 51.1162 213.981M53.6762 201.026C53.0362 199.662 50.7324 197.617 46.6364 200.344C42.5404 203.072 36.3964 201.026 33.8364 199.662C29.9964 198.753 22.3164 199.662 22.3164 210.572C22.3164 221.481 27.0097 228.754 29.3564 231.026C32.5563 233.299 41.1409 233.994 53.6762 231.026C59.4363 229.663 61.3561 226.935 61.3563 225.572C61.9963 223.072 63.5323 217.663 64.5563 216.026C65.8363 213.981 69.0365 203.753 61.3563 200.344C55.2122 197.617 53.6762 199.662 53.6762 201.026Z" stroke="#CBCBCB"/>
</g>
</g>
<defs>
<filter id="filter0_d_661_278" x="0.701172" y="0.836914" width="76.1152" height="247.663" filterUnits="userSpaceOnUse" color-interpolation-filters="sRGB">
<feFlood flood-opacity="0" result="BackgroundImageFix"/>
<feColorMatrix in="SourceAlpha" type="matrix" values="0 0 0 0 0 0 0 0 0 0 0 0 0 0 0 0 0 0 127 0" result="hardAlpha"/>
<feOffset dy="5"/>
<feGaussianBlur stdDeviation="5"/>
<feComposite in2="hardAlpha" operator="out"/>
<feColorMatrix type="matrix" values="0 0 0 0 0 0 0 0 0 0 0 0 0 0 0 0 0 0 0.35 0"/>
<feBlend mode="normal" in2="BackgroundImageFix" result="effect1_dropShadow_661_278"/>
<feBlend mode="normal" in="SourceGraphic" in2="effect1_dropShadow_661_278" result="shape"/>
</filter>
<filter id="filter1_d_661_278" x="7.75879" y="5.83691" width="53.1367" height="94.8805" filterUnits="userSpaceOnUse" color-interpolation-filters="sRGB">
<feFlood flood-opacity="0" result="BackgroundImageFix"/>
<feColorMatrix in="SourceAlpha" type="matrix" values="0 0 0 0 0 0 0 0 0 0 0 0 0 0 0 0 0 0 127 0" result="hardAlpha"/>
<feOffset dy="4"/>
<feGaussianBlur stdDeviation="2"/>
<feComposite in2="hardAlpha" operator="out"/>
<feColorMatrix type="matrix" values="0 0 0 0 0 0 0 0 0 0 0 0 0 0 0 0 0 0 0.25 0"/>
<feBlend mode="normal" in2="BackgroundImageFix" result="effect1_dropShadow_661_278"/>
<feBlend mode="normal" in="SourceGraphic" in2="effect1_dropShadow_661_278" result="shape"/>
</filter>
<clipPath id="paint1_diamond_661_278_clip_path"><path d="M55.6158 38.291C57.4 44.9841 57.2013 69.3027 55.743 82.0669C55.6645 82.7542 55.3419 83.3855 54.8405 83.8621L46.9982 91.3149C46.471 91.8159 45.7799 92.1085 45.0532 92.1369C33.1251 92.6037 11.5878 93.1892 12.6845 92.092C13.8168 90.9594 13.1563 74.001 12.6845 65.6635C11.2692 53.5504 10.42 26.3038 18.3458 14.2221C28.253 -0.879931 17.874 34.9874 26.3659 50.5614C34.8578 66.1354 34.386 58.5844 39.1038 51.0333C42.878 44.9925 42.249 22.2451 41.4627 10.4466C40.8503 1.25766 49.7226 7.81759 49.9546 12.8063C50.2691 19.5707 53.7288 31.2119 55.6158 38.291Z"/></clipPath><filter id="filter2_d_661_278" x="17.8164" y="198.5" width="53" height="43.0002" filterUnits="userSpaceOnUse" color-interpolation-filters="sRGB">
<feFlood flood-opacity="0" result="BackgroundImageFix"/>
<feColorMatrix in="SourceAlpha" type="matrix" values="0 0 0 0 0 0 0 0 0 0 0 0 0 0 0 0 0 0 127 0" result="hardAlpha"/>
<feOffset dy="4"/>
<feGaussianBlur stdDeviation="2"/>
<feComposite in2="hardAlpha" operator="out"/>
<feColorMatrix type="matrix" values="0 0 0 0 0 0 0 0 0 0 0 0 0 0 0 0 0 0 0.25 0"/>
<feBlend mode="normal" in2="BackgroundImageFix" result="effect1_dropShadow_661_278"/>
<feBlend mode="normal" in="SourceGraphic" in2="effect1_dropShadow_661_278" result="shape"/>
</filter>
<linearGradient id="paint0_linear_661_278" x1="36.2737" y1="8.71143" x2="36.2737" y2="66.132" gradientUnits="userSpaceOnUse">
<stop stop-color="#CC8559"/>
<stop offset="1" stop-color="#EBB98F"/>
</linearGradient>
<linearGradient id="paint1_diamond_661_278" x1="0" y1="0" x2="500" y2="500" gradientUnits="userSpaceOnUse">
<stop stop-color="#F9E7C9"/>
<stop offset="1" stop-color="#E7BA8B"/>
</linearGradient>
<radialGradient id="paint2_radial_661_278" cx="0" cy="0" r="1" gradientUnits="userSpaceOnUse" gradientTransform="translate(35.8311 103.437) rotate(90) scale(24.7516 25.1298)">
<stop offset="0.56179" stop-color="white"/>
<stop offset="1" stop-color="#CAC9C2"/>
</radialGradient>
<radialGradient id="paint3_radial_661_278" cx="0" cy="0" r="1" gradientUnits="userSpaceOnUse" gradientTransform="translate(40.4146 164.372) rotate(90) scale(27.3126 25.1479)">
<stop offset="0.56179" stop-color="white"/>
<stop offset="1" stop-color="#CAC9C2"/>
</radialGradient>
<radialGradient id="paint4_radial_661_278" cx="0" cy="0" r="1" gradientUnits="userSpaceOnUse" gradientTransform="translate(44.3164 216) rotate(90) scale(17 22)">
<stop offset="0.505" stop-color="white"/>
<stop offset="1" stop-color="#D9D9D9"/>
</radialGradient>
</defs>
</svg>
