<svg width="75" height="238" viewBox="0 0 75 238" fill="none" xmlns="http://www.w3.org/2000/svg">
<g filter="url(#filter0_d_661_271)">
<ellipse cx="9.43546" cy="10.3827" rx="9.43546" ry="10.3827" transform="matrix(-1 0 0 1 47.501 91.4253)" fill="#A9A9A9"/>
<path d="M63.5416 89.5428C63.0699 83.8796 56.9363 71.4519 52.6903 63.5863L40.4242 61.2265C34.1339 60.5972 20.0436 62.2648 14.0049 73.9689C7.96625 85.6729 10.2308 98.5098 11.6461 103.229C13.3323 107.587 17.3074 115.499 27.2146 114.084C30.9888 113.14 37.1218 99.4536 41.8396 104.173C44.1041 109.459 47.5008 110.151 48.9162 109.836C50.8032 110.308 53.1621 107.523 53.1621 105.117C53.1621 102.285 54.2629 102.443 54.5774 101.341C66.3718 100.397 64.0134 92.3745 63.5416 89.5428Z" fill="url(#paint0_radial_661_271)"/>
<path d="M32.4041 5.53516C33.8195 5.53516 34.2912 7.89485 34.2912 9.78261C33.8195 14.0301 35.2348 17.3336 35.7066 20.6372C36.1783 22.9969 36.453 23.2975 37.1219 24.4127C38.5372 26.7724 44.6702 31.9637 45.142 32.4357C45.5194 32.8132 47.8154 53.0437 47.9727 56.0326L39.9525 64.0556L21.5534 51.7852C22.9687 48.9535 22.1195 30.7367 24.384 31.4918C26.6485 32.2469 27.2146 16.3898 29.5735 8.36679C29.7308 7.42291 30.517 5.53516 32.4041 5.53516Z" fill="url(#paint1_linear_661_271)"/>
<g clip-path="url(#paint2_diamond_661_271_clip_path)" data-figma-skip-parse="true"><g transform="matrix(0 0.033929 0.0236967 0 34.7711 40.9817)"><rect x="0" y="0" width="1029.47" height="1042.2" fill="url(#paint2_diamond_661_271)" opacity="1" shape-rendering="crispEdges"/><rect x="0" y="0" width="1029.47" height="1042.2" transform="scale(1 -1)" fill="url(#paint2_diamond_661_271)" opacity="1" shape-rendering="crispEdges"/><rect x="0" y="0" width="1029.47" height="1042.2" transform="scale(-1 1)" fill="url(#paint2_diamond_661_271)" opacity="1" shape-rendering="crispEdges"/><rect x="0" y="0" width="1029.47" height="1042.2" transform="scale(-1)" fill="url(#paint2_diamond_661_271)" opacity="1" shape-rendering="crispEdges"/></g></g><path d="M45.5708 68.817C49.0045 67.8914 53.1623 67.8316 55.9929 69.7194C58.6349 59.9031 58.9807 43.6054 57.8799 38.0995C55.9928 28.1888 57.4081 31.9643 50.3319 16.3902C44.6703 1.76003 40.4243 7.42321 40.4243 12.6146C39.4808 24.885 46.5573 60.2805 37.594 56.505C29.6683 52.7295 28.6303 37.6275 26.6998 30.0765C26.6998 24.4132 31.1775 4.21409 24.384 8.36716C17.5905 12.5202 14.3199 27.0876 12.5901 33.852C7.87233 45.6505 15.8925 65.4719 13.5336 74.9107C15.4207 69.7194 22.9688 69.2474 25.7994 70.6633C30.9889 73.023 35.2349 74.9107 40.4244 72.0791C42.2087 71.1055 42.3118 70.1913 45.5708 68.817Z" data-figma-gradient-fill="{&#34;type&#34;:&#34;GRADIENT_DIAMOND&#34;,&#34;stops&#34;:[{&#34;color&#34;:{&#34;r&#34;:0.97647058963775635,&#34;g&#34;:0.90588235855102539,&#34;b&#34;:0.78823530673980713,&#34;a&#34;:1.0},&#34;position&#34;:0.0},{&#34;color&#34;:{&#34;r&#34;:0.90588235855102539,&#34;g&#34;:0.7294117808341980,&#34;b&#34;:0.54509806632995605,&#34;a&#34;:1.0},&#34;position&#34;:1.0}],&#34;stopsVar&#34;:[{&#34;color&#34;:{&#34;r&#34;:0.97647058963775635,&#34;g&#34;:0.90588235855102539,&#34;b&#34;:0.78823530673980713,&#34;a&#34;:1.0},&#34;position&#34;:0.0},{&#34;color&#34;:{&#34;r&#34;:0.90588235855102539,&#34;g&#34;:0.7294117808341980,&#34;b&#34;:0.54509806632995605,&#34;a&#34;:1.0},&#34;position&#34;:1.0}],&#34;transform&#34;:{&#34;m00&#34;:-2.9020072986102232e-15,&#34;m01&#34;:47.393375396728516,&#34;m02&#34;:11.074398040771484,&#34;m10&#34;:67.857978820800781,&#34;m11&#34;:4.1551031820970252e-15,&#34;m12&#34;:7.0527343750},&#34;opacity&#34;:1.0,&#34;blendMode&#34;:&#34;NORMAL&#34;,&#34;visible&#34;:true}"/>
<path d="M62.1765 153.597C63.6857 135.097 50.8572 132.045 44.2543 132.831C40.324 133.303 30.3882 134.625 22.0874 136.135C11.7114 138.023 12.6546 149.349 11.7114 161.62C10.7681 173.89 24.4456 184.745 29.1619 180.969C31.8635 178.806 37.95 178.128 42.9205 178.032C46.2986 177.967 49.6901 177.642 52.9357 176.703C62.8614 173.831 60.5207 173.893 62.1765 153.597Z" fill="url(#paint3_radial_661_271)"/>
<path d="M40.0096 173.418C43.4844 167.209 42.7476 160.218 38.5888 156.088M38.123 155.651C34.3947 152.336 28.2365 151.164 20.1269 154.343M40.4459 173.662C40.311 173.903 40.0063 173.989 39.7654 173.854C39.5244 173.72 39.4384 173.415 39.5732 173.174C43.0832 166.902 42.1469 159.898 37.7908 156.024C34.2119 152.842 28.1916 151.654 20.0887 154.896C19.8496 157.613 18.9187 159.362 18.1963 160.085C18.0011 160.281 17.6845 160.281 17.4892 160.086C17.2939 159.89 17.2938 159.574 17.489 159.378C18.0196 158.847 18.9338 157.249 19.1152 154.516C19.2005 153.23 19.1228 151.698 18.7672 149.919C18.7131 149.648 18.8888 149.385 19.1595 149.331C19.4303 149.277 19.6937 149.452 19.7478 149.723C20.0515 151.242 20.1638 152.602 20.1448 153.8C28.1533 150.719 34.3869 151.795 38.2786 155.123C40.2932 154.83 41.8137 154.557 43.2474 153.886C44.6577 153.227 46.0175 152.165 47.6566 150.245C45.9695 147.41 44.9194 144.48 44.3822 142.141C44.104 140.93 43.9603 139.865 43.941 139.043C43.9313 138.634 43.9521 138.27 44.0094 137.972C44.0618 137.699 44.1627 137.379 44.3966 137.175C44.6043 136.993 44.9202 137.014 45.1021 137.221C45.2815 137.426 45.2636 137.736 45.0638 137.919C45.0644 137.919 45.0647 137.919 45.0648 137.919C45.0665 137.92 45.0268 137.977 44.9915 138.16C44.9524 138.364 44.932 138.651 44.9407 139.02C44.958 139.755 45.089 140.751 45.3568 141.917C45.8921 144.247 46.962 147.204 48.6962 150.032C50.4843 152.947 52.9664 155.707 56.2775 157.515C56.4715 155.672 57.3234 154.35 58.074 153.692C58.2818 153.51 58.5977 153.531 58.7796 153.739C58.9615 153.947 58.9405 154.263 58.7328 154.445C58.0943 155.004 57.2324 156.341 57.2368 158.315C57.2397 159.66 57.6451 161.32 58.8293 163.245C58.974 163.481 58.9005 163.789 58.6653 163.933C58.4301 164.078 58.1221 164.005 57.9775 163.769C56.7936 161.844 56.3057 160.113 56.2436 158.628C52.7444 156.841 50.1158 154.071 48.2097 151.134C46.5971 152.98 45.1845 154.084 43.6711 154.792C42.2988 155.434 40.8692 155.737 39.1982 155.997C43.3152 160.339 43.9372 167.424 40.4459 173.662ZM61.6782 153.556C62.4224 144.433 59.632 139.228 55.9513 136.377C52.2397 133.502 47.5256 132.945 44.3139 133.328C40.3887 133.799 30.4639 135.119 22.1769 136.627C19.678 137.081 17.8943 138.096 16.5908 139.525C15.28 140.962 14.4243 142.853 13.8464 145.108C13.2683 147.364 12.9759 149.953 12.7701 152.763C12.6746 154.067 12.598 155.413 12.5196 156.791C12.5137 156.896 12.5077 157.002 12.5016 157.107C12.4169 158.595 12.3282 160.119 12.2099 161.658C11.7531 167.6 14.8409 173.245 18.6625 176.953C20.5703 178.804 22.6327 180.144 24.4787 180.792C26.3415 181.447 27.8683 181.364 28.8494 180.579C30.3021 179.416 32.6037 178.689 35.1007 178.234C37.6169 177.775 40.4101 177.58 42.9109 177.532C46.2657 177.468 49.6092 177.145 52.7968 176.222C55.2957 175.499 56.9425 174.981 58.0785 174.305C59.1666 173.658 59.7808 172.868 60.1783 171.541C60.5897 170.167 60.7615 168.243 60.9307 165.337C60.969 164.68 61.007 163.976 61.0479 163.219C61.1867 160.65 61.3579 157.482 61.6782 153.556Z" stroke="black" stroke-opacity="0.18" stroke-linecap="round" stroke-linejoin="round"/>
<g filter="url(#filter1_d_661_271)">
<path d="M17.5451 194.297C18.0746 188.073 34.9563 186.702 45.8018 187.05C47.5508 187.106 49.0192 188.34 49.4518 190.035C64.68 183.643 62.5045 199.27 61.7794 200.69C61.1992 201.827 59.6039 205.426 58.8788 207.083C55.9781 221.29 50.1769 222 33.4984 222C16.8199 222 16.8199 202.821 17.5451 194.297Z" fill="url(#paint4_radial_661_271)"/>
<path d="M49.4518 202.111V190.035M49.4518 190.035V190.035C49.0192 188.34 47.5508 187.106 45.8018 187.05C34.9563 186.702 18.0746 188.073 17.5451 194.297C16.8199 202.821 16.8199 222 33.4984 222C50.1769 222 55.9781 221.29 58.8788 207.083C59.6039 205.426 61.1992 201.827 61.7794 200.69C62.5045 199.27 64.68 183.643 49.4518 190.035Z" stroke="#CBCBCB"/>
</g>
</g>
<defs>
<filter id="filter0_d_661_271" x="0.0302734" y="0.535156" width="74.0186" height="236.965" filterUnits="userSpaceOnUse" color-interpolation-filters="sRGB">
<feFlood flood-opacity="0" result="BackgroundImageFix"/>
<feColorMatrix in="SourceAlpha" type="matrix" values="0 0 0 0 0 0 0 0 0 0 0 0 0 0 0 0 0 0 127 0" result="hardAlpha"/>
<feOffset dy="5"/>
<feGaussianBlur stdDeviation="5"/>
<feComposite in2="hardAlpha" operator="out"/>
<feColorMatrix type="matrix" values="0 0 0 0 0 0 0 0 0 0 0 0 0 0 0 0 0 0 0.35 0"/>
<feBlend mode="normal" in2="BackgroundImageFix" result="effect1_dropShadow_661_271"/>
<feBlend mode="normal" in="SourceGraphic" in2="effect1_dropShadow_661_271" result="shape"/>
</filter>
<clipPath id="paint2_diamond_661_271_clip_path"><path d="M45.5708 68.817C49.0045 67.8914 53.1623 67.8316 55.9929 69.7194C58.6349 59.9031 58.9807 43.6054 57.8799 38.0995C55.9928 28.1888 57.4081 31.9643 50.3319 16.3902C44.6703 1.76003 40.4243 7.42321 40.4243 12.6146C39.4808 24.885 46.5573 60.2805 37.594 56.505C29.6683 52.7295 28.6303 37.6275 26.6998 30.0765C26.6998 24.4132 31.1775 4.21409 24.384 8.36716C17.5905 12.5202 14.3199 27.0876 12.5901 33.852C7.87233 45.6505 15.8925 65.4719 13.5336 74.9107C15.4207 69.7194 22.9688 69.2474 25.7994 70.6633C30.9889 73.023 35.2349 74.9107 40.4244 72.0791C42.2087 71.1055 42.3118 70.1913 45.5708 68.817Z"/></clipPath><filter id="filter1_d_661_271" x="12.8164" y="186.5" width="54" height="44" filterUnits="userSpaceOnUse" color-interpolation-filters="sRGB">
<feFlood flood-opacity="0" result="BackgroundImageFix"/>
<feColorMatrix in="SourceAlpha" type="matrix" values="0 0 0 0 0 0 0 0 0 0 0 0 0 0 0 0 0 0 127 0" result="hardAlpha"/>
<feOffset dy="4"/>
<feGaussianBlur stdDeviation="2"/>
<feComposite in2="hardAlpha" operator="out"/>
<feColorMatrix type="matrix" values="0 0 0 0 0 0 0 0 0 0 0 0 0 0 0 0 0 0 0.25 0"/>
<feBlend mode="normal" in2="BackgroundImageFix" result="effect1_dropShadow_661_271"/>
<feBlend mode="normal" in="SourceGraphic" in2="effect1_dropShadow_661_271" result="shape"/>
</filter>
<radialGradient id="paint0_radial_661_271" cx="0" cy="0" r="1" gradientUnits="userSpaceOnUse" gradientTransform="translate(37.0395 87.6816) rotate(90) scale(26.5693 27.0093)">
<stop offset="0.56179" stop-color="white"/>
<stop offset="1" stop-color="#CAC9C2"/>
</radialGradient>
<linearGradient id="paint1_linear_661_271" x1="34.763" y1="5.53516" x2="34.763" y2="64.0556" gradientUnits="userSpaceOnUse">
<stop stop-color="#CC8559"/>
<stop offset="1" stop-color="#EBB98F"/>
</linearGradient>
<linearGradient id="paint2_diamond_661_271" x1="0" y1="0" x2="500" y2="500" gradientUnits="userSpaceOnUse">
<stop stop-color="#F9E7C9"/>
<stop offset="1" stop-color="#E7BA8B"/>
</linearGradient>
<radialGradient id="paint3_radial_661_271" cx="0" cy="0" r="1" gradientUnits="userSpaceOnUse" gradientTransform="translate(36.9819 157.226) rotate(90) scale(24.5052 25.317)">
<stop offset="0.56179" stop-color="white"/>
<stop offset="1" stop-color="#CAC9C2"/>
</radialGradient>
<radialGradient id="paint4_radial_661_271" cx="0" cy="0" r="1" gradientUnits="userSpaceOnUse" gradientTransform="translate(39.8164 204.5) rotate(90) scale(17.5 22.5)">
<stop offset="0.505" stop-color="white"/>
<stop offset="1" stop-color="#D9D9D9"/>
</radialGradient>
</defs>
</svg>
