<svg width="68" height="218" viewBox="0 0 68 218" fill="none" xmlns="http://www.w3.org/2000/svg">
<g filter="url(#filter0_d_661_264)">
<ellipse cx="8.96369" cy="7.55102" rx="8.96369" ry="7.55102" transform="matrix(-1 0 0 1 43.3477 83.855)" fill="#A9A9A9"/>
<path d="M53.7629 65.4667L48.5354 58.8426L21.4087 60.2584L16.7808 60.2586L17.1416 63.507C17.2122 64.1426 17.0084 64.7782 16.5814 65.2543C16.1866 65.6945 15.8864 66.2112 15.6994 66.7723L15.0393 68.7533L14.0958 72.5288C13.782 74.4134 13.6242 76.3206 13.6242 78.2311L13.6242 84.7525C13.6242 86.3529 13.7822 87.9493 14.0958 89.5186L14.4673 90.8196C14.8464 92.1466 15.429 93.4068 16.1943 94.5551C16.6813 95.2858 17.2393 95.9666 17.8601 96.5876L19.1588 97.8868C19.5563 98.2844 20.001 98.6318 20.4831 98.9211L20.6848 99.0422C21.6214 99.6043 22.6932 99.9013 23.7856 99.9013C24.5524 99.9013 25.3122 99.7549 26.0241 99.4701L26.4958 99.2814C27.0341 99.066 27.5486 98.7952 28.031 98.4735C28.4896 98.1676 28.9169 97.8172 29.3067 97.4273L29.8194 96.9144C30.3442 96.3893 30.8312 95.8277 31.2765 95.2337L32.0231 94.238L32.5347 93.5556C33.1258 92.7673 33.9222 92.1567 34.8369 91.7907C35.4713 91.5368 36.1484 91.4064 36.8317 91.4064L36.9767 91.4064C37.7558 91.4064 38.5277 91.5551 39.251 91.8445L39.6872 92.019C40.2375 92.2392 40.7635 92.516 41.2567 92.8449L42.0743 93.3902C42.9155 93.9512 43.847 94.3634 44.8279 94.6087L45.2574 94.7161C46.4775 95.0213 47.7563 94.9999 48.9656 94.6543C49.926 94.3798 50.8185 93.9076 51.5859 93.2679L52.0326 92.8955C52.8409 92.2217 53.5369 91.4235 54.0946 90.531L54.4396 89.9788C55.2161 88.7359 55.7926 87.3786 56.148 85.9566L56.5552 84.3273L57.0017 82.3171C57.3321 80.8301 57.4988 79.3113 57.4988 77.788C57.4988 76.8001 57.4287 75.8135 57.289 74.8356L57.027 73.0008L56.5552 70.641C55.9309 68.7675 54.9861 67.0167 53.7629 65.4667Z" fill="url(#paint0_radial_661_264)"/>
<path d="M36.2692 7.39941C37.6846 7.39941 38.1563 9.75911 38.1563 11.6469C37.6846 15.8943 38.6281 21.0856 38.6281 23.9173C38.6281 26.2138 38.9426 27.0635 39.0999 27.2209C40.5152 29.5805 46.1765 35.2438 46.6483 35.7158C47.0257 36.0933 47.4345 42.1656 47.5918 45.1545L39.5717 53.1775L21.1725 40.9071C22.5878 38.0754 25.9846 32.601 28.2491 33.3561C30.5136 34.1112 31.0797 18.254 33.4386 10.231C33.5959 9.28717 34.3821 7.39941 36.2692 7.39941Z" fill="url(#paint1_linear_661_264)"/>
<g clip-path="url(#paint2_diamond_661_264_clip_path)" data-figma-skip-parse="true"><g transform="matrix(0 0.0311688 0.0213263 0 35.2743 36.1688)"><rect x="0" y="0" width="1032.08" height="1046.89" fill="url(#paint2_diamond_661_264)" opacity="1" shape-rendering="crispEdges"/><rect x="0" y="0" width="1032.08" height="1046.89" transform="scale(1 -1)" fill="url(#paint2_diamond_661_264)" opacity="1" shape-rendering="crispEdges"/><rect x="0" y="0" width="1032.08" height="1046.89" transform="scale(-1 1)" fill="url(#paint2_diamond_661_264)" opacity="1" shape-rendering="crispEdges"/><rect x="0" y="0" width="1032.08" height="1046.89" transform="scale(-1)" fill="url(#paint2_diamond_661_264)" opacity="1" shape-rendering="crispEdges"/></g></g><path d="M46.1782 67.3376H55.1418C57.7838 57.5212 56.2426 44.0552 55.1418 38.5493C52.783 27.6947 53.7265 35.7176 48.537 17.312C44.3854 2.58753 38.9351 8.55619 39.5733 13.5365C41.1459 25.8069 42.3096 49.4039 34.3838 45.6284C26.458 41.8529 27.9363 25.1777 29.6661 17.312C32.025 11.8061 35.0443 1.83243 28.2508 5.9855C21.4573 10.1386 16.2992 24.7057 14.5694 31.4702C12.8716 47.6043 14.957 56.9654 17.1675 61.5024C18.2162 63.655 20.5942 64.5059 22.9887 64.5059C25.7538 64.5059 28.4183 63.2493 31.074 62.4794C33.0057 61.9194 35.1667 61.8299 36.7427 62.6182C38.5606 63.5274 42.404 67.3376 46.1782 67.3376Z" data-figma-gradient-fill="{&#34;type&#34;:&#34;GRADIENT_DIAMOND&#34;,&#34;stops&#34;:[{&#34;color&#34;:{&#34;r&#34;:0.97647058963775635,&#34;g&#34;:0.90588235855102539,&#34;b&#34;:0.78823530673980713,&#34;a&#34;:1.0},&#34;position&#34;:0.0},{&#34;color&#34;:{&#34;r&#34;:0.90588235855102539,&#34;g&#34;:0.7294117808341980,&#34;b&#34;:0.54509806632995605,&#34;a&#34;:1.0},&#34;position&#34;:1.0}],&#34;stopsVar&#34;:[{&#34;color&#34;:{&#34;r&#34;:0.97647058963775635,&#34;g&#34;:0.90588235855102539,&#34;b&#34;:0.78823530673980713,&#34;a&#34;:1.0},&#34;position&#34;:0.0},{&#34;color&#34;:{&#34;r&#34;:0.90588235855102539,&#34;g&#34;:0.7294117808341980,&#34;b&#34;:0.54509806632995605,&#34;a&#34;:1.0},&#34;position&#34;:1.0}],&#34;transform&#34;:{&#34;m00&#34;:-2.6117225430808333e-15,&#34;m01&#34;:42.652664184570312,&#34;m02&#34;:13.947921752929688,&#34;m10&#34;:62.337554931640625,&#34;m11&#34;:3.8170743557044626e-15,&#34;m12&#34;:5.0},&#34;opacity&#34;:1.0,&#34;blendMode&#34;:&#34;NORMAL&#34;,&#34;visible&#34;:true}"/>
<path d="M54.5228 154.478C56.4647 140.599 53.2564 130.461 49.9218 124.628C48.0289 121.317 44.7296 118.443 40.9386 118.862C40.5811 118.901 40.2328 118.973 39.902 119.083C37.6382 119.838 34.8712 119.083 33.7707 118.611C32.1986 117.982 27.8281 116.818 22.9231 117.195C18.0181 117.573 15.5341 120.499 14.9053 121.915C9.24564 134.374 12.5471 148.501 14.9053 154.007C17.5779 158.569 24.1494 166.843 29.0544 163.445C30.5254 162.426 31.9484 161.75 33.2622 161.319C37.4004 159.961 42.1498 162.03 46.5049 162.03C51.41 162.03 53.8939 156.995 54.5228 154.478Z" fill="url(#paint3_radial_661_264)"/>
<path d="M36.1289 124.746C37.3694 124.126 40.3838 125.45 40.8283 137.44M19.6683 135.521C23.6446 134.952 31.4661 134.821 34.714 138.433M36.3526 125.193C36.1057 125.317 35.8053 125.217 35.6818 124.97C35.5582 124.723 35.6583 124.423 35.9052 124.299C36.3659 124.069 36.9597 124.042 37.5661 124.344C38.1613 124.64 38.7409 125.236 39.2581 126.202C40.265 128.083 41.1162 131.518 41.3311 137.509C43.2405 137.792 45.1548 138.31 46.8239 138.874C47.3284 138.84 47.7074 138.46 47.9832 137.774C48.2676 137.067 48.3656 136.192 48.3631 135.603C48.3619 135.327 48.5848 135.102 48.861 135.101C49.1371 135.1 49.3619 135.323 49.3631 135.599C49.366 136.268 49.2591 137.281 48.911 138.147C48.7379 138.578 48.4849 139.014 48.1274 139.341C49.0422 139.687 49.8486 140.034 50.4931 140.341C50.7424 140.46 50.8482 140.758 50.7294 141.007C50.6106 141.257 50.3122 141.362 50.063 141.244C49.1824 140.824 47.9727 140.321 46.5877 139.85C44.8181 139.247 42.7767 138.701 40.7809 138.442C38.8871 138.196 37.0766 138.214 35.5861 138.654C35.7619 138.912 35.9313 139.227 36.0909 139.595C36.4276 140.371 36.7446 141.436 36.9872 142.843C37.4725 145.656 37.667 149.871 37.0984 155.941C37.0726 156.216 36.8289 156.418 36.5539 156.392C36.279 156.366 36.077 156.123 36.1027 155.848C36.666 149.836 36.4676 145.713 36.0017 143.013C35.7688 141.662 35.4706 140.677 35.1736 139.993C34.8698 139.293 34.5886 138.958 34.4233 138.839C34.3937 138.818 34.3666 138.794 34.3423 138.767C32.7769 137.027 29.9982 136.177 27.0377 135.864C24.3192 135.576 21.5525 135.752 19.684 136.024C19.6954 136.756 19.6535 137.473 19.5223 138.084C19.3707 138.79 19.0679 139.505 18.4305 139.824C18.1835 139.947 17.8831 139.847 17.7596 139.6C17.636 139.353 17.7361 139.053 17.983 138.929C18.1897 138.826 18.4064 138.518 18.5446 137.874C18.6691 137.294 18.7042 136.558 18.6772 135.764C18.6684 135.738 18.6615 135.711 18.6568 135.683C18.6451 135.613 18.6487 135.544 18.665 135.479C18.5989 134.189 18.3858 132.847 18.1895 131.93C18.1316 131.66 18.3036 131.394 18.5737 131.337C18.8437 131.279 19.1095 131.451 19.1673 131.721C19.3515 132.581 19.5499 133.798 19.6384 135.02C21.5727 134.747 24.3753 134.577 27.1429 134.869C30.032 135.175 32.9974 135.996 34.8456 137.845C36.463 137.259 38.3883 137.183 40.3257 137.382C40.1031 131.543 39.2665 128.337 38.3764 126.674C37.9189 125.819 37.4687 125.412 37.1207 125.239C36.7838 125.071 36.5208 125.109 36.3526 125.193ZM15.3622 122.118L15.3605 122.121C9.79125 134.382 13.0249 148.324 15.3526 153.781C16.6751 156.033 18.945 159.174 21.4676 161.331C22.7348 162.414 24.0343 163.221 25.2822 163.563C26.511 163.9 27.6839 163.786 28.7696 163.034C30.28 161.988 31.7464 161.29 33.1064 160.844C35.2956 160.125 37.6191 160.322 39.8785 160.671C40.4579 160.76 41.031 160.859 41.5982 160.957C43.282 161.248 44.9144 161.53 46.5049 161.53C48.7654 161.53 50.4837 160.375 51.7335 158.878C52.9803 157.383 53.7274 155.583 54.0313 154.383C55.9498 140.628 52.7662 130.611 49.4877 124.876C47.6315 121.629 44.4863 118.973 40.9935 119.359C40.6658 119.395 40.3527 119.46 40.0602 119.557C38.8288 119.968 37.4864 119.962 36.3318 119.803C35.1784 119.643 34.1711 119.326 33.5795 119.073C32.0632 118.468 27.7738 117.323 22.9615 117.694C18.2508 118.056 15.9211 120.859 15.3622 122.118Z" stroke="black" stroke-opacity="0.18" stroke-linecap="round" stroke-linejoin="round"/>
<g filter="url(#filter1_d_661_264)">
<path d="M15.6089 182.752C16.739 180.665 21.44 176.212 31.2031 175.099C34.8611 174.682 37.047 175.619 38.2672 177.186C56.6129 171.064 56.5694 182.056 54.2545 188.318C52.8985 193.884 46.3898 204.32 31.2031 201.537C16.0163 198.754 14.4791 187.854 15.6089 182.752Z" fill="url(#paint4_radial_661_264)"/>
<path d="M38.661 186.927C39.6502 184.171 40.3037 179.802 38.2672 177.186M38.2672 177.186C37.047 175.619 34.8611 174.682 31.2031 175.099C21.44 176.212 16.739 180.665 15.6089 182.752C14.4791 187.854 16.0163 198.754 31.2031 201.537C46.3898 204.32 52.8985 193.884 54.2545 188.318C56.5694 182.056 56.6129 171.064 38.2672 177.186Z" stroke="#CBCBCB"/>
</g>
</g>
<defs>
<filter id="filter0_d_661_264" x="1.78027" y="0" width="65.7188" height="217.5" filterUnits="userSpaceOnUse" color-interpolation-filters="sRGB">
<feFlood flood-opacity="0" result="BackgroundImageFix"/>
<feColorMatrix in="SourceAlpha" type="matrix" values="0 0 0 0 0 0 0 0 0 0 0 0 0 0 0 0 0 0 127 0" result="hardAlpha"/>
<feOffset dy="5"/>
<feGaussianBlur stdDeviation="5"/>
<feComposite in2="hardAlpha" operator="out"/>
<feColorMatrix type="matrix" values="0 0 0 0 0 0 0 0 0 0 0 0 0 0 0 0 0 0 0.35 0"/>
<feBlend mode="normal" in2="BackgroundImageFix" result="effect1_dropShadow_661_264"/>
<feBlend mode="normal" in="SourceGraphic" in2="effect1_dropShadow_661_264" result="shape"/>
</filter>
<clipPath id="paint2_diamond_661_264_clip_path"><path d="M46.1782 67.3376H55.1418C57.7838 57.5212 56.2426 44.0552 55.1418 38.5493C52.783 27.6947 53.7265 35.7176 48.537 17.312C44.3854 2.58753 38.9351 8.55619 39.5733 13.5365C41.1459 25.8069 42.3096 49.4039 34.3838 45.6284C26.458 41.8529 27.9363 25.1777 29.6661 17.312C32.025 11.8061 35.0443 1.83243 28.2508 5.9855C21.4573 10.1386 16.2992 24.7057 14.5694 31.4702C12.8716 47.6043 14.957 56.9654 17.1675 61.5024C18.2162 63.655 20.5942 64.5059 22.9887 64.5059C25.7538 64.5059 28.4183 63.2493 31.074 62.4794C33.0057 61.9194 35.1667 61.8299 36.7427 62.6182C38.5606 63.5274 42.404 67.3376 46.1782 67.3376Z"/></clipPath><filter id="filter1_d_661_264" x="10.8164" y="174.5" width="49" height="35.9998" filterUnits="userSpaceOnUse" color-interpolation-filters="sRGB">
<feFlood flood-opacity="0" result="BackgroundImageFix"/>
<feColorMatrix in="SourceAlpha" type="matrix" values="0 0 0 0 0 0 0 0 0 0 0 0 0 0 0 0 0 0 127 0" result="hardAlpha"/>
<feOffset dy="4"/>
<feGaussianBlur stdDeviation="2"/>
<feComposite in2="hardAlpha" operator="out"/>
<feColorMatrix type="matrix" values="0 0 0 0 0 0 0 0 0 0 0 0 0 0 0 0 0 0 0.25 0"/>
<feBlend mode="normal" in2="BackgroundImageFix" result="effect1_dropShadow_661_264"/>
<feBlend mode="normal" in="SourceGraphic" in2="effect1_dropShadow_661_264" result="shape"/>
</filter>
<radialGradient id="paint0_radial_661_264" cx="0" cy="0" r="1" gradientUnits="userSpaceOnUse" gradientTransform="translate(33.2863 77.469) rotate(-35.0015) scale(23.8298 23.5652)">
<stop offset="0.56179" stop-color="white"/>
<stop offset="1" stop-color="#CAC9C2"/>
</radialGradient>
<linearGradient id="paint1_linear_661_264" x1="34.3821" y1="7.39941" x2="34.3821" y2="53.1775" gradientUnits="userSpaceOnUse">
<stop stop-color="#CC8559"/>
<stop offset="1" stop-color="#EBB98F"/>
</linearGradient>
<linearGradient id="paint2_diamond_661_264" x1="0" y1="0" x2="500" y2="500" gradientUnits="userSpaceOnUse">
<stop stop-color="#F9E7C9"/>
<stop offset="1" stop-color="#E7BA8B"/>
</linearGradient>
<radialGradient id="paint3_radial_661_264" cx="0" cy="0" r="1" gradientUnits="userSpaceOnUse" gradientTransform="translate(33.4458 140.682) rotate(90) scale(23.5608 21.6655)">
<stop offset="0.56179" stop-color="white"/>
<stop offset="1" stop-color="#CAC9C2"/>
</radialGradient>
<radialGradient id="paint4_radial_661_264" cx="0" cy="0" r="1" gradientUnits="userSpaceOnUse" gradientTransform="translate(35.3164 188.5) rotate(90) scale(13.5 20)">
<stop offset="0.505" stop-color="white"/>
<stop offset="1" stop-color="#D9D9D9"/>
</radialGradient>
</defs>
</svg>
