<svg width="69" height="191" viewBox="0 0 69 191" fill="none" xmlns="http://www.w3.org/2000/svg">
<g filter="url(#filter0_d_513_1989)">
<path d="M51.565 121.481C50.8102 118.838 50.6215 109.368 50.6215 104.963C42.4449 105.593 24.6763 107.606 19.0156 110.627C14.9041 112.82 14.1936 124.441 14.5343 134.496C14.7627 141.233 16.1774 147.889 18.905 154.054C22.1192 161.319 26.7266 169.624 31.7523 173.395C39.3 179.058 38.0421 171.664 36.4697 167.259C35.8563 165.541 33.0732 163.389 30.8089 149.798C28.5446 136.206 32.0668 132.493 34.111 132.336C44.0174 134.224 42.1304 156.877 41.6587 163.484C41.2813 168.77 43.3883 168.518 44.489 167.731C60.0562 158.764 52.5084 124.785 51.565 121.481Z" fill="url(#paint0_diamond_513_1989)"/>
<path d="M40.7138 88.9162C37.1138 84.9144 28.426 89.0566 25.292 91.5597C25.7527 91.1596 26.3287 90.7351 27.0336 90.3321C25.3039 89.8602 21.6558 88.6332 20.9011 87.5005C19.9576 86.0847 15.712 86.5566 14.7686 87.5005C13.8251 88.4444 10.523 90.3322 10.9947 97.8832C11.4664 105.434 11.4664 113.929 16.1838 116.761C19.0141 114.873 26.5619 112.136 34.1096 116.289C41.6573 120.442 48.8905 116.761 51.5637 114.401C53.4506 112.671 56.6584 106.378 54.3941 95.0516C53.9223 92.3773 51.8467 87.2176 47.3181 87.9725C46.0829 88.7591 43.3227 90.3321 42.1632 90.3321C41.6848 89.9254 41.1996 89.4562 40.7138 88.9162Z" fill="url(#paint1_radial_513_1989)"/>
<path d="M58.7081 18.36C60.5951 47.0539 47.5428 51.0811 40.7807 49.508C36.6291 48.3754 31.5025 49.6653 29.4581 50.4519C25.0549 51.3958 15.6824 49.508 13.4178 34.406C11.1533 19.3039 15.6194 11.4383 18.1356 9.39319C20.4944 7.66275 26.3444 4.57942 30.8734 6.08962C36.5347 7.97738 39.3654 6.08962 43.6113 5.61768C52.575 4.20187 58.079 13.798 58.7081 18.36Z" fill="url(#paint2_radial_513_1989)"/>
<path d="M36.5347 44.3167C35.1728 39.866 34.5343 33.3491 37.7248 29.7984M22.4817 30.7692C28.4067 31.3534 35.5912 32.0617 35.5912 16.0003M52.5505 31.3508C52.6739 31.5978 52.5738 31.8981 52.3268 32.0216C52.0798 32.145 51.7795 32.0449 51.656 31.7979C51.5685 31.6229 51.5176 31.4088 51.486 31.1976C51.4532 30.9786 51.4363 30.7278 51.4335 30.4597C51.4292 30.0437 51.4588 29.5693 51.5243 29.0792C45.3458 27.0943 41.5228 27.5541 39.2335 29.1327C39.1504 29.208 39.0573 29.2736 38.9614 29.331C37.0122 30.8306 36.139 33.2896 35.9542 36.0468C35.7691 38.8084 36.2829 41.7851 37.0128 44.1704C37.0936 44.4344 36.9451 44.714 36.681 44.7948C36.417 44.8756 36.1374 44.727 36.0566 44.463C35.302 41.9971 34.761 38.8952 34.9564 35.9799C35.1039 33.7799 35.6754 31.6379 36.9363 29.9693C36.2939 30.0863 35.5877 30.1676 34.9081 30.2053C34.1487 30.2474 33.4027 30.2361 32.8058 30.1521C32.5091 30.1103 32.2278 30.0477 31.9935 29.9533C31.9294 29.9274 31.8609 29.8961 31.7925 29.8576C31.4787 30.0951 31.1518 30.3023 30.813 30.4822C29.2631 31.3048 27.531 31.5142 25.8343 31.4991C24.6856 31.4889 23.5086 31.373 22.4031 31.2641C21.9547 31.22 21.5181 31.177 21.1 31.1427C21.0999 31.1495 21.0999 31.1563 21.0999 31.1631C21.0967 32.104 21.0029 32.9537 20.8722 33.5224C20.8119 33.7851 20.7281 34.0624 20.5989 34.2454C20.5501 34.3145 20.3684 34.552 20.0468 34.5234C19.7317 34.4954 19.5903 34.2372 19.5505 34.1576C19.427 33.9105 19.5272 33.6102 19.7742 33.4868C19.8017 33.473 19.8298 33.462 19.8583 33.4537C19.8712 33.4079 19.8844 33.3562 19.8976 33.2985C20.0075 32.8201 20.0969 32.0475 20.0999 31.1597C20.1029 30.2739 20.0199 29.2995 19.799 28.4139C19.5765 27.5215 19.2253 26.7645 18.7255 26.2645C18.5303 26.0692 18.5303 25.7527 18.7256 25.5574C18.9209 25.3622 19.2375 25.3623 19.4327 25.5576C20.1124 26.2374 20.5247 27.1912 20.7693 28.1719C20.9292 28.8133 21.0223 29.4857 21.0669 30.1368C21.5607 30.1756 22.0587 30.2248 22.5601 30.2743C23.6415 30.381 24.7387 30.4893 25.8432 30.4992C27.4636 30.5136 29.0045 30.31 30.3442 29.5989C32.9753 28.2023 35.0912 24.6871 35.0912 16.0003C35.0912 15.7242 35.315 15.5003 35.5912 15.5003C35.8673 15.5003 36.0912 15.7242 36.0912 16.0003C36.0912 22.9456 34.7568 26.9221 32.6394 29.1069C32.7286 29.1272 32.8306 29.1457 32.9453 29.1618C33.4542 29.2335 34.1295 29.2469 34.8527 29.2068C35.573 29.1669 36.3212 29.0751 36.9712 28.9445C37.6159 28.8149 38.1184 28.656 38.406 28.497C38.4801 28.441 38.5556 28.3862 38.6325 28.3326C41.2803 26.4854 45.4523 26.1015 51.7043 28.087C51.8425 27.4914 52.0383 26.9001 52.3015 26.3939C52.6403 25.7425 53.1425 25.1357 53.869 24.9541C54.1369 24.8871 54.4084 25.0499 54.4754 25.3178C54.5424 25.5857 54.3795 25.8572 54.1116 25.9242C53.8006 26.002 53.4793 26.2966 53.1887 26.8553C52.9237 27.3648 52.7267 28.0158 52.6001 28.6857C52.6082 28.7561 52.6014 28.8293 52.5775 28.9009C52.5703 28.9228 52.5616 28.9438 52.5517 28.9639C52.4666 29.4983 52.429 30.0169 52.4334 30.4493C52.4359 30.6848 52.4507 30.8877 52.475 31.0495C52.5004 31.2192 52.5318 31.3133 52.5505 31.3508ZM43.6893 6.11156C43.6818 6.11275 43.6742 6.11377 43.6666 6.11462C42.6343 6.22936 41.6839 6.43053 40.7356 6.6438C40.6143 6.67107 40.4929 6.69859 40.3713 6.72615C39.5482 6.91268 38.715 7.10148 37.8481 7.23289C35.8335 7.53823 33.6297 7.53577 30.7153 6.56395C28.602 5.85928 26.1324 6.21587 23.8532 6.99903C21.5899 7.77671 19.5872 8.95012 18.4415 9.78888C16.113 11.6924 11.6651 19.3448 13.9123 34.3318C15.0296 41.7833 17.8853 45.8931 20.9243 48.0376C23.9565 50.1775 27.2338 50.4063 29.3161 49.9709C30.3798 49.5657 32.1918 49.0459 34.2619 48.7648C36.3504 48.4812 38.7402 48.4351 40.903 49.0231C44.1321 49.7712 48.8828 49.1886 52.6126 44.9537C56.3572 40.702 59.1463 32.6859 58.2103 18.4109C57.9056 16.24 56.4239 12.8038 53.9176 10.0861C51.4158 7.37321 47.9552 5.43777 43.6893 6.11156Z" stroke="black" stroke-opacity="0.18" stroke-linecap="round" stroke-linejoin="round"/>
</g>
<defs>
<filter id="filter0_d_513_1989" x="0.949219" y="0.476562" width="67.9434" height="189.969" filterUnits="userSpaceOnUse" color-interpolation-filters="sRGB">
<feFlood flood-opacity="0" result="BackgroundImageFix"/>
<feColorMatrix in="SourceAlpha" type="matrix" values="0 0 0 0 0 0 0 0 0 0 0 0 0 0 0 0 0 0 127 0" result="hardAlpha"/>
<feOffset dy="5"/>
<feGaussianBlur stdDeviation="5"/>
<feComposite in2="hardAlpha" operator="out"/>
<feColorMatrix type="matrix" values="0 0 0 0 0 0 0 0 0 0 0 0 0 0 0 0 0 0 0.35 0"/>
<feBlend mode="normal" in2="BackgroundImageFix" result="effect1_dropShadow_513_1989"/>
<feBlend mode="normal" in="SourceGraphic" in2="effect1_dropShadow_513_1989" result="shape"/>
</filter>
<radialGradient id="paint0_diamond_513_1989" cx="0" cy="0" r="1" gradientUnits="userSpaceOnUse" gradientTransform="translate(34.3396 140.205) rotate(90) scale(35.2413 19.8801)">
<stop stop-color="#F9E7C9"/>
<stop offset="1" stop-color="#E7BA8B"/>
</radialGradient>
<radialGradient id="paint1_radial_513_1989" cx="0" cy="0" r="1" gradientUnits="userSpaceOnUse" gradientTransform="translate(33.0609 102.388) rotate(90) scale(15.7816 22.112)">
<stop offset="0.56179" stop-color="white"/>
<stop offset="1" stop-color="#CAC9C2"/>
</radialGradient>
<radialGradient id="paint2_radial_513_1989" cx="0" cy="0" r="1" gradientUnits="userSpaceOnUse" gradientTransform="translate(35.8445 28.0652) rotate(90) scale(22.5886 23.0481)">
<stop offset="0.56179" stop-color="white"/>
<stop offset="1" stop-color="#CAC9C2"/>
</radialGradient>
</defs>
</svg>
