<svg width="70" height="208" viewBox="0 0 70 208" fill="none" xmlns="http://www.w3.org/2000/svg">
<g filter="url(#filter0_d_661_353)">
<g clip-path="url(#paint0_diamond_661_353_clip_path)" data-figma-skip-parse="true"><g transform="matrix(0 0.0352413 0.0198818 0 37.3506 157.245)"><rect x="0" y="0" width="1028.38" height="1050.3" fill="url(#paint0_diamond_661_353)" opacity="1" shape-rendering="crispEdges"/><rect x="0" y="0" width="1028.38" height="1050.3" transform="scale(1 -1)" fill="url(#paint0_diamond_661_353)" opacity="1" shape-rendering="crispEdges"/><rect x="0" y="0" width="1028.38" height="1050.3" transform="scale(-1 1)" fill="url(#paint0_diamond_661_353)" opacity="1" shape-rendering="crispEdges"/><rect x="0" y="0" width="1028.38" height="1050.3" transform="scale(-1)" fill="url(#paint0_diamond_661_353)" opacity="1" shape-rendering="crispEdges"/></g></g><path d="M54.5774 138.522C53.8226 135.879 53.6339 126.409 53.6339 122.004C45.4565 122.633 27.6865 124.647 22.0252 127.667C17.9135 129.861 17.2028 141.481 17.5436 151.535C17.7719 158.273 19.1868 164.93 21.9149 171.095C25.1294 178.36 29.7371 186.664 34.7631 190.435C42.3114 196.098 41.0534 188.705 39.4808 184.3C38.8674 182.582 36.084 180.43 33.8195 166.838C31.555 153.246 35.0776 149.534 37.1219 149.376C47.0292 151.264 45.1421 173.917 44.6703 180.524C44.2929 185.81 46.4001 185.558 47.5008 184.772C63.0694 175.805 55.521 141.825 54.5774 138.522Z" data-figma-gradient-fill="{&#34;type&#34;:&#34;GRADIENT_DIAMOND&#34;,&#34;stops&#34;:[{&#34;color&#34;:{&#34;r&#34;:0.97647058963775635,&#34;g&#34;:0.90588235855102539,&#34;b&#34;:0.78823530673980713,&#34;a&#34;:1.0},&#34;position&#34;:0.0},{&#34;color&#34;:{&#34;r&#34;:0.90588235855102539,&#34;g&#34;:0.7294117808341980,&#34;b&#34;:0.54509806632995605,&#34;a&#34;:1.0},&#34;position&#34;:1.0}],&#34;stopsVar&#34;:[{&#34;color&#34;:{&#34;r&#34;:0.97647058963775635,&#34;g&#34;:0.90588235855102539,&#34;b&#34;:0.78823530673980713,&#34;a&#34;:1.0},&#34;position&#34;:0.0},{&#34;color&#34;:{&#34;r&#34;:0.90588235855102539,&#34;g&#34;:0.7294117808341980,&#34;b&#34;:0.54509806632995605,&#34;a&#34;:1.0},&#34;position&#34;:1.0}],&#34;transform&#34;:{&#34;m00&#34;:-2.4348241589697457e-15,&#34;m01&#34;:39.763694763183594,&#34;m02&#34;:17.468727111816406,&#34;m10&#34;:70.482681274414062,&#34;m11&#34;:4.3158196370255298e-15,&#34;m12&#34;:122.003906250},&#34;opacity&#34;:1.0,&#34;blendMode&#34;:&#34;NORMAL&#34;,&#34;visible&#34;:true}"/>
<path d="M43.7282 105.959C40.1278 101.957 31.4393 106.1 28.3051 108.603C28.7658 108.203 29.3418 107.778 30.0468 107.375C28.3169 106.903 24.6686 105.676 23.9137 104.543C22.9702 103.128 18.7242 103.6 17.7807 104.543C16.8371 105.487 13.5347 107.375 14.0065 114.926C14.4783 122.477 14.4783 130.972 19.196 133.804C22.0266 131.916 29.575 129.179 37.1234 133.332C44.6717 137.485 51.9056 133.804 54.579 131.444C56.4661 129.714 59.6741 123.421 57.4096 112.095C56.9378 109.42 54.8621 104.261 50.333 105.015C49.0978 105.802 46.3373 107.375 45.1777 107.375C44.6992 106.968 44.214 106.499 43.7282 105.959Z" fill="url(#paint1_radial_661_353)"/>
<path d="M59.2959 54.0339C61.183 82.7278 48.1306 86.755 41.3686 85.1818C37.217 84.0492 32.0904 85.3392 30.046 86.1257C25.6428 87.0696 16.2702 85.1818 14.0057 70.0798C11.7412 54.9777 16.2073 47.1121 18.7235 45.067C21.0823 43.3366 26.9323 40.2532 31.4613 41.7634C37.1226 43.6512 39.9533 41.7634 44.1992 41.2915C53.1629 39.8757 58.6669 49.4718 59.2959 54.0339Z" fill="url(#paint2_radial_661_353)"/>
<path d="M37.1226 79.9905C35.7607 75.5399 35.1222 69.023 38.3127 65.4723M23.0695 66.443C28.9946 67.0272 36.1791 67.7355 36.1791 51.6742M53.1384 67.0246C53.2618 67.2716 53.1617 67.5719 52.9147 67.6954C52.6677 67.8189 52.3673 67.7187 52.2439 67.4717C52.1564 67.2967 52.1055 67.0827 52.0739 66.8715C52.0411 66.6524 52.0241 66.4016 52.0214 66.1335C52.0171 65.7176 52.0467 65.2431 52.1122 64.7531C45.9337 62.7681 42.1107 63.2279 39.8214 64.8066C39.7383 64.8819 39.6452 64.9474 39.5493 65.0048C37.6001 66.5044 36.7269 68.9635 36.5421 71.7206C36.357 74.4822 36.8708 77.4589 37.6007 79.8442C37.6815 80.1082 37.533 80.3878 37.2689 80.4686C37.0049 80.5494 36.7253 80.4009 36.6445 80.1368C35.8899 77.6709 35.3489 74.569 35.5443 71.6538C35.6918 69.4538 36.2632 67.3117 37.5242 65.6431C36.8818 65.7601 36.1756 65.8414 35.496 65.8791C34.7366 65.9212 33.9906 65.91 33.3937 65.8259C33.097 65.7841 32.8157 65.7215 32.5814 65.6271C32.5173 65.6013 32.4488 65.5699 32.3804 65.5314C32.0666 65.769 31.7397 65.9762 31.4009 66.156C29.851 66.9787 28.1189 67.188 26.4222 67.173C25.2734 67.1627 24.0964 67.0468 22.9909 66.938C22.5426 66.8938 22.106 66.8508 21.6878 66.8165C21.6878 66.8233 21.6878 66.8301 21.6878 66.8369C21.6846 67.7778 21.5908 68.6275 21.4601 69.1962C21.3998 69.4589 21.316 69.7363 21.1868 69.9192C21.138 69.9883 20.9563 70.2258 20.6347 70.1972C20.3196 70.1693 20.1782 69.9111 20.1384 69.8314C20.0149 69.5844 20.1151 69.2841 20.3621 69.1606C20.3896 69.1468 20.4177 69.1359 20.4462 69.1276C20.4591 69.0817 20.4723 69.03 20.4855 68.9723C20.5954 68.494 20.6848 67.7213 20.6878 66.8335C20.6908 65.9478 20.6078 64.9734 20.3869 64.0877C20.1644 63.1953 19.8132 62.4384 19.3134 61.9384C19.1182 61.7431 19.1182 61.4265 19.3135 61.2313C19.5088 61.036 19.8254 61.0361 20.0206 61.2314C20.7003 61.9113 21.1126 62.8651 21.3572 63.8457C21.5171 64.4871 21.6101 65.1596 21.6548 65.8106C22.1486 65.8494 22.6466 65.8986 23.148 65.9481C24.2294 66.0549 25.3266 66.1632 26.4311 66.173C28.0515 66.1874 29.5923 65.9838 30.9321 65.2727C33.5632 63.8761 35.6791 60.3609 35.6791 51.6742C35.6791 51.398 35.9029 51.1742 36.1791 51.1742C36.4552 51.1742 36.6791 51.398 36.6791 51.6742C36.6791 58.6195 35.3447 62.5959 33.2273 64.7808C33.3165 64.801 33.4185 64.8195 33.5332 64.8357C34.0421 64.9073 34.7174 64.9207 35.4406 64.8806C36.1609 64.8407 36.9091 64.7489 37.5591 64.6183C38.2038 64.4888 38.7063 64.3298 38.9939 64.1708C39.068 64.1149 39.1435 64.0601 39.2204 64.0064C41.8682 62.1593 46.0402 61.7753 52.2922 63.7608C52.4304 63.1652 52.6262 62.5739 52.8894 62.0677C53.2282 61.4163 53.7304 60.8096 54.4569 60.6279C54.7248 60.5609 54.9963 60.7237 55.0633 60.9916C55.1303 61.2595 54.9674 61.531 54.6995 61.598C54.3885 61.6758 54.0671 61.9704 53.7766 62.5291C53.5116 63.0386 53.3146 63.6897 53.188 64.3595C53.1961 64.4299 53.1893 64.5031 53.1654 64.5747C53.1581 64.5966 53.1495 64.6176 53.1396 64.6377C53.0545 65.1721 53.0169 65.6908 53.0213 66.1232C53.0238 66.3586 53.0386 66.5615 53.0628 66.7233C53.0883 66.893 53.1197 66.9871 53.1384 67.0246ZM44.2772 41.7854C44.2697 41.7866 44.2621 41.7876 44.2544 41.7884C43.2222 41.9032 42.2718 42.1044 41.3235 42.3176C41.2022 42.3449 41.0808 42.3724 40.9592 42.4C40.1361 42.5865 39.3029 42.7753 38.436 42.9067C36.4214 43.2121 34.2176 43.2096 31.3032 42.2378C29.1899 41.5331 26.7203 41.8897 24.4411 42.6729C22.1778 43.4505 20.1751 44.6239 19.0294 45.4627C16.7008 47.3662 12.2529 55.0186 14.5002 70.0056C15.6175 77.4571 18.4732 81.5669 21.5122 83.7114C24.5444 85.8513 27.8217 86.0801 29.904 85.6447C30.9677 85.2395 32.7797 84.7197 34.8498 84.4386C36.9383 84.155 39.3281 84.1089 41.4909 84.6969C44.72 85.445 49.4707 84.8624 53.2005 80.6275C56.9451 76.3758 59.7342 68.3597 58.7982 54.0848C58.4935 51.9138 57.0118 48.4777 54.5055 45.76C52.0036 43.047 48.5431 41.1116 44.2772 41.7854Z" stroke="black" stroke-opacity="0.18" stroke-linecap="round" stroke-linejoin="round"/>
<g filter="url(#filter1_d_661_353)">
<path d="M32.1755 34.5417C37.4552 35.2407 37.7104 35.7744 38.4077 34.5417C38.4077 35.7744 41.5203 37.0071 53.856 34.5417C62.7475 32.7648 58.1036 23.032 58.103 20.7319C58.1023 18.2359 56.612 15.1217 55.9146 12.8618C55.2172 10.6019 53.4379 8.37065 47.1612 7.13799C33.5019 4.45547 17.7089 6.78483 15.0653 9.99988C13.6064 12.8618 11.3154 15.4354 11.3154 25.2968C11.3154 35.1581 19.6841 35.9799 23.8684 35.1581C26.6579 33.9254 27.52 33.9254 32.1755 34.5417Z" fill="url(#paint3_radial_661_353)"/>
<path d="M38.4077 34.5417C38.8727 30.6383 39.8465 26.4558 36.9488 23.5939M38.4077 34.5417C37.7104 35.7744 37.4552 35.2407 32.1755 34.5417C27.52 33.9254 26.6579 33.9254 23.8684 35.1581C19.6841 35.9799 11.3154 35.1581 11.3154 25.2968C11.3154 15.4354 13.6064 12.8618 15.0653 9.99988C17.7089 6.78483 33.5019 4.45547 47.1612 7.13799C53.4379 8.37065 55.2172 10.6019 55.9146 12.8618C56.612 15.1217 58.1023 18.2359 58.103 20.7319C58.1036 23.032 62.7475 32.7648 53.856 34.5417C41.5203 37.0071 38.4077 35.7744 38.4077 34.5417Z" stroke="#CBCBCB"/>
</g>
</g>
<defs>
<filter id="filter0_d_661_353" x="0.81543" y="0.465088" width="69" height="207.021" filterUnits="userSpaceOnUse" color-interpolation-filters="sRGB">
<feFlood flood-opacity="0" result="BackgroundImageFix"/>
<feColorMatrix in="SourceAlpha" type="matrix" values="0 0 0 0 0 0 0 0 0 0 0 0 0 0 0 0 0 0 127 0" result="hardAlpha"/>
<feOffset dy="5"/>
<feGaussianBlur stdDeviation="5"/>
<feComposite in2="hardAlpha" operator="out"/>
<feColorMatrix type="matrix" values="0 0 0 0 0 0 0 0 0 0 0 0 0 0 0 0 0 0 0.35 0"/>
<feBlend mode="normal" in2="BackgroundImageFix" result="effect1_dropShadow_661_353"/>
<feBlend mode="normal" in="SourceGraphic" in2="effect1_dropShadow_661_353" result="shape"/>
</filter>
<clipPath id="paint0_diamond_661_353_clip_path"><path d="M54.5774 138.522C53.8226 135.879 53.6339 126.409 53.6339 122.004C45.4565 122.633 27.6865 124.647 22.0252 127.667C17.9135 129.861 17.2028 141.481 17.5436 151.535C17.7719 158.273 19.1868 164.93 21.9149 171.095C25.1294 178.36 29.7371 186.664 34.7631 190.435C42.3114 196.098 41.0534 188.705 39.4808 184.3C38.8674 182.582 36.084 180.43 33.8195 166.838C31.555 153.246 35.0776 149.534 37.1219 149.376C47.0292 151.264 45.1421 173.917 44.6703 180.524C44.2929 185.81 46.4001 185.558 47.5008 184.772C63.0694 175.805 55.521 141.825 54.5774 138.522Z"/></clipPath><filter id="filter1_d_661_353" x="6.81543" y="5.46509" width="57" height="39" filterUnits="userSpaceOnUse" color-interpolation-filters="sRGB">
<feFlood flood-opacity="0" result="BackgroundImageFix"/>
<feColorMatrix in="SourceAlpha" type="matrix" values="0 0 0 0 0 0 0 0 0 0 0 0 0 0 0 0 0 0 127 0" result="hardAlpha"/>
<feOffset dy="4"/>
<feGaussianBlur stdDeviation="2"/>
<feComposite in2="hardAlpha" operator="out"/>
<feColorMatrix type="matrix" values="0 0 0 0 0 0 0 0 0 0 0 0 0 0 0 0 0 0 0.25 0"/>
<feBlend mode="normal" in2="BackgroundImageFix" result="effect1_dropShadow_661_353"/>
<feBlend mode="normal" in="SourceGraphic" in2="effect1_dropShadow_661_353" result="shape"/>
</filter>
<linearGradient id="paint0_diamond_661_353" x1="0" y1="0" x2="500" y2="500" gradientUnits="userSpaceOnUse">
<stop stop-color="#F9E7C9"/>
<stop offset="1" stop-color="#E7BA8B"/>
</linearGradient>
<radialGradient id="paint1_radial_661_353" cx="0" cy="0" r="1" gradientUnits="userSpaceOnUse" gradientTransform="translate(36.0746 119.431) rotate(90) scale(15.7816 22.1139)">
<stop offset="0.56179" stop-color="white"/>
<stop offset="1" stop-color="#CAC9C2"/>
</radialGradient>
<radialGradient id="paint2_radial_661_353" cx="0" cy="0" r="1" gradientUnits="userSpaceOnUse" gradientTransform="translate(36.4324 63.739) rotate(90) scale(22.5886 23.0481)">
<stop offset="0.56179" stop-color="white"/>
<stop offset="1" stop-color="#CAC9C2"/>
</radialGradient>
<radialGradient id="paint3_radial_661_353" cx="0" cy="0" r="1" gradientUnits="userSpaceOnUse" gradientTransform="translate(35.3154 20.9651) rotate(-90) scale(15 24)">
<stop offset="0.505" stop-color="white"/>
<stop offset="1" stop-color="#D9D9D9"/>
</radialGradient>
</defs>
</svg>
