<svg width="74" height="218" viewBox="0 0 74 218" fill="none" xmlns="http://www.w3.org/2000/svg">
<g filter="url(#filter0_d_661_347)">
<g clip-path="url(#paint0_diamond_661_347_clip_path)" data-figma-skip-parse="true"><g transform="matrix(0 0.0458918 0.0232313 0 38.965 156.545)"><rect x="0" y="0" width="1021.79" height="1043.05" fill="url(#paint0_diamond_661_347)" opacity="1" shape-rendering="crispEdges"/><rect x="0" y="0" width="1021.79" height="1043.05" transform="scale(1 -1)" fill="url(#paint0_diamond_661_347)" opacity="1" shape-rendering="crispEdges"/><rect x="0" y="0" width="1021.79" height="1043.05" transform="scale(-1 1)" fill="url(#paint0_diamond_661_347)" opacity="1" shape-rendering="crispEdges"/><rect x="0" y="0" width="1021.79" height="1043.05" transform="scale(-1)" fill="url(#paint0_diamond_661_347)" opacity="1" shape-rendering="crispEdges"/></g></g><path d="M61.4717 156.948C62.9813 148.642 61.7862 133.666 60.9999 127.216L43.5443 110.698C37.0967 110.541 21.7484 110.038 17.5968 124.385C14.0971 136.479 16.2742 159.707 18.0804 173.488C18.6543 177.867 19.8744 182.136 21.7859 186.117C24.7442 192.277 28.599 199.459 30.8064 200.839C34.5806 203.198 36.4677 202.726 37.4112 200.839C38.1661 199.329 37.7258 194.861 37.4112 192.816C35.5242 186.209 32.1274 171.201 33.6371 164.027C35.5242 155.061 38.3548 155.061 39.2983 155.533C40.2419 156.005 41.6572 158.364 43.5443 164.027C45.4314 169.691 44.4878 178.658 43.5443 183.849C42.7895 188.002 42.9153 190.928 43.0725 191.872C44.4878 193.602 48.0733 196.025 51.0927 191.872C54.8668 186.681 59.5846 167.331 61.4717 156.948Z" data-figma-gradient-fill="{&#34;type&#34;:&#34;GRADIENT_DIAMOND&#34;,&#34;stops&#34;:[{&#34;color&#34;:{&#34;r&#34;:0.97647058963775635,&#34;g&#34;:0.90588235855102539,&#34;b&#34;:0.78823530673980713,&#34;a&#34;:1.0},&#34;position&#34;:0.0},{&#34;color&#34;:{&#34;r&#34;:0.90588235855102539,&#34;g&#34;:0.7294117808341980,&#34;b&#34;:0.54509806632995605,&#34;a&#34;:1.0},&#34;position&#34;:1.0}],&#34;stopsVar&#34;:[{&#34;color&#34;:{&#34;r&#34;:0.97647058963775635,&#34;g&#34;:0.90588235855102539,&#34;b&#34;:0.78823530673980713,&#34;a&#34;:1.0},&#34;position&#34;:0.0},{&#34;color&#34;:{&#34;r&#34;:0.90588235855102539,&#34;g&#34;:0.7294117808341980,&#34;b&#34;:0.54509806632995605,&#34;a&#34;:1.0},&#34;position&#34;:1.0}],&#34;transform&#34;:{&#34;m00&#34;:-2.8450132044465599e-15,&#34;m01&#34;:46.462589263916016,&#34;m02&#34;:15.733699798583984,&#34;m10&#34;:91.78356933593750,&#34;m11&#34;:5.6201228973385906e-15,&#34;m12&#34;:110.652832031250},&#34;opacity&#34;:1.0,&#34;blendMode&#34;:&#34;NORMAL&#34;,&#34;visible&#34;:true}"/>
<path d="M63.1343 111.721C63.4402 121.713 62.6155 127.218 61.7041 129.894C61.2535 131.217 59.7752 131.203 58.4107 130.901C56.8873 130.565 54.9728 130.648 53.2349 130.907C50.5104 131.313 48.2624 133.03 45.907 134.458C42.3415 136.62 37.711 137.804 33.1668 135.706C28.9435 131.763 23.7575 131.952 20.1551 133.021C18.4615 133.523 16.468 132.908 15.9183 131.229C14.2959 126.275 14.2959 121.365 14.2959 113.525C14.2959 105.974 19.9571 99.9959 22.7878 97.9509C25.3039 96.6924 31.374 95.1192 35.5257 98.8947C39.6773 102.67 44.4893 101.412 46.3764 100.311C51.846 96.9234 56.5817 99.1852 59.7151 102.256C62.1967 104.689 63.0279 108.248 63.1343 111.721Z" fill="url(#paint1_radial_661_347)"/>
<path d="M60.6314 59.6736C62.4019 44.5011 46.3599 37.0669 37.3101 40.6794C36.4353 41.0286 35.4877 41.2069 34.5543 41.0812C27.6296 40.1483 22.6455 41.8915 19.3116 44.1856C15.7187 46.658 14.0444 50.9547 13.1534 55.2241C11.5837 62.7453 10.523 73.0254 13.3532 79.5371C17.1274 88.2208 25.3048 87.8747 28.9217 86.6162C30.6515 86.1443 34.4886 85.3892 35.9983 86.1443C37.508 86.8994 41.345 86.7735 43.0749 86.6162C51.9054 84.6532 57.2286 79.0621 58.967 73.9629C60.4634 69.5733 60.0938 64.28 60.6314 59.6736Z" fill="url(#paint2_radial_661_347)"/>
<path d="M34.9062 68.1279C33.6146 69.1127 31.9024 72.4354 32.2242 80.481M31.1417 64.0675C30.1849 65.9655 25.9163 67.4532 18.7356 65.9577M18.2502 65.3509C18.262 66.9928 17.8623 68.5918 16.6557 69.6264M51.1599 51.8741C51.3204 51.6494 51.6327 51.5973 51.8574 51.7578C52.0821 51.9182 52.1342 52.2305 51.9738 52.4552C50.7633 54.1505 49.4594 56.3717 48.5913 58.6154C47.7161 60.8772 47.3182 63.0745 47.804 64.7693C48.0893 65.7645 48.6823 66.6002 49.7063 67.1979C50.7052 67.781 52.1436 68.1539 54.1597 68.181C54.4613 67.1021 54.9942 66.1369 55.4059 65.5604C55.5663 65.3356 55.8786 65.2835 56.1033 65.444C56.3281 65.6045 56.3802 65.9167 56.2197 66.1415C55.8549 66.6524 55.3655 67.5425 55.1045 68.5169C54.8417 69.4982 54.8317 70.4794 55.298 71.257C55.4401 71.4938 55.3632 71.8009 55.1264 71.943C54.8896 72.085 54.5825 72.0082 54.4405 71.7714C53.9525 70.9579 53.859 70.0425 53.96 69.1774C51.9278 69.1289 50.363 68.7391 49.2022 68.0616C48.1569 67.4514 47.4621 66.6207 47.0549 65.6498C45.3845 66.6225 43.4732 67.504 41.5544 68.0515C39.4931 68.6396 37.3755 68.8558 35.53 68.3363C35.3504 68.4083 35.0964 68.5757 34.8061 68.9138C34.4558 69.3219 34.0739 69.9553 33.7315 70.8888C33.0461 72.7572 32.5366 75.7805 32.7238 80.461C32.7348 80.737 32.5201 80.9696 32.2441 80.9806C31.9682 80.9917 31.7356 80.7769 31.7246 80.501C31.5343 75.7428 32.0469 72.5774 32.7926 70.5444C33.1658 69.5272 33.6016 68.7818 34.0474 68.2625C34.1617 68.1293 34.2781 68.0094 34.3959 67.9029C33.13 67.2764 32.0848 66.2208 31.3768 64.6441C31.2693 64.7975 31.1448 64.9451 31.0047 65.0859C30.4016 65.6923 29.497 66.1907 28.3391 66.5354C26.1194 67.1963 22.8718 67.3223 18.6929 66.4595C18.5385 67.7991 18.0522 69.0876 16.9811 70.006C16.7715 70.1857 16.4558 70.1615 16.2761 69.9519C16.0963 69.7423 16.1206 69.4266 16.3302 69.2469C17.2672 68.4434 17.6738 67.2181 17.7405 65.8437C17.7407 65.8334 17.7412 65.8231 17.742 65.8127C17.7552 65.5176 17.7528 65.2156 17.7368 64.9096C17.6462 63.1803 17.1222 61.4452 16.6678 60.3846C16.5591 60.1307 16.6767 59.8368 16.9305 59.7281C17.1844 59.6193 17.4783 59.7369 17.587 59.9907C18.0762 61.1325 18.6373 62.9841 18.7354 64.8573C18.7457 65.0535 18.751 65.2514 18.7504 65.45C22.8941 66.3242 26.0147 66.1841 28.0538 65.577C29.1072 65.2634 29.8456 64.8333 30.2957 64.3807C30.7293 63.9448 30.8812 63.5074 30.8417 63.1123C29.9609 59.7746 30.2265 54.7126 32.213 47.3156C32.2847 47.0489 32.5589 46.8908 32.8256 46.9624C33.0923 47.034 33.2504 47.3083 33.1788 47.575C31.1991 54.9464 30.9938 59.8103 31.8173 62.8901C32.5133 65.4931 33.9359 66.8049 35.6728 67.336C37.2931 67.8315 39.2542 67.6678 41.28 67.0898C43.1775 66.5484 45.0876 65.656 46.7485 64.6698C46.3272 62.7295 46.8154 60.4339 47.6586 58.2545C48.5639 55.9148 49.9134 53.6199 51.1599 51.8741ZM28.7574 86.144C28.7682 86.1402 28.7791 86.1369 28.7901 86.1339C29.6742 85.8926 31.0917 85.5801 32.4867 85.4232C33.1842 85.3448 33.8877 85.304 34.5223 85.3336C35.1467 85.3629 35.752 85.462 36.222 85.6971C36.5303 85.8513 36.993 85.9754 37.5735 86.0645C38.1461 86.1524 38.7999 86.2014 39.4699 86.2227C40.7933 86.2646 42.1469 86.1972 42.9977 86.1212C51.6545 84.1863 56.8186 78.7154 58.4937 73.8016C59.22 71.6712 59.4987 69.3043 59.6599 66.8665C59.7136 66.053 59.7544 65.227 59.7952 64.4004C59.8753 62.7768 59.9555 61.1514 60.1348 59.6156C60.9953 52.2415 57.5377 46.7619 52.7497 43.5472C47.9349 40.3146 41.8349 39.4115 37.4954 41.1437C36.5627 41.516 35.5271 41.7168 34.4875 41.5767C27.6865 40.6604 22.8272 42.3734 19.5951 44.5975C16.1661 46.9571 14.5268 51.0908 13.6429 55.3263C12.8621 59.0672 12.2098 63.4863 12.1032 67.7716C11.9963 72.0662 12.439 76.1794 13.8118 79.3378C15.6373 83.538 18.5043 85.5219 21.3328 86.324C24.1856 87.1328 27.0281 86.7457 28.7574 86.144Z" stroke="black" stroke-opacity="0.18" stroke-linecap="round" stroke-linejoin="round"/>
<g filter="url(#filter1_d_661_347)">
<path d="M31.6799 33.7038C36.8341 34.4494 38.4879 34.3612 39.1686 33.0464C39.1686 34.3612 40.8026 36.3335 52.8453 33.7038C61.5255 31.8084 57.611 20.5556 56.2494 18.5834C55.1601 17.0056 54.9028 16.8336 54.2219 14.4231C54.2217 13.1083 50.8028 9.21782 44.6753 7.903C31.3405 5.04171 22.2084 5.71164 18.8044 7.903C16.3081 10.0944 11.3154 13.3241 11.3154 23.8427C11.3154 34.3612 19.4852 35.2378 23.5701 34.3612C26.2934 33.0464 27.135 33.0464 31.6799 33.7038Z" fill="url(#paint3_radial_661_347)"/>
<path d="M39.1686 33.0464C39.6225 28.8828 39.7133 20.5556 36.4454 20.5556M39.1686 33.0464C38.4879 34.3612 36.8341 34.4494 31.6799 33.7038C27.135 33.0464 26.2934 33.0464 23.5701 34.3612C19.4852 35.2378 11.3154 34.3612 11.3154 23.8427C11.3154 13.3241 16.3081 10.0944 18.8044 7.903C22.2084 5.71164 31.3405 5.04171 44.6753 7.903C50.8028 9.21782 54.2217 13.1083 54.2219 14.4231C54.9028 16.8336 55.1601 17.0056 56.2494 18.5834C57.611 20.5556 61.5255 31.8084 52.8453 33.7038C40.8026 36.3335 39.1686 34.3612 39.1686 33.0464Z" stroke="#CBCBCB"/>
</g>
</g>
<defs>
<filter id="filter0_d_661_347" x="0.81543" y="0.5" width="72.3838" height="216.936" filterUnits="userSpaceOnUse" color-interpolation-filters="sRGB">
<feFlood flood-opacity="0" result="BackgroundImageFix"/>
<feColorMatrix in="SourceAlpha" type="matrix" values="0 0 0 0 0 0 0 0 0 0 0 0 0 0 0 0 0 0 127 0" result="hardAlpha"/>
<feOffset dy="5"/>
<feGaussianBlur stdDeviation="5"/>
<feComposite in2="hardAlpha" operator="out"/>
<feColorMatrix type="matrix" values="0 0 0 0 0 0 0 0 0 0 0 0 0 0 0 0 0 0 0.35 0"/>
<feBlend mode="normal" in2="BackgroundImageFix" result="effect1_dropShadow_661_347"/>
<feBlend mode="normal" in="SourceGraphic" in2="effect1_dropShadow_661_347" result="shape"/>
</filter>
<clipPath id="paint0_diamond_661_347_clip_path"><path d="M61.4717 156.948C62.9813 148.642 61.7862 133.666 60.9999 127.216L43.5443 110.698C37.0967 110.541 21.7484 110.038 17.5968 124.385C14.0971 136.479 16.2742 159.707 18.0804 173.488C18.6543 177.867 19.8744 182.136 21.7859 186.117C24.7442 192.277 28.599 199.459 30.8064 200.839C34.5806 203.198 36.4677 202.726 37.4112 200.839C38.1661 199.329 37.7258 194.861 37.4112 192.816C35.5242 186.209 32.1274 171.201 33.6371 164.027C35.5242 155.061 38.3548 155.061 39.2983 155.533C40.2419 156.005 41.6572 158.364 43.5443 164.027C45.4314 169.691 44.4878 178.658 43.5443 183.849C42.7895 188.002 42.9153 190.928 43.0725 191.872C44.4878 193.602 48.0733 196.025 51.0927 191.872C54.8668 186.681 59.5846 167.331 61.4717 156.948Z"/></clipPath><filter id="filter1_d_661_347" x="6.81543" y="5.5" width="56" height="37.9999" filterUnits="userSpaceOnUse" color-interpolation-filters="sRGB">
<feFlood flood-opacity="0" result="BackgroundImageFix"/>
<feColorMatrix in="SourceAlpha" type="matrix" values="0 0 0 0 0 0 0 0 0 0 0 0 0 0 0 0 0 0 127 0" result="hardAlpha"/>
<feOffset dy="4"/>
<feGaussianBlur stdDeviation="2"/>
<feComposite in2="hardAlpha" operator="out"/>
<feColorMatrix type="matrix" values="0 0 0 0 0 0 0 0 0 0 0 0 0 0 0 0 0 0 0.25 0"/>
<feBlend mode="normal" in2="BackgroundImageFix" result="effect1_dropShadow_661_347"/>
<feBlend mode="normal" in="SourceGraphic" in2="effect1_dropShadow_661_347" result="shape"/>
</filter>
<linearGradient id="paint0_diamond_661_347" x1="0" y1="0" x2="500" y2="500" gradientUnits="userSpaceOnUse">
<stop stop-color="#F9E7C9"/>
<stop offset="1" stop-color="#E7BA8B"/>
</linearGradient>
<radialGradient id="paint1_radial_661_347" cx="0" cy="0" r="1" gradientUnits="userSpaceOnUse" gradientTransform="translate(38.7475 116.666) rotate(90) scale(20.138 24.4517)">
<stop offset="0.56179" stop-color="white"/>
<stop offset="1" stop-color="#CAC9C2"/>
</radialGradient>
<radialGradient id="paint2_radial_661_347" cx="0" cy="0" r="1" gradientUnits="userSpaceOnUse" gradientTransform="translate(36.1773 63.5309) rotate(90) scale(23.7526 24.5893)">
<stop offset="0.56179" stop-color="white"/>
<stop offset="1" stop-color="#CAC9C2"/>
</radialGradient>
<radialGradient id="paint3_radial_661_347" cx="0" cy="0" r="1" gradientUnits="userSpaceOnUse" gradientTransform="translate(34.8154 20.5) rotate(-90) scale(14.5 23.5)">
<stop offset="0.505" stop-color="white"/>
<stop offset="1" stop-color="#D9D9D9"/>
</radialGradient>
</defs>
</svg>
