<svg width="81" height="212" viewBox="0 0 81 212" fill="none" xmlns="http://www.w3.org/2000/svg">
<g filter="url(#filter0_d_513_1978)">
<path d="M64.1656 151.667C62.2785 134.677 65.2663 124.452 66.9961 121.463L58.0327 112.496L13.6877 112.968C23.1228 136.093 16.5182 140.34 17.4617 149.779C20.2034 177.206 26.7396 192.096 31.6144 196.029C34.9167 197.288 41.0495 197.917 39.1625 190.366C36.8037 180.927 36.8037 165.353 37.2755 161.106C37.7472 156.858 39.1625 153.555 42.9366 152.139C45.9558 151.006 46.7106 153.555 46.7106 154.971C45.6098 157.645 44.5405 164.409 49.0694 170.073C54.7304 177.152 52.3717 183.759 52.8434 188.006C53.2208 191.404 55.5167 191.625 56.6175 191.31C69.8266 181.871 66.5243 172.904 64.1656 151.667Z" fill="url(#paint0_diamond_513_1978)"/>
<ellipse cx="7.54809" cy="8.4949" rx="7.54809" ry="8.4949" transform="matrix(-1 0 0 1 58.5049 86.5352)" fill="#A9A9A9"/>
<ellipse cx="9.90687" cy="8.4949" rx="9.90687" ry="8.4949" transform="matrix(-1 0 0 1 39.6338 86.5352)" fill="#A9A9A9"/>
<path d="M20.2921 87.0093C28.595 90.7848 34.4448 91.4141 36.3318 91.2568C42.3216 88.7601 46.991 90.1159 50.0127 92.1851C53.7868 88.8658 61.8066 87.0093 66.9959 93.1445C72.1852 99.2796 69.8265 108.247 69.8265 113.438C69.8265 118.629 66.0524 124.292 62.7501 122.877C60.1083 121.744 55.3593 122.09 53.315 122.405C49.0692 123.821 41.9929 129.012 39.6341 125.708C37.7471 123.065 33.1868 123.663 31.1425 124.292C24.3492 126.935 19.8204 126.338 18.4051 125.708C10.857 115.892 10.228 104.943 10.857 100.696C10.5425 94.5603 11.9892 83.2338 20.2921 87.0093Z" fill="url(#paint1_radial_513_1978)"/>
<path d="M50.8822 6.68146C53.9015 9.32432 60.3176 12.1874 63.1483 13.2886C70.6966 18.4799 70.6966 28.3907 69.7531 32.6381C67.1112 51.5157 57.0152 56.5497 52.2975 56.707H33.3696C29.0667 56.707 24.6168 55.9302 21.3177 53.1678C13.0142 46.2152 17.651 38.6587 16.4428 26.9748C15.3105 16.0259 24.7774 10.457 29.6524 9.04116C35.4709 7.1534 47.8628 4.0386 50.8822 6.68146Z" fill="url(#paint2_radial_513_1978)"/>
<path d="M35.3137 16.1202C36.7167 24.6973 36.0798 40.5712 22.4648 36.0648M60.4019 37.3343C57.6227 37.1156 52.8181 35.6621 52.3367 31.305M51.8187 31.1373C48.9586 34.3701 45.3027 36.7349 40.9749 36.4966M40.7268 36.9816C38.8322 40.7822 36.087 48.484 38.6161 52.4595M34.8202 16.201C34.7756 15.9284 34.9604 15.6714 35.2329 15.6268C35.5055 15.5822 35.7625 15.767 35.8071 16.0395C36.52 20.3974 36.7242 26.6854 34.9427 31.2963C34.664 32.0176 34.3346 32.703 33.948 33.3358C36.4947 35.084 38.8505 35.8789 41.0024 35.9974C45.3482 36.2367 49.033 33.7181 51.9133 30.2594C54.5365 27.1094 56.4344 23.244 57.4863 20.2042C57.5766 19.9432 57.8613 19.8049 58.1223 19.8952C58.3832 19.9855 58.5216 20.2702 58.4313 20.5312C57.3656 23.6109 55.4561 27.5201 52.7999 30.7563C52.8624 33.0062 54.1155 34.4763 55.7347 35.4252C57.2737 36.3269 59.1126 36.7331 60.4544 36.8369C60.474 36.6684 60.4953 36.5007 60.5181 36.3341C60.802 34.2582 61.3288 32.2693 61.7304 31.0642C61.8177 30.8022 62.1008 30.6606 62.3628 30.7479C62.6248 30.8352 62.7664 31.1184 62.6791 31.3804C62.2943 32.535 61.7833 34.4632 61.5089 36.4696C61.2318 38.4959 61.2093 40.5141 61.7294 41.9014C61.8263 42.16 61.6953 42.4481 61.4367 42.5451C61.1781 42.642 60.8899 42.511 60.793 42.2524C60.3276 41.011 60.2485 39.425 60.3608 37.8326C58.9076 37.7179 56.9229 37.2804 55.2292 36.288C53.6385 35.3559 52.2793 33.9138 51.9016 31.7921C49.1001 34.8443 45.522 37.1224 41.2728 37.0092C40.3649 38.793 39.2228 41.5582 38.5848 44.3775C37.9049 47.3819 37.8326 50.2964 39.0379 52.1912C39.1862 52.4242 39.1174 52.7332 38.8844 52.8814C38.6514 53.0296 38.3424 52.9609 38.1942 52.7279C36.7576 50.4697 36.9212 47.198 37.6095 44.1568C38.2261 41.4319 39.2924 38.7703 40.1947 36.9298C38.0478 36.6713 35.773 35.8007 33.386 34.163C32.613 35.1854 31.6538 36.0223 30.4729 36.5835C28.4085 37.5647 25.7558 37.6611 22.4091 36.5728C22.2797 37.6568 22.0864 38.6741 21.8 39.463C21.6514 39.8724 21.4691 40.2451 21.2393 40.5373C21.0083 40.8311 20.7045 41.0734 20.315 41.1514C20.0442 41.2055 19.7808 41.0299 19.7266 40.7592C19.6725 40.4884 19.8481 40.225 20.1188 40.1708C20.2011 40.1543 20.3151 40.0948 20.4532 39.9191C20.5927 39.7418 20.731 39.4774 20.86 39.1218C21.1179 38.4114 21.3042 37.4361 21.4303 36.3332C21.6818 34.1348 21.6825 31.5441 21.6045 29.8292C21.592 29.5533 21.8055 29.3195 22.0813 29.307C22.3572 29.2945 22.591 29.5079 22.6035 29.7838C22.6726 31.3047 22.682 33.51 22.5117 35.5533C25.8014 36.6636 28.2409 36.5372 30.0437 35.6803C31.8933 34.8013 33.171 33.1069 34.0099 30.9359C35.6959 26.5721 35.5227 20.4953 34.8202 16.201ZM29.8067 9.51675L29.7918 9.52132C27.4229 10.2093 23.9185 11.9157 21.1547 14.7802C18.4033 17.6318 16.3918 21.621 16.9401 26.9234C17.2461 29.8823 17.1814 32.5752 17.0458 35.0463C17.0065 35.7623 16.9615 36.4562 16.9178 37.1314C16.8097 38.8005 16.709 40.3547 16.7195 41.842C16.7342 43.9178 16.9672 45.81 17.6868 47.5984C18.4042 49.3816 19.6179 51.0924 21.6387 52.7844C24.8039 55.4347 29.11 56.207 33.3696 56.207H52.289C56.7015 56.0543 66.6412 51.2665 69.2579 32.5688C69.2598 32.5557 69.2621 32.5426 69.265 32.5297C69.7224 30.4705 69.9552 27.0059 69.1474 23.4274C68.3447 19.8711 66.5238 16.2376 62.9122 13.7332C61.479 13.1733 59.1814 12.1859 56.8599 11.0091C54.5179 9.82195 52.112 8.42246 50.5529 7.05769C49.9395 6.52085 48.7578 6.21924 47.0945 6.16952C45.4626 6.12073 43.4841 6.31606 41.3973 6.65583C37.2269 7.33489 32.6999 8.5781 29.8067 9.51675Z" stroke="black" stroke-opacity="0.18" stroke-linecap="round" stroke-linejoin="round"/>
</g>
<defs>
<filter id="filter0_d_513_1978" x="0.672852" y="0.662109" width="79.6885" height="211.136" filterUnits="userSpaceOnUse" color-interpolation-filters="sRGB">
<feFlood flood-opacity="0" result="BackgroundImageFix"/>
<feColorMatrix in="SourceAlpha" type="matrix" values="0 0 0 0 0 0 0 0 0 0 0 0 0 0 0 0 0 0 127 0" result="hardAlpha"/>
<feOffset dy="5"/>
<feGaussianBlur stdDeviation="5"/>
<feComposite in2="hardAlpha" operator="out"/>
<feColorMatrix type="matrix" values="0 0 0 0 0 0 0 0 0 0 0 0 0 0 0 0 0 0 0.35 0"/>
<feBlend mode="normal" in2="BackgroundImageFix" result="effect1_dropShadow_513_1978"/>
<feBlend mode="normal" in="SourceGraphic" in2="effect1_dropShadow_513_1978" result="shape"/>
</filter>
<radialGradient id="paint0_diamond_513_1978" cx="0" cy="0" r="1" gradientUnits="userSpaceOnUse" gradientTransform="translate(40.3419 154.647) rotate(90) scale(42.1511 26.6542)">
<stop stop-color="#F9E7C9"/>
<stop offset="1" stop-color="#E7BA8B"/>
</radialGradient>
<radialGradient id="paint1_radial_513_1978" cx="0" cy="0" r="1" gradientUnits="userSpaceOnUse" gradientTransform="translate(40.517 106.522) rotate(90) scale(20.2667 29.8444)">
<stop offset="0.56179" stop-color="white"/>
<stop offset="1" stop-color="#CAC9C2"/>
</radialGradient>
<radialGradient id="paint2_radial_513_1978" cx="0" cy="0" r="1" gradientUnits="userSpaceOnUse" gradientTransform="translate(43.2002 31.1846) rotate(90) scale(25.5224 26.9814)">
<stop offset="0.56179" stop-color="white"/>
<stop offset="1" stop-color="#CAC9C2"/>
</radialGradient>
</defs>
</svg>
