<svg width="80" height="225" viewBox="0 0 80 225" fill="none" xmlns="http://www.w3.org/2000/svg">
<g filter="url(#filter0_d_661_340)">
<g clip-path="url(#paint0_diamond_661_340_clip_path)" data-figma-skip-parse="true"><g transform="matrix(0 0.0421511 0.0266552 0 39.8995 167.637)"><rect x="0" y="0" width="1023.72" height="1037.52" fill="url(#paint0_diamond_661_340)" opacity="1" shape-rendering="crispEdges"/><rect x="0" y="0" width="1023.72" height="1037.52" transform="scale(1 -1)" fill="url(#paint0_diamond_661_340)" opacity="1" shape-rendering="crispEdges"/><rect x="0" y="0" width="1023.72" height="1037.52" transform="scale(-1 1)" fill="url(#paint0_diamond_661_340)" opacity="1" shape-rendering="crispEdges"/><rect x="0" y="0" width="1023.72" height="1037.52" transform="scale(-1)" fill="url(#paint0_diamond_661_340)" opacity="1" shape-rendering="crispEdges"/></g></g><path d="M63.724 164.657C61.837 147.667 64.8249 137.442 66.5547 134.453L57.591 125.486L13.2443 125.958C22.6798 149.083 16.075 153.33 17.0185 162.769C19.7603 190.196 26.2967 205.086 31.1717 209.019C34.4741 210.278 40.6072 210.907 38.7201 203.356C36.3612 193.917 36.3612 178.343 36.833 174.096C37.3048 169.848 38.7201 166.545 42.4943 165.129C45.5136 163.996 46.2684 166.545 46.2684 167.96C45.1676 170.635 44.0983 177.399 48.6273 183.062C54.2886 190.141 51.9297 196.749 52.4015 200.996C52.7789 204.394 55.0749 204.614 56.1757 204.3C69.3853 194.861 66.0829 185.894 63.724 164.657Z" data-figma-gradient-fill="{&#34;type&#34;:&#34;GRADIENT_DIAMOND&#34;,&#34;stops&#34;:[{&#34;color&#34;:{&#34;r&#34;:0.97647058963775635,&#34;g&#34;:0.90588235855102539,&#34;b&#34;:0.78823530673980713,&#34;a&#34;:1.0},&#34;position&#34;:0.0},{&#34;color&#34;:{&#34;r&#34;:0.90588235855102539,&#34;g&#34;:0.7294117808341980,&#34;b&#34;:0.54509806632995605,&#34;a&#34;:1.0},&#34;position&#34;:1.0}],&#34;stopsVar&#34;:[{&#34;color&#34;:{&#34;r&#34;:0.97647058963775635,&#34;g&#34;:0.90588235855102539,&#34;b&#34;:0.78823530673980713,&#34;a&#34;:1.0},&#34;position&#34;:0.0},{&#34;color&#34;:{&#34;r&#34;:0.90588235855102539,&#34;g&#34;:0.7294117808341980,&#34;b&#34;:0.54509806632995605,&#34;a&#34;:1.0},&#34;position&#34;:1.0}],&#34;transform&#34;:{&#34;m00&#34;:-3.2643178067434881e-15,&#34;m01&#34;:53.310352325439453,&#34;m02&#34;:13.244335174560547,&#34;m10&#34;:84.302291870117188,&#34;m11&#34;:5.1620267271562572e-15,&#34;m12&#34;:125.485839843750},&#34;opacity&#34;:1.0,&#34;blendMode&#34;:&#34;NORMAL&#34;,&#34;visible&#34;:true}"/>
<ellipse cx="7.54837" cy="8.4949" rx="7.54837" ry="8.4949" transform="matrix(-1 0 0 1 58.0625 99.5269)" fill="#A9A9A9"/>
<ellipse cx="9.90723" cy="8.4949" rx="9.90723" ry="8.4949" transform="matrix(-1 0 0 1 39.1924 99.5283)" fill="#A9A9A9"/>
<path d="M19.8489 100.001C28.1521 103.776 34.0021 104.405 35.8891 104.248C41.8791 101.751 46.5487 103.107 49.5706 105.176C53.3447 101.857 61.3649 100.001 66.5544 106.136C71.7439 112.271 69.385 121.238 69.385 126.429C69.385 131.621 65.6108 137.284 62.3084 135.868C59.6665 134.735 54.9173 135.081 52.873 135.396C48.627 136.812 41.5504 142.003 39.1916 138.7C37.3045 136.057 32.744 136.655 30.6996 137.284C23.9061 139.927 19.3771 139.329 17.9618 138.7C10.4134 128.883 9.78437 117.934 10.4134 113.687C10.0989 107.552 11.5457 96.2251 19.8489 100.001Z" fill="url(#paint1_radial_661_340)"/>
<path d="M49.5716 43.3553C52.591 45.9981 59.0071 48.8612 61.8377 49.9624C69.3861 55.1538 69.3861 65.0645 68.4426 69.3119C65.8006 88.1895 55.7047 93.2235 50.987 93.3808H32.059C27.7562 93.3808 23.3063 92.604 20.0072 89.8416C11.7037 82.889 16.3405 75.3325 15.1322 63.6487C14 52.6997 23.4669 47.1308 28.3419 45.715C34.1604 43.8272 46.5523 40.7124 49.5716 43.3553Z" fill="url(#paint2_radial_661_340)"/>
<path d="M34.0031 52.7941C35.4061 61.3712 34.7693 77.245 21.1543 72.7386M59.0914 74.0081C56.3121 73.7894 51.5076 72.336 51.0261 67.9788M50.5082 67.8111C47.648 71.044 43.9921 73.4087 39.6644 73.1704M39.4163 73.6554C37.5217 77.456 34.7765 85.1578 37.3055 89.1334M33.5097 52.8748C33.4651 52.6023 33.6499 52.3452 33.9224 52.3006C34.1949 52.2561 34.452 52.4408 34.4966 52.7134C35.2094 57.0712 35.4136 63.3592 33.6321 67.9701C33.3534 68.6915 33.0241 69.3768 32.6375 70.0097C35.1841 71.7578 37.5399 72.5527 39.6919 72.6712C44.0376 72.9105 47.7225 70.3919 50.6027 66.9333C53.2259 63.7833 55.1238 59.9178 56.1757 56.878C56.266 56.6171 56.5508 56.4787 56.8117 56.569C57.0727 56.6593 57.211 56.9441 57.1207 57.205C56.0551 60.2847 54.1456 64.1939 51.4894 67.4302C51.5518 69.6801 52.805 71.1502 54.4242 72.099C55.9632 73.0008 57.802 73.4069 59.1439 73.5107C59.1635 73.3422 59.1848 73.1745 59.2076 73.0079C59.4914 70.932 60.0183 68.9431 60.4198 67.7381C60.5071 67.4761 60.7903 67.3345 61.0522 67.4218C61.3142 67.5091 61.4558 67.7922 61.3685 68.0542C60.9838 69.2088 60.4727 71.137 60.1983 73.1434C59.9212 75.1697 59.8988 77.1879 60.4188 78.5752C60.5157 78.8338 60.3847 79.122 60.1261 79.2189C59.8676 79.3158 59.5794 79.1848 59.4824 78.9262C59.0171 77.6848 58.9379 76.0988 59.0502 74.5064C57.597 74.3917 55.6123 73.9542 53.9186 72.9618C52.328 72.0297 50.9687 70.5877 50.5911 68.4659C47.7896 71.5182 44.2114 73.7962 39.9622 73.683C39.0544 75.4668 37.9123 78.232 37.2742 81.0513C36.5943 84.0557 36.522 86.9702 37.7274 88.865C37.8756 89.098 37.8069 89.407 37.5739 89.5552C37.3409 89.7035 37.0319 89.6347 36.8837 89.4017C35.4471 87.1435 35.6107 83.8718 36.2989 80.8306C36.9156 78.1057 37.9819 75.4441 38.8842 73.6036C36.7373 73.3451 34.4624 72.4745 32.0755 70.8368C31.3024 71.8592 30.3433 72.6961 29.1624 73.2574C27.0979 74.2385 24.4452 74.3349 21.0986 73.2466C20.9691 74.3306 20.7758 75.3479 20.4895 76.1369C20.3409 76.5463 20.1585 76.9189 19.9288 77.2111C19.6977 77.5049 19.394 77.7473 19.0045 77.8252C18.7337 77.8794 18.4703 77.7038 18.4161 77.433C18.3619 77.1622 18.5375 76.8988 18.8083 76.8446C18.8905 76.8282 19.0045 76.7687 19.1427 76.593C19.2821 76.4157 19.4204 76.1512 19.5495 75.7957C19.8074 75.0852 19.9936 74.1099 20.1198 73.007C20.3713 70.8086 20.3719 68.2179 20.294 66.503C20.2815 66.2271 20.4949 65.9934 20.7708 65.9808C21.0466 65.9683 21.2804 66.1817 21.293 66.4576C21.3621 67.9786 21.3714 70.1839 21.2011 72.2271C24.4909 73.3375 26.9303 73.211 28.7331 72.3542C30.5827 71.4751 31.8605 69.7808 32.6993 67.6097C34.3854 63.2459 34.2121 57.1692 33.5097 52.8748ZM28.4962 46.1906L28.4813 46.1951C26.1123 46.8832 22.6079 48.5896 19.8441 51.4541C17.0927 54.3057 15.0812 58.2948 15.6296 63.5972C15.9355 66.5562 15.8709 69.2491 15.7352 71.7201C15.6959 72.4361 15.651 73.1301 15.6072 73.8052C15.4991 75.4744 15.3985 77.0285 15.409 78.5158C15.4236 80.5917 15.6567 82.4839 16.3762 84.2722C17.0937 86.0555 18.3074 87.7662 20.3282 89.4583C23.4933 92.1085 27.7995 92.8808 32.059 92.8808H50.9785C55.391 92.7282 65.3306 87.9403 67.9474 69.2426C67.9492 69.2295 67.9516 69.2164 67.9545 69.2035C68.4119 67.1443 68.6447 63.6798 67.8369 60.1012C67.0341 56.5449 65.2132 52.9115 61.6017 50.4071C60.1684 49.8472 57.8708 48.8597 55.5494 47.683C53.2074 46.4958 50.8015 45.0963 49.2423 43.7315C48.629 43.1947 47.4472 42.8931 45.784 42.8433C44.1521 42.7946 42.1735 42.9899 40.0868 43.3297C35.9163 44.0087 31.3893 45.2519 28.4962 46.1906Z" stroke="black" stroke-opacity="0.18" stroke-linecap="round" stroke-linejoin="round"/>
<g filter="url(#filter1_d_661_340)">
<path d="M36.9807 37.6952C42.4639 38.4457 44.2233 38.357 44.9475 37.0335C44.9475 38.357 46.6858 40.3423 59.4971 37.6952C68.7314 35.7872 64.567 24.4598 63.1185 22.4745C61.9596 20.8863 60.2214 15.6362 59.4971 13.2098C59.4968 11.8862 57.3243 9.23916 50.8056 7.91562C36.6197 5.03535 26.9046 5.70972 23.2834 7.91562C20.6277 10.1215 15.3164 17.1804 15.3164 27.7687C15.3164 38.357 24.0077 39.2394 28.3533 38.357C31.2504 37.0335 32.1457 37.0335 36.9807 37.6952Z" fill="url(#paint3_radial_661_340)"/>
<path d="M44.9475 37.0335C45.4303 32.8423 45.5269 24.4598 42.0504 24.4598M44.9475 37.0335C44.2233 38.357 42.4639 38.4457 36.9807 37.6952C32.1457 37.0335 31.2504 37.0335 28.3533 38.357C24.0077 39.2394 15.3164 38.357 15.3164 27.7687C15.3164 17.1804 20.6277 10.1215 23.2834 7.91562C26.9046 5.70973 36.6197 5.03535 50.8056 7.91562C57.3243 9.23916 59.4968 11.8862 59.4971 13.2098C60.2214 15.6362 61.9596 20.8863 63.1185 22.4745C64.567 24.4598 68.7314 35.7872 59.4971 37.6952C46.6858 40.3423 44.9475 38.357 44.9475 37.0335Z" stroke="#CBCBCB"/>
</g>
</g>
<defs>
<filter id="filter0_d_661_340" x="0.229492" y="0.5" width="79.6904" height="224.288" filterUnits="userSpaceOnUse" color-interpolation-filters="sRGB">
<feFlood flood-opacity="0" result="BackgroundImageFix"/>
<feColorMatrix in="SourceAlpha" type="matrix" values="0 0 0 0 0 0 0 0 0 0 0 0 0 0 0 0 0 0 127 0" result="hardAlpha"/>
<feOffset dy="5"/>
<feGaussianBlur stdDeviation="5"/>
<feComposite in2="hardAlpha" operator="out"/>
<feColorMatrix type="matrix" values="0 0 0 0 0 0 0 0 0 0 0 0 0 0 0 0 0 0 0.35 0"/>
<feBlend mode="normal" in2="BackgroundImageFix" result="effect1_dropShadow_661_340"/>
<feBlend mode="normal" in="SourceGraphic" in2="effect1_dropShadow_661_340" result="shape"/>
</filter>
<clipPath id="paint0_diamond_661_340_clip_path"><path d="M63.724 164.657C61.837 147.667 64.8249 137.442 66.5547 134.453L57.591 125.486L13.2443 125.958C22.6798 149.083 16.075 153.33 17.0185 162.769C19.7603 190.196 26.2967 205.086 31.1717 209.019C34.4741 210.278 40.6072 210.907 38.7201 203.356C36.3612 193.917 36.3612 178.343 36.833 174.096C37.3048 169.848 38.7201 166.545 42.4943 165.129C45.5136 163.996 46.2684 166.545 46.2684 167.96C45.1676 170.635 44.0983 177.399 48.6273 183.062C54.2886 190.141 51.9297 196.749 52.4015 200.996C52.7789 204.394 55.0749 204.614 56.1757 204.3C69.3853 194.861 66.0829 185.894 63.724 164.657Z"/></clipPath><filter id="filter1_d_661_340" x="10.8164" y="5.5" width="59" height="41.9999" filterUnits="userSpaceOnUse" color-interpolation-filters="sRGB">
<feFlood flood-opacity="0" result="BackgroundImageFix"/>
<feColorMatrix in="SourceAlpha" type="matrix" values="0 0 0 0 0 0 0 0 0 0 0 0 0 0 0 0 0 0 127 0" result="hardAlpha"/>
<feOffset dy="4"/>
<feGaussianBlur stdDeviation="2"/>
<feComposite in2="hardAlpha" operator="out"/>
<feColorMatrix type="matrix" values="0 0 0 0 0 0 0 0 0 0 0 0 0 0 0 0 0 0 0.25 0"/>
<feBlend mode="normal" in2="BackgroundImageFix" result="effect1_dropShadow_661_340"/>
<feBlend mode="normal" in="SourceGraphic" in2="effect1_dropShadow_661_340" result="shape"/>
</filter>
<linearGradient id="paint0_diamond_661_340" x1="0" y1="0" x2="500" y2="500" gradientUnits="userSpaceOnUse">
<stop stop-color="#F9E7C9"/>
<stop offset="1" stop-color="#E7BA8B"/>
</linearGradient>
<radialGradient id="paint1_radial_661_340" cx="0" cy="0" r="1" gradientUnits="userSpaceOnUse" gradientTransform="translate(40.0745 119.514) rotate(90) scale(20.2667 29.8455)">
<stop offset="0.56179" stop-color="white"/>
<stop offset="1" stop-color="#CAC9C2"/>
</radialGradient>
<radialGradient id="paint2_radial_661_340" cx="0" cy="0" r="1" gradientUnits="userSpaceOnUse" gradientTransform="translate(41.8897 67.8584) rotate(90) scale(25.5224 26.9814)">
<stop offset="0.56179" stop-color="white"/>
<stop offset="1" stop-color="#CAC9C2"/>
</radialGradient>
<radialGradient id="paint3_radial_661_340" cx="0" cy="0" r="1" gradientUnits="userSpaceOnUse" gradientTransform="translate(40.3164 22.5) rotate(-90) scale(16.5 25)">
<stop offset="0.505" stop-color="white"/>
<stop offset="1" stop-color="#D9D9D9"/>
</radialGradient>
</defs>
</svg>
