<svg width="61" height="220" viewBox="0 0 61 220" fill="none" xmlns="http://www.w3.org/2000/svg">
<g filter="url(#filter0_d_513_1974)">
<path d="M45.3063 149.599C46.4386 142.425 46.7217 131.508 46.7217 126.946C42.0036 122.698 30.6802 114.109 23.1313 113.731C15.5823 113.354 15.8969 123.642 16.9978 128.833C18.2559 132.609 20.5835 141.481 19.8286 146.767C19.0737 152.053 19.1995 159.667 19.3568 162.813C20.4577 173.51 24.6411 196.321 32.5674 201.984C40.4938 207.647 40.9027 203.4 40.1164 200.568C39.0155 195.534 37.4742 184.05 40.1164 178.387C42.7585 172.724 43.7336 165.015 43.8908 161.869C43.8908 160.768 44.1739 156.772 45.3063 149.599Z" fill="url(#paint0_diamond_513_1974)"/>
<path d="M50.497 102.41C51.2519 117.889 48.2952 125.22 46.7225 126.951C44.8595 126.744 43.0059 126.811 41.5042 126.966C39.6642 127.156 38.0925 128.225 36.6563 129.391C34.2479 131.346 30.8561 132.979 28.322 130.726C24.925 127.706 19.3576 128.209 16.9986 128.838C10.8651 117.984 11.3369 106.185 10.3933 100.522C9.63839 95.9914 12.5951 94.2295 14.1678 93.9148C15.2686 94.2295 18.5084 94.1036 22.6603 91.0832C27.8502 87.3077 30.681 88.2516 34.9273 90.1393C38.9023 91.9065 41.5326 97.2184 45.3071 97.6904C48.6779 98.1118 50.3397 101.151 50.497 102.41Z" fill="url(#paint1_radial_513_1974)"/>
<path d="M49.785 38.8808C53.1817 15.0951 41.9221 6.63165 36.1036 5.84508C31.8576 5.2711 28.6771 6.15971 27.1399 6.78896C13.9302 13.9624 12.5149 28.6555 13.4585 35.1053C18.1439 54.3225 21.4334 54.4539 33.0322 54.9171L33.2729 54.9267C42.7084 55.3043 48.2124 44.3868 49.785 38.8808Z" fill="url(#paint2_radial_513_1974)"/>
<path d="M41.2661 22.7993C41.2858 22.5238 41.525 22.3165 41.8004 22.3362C42.0759 22.3558 42.2832 22.5951 42.2636 22.8705C42.1495 24.4683 42.0939 26.6937 42.2168 28.9231C42.3403 31.1627 42.6419 33.362 43.2216 34.9321C43.6504 36.0938 44.1817 36.7757 44.7711 36.9968C45.0296 37.0938 45.1606 37.3821 45.0636 37.6406C44.9666 37.8992 44.6784 38.0301 44.4199 37.9331C43.6576 37.6472 43.0926 36.9872 42.6674 36.1611C41.3726 37.9672 39.0609 39.9181 35.7994 40.5968C36.8349 41.7334 38.0189 43.8476 38.0189 46.9038C38.0189 47.1799 37.795 47.4038 37.5189 47.4038C37.2427 47.4038 37.0189 47.1799 37.0189 46.9038C37.0189 43.4932 35.4074 41.4608 34.5493 40.7873C31.4715 41.0895 27.7191 40.2623 23.3498 37.4278C23.3994 38.4427 23.3926 39.4084 23.3026 40.2537C23.1832 41.3764 22.9066 42.407 22.304 43.0098C22.1088 43.2051 21.7922 43.2052 21.5969 43.0099C21.4016 42.8147 21.4015 42.4981 21.5968 42.3028C21.9377 41.9618 22.1918 41.2423 22.3083 40.1479C22.4215 39.084 22.3944 37.7772 22.2777 36.3859C22.0445 33.6063 21.4602 30.5647 20.9924 28.6148C20.928 28.3463 21.0934 28.0764 21.3619 28.0119C21.6305 27.9475 21.9004 28.113 21.9648 28.3815C22.433 30.3332 23.0169 33.3609 23.2627 36.1679C27.8563 39.3148 31.6588 40.1142 34.6312 39.7729C38.4716 39.332 41.0341 36.9727 42.2032 35.0528C41.6247 33.3645 41.3379 31.147 41.2183 28.9782C41.0928 26.7012 41.1494 24.4332 41.2661 22.7993ZM49.2948 38.7762C52.6517 15.187 41.4833 7.07688 36.0366 6.34058C31.9157 5.78351 28.8354 6.6397 27.3544 7.24147C14.4489 14.2667 13.0278 28.6489 13.9498 35.0098C15.117 39.7944 16.1921 43.3681 17.3231 46.0486C18.4556 48.7326 19.6313 50.4894 20.9815 51.6672C23.6794 54.0205 27.1939 54.1835 33.0522 54.4175L33.0322 54.9171L33.0522 54.4175L33.2929 54.4271C37.7916 54.6071 41.3905 52.1003 44.0902 48.7938C46.7791 45.5008 48.518 41.4794 49.2948 38.7762Z" stroke="black" stroke-opacity="0.18" stroke-linecap="round" stroke-linejoin="round"/>
</g>
<defs>
<filter id="filter0_d_513_1974" x="0.272461" y="0.660156" width="60.3457" height="219.115" filterUnits="userSpaceOnUse" color-interpolation-filters="sRGB">
<feFlood flood-opacity="0" result="BackgroundImageFix"/>
<feColorMatrix in="SourceAlpha" type="matrix" values="0 0 0 0 0 0 0 0 0 0 0 0 0 0 0 0 0 0 127 0" result="hardAlpha"/>
<feOffset dy="5"/>
<feGaussianBlur stdDeviation="5"/>
<feComposite in2="hardAlpha" operator="out"/>
<feColorMatrix type="matrix" values="0 0 0 0 0 0 0 0 0 0 0 0 0 0 0 0 0 0 0.35 0"/>
<feBlend mode="normal" in2="BackgroundImageFix" result="effect1_dropShadow_513_1974"/>
<feBlend mode="normal" in="SourceGraphic" in2="effect1_dropShadow_513_1974" result="shape"/>
</filter>
<radialGradient id="paint0_diamond_513_1974" cx="0" cy="0" r="1" gradientUnits="userSpaceOnUse" gradientTransform="translate(31.566 159.248) rotate(90) scale(45.5271 15.1557)">
<stop stop-color="#F9E7C9"/>
<stop offset="1" stop-color="#E7BA8B"/>
</radialGradient>
<radialGradient id="paint1_radial_513_1974" cx="0" cy="0" r="1" gradientUnits="userSpaceOnUse" gradientTransform="translate(30.4451 110.152) rotate(90) scale(21.6645 20.173)">
<stop offset="0.56179" stop-color="white"/>
<stop offset="1" stop-color="#CAC9C2"/>
</radialGradient>
<radialGradient id="paint2_radial_513_1974" cx="0" cy="0" r="1" gradientUnits="userSpaceOnUse" gradientTransform="translate(31.818 30.2982) rotate(90) scale(24.6381 18.5932)">
<stop offset="0.56179" stop-color="white"/>
<stop offset="1" stop-color="#CAC9C2"/>
</radialGradient>
</defs>
</svg>
