<svg width="60" height="226" viewBox="0 0 60 226" fill="none" xmlns="http://www.w3.org/2000/svg">
<g filter="url(#filter0_d_513_1966)">
<path d="M40.9623 124.626L34.8285 121.795L20.674 113.3L12.1809 117.547C13.5964 118.963 16.8992 148.695 16.4274 171.348C16.0499 189.471 19.1012 199.979 20.674 202.968C26.3359 215.05 33.4133 210.991 31.526 200.609C32.9415 165.685 34.3567 180.787 38.6032 158.134C42.0003 140.012 41.4341 129.346 40.9623 124.626Z" fill="url(#paint0_diamond_513_1966)"/>
<path d="M32.4692 135.949C43.4155 129.908 46.1521 116.128 46.1521 109.993C46.5728 106.626 45.4932 101.011 44.9198 97.4917C44.8011 96.7633 44.2993 96.1557 43.6163 95.8761C35.8372 92.6915 32.2489 87.3888 28.4626 84.8186C26.8855 83.7481 24.8446 83.6841 23.1395 84.5363C17.1575 87.5259 12.2108 95.5027 10.2934 99.6124C9.5385 105.653 10.6079 113.453 11.237 116.6C18.0313 134.722 28.2227 137.05 32.4692 135.949Z" fill="url(#paint1_radial_513_1966)"/>
<path d="M29.015 42.2211C36.9408 45.9966 45.5271 29.3214 48.8295 20.5119C50.1166 13.2161 46.3319 5.13968 33.218 5.15529C30.4368 5.15861 27.7172 6.0266 25.4004 7.56528C20.5572 10.7818 17.7518 14.1357 16.2654 16.7669C14.9562 19.0844 15.15 21.8501 16.0372 24.3595C18.2217 30.5383 22.5978 39.1642 29.015 42.2211Z" fill="url(#paint2_radial_513_1966)"/>
<path d="M44.1118 16.7364C40.4949 14.8487 30.9965 12.2058 21.9385 16.7364M44.3432 16.2932C44.588 16.4209 44.6828 16.723 44.5551 16.9678C44.4273 17.2126 44.1253 17.3074 43.8805 17.1797C40.3527 15.3385 31.0304 12.7479 22.1621 17.1836C21.9152 17.3071 21.6148 17.2071 21.4913 16.9601C21.3678 16.7131 21.4678 16.4128 21.7148 16.2892C30.9626 11.6637 40.6371 14.3589 44.3432 16.2932ZM29.2301 41.7697C31.0189 42.6218 32.862 42.3426 34.7351 41.2307C36.6232 40.11 38.4957 38.165 40.2541 35.7885C43.7549 31.0571 46.6997 24.7587 48.345 20.3799C48.9565 16.8528 48.3384 13.1886 46.039 10.4106C43.7358 7.62809 39.6731 5.64761 33.2186 5.65529C30.5411 5.65848 27.9167 6.49438 25.677 7.98179C20.8931 11.159 18.1448 14.4566 16.7007 17.0129C15.4901 19.156 15.6472 21.7565 16.5086 24.1929C17.5917 27.2563 19.2157 30.9187 21.3571 34.187C23.5028 37.4621 26.1392 40.2974 29.2301 41.7697Z" stroke="black" stroke-opacity="0.18" stroke-linecap="round" stroke-linejoin="round"/>
</g>
<defs>
<filter id="filter0_d_513_1966" x="0.0341797" y="0.155273" width="59.0322" height="225.226" filterUnits="userSpaceOnUse" color-interpolation-filters="sRGB">
<feFlood flood-opacity="0" result="BackgroundImageFix"/>
<feColorMatrix in="SourceAlpha" type="matrix" values="0 0 0 0 0 0 0 0 0 0 0 0 0 0 0 0 0 0 127 0" result="hardAlpha"/>
<feOffset dy="5"/>
<feGaussianBlur stdDeviation="5"/>
<feComposite in2="hardAlpha" operator="out"/>
<feColorMatrix type="matrix" values="0 0 0 0 0 0 0 0 0 0 0 0 0 0 0 0 0 0 0.35 0"/>
<feBlend mode="normal" in2="BackgroundImageFix" result="effect1_dropShadow_513_1966"/>
<feBlend mode="normal" in="SourceGraphic" in2="effect1_dropShadow_513_1966" result="shape"/>
</filter>
<radialGradient id="paint0_diamond_513_1966" cx="0" cy="0" r="1" gradientUnits="userSpaceOnUse" gradientTransform="translate(26.7501 161.84) rotate(90) scale(48.5406 14.5692)">
<stop stop-color="#F9E7C9"/>
<stop offset="1" stop-color="#E7BA8B"/>
</radialGradient>
<radialGradient id="paint1_radial_513_1966" cx="0" cy="0" r="1" gradientUnits="userSpaceOnUse" gradientTransform="translate(28.1404 109.871) rotate(90) scale(26.3068 18.1067)">
<stop offset="0.56179" stop-color="white"/>
<stop offset="1" stop-color="#CAC9C2"/>
</radialGradient>
<radialGradient id="paint2_radial_513_1966" cx="0" cy="0" r="1" gradientUnits="userSpaceOnUse" gradientTransform="translate(31.9641 23.9619) rotate(90) scale(18.8067 17.1023)">
<stop offset="0.56179" stop-color="white"/>
<stop offset="1" stop-color="#CAC9C2"/>
</radialGradient>
</defs>
</svg>
