<svg width="53" height="185" viewBox="0 0 53 185" fill="none" xmlns="http://www.w3.org/2000/svg">
<g filter="url(#filter0_d_661_319)">
<g clip-path="url(#paint0_diamond_661_319_clip_path)" data-figma-skip-parse="true"><g transform="matrix(0 0.057208 0.0129005 0 24.6981 112.086)"><rect x="0" y="0" width="1017.48" height="1077.52" fill="url(#paint0_diamond_661_319)" opacity="1" shape-rendering="crispEdges"/><rect x="0" y="0" width="1017.48" height="1077.52" transform="scale(1 -1)" fill="url(#paint0_diamond_661_319)" opacity="1" shape-rendering="crispEdges"/><rect x="0" y="0" width="1017.48" height="1077.52" transform="scale(-1 1)" fill="url(#paint0_diamond_661_319)" opacity="1" shape-rendering="crispEdges"/><rect x="0" y="0" width="1017.48" height="1077.52" transform="scale(-1)" fill="url(#paint0_diamond_661_319)" opacity="1" shape-rendering="crispEdges"/></g></g><path d="M36.6551 84.4778C33.9817 81.6461 28.4462 75.5109 27.6914 73.6232C23.76 58.2065 14.3874 37.8499 12.1229 79.758C9.85837 121.666 19.9858 153.853 24.8608 164.707C27.6914 168.168 33.3527 173.013 33.3527 164.707V140.167C34.4849 117.136 36.6551 94.3885 37.5986 85.8936L36.6551 84.4778Z" data-figma-gradient-fill="{&#34;type&#34;:&#34;GRADIENT_DIAMOND&#34;,&#34;stops&#34;:[{&#34;color&#34;:{&#34;r&#34;:0.97647058963775635,&#34;g&#34;:0.90588235855102539,&#34;b&#34;:0.78823530673980713,&#34;a&#34;:1.0},&#34;position&#34;:0.0},{&#34;color&#34;:{&#34;r&#34;:0.90588235855102539,&#34;g&#34;:0.7294117808341980,&#34;b&#34;:0.54509806632995605,&#34;a&#34;:1.0},&#34;position&#34;:1.0}],&#34;stopsVar&#34;:[{&#34;color&#34;:{&#34;r&#34;:0.97647058963775635,&#34;g&#34;:0.90588235855102539,&#34;b&#34;:0.78823530673980713,&#34;a&#34;:1.0},&#34;position&#34;:0.0},{&#34;color&#34;:{&#34;r&#34;:0.90588235855102539,&#34;g&#34;:0.7294117808341980,&#34;b&#34;:0.54509806632995605,&#34;a&#34;:1.0},&#34;position&#34;:1.0}],&#34;transform&#34;:{&#34;m00&#34;:-1.5798611833841322e-15,&#34;m01&#34;:25.801090240478516,&#34;m02&#34;:11.797542572021484,&#34;m10&#34;:114.41602325439453,&#34;m11&#34;:7.0059611256378766e-15,&#34;m12&#34;:54.87756347656250},&#34;opacity&#34;:1.0,&#34;blendMode&#34;:&#34;NORMAL&#34;,&#34;visible&#34;:true}"/>
<path d="M39.5702 74.9309C39.5702 80.1946 38.3887 84.3304 37.798 85.7404C35.5827 87.1503 32.9244 90.4401 30.266 93.26C28.1393 95.5159 23.7678 93.8866 21.8479 92.79C13.3412 87.9023 11.5098 84.1738 11.6575 82.9205V53.7819C11.6575 49.5521 12.5436 48.1422 14.7589 48.1422C19.928 48.1422 30.5318 48.2362 35.1396 48.6122C39.7475 48.9882 40.8994 52.842 40.8994 54.7219L39.5702 74.9309Z" fill="url(#paint1_radial_661_319)"/>
<path d="M33.3839 10.0752C41.4574 21.5136 42.5374 26.909 42.3359 29.8493C42.2163 31.5948 41.4333 33.2562 40.3822 34.6549C29.6376 48.9529 10.6847 34.1761 10.2341 31.0211C9.8567 28.3783 12.593 22.3689 14.0083 19.6946C18.5488 9.21279 20.245 5.71503 24.4569 5.17979C28.0338 4.72525 31.3048 7.12942 33.3839 10.0752Z" fill="#585858"/>
<path d="M37.597 30.0772C34.4518 31.493 26.0857 33.4752 17.7825 30.0772M37.8022 30.5332C38.054 30.4198 38.1662 30.1238 38.0529 29.872C37.9395 29.6202 37.6435 29.5079 37.3917 29.6213C34.3344 30.9976 26.1148 32.9469 17.9719 29.6145C17.7163 29.5099 17.4243 29.6323 17.3197 29.8879C17.2151 30.1434 17.3375 30.4354 17.5931 30.54C26.0566 34.0035 34.5692 31.9885 37.8022 30.5332ZM14.4502 19.9285C14.4563 19.917 14.4619 19.9052 14.4671 19.8933C16.7445 14.6359 18.2841 11.1912 19.7704 8.98675C20.508 7.89271 21.2157 7.1311 21.9698 6.61116C22.718 6.09522 23.5358 5.80087 24.52 5.6758C27.8275 5.25548 30.9415 7.48186 32.9755 10.3635C41.0323 21.7784 42.0263 27.0532 41.8371 29.8151C41.726 31.436 40.9952 33.0069 39.9825 34.3545C37.3706 37.8301 34.2823 39.5166 31.1159 40.0702C27.9354 40.6263 24.6381 40.0451 21.6234 38.9147C18.6102 37.7849 15.9086 36.1171 13.9361 34.54C12.9499 33.7515 12.1548 32.9926 11.5975 32.3438C11.3187 32.0191 11.1055 31.729 10.9581 31.4824C10.8063 31.2285 10.7437 31.0524 10.7291 30.9504C10.648 30.3823 10.7314 29.5836 10.9528 28.625C11.1716 27.6772 11.5146 26.617 11.917 25.5454C12.7218 23.4024 13.7502 21.2511 14.4502 19.9285Z" stroke="black" stroke-opacity="0.18" stroke-linecap="round" stroke-linejoin="round"/>
<path d="M33.3839 10.075C40.3738 19.9783 42.1215 25.3517 42.334 28.5239C42.5081 31.1241 41.0762 33.6258 38.993 35.1915C28.0847 43.39 10.6658 34.044 10.2341 31.0209C9.8567 28.3781 12.593 22.3687 14.0083 19.6944C18.5488 9.2126 20.245 5.71484 24.4569 5.17959C28.0338 4.72505 31.3048 7.12922 33.3839 10.075Z" fill="url(#paint2_radial_661_319)"/>
<path d="M37.597 30.077C34.4518 31.4929 26.0857 33.475 17.7825 30.077M37.8022 30.533C38.054 30.4196 38.1662 30.1236 38.0529 29.8718C37.9395 29.62 37.6435 29.5078 37.3917 29.6211C34.3344 30.9974 26.1148 32.9467 17.9719 29.6143C17.7163 29.5097 17.4243 29.6321 17.3197 29.8877C17.2151 30.1432 17.3375 30.4352 17.5931 30.5398C26.0566 34.0033 34.5692 31.9883 37.8022 30.533ZM14.4502 19.9283C14.4563 19.9168 14.4619 19.9051 14.4671 19.8931C16.7445 14.6357 18.2841 11.191 19.7704 8.98656C20.508 7.89251 21.2157 7.1309 21.9698 6.61097C22.718 6.09502 23.5358 5.80067 24.52 5.6756C27.8275 5.25529 30.9415 7.48166 32.9755 10.3633C39.9495 20.2441 41.632 25.5248 41.8351 28.5573C41.9955 30.9526 40.6726 33.3037 38.6926 34.7918C33.4218 38.7533 26.5314 38.5046 20.8253 36.8344C17.9816 36.002 15.4655 34.8252 13.6422 33.6777C12.7296 33.1033 12.0023 32.5437 11.4966 32.0475C11.2437 31.7993 11.0544 31.5749 10.9253 31.38C10.7934 31.1808 10.7417 31.0382 10.7291 30.9502C10.648 30.3821 10.7314 29.5835 10.9528 28.6248C11.1716 27.677 11.5146 26.6168 11.917 25.5452C12.7218 23.4022 13.7502 21.2509 14.4502 19.9283Z" stroke="black" stroke-opacity="0.18" stroke-linecap="round" stroke-linejoin="round"/>
<path d="M37.597 32.0772C34.4518 33.493 26.0857 35.4752 17.7825 32.0772M37.8022 32.5332C38.054 32.4198 38.1662 32.1238 38.0529 31.872C37.9395 31.6202 37.6435 31.5079 37.3917 31.6213C34.3344 32.9976 26.1148 34.9469 17.9719 31.6145C17.7163 31.5099 17.4243 31.6323 17.3197 31.8879C17.2151 32.1434 17.3375 32.4354 17.5931 32.54C26.0566 36.0035 34.5692 33.9885 37.8022 32.5332ZM14.4502 21.9285C14.4563 21.917 14.4619 21.9052 14.4671 21.8933C16.7445 16.6359 18.2841 13.1912 19.7704 10.9867C20.508 9.89271 21.2157 9.1311 21.9698 8.61116C22.718 8.09522 23.5358 7.80087 24.52 7.6758C27.8275 7.25548 30.9415 9.48186 32.9755 12.3635C41.0323 23.7784 42.0263 29.0532 41.8371 31.8151C41.726 33.436 40.9952 35.0069 39.9825 36.3545C37.3706 39.8301 34.2823 41.5166 31.1159 42.0702C27.9354 42.6263 24.6381 42.0451 21.6234 40.9147C18.6102 39.7849 15.9086 38.1171 13.9361 36.54C12.9499 35.7515 12.1548 34.9926 11.5975 34.3438C11.3187 34.0191 11.1055 33.729 10.9581 33.4824C10.8063 33.2285 10.7437 33.0524 10.7291 32.9504C10.648 32.3823 10.7314 31.5836 10.9528 30.625C11.1716 29.6772 11.5146 28.617 11.917 27.5454C12.7218 25.4024 13.7502 23.2511 14.4502 21.9285Z" stroke="black" stroke-opacity="0.18" stroke-linecap="round" stroke-linejoin="round"/>
</g>
<defs>
<filter id="filter0_d_661_319" x="0.199219" y="0.124146" width="52.1582" height="184.169" filterUnits="userSpaceOnUse" color-interpolation-filters="sRGB">
<feFlood flood-opacity="0" result="BackgroundImageFix"/>
<feColorMatrix in="SourceAlpha" type="matrix" values="0 0 0 0 0 0 0 0 0 0 0 0 0 0 0 0 0 0 127 0" result="hardAlpha"/>
<feOffset dy="5"/>
<feGaussianBlur stdDeviation="5"/>
<feComposite in2="hardAlpha" operator="out"/>
<feColorMatrix type="matrix" values="0 0 0 0 0 0 0 0 0 0 0 0 0 0 0 0 0 0 0.35 0"/>
<feBlend mode="normal" in2="BackgroundImageFix" result="effect1_dropShadow_661_319"/>
<feBlend mode="normal" in="SourceGraphic" in2="effect1_dropShadow_661_319" result="shape"/>
</filter>
<clipPath id="paint0_diamond_661_319_clip_path"><path d="M36.6551 84.4778C33.9817 81.6461 28.4462 75.5109 27.6914 73.6232C23.76 58.2065 14.3874 37.8499 12.1229 79.758C9.85837 121.666 19.9858 153.853 24.8608 164.707C27.6914 168.168 33.3527 173.013 33.3527 164.707V140.167C34.4849 117.136 36.6551 94.3885 37.5986 85.8936L36.6551 84.4778Z"/></clipPath><linearGradient id="paint0_diamond_661_319" x1="0" y1="0" x2="500" y2="500" gradientUnits="userSpaceOnUse">
<stop stop-color="#F9E7C9"/>
<stop offset="1" stop-color="#E7BA8B"/>
</linearGradient>
<radialGradient id="paint1_radial_661_319" cx="0" cy="0" r="1" gradientUnits="userSpaceOnUse" gradientTransform="translate(26.2745 71.2672) rotate(90) scale(23.125 14.625)">
<stop offset="0.56179" stop-color="white"/>
<stop offset="1" stop-color="#CAC9C2"/>
</radialGradient>
<radialGradient id="paint2_radial_661_319" cx="0" cy="0" r="1" gradientUnits="userSpaceOnUse" gradientTransform="translate(26.2781 21.7918) rotate(-90) scale(16.688 16.0793)">
<stop offset="0.56179" stop-color="white"/>
<stop offset="1" stop-color="#CAC9C2"/>
</radialGradient>
</defs>
</svg>
