<svg width="55" height="223" viewBox="0 0 55 223" fill="none" xmlns="http://www.w3.org/2000/svg">
<g filter="url(#filter0_d_513_1959)">
<path d="M35.1316 122.82C32.4583 119.989 26.9228 113.854 26.168 111.966C22.2365 96.5492 12.864 76.1925 10.5994 118.101C8.33493 160.009 18.4623 192.195 23.3373 203.05C26.168 206.511 31.8292 211.356 31.8292 203.05V178.509C32.9615 155.479 35.1316 132.731 36.0752 124.236L35.1316 122.82Z" fill="url(#paint0_diamond_513_1959)"/>
<path d="M38.0458 113.261C38.0458 118.525 36.8643 122.661 36.2736 124.071C34.0583 125.481 31.3999 128.771 28.7416 131.59C26.6149 133.846 22.2434 132.217 20.3235 131.12C11.8167 126.233 9.98543 122.504 10.1331 121.251V92.1124C10.1331 87.8826 11.0192 86.4727 13.2345 86.4727C18.4035 86.4727 29.0074 86.5667 33.6152 86.9426C38.223 87.3186 39.375 91.1724 39.375 93.0523L38.0458 113.261Z" fill="url(#paint1_radial_513_1959)"/>
<path d="M35.9015 35.8843C43.975 24.4459 45.055 19.0504 44.8535 16.1102C44.7338 14.3647 43.9508 12.7033 42.8998 11.3046C32.1552 -2.99345 13.2023 11.7834 12.7517 14.9384C12.3743 17.5812 15.1106 23.5906 16.5259 26.2649C21.0664 36.7467 22.7626 40.2444 26.9745 40.7797C30.5514 41.2342 33.8224 38.8301 35.9015 35.8843Z" fill="#585858"/>
<path d="M40.1145 15.8822C36.9694 14.4664 28.6033 12.4843 20.3001 15.8822M40.3198 15.4263C40.5716 15.5397 40.6838 15.8357 40.5705 16.0875C40.4571 16.3393 40.1611 16.4515 39.9093 16.3382C36.852 14.9619 28.6324 13.0126 20.4894 16.345C20.2339 16.4496 19.9419 16.3272 19.8373 16.0716C19.7327 15.816 19.8551 15.5241 20.1107 15.4195C28.5742 11.956 37.0868 13.9709 40.3198 15.4263ZM16.9678 26.031C16.9739 26.0425 16.9795 26.0542 16.9847 26.0662C19.2621 31.3236 20.8017 34.7683 22.288 36.9727C23.0256 38.0668 23.7333 38.8284 24.4873 39.3483C25.2356 39.8643 26.0533 40.1586 27.0375 40.2837C30.3451 40.704 33.4591 38.4776 35.493 35.596C43.5499 24.181 44.5439 18.9063 44.3546 16.1443C44.2436 14.5235 43.5127 12.9526 42.5001 11.605C39.8882 8.12933 36.7999 6.44283 33.6335 5.88925C30.453 5.33319 27.1557 5.91439 24.141 7.04476C21.1278 8.17457 18.4261 9.84234 16.4537 11.4194C15.4675 12.208 14.6724 12.9669 14.1151 13.6157C13.8363 13.9404 13.623 14.2305 13.4757 14.4771C13.3239 14.731 13.2612 14.9071 13.2467 15.009C13.1656 15.5771 13.249 16.3758 13.4703 17.3345C13.6892 18.2823 14.0322 19.3424 14.4346 20.414C15.2394 22.5571 16.2678 24.7084 16.9678 26.031Z" stroke="black" stroke-opacity="0.18" stroke-linecap="round" stroke-linejoin="round"/>
<path d="M35.9015 35.8867C42.8914 25.9834 44.6391 20.6099 44.8515 17.4378C45.0257 14.8376 43.5938 12.3359 41.5106 10.7702C30.6023 2.57171 13.1834 11.9177 12.7517 14.9407C12.3743 17.5836 15.1106 23.593 16.5259 26.2673C21.0664 36.7491 22.7626 40.2468 26.9745 40.7821C30.5514 41.2366 33.8224 38.8324 35.9015 35.8867Z" fill="url(#paint2_radial_513_1959)"/>
<path d="M40.1145 15.8846C36.9694 14.4688 28.6033 12.4867 20.3001 15.8846M40.3198 15.4287C40.5716 15.5421 40.6838 15.8381 40.5705 16.0899C40.4571 16.3417 40.1611 16.4539 39.9093 16.3406C36.852 14.9643 28.6324 13.015 20.4894 16.3474C20.2339 16.452 19.9419 16.3296 19.8373 16.074C19.7327 15.8184 19.8551 15.5265 20.1107 15.4219C28.5742 11.9583 37.0868 13.9733 40.3198 15.4287ZM16.9678 26.0334C16.9739 26.0449 16.9795 26.0566 16.9847 26.0685C19.2621 31.326 20.8017 34.7707 22.288 36.9751C23.0256 38.0692 23.7333 38.8308 24.4873 39.3507C25.2356 39.8666 26.0533 40.161 27.0375 40.2861C30.3451 40.7064 33.4591 38.48 35.493 35.5984C42.4671 25.7175 44.1496 20.4369 44.3527 17.4043C44.5131 15.009 43.1901 12.6579 41.2102 11.1699C35.9393 7.20838 29.0489 7.45706 23.3429 9.12726C20.4992 9.95964 17.9831 11.1365 16.1597 12.284C15.2471 12.8583 14.5199 13.4179 14.0142 13.9142C13.7613 14.1623 13.5719 14.3868 13.4429 14.5817C13.311 14.7808 13.2592 14.9235 13.2467 15.0114C13.1656 15.5795 13.249 16.3782 13.4703 17.3369C13.6892 18.2847 14.0322 19.3448 14.4346 20.4164C15.2394 22.5594 16.2678 24.7108 16.9678 26.0334Z" stroke="black" stroke-opacity="0.18" stroke-linecap="round" stroke-linejoin="round"/>
<path d="M40.1145 15.8822C36.9694 14.4664 28.6033 12.4843 20.3001 15.8822M40.3198 15.4263C40.5716 15.5397 40.6838 15.8357 40.5705 16.0875C40.4571 16.3393 40.1611 16.4515 39.9093 16.3382C36.852 14.9619 28.6324 13.0126 20.4894 16.345C20.2339 16.4496 19.9419 16.3272 19.8373 16.0716C19.7327 15.816 19.8551 15.5241 20.1107 15.4195C28.5742 11.956 37.0868 13.9709 40.3198 15.4263ZM16.9678 26.031C16.9739 26.0425 16.9795 26.0542 16.9847 26.0662C19.2621 31.3236 20.8017 34.7683 22.288 36.9727C23.0256 38.0668 23.7333 38.8284 24.4873 39.3483C25.2356 39.8643 26.0533 40.1586 27.0375 40.2837C30.3451 40.704 33.4591 38.4776 35.493 35.596C43.5499 24.181 44.5439 18.9063 44.3546 16.1443C44.2436 14.5235 43.5127 12.9526 42.5001 11.605C39.8882 8.12933 36.7999 6.44283 33.6335 5.88925C30.453 5.33319 27.1557 5.91439 24.141 7.04476C21.1278 8.17457 18.4261 9.84234 16.4537 11.4194C15.4675 12.208 14.6724 12.9669 14.1151 13.6157C13.8363 13.9404 13.623 14.2305 13.4757 14.4771C13.3239 14.731 13.2612 14.9071 13.2467 15.009C13.1656 15.5771 13.249 16.3758 13.4703 17.3345C13.6892 18.2823 14.0322 19.3424 14.4346 20.414C15.2394 22.5571 16.2678 24.7084 16.9678 26.031Z" stroke="black" stroke-opacity="0.18" stroke-linecap="round" stroke-linejoin="round"/>
</g>
<defs>
<filter id="filter0_d_513_1959" x="0.125" y="0.175781" width="54.75" height="222.46" filterUnits="userSpaceOnUse" color-interpolation-filters="sRGB">
<feFlood flood-opacity="0" result="BackgroundImageFix"/>
<feColorMatrix in="SourceAlpha" type="matrix" values="0 0 0 0 0 0 0 0 0 0 0 0 0 0 0 0 0 0 127 0" result="hardAlpha"/>
<feOffset dy="5"/>
<feGaussianBlur stdDeviation="5"/>
<feComposite in2="hardAlpha" operator="out"/>
<feColorMatrix type="matrix" values="0 0 0 0 0 0 0 0 0 0 0 0 0 0 0 0 0 0 0.35 0"/>
<feBlend mode="normal" in2="BackgroundImageFix" result="effect1_dropShadow_513_1959"/>
<feBlend mode="normal" in="SourceGraphic" in2="effect1_dropShadow_513_1959" result="shape"/>
</filter>
<radialGradient id="paint0_diamond_513_1959" cx="0" cy="0" r="1" gradientUnits="userSpaceOnUse" gradientTransform="translate(23.1747 150.428) rotate(90) scale(57.208 12.9005)">
<stop stop-color="#F9E7C9"/>
<stop offset="1" stop-color="#E7BA8B"/>
</radialGradient>
<radialGradient id="paint1_radial_513_1959" cx="0" cy="0" r="1" gradientUnits="userSpaceOnUse" gradientTransform="translate(24.75 109.598) rotate(90) scale(23.125 14.625)">
<stop offset="0.56179" stop-color="white"/>
<stop offset="1" stop-color="#CAC9C2"/>
</radialGradient>
<radialGradient id="paint2_radial_513_1959" cx="0" cy="0" r="1" gradientUnits="userSpaceOnUse" gradientTransform="translate(28.7957 24.1698) rotate(90) scale(16.688 16.0793)">
<stop offset="0.56179" stop-color="white"/>
<stop offset="1" stop-color="#CAC9C2"/>
</radialGradient>
</defs>
</svg>
