<svg width="52" height="176" viewBox="0 0 52 176" fill="none" xmlns="http://www.w3.org/2000/svg">
<g filter="url(#filter0_d_661_315)">
<g clip-path="url(#paint0_diamond_661_315_clip_path)" data-figma-skip-parse="true"><g transform="matrix(0 0.0457781 0.0132468 0 27.3987 115.159)"><rect x="0" y="0" width="1021.84" height="1075.49" fill="url(#paint0_diamond_661_315)" opacity="1" shape-rendering="crispEdges"/><rect x="0" y="0" width="1021.84" height="1075.49" transform="scale(1 -1)" fill="url(#paint0_diamond_661_315)" opacity="1" shape-rendering="crispEdges"/><rect x="0" y="0" width="1021.84" height="1075.49" transform="scale(-1 1)" fill="url(#paint0_diamond_661_315)" opacity="1" shape-rendering="crispEdges"/><rect x="0" y="0" width="1021.84" height="1075.49" transform="scale(-1)" fill="url(#paint0_diamond_661_315)" opacity="1" shape-rendering="crispEdges"/></g></g><path d="M39.4634 87.315C40.973 82.4069 40.7214 78.3482 40.4069 76.9324L40.1026 76.3235C39.0852 74.2881 37.3357 72.7127 35.2051 71.9134C32.394 70.8589 29.4603 70.1661 26.4745 69.8517L25.1107 69.7081C23.098 69.4962 21.0162 69.9002 19.5794 71.3256C16.1694 74.7083 12.5188 81.2677 14.9311 90.6186C18.7053 105.249 18.7053 122.71 19.1771 133.093C19.5545 141.399 21.8505 149.768 22.9513 152.915L23.423 154.802L23.8948 155.746L24.8383 157.634L25.3101 158.578L26.2537 159.994L26.7254 160.466L27.1972 160.938H27.669H28.6125H29.0843L30.0279 160.466L30.4996 159.522L30.9714 158.578C33.3303 109.496 36.1609 107.136 36.6327 103.833C37.1044 100.529 37.5763 93.4502 39.4634 87.315Z" data-figma-gradient-fill="{&#34;type&#34;:&#34;GRADIENT_DIAMOND&#34;,&#34;stops&#34;:[{&#34;color&#34;:{&#34;r&#34;:0.97647058963775635,&#34;g&#34;:0.90588235855102539,&#34;b&#34;:0.78823530673980713,&#34;a&#34;:1.0},&#34;position&#34;:0.0},{&#34;color&#34;:{&#34;r&#34;:0.90588235855102539,&#34;g&#34;:0.7294117808341980,&#34;b&#34;:0.54509806632995605,&#34;a&#34;:1.0},&#34;position&#34;:1.0}],&#34;stopsVar&#34;:[{&#34;color&#34;:{&#34;r&#34;:0.97647058963775635,&#34;g&#34;:0.90588235855102539,&#34;b&#34;:0.78823530673980713,&#34;a&#34;:1.0},&#34;position&#34;:0.0},{&#34;color&#34;:{&#34;r&#34;:0.90588235855102539,&#34;g&#34;:0.7294117808341980,&#34;b&#34;:0.54509806632995605,&#34;a&#34;:1.0},&#34;position&#34;:1.0}],&#34;transform&#34;:{&#34;m00&#34;:-1.6222706407454973e-15,&#34;m01&#34;:26.493688583374023,&#34;m02&#34;:14.151819229125977,&#34;m10&#34;:91.556167602539062,&#34;m11&#34;:5.6061985227186771e-15,&#34;m12&#34;:69.381347656250},&#34;opacity&#34;:1.0,&#34;blendMode&#34;:&#34;NORMAL&#34;,&#34;visible&#34;:true}"/>
<path d="M38.8047 50.1623C42.988 59.3578 41.6368 75.8368 40.4059 83.0705C35.688 83.0705 30.9707 88.7337 28.6118 91.0934C26.7247 92.9812 23.7368 92.1946 22.4788 91.5654C20.5917 87.4123 16.3457 83.857 14.4586 82.5985C11.8167 73.9149 11.7852 61.9905 12.0998 57.1138C12.0998 49.5628 14.7731 47.3604 17.2893 47.2031L36.037 48.118C36.4293 48.1371 36.8134 48.2378 37.1647 48.4135C37.4368 48.5496 37.6851 48.7286 37.9002 48.9438L38.0474 49.0911C38.3597 49.4035 38.6218 49.7602 38.8047 50.1623Z" fill="url(#paint1_radial_661_315)"/>
<path d="M38.9902 32.9153C38.9902 37.0684 31.7564 38.7359 28.1394 39.0506C22.7111 40.2573 16.7205 37.5267 13.0077 35.0965C11.4597 34.0832 10.5527 32.3503 10.5763 30.5004C10.7078 20.1903 16.2463 11.149 20.1352 6.5946C20.9974 5.58482 22.2806 5.07095 23.6084 5.07095C24.9941 5.07095 26.3273 5.6453 27.251 6.67823C39.4275 20.2947 38.9902 27.9174 38.9902 32.9153Z" fill="url(#paint2_radial_661_315)"/>
<path d="M33.966 30.0837C34.2266 29.9924 34.3639 29.7072 34.2726 29.4466C34.1814 29.1859 33.8961 29.0486 33.6355 29.1399C32.1019 29.6768 29.4068 30.3521 26.3515 30.612C23.2926 30.8722 19.9157 30.7121 16.9925 29.6156C16.734 29.5186 16.4457 29.6496 16.3487 29.9081C16.2518 30.1666 16.3827 30.4549 16.6413 30.5519C19.7568 31.7206 23.2992 31.8752 26.4363 31.6084C29.5769 31.3413 32.3544 30.6479 33.966 30.0837ZM28.0961 38.5524C28.0742 38.5543 28.0524 38.5577 28.0309 38.5625C22.8097 39.7231 16.969 37.0918 13.2815 34.6781C11.879 33.7601 11.0548 32.1887 11.0763 30.5068C11.2057 20.3583 16.6672 11.4261 20.5154 6.91927C21.27 6.03555 22.4063 5.57095 23.6084 5.57095C24.8572 5.57095 26.053 6.08866 26.8783 7.01152C32.9343 13.7836 35.8268 19.0356 37.2125 23.187C38.5058 27.0617 38.4978 30.0047 38.4911 32.4158C38.4907 32.5849 38.4902 32.7514 38.4902 32.9153C38.4902 34.6599 36.9649 35.996 34.7231 36.9633C32.527 37.9108 29.8709 38.398 28.0961 38.5524Z" stroke="black" stroke-opacity="0.18" stroke-linecap="round" stroke-linejoin="round"/>
</g>
<defs>
<filter id="filter0_d_661_315" x="0.576172" y="0.0709229" width="51.0605" height="175.867" filterUnits="userSpaceOnUse" color-interpolation-filters="sRGB">
<feFlood flood-opacity="0" result="BackgroundImageFix"/>
<feColorMatrix in="SourceAlpha" type="matrix" values="0 0 0 0 0 0 0 0 0 0 0 0 0 0 0 0 0 0 127 0" result="hardAlpha"/>
<feOffset dy="5"/>
<feGaussianBlur stdDeviation="5"/>
<feComposite in2="hardAlpha" operator="out"/>
<feColorMatrix type="matrix" values="0 0 0 0 0 0 0 0 0 0 0 0 0 0 0 0 0 0 0.35 0"/>
<feBlend mode="normal" in2="BackgroundImageFix" result="effect1_dropShadow_661_315"/>
<feBlend mode="normal" in="SourceGraphic" in2="effect1_dropShadow_661_315" result="shape"/>
</filter>
<clipPath id="paint0_diamond_661_315_clip_path"><path d="M39.4634 87.315C40.973 82.4069 40.7214 78.3482 40.4069 76.9324L40.1026 76.3235C39.0852 74.2881 37.3357 72.7127 35.2051 71.9134C32.394 70.8589 29.4603 70.1661 26.4745 69.8517L25.1107 69.7081C23.098 69.4962 21.0162 69.9002 19.5794 71.3256C16.1694 74.7083 12.5188 81.2677 14.9311 90.6186C18.7053 105.249 18.7053 122.71 19.1771 133.093C19.5545 141.399 21.8505 149.768 22.9513 152.915L23.423 154.802L23.8948 155.746L24.8383 157.634L25.3101 158.578L26.2537 159.994L26.7254 160.466L27.1972 160.938H27.669H28.6125H29.0843L30.0279 160.466L30.4996 159.522L30.9714 158.578C33.3303 109.496 36.1609 107.136 36.6327 103.833C37.1044 100.529 37.5763 93.4502 39.4634 87.315Z"/></clipPath><linearGradient id="paint0_diamond_661_315" x1="0" y1="0" x2="500" y2="500" gradientUnits="userSpaceOnUse">
<stop stop-color="#F9E7C9"/>
<stop offset="1" stop-color="#E7BA8B"/>
</linearGradient>
<radialGradient id="paint1_radial_661_315" cx="0" cy="0" r="1" gradientUnits="userSpaceOnUse" gradientTransform="translate(26.8004 69.74) rotate(90) scale(22.5369 14.8363)">
<stop offset="0.56179" stop-color="white"/>
<stop offset="1" stop-color="#CAC9C2"/>
</radialGradient>
<radialGradient id="paint2_radial_661_315" cx="0" cy="0" r="1" gradientUnits="userSpaceOnUse" gradientTransform="translate(24.7831 22.2082) rotate(-90) scale(17.1373 14.2091)">
<stop offset="0.56179" stop-color="white"/>
<stop offset="1" stop-color="#CAC9C2"/>
</radialGradient>
</defs>
</svg>
