<svg width="51" height="222" viewBox="0 0 51 222" fill="none" xmlns="http://www.w3.org/2000/svg">
<g filter="url(#filter0_d_513_1955)">
<path d="M38.4164 133.203C39.9262 128.295 39.6746 124.236 39.36 122.821L39.0558 122.212C38.0383 120.176 36.2886 118.601 34.1578 117.802C31.3466 116.747 28.4127 116.054 25.4268 115.74L24.0628 115.596C22.0499 115.384 19.9681 115.788 18.5311 117.214C15.1209 120.597 11.4701 127.156 13.8826 136.507C17.657 151.137 17.657 168.599 18.1288 178.981C18.5062 187.287 20.8023 195.656 21.9032 198.803L22.375 200.69L22.8468 201.634L23.7904 203.522L24.2622 204.466L25.2059 205.882L25.6777 206.354L26.1495 206.826H26.6213H27.5649H28.0367L28.9803 206.354L29.4521 205.41L29.9239 204.466C32.2829 155.384 35.1137 153.025 35.5855 149.721C36.0573 146.418 36.5292 139.338 38.4164 133.203Z" fill="url(#paint0_diamond_513_1955)"/>
<path d="M37.7567 96.046C41.9403 105.241 40.5889 121.72 39.358 128.954C34.6398 128.954 29.9221 134.617 27.5631 136.977C25.6759 138.865 22.6878 138.078 21.4297 137.449C19.5425 133.296 15.2962 129.741 13.409 128.482C10.7669 119.799 10.7354 107.874 11.05 102.998C11.05 95.4465 13.7235 93.2441 16.2398 93.0868L34.9888 94.0016C35.3812 94.0208 35.7652 94.1214 36.1166 94.2971C36.3887 94.4332 36.637 94.6123 36.8521 94.8275L36.9993 94.9748C37.3116 95.2872 37.5737 95.6439 37.7567 96.046Z" fill="url(#paint1_radial_513_1955)"/>
<path d="M39.9453 32.8456C39.9453 36.9987 32.7114 38.6662 29.0945 38.9808C23.6662 40.1876 17.6755 37.457 13.9627 35.0268C12.4148 34.0135 11.5078 32.2806 11.5314 30.4307C11.6628 20.1206 17.2014 11.0793 21.0902 6.52489C21.9524 5.51512 23.2357 5.00125 24.5635 5.00125C25.9492 5.00125 27.2824 5.5756 28.2061 6.60852C40.3826 20.225 39.9453 27.8477 39.9453 32.8456Z" fill="url(#paint2_radial_513_1955)"/>
<path d="M29.0512 38.4827C29.0293 38.4846 29.0075 38.488 28.986 38.4928C23.7648 39.6534 17.9241 37.0221 14.2366 34.6084C12.8341 33.6904 12.0099 32.119 12.0313 30.437C12.1607 20.2886 17.6222 11.3564 21.4705 6.84957C22.2251 5.96585 23.3613 5.50125 24.5635 5.50125C25.8123 5.50125 27.0081 6.01896 27.8334 6.94182C33.8893 13.7139 36.7819 18.9659 38.1676 23.1173C39.4609 26.992 39.4528 29.935 39.4462 32.3461C39.4458 32.5152 39.4453 32.6817 39.4453 32.8456C39.4453 34.5902 37.92 35.9263 35.6782 36.8936C33.4821 37.8411 30.826 38.3283 29.0512 38.4827Z" stroke="black" stroke-opacity="0.18" stroke-linecap="round" stroke-linejoin="round"/>
</g>
<defs>
<filter id="filter0_d_513_1955" x="0.914062" y="0.0012207" width="49.6748" height="221.824" filterUnits="userSpaceOnUse" color-interpolation-filters="sRGB">
<feFlood flood-opacity="0" result="BackgroundImageFix"/>
<feColorMatrix in="SourceAlpha" type="matrix" values="0 0 0 0 0 0 0 0 0 0 0 0 0 0 0 0 0 0 127 0" result="hardAlpha"/>
<feOffset dy="5"/>
<feGaussianBlur stdDeviation="5"/>
<feComposite in2="hardAlpha" operator="out"/>
<feColorMatrix type="matrix" values="0 0 0 0 0 0 0 0 0 0 0 0 0 0 0 0 0 0 0.35 0"/>
<feBlend mode="normal" in2="BackgroundImageFix" result="effect1_dropShadow_513_1955"/>
<feBlend mode="normal" in="SourceGraphic" in2="effect1_dropShadow_513_1955" result="shape"/>
</filter>
<radialGradient id="paint0_diamond_513_1955" cx="0" cy="0" r="1" gradientUnits="userSpaceOnUse" gradientTransform="translate(26.3509 161.048) rotate(90) scale(45.7781 13.2477)">
<stop stop-color="#F9E7C9"/>
<stop offset="1" stop-color="#E7BA8B"/>
</radialGradient>
<radialGradient id="paint1_radial_513_1955" cx="0" cy="0" r="1" gradientUnits="userSpaceOnUse" gradientTransform="translate(25.7516 115.624) rotate(90) scale(22.5369 14.8373)">
<stop offset="0.56179" stop-color="white"/>
<stop offset="1" stop-color="#CAC9C2"/>
</radialGradient>
<radialGradient id="paint2_radial_513_1955" cx="0" cy="0" r="1" gradientUnits="userSpaceOnUse" gradientTransform="translate(25.7381 22.1385) rotate(-90) scale(17.1373 14.2091)">
<stop offset="0.56179" stop-color="white"/>
<stop offset="1" stop-color="#CAC9C2"/>
</radialGradient>
</defs>
</svg>
