<svg width="51" height="216" viewBox="0 0 51 216" fill="none" xmlns="http://www.w3.org/2000/svg">
<g filter="url(#filter0_d_513_1955)">
<path d="M38.4164 127.203C39.9262 122.295 39.6746 118.236 39.36 116.821L39.0558 116.212C38.0383 114.176 36.2886 112.601 34.1578 111.802C31.3466 110.747 28.4127 110.054 25.4268 109.74L24.0628 109.596C22.0499 109.384 19.9681 109.788 18.5311 111.214C15.1209 114.597 11.4701 121.156 13.8826 130.507C17.657 145.137 17.657 162.599 18.1288 172.981C18.5062 181.287 20.8023 189.656 21.9032 192.803L22.375 194.69L22.8468 195.634L23.7904 197.522L24.2622 198.466L25.2059 199.882L25.6777 200.354L26.1495 200.826H26.6213H27.5649H28.0367L28.9803 200.354L29.4521 199.41L29.9239 198.466C32.2829 149.384 35.1137 147.025 35.5855 143.721C36.0573 140.418 36.5292 133.338 38.4164 127.203Z" fill="url(#paint0_diamond_513_1955)"/>
<path d="M37.7567 90.0459C41.9403 99.2413 40.5889 115.72 39.358 122.954C34.6398 122.954 29.9221 128.617 27.5631 130.977C25.6759 132.865 22.6878 132.078 21.4297 131.449C19.5425 127.296 15.2962 123.741 13.409 122.482C10.7669 113.798 10.7354 101.874 11.05 96.9974C11.05 89.4464 13.7235 87.244 16.2398 87.0867L34.9888 88.0015C35.3812 88.0207 35.7652 88.1213 36.1166 88.297C36.3887 88.4331 36.637 88.6122 36.8521 88.8274L36.9993 88.9746C37.3116 89.2871 37.5737 89.6438 37.7567 90.0459Z" fill="url(#paint1_radial_513_1955)"/>
<path d="M39.9453 12.2319C39.9453 8.07881 32.7114 6.41129 29.0945 6.09667C23.6662 4.88994 17.6755 7.62049 13.9627 10.0507C12.4148 11.064 11.5078 12.7969 11.5314 14.6468C11.6628 24.9569 17.2014 33.9982 21.0902 38.5526C21.9524 39.5624 23.2357 40.0763 24.5635 40.0763C25.9492 40.0763 27.2824 39.5019 28.2061 38.469C40.3826 24.8525 39.9453 17.2299 39.9453 12.2319Z" fill="url(#paint2_radial_513_1955)"/>
<path d="M34.921 15.0635C35.1817 15.1548 35.319 15.44 35.2277 15.7007C35.1365 15.9613 34.8512 16.0986 34.5906 16.0073C33.057 15.4704 30.3619 14.7951 27.3066 14.5352C24.2477 14.2751 20.8707 14.4351 17.9476 15.5316C17.689 15.6286 17.4008 15.4977 17.3038 15.2391C17.2068 14.9806 17.3378 14.6923 17.5964 14.5954C20.7119 13.4266 24.2543 13.272 27.3913 13.5388C30.532 13.806 33.3095 14.4993 34.921 15.0635ZM29.0512 6.59478C29.0293 6.59288 29.0075 6.58953 28.986 6.58475C23.7648 5.42408 17.9241 8.0554 14.2366 10.4691C12.8341 11.3871 12.0099 12.9585 12.0313 14.6405C12.1607 24.789 17.6222 33.7211 21.4705 38.2279C22.2251 39.1117 23.3613 39.5763 24.5635 39.5763C25.8123 39.5763 27.0081 39.0586 27.8334 38.1357C33.8893 31.3636 36.7819 26.1116 38.1676 21.9602C39.4609 18.0856 39.4528 15.1425 39.4462 12.7314C39.4458 12.5623 39.4453 12.3959 39.4453 12.2319C39.4453 10.4874 37.92 9.15119 35.6782 8.18395C33.4821 7.23643 30.826 6.74917 29.0512 6.59478Z" stroke="black" stroke-opacity="0.18" stroke-linecap="round" stroke-linejoin="round"/>
</g>
<defs>
<filter id="filter0_d_513_1955" x="0.914062" y="0.801758" width="49.6748" height="215.024" filterUnits="userSpaceOnUse" color-interpolation-filters="sRGB">
<feFlood flood-opacity="0" result="BackgroundImageFix"/>
<feColorMatrix in="SourceAlpha" type="matrix" values="0 0 0 0 0 0 0 0 0 0 0 0 0 0 0 0 0 0 127 0" result="hardAlpha"/>
<feOffset dy="5"/>
<feGaussianBlur stdDeviation="5"/>
<feComposite in2="hardAlpha" operator="out"/>
<feColorMatrix type="matrix" values="0 0 0 0 0 0 0 0 0 0 0 0 0 0 0 0 0 0 0.35 0"/>
<feBlend mode="normal" in2="BackgroundImageFix" result="effect1_dropShadow_513_1955"/>
<feBlend mode="normal" in="SourceGraphic" in2="effect1_dropShadow_513_1955" result="shape"/>
</filter>
<radialGradient id="paint0_diamond_513_1955" cx="0" cy="0" r="1" gradientUnits="userSpaceOnUse" gradientTransform="translate(26.3509 155.048) rotate(90) scale(45.7781 13.2477)">
<stop stop-color="#F9E7C9"/>
<stop offset="1" stop-color="#E7BA8B"/>
</radialGradient>
<radialGradient id="paint1_radial_513_1955" cx="0" cy="0" r="1" gradientUnits="userSpaceOnUse" gradientTransform="translate(25.7516 109.624) rotate(90) scale(22.5369 14.8373)">
<stop offset="0.56179" stop-color="white"/>
<stop offset="1" stop-color="#CAC9C2"/>
</radialGradient>
<radialGradient id="paint2_radial_513_1955" cx="0" cy="0" r="1" gradientUnits="userSpaceOnUse" gradientTransform="translate(25.7381 22.939) rotate(90) scale(17.1373 14.2091)">
<stop offset="0.56179" stop-color="white"/>
<stop offset="1" stop-color="#CAC9C2"/>
</radialGradient>
</defs>
</svg>
