<svg width="52" height="218" viewBox="0 0 52 218" fill="none" xmlns="http://www.w3.org/2000/svg">
<g filter="url(#filter0_d_513_1951)">
<path d="M12.853 129.315C11.3434 124.407 11.595 120.348 11.9095 118.932L12.2138 118.324C13.2312 116.288 14.9807 114.713 17.1113 113.913C19.9224 112.859 22.8561 112.166 25.8419 111.852L27.2057 111.708C29.2185 111.496 31.3002 111.9 32.737 113.326C36.147 116.708 39.7976 123.268 37.3853 132.619C33.6111 147.249 33.6111 164.71 33.1393 175.093C32.7619 183.399 30.466 191.768 29.3652 194.915L28.8934 196.802L28.4216 197.746L27.4781 199.634L27.0063 200.578L26.0627 201.994L25.591 202.466L25.1192 202.938H24.6474H23.7039H23.2321L22.2886 202.466L21.8168 201.522L21.345 200.578C18.9861 151.496 16.1555 149.136 15.6837 145.833C15.212 142.529 14.7401 135.45 12.853 129.315Z" fill="url(#paint0_diamond_513_1951)"/>
<path d="M13.5117 92.1624C9.32839 101.358 10.6796 117.837 11.9105 125.071C16.6284 125.071 21.3457 130.734 23.7046 133.094C25.5917 134.981 28.5796 134.195 29.8376 133.566C31.7247 129.412 35.9707 125.857 37.8578 124.599C40.4997 115.915 40.5312 103.991 40.2166 99.114C40.2166 91.5629 37.5433 89.3606 35.0271 89.2032L16.2794 90.1181C15.8871 90.1372 15.503 90.2379 15.1517 90.4136C14.8796 90.5497 14.6313 90.7288 14.4162 90.9439L14.269 91.0912C13.9567 91.4037 13.6946 91.7603 13.5117 92.1624Z" fill="url(#paint1_radial_513_1951)"/>
<path d="M13.3262 32.914C13.3262 37.0671 20.56 38.7346 24.177 39.0492C29.6053 40.2559 35.5959 37.5254 39.3087 35.0951C40.8567 34.0819 41.7637 32.349 41.7401 30.499C41.6086 20.189 36.0701 11.1476 32.1813 6.59325C31.319 5.58348 30.0358 5.06961 28.708 5.06961C27.3223 5.06961 25.9891 5.64396 25.0654 6.67688C12.8889 20.2934 13.3262 27.916 13.3262 32.914Z" fill="url(#paint2_radial_513_1951)"/>
<path d="M24.2203 38.5511C24.2422 38.553 24.264 38.5563 24.2855 38.5611C29.5067 39.7218 35.3474 37.0905 39.0349 34.6768C40.4374 33.7588 41.2616 32.1874 41.2401 30.5054C41.1107 20.3569 35.6492 11.4248 31.801 6.91793C31.0464 6.03421 29.9101 5.56961 28.708 5.56961C27.4592 5.56961 26.2634 6.08731 25.4381 7.01018C19.3822 13.7823 16.4896 19.0342 15.1039 23.1857C13.8106 27.0603 13.8186 30.0034 13.8253 32.4145C13.8257 32.5835 13.8262 32.75 13.8262 32.914C13.8262 34.6585 15.3515 35.9947 17.5933 36.9619C19.7894 37.9094 22.4455 38.3967 24.2203 38.5511Z" stroke="black" stroke-opacity="0.18" stroke-linecap="round" stroke-linejoin="round"/>
</g>
<defs>
<filter id="filter0_d_513_1951" x="0.679688" y="0.0695801" width="51.0605" height="217.868" filterUnits="userSpaceOnUse" color-interpolation-filters="sRGB">
<feFlood flood-opacity="0" result="BackgroundImageFix"/>
<feColorMatrix in="SourceAlpha" type="matrix" values="0 0 0 0 0 0 0 0 0 0 0 0 0 0 0 0 0 0 127 0" result="hardAlpha"/>
<feOffset dy="5"/>
<feGaussianBlur stdDeviation="5"/>
<feComposite in2="hardAlpha" operator="out"/>
<feColorMatrix type="matrix" values="0 0 0 0 0 0 0 0 0 0 0 0 0 0 0 0 0 0 0.35 0"/>
<feBlend mode="normal" in2="BackgroundImageFix" result="effect1_dropShadow_513_1951"/>
<feBlend mode="normal" in="SourceGraphic" in2="effect1_dropShadow_513_1951" result="shape"/>
</filter>
<radialGradient id="paint0_diamond_513_1951" cx="0" cy="0" r="1" gradientUnits="userSpaceOnUse" gradientTransform="translate(24.9177 157.159) rotate(90) scale(45.7781 13.2468)">
<stop stop-color="#F9E7C9"/>
<stop offset="1" stop-color="#E7BA8B"/>
</radialGradient>
<radialGradient id="paint1_radial_513_1951" cx="0" cy="0" r="1" gradientUnits="userSpaceOnUse" gradientTransform="translate(25.516 111.74) rotate(90) scale(22.5369 14.8363)">
<stop offset="0.56179" stop-color="white"/>
<stop offset="1" stop-color="#CAC9C2"/>
</radialGradient>
<radialGradient id="paint2_radial_513_1951" cx="0" cy="0" r="1" gradientUnits="userSpaceOnUse" gradientTransform="translate(27.5334 22.2069) rotate(-90) scale(17.1373 14.2091)">
<stop offset="0.56179" stop-color="white"/>
<stop offset="1" stop-color="#CAC9C2"/>
</radialGradient>
</defs>
</svg>
