<svg width="52" height="216" viewBox="0 0 52 216" fill="none" xmlns="http://www.w3.org/2000/svg">
<g filter="url(#filter0_d_513_1951)">
<path d="M12.853 127.315C11.3434 122.407 11.595 118.348 11.9095 116.932L12.2138 116.324C13.2312 114.288 14.9807 112.713 17.1113 111.913C19.9224 110.859 22.8561 110.166 25.8419 109.852L27.2057 109.708C29.2185 109.496 31.3002 109.9 32.737 111.326C36.147 114.708 39.7976 121.268 37.3853 130.619C33.6111 145.249 33.6111 162.71 33.1393 173.093C32.7619 181.399 30.466 189.768 29.3652 192.915L28.8934 194.802L28.4216 195.746L27.4781 197.634L27.0063 198.578L26.0627 199.994L25.591 200.466L25.1192 200.938H24.6474H23.7039H23.2321L22.2886 200.466L21.8168 199.522L21.345 198.578C18.9861 149.496 16.1555 147.136 15.6837 143.833C15.212 140.529 14.7401 133.45 12.853 127.315Z" fill="url(#paint0_diamond_513_1951)"/>
<path d="M13.5117 90.1624C9.32839 99.3579 10.6796 115.837 11.9105 123.071C16.6284 123.071 21.3457 128.734 23.7046 131.094C25.5917 132.981 28.5796 132.195 29.8376 131.566C31.7247 127.412 35.9707 123.857 37.8578 122.599C40.4997 113.915 40.5312 101.991 40.2166 97.114C40.2166 89.5629 37.5433 87.3606 35.0271 87.2032L16.2794 88.1181C15.8871 88.1372 15.503 88.2379 15.1517 88.4136C14.8796 88.5497 14.6313 88.7288 14.4162 88.9439L14.269 89.0912C13.9567 89.4037 13.6946 89.7603 13.5117 90.1624Z" fill="url(#paint1_radial_513_1951)"/>
<path d="M13.3262 12.1635C13.3262 8.01045 20.56 6.34293 24.177 6.02831C29.6053 4.82158 35.5959 7.55213 39.3087 9.98239C40.8567 10.9956 41.7637 12.7285 41.7401 14.5785C41.6086 24.8885 36.0701 33.9299 32.1813 38.4843C31.319 39.494 30.0358 40.0079 28.708 40.0079C27.3223 40.0079 25.9891 39.4336 25.0654 38.4006C12.8889 24.7841 13.3262 17.1615 13.3262 12.1635Z" fill="url(#paint2_radial_513_1951)"/>
<path d="M18.3505 14.9952C18.0898 15.0864 17.9525 15.3717 18.0438 15.6323C18.135 15.8929 18.4203 16.0302 18.6809 15.939C20.2145 15.402 22.9096 14.7267 25.9649 14.4669C29.0238 14.2067 32.4007 14.3667 35.3239 15.4633C35.5824 15.5603 35.8707 15.4293 35.9677 15.1708C36.0646 14.9122 35.9337 14.624 35.6751 14.527C32.5596 13.3583 29.0172 13.2036 25.8801 13.4705C22.7395 13.7376 19.962 14.4309 18.3505 14.9952ZM24.2203 6.52643C24.2422 6.52452 24.264 6.52117 24.2855 6.51639C29.5067 5.35572 35.3474 7.98704 39.0349 10.4007C40.4374 11.3188 41.2616 12.8901 41.2401 14.5721C41.1107 24.7206 35.6492 33.6527 31.801 38.1596C31.0464 39.0433 29.9101 39.5079 28.708 39.5079C27.4592 39.5079 26.2634 38.9902 25.4381 38.0673C19.3822 31.2952 16.4896 26.0433 15.1039 21.8918C13.8106 18.0172 13.8186 15.0741 13.8253 12.6631C13.8257 12.494 13.8262 12.3275 13.8262 12.1635C13.8262 10.419 15.3515 9.08284 17.5933 8.11559C19.7894 7.16807 22.4455 6.68081 24.2203 6.52643Z" stroke="black" stroke-opacity="0.18" stroke-linecap="round" stroke-linejoin="round"/>
</g>
<defs>
<filter id="filter0_d_513_1951" x="0.679688" y="0.733398" width="51.0605" height="215.204" filterUnits="userSpaceOnUse" color-interpolation-filters="sRGB">
<feFlood flood-opacity="0" result="BackgroundImageFix"/>
<feColorMatrix in="SourceAlpha" type="matrix" values="0 0 0 0 0 0 0 0 0 0 0 0 0 0 0 0 0 0 127 0" result="hardAlpha"/>
<feOffset dy="5"/>
<feGaussianBlur stdDeviation="5"/>
<feComposite in2="hardAlpha" operator="out"/>
<feColorMatrix type="matrix" values="0 0 0 0 0 0 0 0 0 0 0 0 0 0 0 0 0 0 0.35 0"/>
<feBlend mode="normal" in2="BackgroundImageFix" result="effect1_dropShadow_513_1951"/>
<feBlend mode="normal" in="SourceGraphic" in2="effect1_dropShadow_513_1951" result="shape"/>
</filter>
<radialGradient id="paint0_diamond_513_1951" cx="0" cy="0" r="1" gradientUnits="userSpaceOnUse" gradientTransform="translate(24.9177 155.159) rotate(90) scale(45.7781 13.2468)">
<stop stop-color="#F9E7C9"/>
<stop offset="1" stop-color="#E7BA8B"/>
</radialGradient>
<radialGradient id="paint1_radial_513_1951" cx="0" cy="0" r="1" gradientUnits="userSpaceOnUse" gradientTransform="translate(25.516 109.74) rotate(90) scale(22.5369 14.8363)">
<stop offset="0.56179" stop-color="white"/>
<stop offset="1" stop-color="#CAC9C2"/>
</radialGradient>
<radialGradient id="paint2_radial_513_1951" cx="0" cy="0" r="1" gradientUnits="userSpaceOnUse" gradientTransform="translate(27.5334 22.8707) rotate(90) scale(17.1373 14.2091)">
<stop offset="0.56179" stop-color="white"/>
<stop offset="1" stop-color="#CAC9C2"/>
</radialGradient>
</defs>
</svg>
