<svg width="54" height="185" viewBox="0 0 54 185" fill="none" xmlns="http://www.w3.org/2000/svg">
<g filter="url(#filter0_d_513_1944)">
<g clip-path="url(#paint0_diamond_513_1944_clip_path)" data-figma-skip-parse="true"><g transform="matrix(0 0.057208 -0.0129005 0 28.6173 112.086)"><rect x="0" y="0" width="1017.48" height="1077.52" fill="url(#paint0_diamond_513_1944)" opacity="1" shape-rendering="crispEdges"/><rect x="0" y="0" width="1017.48" height="1077.52" transform="scale(1 -1)" fill="url(#paint0_diamond_513_1944)" opacity="1" shape-rendering="crispEdges"/><rect x="0" y="0" width="1017.48" height="1077.52" transform="scale(-1 1)" fill="url(#paint0_diamond_513_1944)" opacity="1" shape-rendering="crispEdges"/><rect x="0" y="0" width="1017.48" height="1077.52" transform="scale(-1)" fill="url(#paint0_diamond_513_1944)" opacity="1" shape-rendering="crispEdges"/></g></g><path d="M16.6603 84.4778C19.3337 81.6461 24.8692 75.5109 25.624 73.6232C29.5555 58.2065 38.928 37.8499 41.1925 79.758C43.4571 121.666 33.3297 153.853 28.4547 164.707C25.624 168.168 19.9628 173.013 19.9628 164.707V140.167C18.8305 117.136 16.6603 94.3885 15.7168 85.8936L16.6603 84.4778Z" data-figma-gradient-fill="{&#34;type&#34;:&#34;GRADIENT_DIAMOND&#34;,&#34;stops&#34;:[{&#34;color&#34;:{&#34;r&#34;:0.97647058963775635,&#34;g&#34;:0.90588235855102539,&#34;b&#34;:0.78823530673980713,&#34;a&#34;:1.0},&#34;position&#34;:0.0},{&#34;color&#34;:{&#34;r&#34;:0.90588235855102539,&#34;g&#34;:0.7294117808341980,&#34;b&#34;:0.54509806632995605,&#34;a&#34;:1.0},&#34;position&#34;:1.0}],&#34;stopsVar&#34;:[{&#34;color&#34;:{&#34;r&#34;:0.97647058963775635,&#34;g&#34;:0.90588235855102539,&#34;b&#34;:0.78823530673980713,&#34;a&#34;:1.0},&#34;position&#34;:0.0},{&#34;color&#34;:{&#34;r&#34;:0.90588235855102539,&#34;g&#34;:0.7294117808341980,&#34;b&#34;:0.54509806632995605,&#34;a&#34;:1.0},&#34;position&#34;:1.0}],&#34;transform&#34;:{&#34;m00&#34;:1.5798611833841322e-15,&#34;m01&#34;:-25.801090240478516,&#34;m02&#34;:41.517887115478516,&#34;m10&#34;:114.41602325439453,&#34;m11&#34;:7.0059611256378766e-15,&#34;m12&#34;:54.87756347656250},&#34;opacity&#34;:1.0,&#34;blendMode&#34;:&#34;NORMAL&#34;,&#34;visible&#34;:true}"/>
<path d="M13.7452 74.9309C13.7452 80.1946 14.9267 84.3304 15.5174 85.7404C17.7327 87.1503 20.3911 90.4401 23.0494 93.26C25.1761 95.5159 29.5476 93.8866 31.4675 92.79C39.9743 87.9023 41.8056 84.1738 41.6579 82.9205V53.7819C41.6579 49.5521 40.7718 48.1422 38.5565 48.1422C33.3875 48.1422 22.7836 48.2362 18.1758 48.6122C13.568 48.9882 12.416 52.842 12.416 54.7219L13.7452 74.9309Z" fill="url(#paint1_radial_513_1944)"/>
<path d="M19.9315 10.0752C11.858 21.5136 10.778 26.909 10.9795 29.8493C11.0992 31.5948 11.8822 33.2562 12.9332 34.6549C23.6778 48.9529 42.6308 34.1761 43.0813 31.0211C43.4587 28.3783 40.7224 22.3689 39.3071 19.6946C34.7666 9.21279 33.0705 5.71503 28.8585 5.17979C25.2816 4.72525 22.0107 7.12942 19.9315 10.0752Z" fill="#585858"/>
<path d="M38.8652 19.9285C38.8591 19.917 38.8535 19.9052 38.8483 19.8933C36.5709 14.6359 35.0313 11.1912 33.545 8.98675C32.8074 7.89271 32.0997 7.1311 31.3457 6.61116C30.5974 6.09522 29.7797 5.80087 28.7955 5.6758C25.4879 5.25548 22.3739 7.48186 20.34 10.3635C12.2831 21.7784 11.2891 27.0532 11.4784 29.8151C11.5894 31.436 12.3203 33.0069 13.3329 34.3545C15.9448 37.8301 19.0331 39.5166 22.1995 40.0702C25.38 40.6263 28.6773 40.0451 31.692 38.9147C34.7052 37.7849 37.4069 36.1171 39.3793 34.54C40.3656 33.7515 41.1607 32.9926 41.7179 32.3438C41.9967 32.0191 42.21 31.729 42.3573 31.4824C42.5091 31.2285 42.5718 31.0524 42.5863 30.9504C42.6675 30.3823 42.584 29.5836 42.3627 28.625C42.1438 27.6772 41.8008 26.617 41.3984 25.5454C40.5936 23.4024 39.5652 21.2511 38.8652 19.9285Z" stroke="black" stroke-opacity="0.18" stroke-linecap="round" stroke-linejoin="round"/>
<path d="M19.9315 10.075C12.9416 19.9783 11.1939 25.3517 10.9815 28.5239C10.8073 31.1241 12.2392 33.6258 14.3224 35.1915C25.2307 43.39 42.6496 34.044 43.0813 31.0209C43.4587 28.3781 40.7224 22.3687 39.3071 19.6944C34.7666 9.2126 33.0705 5.71484 28.8585 5.17959C25.2816 4.72505 22.0107 7.12922 19.9315 10.075Z" fill="url(#paint2_radial_513_1944)"/>
<path d="M38.8652 19.9283C38.8591 19.9168 38.8535 19.9051 38.8483 19.8931C36.5709 14.6357 35.0313 11.191 33.545 8.98656C32.8074 7.89251 32.0997 7.1309 31.3457 6.61097C30.5974 6.09502 29.7797 5.80067 28.7955 5.6756C25.4879 5.25529 22.3739 7.48166 20.34 10.3633C13.3659 20.2441 11.6834 25.5248 11.4804 28.5573C11.3199 30.9526 12.6429 33.3037 14.6228 34.7918C19.8937 38.7533 26.7841 38.5046 32.4901 36.8344C35.3338 36.002 37.8499 34.8252 39.6733 33.6777C40.5859 33.1033 41.3131 32.5437 41.8188 32.0475C42.0717 31.7993 42.2611 31.5749 42.3901 31.38C42.522 31.1808 42.5738 31.0382 42.5863 30.9502C42.6675 30.3821 42.584 29.5835 42.3627 28.6248C42.1438 27.677 41.8008 26.6168 41.3984 25.5452C40.5936 23.4022 39.5652 21.2509 38.8652 19.9283Z" stroke="black" stroke-opacity="0.18" stroke-linecap="round" stroke-linejoin="round"/>
<path d="M38.8652 21.9285C38.8591 21.917 38.8535 21.9052 38.8483 21.8933C36.5709 16.6359 35.0313 13.1912 33.545 10.9867C32.8074 9.89271 32.0997 9.1311 31.3457 8.61116C30.5974 8.09522 29.7797 7.80087 28.7955 7.6758C25.4879 7.25548 22.3739 9.48186 20.34 12.3635C12.2831 23.7784 11.2891 29.0532 11.4784 31.8151C11.5894 33.436 12.3203 35.0069 13.3329 36.3545C15.9448 39.8301 19.0331 41.5166 22.1995 42.0702C25.38 42.6263 28.6773 42.0451 31.692 40.9147C34.7052 39.7849 37.4069 38.1171 39.3793 36.54C40.3656 35.7515 41.1607 34.9926 41.7179 34.3438C41.9967 34.0191 42.21 33.729 42.3573 33.4824C42.5091 33.2285 42.5718 33.0524 42.5863 32.9504C42.6675 32.3823 42.584 31.5836 42.3627 30.625C42.1438 29.6772 41.8008 28.617 41.3984 27.5454C40.5936 25.4024 39.5652 23.2511 38.8652 21.9285Z" stroke="black" stroke-opacity="0.18" stroke-linecap="round" stroke-linejoin="round"/>
</g>
<defs>
<filter id="filter0_d_513_1944" x="0.958008" y="0.124146" width="52.1582" height="184.169" filterUnits="userSpaceOnUse" color-interpolation-filters="sRGB">
<feFlood flood-opacity="0" result="BackgroundImageFix"/>
<feColorMatrix in="SourceAlpha" type="matrix" values="0 0 0 0 0 0 0 0 0 0 0 0 0 0 0 0 0 0 127 0" result="hardAlpha"/>
<feOffset dy="5"/>
<feGaussianBlur stdDeviation="5"/>
<feComposite in2="hardAlpha" operator="out"/>
<feColorMatrix type="matrix" values="0 0 0 0 0 0 0 0 0 0 0 0 0 0 0 0 0 0 0.35 0"/>
<feBlend mode="normal" in2="BackgroundImageFix" result="effect1_dropShadow_513_1944"/>
<feBlend mode="normal" in="SourceGraphic" in2="effect1_dropShadow_513_1944" result="shape"/>
</filter>
<clipPath id="paint0_diamond_513_1944_clip_path"><path d="M16.6603 84.4778C19.3337 81.6461 24.8692 75.5109 25.624 73.6232C29.5555 58.2065 38.928 37.8499 41.1925 79.758C43.4571 121.666 33.3297 153.853 28.4547 164.707C25.624 168.168 19.9628 173.013 19.9628 164.707V140.167C18.8305 117.136 16.6603 94.3885 15.7168 85.8936L16.6603 84.4778Z"/></clipPath><linearGradient id="paint0_diamond_513_1944" x1="0" y1="0" x2="500" y2="500" gradientUnits="userSpaceOnUse">
<stop stop-color="#F9E7C9"/>
<stop offset="1" stop-color="#E7BA8B"/>
</linearGradient>
<radialGradient id="paint1_radial_513_1944" cx="0" cy="0" r="1" gradientUnits="userSpaceOnUse" gradientTransform="translate(27.041 71.2672) rotate(90) scale(23.125 14.625)">
<stop offset="0.56179" stop-color="white"/>
<stop offset="1" stop-color="#CAC9C2"/>
</radialGradient>
<radialGradient id="paint2_radial_513_1944" cx="0" cy="0" r="1" gradientUnits="userSpaceOnUse" gradientTransform="translate(27.0373 21.7918) rotate(-90) scale(16.688 16.0793)">
<stop offset="0.56179" stop-color="white"/>
<stop offset="1" stop-color="#CAC9C2"/>
</radialGradient>
</defs>
</svg>
