<svg width="54" height="226" viewBox="0 0 54 226" fill="none" xmlns="http://www.w3.org/2000/svg">
<g filter="url(#filter0_d_513_1944)">
<path d="M16.6603 125.478C19.3337 122.647 24.8692 116.511 25.624 114.624C29.5555 99.2069 38.928 78.8503 41.1925 120.758C43.4571 162.667 33.3297 194.853 28.4547 205.708C25.624 209.169 19.9628 214.014 19.9628 205.708V181.167C18.8305 158.136 16.6603 135.389 15.7168 126.894L16.6603 125.478Z" fill="url(#paint0_diamond_513_1944)"/>
<path d="M13.7452 115.931C13.7452 121.195 14.9267 125.331 15.5174 126.741C17.7327 128.151 20.3911 131.44 23.0494 134.26C25.1761 136.516 29.5476 134.887 31.4675 133.79C39.9743 128.903 41.8056 125.174 41.6579 123.921V94.7823C41.6579 90.5525 40.7718 89.1426 38.5565 89.1426C33.3875 89.1426 22.7836 89.2366 18.1758 89.6126C13.568 89.9885 12.416 93.8423 12.416 95.7223L13.7452 115.931Z" fill="url(#paint1_radial_513_1944)"/>
<path d="M19.9315 35.9995C11.858 24.5611 10.778 19.1657 10.9795 16.2254C11.0992 14.4799 11.8822 12.8185 12.9332 11.4198C23.6778 -2.87821 42.6308 11.8986 43.0813 15.0536C43.4587 17.6964 40.7224 23.7058 39.3071 26.3801C34.7666 36.8619 33.0705 40.3597 28.8585 40.8949C25.2816 41.3495 22.0107 38.9453 19.9315 35.9995Z" fill="#585858"/>
<path d="M15.7185 15.9975C18.8636 14.5817 27.2297 12.5995 35.5329 15.9975M15.5132 15.5415C15.2614 15.6549 15.1492 15.9509 15.2625 16.2027C15.3759 16.4545 15.6719 16.5668 15.9237 16.4534C18.981 15.0771 27.2006 13.1279 35.3436 16.4602C35.5991 16.5648 35.8911 16.4424 35.9957 16.1869C36.1003 15.9313 35.9779 15.6393 35.7223 15.5347C27.2589 12.0712 18.7462 14.0862 15.5132 15.5415ZM38.8652 26.1463C38.8591 26.1577 38.8535 26.1695 38.8483 26.1814C36.5709 31.4388 35.0313 34.8836 33.545 37.088C32.8074 38.182 32.0997 38.9436 31.3457 39.4635C30.5974 39.9795 29.7797 40.2738 28.7955 40.3989C25.4879 40.8192 22.3739 38.5928 20.34 35.7112C12.2831 24.2963 11.2891 19.0215 11.4784 16.2596C11.5894 14.6387 12.3203 13.0678 13.3329 11.7202C15.9448 8.24457 19.0331 6.55807 22.1995 6.00448C25.38 5.44843 28.6773 6.02963 31.692 7.16C34.7052 8.28981 37.4069 9.95757 39.3793 11.5347C40.3656 12.3232 41.1607 13.0821 41.7179 13.7309C41.9967 14.0556 42.21 14.3457 42.3573 14.5923C42.5091 14.8463 42.5718 15.0223 42.5863 15.1243C42.6675 15.6924 42.584 16.4911 42.3627 17.4497C42.1438 18.3976 41.8008 19.4577 41.3984 20.5293C40.5936 22.6723 39.5652 24.8236 38.8652 26.1463Z" stroke="black" stroke-opacity="0.18" stroke-linecap="round" stroke-linejoin="round"/>
<path d="M19.9315 35.9997C12.9416 26.0965 11.1939 20.723 10.9815 17.5508C10.8073 14.9506 12.2392 12.4489 14.3224 10.8832C25.2307 2.68475 42.6496 12.0307 43.0813 15.0538C43.4587 17.6966 40.7224 23.706 39.3071 26.3803C34.7666 36.8621 33.0705 40.3599 28.8585 40.8951C25.2816 41.3497 22.0107 38.9455 19.9315 35.9997Z" fill="url(#paint2_radial_513_1944)"/>
<path d="M15.7185 15.9977C18.8636 14.5819 27.2297 12.5997 35.5329 15.9977M15.5132 15.5417C15.2614 15.6551 15.1492 15.9511 15.2625 16.2029C15.3759 16.4547 15.6719 16.567 15.9237 16.4536C18.981 15.0773 27.2006 13.128 35.3436 16.4604C35.5991 16.565 35.8911 16.4426 35.9957 16.187C36.1003 15.9315 35.9779 15.6395 35.7223 15.5349C27.2589 12.0714 18.7462 14.0864 15.5132 15.5417ZM38.8652 26.1464C38.8591 26.1579 38.8535 26.1697 38.8483 26.1816C36.5709 31.439 35.0313 34.8838 33.545 37.0882C32.8074 38.1822 32.0997 38.9438 31.3457 39.4637C30.5974 39.9797 29.7797 40.274 28.7955 40.3991C25.4879 40.8194 22.3739 38.593 20.34 35.7114C13.3659 25.8306 11.6834 20.5499 11.4804 17.5174C11.3199 15.1221 12.6429 12.771 14.6228 11.2829C19.8937 7.32142 26.7841 7.5701 32.4901 9.2403C35.3338 10.0727 37.8499 11.2496 39.6733 12.397C40.5859 12.9714 41.3131 13.531 41.8188 14.0272C42.0717 14.2754 42.2611 14.4998 42.3901 14.6947C42.522 14.8939 42.5738 15.0365 42.5863 15.1245C42.6675 15.6926 42.584 16.4912 42.3627 17.4499C42.1438 18.3977 41.8008 19.4579 41.3984 20.5295C40.5936 22.6725 39.5652 24.8238 38.8652 26.1464Z" stroke="black" stroke-opacity="0.18" stroke-linecap="round" stroke-linejoin="round"/>
<path d="M15.7185 15.9975C18.8636 14.5817 27.2297 12.5995 35.5329 15.9975M15.5132 15.5415C15.2614 15.6549 15.1492 15.9509 15.2625 16.2027C15.3759 16.4545 15.6719 16.5668 15.9237 16.4534C18.981 15.0771 27.2006 13.1279 35.3436 16.4602C35.5991 16.5648 35.8911 16.4424 35.9957 16.1869C36.1003 15.9313 35.9779 15.6393 35.7223 15.5347C27.2589 12.0712 18.7462 14.0862 15.5132 15.5415ZM38.8652 26.1463C38.8591 26.1577 38.8535 26.1695 38.8483 26.1814C36.5709 31.4388 35.0313 34.8836 33.545 37.088C32.8074 38.182 32.0997 38.9436 31.3457 39.4635C30.5974 39.9795 29.7797 40.2738 28.7955 40.3989C25.4879 40.8192 22.3739 38.5928 20.34 35.7112C12.2831 24.2963 11.2891 19.0215 11.4784 16.2596C11.5894 14.6387 12.3203 13.0678 13.3329 11.7202C15.9448 8.24457 19.0331 6.55807 22.1995 6.00448C25.38 5.44843 28.6773 6.02963 31.692 7.16C34.7052 8.28981 37.4069 9.95757 39.3793 11.5347C40.3656 12.3232 41.1607 13.0821 41.7179 13.7309C41.9967 14.0556 42.21 14.3457 42.3573 14.5923C42.5091 14.8463 42.5718 15.0223 42.5863 15.1243C42.6675 15.6924 42.584 16.4911 42.3627 17.4497C42.1438 18.3976 41.8008 19.4577 41.3984 20.5293C40.5936 22.6723 39.5652 24.8236 38.8652 26.1463Z" stroke="black" stroke-opacity="0.18" stroke-linecap="round" stroke-linejoin="round"/>
</g>
<defs>
<filter id="filter0_d_513_1944" x="0.958008" y="0.291016" width="52.1582" height="225.003" filterUnits="userSpaceOnUse" color-interpolation-filters="sRGB">
<feFlood flood-opacity="0" result="BackgroundImageFix"/>
<feColorMatrix in="SourceAlpha" type="matrix" values="0 0 0 0 0 0 0 0 0 0 0 0 0 0 0 0 0 0 127 0" result="hardAlpha"/>
<feOffset dy="5"/>
<feGaussianBlur stdDeviation="5"/>
<feComposite in2="hardAlpha" operator="out"/>
<feColorMatrix type="matrix" values="0 0 0 0 0 0 0 0 0 0 0 0 0 0 0 0 0 0 0.35 0"/>
<feBlend mode="normal" in2="BackgroundImageFix" result="effect1_dropShadow_513_1944"/>
<feBlend mode="normal" in="SourceGraphic" in2="effect1_dropShadow_513_1944" result="shape"/>
</filter>
<radialGradient id="paint0_diamond_513_1944" cx="0" cy="0" r="1" gradientUnits="userSpaceOnUse" gradientTransform="translate(28.6173 153.086) rotate(90) scale(57.208 12.9005)">
<stop stop-color="#F9E7C9"/>
<stop offset="1" stop-color="#E7BA8B"/>
</radialGradient>
<radialGradient id="paint1_radial_513_1944" cx="0" cy="0" r="1" gradientUnits="userSpaceOnUse" gradientTransform="translate(27.041 112.268) rotate(90) scale(23.125 14.625)">
<stop offset="0.56179" stop-color="white"/>
<stop offset="1" stop-color="#CAC9C2"/>
</radialGradient>
<radialGradient id="paint2_radial_513_1944" cx="0" cy="0" r="1" gradientUnits="userSpaceOnUse" gradientTransform="translate(27.0373 24.2829) rotate(90) scale(16.688 16.0793)">
<stop offset="0.56179" stop-color="white"/>
<stop offset="1" stop-color="#CAC9C2"/>
</radialGradient>
</defs>
</svg>
