<svg width="62" height="224" viewBox="0 0 62 224" fill="none" xmlns="http://www.w3.org/2000/svg">
<g filter="url(#filter0_d_513_1932)">
<g clip-path="url(#paint0_diamond_513_1932_clip_path)" data-figma-skip-parse="true"><g transform="matrix(0 0.0455271 -0.0151545 0 29.5618 163.457)"><rect x="0" y="0" width="1021.96" height="1065.99" fill="url(#paint0_diamond_513_1932)" opacity="1" shape-rendering="crispEdges"/><rect x="0" y="0" width="1021.96" height="1065.99" transform="scale(1 -1)" fill="url(#paint0_diamond_513_1932)" opacity="1" shape-rendering="crispEdges"/><rect x="0" y="0" width="1021.96" height="1065.99" transform="scale(-1 1)" fill="url(#paint0_diamond_513_1932)" opacity="1" shape-rendering="crispEdges"/><rect x="0" y="0" width="1021.96" height="1065.99" transform="scale(-1)" fill="url(#paint0_diamond_513_1932)" opacity="1" shape-rendering="crispEdges"/></g></g><path d="M15.8225 153.808C14.6903 146.634 14.4072 135.717 14.4072 131.155C19.125 126.907 30.4475 118.318 37.9959 117.94C45.5442 117.563 45.2297 127.851 44.1289 133.042C42.8709 136.818 40.5435 145.69 41.2983 150.976C42.0531 156.262 41.9273 163.876 41.7701 167.022C40.6693 177.719 36.4862 200.53 28.5604 206.193C20.6346 211.856 20.2258 207.609 21.012 204.777C22.1129 199.743 23.654 188.259 21.012 182.596C18.3701 176.933 17.3951 169.224 17.2379 166.078C17.2379 164.977 16.9548 160.981 15.8225 153.808Z" data-figma-gradient-fill="{&#34;type&#34;:&#34;GRADIENT_DIAMOND&#34;,&#34;stops&#34;:[{&#34;color&#34;:{&#34;r&#34;:0.97647058963775635,&#34;g&#34;:0.90588235855102539,&#34;b&#34;:0.78823530673980713,&#34;a&#34;:1.0},&#34;position&#34;:0.0},{&#34;color&#34;:{&#34;r&#34;:0.90588235855102539,&#34;g&#34;:0.7294117808341980,&#34;b&#34;:0.54509806632995605,&#34;a&#34;:1.0},&#34;position&#34;:1.0}],&#34;stopsVar&#34;:[{&#34;color&#34;:{&#34;r&#34;:0.97647058963775635,&#34;g&#34;:0.90588235855102539,&#34;b&#34;:0.78823530673980713,&#34;a&#34;:1.0},&#34;position&#34;:0.0},{&#34;color&#34;:{&#34;r&#34;:0.90588235855102539,&#34;g&#34;:0.7294117808341980,&#34;b&#34;:0.54509806632995605,&#34;a&#34;:1.0},&#34;position&#34;:1.0}],&#34;transform&#34;:{&#34;m00&#34;:1.8558957742462710e-15,&#34;m01&#34;:-30.309076309204102,&#34;m02&#34;:44.716300964355469,&#34;m10&#34;:91.054206848144531,&#34;m11&#34;:5.5754622381616603e-15,&#34;m12&#34;:117.930175781250},&#34;opacity&#34;:1.0,&#34;blendMode&#34;:&#34;NORMAL&#34;,&#34;visible&#34;:true}"/>
<path d="M10.6329 106.609C9.87804 122.088 12.8345 129.419 14.4071 131.149C16.2698 130.942 18.1232 131.01 19.6247 131.165C21.4648 131.355 23.0365 132.424 24.4727 133.59C26.8809 135.544 30.2724 137.178 32.8062 134.925C36.203 131.905 41.7699 132.408 44.1288 133.037C50.2618 122.183 49.79 110.384 50.7336 104.721C51.4884 100.19 48.532 98.4283 46.9594 98.1137C45.8586 98.4283 42.6191 98.3025 38.4675 95.2821C33.278 91.5066 30.4473 92.4504 26.2014 94.3382C22.2267 96.1053 19.5966 101.417 15.8224 101.889C12.4518 102.311 10.7901 105.35 10.6329 106.609Z" fill="url(#paint1_radial_513_1932)"/>
<path d="M13.4631 68.371C10.0663 44.5853 21.326 36.1219 27.1445 35.3353C31.3904 34.7613 34.571 35.6499 36.1082 36.2792C49.3178 43.4527 50.7331 58.1457 49.7896 64.5955C45.1041 83.8128 41.8147 83.9441 30.2158 84.4073L29.9751 84.417C20.5397 84.7945 15.0356 73.877 13.4631 68.371Z" fill="url(#paint2_radial_513_1932)"/>
<path d="M19.1578 78.2841C16.469 74.991 14.73 70.9696 13.9532 68.2664C10.5963 44.6772 21.7648 36.5671 27.2115 35.8308C31.3323 35.2737 34.4126 36.1299 35.8937 36.7317C48.7992 43.7569 50.2202 58.1392 49.2982 64.5001C48.131 69.2846 47.056 72.8583 45.9249 75.5389C44.7925 78.2228 43.6168 79.9796 42.2665 81.1574C39.5687 83.5107 36.0542 83.6738 30.1959 83.9077L30.2158 84.4073L30.1958 83.9077L29.9552 83.9174C25.4564 84.0974 21.8576 81.5906 19.1578 78.2841Z" stroke="black" stroke-opacity="0.18" stroke-linecap="round" stroke-linejoin="round"/>
<g filter="url(#filter1_d_513_1932)">
<path d="M14.5252 27.4064C15.1461 29.6481 25.1316 31.3294 30.0467 31.8898C40.6019 33.2349 48.4136 29.8349 51 27.9668V18.4397C50.2242 13.3958 44.9474 3.98072 30.0467 6.67075C11.4209 10.0333 13.7491 24.6043 14.5252 27.4064Z" fill="url(#paint3_radial_513_1932)"/>
<path d="M14.5252 27.4064C15.1461 29.6481 25.1316 31.3294 30.0467 31.8898C40.6019 33.2349 48.4136 29.8349 51 27.9668V18.4397C50.2242 13.3958 44.9474 3.98072 30.0467 6.67075C11.4209 10.0333 13.7491 24.6043 14.5252 27.4064Z" stroke="#CBCBCB"/>
</g>
</g>
<defs>
<filter id="filter0_d_513_1932" x="0.511719" y="0.696899" width="60.9883" height="223.287" filterUnits="userSpaceOnUse" color-interpolation-filters="sRGB">
<feFlood flood-opacity="0" result="BackgroundImageFix"/>
<feColorMatrix in="SourceAlpha" type="matrix" values="0 0 0 0 0 0 0 0 0 0 0 0 0 0 0 0 0 0 127 0" result="hardAlpha"/>
<feOffset dy="5"/>
<feGaussianBlur stdDeviation="5"/>
<feComposite in2="hardAlpha" operator="out"/>
<feColorMatrix type="matrix" values="0 0 0 0 0 0 0 0 0 0 0 0 0 0 0 0 0 0 0.35 0"/>
<feBlend mode="normal" in2="BackgroundImageFix" result="effect1_dropShadow_513_1932"/>
<feBlend mode="normal" in="SourceGraphic" in2="effect1_dropShadow_513_1932" result="shape"/>
</filter>
<clipPath id="paint0_diamond_513_1932_clip_path"><path d="M15.8225 153.808C14.6903 146.634 14.4072 135.717 14.4072 131.155C19.125 126.907 30.4475 118.318 37.9959 117.94C45.5442 117.563 45.2297 127.851 44.1289 133.042C42.8709 136.818 40.5435 145.69 41.2983 150.976C42.0531 156.262 41.9273 163.876 41.7701 167.022C40.6693 177.719 36.4862 200.53 28.5604 206.193C20.6346 211.856 20.2258 207.609 21.012 204.777C22.1129 199.743 23.654 188.259 21.012 182.596C18.3701 176.933 17.3951 169.224 17.2379 166.078C17.2379 164.977 16.9548 160.981 15.8225 153.808Z"/></clipPath><filter id="filter1_d_513_1932" x="9.5" y="5.6969" width="46" height="34.9999" filterUnits="userSpaceOnUse" color-interpolation-filters="sRGB">
<feFlood flood-opacity="0" result="BackgroundImageFix"/>
<feColorMatrix in="SourceAlpha" type="matrix" values="0 0 0 0 0 0 0 0 0 0 0 0 0 0 0 0 0 0 127 0" result="hardAlpha"/>
<feOffset dy="4"/>
<feGaussianBlur stdDeviation="2"/>
<feComposite in2="hardAlpha" operator="out"/>
<feColorMatrix type="matrix" values="0 0 0 0 0 0 0 0 0 0 0 0 0 0 0 0 0 0 0.25 0"/>
<feBlend mode="normal" in2="BackgroundImageFix" result="effect1_dropShadow_513_1932"/>
<feBlend mode="normal" in="SourceGraphic" in2="effect1_dropShadow_513_1932" result="shape"/>
</filter>
<linearGradient id="paint0_diamond_513_1932" x1="0" y1="0" x2="500" y2="500" gradientUnits="userSpaceOnUse">
<stop stop-color="#F9E7C9"/>
<stop offset="1" stop-color="#E7BA8B"/>
</linearGradient>
<radialGradient id="paint1_radial_513_1932" cx="0" cy="0" r="1" gradientUnits="userSpaceOnUse" gradientTransform="translate(30.6832 114.351) rotate(90) scale(21.6645 20.1715)">
<stop offset="0.56179" stop-color="white"/>
<stop offset="1" stop-color="#CAC9C2"/>
</radialGradient>
<radialGradient id="paint2_radial_513_1932" cx="0" cy="0" r="1" gradientUnits="userSpaceOnUse" gradientTransform="translate(31.4301 59.7885) rotate(90) scale(24.6381 18.5932)">
<stop offset="0.56179" stop-color="white"/>
<stop offset="1" stop-color="#CAC9C2"/>
</radialGradient>
<radialGradient id="paint3_radial_513_1932" cx="0" cy="0" r="1" gradientUnits="userSpaceOnUse" gradientTransform="translate(32.5 19.1968) rotate(90) scale(13 18.5)">
<stop offset="0.505" stop-color="white"/>
<stop offset="1" stop-color="#D9D9D9"/>
</radialGradient>
</defs>
</svg>
