<svg width="61" height="219" viewBox="0 0 61 219" fill="none" xmlns="http://www.w3.org/2000/svg">
<g filter="url(#filter0_d_513_1932)">
<path d="M15.8225 148.808C14.6903 141.634 14.4072 130.717 14.4072 126.155C19.125 121.907 30.4475 113.318 37.9959 112.94C45.5442 112.563 45.2297 122.851 44.1289 128.042C42.8709 131.818 40.5435 140.69 41.2983 145.976C42.0531 151.262 41.9273 158.876 41.7701 162.022C40.6693 172.719 36.4862 195.53 28.5604 201.193C20.6346 206.856 20.2258 202.609 21.012 199.777C22.1129 194.743 23.654 183.259 21.012 177.596C18.3701 171.933 17.3951 164.224 17.2379 161.078C17.2379 159.977 16.9548 155.981 15.8225 148.808Z" fill="url(#paint0_diamond_513_1932)"/>
<path d="M10.6329 101.609C9.87804 117.088 12.8345 124.419 14.4071 126.149C16.2698 125.942 18.1232 126.01 19.6247 126.165C21.4648 126.355 23.0365 127.424 24.4727 128.59C26.8809 130.544 30.2724 132.178 32.8062 129.925C36.203 126.905 41.7699 127.408 44.1288 128.037C50.2618 117.183 49.79 105.384 50.7336 99.7208C51.4884 95.1902 48.532 93.4283 46.9594 93.1137C45.8586 93.4283 42.6191 93.3025 38.4675 90.2821C33.278 86.5066 30.4473 87.4504 26.2014 89.3382C22.2267 91.1053 19.5966 96.4173 15.8224 96.8892C12.4518 97.3107 10.7901 100.35 10.6329 101.609Z" fill="url(#paint1_radial_513_1932)"/>
<path d="M13.4631 38.371C10.0663 14.5853 21.326 6.12188 27.1445 5.33532C31.3904 4.76134 34.571 5.64994 36.1082 6.2792C49.3178 13.4527 50.7331 28.1457 49.7896 34.5955C45.1041 53.8128 41.8147 53.9441 30.2158 54.4073L29.9751 54.417C20.5397 54.7945 15.0356 43.877 13.4631 38.371Z" fill="url(#paint2_radial_513_1932)"/>
<path d="M21.9819 22.2895C21.9623 22.0141 21.723 21.8067 21.4476 21.8264C21.1722 21.8461 20.9648 22.0853 20.9845 22.3607C21.0986 23.9585 21.1542 26.184 21.0312 28.4134C20.9077 30.6529 20.6061 32.8522 20.0265 34.4224C19.5976 35.584 19.0664 36.266 18.477 36.4871C18.2184 36.5841 18.0874 36.8723 18.1844 37.1308C18.2814 37.3894 18.5696 37.5204 18.8282 37.4234C19.5904 37.1374 20.1555 36.4774 20.5806 35.6513C21.8755 37.4575 24.1872 39.4084 27.4486 40.0871C26.4131 41.2236 25.2292 43.3378 25.2292 46.394C25.2292 46.6701 25.453 46.894 25.7292 46.894C26.0053 46.894 26.2292 46.6701 26.2292 46.394C26.2292 42.9834 27.8406 40.951 28.6987 40.2775C31.7765 40.5798 35.5289 39.7525 39.8983 36.9181C39.8486 37.933 39.8555 38.8986 39.9454 39.7439C40.0648 40.8666 40.3415 41.8972 40.9441 42.5C41.1393 42.6953 41.4559 42.6954 41.6512 42.5002C41.8465 42.3049 41.8465 41.9884 41.6513 41.7931C41.3104 41.452 41.0562 40.7325 40.9398 39.6381C40.8266 38.5742 40.8536 37.2674 40.9703 35.8762C41.2035 33.0966 41.7878 30.055 42.2557 28.105C42.3201 27.8365 42.1546 27.5666 41.8861 27.5022C41.6176 27.4378 41.3477 27.6032 41.2833 27.8717C40.815 29.8234 40.2311 32.8511 39.9854 35.6581C35.3917 38.805 31.5892 39.6044 28.6168 39.2631C24.7765 38.8222 22.214 36.4629 21.0449 34.543C21.6234 32.8547 21.9101 30.6372 22.0297 28.4684C22.1553 26.1914 22.0986 23.9234 21.9819 22.2895ZM13.9532 38.2664C10.5963 14.6772 21.7648 6.56711 27.2115 5.83081C31.3323 5.27374 34.4126 6.12993 35.8937 6.7317C48.7992 13.7569 50.2202 28.1392 49.2982 34.5001C48.131 39.2847 47.056 42.8583 45.9249 45.5389C44.7925 48.2228 43.6168 49.9796 42.2665 51.1574C39.5687 53.5107 36.0542 53.6738 30.1959 53.9077L30.2158 54.4073L30.1958 53.9077L29.9552 53.9174C25.4564 54.0974 21.8576 51.5906 19.1578 48.2841C16.469 44.991 14.73 40.9696 13.9532 38.2664Z" stroke="black" stroke-opacity="0.18" stroke-linecap="round" stroke-linejoin="round"/>
</g>
<defs>
<filter id="filter0_d_513_1932" x="0.511719" y="0.150391" width="60.3428" height="218.834" filterUnits="userSpaceOnUse" color-interpolation-filters="sRGB">
<feFlood flood-opacity="0" result="BackgroundImageFix"/>
<feColorMatrix in="SourceAlpha" type="matrix" values="0 0 0 0 0 0 0 0 0 0 0 0 0 0 0 0 0 0 127 0" result="hardAlpha"/>
<feOffset dy="5"/>
<feGaussianBlur stdDeviation="5"/>
<feComposite in2="hardAlpha" operator="out"/>
<feColorMatrix type="matrix" values="0 0 0 0 0 0 0 0 0 0 0 0 0 0 0 0 0 0 0.35 0"/>
<feBlend mode="normal" in2="BackgroundImageFix" result="effect1_dropShadow_513_1932"/>
<feBlend mode="normal" in="SourceGraphic" in2="effect1_dropShadow_513_1932" result="shape"/>
</filter>
<radialGradient id="paint0_diamond_513_1932" cx="0" cy="0" r="1" gradientUnits="userSpaceOnUse" gradientTransform="translate(29.5618 158.457) rotate(90) scale(45.5271 15.1545)">
<stop stop-color="#F9E7C9"/>
<stop offset="1" stop-color="#E7BA8B"/>
</radialGradient>
<radialGradient id="paint1_radial_513_1932" cx="0" cy="0" r="1" gradientUnits="userSpaceOnUse" gradientTransform="translate(30.6832 109.351) rotate(90) scale(21.6645 20.1715)">
<stop offset="0.56179" stop-color="white"/>
<stop offset="1" stop-color="#CAC9C2"/>
</radialGradient>
<radialGradient id="paint2_radial_513_1932" cx="0" cy="0" r="1" gradientUnits="userSpaceOnUse" gradientTransform="translate(31.4301 29.7885) rotate(90) scale(24.6381 18.5932)">
<stop offset="0.56179" stop-color="white"/>
<stop offset="1" stop-color="#CAC9C2"/>
</radialGradient>
</defs>
</svg>
