<svg width="81" height="213" viewBox="0 0 81 213" fill="none" xmlns="http://www.w3.org/2000/svg">
<g filter="url(#filter0_d_513_1926)">
<path d="M16.5924 152.657C18.4794 135.667 15.4916 125.442 13.7617 122.453L22.7254 113.486L67.0721 113.958C57.6366 137.083 64.2414 141.33 63.2979 150.769C60.5561 178.196 54.0197 193.086 49.1447 197.019C45.8423 198.278 39.7092 198.907 41.5963 191.356C43.9552 181.917 43.9552 166.343 43.4834 162.096C43.0116 157.848 41.5963 154.545 37.8221 153.129C34.8028 151.996 34.048 154.545 34.048 155.96C35.1488 158.635 36.2181 165.399 31.6891 171.062C26.0278 178.141 28.3867 184.749 27.9149 188.996C27.5375 192.394 25.2415 192.614 24.1407 192.3C10.9311 182.861 14.2335 173.894 16.5924 152.657Z" fill="url(#paint0_diamond_513_1926)"/>
<ellipse cx="29.8013" cy="96.0218" rx="7.54837" ry="8.4949" fill="#A9A9A9"/>
<ellipse cx="51.0313" cy="96.0232" rx="9.90723" ry="8.4949" fill="#A9A9A9"/>
<path d="M60.4675 88.0007C52.1643 91.7762 46.3144 92.4055 44.4273 92.2482C38.4373 89.7515 33.7677 91.1072 30.7458 93.1764C26.9717 89.8572 18.9515 88.0007 13.762 94.1358C8.57251 100.271 10.9314 109.238 10.9314 114.429C10.9314 119.621 14.7056 125.284 18.008 123.868C20.6499 122.735 25.3991 123.081 27.4434 123.396C31.6894 124.812 38.766 130.003 41.1248 126.7C43.0119 124.057 47.5724 124.655 49.6168 125.284C56.4103 127.927 60.9393 127.329 62.3546 126.7C69.903 116.883 70.532 105.934 69.903 101.687C70.2175 95.5517 68.7707 84.2251 60.4675 88.0007Z" fill="url(#paint1_radial_513_1926)"/>
<path d="M30.7448 6.35529C27.7254 8.99815 21.3093 11.8612 18.4787 12.9624C10.9303 18.1538 10.9303 28.0645 11.8739 32.3119C14.5158 51.1895 24.6117 56.2235 29.3295 56.3808H48.2574C52.5602 56.3808 57.0101 55.604 60.3092 52.8416C68.6127 45.889 63.976 38.3325 65.1842 26.6487C66.3165 15.6997 56.8495 10.1308 51.9746 8.71499C46.156 6.82723 33.7641 3.71243 30.7448 6.35529Z" fill="url(#paint2_radial_513_1926)"/>
<path d="M46.3133 15.7941C44.9103 24.3712 45.5471 40.245 59.1621 35.7386M21.225 37.0081C24.0043 36.7894 28.8088 35.336 29.2903 30.9788M29.8082 30.8111C32.6684 34.044 36.3243 36.4087 40.652 36.1704M40.9001 36.6554C42.7947 40.456 45.5399 48.1578 43.0109 52.1334M46.8067 15.8748C46.8513 15.6023 46.6665 15.3452 46.394 15.3006C46.1215 15.2561 45.8644 15.4408 45.8198 15.7134C45.107 20.0712 44.9028 26.3592 46.6843 30.9701C46.963 31.6915 47.2923 32.3768 47.6789 33.0097C45.1323 34.7578 42.7765 35.5527 40.6245 35.6712C36.2788 35.9105 32.5939 33.3919 29.7137 29.9333C27.0905 26.7833 25.1926 22.9178 24.1407 19.878C24.0504 19.6171 23.7656 19.4787 23.5047 19.569C23.2437 19.6593 23.1054 19.9441 23.1957 20.205C24.2613 23.2847 26.1708 27.1939 28.827 30.4302C28.7646 32.6801 27.5114 34.1502 25.8922 35.099C24.3533 36.0008 22.5144 36.4069 21.1725 36.5107C21.1529 36.3422 21.1316 36.1745 21.1088 36.0079C20.825 33.932 20.2981 31.9431 19.8966 30.7381C19.8093 30.4761 19.5261 30.3345 19.2642 30.4218C19.0022 30.5091 18.8606 30.7922 18.9479 31.0542C19.3326 32.2088 19.8437 34.137 20.1181 36.1434C20.3952 38.1697 20.4177 40.1879 19.8976 41.5752C19.8007 41.8338 19.9317 42.122 20.1903 42.2189C20.4488 42.3158 20.737 42.1848 20.834 41.9262C21.2993 40.6848 21.3785 39.0988 21.2662 37.5064C22.7194 37.3917 24.7041 36.9542 26.3978 35.9618C27.9884 35.0297 29.3477 33.5877 29.7253 31.4659C32.5268 34.5182 36.105 36.7962 40.3542 36.683C41.262 38.4668 42.4041 41.232 43.0422 44.0513C43.7221 47.0557 43.7944 49.9702 42.589 51.865C42.4408 52.098 42.5095 52.407 42.7425 52.5552C42.9755 52.7035 43.2845 52.6347 43.4328 52.4017C44.8693 50.1435 44.7057 46.8718 44.0175 43.8306C43.4009 41.1057 42.3345 38.4441 41.4322 36.6036C43.5791 36.3451 45.854 35.4745 48.2409 33.8368C49.014 34.8592 49.9731 35.6961 51.154 36.2574C53.2185 37.2385 55.8712 37.3349 59.2178 36.2466C59.3473 37.3306 59.5406 38.3479 59.8269 39.1369C59.9755 39.5463 60.1579 39.9189 60.3877 40.2111C60.6187 40.5049 60.9224 40.7473 61.3119 40.8252C61.5827 40.8794 61.8461 40.7038 61.9003 40.433C61.9545 40.1622 61.7789 39.8988 61.5081 39.8446C61.4259 39.8282 61.3119 39.7687 61.1737 39.593C61.0343 39.4157 60.896 39.1512 60.7669 38.7957C60.509 38.0852 60.3228 37.1099 60.1966 36.007C59.9451 33.8086 59.9445 31.2179 60.0224 29.503C60.035 29.2271 59.8215 28.9934 59.5456 28.9808C59.2698 28.9683 59.036 29.1817 59.0234 29.4576C58.9543 30.9786 58.945 33.1839 59.1153 35.2271C55.8255 36.3375 53.3861 36.211 51.5833 35.3542C49.7337 34.4751 48.4559 32.7808 47.6171 30.6097C45.9311 26.2459 46.1043 20.1692 46.8067 15.8748ZM51.8203 9.19058L51.8351 9.19515C54.2041 9.88315 57.7085 11.5896 60.4723 14.4541C63.2237 17.3057 65.2352 21.2948 64.6869 26.5972C64.3809 29.5562 64.4455 32.2491 64.5812 34.7201C64.6205 35.4361 64.6654 36.1301 64.7092 36.8052C64.8173 38.4744 64.9179 40.0285 64.9074 41.5158C64.8928 43.5917 64.6597 45.4839 63.9402 47.2722C63.2227 49.0555 62.009 50.7662 59.9882 52.4583C56.8231 55.1085 52.5169 55.8808 48.2574 55.8808H29.3379C24.9254 55.7282 14.9858 50.9403 12.369 32.2426C12.3672 32.2295 12.3648 32.2164 12.362 32.2035C11.9045 30.1443 11.6718 26.6798 12.4795 23.1012C13.2823 19.5449 15.1032 15.9115 18.7147 13.4071C20.148 12.8472 22.4456 11.8597 24.767 10.683C27.109 9.49578 29.5149 8.09629 31.0741 6.73152C31.6874 6.19468 32.8692 5.89307 34.5324 5.84335C36.1643 5.79456 38.1429 5.98989 40.2296 6.32966C44.4001 7.00872 48.9271 8.25193 51.8203 9.19058Z" stroke="black" stroke-opacity="0.18" stroke-linecap="round" stroke-linejoin="round"/>
</g>
<defs>
<filter id="filter0_d_513_1926" x="0.396484" y="0.335938" width="79.6904" height="212.452" filterUnits="userSpaceOnUse" color-interpolation-filters="sRGB">
<feFlood flood-opacity="0" result="BackgroundImageFix"/>
<feColorMatrix in="SourceAlpha" type="matrix" values="0 0 0 0 0 0 0 0 0 0 0 0 0 0 0 0 0 0 127 0" result="hardAlpha"/>
<feOffset dy="5"/>
<feGaussianBlur stdDeviation="5"/>
<feComposite in2="hardAlpha" operator="out"/>
<feColorMatrix type="matrix" values="0 0 0 0 0 0 0 0 0 0 0 0 0 0 0 0 0 0 0.35 0"/>
<feBlend mode="normal" in2="BackgroundImageFix" result="effect1_dropShadow_513_1926"/>
<feBlend mode="normal" in="SourceGraphic" in2="effect1_dropShadow_513_1926" result="shape"/>
</filter>
<radialGradient id="paint0_diamond_513_1926" cx="0" cy="0" r="1" gradientUnits="userSpaceOnUse" gradientTransform="translate(40.4169 155.637) rotate(90) scale(42.1511 26.6552)">
<stop stop-color="#F9E7C9"/>
<stop offset="1" stop-color="#E7BA8B"/>
</radialGradient>
<radialGradient id="paint1_radial_513_1926" cx="0" cy="0" r="1" gradientUnits="userSpaceOnUse" gradientTransform="translate(40.2419 107.514) rotate(90) scale(20.2667 29.8455)">
<stop offset="0.56179" stop-color="white"/>
<stop offset="1" stop-color="#CAC9C2"/>
</radialGradient>
<radialGradient id="paint2_radial_513_1926" cx="0" cy="0" r="1" gradientUnits="userSpaceOnUse" gradientTransform="translate(38.4267 30.8584) rotate(90) scale(25.5224 26.9814)">
<stop offset="0.56179" stop-color="white"/>
<stop offset="1" stop-color="#CAC9C2"/>
</radialGradient>
</defs>
</svg>
