<svg width="81" height="225" viewBox="0 0 81 225" fill="none" xmlns="http://www.w3.org/2000/svg">
<g filter="url(#filter0_d_513_1926)">
<g clip-path="url(#paint0_diamond_513_1926_clip_path)" data-figma-skip-parse="true"><g transform="matrix(0 0.0421511 -0.0266552 0 40.4169 167.637)"><rect x="0" y="0" width="1023.72" height="1037.52" fill="url(#paint0_diamond_513_1926)" opacity="1" shape-rendering="crispEdges"/><rect x="0" y="0" width="1023.72" height="1037.52" transform="scale(1 -1)" fill="url(#paint0_diamond_513_1926)" opacity="1" shape-rendering="crispEdges"/><rect x="0" y="0" width="1023.72" height="1037.52" transform="scale(-1 1)" fill="url(#paint0_diamond_513_1926)" opacity="1" shape-rendering="crispEdges"/><rect x="0" y="0" width="1023.72" height="1037.52" transform="scale(-1)" fill="url(#paint0_diamond_513_1926)" opacity="1" shape-rendering="crispEdges"/></g></g><path d="M16.5924 164.657C18.4794 147.667 15.4916 137.442 13.7617 134.453L22.7254 125.486L67.0721 125.958C57.6366 149.083 64.2414 153.33 63.2979 162.769C60.5561 190.196 54.0197 205.086 49.1447 209.019C45.8423 210.278 39.7092 210.907 41.5963 203.356C43.9552 193.917 43.9552 178.343 43.4834 174.096C43.0116 169.848 41.5963 166.545 37.8221 165.129C34.8028 163.996 34.048 166.545 34.048 167.96C35.1488 170.635 36.2181 177.399 31.6891 183.062C26.0278 190.141 28.3867 196.749 27.9149 200.996C27.5375 204.394 25.2415 204.614 24.1407 204.3C10.9311 194.861 14.2335 185.894 16.5924 164.657Z" data-figma-gradient-fill="{&#34;type&#34;:&#34;GRADIENT_DIAMOND&#34;,&#34;stops&#34;:[{&#34;color&#34;:{&#34;r&#34;:0.97647058963775635,&#34;g&#34;:0.90588235855102539,&#34;b&#34;:0.78823530673980713,&#34;a&#34;:1.0},&#34;position&#34;:0.0},{&#34;color&#34;:{&#34;r&#34;:0.90588235855102539,&#34;g&#34;:0.7294117808341980,&#34;b&#34;:0.54509806632995605,&#34;a&#34;:1.0},&#34;position&#34;:1.0}],&#34;stopsVar&#34;:[{&#34;color&#34;:{&#34;r&#34;:0.97647058963775635,&#34;g&#34;:0.90588235855102539,&#34;b&#34;:0.78823530673980713,&#34;a&#34;:1.0},&#34;position&#34;:0.0},{&#34;color&#34;:{&#34;r&#34;:0.90588235855102539,&#34;g&#34;:0.7294117808341980,&#34;b&#34;:0.54509806632995605,&#34;a&#34;:1.0},&#34;position&#34;:1.0}],&#34;transform&#34;:{&#34;m00&#34;:3.2643178067434881e-15,&#34;m01&#34;:-53.310352325439453,&#34;m02&#34;:67.072067260742188,&#34;m10&#34;:84.302291870117188,&#34;m11&#34;:5.1620267271562572e-15,&#34;m12&#34;:125.485839843750},&#34;opacity&#34;:1.0,&#34;blendMode&#34;:&#34;NORMAL&#34;,&#34;visible&#34;:true}"/>
<ellipse cx="29.8023" cy="108.022" rx="7.54837" ry="8.4949" fill="#A9A9A9"/>
<ellipse cx="51.0313" cy="108.023" rx="9.90723" ry="8.4949" fill="#A9A9A9"/>
<path d="M60.4675 100.001C52.1643 103.776 46.3144 104.405 44.4273 104.248C38.4373 101.751 33.7677 103.107 30.7458 105.176C26.9717 101.857 18.9515 100.001 13.762 106.136C8.57251 112.271 10.9314 121.238 10.9314 126.429C10.9314 131.621 14.7056 137.284 18.008 135.868C20.6499 134.735 25.3991 135.081 27.4434 135.396C31.6894 136.812 38.766 142.003 41.1248 138.7C43.0119 136.057 47.5724 136.655 49.6168 137.284C56.4103 139.927 60.9393 139.329 62.3546 138.7C69.903 128.883 70.532 117.934 69.903 113.687C70.2175 107.552 68.7707 96.2251 60.4675 100.001Z" fill="url(#paint1_radial_513_1926)"/>
<path d="M30.7448 43.3553C27.7254 45.9981 21.3093 48.8612 18.4787 49.9624C10.9303 55.1538 10.9303 65.0645 11.8739 69.3119C14.5158 88.1895 24.6117 93.2235 29.3295 93.3808H48.2574C52.5602 93.3808 57.0101 92.604 60.3092 89.8416C68.6127 82.889 63.976 75.3325 65.1842 63.6487C66.3165 52.6997 56.8495 47.1308 51.9746 45.715C46.156 43.8272 33.7641 40.7124 30.7448 43.3553Z" fill="url(#paint2_radial_513_1926)"/>
<path d="M12.369 69.2426C12.3672 69.2295 12.3648 69.2164 12.362 69.2035C11.9045 67.1443 11.6718 63.6798 12.4795 60.1012C13.2823 56.5449 15.1032 52.9115 18.7147 50.4071C20.148 49.8472 22.4456 48.8597 24.767 47.683C27.109 46.4958 29.5149 45.0963 31.0741 43.7315C31.6874 43.1947 32.8692 42.8931 34.5324 42.8433C36.1643 42.7946 38.1429 42.9899 40.2296 43.3297C44.4001 44.0087 48.9271 45.2519 51.8203 46.1906L51.8351 46.1951C54.2041 46.8832 57.7085 48.5896 60.4723 51.4541C63.2237 54.3057 65.2352 58.2948 64.6869 63.5972C64.3809 66.5562 64.4455 69.2491 64.5812 71.7201C64.6205 72.4361 64.6654 73.1301 64.7092 73.8052C64.8173 75.4744 64.9179 77.0285 64.9074 78.5158C64.8928 80.5917 64.6597 82.4839 63.9402 84.2722C63.2227 86.0555 62.009 87.7662 59.9882 89.4583C56.8231 92.1085 52.5169 92.8808 48.2574 92.8808H29.3379C24.9254 92.7282 14.9858 87.9403 12.369 69.2426Z" stroke="black" stroke-opacity="0.18" stroke-linecap="round" stroke-linejoin="round"/>
<g filter="url(#filter1_d_513_1926)">
<path d="M43.3357 37.6952C37.8525 38.4457 36.0931 38.357 35.3689 37.0335C35.3689 38.357 33.6306 40.3423 20.8193 37.6952C11.585 35.7872 15.7494 24.4598 17.1979 22.4745C18.3568 20.8863 20.095 15.6362 20.8193 13.2098C20.8196 11.8862 22.9921 9.23916 29.5108 7.91562C43.6967 5.03535 53.4118 5.70972 57.033 7.91562C59.6887 10.1215 65 17.1804 65 27.7687C65 38.357 56.3087 39.2394 51.9631 38.357C49.066 37.0335 48.1707 37.0335 43.3357 37.6952Z" fill="url(#paint3_radial_513_1926)"/>
<path d="M35.3689 37.0335C34.8861 32.8423 34.7895 24.4598 38.266 24.4598M35.3689 37.0335C36.0931 38.357 37.8525 38.4457 43.3357 37.6952C48.1707 37.0335 49.066 37.0335 51.9631 38.357C56.3087 39.2394 65 38.357 65 27.7687C65 17.1804 59.6887 10.1215 57.033 7.91562C53.4118 5.70973 43.6967 5.03535 29.5108 7.91562C22.9921 9.23916 20.8196 11.8862 20.8193 13.2098C20.095 15.6362 18.3568 20.8863 17.1979 22.4745C15.7494 24.4598 11.585 35.7872 20.8193 37.6952C33.6306 40.3423 35.3689 38.357 35.3689 37.0335Z" stroke="#CBCBCB"/>
</g>
</g>
<defs>
<filter id="filter0_d_513_1926" x="0.396484" y="0.5" width="79.6904" height="224.288" filterUnits="userSpaceOnUse" color-interpolation-filters="sRGB">
<feFlood flood-opacity="0" result="BackgroundImageFix"/>
<feColorMatrix in="SourceAlpha" type="matrix" values="0 0 0 0 0 0 0 0 0 0 0 0 0 0 0 0 0 0 127 0" result="hardAlpha"/>
<feOffset dy="5"/>
<feGaussianBlur stdDeviation="5"/>
<feComposite in2="hardAlpha" operator="out"/>
<feColorMatrix type="matrix" values="0 0 0 0 0 0 0 0 0 0 0 0 0 0 0 0 0 0 0.35 0"/>
<feBlend mode="normal" in2="BackgroundImageFix" result="effect1_dropShadow_513_1926"/>
<feBlend mode="normal" in="SourceGraphic" in2="effect1_dropShadow_513_1926" result="shape"/>
</filter>
<clipPath id="paint0_diamond_513_1926_clip_path"><path d="M16.5924 164.657C18.4794 147.667 15.4916 137.442 13.7617 134.453L22.7254 125.486L67.0721 125.958C57.6366 149.083 64.2414 153.33 63.2979 162.769C60.5561 190.196 54.0197 205.086 49.1447 209.019C45.8423 210.278 39.7092 210.907 41.5963 203.356C43.9552 193.917 43.9552 178.343 43.4834 174.096C43.0116 169.848 41.5963 166.545 37.8221 165.129C34.8028 163.996 34.048 166.545 34.048 167.96C35.1488 170.635 36.2181 177.399 31.6891 183.062C26.0278 190.141 28.3867 196.749 27.9149 200.996C27.5375 204.394 25.2415 204.614 24.1407 204.3C10.9311 194.861 14.2335 185.894 16.5924 164.657Z"/></clipPath><filter id="filter1_d_513_1926" x="10.5" y="5.5" width="59" height="41.9999" filterUnits="userSpaceOnUse" color-interpolation-filters="sRGB">
<feFlood flood-opacity="0" result="BackgroundImageFix"/>
<feColorMatrix in="SourceAlpha" type="matrix" values="0 0 0 0 0 0 0 0 0 0 0 0 0 0 0 0 0 0 127 0" result="hardAlpha"/>
<feOffset dy="4"/>
<feGaussianBlur stdDeviation="2"/>
<feComposite in2="hardAlpha" operator="out"/>
<feColorMatrix type="matrix" values="0 0 0 0 0 0 0 0 0 0 0 0 0 0 0 0 0 0 0.25 0"/>
<feBlend mode="normal" in2="BackgroundImageFix" result="effect1_dropShadow_513_1926"/>
<feBlend mode="normal" in="SourceGraphic" in2="effect1_dropShadow_513_1926" result="shape"/>
</filter>
<linearGradient id="paint0_diamond_513_1926" x1="0" y1="0" x2="500" y2="500" gradientUnits="userSpaceOnUse">
<stop stop-color="#F9E7C9"/>
<stop offset="1" stop-color="#E7BA8B"/>
</linearGradient>
<radialGradient id="paint1_radial_513_1926" cx="0" cy="0" r="1" gradientUnits="userSpaceOnUse" gradientTransform="translate(40.2419 119.514) rotate(90) scale(20.2667 29.8455)">
<stop offset="0.56179" stop-color="white"/>
<stop offset="1" stop-color="#CAC9C2"/>
</radialGradient>
<radialGradient id="paint2_radial_513_1926" cx="0" cy="0" r="1" gradientUnits="userSpaceOnUse" gradientTransform="translate(38.4267 67.8584) rotate(90) scale(25.5224 26.9814)">
<stop offset="0.56179" stop-color="white"/>
<stop offset="1" stop-color="#CAC9C2"/>
</radialGradient>
<radialGradient id="paint3_radial_513_1926" cx="0" cy="0" r="1" gradientUnits="userSpaceOnUse" gradientTransform="translate(40 22.5) rotate(-90) scale(16.5 25)">
<stop offset="0.505" stop-color="white"/>
<stop offset="1" stop-color="#D9D9D9"/>
</radialGradient>
</defs>
</svg>
