<svg width="73" height="218" viewBox="0 0 73 218" fill="none" xmlns="http://www.w3.org/2000/svg">
<g filter="url(#filter0_d_513_1921)">
<g clip-path="url(#paint0_diamond_513_1921_clip_path)" data-figma-skip-parse="true"><g transform="matrix(0 0.0458918 -0.0232313 0 34.3504 156.545)"><rect x="0" y="0" width="1021.79" height="1043.05" fill="url(#paint0_diamond_513_1921)" opacity="1" shape-rendering="crispEdges"/><rect x="0" y="0" width="1021.79" height="1043.05" transform="scale(1 -1)" fill="url(#paint0_diamond_513_1921)" opacity="1" shape-rendering="crispEdges"/><rect x="0" y="0" width="1021.79" height="1043.05" transform="scale(-1 1)" fill="url(#paint0_diamond_513_1921)" opacity="1" shape-rendering="crispEdges"/><rect x="0" y="0" width="1021.79" height="1043.05" transform="scale(-1)" fill="url(#paint0_diamond_513_1921)" opacity="1" shape-rendering="crispEdges"/></g></g><path d="M11.8438 156.948C10.3341 148.642 11.5293 133.666 12.3155 127.216L29.7711 110.698C36.2187 110.541 51.5671 110.038 55.7187 124.385C59.2184 136.479 57.0412 159.707 55.235 173.488C54.6612 177.867 53.441 182.136 51.5295 186.117C48.5712 192.277 44.7164 199.459 42.509 200.839C38.7348 203.198 36.8477 202.726 35.9042 200.839C35.1493 199.329 35.5897 194.861 35.9042 192.816C37.7913 186.209 41.188 171.201 39.6784 164.027C37.7913 155.061 34.9606 155.061 34.0171 155.533C33.0735 156.005 31.6582 158.364 29.7711 164.027C27.884 169.691 28.8276 178.658 29.7711 183.849C30.526 188.002 30.4002 190.928 30.2429 191.872C28.8276 193.602 25.2421 196.025 22.2228 191.872C18.4486 186.681 13.7309 167.331 11.8438 156.948Z" data-figma-gradient-fill="{&#34;type&#34;:&#34;GRADIENT_DIAMOND&#34;,&#34;stops&#34;:[{&#34;color&#34;:{&#34;r&#34;:0.97647058963775635,&#34;g&#34;:0.90588235855102539,&#34;b&#34;:0.78823530673980713,&#34;a&#34;:1.0},&#34;position&#34;:0.0},{&#34;color&#34;:{&#34;r&#34;:0.90588235855102539,&#34;g&#34;:0.7294117808341980,&#34;b&#34;:0.54509806632995605,&#34;a&#34;:1.0},&#34;position&#34;:1.0}],&#34;stopsVar&#34;:[{&#34;color&#34;:{&#34;r&#34;:0.97647058963775635,&#34;g&#34;:0.90588235855102539,&#34;b&#34;:0.78823530673980713,&#34;a&#34;:1.0},&#34;position&#34;:0.0},{&#34;color&#34;:{&#34;r&#34;:0.90588235855102539,&#34;g&#34;:0.7294117808341980,&#34;b&#34;:0.54509806632995605,&#34;a&#34;:1.0},&#34;position&#34;:1.0}],&#34;transform&#34;:{&#34;m00&#34;:2.8450132044465599e-15,&#34;m01&#34;:-46.462589263916016,&#34;m02&#34;:57.581729888916016,&#34;m10&#34;:91.78356933593750,&#34;m11&#34;:5.6201228973385906e-15,&#34;m12&#34;:110.652832031250},&#34;opacity&#34;:1.0,&#34;blendMode&#34;:&#34;NORMAL&#34;,&#34;visible&#34;:true}"/>
<path d="M10.1812 111.721C9.87519 121.713 10.6999 127.218 11.6114 129.894C12.0619 131.217 13.5402 131.203 14.9047 130.901C16.4282 130.565 18.3426 130.648 20.0805 130.907C22.805 131.313 25.053 133.03 27.4085 134.458C30.9739 136.62 35.6044 137.804 40.1486 135.706C44.3719 131.763 49.5579 131.952 53.1604 133.021C54.8539 133.523 56.8474 132.908 57.3971 131.229C59.0196 126.275 59.0196 121.365 59.0196 113.525C59.0196 105.974 53.3583 99.9959 50.5277 97.9509C48.0115 96.6924 41.9414 95.1192 37.7898 98.8947C33.6382 102.67 28.8261 101.412 26.939 100.311C21.4694 96.9234 16.7338 99.1852 13.6003 102.256C11.1187 104.689 10.2875 108.248 10.1812 111.721Z" fill="url(#paint1_radial_513_1921)"/>
<path d="M12.684 59.6736C10.9135 44.5011 26.9556 37.0669 36.0054 40.6794C36.8802 41.0286 37.8277 41.2069 38.7612 41.0812C45.6858 40.1483 50.6699 41.8915 54.0038 44.1856C57.5968 46.658 59.271 50.9547 60.162 55.2241C61.7317 62.7453 62.7924 73.0254 59.9622 79.5371C56.1881 88.2208 48.0107 87.8747 44.3937 86.6162C42.6639 86.1443 38.8268 85.3892 37.3171 86.1443C35.8075 86.8994 31.9704 86.7735 30.2406 86.6162C21.4101 84.6532 16.0868 79.0621 14.3485 73.9629C12.852 69.5733 13.2216 64.28 12.684 59.6736Z" fill="url(#paint2_radial_513_1921)"/>
<path d="M44.558 86.144C44.5473 86.1402 44.5364 86.1369 44.5253 86.1339C43.6412 85.8926 42.2238 85.5801 40.8287 85.4232C40.1312 85.3448 39.4277 85.304 38.7931 85.3336C38.1687 85.3629 37.5635 85.462 37.0935 85.6971C36.7851 85.8513 36.3225 85.9754 35.742 86.0645C35.1693 86.1524 34.5155 86.2014 33.8456 86.2227C32.5221 86.2646 31.1686 86.1972 30.3177 86.1212C21.661 84.1863 16.4968 78.7154 14.8217 73.8016C14.0955 71.6712 13.8168 69.3043 13.6556 66.8665C13.6018 66.053 13.561 65.227 13.5202 64.4004C13.4401 62.7768 13.3599 61.1514 13.1807 59.6156C12.3201 52.2415 15.7778 46.7619 20.5658 43.5472C25.3805 40.3146 31.4805 39.4115 35.82 41.1437C36.7527 41.516 37.7883 41.7168 38.8279 41.5767C45.6289 40.6604 50.4882 42.3734 53.7204 44.5975C57.1493 46.9571 58.7886 51.0908 59.6726 55.3263C60.4533 59.0672 61.1056 63.4863 61.2122 67.7716C61.3191 72.0662 60.8764 76.1794 59.5037 79.3378C57.6782 83.538 54.8112 85.5219 51.9826 86.324C49.1299 87.1328 46.2874 86.7457 44.558 86.144Z" stroke="black" stroke-opacity="0.18" stroke-linecap="round" stroke-linejoin="round"/>
<g filter="url(#filter1_d_513_1921)">
<path d="M41.6356 33.7038C36.4813 34.4494 34.8275 34.3612 34.1468 33.0464C34.1468 34.3612 32.5128 36.3335 20.4701 33.7038C11.7899 31.8084 15.7044 20.5556 17.0661 18.5834C18.1554 17.0056 18.4127 16.8336 19.0935 14.4231C19.0937 13.1083 22.5126 9.21782 28.6402 7.903C41.9749 5.04171 51.1071 5.71164 54.511 7.903C57.0073 10.0944 62 13.3241 62 23.8427C62 34.3612 53.8302 35.2378 49.7453 34.3612C47.022 33.0464 46.1804 33.0464 41.6356 33.7038Z" fill="url(#paint3_radial_513_1921)"/>
<path d="M34.1468 33.0464C33.6929 28.8828 33.6021 20.5556 36.8701 20.5556M34.1468 33.0464C34.8275 34.3612 36.4813 34.4494 41.6356 33.7038C46.1804 33.0464 47.022 33.0464 49.7453 34.3612C53.8302 35.2378 62 34.3612 62 23.8427C62 13.3241 57.0073 10.0944 54.511 7.903C51.1071 5.71164 41.9749 5.04171 28.6402 7.903C22.5126 9.21782 19.0937 13.1083 19.0935 14.4231C18.4127 16.8336 18.1554 17.0056 17.0661 18.5834C15.7044 20.5556 11.7899 31.8084 20.4701 33.7038C32.5128 36.3335 34.1468 34.3612 34.1468 33.0464Z" stroke="#CBCBCB"/>
</g>
</g>
<defs>
<filter id="filter0_d_513_1921" x="0.116211" y="0.5" width="72.3838" height="216.936" filterUnits="userSpaceOnUse" color-interpolation-filters="sRGB">
<feFlood flood-opacity="0" result="BackgroundImageFix"/>
<feColorMatrix in="SourceAlpha" type="matrix" values="0 0 0 0 0 0 0 0 0 0 0 0 0 0 0 0 0 0 127 0" result="hardAlpha"/>
<feOffset dy="5"/>
<feGaussianBlur stdDeviation="5"/>
<feComposite in2="hardAlpha" operator="out"/>
<feColorMatrix type="matrix" values="0 0 0 0 0 0 0 0 0 0 0 0 0 0 0 0 0 0 0.35 0"/>
<feBlend mode="normal" in2="BackgroundImageFix" result="effect1_dropShadow_513_1921"/>
<feBlend mode="normal" in="SourceGraphic" in2="effect1_dropShadow_513_1921" result="shape"/>
</filter>
<clipPath id="paint0_diamond_513_1921_clip_path"><path d="M11.8438 156.948C10.3341 148.642 11.5293 133.666 12.3155 127.216L29.7711 110.698C36.2187 110.541 51.5671 110.038 55.7187 124.385C59.2184 136.479 57.0412 159.707 55.235 173.488C54.6612 177.867 53.441 182.136 51.5295 186.117C48.5712 192.277 44.7164 199.459 42.509 200.839C38.7348 203.198 36.8477 202.726 35.9042 200.839C35.1493 199.329 35.5897 194.861 35.9042 192.816C37.7913 186.209 41.188 171.201 39.6784 164.027C37.7913 155.061 34.9606 155.061 34.0171 155.533C33.0735 156.005 31.6582 158.364 29.7711 164.027C27.884 169.691 28.8276 178.658 29.7711 183.849C30.526 188.002 30.4002 190.928 30.2429 191.872C28.8276 193.602 25.2421 196.025 22.2228 191.872C18.4486 186.681 13.7309 167.331 11.8438 156.948Z"/></clipPath><filter id="filter1_d_513_1921" x="10.5" y="5.5" width="56" height="37.9999" filterUnits="userSpaceOnUse" color-interpolation-filters="sRGB">
<feFlood flood-opacity="0" result="BackgroundImageFix"/>
<feColorMatrix in="SourceAlpha" type="matrix" values="0 0 0 0 0 0 0 0 0 0 0 0 0 0 0 0 0 0 127 0" result="hardAlpha"/>
<feOffset dy="4"/>
<feGaussianBlur stdDeviation="2"/>
<feComposite in2="hardAlpha" operator="out"/>
<feColorMatrix type="matrix" values="0 0 0 0 0 0 0 0 0 0 0 0 0 0 0 0 0 0 0.25 0"/>
<feBlend mode="normal" in2="BackgroundImageFix" result="effect1_dropShadow_513_1921"/>
<feBlend mode="normal" in="SourceGraphic" in2="effect1_dropShadow_513_1921" result="shape"/>
</filter>
<linearGradient id="paint0_diamond_513_1921" x1="0" y1="0" x2="500" y2="500" gradientUnits="userSpaceOnUse">
<stop stop-color="#F9E7C9"/>
<stop offset="1" stop-color="#E7BA8B"/>
</linearGradient>
<radialGradient id="paint1_radial_513_1921" cx="0" cy="0" r="1" gradientUnits="userSpaceOnUse" gradientTransform="translate(34.5679 116.666) rotate(90) scale(20.138 24.4517)">
<stop offset="0.56179" stop-color="white"/>
<stop offset="1" stop-color="#CAC9C2"/>
</radialGradient>
<radialGradient id="paint2_radial_513_1921" cx="0" cy="0" r="1" gradientUnits="userSpaceOnUse" gradientTransform="translate(37.1382 63.5309) rotate(90) scale(23.7526 24.5893)">
<stop offset="0.56179" stop-color="white"/>
<stop offset="1" stop-color="#CAC9C2"/>
</radialGradient>
<radialGradient id="paint3_radial_513_1921" cx="0" cy="0" r="1" gradientUnits="userSpaceOnUse" gradientTransform="translate(38.5 20.5) rotate(-90) scale(14.5 23.5)">
<stop offset="0.505" stop-color="white"/>
<stop offset="1" stop-color="#D9D9D9"/>
</radialGradient>
</defs>
</svg>
