<svg width="70" height="208" viewBox="0 0 70 208" fill="none" xmlns="http://www.w3.org/2000/svg">
<g filter="url(#filter0_d_513_1917)">
<g clip-path="url(#paint0_diamond_513_1917_clip_path)" data-figma-skip-parse="true"><g transform="matrix(0 0.0352413 -0.0198818 0 32.9649 157.245)"><rect x="0" y="0" width="1028.38" height="1050.3" fill="url(#paint0_diamond_513_1917)" opacity="1" shape-rendering="crispEdges"/><rect x="0" y="0" width="1028.38" height="1050.3" transform="scale(1 -1)" fill="url(#paint0_diamond_513_1917)" opacity="1" shape-rendering="crispEdges"/><rect x="0" y="0" width="1028.38" height="1050.3" transform="scale(-1 1)" fill="url(#paint0_diamond_513_1917)" opacity="1" shape-rendering="crispEdges"/><rect x="0" y="0" width="1028.38" height="1050.3" transform="scale(-1)" fill="url(#paint0_diamond_513_1917)" opacity="1" shape-rendering="crispEdges"/></g></g><path d="M15.738 138.522C16.4928 135.879 16.6815 126.409 16.6815 122.004C24.8589 122.633 42.6289 124.647 48.2902 127.667C52.4019 129.861 53.1126 141.481 52.7719 151.535C52.5435 158.273 51.1286 164.93 48.4005 171.095C45.186 178.36 40.5783 186.664 35.5524 190.435C28.004 196.098 29.262 188.705 30.8346 184.3C31.4481 182.582 34.2314 180.43 36.4959 166.838C38.7604 153.246 35.2378 149.534 33.1935 149.376C23.2863 151.264 25.1733 173.917 25.6451 180.524C26.0225 185.81 23.9153 185.558 22.8146 184.772C7.24607 175.805 14.7944 141.825 15.738 138.522Z" data-figma-gradient-fill="{&#34;type&#34;:&#34;GRADIENT_DIAMOND&#34;,&#34;stops&#34;:[{&#34;color&#34;:{&#34;r&#34;:0.97647058963775635,&#34;g&#34;:0.90588235855102539,&#34;b&#34;:0.78823530673980713,&#34;a&#34;:1.0},&#34;position&#34;:0.0},{&#34;color&#34;:{&#34;r&#34;:0.90588235855102539,&#34;g&#34;:0.7294117808341980,&#34;b&#34;:0.54509806632995605,&#34;a&#34;:1.0},&#34;position&#34;:1.0}],&#34;stopsVar&#34;:[{&#34;color&#34;:{&#34;r&#34;:0.97647058963775635,&#34;g&#34;:0.90588235855102539,&#34;b&#34;:0.78823530673980713,&#34;a&#34;:1.0},&#34;position&#34;:0.0},{&#34;color&#34;:{&#34;r&#34;:0.90588235855102539,&#34;g&#34;:0.7294117808341980,&#34;b&#34;:0.54509806632995605,&#34;a&#34;:1.0},&#34;position&#34;:1.0}],&#34;transform&#34;:{&#34;m00&#34;:2.4348241589697457e-15,&#34;m01&#34;:-39.763694763183594,&#34;m02&#34;:52.846702575683594,&#34;m10&#34;:70.482681274414062,&#34;m11&#34;:4.3158196370255298e-15,&#34;m12&#34;:122.003906250},&#34;opacity&#34;:1.0,&#34;blendMode&#34;:&#34;NORMAL&#34;,&#34;visible&#34;:true}"/>
<path d="M26.5872 105.959C30.1876 101.957 38.8761 106.1 42.0104 108.603C41.5496 108.203 40.9736 107.778 40.2687 107.375C41.9985 106.903 45.6469 105.676 46.4017 104.543C47.3453 103.128 51.5912 103.6 52.5348 104.543C53.4783 105.487 56.7807 107.375 56.3089 114.926C55.8372 122.477 55.8372 130.972 51.1194 133.804C48.2888 131.916 40.7404 129.179 33.1921 133.332C25.6437 137.485 18.4098 133.804 15.7365 131.444C13.8494 129.714 10.6413 123.421 12.9058 112.095C13.3776 109.42 15.4534 104.261 19.9824 105.015C21.2177 105.802 23.9781 107.375 25.1377 107.375C25.6162 106.968 26.1014 106.499 26.5872 105.959Z" fill="url(#paint1_radial_513_1917)"/>
<path d="M11.0195 54.0339C9.13239 82.7278 22.1848 86.755 28.9469 85.1818C33.0985 84.0492 38.2251 85.3392 40.2694 86.1257C44.6726 87.0696 54.0452 85.1818 56.3097 70.0798C58.5742 54.9777 54.1081 47.1121 51.592 45.067C49.2331 43.3366 43.3831 40.2532 38.8541 41.7634C33.1928 43.6512 30.3622 41.7634 26.1162 41.2915C17.1525 39.8757 11.6485 49.4718 11.0195 54.0339Z" fill="url(#paint2_radial_513_1917)"/>
<path d="M26.0382 41.7854C26.0458 41.7866 26.0534 41.7876 26.061 41.7884C27.0933 41.9032 28.0436 42.1044 28.992 42.3176C29.1132 42.3449 29.2346 42.3724 29.3563 42.4C30.1794 42.5865 31.0125 42.7753 31.8795 42.9067C33.894 43.2121 36.0978 43.2096 39.0123 42.2378C41.1255 41.5331 43.5951 41.8897 45.8744 42.6729C48.1376 43.4505 50.1403 44.6239 51.286 45.4627C53.6146 47.3662 58.0625 55.0186 55.8152 70.0056C54.6979 77.4571 51.8422 81.5669 48.8033 83.7114C45.771 85.8513 42.4938 86.0801 40.4114 85.6447C39.3478 85.2395 37.5358 84.7197 35.4656 84.4386C33.3772 84.155 30.9873 84.1089 28.8246 84.6969C25.5954 85.445 20.8447 84.8624 17.115 80.6275C13.3703 76.3758 10.5812 68.3597 11.5172 54.0848C11.8219 51.9138 13.3036 48.4777 15.8099 45.76C18.3118 43.047 21.7724 41.1116 26.0382 41.7854Z" stroke="black" stroke-opacity="0.18" stroke-linecap="round" stroke-linejoin="round"/>
<g filter="url(#filter1_d_513_1917)">
<path d="M38.14 34.5417C32.8603 35.2407 32.605 35.7744 31.9077 34.5417C31.9077 35.7744 28.7951 37.0071 16.4594 34.5417C7.56792 32.7648 12.2118 23.032 12.2124 20.7319C12.2131 18.2359 13.7034 15.1217 14.4008 12.8618C15.0982 10.6019 16.8776 8.37065 23.1543 7.13799C36.8135 4.45547 52.6065 6.78483 55.2502 9.99988C56.7091 12.8618 59 15.4354 59 25.2968C59 35.1581 50.6314 35.9799 46.447 35.1581C43.6575 33.9254 42.7954 33.9254 38.14 34.5417Z" fill="url(#paint3_radial_513_1917)"/>
<path d="M31.9077 34.5417C31.4428 30.6383 30.4689 26.4558 33.3666 23.5939M31.9077 34.5417C32.605 35.7744 32.8603 35.2407 38.14 34.5417C42.7954 33.9254 43.6575 33.9254 46.447 35.1581C50.6314 35.9799 59 35.1581 59 25.2968C59 15.4354 56.7091 12.8618 55.2502 9.99988C52.6065 6.78483 36.8135 4.45547 23.1543 7.13799C16.8776 8.37065 15.0982 10.6019 14.4008 12.8618C13.7034 15.1217 12.2131 18.2359 12.2124 20.7319C12.2118 23.032 7.56792 32.7648 16.4594 34.5417C28.7951 37.0071 31.9077 35.7744 31.9077 34.5417Z" stroke="#CBCBCB"/>
</g>
</g>
<defs>
<filter id="filter0_d_513_1917" x="0.5" y="0.465088" width="69" height="207.021" filterUnits="userSpaceOnUse" color-interpolation-filters="sRGB">
<feFlood flood-opacity="0" result="BackgroundImageFix"/>
<feColorMatrix in="SourceAlpha" type="matrix" values="0 0 0 0 0 0 0 0 0 0 0 0 0 0 0 0 0 0 127 0" result="hardAlpha"/>
<feOffset dy="5"/>
<feGaussianBlur stdDeviation="5"/>
<feComposite in2="hardAlpha" operator="out"/>
<feColorMatrix type="matrix" values="0 0 0 0 0 0 0 0 0 0 0 0 0 0 0 0 0 0 0.35 0"/>
<feBlend mode="normal" in2="BackgroundImageFix" result="effect1_dropShadow_513_1917"/>
<feBlend mode="normal" in="SourceGraphic" in2="effect1_dropShadow_513_1917" result="shape"/>
</filter>
<clipPath id="paint0_diamond_513_1917_clip_path"><path d="M15.738 138.522C16.4928 135.879 16.6815 126.409 16.6815 122.004C24.8589 122.633 42.6289 124.647 48.2902 127.667C52.4019 129.861 53.1126 141.481 52.7719 151.535C52.5435 158.273 51.1286 164.93 48.4005 171.095C45.186 178.36 40.5783 186.664 35.5524 190.435C28.004 196.098 29.262 188.705 30.8346 184.3C31.4481 182.582 34.2314 180.43 36.4959 166.838C38.7604 153.246 35.2378 149.534 33.1935 149.376C23.2863 151.264 25.1733 173.917 25.6451 180.524C26.0225 185.81 23.9153 185.558 22.8146 184.772C7.24607 175.805 14.7944 141.825 15.738 138.522Z"/></clipPath><filter id="filter1_d_513_1917" x="6.5" y="5.46509" width="57" height="39" filterUnits="userSpaceOnUse" color-interpolation-filters="sRGB">
<feFlood flood-opacity="0" result="BackgroundImageFix"/>
<feColorMatrix in="SourceAlpha" type="matrix" values="0 0 0 0 0 0 0 0 0 0 0 0 0 0 0 0 0 0 127 0" result="hardAlpha"/>
<feOffset dy="4"/>
<feGaussianBlur stdDeviation="2"/>
<feComposite in2="hardAlpha" operator="out"/>
<feColorMatrix type="matrix" values="0 0 0 0 0 0 0 0 0 0 0 0 0 0 0 0 0 0 0.25 0"/>
<feBlend mode="normal" in2="BackgroundImageFix" result="effect1_dropShadow_513_1917"/>
<feBlend mode="normal" in="SourceGraphic" in2="effect1_dropShadow_513_1917" result="shape"/>
</filter>
<linearGradient id="paint0_diamond_513_1917" x1="0" y1="0" x2="500" y2="500" gradientUnits="userSpaceOnUse">
<stop stop-color="#F9E7C9"/>
<stop offset="1" stop-color="#E7BA8B"/>
</linearGradient>
<radialGradient id="paint1_radial_513_1917" cx="0" cy="0" r="1" gradientUnits="userSpaceOnUse" gradientTransform="translate(34.2409 119.431) rotate(90) scale(15.7816 22.1139)">
<stop offset="0.56179" stop-color="white"/>
<stop offset="1" stop-color="#CAC9C2"/>
</radialGradient>
<radialGradient id="paint2_radial_513_1917" cx="0" cy="0" r="1" gradientUnits="userSpaceOnUse" gradientTransform="translate(33.8831 63.739) rotate(90) scale(22.5886 23.0481)">
<stop offset="0.56179" stop-color="white"/>
<stop offset="1" stop-color="#CAC9C2"/>
</radialGradient>
<radialGradient id="paint3_radial_513_1917" cx="0" cy="0" r="1" gradientUnits="userSpaceOnUse" gradientTransform="translate(35 20.9651) rotate(-90) scale(15 24)">
<stop offset="0.505" stop-color="white"/>
<stop offset="1" stop-color="#D9D9D9"/>
</radialGradient>
</defs>
</svg>
